<svg width="16" height="16" viewBox="0 0 16 16" fill="none" xmlns="http://www.w3.org/2000/svg">
<path fill-rule="evenodd" clip-rule="evenodd" d="M6 3.00001L10.5 3C11.4665 3 12.25 3.7835 12.25 4.75V11C12.25 11.4142 12.5858 11.75 13 11.75C13.4142 11.75 13.75 11.4142 13.75 11V4.75C13.75 2.95508 12.2949 1.5 10.5 1.5L6 1.50001C5.5858 1.50001 5.25 1.8358 5.25 2.25001C5.25 2.66422 5.5858 3.00001 6 3.00001ZM4.5 3.75001C3.39543 3.75001 2.5 4.64543 2.5 5.75V12.5C2.5 13.6046 3.39543 14.5 4.5 14.5H9.5C10.6046 14.5 11.5 13.6046 11.5 12.5V5.75C11.5 4.64543 10.6046 3.75001 9.5 3.75001H4.5Z" fill="#3AED6F"/>
</svg>
