<svg width="14" height="14" viewBox="0 0 14 14" fill="none" xmlns="http://www.w3.org/2000/svg">
<g clip-path="url(#clip0_2347_41863)">
<path d="M1.78183 13.4164C1.60766 13.4166 1.43554 13.3788 1.27745 13.3058C1.11936 13.2327 0.9791 13.126 0.866444 12.9932C0.753789 12.8603 0.671443 12.7045 0.625144 12.5366C0.578845 12.3687 0.569705 12.1928 0.59836 12.021L1.00681 9.56602C1.06822 9.19268 1.24549 8.84811 1.51352 8.58108L8.97979 1.1148C9.32542 0.784901 9.78486 0.60083 10.2627 0.60083C10.7405 0.60083 11.1999 0.784901 11.5455 1.1148L12.8837 2.45323C13.0522 2.62165 13.1859 2.82163 13.2771 3.04173C13.3682 3.26182 13.4152 3.49773 13.4152 3.73598C13.4152 3.97422 13.3682 4.21013 13.2771 4.43023C13.1859 4.65033 13.0522 4.8503 12.8837 5.01873L5.41741 12.485C5.15044 12.7529 4.80598 12.9302 4.43274 12.9917L1.97751 13.4001C1.91284 13.4109 1.84739 13.4163 1.78183 13.4164ZM10.2627 1.74998C10.1776 1.7498 10.0933 1.76647 10.0147 1.79903C9.93609 1.83159 9.8647 1.87939 9.80466 1.93968L2.33839 9.40594C2.24277 9.50137 2.17951 9.6244 2.15752 9.75769L1.74908 12.2124L4.24078 11.8409C4.37407 11.819 4.4971 11.7557 4.59253 11.6601L12.0588 4.19383C12.1189 4.13373 12.1667 4.06238 12.1992 3.98384C12.2318 3.9053 12.2485 3.82112 12.2485 3.7361C12.2485 3.65109 12.2318 3.56691 12.1992 3.48837C12.1667 3.40983 12.1189 3.33847 12.0588 3.27838L10.7204 1.93968C10.6604 1.87934 10.5891 1.83151 10.5105 1.79894C10.432 1.76638 10.3477 1.74974 10.2627 1.74998Z" fill="white"/>
<path d="M11.1876 6.47289C11.111 6.47298 11.0351 6.45793 10.9644 6.42859C10.8936 6.39926 10.8293 6.35623 10.7752 6.30198L7.69818 3.22495C7.64402 3.17079 7.60105 3.10649 7.57174 3.03573C7.54243 2.96496 7.52734 2.88911 7.52734 2.81252C7.52734 2.73592 7.54243 2.66008 7.57174 2.58931C7.60105 2.51854 7.64402 2.45425 7.69818 2.40008C7.75234 2.34592 7.81664 2.30296 7.88741 2.27365C7.95817 2.24433 8.03402 2.22925 8.11061 2.22925C8.18721 2.22925 8.26306 2.24433 8.33382 2.27365C8.40459 2.30296 8.46889 2.34592 8.52305 2.40008L11.6001 5.47711C11.6816 5.55869 11.7372 5.66262 11.7597 5.77576C11.7822 5.8889 11.7706 6.00617 11.7265 6.11274C11.6823 6.21932 11.6076 6.31041 11.5117 6.37451C11.4158 6.43861 11.303 6.47287 11.1876 6.47289Z" fill="white"/>
<path d="M12.8307 13.4167H6.9974C6.84269 13.4167 6.69431 13.3552 6.58492 13.2458C6.47552 13.1364 6.41406 12.988 6.41406 12.8333C6.41406 12.6786 6.47552 12.5303 6.58492 12.4209C6.69431 12.3115 6.84269 12.25 6.9974 12.25H12.8307C12.9854 12.25 13.1338 12.3115 13.2432 12.4209C13.3526 12.5303 13.4141 12.6786 13.4141 12.8333C13.4141 12.988 13.3526 13.1364 13.2432 13.2458C13.1338 13.3552 12.9854 13.4167 12.8307 13.4167Z" fill="white"/>
</g>
<defs>
<clipPath id="clip0_2347_41863">
<rect width="14" height="14" fill="white"/>
</clipPath>
</defs>
</svg>
