<svg width="24" height="24" viewBox="0 0 24 24" fill="none" xmlns="http://www.w3.org/2000/svg">
<g filter="url(#filter0_d_2347_42011)">
<mask id="path-1-outside-1_2347_42011" maskUnits="userSpaceOnUse" x="1.39062" y="0.5" width="22" height="23" fill="black">
<rect fill="white" x="1.39062" y="0.5" width="22" height="23"/>
<path fill-rule="evenodd" clip-rule="evenodd" d="M8.01995 6.07029C7.59182 6.07029 7.20078 6.03634 6.85788 5.96933C5.9869 5.79917 5.38828 5.46799 5.02778 4.95696C4.70478 4.49898 4.60593 3.93438 4.73389 3.27876C4.95804 2.13169 5.72839 1.5 6.90287 1.5C7.15143 1.5 7.42439 1.5287 7.71426 1.58535C8.45162 1.7294 9.39472 2.15221 10.2371 2.71634C11.6664 3.67355 11.7371 4.26863 11.6659 4.63301C11.5612 5.16844 11.0608 5.55102 10.1359 5.80271C9.51102 5.97274 8.73978 6.07029 8.01995 6.07029ZM6.90294 2.99973C6.44809 2.99973 6.29177 3.1268 6.20594 3.56631C6.13576 3.92545 6.22418 4.05101 6.25327 4.09233L6.25332 4.0924C6.37494 4.26488 6.69174 4.40872 7.14543 4.49728C7.39024 4.54513 7.69272 4.57043 8.01988 4.57043C8.7393 4.57043 9.3731 4.46142 9.79366 4.34218C9.82427 4.33353 9.87179 4.29733 9.82086 4.26699C9.27105 3.8191 8.26516 3.22102 7.42671 3.0572C7.23139 3.01916 7.0551 2.99973 6.90294 2.99973ZM11.2074 7.07964C11.2074 7.07964 11.2074 6.76257 10.8941 6.76257H3.32636C2.81173 6.76257 2.39062 7.18368 2.39062 7.69824V10.6191C2.39062 11.1337 2.81173 11.5548 3.32636 11.5548H10.9197C11.2074 11.5548 11.2074 11.3053 11.2074 11.3053V7.07964ZM4.38886 12.6057H10.8839C11.2132 12.6057 11.2133 12.9236 11.2133 12.9236V21.2636C11.2133 21.2636 11.2133 21.5001 10.9932 21.5001H4.38886C3.87423 21.5001 3.45312 21.0791 3.45312 20.5645V13.5413C3.45312 13.0267 3.87423 12.6057 4.38886 12.6057ZM13.1282 12.6057H19.6167C20.1313 12.6057 20.5524 13.0267 20.5523 13.5413V20.5643C20.5523 21.0789 20.1312 21.4999 19.6166 21.4999H13.0267C12.789 21.4999 12.7922 21.2713 12.7922 21.2713V13.0172C12.7922 13.0172 12.733 12.6057 13.1282 12.6057ZM13.0782 6.76257H20.67C21.1847 6.76257 21.6058 7.18368 21.6058 7.69824V10.6191C21.6058 11.1337 21.1847 11.5548 20.67 11.5548H13.1406C12.7891 11.5548 12.7891 11.311 12.7891 11.311V7.03806C12.7891 7.03806 12.7891 6.76257 13.0782 6.76257ZM15.9923 6.07028H15.9925C16.4205 6.07028 16.8116 6.03627 17.1543 5.96939C18.0255 5.79923 18.6241 5.46812 18.9846 4.95703C19.3076 4.49904 19.4064 3.93444 19.2783 3.27889C19.0544 2.13182 18.2841 1.50006 17.1093 1.50006C16.861 1.50006 16.588 1.52876 16.2981 1.58541C15.5607 1.72946 14.6176 2.15227 13.7753 2.7164C12.3459 3.67361 12.2754 4.26869 12.3465 4.63307C12.4511 5.16843 12.9515 5.55108 13.8765 5.80271C14.5013 5.97273 15.2725 6.07028 15.9923 6.07028ZM14.2036 4.33795C14.1783 4.33066 14.1547 4.286 14.2035 4.25771C14.7533 3.80975 15.747 3.22108 16.5856 3.05733C16.781 3.01915 16.9572 2.99979 17.1093 2.99979C17.5642 2.99979 17.7206 3.12686 17.8063 3.56637C17.8768 3.92571 17.7881 4.05122 17.759 4.09246C17.6374 4.26494 17.3205 4.40871 16.8668 4.49734C16.622 4.54519 16.3196 4.57049 15.9923 4.57049C15.2644 4.57049 14.624 4.45882 14.2036 4.33795Z"/>
</mask>
<path fill-rule="evenodd" clip-rule="evenodd" d="M8.01995 6.07029C7.59182 6.07029 7.20078 6.03634 6.85788 5.96933C5.9869 5.79917 5.38828 5.46799 5.02778 4.95696C4.70478 4.49898 4.60593 3.93438 4.73389 3.27876C4.95804 2.13169 5.72839 1.5 6.90287 1.5C7.15143 1.5 7.42439 1.5287 7.71426 1.58535C8.45162 1.7294 9.39472 2.15221 10.2371 2.71634C11.6664 3.67355 11.7371 4.26863 11.6659 4.63301C11.5612 5.16844 11.0608 5.55102 10.1359 5.80271C9.51102 5.97274 8.73978 6.07029 8.01995 6.07029ZM6.90294 2.99973C6.44809 2.99973 6.29177 3.1268 6.20594 3.56631C6.13576 3.92545 6.22418 4.05101 6.25327 4.09233L6.25332 4.0924C6.37494 4.26488 6.69174 4.40872 7.14543 4.49728C7.39024 4.54513 7.69272 4.57043 8.01988 4.57043C8.7393 4.57043 9.3731 4.46142 9.79366 4.34218C9.82427 4.33353 9.87179 4.29733 9.82086 4.26699C9.27105 3.8191 8.26516 3.22102 7.42671 3.0572C7.23139 3.01916 7.0551 2.99973 6.90294 2.99973ZM11.2074 7.07964C11.2074 7.07964 11.2074 6.76257 10.8941 6.76257H3.32636C2.81173 6.76257 2.39062 7.18368 2.39062 7.69824V10.6191C2.39062 11.1337 2.81173 11.5548 3.32636 11.5548H10.9197C11.2074 11.5548 11.2074 11.3053 11.2074 11.3053V7.07964ZM4.38886 12.6057H10.8839C11.2132 12.6057 11.2133 12.9236 11.2133 12.9236V21.2636C11.2133 21.2636 11.2133 21.5001 10.9932 21.5001H4.38886C3.87423 21.5001 3.45312 21.0791 3.45312 20.5645V13.5413C3.45312 13.0267 3.87423 12.6057 4.38886 12.6057ZM13.1282 12.6057H19.6167C20.1313 12.6057 20.5524 13.0267 20.5523 13.5413V20.5643C20.5523 21.0789 20.1312 21.4999 19.6166 21.4999H13.0267C12.789 21.4999 12.7922 21.2713 12.7922 21.2713V13.0172C12.7922 13.0172 12.733 12.6057 13.1282 12.6057ZM13.0782 6.76257H20.67C21.1847 6.76257 21.6058 7.18368 21.6058 7.69824V10.6191C21.6058 11.1337 21.1847 11.5548 20.67 11.5548H13.1406C12.7891 11.5548 12.7891 11.311 12.7891 11.311V7.03806C12.7891 7.03806 12.7891 6.76257 13.0782 6.76257ZM15.9923 6.07028H15.9925C16.4205 6.07028 16.8116 6.03627 17.1543 5.96939C18.0255 5.79923 18.6241 5.46812 18.9846 4.95703C19.3076 4.49904 19.4064 3.93444 19.2783 3.27889C19.0544 2.13182 18.2841 1.50006 17.1093 1.50006C16.861 1.50006 16.588 1.52876 16.2981 1.58541C15.5607 1.72946 14.6176 2.15227 13.7753 2.7164C12.3459 3.67361 12.2754 4.26869 12.3465 4.63307C12.4511 5.16843 12.9515 5.55108 13.8765 5.80271C14.5013 5.97273 15.2725 6.07028 15.9923 6.07028ZM14.2036 4.33795C14.1783 4.33066 14.1547 4.286 14.2035 4.25771C14.7533 3.80975 15.747 3.22108 16.5856 3.05733C16.781 3.01915 16.9572 2.99979 17.1093 2.99979C17.5642 2.99979 17.7206 3.12686 17.8063 3.56637C17.8768 3.92571 17.7881 4.05122 17.759 4.09246C17.6374 4.26494 17.3205 4.40871 16.8668 4.49734C16.622 4.54519 16.3196 4.57049 15.9923 4.57049C15.2644 4.57049 14.624 4.45882 14.2036 4.33795Z" fill="url(#paint0_linear_2347_42011)"/>
<path d="M6.85788 5.96933L7.04968 4.98789L7.04962 4.98788L6.85788 5.96933ZM5.02778 4.95696L4.21058 5.53331L4.21065 5.53341L5.02778 4.95696ZM4.73389 3.27876L3.75245 3.08697L3.75241 3.0872L4.73389 3.27876ZM7.71426 1.58535L7.52245 2.56678L7.52253 2.5668L7.71426 1.58535ZM10.2371 2.71634L10.7936 1.88546L10.7935 1.88544L10.2371 2.71634ZM11.6659 4.63301L12.6473 4.82482L12.6473 4.82471L11.6659 4.63301ZM10.1359 5.80271L10.3984 6.76763L10.3985 6.76762L10.1359 5.80271ZM6.20594 3.56631L7.18738 3.75809L7.1874 3.75798L6.20594 3.56631ZM6.25327 4.09233L7.07093 3.51663L7.07091 3.5166L6.25327 4.09233ZM6.25332 4.0924L5.43566 4.6681L5.43607 4.66868L6.25332 4.0924ZM7.14543 4.49728L7.33729 3.51585L7.33701 3.5158L7.14543 4.49728ZM9.79366 4.34218L9.52149 3.37994L9.5209 3.3801L9.79366 4.34218ZM9.82086 4.26699L9.18928 5.04229L9.2461 5.08859L9.30907 5.1261L9.82086 4.26699ZM7.42671 3.0572L7.61846 2.07576L7.61788 2.07564L7.42671 3.0572ZM11.2074 7.07964H12.2074V7.07964L11.2074 7.07964ZM11.2133 12.9236H12.2133V12.9234L11.2133 12.9236ZM20.5523 13.5413L19.5523 13.5411V13.5413H20.5523ZM12.7922 21.2713L13.7922 21.2853V21.2713H12.7922ZM12.7922 13.0172H13.7922V12.9457L13.782 12.8749L12.7922 13.0172ZM12.7891 11.311L13.7891 11.3111V11.311H12.7891ZM17.1543 5.96939L17.3458 6.95088L17.346 6.95084L17.1543 5.96939ZM18.9846 4.95703L18.1674 4.38059L18.1674 4.38063L18.9846 4.95703ZM19.2783 3.27889L18.2968 3.4705L18.2969 3.47067L19.2783 3.27889ZM16.2981 1.58541L16.4898 2.56687L16.49 2.56685L16.2981 1.58541ZM13.7753 2.7164L14.3317 3.54729L14.3318 3.54726L13.7753 2.7164ZM12.3465 4.63307L11.365 4.82459L11.365 4.82491L12.3465 4.63307ZM13.8765 5.80271L14.139 4.83779L14.139 4.83777L13.8765 5.80271ZM14.2035 4.25771L14.7055 5.12258L14.7738 5.0829L14.8351 5.03297L14.2035 4.25771ZM14.2036 4.33795L13.9265 5.29879L13.9273 5.29901L14.2036 4.33795ZM16.5856 3.05733L16.7772 4.03879L16.7773 4.03878L16.5856 3.05733ZM17.8063 3.56637L16.8248 3.75789L16.825 3.75869L17.8063 3.56637ZM17.759 4.09246L16.9426 3.51493L16.9415 3.5164L17.759 4.09246ZM16.8668 4.49734L16.6751 3.51589L16.675 3.5159L16.8668 4.49734ZM6.66608 6.95076C7.08446 7.03253 7.5413 7.07029 8.01995 7.07029V5.07029C7.64234 5.07029 7.31711 5.04016 7.04968 4.98789L6.66608 6.95076ZM4.21065 5.53341C4.77211 6.32932 5.64853 6.75197 6.66613 6.95077L7.04962 4.98788C6.32527 4.84637 6.00445 4.60666 5.84492 4.38052L4.21065 5.53341ZM3.75241 3.0872C3.58305 3.95495 3.70053 4.81011 4.21058 5.53331L5.84499 4.38062C5.70903 4.18785 5.62881 3.9138 5.71537 3.47032L3.75241 3.0872ZM6.90287 0.5C6.13405 0.5 5.40906 0.709391 4.8279 1.18599C4.24627 1.66296 3.89982 2.33285 3.75245 3.08697L5.71533 3.47054C5.79211 3.0776 5.94291 2.85811 6.09612 2.73247C6.24979 2.60645 6.49722 2.5 6.90287 2.5V0.5ZM7.90607 0.60392C7.56438 0.537141 7.22645 0.5 6.90287 0.5V2.5C7.07641 2.5 7.2844 2.52026 7.52245 2.56678L7.90607 0.60392ZM10.7935 1.88544C9.87712 1.27174 8.81069 0.780645 7.906 0.603905L7.52253 2.5668C8.09254 2.67816 8.91231 3.03267 9.6807 3.54724L10.7935 1.88544ZM12.6473 4.82471C12.725 4.42723 12.6998 3.93214 12.3728 3.3844C12.0773 2.88949 11.5657 2.40255 10.7936 1.88546L9.68066 3.54721C10.3378 3.98733 10.5761 4.27654 10.6555 4.40957C10.69 4.46732 10.6882 4.48495 10.6855 4.46792C10.6827 4.45015 10.6855 4.436 10.6844 4.44131L12.6473 4.82471ZM10.3985 6.76762C11.401 6.4948 12.4259 5.95758 12.6473 4.82482L10.6845 4.4412C10.6835 4.44588 10.683 4.44811 10.6785 4.4548C10.6727 4.46358 10.6529 4.49021 10.6011 4.52983C10.4888 4.61573 10.2684 4.73028 9.87331 4.8378L10.3985 6.76762ZM8.01995 7.07029C8.81876 7.07029 9.67911 6.96336 10.3984 6.76763L9.87334 4.83779C9.34293 4.98212 8.6608 5.07029 8.01995 5.07029V7.07029ZM7.1874 3.75798C7.20104 3.68812 7.20807 3.68307 7.19595 3.70947C7.17972 3.74483 7.13588 3.82178 7.04683 3.89417C6.95838 3.96608 6.87611 3.99215 6.84287 3.99996C6.81847 4.00569 6.8286 3.99973 6.90294 3.99973V1.99973C6.62624 1.99973 6.17251 2.02746 5.78528 2.34224C5.39424 2.66012 5.2778 3.10162 5.22448 3.37465L7.1874 3.75798ZM7.07091 3.5166C7.06774 3.5121 7.07697 3.52497 7.08757 3.54191C7.09882 3.55987 7.11108 3.58131 7.12297 3.60574C7.14747 3.6561 7.16285 3.70369 7.17136 3.74455C7.18785 3.82369 7.17118 3.84098 7.18738 3.75809L5.2245 3.37453C5.17052 3.65078 5.16298 3.91041 5.2134 4.15246C5.26898 4.41925 5.38002 4.58908 5.43563 4.66806L7.07091 3.5166ZM7.07098 3.5167L7.07093 3.51663L5.43561 4.66803L5.43566 4.6681L7.07098 3.5167ZM7.33701 3.5158C7.16128 3.4815 7.04823 3.44298 6.98816 3.41572C6.95926 3.4026 6.95545 3.39784 6.9677 3.40673C6.97869 3.41471 7.02262 3.44811 7.07058 3.51612L5.43607 4.66868C5.64396 4.9635 5.93748 5.1352 6.16153 5.2369C6.4037 5.34681 6.67589 5.4245 6.95385 5.47875L7.33701 3.5158ZM8.01988 3.57043C7.73842 3.57043 7.50286 3.54822 7.33729 3.51585L6.95357 5.4787C7.27762 5.54205 7.64702 5.57043 8.01988 5.57043V3.57043ZM9.5209 3.3801C9.18773 3.47456 8.64567 3.57043 8.01988 3.57043V5.57043C8.83293 5.57043 9.55848 5.44827 10.0664 5.30427L9.5209 3.3801ZM9.30907 5.1261C9.20579 5.06457 8.97583 4.89719 8.88092 4.56518C8.77858 4.20719 8.90291 3.91139 9.00736 3.75567C9.10444 3.61093 9.21676 3.52848 9.27979 3.48823C9.34864 3.44426 9.42898 3.4061 9.52149 3.37994L10.0658 5.30443C10.2215 5.26039 10.4836 5.14518 10.6683 4.86976C10.7821 4.70012 10.9107 4.38904 10.8039 4.01546C10.7045 3.66786 10.4614 3.48458 10.3327 3.40788L9.30907 5.1261ZM7.23495 4.03864C7.85094 4.15899 8.70778 4.65005 9.18928 5.04229L10.4524 3.49168C9.83432 2.98814 8.67939 2.28304 7.61846 2.07576L7.23495 4.03864ZM6.90294 3.99973C6.97443 3.99973 7.08462 4.00936 7.23554 4.03875L7.61788 2.07564C7.37817 2.02895 7.13577 1.99973 6.90294 1.99973V3.99973ZM10.8941 7.76257C10.795 7.76257 10.6543 7.73447 10.5159 7.6411C10.3844 7.55236 10.3103 7.44213 10.2717 7.36408C10.2349 7.28968 10.2215 7.22756 10.2158 7.19261C10.2125 7.17274 10.2105 7.15403 10.2093 7.13643C10.2086 7.12746 10.2082 7.11834 10.2079 7.10901C10.2077 7.10433 10.2076 7.09955 10.2075 7.09467C10.2075 7.09223 10.2074 7.08976 10.2074 7.08726C10.2074 7.08601 10.2074 7.08475 10.2074 7.08348C10.2074 7.08285 10.2074 7.08221 10.2074 7.08157C10.2074 7.08125 10.2074 7.08077 10.2074 7.08061C10.2074 7.08013 10.2074 7.07965 11.2074 7.07964C12.2074 7.07964 12.2074 7.07916 12.2074 7.07867C12.2074 7.07851 12.2074 7.07802 12.2074 7.07769C12.2074 7.07703 12.2074 7.07637 12.2074 7.07569C12.2074 7.07435 12.2074 7.07297 12.2074 7.07157C12.2073 7.06876 12.2073 7.06584 12.2073 7.0628C12.2072 7.05672 12.207 7.05016 12.2068 7.04316C12.2063 7.02918 12.2055 7.01325 12.2043 6.99561C12.2018 6.96067 12.1974 6.91719 12.1892 6.86759C12.1737 6.77319 12.1407 6.63181 12.0648 6.47814C11.987 6.32082 11.8541 6.13133 11.6345 5.98313C11.408 5.83031 11.1498 5.76257 10.8941 5.76257V7.76257ZM3.32636 7.76257H10.8941V5.76257H3.32636V7.76257ZM3.39062 7.69824C3.39062 7.71913 3.38118 7.73598 3.37259 7.74457C3.364 7.75316 3.34717 7.76257 3.32636 7.76257V5.76257C2.25949 5.76257 1.39062 6.63134 1.39062 7.69824H3.39062ZM3.39062 10.6191V7.69824H1.39062V10.6191H3.39062ZM3.32636 10.5548C3.34713 10.5548 3.36396 10.5642 3.37258 10.5728C3.3812 10.5814 3.39062 10.5983 3.39062 10.6191H1.39062C1.39062 11.6861 2.25954 12.5548 3.32636 12.5548V10.5548ZM10.9197 10.5548H3.32636V12.5548H10.9197V10.5548ZM11.2074 11.3053C10.2074 11.3053 10.2074 11.3047 10.2074 11.3041C10.2074 11.3039 10.2074 11.3034 10.2074 11.303C10.2074 11.3023 10.2074 11.3015 10.2074 11.3008C10.2074 11.2993 10.2074 11.2978 10.2074 11.2963C10.2075 11.2933 10.2075 11.2903 10.2076 11.2874C10.2077 11.2815 10.2078 11.2756 10.2081 11.2697C10.2085 11.2579 10.2092 11.246 10.2102 11.2339C10.2122 11.2101 10.2154 11.1838 10.2209 11.1555C10.231 11.1028 10.2528 11.0213 10.3051 10.9306C10.361 10.8336 10.4517 10.7274 10.5855 10.6501C10.7193 10.5727 10.8433 10.5548 10.9197 10.5548V12.5548C11.4215 12.5548 11.8235 12.3011 12.0378 11.9295C12.126 11.7764 12.1658 11.6324 12.1849 11.533C12.1949 11.4813 12.2004 11.4355 12.2035 11.3981C12.205 11.3792 12.206 11.3619 12.2066 11.3465C12.2069 11.3387 12.2071 11.3314 12.2072 11.3246C12.2073 11.3211 12.2073 11.3178 12.2073 11.3146C12.2074 11.313 12.2074 11.3114 12.2074 11.3098C12.2074 11.3091 12.2074 11.3083 12.2074 11.3075C12.2074 11.3071 12.2074 11.3066 12.2074 11.3064C12.2074 11.3058 12.2074 11.3053 11.2074 11.3053ZM10.2074 7.07964V11.3053H12.2074V7.07964H10.2074ZM10.8839 11.6057H4.38886V13.6057H10.8839V11.6057ZM11.2133 12.9236C12.2133 12.9234 12.2133 12.9229 12.2133 12.9224C12.2133 12.9222 12.2133 12.9217 12.2133 12.9213C12.2133 12.9207 12.2133 12.92 12.2133 12.9193C12.2133 12.9179 12.2133 12.9164 12.2132 12.9149C12.2132 12.912 12.2132 12.909 12.2131 12.9058C12.213 12.8994 12.2128 12.8926 12.2126 12.8853C12.2121 12.8708 12.2113 12.8542 12.2099 12.836C12.2072 12.7997 12.2024 12.7548 12.1935 12.7036C12.1766 12.6059 12.141 12.461 12.06 12.3047C11.9766 12.1437 11.8377 11.9575 11.6155 11.8145C11.3888 11.6685 11.1342 11.6057 10.8839 11.6057V13.6057C10.7983 13.6057 10.6672 13.5825 10.5331 13.4962C10.4035 13.4128 10.3264 13.3061 10.2841 13.2246C10.2443 13.1477 10.2293 13.0824 10.2227 13.0442C10.219 13.0229 10.2168 13.0028 10.2154 12.9839C10.2147 12.9743 10.2141 12.9646 10.2138 12.9547C10.2136 12.9498 10.2135 12.9447 10.2134 12.9396C10.2134 12.937 10.2133 12.9344 10.2133 12.9318C10.2133 12.9305 10.2133 12.9292 10.2133 12.9278C10.2133 12.9272 10.2133 12.9265 10.2133 12.9258C10.2133 12.9255 10.2133 12.925 10.2133 12.9248C10.2133 12.9243 10.2133 12.9238 11.2133 12.9236ZM12.2133 21.2636V12.9236H10.2133V21.2636H12.2133ZM10.9932 22.5001C11.2386 22.5001 11.4875 22.4303 11.7027 22.2762C11.908 22.1291 12.0262 21.9461 12.0924 21.8038C12.1576 21.6638 12.1852 21.5368 12.198 21.4539C12.2048 21.41 12.2086 21.3714 12.2106 21.3401C12.2117 21.3244 12.2124 21.31 12.2127 21.2973C12.2129 21.2909 12.2131 21.2849 12.2132 21.2793C12.2132 21.2765 12.2132 21.2738 12.2133 21.2712C12.2133 21.2699 12.2133 21.2686 12.2133 21.2673C12.2133 21.2667 12.2133 21.2661 12.2133 21.2655C12.2133 21.2652 12.2133 21.2647 12.2133 21.2646C12.2133 21.2641 12.2133 21.2636 11.2133 21.2636C10.2133 21.2636 10.2133 21.2632 10.2133 21.2627C10.2133 21.2626 10.2133 21.2621 10.2133 21.2618C10.2133 21.2612 10.2133 21.2606 10.2133 21.26C10.2133 21.2588 10.2133 21.2576 10.2133 21.2564C10.2133 21.254 10.2134 21.2517 10.2134 21.2493C10.2135 21.2446 10.2136 21.2399 10.2137 21.2353C10.214 21.226 10.2144 21.2168 10.2151 21.2075C10.2163 21.1892 10.2183 21.1691 10.2217 21.1473C10.2276 21.1087 10.2415 21.0409 10.2791 20.9599C10.3178 20.8768 10.3948 20.7529 10.5381 20.6502C10.6914 20.5404 10.8578 20.5001 10.9932 20.5001V22.5001ZM4.38886 22.5001H10.9932V20.5001H4.38886V22.5001ZM2.45312 20.5645C2.45312 21.6315 3.32204 22.5001 4.38886 22.5001V20.5001C4.40963 20.5001 4.42646 20.5095 4.43508 20.5181C4.4437 20.5268 4.45312 20.5436 4.45312 20.5645H2.45312ZM2.45312 13.5413V20.5645H4.45312V13.5413H2.45312ZM4.38886 11.6057C3.32204 11.6057 2.45312 12.4743 2.45312 13.5413H4.45312C4.45312 13.5621 4.4437 13.579 4.43508 13.5876C4.42646 13.5963 4.40963 13.6057 4.38886 13.6057V11.6057ZM19.6167 11.6057H13.1282V13.6057H19.6167V11.6057ZM21.5523 13.5416C21.5526 12.4743 20.6835 11.6057 19.6167 11.6057V13.6057C19.5959 13.6057 19.5791 13.5963 19.5704 13.5876C19.5618 13.5789 19.5523 13.562 19.5523 13.5411L21.5523 13.5416ZM21.5523 20.5643V13.5413H19.5523V20.5643H21.5523ZM19.6166 22.4999C20.6834 22.4999 21.5523 21.6313 21.5523 20.5643H19.5523C19.5523 20.5434 19.5617 20.5266 19.5703 20.5179C19.579 20.5093 19.5958 20.4999 19.6166 20.4999V22.4999ZM13.0267 22.4999H19.6166V20.4999H13.0267V22.4999ZM12.7922 21.2713C11.7923 21.2573 11.7923 21.2578 11.7923 21.2583C11.7923 21.2585 11.7923 21.259 11.7923 21.2593C11.7923 21.26 11.7923 21.2607 11.7923 21.2614C11.7922 21.2628 11.7922 21.2642 11.7922 21.2657C11.7922 21.2686 11.7922 21.2716 11.7922 21.2747C11.7922 21.2809 11.7923 21.2875 11.7924 21.2945C11.7927 21.3084 11.7933 21.3241 11.7943 21.3412C11.7964 21.3752 11.8003 21.4169 11.8079 21.4643C11.8222 21.5543 11.8534 21.6896 11.928 21.837C12.005 21.9893 12.1355 22.1672 12.3465 22.3038C12.5618 22.4431 12.8003 22.4999 13.0267 22.4999V20.4999C13.1343 20.4999 13.284 20.5282 13.433 20.6246C13.5778 20.7183 13.6645 20.8391 13.7127 20.9342C13.7583 21.0244 13.7755 21.1026 13.783 21.1497C13.7871 21.1756 13.7894 21.1995 13.7907 21.221C13.7914 21.2319 13.7918 21.2426 13.792 21.2532C13.7921 21.2585 13.7922 21.2638 13.7922 21.2692C13.7922 21.2718 13.7922 21.2745 13.7922 21.2772C13.7922 21.2785 13.7922 21.2799 13.7922 21.2812C13.7921 21.2819 13.7921 21.2826 13.7921 21.2833C13.7921 21.2836 13.7921 21.2841 13.7921 21.2843C13.7921 21.2848 13.7921 21.2853 12.7922 21.2713ZM11.7922 13.0172V21.2713H13.7922V13.0172H11.7922ZM13.1282 11.6057C12.8482 11.6057 12.5523 11.6822 12.2983 11.8781C12.052 12.068 11.9265 12.3073 11.8642 12.4926C11.8035 12.6732 11.7909 12.8348 11.7893 12.9366C11.7884 12.991 11.7905 13.0378 11.7932 13.0745C11.7946 13.093 11.7962 13.1095 11.7978 13.1237C11.7986 13.1308 11.7994 13.1373 11.8002 13.1433C11.8006 13.1463 11.8009 13.1491 11.8013 13.1518C11.8015 13.1532 11.8017 13.1545 11.8019 13.1558C11.8019 13.1564 11.802 13.1571 11.8021 13.1577C11.8022 13.158 11.8022 13.1585 11.8023 13.1586C11.8023 13.1591 11.8024 13.1595 12.7922 13.0172C13.782 12.8749 13.7821 12.8753 13.7822 12.8758C13.7822 12.8759 13.7822 12.8764 13.7823 12.8767C13.7824 12.8773 13.7825 12.8779 13.7825 12.8785C13.7827 12.8797 13.7829 12.8808 13.783 12.882C13.7833 12.8843 13.7836 12.8866 13.7839 12.8888C13.7845 12.8932 13.785 12.8974 13.7854 12.9015C13.7864 12.9096 13.7871 12.9173 13.7876 12.9245C13.7887 12.9387 13.7893 12.9534 13.789 12.9692C13.7886 12.9938 13.786 13.0525 13.7598 13.1302C13.7321 13.2126 13.6659 13.349 13.5197 13.4618C13.3657 13.5806 13.2107 13.6057 13.1282 13.6057V11.6057ZM20.67 5.76257H13.0782V7.76257H20.67V5.76257ZM22.6058 7.69824C22.6058 6.63134 21.7369 5.76257 20.67 5.76257V7.76257C20.6492 7.76257 20.6324 7.75316 20.6238 7.74457C20.6152 7.73598 20.6058 7.71913 20.6058 7.69824H22.6058ZM22.6058 10.6191V7.69824H20.6058V10.6191H22.6058ZM20.67 12.5548C21.7368 12.5548 22.6058 11.6861 22.6058 10.6191H20.6058C20.6058 10.5983 20.6152 10.5814 20.6238 10.5728C20.6324 10.5642 20.6493 10.5548 20.67 10.5548V12.5548ZM13.1406 12.5548H20.67V10.5548H13.1406V12.5548ZM12.7891 11.311C11.7891 11.311 11.7891 11.3118 11.7891 11.3125C11.7891 11.3127 11.7891 11.3134 11.7891 11.3139C11.7891 11.3148 11.7891 11.3158 11.7891 11.3168C11.7891 11.3187 11.7891 11.3207 11.7891 11.3227C11.7892 11.3267 11.7892 11.3308 11.7893 11.335C11.7895 11.3435 11.7898 11.3524 11.7903 11.3618C11.7912 11.3806 11.7927 11.4014 11.795 11.424C11.7996 11.4688 11.8078 11.5227 11.8222 11.5828C11.8508 11.7015 11.9074 11.859 12.0219 12.0178C12.2875 12.3861 12.7057 12.5548 13.1406 12.5548V10.5548C13.1677 10.5548 13.2502 10.5596 13.3569 10.609C13.4691 10.6608 13.5691 10.744 13.6441 10.848C13.7147 10.9459 13.7493 11.0425 13.7669 11.1154C13.7758 11.1527 13.7812 11.1875 13.7845 11.2191C13.7861 11.235 13.7873 11.2506 13.788 11.2658C13.7884 11.2734 13.7886 11.281 13.7888 11.2885C13.7889 11.2923 13.789 11.296 13.789 11.2998C13.789 11.3017 13.789 11.3035 13.789 11.3054C13.7891 11.3064 13.7891 11.3073 13.7891 11.3082C13.7891 11.3087 13.7891 11.3094 13.7891 11.3096C13.7891 11.3103 13.7891 11.3111 12.7891 11.311ZM11.7891 7.03806V11.311H13.7891V7.03806H11.7891ZM13.0782 5.76257C12.8405 5.76257 12.5953 5.82147 12.3748 5.96152C12.1583 6.09906 12.0219 6.27899 11.9397 6.43566C11.8601 6.58745 11.8251 6.72797 11.8085 6.82271C11.7999 6.87234 11.7951 6.91604 11.7924 6.95147C11.7911 6.96935 11.7902 6.98561 11.7897 7C11.7895 7.00722 11.7893 7.014 11.7892 7.02034C11.7892 7.02351 11.7891 7.02658 11.7891 7.02953C11.7891 7.03101 11.7891 7.03246 11.7891 7.03388C11.7891 7.03459 11.7891 7.03529 11.7891 7.03599C11.7891 7.03634 11.7891 7.03686 11.7891 7.03703C11.7891 7.03754 11.7891 7.03806 12.7891 7.03806C13.7891 7.03806 13.7891 7.03857 13.7891 7.03908C13.7891 7.03925 13.7891 7.03976 13.7891 7.0401C13.7891 7.04078 13.7891 7.04146 13.7891 7.04214C13.789 7.0435 13.789 7.04484 13.789 7.04619C13.789 7.04888 13.789 7.05154 13.7889 7.05419C13.7888 7.05949 13.7887 7.06473 13.7885 7.06993C13.7882 7.08028 13.7876 7.09062 13.7868 7.10098C13.7853 7.12133 13.7828 7.14351 13.7786 7.16731C13.7711 7.21041 13.7542 7.28205 13.7107 7.36497C13.6646 7.45277 13.5824 7.56383 13.4472 7.64971C13.3081 7.73811 13.1713 7.76257 13.0782 7.76257V5.76257ZM15.9925 5.07028H15.9923V7.07028H15.9925V5.07028ZM16.9628 4.9879C16.6952 5.0401 16.3699 5.07028 15.9925 5.07028V7.07028C16.4712 7.07028 16.9279 7.03243 17.3458 6.95088L16.9628 4.9879ZM18.1674 4.38063C18.0079 4.60675 17.6872 4.84641 16.9626 4.98793L17.346 6.95084C18.3638 6.75205 19.2402 6.32948 19.8017 5.53342L18.1674 4.38063ZM18.2969 3.47067C18.3835 3.91402 18.3033 4.18793 18.1674 4.38059L19.8017 5.53346C20.3119 4.81015 20.4293 3.95485 20.2598 3.08711L18.2969 3.47067ZM17.1093 2.50006C17.5152 2.50006 17.7626 2.60655 17.9162 2.73254C18.0694 2.85815 18.2201 3.07759 18.2968 3.4705L20.2598 3.08727C20.1125 2.33312 19.7662 1.66314 19.1845 1.18611C18.6033 0.709453 17.8783 0.500061 17.1093 0.500061V2.50006ZM16.49 2.56685C16.728 2.52032 16.936 2.50006 17.1093 2.50006V0.500061C16.7859 0.500061 16.448 0.537207 16.1063 0.603981L16.49 2.56685ZM14.3318 3.54726C15.1 3.03274 15.9197 2.67823 16.4898 2.56687L16.1064 0.60396C15.2016 0.780696 14.1351 1.2718 13.2188 1.88554L14.3318 3.54726ZM13.3279 4.44155C13.3269 4.43614 13.3296 4.45023 13.3269 4.46798C13.3242 4.48498 13.3224 4.46735 13.3568 4.40961C13.4362 4.27661 13.6745 3.98742 14.3317 3.54729L13.2189 1.8855C12.4467 2.40259 11.935 2.88954 11.6395 3.38448C11.3125 3.93226 11.2874 4.4273 11.365 4.82459L13.3279 4.44155ZM14.139 4.83777C13.7438 4.73029 13.5235 4.61575 13.4112 4.52986C13.3594 4.49026 13.3396 4.46362 13.3338 4.45485C13.3294 4.44815 13.3288 4.44591 13.3279 4.44123L11.365 4.82491C11.5864 5.95754 12.6112 6.49485 13.614 6.76764L14.139 4.83777ZM15.9923 5.07028C15.3515 5.07028 14.6694 4.98211 14.139 4.83779L13.6139 6.76763C14.3332 6.96335 15.1935 7.07028 15.9923 7.07028V5.07028ZM13.7015 3.39284C13.5607 3.47455 13.3991 3.61139 13.2897 3.82463C13.1775 4.04319 13.153 4.27966 13.1934 4.49233C13.2625 4.85633 13.5306 5.1846 13.9265 5.29879L14.4807 3.37711C14.8514 3.48401 15.095 3.7863 15.1582 4.11908C15.1956 4.31614 15.1727 4.53568 15.0691 4.73768C14.9682 4.93437 14.8219 5.05502 14.7055 5.12258L13.7015 3.39284ZM16.3939 2.07587C15.3343 2.28279 14.1917 2.97738 13.5718 3.48245L14.8351 5.03297C15.3148 4.64212 16.1598 4.15937 16.7772 4.03879L16.3939 2.07587ZM17.1093 1.99979C16.8766 1.99979 16.6342 2.02892 16.3939 2.07587L16.7773 4.03878C16.9278 4.00938 17.0378 3.99979 17.1093 3.99979V1.99979ZM18.7878 3.37486C18.7345 3.10173 18.6181 2.66016 18.2269 2.34225C17.8397 2.02752 17.386 1.99979 17.1093 1.99979V3.99979C17.1836 3.99979 17.1938 4.00575 17.1694 4.00003C17.1362 3.99223 17.054 3.96618 16.9655 3.89428C16.8765 3.82189 16.8326 3.74492 16.8163 3.70951C16.8042 3.68306 16.8112 3.68807 16.8248 3.75789L18.7878 3.37486ZM18.5753 4.66999C18.6316 4.59047 18.7431 4.42033 18.7989 4.15303C18.8495 3.91054 18.8418 3.65052 18.7877 3.37405L16.825 3.75869C16.8412 3.84156 16.8245 3.82396 16.8411 3.74438C16.8497 3.70329 16.8652 3.65545 16.8899 3.60485C16.9018 3.58031 16.9142 3.55875 16.9256 3.54067C16.9363 3.52358 16.9456 3.51064 16.9426 3.51493L18.5753 4.66999ZM17.0586 5.47878C17.3364 5.4245 17.6085 5.34684 17.8507 5.23697C18.0746 5.13535 18.3684 4.96364 18.5764 4.66852L16.9415 3.5164C16.9896 3.44821 17.0337 3.41472 17.0447 3.40674C17.0569 3.39782 17.0531 3.40258 17.0242 3.41572C16.964 3.44301 16.8509 3.48155 16.6751 3.51589L17.0586 5.47878ZM15.9923 5.57049C16.3654 5.57049 16.7346 5.5421 17.0586 5.47877L16.675 3.5159C16.5093 3.54829 16.2739 3.57049 15.9923 3.57049V5.57049ZM13.9273 5.29901C14.4365 5.44543 15.1699 5.57049 15.9923 5.57049V3.57049C15.359 3.57049 14.8115 3.47221 14.48 3.37689L13.9273 5.29901Z" fill="#0A0B0F" mask="url(#path-1-outside-1_2347_42011)"/>
</g>
<defs>
<filter id="filter0_d_2347_42011" x="1.39062" y="0.5" width="21.2148" height="23.0002" filterUnits="userSpaceOnUse" color-interpolation-filters="sRGB">
<feFlood flood-opacity="0" result="BackgroundImageFix"/>
<feColorMatrix in="SourceAlpha" type="matrix" values="0 0 0 0 0 0 0 0 0 0 0 0 0 0 0 0 0 0 127 0" result="hardAlpha"/>
<feOffset dy="1"/>
<feComposite in2="hardAlpha" operator="out"/>
<feColorMatrix type="matrix" values="0 0 0 0 0.0392157 0 0 0 0 0.0431373 0 0 0 0 0.0588235 0 0 0 1 0"/>
<feBlend mode="normal" in2="BackgroundImageFix" result="effect1_dropShadow_2347_42011"/>
<feBlend mode="normal" in="SourceGraphic" in2="effect1_dropShadow_2347_42011" result="shape"/>
</filter>
<linearGradient id="paint0_linear_2347_42011" x1="4.5" y1="1.5" x2="14.5" y2="28" gradientUnits="userSpaceOnUse">
<stop stop-color="#FFC9BD"/>
<stop offset="1" stop-color="#FD9154"/>
</linearGradient>
</defs>
</svg>
