<svg width="16" height="16" viewBox="0 0 16 16" fill="none" xmlns="http://www.w3.org/2000/svg">
<g clip-path="url(#clip0_2347_56198)">
<path d="M13.0056 13.5C12.9399 13.5001 12.8748 13.4872 12.8142 13.4621C12.7535 13.4369 12.6984 13.4 12.6521 13.3535L11.1521 11.8535C11.061 11.7592 11.0106 11.6329 11.0117 11.5018C11.0129 11.3707 11.0655 11.2453 11.1582 11.1526C11.2509 11.0598 11.3763 11.0073 11.5074 11.0061C11.6385 11.005 11.7648 11.0554 11.8591 11.1465L13.3591 12.6465C13.429 12.7164 13.4766 12.8055 13.4959 12.9024C13.5152 12.9994 13.5052 13.0999 13.4674 13.1913C13.4296 13.2826 13.3655 13.3607 13.2833 13.4157C13.2011 13.4706 13.1045 13.4999 13.0056 13.5Z" fill="white"/>
<path d="M2.99989 13.5C2.90102 13.4999 2.80437 13.4706 2.72216 13.4157C2.63996 13.3607 2.57589 13.2826 2.53805 13.1913C2.50022 13.0999 2.49032 12.9994 2.5096 12.9024C2.52889 12.8055 2.57649 12.7164 2.64639 12.6465L4.14639 11.1465C4.24069 11.0554 4.367 11.005 4.49809 11.0061C4.62919 11.0073 4.7546 11.0598 4.8473 11.1526C4.94001 11.2453 4.99259 11.3707 4.99373 11.5018C4.99487 11.6329 4.94447 11.7592 4.85339 11.8535L3.35339 13.3535C3.30706 13.4 3.25196 13.4369 3.19129 13.4621C3.13062 13.4872 3.06557 13.5001 2.99989 13.5Z" fill="white"/>
<path d="M14.5 15.5001H1.5C1.1023 15.4997 0.720997 15.3415 0.439779 15.0603C0.15856 14.7791 0.000397519 14.3978 4.11444e-07 14.0001V7.53536C-0.000182589 7.28838 0.0606827 7.04518 0.177182 6.82741C0.29368 6.60963 0.462201 6.42403 0.66775 6.28711L3.47275 4.41736C3.52743 4.38095 3.58874 4.35566 3.65319 4.34295C3.71764 4.33024 3.78397 4.33035 3.84838 4.34327C3.91279 4.35618 3.97402 4.38166 4.02858 4.41825C4.08314 4.45483 4.12997 4.5018 4.16638 4.55648C4.20278 4.61116 4.22807 4.67248 4.24078 4.73693C4.25349 4.80138 4.25339 4.8677 4.24047 4.93211C4.22755 4.99652 4.20207 5.05775 4.16549 5.11231C4.1289 5.16688 4.08193 5.2137 4.02725 5.25011L1.22275 7.11936C1.15425 7.165 1.09807 7.22686 1.05921 7.29943C1.02035 7.372 1.00002 7.45304 1 7.53536V14.0001C1 14.1327 1.05268 14.2599 1.14645 14.3537C1.24022 14.4474 1.36739 14.5001 1.5 14.5001H14.5C14.6326 14.5001 14.7598 14.4474 14.8536 14.3537C14.9473 14.2599 15 14.1327 15 14.0001V7.53536C15 7.45304 14.9796 7.372 14.9408 7.29943C14.9019 7.22686 14.8458 7.165 14.7773 7.11936L11.9727 5.25011C11.865 5.17551 11.7908 5.06156 11.7662 4.93279C11.7416 4.80403 11.7685 4.67075 11.8412 4.56166C11.9139 4.45258 12.0266 4.37641 12.1549 4.34956C12.2832 4.32271 12.4169 4.34732 12.5273 4.41811L15.332 6.28786C15.5375 6.42465 15.706 6.61011 15.8226 6.82776C15.9391 7.0454 16.0001 7.28847 16 7.53536V14.0001C15.9996 14.3978 15.8414 14.7791 15.5602 15.0603C15.279 15.3415 14.8977 15.4997 14.5 15.5001Z" fill="white"/>
<path d="M8.00015 10.4999C7.93653 10.4998 7.87349 10.4877 7.8144 10.4641L0.564397 7.56413C0.441237 7.51487 0.342692 7.4187 0.290439 7.29677C0.238187 7.17485 0.236508 7.03717 0.285772 6.91401C0.335036 6.79085 0.431208 6.6923 0.55313 6.64005C0.675052 6.5878 0.812737 6.58612 0.935897 6.63538L8.00015 9.46138L15.0644 6.63638C15.1876 6.58712 15.3252 6.5888 15.4472 6.64105C15.5691 6.6933 15.6653 6.79185 15.7145 6.91501C15.7638 7.03817 15.7621 7.17585 15.7099 7.29777C15.6576 7.4197 15.5591 7.51587 15.4359 7.56513L8.1859 10.4651C8.12673 10.4884 8.0637 10.5001 8.00015 10.4999Z" fill="white"/>
<path d="M12.25 8.75C12.1174 8.75 11.9902 8.69732 11.8964 8.60355C11.8027 8.50979 11.75 8.38261 11.75 8.25V1.5H4.25V8.25C4.25 8.38261 4.19732 8.50979 4.10355 8.60355C4.00979 8.69732 3.88261 8.75 3.75 8.75C3.61739 8.75 3.49021 8.69732 3.39645 8.60355C3.30268 8.50979 3.25 8.38261 3.25 8.25V1C3.25 0.867392 3.30268 0.740215 3.39645 0.646447C3.49021 0.552678 3.61739 0.5 3.75 0.5H12.25C12.3826 0.5 12.5098 0.552678 12.6036 0.646447C12.6973 0.740215 12.75 0.867392 12.75 1V8.25C12.75 8.38261 12.6973 8.50979 12.6036 8.60355C12.5098 8.69732 12.3826 8.75 12.25 8.75Z" fill="white"/>
<path d="M9.39129 7.75007C9.30664 7.75006 9.22337 7.72856 9.14929 7.68757L8.00054 7.05257L6.85179 7.68757C6.76967 7.733 6.67642 7.7544 6.58271 7.74931C6.48899 7.74423 6.3986 7.71288 6.32187 7.65884C6.24514 7.6048 6.18517 7.53025 6.14881 7.44373C6.11246 7.35721 6.10119 7.2622 6.11629 7.16957L6.34129 5.79032L5.39129 4.81782C5.32726 4.75188 5.28265 4.66957 5.26235 4.57993C5.24205 4.49029 5.24685 4.39679 5.27622 4.3097C5.3056 4.22261 5.35841 4.1453 5.42886 4.08626C5.4993 4.02723 5.58466 3.98876 5.67554 3.97507L6.96654 3.77782L7.54829 2.53807C7.58861 2.45203 7.65261 2.37927 7.7328 2.32829C7.81298 2.27732 7.90603 2.25024 8.00104 2.25024C8.09606 2.25024 8.18911 2.27732 8.26929 2.32829C8.34948 2.37927 8.41347 2.45203 8.45379 2.53807L9.03554 3.77782L10.3255 3.97507C10.4164 3.98896 10.5016 4.02761 10.5719 4.08678C10.6423 4.14596 10.6949 4.22336 10.7241 4.3105C10.7533 4.39763 10.7579 4.49113 10.7374 4.58072C10.717 4.6703 10.6722 4.75251 10.608 4.81832L9.65804 5.79082L9.88304 7.17007C9.89461 7.24142 9.89057 7.31442 9.8712 7.38405C9.85183 7.45369 9.8176 7.51829 9.77086 7.57342C9.72412 7.62855 9.66598 7.67289 9.60046 7.70339C9.53493 7.73388 9.46357 7.74981 9.39129 7.75007ZM8.00054 5.98132C8.0852 5.98133 8.16847 6.00284 8.24254 6.04382L8.73179 6.31432L8.63179 5.70257C8.61917 5.62533 8.62485 5.54621 8.64839 5.47157C8.67192 5.39693 8.71265 5.32885 8.76729 5.27282L9.21304 4.81632L8.62029 4.72507C8.53913 4.71264 8.46228 4.6804 8.39653 4.63122C8.33077 4.58204 8.27815 4.51742 8.24329 4.44307L8.00054 3.92682L7.75779 4.44357C7.72288 4.51782 7.67022 4.58234 7.60447 4.63144C7.53873 4.68053 7.46191 4.71269 7.38079 4.72507L6.78779 4.81582L7.23354 5.27232C7.28819 5.32835 7.32892 5.39643 7.35245 5.47107C7.37598 5.54571 7.38167 5.62483 7.36904 5.70207L7.26904 6.31382L7.75829 6.04332C7.83249 6.00247 7.91585 5.98114 8.00054 5.98132Z" fill="#48F17A"/>
</g>
<defs>
<clipPath id="clip0_2347_56198">
<rect width="16" height="16" fill="white"/>
</clipPath>
</defs>
</svg>
