<svg width="36" height="36" viewBox="0 0 36 36" fill="none" xmlns="http://www.w3.org/2000/svg">
<path d="M33.4103 1.80029L20.0469 11.7155L22.529 5.86566L33.4103 1.80029Z" fill="#E2761B" stroke="#E2761B" stroke-width="0.9" stroke-linecap="round" stroke-linejoin="round"/>
<path d="M2.58984 1.80054L15.8325 11.8097L13.4711 5.86591L2.58984 1.80054Z" fill="#E4761B" stroke="#E4761B" stroke-width="0.9" stroke-linecap="round" stroke-linejoin="round"/>
<path d="M28.6102 24.7839L25.0547 30.2313L32.6622 32.3243L34.8357 24.9047L28.6102 24.7839Z" fill="#E4761B" stroke="#E4761B" stroke-width="0.9" stroke-linecap="round" stroke-linejoin="round"/>
<path d="M1.18359 24.9049L3.34374 32.3246L10.9512 30.2315L7.40911 24.7842L1.18359 24.9049Z" fill="#E4761B" stroke="#E4761B" stroke-width="0.9" stroke-linecap="round" stroke-linejoin="round"/>
<path d="M10.5379 15.5801L8.41797 18.7868L15.9584 19.1222L15.7034 11.0049L10.5379 15.5801Z" fill="#E4761B" stroke="#E4761B" stroke-width="0.9" stroke-linecap="round" stroke-linejoin="round"/>
<path d="M25.4674 15.5795L20.2213 10.9104L20.0469 19.1216L27.5873 18.7862L25.4674 15.5795Z" fill="#E4761B" stroke="#E4761B" stroke-width="0.9" stroke-linecap="round" stroke-linejoin="round"/>
<path d="M10.9492 30.2314L15.4976 28.0176L11.5798 24.9585L10.9492 30.2314Z" fill="#E4761B" stroke="#E4761B" stroke-width="0.9" stroke-linecap="round" stroke-linejoin="round"/>
<path d="M20.5039 28.0176L25.0523 30.2314L24.4217 24.9585L20.5039 28.0176Z" fill="#E4761B" stroke="#E4761B" stroke-width="0.9" stroke-linecap="round" stroke-linejoin="round"/>
<path d="M25.0523 30.2309L20.5039 28.0171L20.8662 30.9823L20.8259 32.23L25.0523 30.2309Z" fill="#D7C1B3" stroke="#D7C1B3" stroke-width="0.9" stroke-linecap="round" stroke-linejoin="round"/>
<path d="M10.9492 30.2309L15.1756 32.23L15.1488 30.9823L15.4976 28.0171L10.9492 30.2309Z" fill="#D7C1B3" stroke="#D7C1B3" stroke-width="0.9" stroke-linecap="round" stroke-linejoin="round"/>
<path d="M15.2602 22.9994L11.4766 21.8857L14.1466 20.6648L15.2602 22.9994Z" fill="#233447" stroke="#233447" stroke-width="0.9" stroke-linecap="round" stroke-linejoin="round"/>
<path d="M20.7422 22.9994L21.8558 20.6648L24.5392 21.8857L20.7422 22.9994Z" fill="#233447" stroke="#233447" stroke-width="0.9" stroke-linecap="round" stroke-linejoin="round"/>
<path d="M10.9523 30.2315L11.6097 24.7842L7.41016 24.9049L10.9523 30.2315Z" fill="#CD6116" stroke="#CD6116" stroke-width="0.9" stroke-linecap="round" stroke-linejoin="round"/>
<path d="M24.3984 24.7842L25.0559 30.2315L28.6114 24.9049L24.3984 24.7842Z" fill="#CD6116" stroke="#CD6116" stroke-width="0.9" stroke-linecap="round" stroke-linejoin="round"/>
<path d="M27.5912 18.7866L20.0508 19.122L20.7485 22.9996L21.8621 20.665L24.5455 21.886L27.5912 18.7866Z" fill="#CD6116" stroke="#CD6116" stroke-width="0.9" stroke-linecap="round" stroke-linejoin="round"/>
<path d="M11.4732 21.886L14.1431 20.665L15.2568 22.9996L15.9545 19.122L8.41406 18.7866L11.4732 21.886Z" fill="#CD6116" stroke="#CD6116" stroke-width="0.9" stroke-linecap="round" stroke-linejoin="round"/>
<path d="M8.41797 18.7866L11.5844 24.9585L11.4771 21.886L8.41797 18.7866Z" fill="#E4751F" stroke="#E4751F" stroke-width="0.9" stroke-linecap="round" stroke-linejoin="round"/>
<path d="M24.5504 21.886L24.4297 24.9585L27.5961 18.7866L24.5504 21.886Z" fill="#E4751F" stroke="#E4751F" stroke-width="0.9" stroke-linecap="round" stroke-linejoin="round"/>
<path d="M15.9555 19.1218L15.2578 22.9994L16.1433 27.5746L16.3312 21.5503L15.9555 19.1218Z" fill="#E4751F" stroke="#E4751F" stroke-width="0.9" stroke-linecap="round" stroke-linejoin="round"/>
<path d="M20.0498 19.1218L19.6875 21.5369L19.8619 27.5746L20.7474 22.9994L20.0498 19.1218Z" fill="#E4751F" stroke="#E4751F" stroke-width="0.9" stroke-linecap="round" stroke-linejoin="round"/>
<path d="M20.741 22.9991L19.8555 27.5743L20.4995 28.0171L24.4173 24.958L24.538 21.8855L20.741 22.9991Z" fill="#F6851B" stroke="#F6851B" stroke-width="0.9" stroke-linecap="round" stroke-linejoin="round"/>
<path d="M11.4766 21.8855L11.5839 24.958L15.5017 28.0171L16.1457 27.5743L15.2602 22.9991L11.4766 21.8855Z" fill="#F6851B" stroke="#F6851B" stroke-width="0.9" stroke-linecap="round" stroke-linejoin="round"/>
<path d="M20.8242 32.2303L20.8644 30.9826L20.529 30.6874H15.4708L15.1488 30.9826L15.1756 32.2303L10.9492 30.2312L12.4251 31.4387L15.4305 33.5184H20.5693L23.5747 31.4387L25.0506 30.2312L20.8242 32.2303Z" fill="#C0AD9E" stroke="#C0AD9E" stroke-width="0.9" stroke-linecap="round" stroke-linejoin="round"/>
<path d="M20.5058 28.0175L19.8617 27.5747H16.1452L15.5012 28.0175L15.1523 30.9826L15.4744 30.6875H20.5326L20.868 30.9826L20.5058 28.0175Z" fill="#161616" stroke="#161616" stroke-width="0.9" stroke-linecap="round" stroke-linejoin="round"/>
<path d="M33.9746 12.3598L35.1017 6.8856L33.4111 1.80054L20.5039 11.3803L25.4682 15.5799L32.4853 17.6327L34.0283 15.8214L33.3575 15.3384L34.4308 14.3589L33.6124 13.7149L34.6857 12.8964L33.9746 12.3598Z" fill="#763D16" stroke="#763D16" stroke-width="0.9" stroke-linecap="round" stroke-linejoin="round"/>
<path d="M0.902344 6.8856L2.04279 12.3598L1.31827 12.8964L2.39164 13.7149L1.5732 14.3589L2.64656 15.3384L1.97571 15.8214L3.51867 17.6327L10.5358 15.5799L15.5001 11.3803L2.59289 1.80054L0.902344 6.8856Z" fill="#763D16" stroke="#763D16" stroke-width="0.9" stroke-linecap="round" stroke-linejoin="round"/>
<path d="M32.4855 17.6326L25.4684 15.5798L27.5883 18.7865L24.4219 24.9584L28.608 24.9047H34.8335L32.4855 17.6326Z" fill="#F6851B" stroke="#F6851B" stroke-width="0.9" stroke-linecap="round" stroke-linejoin="round"/>
<path d="M10.5353 15.5798L3.51816 17.6326L1.18359 24.9047H7.40911L11.5818 24.9584L8.41539 18.7865L10.5353 15.5798Z" fill="#F6851B" stroke="#F6851B" stroke-width="0.9" stroke-linecap="round" stroke-linejoin="round"/>
<path d="M20.047 19.1218L20.5032 11.3801L22.5292 5.86572H13.4727L15.4986 11.3801L15.9548 19.1218L16.1292 21.5637L16.1427 27.5745H19.8592L19.8726 21.5637L20.047 19.1218Z" fill="#F6851B" stroke="#F6851B" stroke-width="0.9" stroke-linecap="round" stroke-linejoin="round"/>
</svg>
