<svg width="16" height="16" viewBox="0 0 16 16" fill="none" xmlns="http://www.w3.org/2000/svg">
<g clip-path="url(#clip0_2347_56218)">
<path d="M8 0C3.5888 0 0 3.5888 0 8C0 12.4112 3.5888 16 8 16C12.4112 16 16 12.4112 16 8C16 3.5888 12.4112 0 8 0ZM8 14.5455C4.39084 14.5455 1.45455 11.6092 1.45455 8C1.45455 4.39084 4.39084 1.45455 8 1.45455C11.6092 1.45455 14.5455 4.39084 14.5455 8C14.5455 11.6092 11.6092 14.5455 8 14.5455Z" fill="white"/>
<path d="M11.984 6.21564L9.68212 5.88109L8.65278 3.79532C8.53026 3.54708 8.27746 3.38989 8.00061 3.38989C7.72376 3.38989 7.47096 3.54708 7.34844 3.79532L6.31906 5.88109L4.01724 6.21564C3.7433 6.25544 3.51572 6.44735 3.43014 6.71062C3.34461 6.97389 3.41593 7.26291 3.61419 7.45612L5.27979 9.07969L4.88662 11.3721C4.83984 11.645 4.95198 11.9208 5.17593 12.0835C5.39993 12.2462 5.69686 12.2676 5.94185 12.1388L8.00061 11.0565L10.0594 12.1388C10.1658 12.1948 10.282 12.2224 10.3978 12.2224C10.3986 12.2224 10.3994 12.2224 10.4002 12.2224C10.8012 12.2217 11.1261 11.8963 11.1261 11.4951C11.1261 11.4393 11.1198 11.3848 11.1079 11.3326L10.7215 9.07969L12.387 7.45612C12.5853 7.26291 12.6567 6.97389 12.5711 6.71062C12.4856 6.44735 12.258 6.25544 11.984 6.21564ZM9.43237 8.305C9.26093 8.47207 9.18272 8.7128 9.22321 8.94873L9.43193 10.1656L8.33909 9.5911C8.2331 9.5354 8.11688 9.50757 8.00066 9.50757C7.88444 9.50757 7.76818 9.5354 7.66224 9.5911L6.56939 10.1656L6.77812 8.94873C6.8186 8.7128 6.74035 8.47207 6.56895 8.305L5.68478 7.44313L6.90675 7.26553C7.14364 7.2311 7.34839 7.0823 7.45433 6.86766L8.00061 5.76051L8.54704 6.86766C8.65298 7.0823 8.85773 7.2311 9.09462 7.26553L10.3166 7.44313L9.43237 8.305Z" fill="#3AED6F"/>
</g>
<defs>
<clipPath id="clip0_2347_56218">
<rect width="16" height="16" fill="white"/>
</clipPath>
</defs>
</svg>
