<svg width="24" height="24" viewBox="0 0 24 24" fill="none" xmlns="http://www.w3.org/2000/svg">
<g id="doge" clip-path="url(#clip0_866_181286)">
<g id="Layer 2">
<g id="Layer 1">
<g id="Layer_1">
<path id="Vector" d="M12 24C18.6274 24 24 18.6274 24 12C24 5.37258 18.6274 0 12 0C5.37258 0 0 5.37258 0 12C0 18.6274 5.37258 24 12 24Z" fill="#988430"/>
<path id="Vector_2" d="M11.9984 23.6158C18.4136 23.6158 23.614 18.4153 23.614 12.0001C23.614 5.58501 18.4136 0.384521 11.9984 0.384521C5.5833 0.384521 0.382812 5.58501 0.382812 12.0001C0.382812 18.4153 5.5833 23.6158 11.9984 23.6158Z" fill="#7A6A2A"/>
<path id="Vector_3" d="M11.9978 23.3709C18.2778 23.3709 23.3687 18.28 23.3687 12C23.3687 5.72007 18.2778 0.62915 11.9978 0.62915C5.71787 0.62915 0.626953 5.72007 0.626953 12C0.626953 18.28 5.71787 23.3709 11.9978 23.3709Z" fill="#BA9F33"/>
<path id="Vector_4" fill-rule="evenodd" clip-rule="evenodd" d="M5.24683 10.7185C5.17886 10.6564 5.10705 10.5942 5.041 10.5321C4.97496 10.47 4.90712 10.4078 4.83915 10.3457L4.63717 10.1537C4.60414 10.1207 4.5692 10.0917 4.53617 10.0585C4.50315 10.0294 4.46437 9.99642 4.43134 9.96724C4.16331 9.7129 3.89374 9.45857 3.62942 9.2041C3.90321 9.4546 4.17125 9.7033 4.44504 9.95751L4.54014 10.0527C4.57316 10.0856 4.60811 10.1148 4.64113 10.1478L4.84299 10.3342C4.91096 10.3963 4.97701 10.4585 5.04497 10.5262C5.11294 10.5939 5.17899 10.6563 5.24696 10.7182L5.24683 10.7185ZM1.68958 10.6801C1.68958 10.6801 2.6643 10.7809 3.14008 10.8489C3.58078 10.9111 4.95947 11.1227 4.95947 11.1227L1.68958 10.6801ZM1.68958 10.6801C1.96337 10.7034 2.23717 10.7324 2.51096 10.7616C2.65073 10.7752 2.78475 10.7907 2.91876 10.8042L3.12446 10.8277C3.19243 10.8373 3.25848 10.847 3.32644 10.8567L4.14206 10.9868L4.54974 11.0547C4.68376 11.078 4.81777 11.1034 4.95755 11.1267C4.82353 11.1131 4.68376 11.0936 4.54974 11.0742L4.14206 11.0159L3.32644 10.8956C3.25848 10.8859 3.19243 10.8722 3.12446 10.8626L2.91864 10.8389C2.78462 10.8253 2.64485 10.8059 2.51083 10.7903C2.23704 10.7574 1.96325 10.7223 1.68945 10.6797L1.68958 10.6801ZM4.86244 11.3766C4.86244 11.3766 3.82168 11.6408 3.47019 11.7418C3.12459 11.8369 2.07793 12.1554 2.07793 12.1554L4.86232 11.3768L4.86244 11.3766Z" fill="#CFB66C"/>
<path id="Vector_5" fill-rule="evenodd" clip-rule="evenodd" d="M4.86251 11.3767C4.63147 11.4447 4.40171 11.5107 4.16735 11.5729L3.47218 11.7593C3.24114 11.8273 3.01138 11.8933 2.78098 11.9613L2.43538 12.0564C2.32082 12.0894 2.20434 12.1185 2.08594 12.1516C2.20037 12.1132 2.31698 12.0739 2.43154 12.0409L2.77714 11.9303C3.00818 11.8584 3.23794 11.7904 3.46834 11.7186C3.70322 11.6604 3.93439 11.5981 4.16927 11.5418C4.3925 11.4855 4.62751 11.4293 4.86251 11.3768V11.3767ZM2.22379 12.7962C2.33823 12.7535 3.65867 12.1381 3.96549 11.9943C4.11909 11.9224 4.56555 11.7639 4.56555 11.7639L2.22379 12.7962Z" fill="#CFB66C"/>
<path id="Vector_6" fill-rule="evenodd" clip-rule="evenodd" d="M2.22083 12.796C2.3217 12.7576 2.41693 12.7106 2.51395 12.6659L2.80131 12.5319L3.37808 12.2543C3.57008 12.163 3.7567 12.0623 3.95472 11.9765C4.05571 11.9339 4.1567 11.8989 4.25757 11.8659L4.41117 11.8174C4.46352 11.8038 4.51216 11.7882 4.56477 11.7747C4.37277 11.8659 4.17066 11.9436 3.9784 12.0328C3.7864 12.1281 3.59005 12.2058 3.3919 12.2911L2.80554 12.5493C2.60867 12.6291 2.41667 12.7144 2.2207 12.796H2.22083ZM2.34883 13.3336C2.34883 13.3336 3.54486 12.6326 3.95651 12.4074C4.17206 12.287 4.86915 11.9413 4.86915 11.9413L2.34883 13.3336Z" fill="#CFB66C"/>
<path id="Vector_7" fill-rule="evenodd" clip-rule="evenodd" d="M2.34961 13.3338C2.55147 13.2096 2.75729 13.0833 2.96311 12.9552L3.27031 12.7687C3.37515 12.7066 3.47614 12.6484 3.58302 12.5863C3.68785 12.5241 3.78884 12.462 3.89559 12.4038C3.94641 12.3724 3.99966 12.3451 4.05483 12.3223L4.2179 12.2407C4.43345 12.1359 4.649 12.029 4.8762 11.9377C4.67038 12.0679 4.45867 12.1786 4.24708 12.2931C4.14225 12.3513 4.03537 12.4038 3.93054 12.462C3.82571 12.5203 3.72471 12.5825 3.61783 12.6388C3.513 12.7009 3.41201 12.7591 3.30526 12.8154L2.98871 12.9882L2.34987 13.3338H2.34961ZM4.8602 12.0949C4.8602 12.0949 4.11652 12.6658 3.87575 12.8483C3.63499 13.0309 2.92625 13.5435 2.92625 13.5435L4.8602 12.0949Z" fill="#CFB66C"/>
<path id="Vector_8" fill-rule="evenodd" clip-rule="evenodd" d="M9.12859 16.699L8.74805 15.9786L8.96936 15.0776L10.548 14.468L9.87611 13.0894L10.2081 11.6972L10.8315 10.4504L12.7578 10.1476L14.1732 8.7981L17.2296 9.02914L17.8295 12.2971L16.6742 16.4117L16.016 18.5418L13.348 18.6428L12.1092 17.7846L10.6587 17.1786L9.12859 16.699Z" fill="#E2CC85"/>
<path id="Vector_9" fill-rule="evenodd" clip-rule="evenodd" d="M13.812 16.6757C13.812 16.6757 13.4429 16.8447 12.8136 16.8058C12.6314 16.5612 11.3558 16.4466 11.3558 16.4466C11.3558 16.4466 11.1965 16.3981 10.9149 16.5146C10.6315 16.6298 10.3635 16.6156 10.113 16.6777C9.86252 16.7397 9.61381 16.4136 9.42181 16.3456C9.22981 16.2738 8.97522 16.101 8.97522 16.101L8.43762 16.0485L7.35807 15.5922L5.643 13.8835L5.17695 14.6131L5.0332 15.5161L5.55173 16.586L6.94783 17.8578L9.67013 18.549L11.2837 18.0736L13.3051 17.2192L13.812 16.6756V16.6757Z" fill="#F1D789"/>
<path id="Vector_10" fill-rule="evenodd" clip-rule="evenodd" d="M4.13719 10.637L4.48279 9.59052L4.89456 8.91468L6.22064 8.80396L5.82256 9.96517L4.71395 11.938L5.17411 13.6992L4.35863 14.1069L4.108 13.7225L3.90615 12.8409L3.89258 11.8506L4.13719 10.637Z" fill="#F4ECB4"/>
<path id="Vector_11" fill-rule="evenodd" clip-rule="evenodd" d="M5.62317 16.604L5.36884 16.2487C5.36884 16.2487 5.30087 16.0797 5.33978 15.9321C5.37818 15.7826 5.37268 15.7729 5.35335 15.7166C5.33402 15.6602 5.17082 15.4661 5.18055 15.299C5.19015 15.1301 5.16698 15.0738 5.29114 14.9399C5.42119 14.8098 5.38241 14.5845 5.38241 14.5845L5.55137 14.6894L5.58977 14.6311C5.58977 14.6311 5.65185 14.6796 5.65185 14.7554C5.66541 14.6506 5.60909 14.1651 5.73722 14.0545C5.86535 13.9439 6.09255 14.5729 6.09255 14.5729L5.95277 13.6602L5.59348 12.7244L4.95463 11.87L4.91623 10.9282V10.8467C4.91623 10.8467 4.62298 11.2972 4.54145 11.6531C4.48321 11.8977 4.62298 12.1948 4.59393 12.5463C4.5705 12.8958 4.54145 12.8686 4.62682 13.0071C4.7122 13.1456 4.92007 13.4304 4.83853 13.6362C4.76673 13.813 4.52199 13.6887 4.52199 13.6887C4.52199 13.6887 4.47348 13.8323 4.40743 13.8848C4.38413 13.7994 4.35892 13.745 4.31233 13.6928C4.30836 13.7258 4.29876 13.7705 4.29876 13.7705C4.29876 13.7705 4.25601 13.6364 4.21325 13.4675C4.15514 13.2423 4.09293 12.9452 4.03661 12.786C4.01332 12.8773 3.95508 13.1549 3.95508 13.1549L3.9881 13.5822L4.14733 14.1685L4.30093 14.5525L4.45044 15.0224L4.58036 15.3381L4.68519 15.5788L4.77645 16.1207L5.21716 16.5866L5.45217 16.6915L5.62292 16.6041L5.62317 16.604Z" fill="#F3E19D"/>
<path id="Vector_12" fill-rule="evenodd" clip-rule="evenodd" d="M4.36827 9.78253C4.36827 9.78253 4.05173 10.3201 3.96059 10.8621C3.86946 11.404 3.78779 11.9767 3.84539 12.7145C3.90363 13.4583 4.01435 13.9145 4.1037 14.2408C4.2573 14.7826 4.65512 15.536 4.65512 15.536L4.66869 15.5068C4.60182 15.3801 4.54845 15.2466 4.50946 15.1087C4.45698 14.9029 4.43752 14.6583 4.38901 14.5476C4.34626 14.437 4.27445 14.3418 4.23951 14.2058C4.20648 14.0758 4.20111 13.87 4.09973 13.7166C4.05698 13.6544 4.0045 13.4913 3.98901 13.3283C3.96955 13.0835 3.99874 12.8097 3.97544 12.5846C3.93269 12.2098 3.90363 11.9555 3.94242 11.7592C3.9812 11.563 4.18331 11.006 4.3076 10.5632C4.38914 10.2797 4.3405 10.0408 4.49 9.79418C4.63951 9.54957 4.7309 9.33402 4.76379 9.18452C4.80219 9.04858 4.36776 9.78253 4.36776 9.78253H4.36827Z" fill="#F2E8B0"/>
<path id="Vector_13" fill-rule="evenodd" clip-rule="evenodd" d="M5.87045 9.56689C5.87045 9.56689 5.70738 9.61553 5.62968 9.70091C5.55199 9.78245 5.51896 9.85042 5.41413 9.98827C5.3093 10.1261 5.30341 10.2388 5.21791 10.4116C5.13253 10.5805 4.94412 10.8349 4.92082 10.9261C4.89752 11.0174 4.85874 11.4445 4.81023 11.6465C4.76748 11.8485 4.85874 12.0971 4.85874 12.0971L4.96933 12.0736C4.96933 12.0736 4.96933 12.2174 5.08005 12.3145C5.19064 12.4096 5.2101 11.9921 5.2101 11.9921L5.62367 10.596L6.2469 10.1727L6.31487 9.83096L5.8702 9.56689H5.87045Z" fill="#F5EEC0"/>
<path id="Vector_14" fill-rule="evenodd" clip-rule="evenodd" d="M6.17168 10.2C6.17168 10.2 5.87843 10.2193 5.73481 10.3243C5.67657 10.3669 5.65328 10.4019 5.5912 10.4543C5.47664 10.5495 5.36003 10.6369 5.30384 10.7615C5.24163 10.8857 5.17366 11.0741 5.12707 11.4295C5.10761 11.579 5.10761 11.7168 5.09405 11.8373C5.07459 12.0003 5.04553 12.1304 5.06102 12.2213C5.08048 12.4076 5.27273 12.5048 5.29142 12.7164L5.6895 12.5145L6.06429 11.0367L6.86045 10.5375L6.40989 10.0327L6.17117 10.1991L6.17168 10.2Z" fill="#E6DB9D"/>
<path id="Vector_15" fill-rule="evenodd" clip-rule="evenodd" d="M4.07239 20.1509C4.07406 20.1363 4.07572 20.1217 4.07739 20.1067C4.1355 19.6075 4.14535 19.2292 4.18798 18.9922C4.25006 18.6564 4.29281 18.5314 4.28308 18.4057C4.26951 18.2039 4.25403 18.0563 4.27348 17.9009C4.30254 17.6951 4.50452 17.4505 4.49876 17.2815C4.49479 17.1475 4.42683 17.0602 4.36859 16.9787C4.31035 16.8971 4.26375 16.8292 4.26375 16.8292C4.26375 16.8292 4.66183 16.5554 4.65799 15.4524C4.66612 15.4547 4.67394 15.458 4.68129 15.4621L4.87739 16.0193L5.0114 16.1824L5.52596 17.1416L6.18811 17.7844L7.16667 18.4426L7.7803 19.1104L7.84238 20.891L7.04046 21.9318L6.90913 22.1696C5.86576 21.6458 4.909 20.9649 4.07227 20.1508L4.07239 20.1509Z" fill="#E5CB7A"/>
<path id="Vector_16" fill-rule="evenodd" clip-rule="evenodd" d="M6.52148 21.8545C6.52148 21.8545 6.53505 21.6332 6.71758 21.4895C6.74676 21.538 6.76609 21.5847 6.76033 21.6195C6.79336 21.5614 7.0244 21.1886 7.54676 21.0914C8.06913 20.9963 8.19534 20.6158 8.19534 20.6158L9.30395 19.608L10.5719 18.441L12.1137 17.8992L12.8342 17.7224C12.8342 17.7224 12.8478 17.7749 12.8206 17.8914C12.9545 17.8818 13.2516 17.8138 13.5603 17.705C13.6846 17.6565 13.8012 17.6371 13.8633 17.7012C13.9546 17.7866 13.9681 17.9886 13.9739 18.1089C14.1234 18.0758 14.2962 17.9322 14.4347 17.9458C14.6561 17.9691 14.8522 18.2293 15.0775 18.2293C15.3746 18.2293 15.5085 18.0468 15.7164 17.9031C15.8407 17.8177 16.0192 17.7111 16.1202 17.639C16.361 17.4622 18.9086 16.6836 18.9086 16.6836L19.8017 16.7418L19.9455 17.7011L19.8687 20.2086C19.8592 20.2177 19.8497 20.2271 19.8401 20.2362L15.779 22.3573L10.1495 23.2203C8.8885 23.0143 7.6716 22.5957 6.55067 21.9824L6.52187 21.8544L6.52148 21.8545Z" fill="#D8C173"/>
<path id="Vector_17" fill-rule="evenodd" clip-rule="evenodd" d="M4.41211 20.4698C4.49211 20.3025 4.56405 20.1626 4.57672 20.1125C4.5867 20.2134 4.60501 20.4347 4.64187 20.67C4.56447 20.6042 4.48789 20.5374 4.41211 20.4697V20.4698Z" fill="#F1D789"/>
<path id="Vector_18" fill-rule="evenodd" clip-rule="evenodd" d="M8.52629 22.8298L9.25435 22.6273L9.31643 22.6468C9.31643 22.6468 9.34945 22.6662 9.34945 22.7321C9.44072 22.6798 9.51842 22.6894 9.57474 22.6546C9.60379 22.7166 9.63285 22.9225 9.7611 22.9477C9.89499 22.9769 10.0387 22.8894 10.1844 22.7788C10.328 22.6643 10.4916 22.5205 10.6154 22.4623C10.6608 22.5458 10.701 22.632 10.7358 22.7205C10.8989 22.5904 11.1824 22.0623 11.5863 22.0719C11.703 21.7961 11.898 21.5605 12.1472 21.3943C12.5219 21.1399 12.7568 21.1205 13.0501 21.1438C13.1665 20.9925 13.3101 20.8641 13.4734 20.7652C13.5219 20.7846 13.6559 20.8661 13.8229 20.7884C13.9919 20.7109 14.1821 20.4098 14.4326 20.371C14.5676 20.3525 14.7048 20.3813 14.8209 20.4526C14.8209 20.4526 15.5505 19.7282 16.054 19.4875C16.0345 19.4292 15.9957 19.2098 16.5859 18.7243C16.619 18.7535 16.5957 18.835 16.619 18.8395C16.6286 18.8395 16.7726 18.7774 16.9548 18.6375C17.1801 18.4687 17.4499 18.2919 17.613 18.2434C17.9202 18.1522 18.2461 18.3385 18.2461 18.3385C18.2738 18.3191 18.3047 18.3046 18.3374 18.2958C18.4149 18.2822 18.4712 18.2725 18.514 18.2574C18.5102 18.3584 18.5665 18.5312 18.514 18.6807C18.5748 18.7149 18.6392 18.7422 18.706 18.7622C18.6731 18.834 18.6012 19.0165 18.4808 19.104C18.5817 19.1525 18.5953 19.2088 18.739 19.2576C18.6808 19.3391 18.5854 19.479 18.5429 19.5648C18.5002 19.656 18.3467 20.0347 18.2787 20.1783C18.2069 20.322 18.1099 20.5861 18.0632 20.6391C18.0165 20.6921 17.8476 20.9167 17.7176 21.0273C17.8328 20.9845 18.3041 20.8409 18.504 20.7865C18.4445 20.8738 18.1428 21.3214 17.8528 21.7519C16.464 22.5843 14.9138 23.1111 13.3055 23.2973C11.6971 23.4835 10.0676 23.3248 8.52539 22.8317L8.52629 22.8298Z" fill="#E0CD81"/>
<path id="Vector_19" fill-rule="evenodd" clip-rule="evenodd" d="M6.2211 10.1479C6.2211 10.1479 6.05227 10.1479 6.01925 10.1712C5.98622 10.1945 6.18821 10.2431 6.25029 10.2664C6.31237 10.2897 6.44638 10.3965 6.48133 10.482C6.51435 10.5635 7.6949 11.0392 7.6949 11.0392L8.52984 10.9964L8.81771 10.5987L8.27013 10.1191L8.65413 8.98706L8.14546 9.0686L6.92216 9.7982L6.30853 10.0332L6.2211 10.1479Z" fill="#DFC57C"/>
<path id="Vector_20" fill-rule="evenodd" clip-rule="evenodd" d="M8.05529 10.5223C8.06736 10.5418 8.08436 10.5579 8.10458 10.5688C8.1248 10.5797 8.14753 10.5851 8.17049 10.5844C8.34329 10.5844 8.5024 10.6271 8.56845 10.7144C8.67917 10.8543 8.98598 11.3009 8.98598 11.3009L9.71993 11.565L9.76729 10.7007L8.96537 10.1436L8.05273 10.4794V10.5222H8.05478L8.05529 10.5223Z" fill="#E5CC7C"/>
<path id="Vector_21" fill-rule="evenodd" clip-rule="evenodd" d="M7.91256 10.8428C7.91256 10.8428 8.04645 10.8525 8.21541 10.7903C8.38437 10.7281 8.662 10.5942 8.78245 10.6467C8.95128 10.7185 8.91634 10.9438 9.09899 11.1459C9.20958 11.2702 9.41157 11.2663 9.52613 11.4004C9.64069 11.5344 10.0348 11.4722 10.0348 11.4722L10.1843 12.2786L9.58437 13.0476L9.38814 14.0029H8.57688L7.83576 13.7088L7.4707 12.8256L7.65323 11.9325L7.91256 10.8428Z" fill="#D2C281"/>
<path id="Vector_22" fill-rule="evenodd" clip-rule="evenodd" d="M9.48023 10.8817C9.50035 10.8879 9.52126 10.8911 9.54231 10.8914C9.51902 10.9109 9.47038 10.9535 9.48983 11.0642C9.50929 11.1749 9.57137 11.3147 9.51902 11.4001C9.56081 11.4458 9.59197 11.5001 9.61028 11.5593C9.6433 11.6545 9.65303 11.7418 9.86846 11.7555C9.83737 11.7747 9.8087 11.7975 9.78308 11.8235C9.78308 11.8235 9.93258 11.9535 10.0084 12.0739C10.0859 12.0705 10.2918 12.0065 10.2918 12.0065L10.3345 12.0357L10.4258 11.9973C10.4258 11.9973 10.3404 11.9643 10.4025 11.7565C10.4607 11.574 10.5132 11.5837 10.5177 11.5702C10.5222 11.5566 10.5604 11.3644 10.5604 11.2867C10.5895 11.1858 10.6128 10.879 10.6128 10.879L10.5507 10.2013L10.2013 9.98964L9.9171 9.71533L9.64906 10.2202L9.47255 10.3962L9.45898 10.833L9.48023 10.8817Z" fill="#E2C270"/>
<path id="Vector_23" fill-rule="evenodd" clip-rule="evenodd" d="M10.3184 10.3147C10.3184 10.3147 10.3804 10.4913 10.4039 10.6272C10.4121 10.6008 10.4167 10.5734 10.4174 10.5457C10.4174 10.5457 10.4659 10.8137 10.4755 10.9245C10.495 10.9205 10.5139 10.9147 10.5183 10.9341C10.5226 10.9534 10.5669 11.1691 10.5567 11.2894C10.6376 11.156 10.7494 11.0441 10.8828 10.9632C10.9605 10.9146 11.0518 10.8622 11.147 10.8583C11.2965 10.8544 11.4052 10.9535 11.5839 10.9535C12.0149 10.9535 12.4053 10.637 12.6926 10.5399C12.9042 10.468 13.0867 10.4157 13.2149 10.299C13.2771 10.2467 13.3878 10.1302 13.4887 9.95728C13.6227 9.72688 13.7625 9.52631 13.9024 9.50109C13.8391 9.51272 13.7747 9.51727 13.7104 9.51466C13.7104 9.51466 13.7531 9.47191 13.8256 9.41367C13.898 9.35543 13.9848 9.28362 14.109 9.28362C14.3304 9.28362 14.441 9.31652 14.5653 9.31652C14.6896 9.31268 14.7614 9.28362 14.7614 9.28362C14.7614 9.28362 14.8915 9.37488 15.1847 9.37488C15.4779 9.37872 15.674 9.40394 15.8275 9.41764C15.981 9.43133 16.4954 9.37488 16.643 9.37924C16.7392 9.38294 16.8337 9.40606 16.9207 9.4472L16.445 8.0648L14.7359 6.57104L13.7184 7.29143L12.1532 8.85648L10.6387 9.41764L10.3222 9.77296V10.3147H10.3184Z" fill="#CCB360"/>
<path id="Vector_24" fill-rule="evenodd" clip-rule="evenodd" d="M13.719 9.52194C13.719 9.52194 13.7617 9.47932 13.8334 9.42108C13.9051 9.36284 13.9928 9.2909 14.1169 9.2909C14.3383 9.2909 14.449 9.32393 14.5733 9.32393C14.6976 9.32009 14.7694 9.2909 14.7694 9.2909C14.7694 9.2909 14.8997 9.38204 15.1927 9.38204C15.4859 9.38588 15.682 9.41109 15.8355 9.42466C15.9889 9.43823 16.5034 9.38204 16.651 9.38626C16.7472 9.38988 16.8416 9.41301 16.9286 9.45423L16.713 8.83087L16.4627 8.35522L15.7481 7.57263C15.7481 7.57263 14.8905 7.0678 14.8839 7.06396C14.8801 7.06012 14.5868 6.98242 14.5868 6.98242L13.8101 7.45231L13.1054 9.27567L13.0918 9.65967L13.548 9.87522C13.6625 9.68322 13.7889 9.52962 13.9073 9.51017C13.8004 9.52181 13.7189 9.52181 13.7189 9.52181L13.719 9.52194Z" fill="#D5B457"/>
<path id="Vector_25" fill-rule="evenodd" clip-rule="evenodd" d="M13.7075 9.65228C13.6395 9.65612 13.5833 9.64255 13.5677 9.59404C13.5095 9.43096 13.4629 9.40767 13.4141 9.40767C13.3654 9.40767 13.2996 9.5125 13.2605 9.5221C13.2215 9.5317 13.1751 9.40178 13.1751 9.40178L13.1324 9.38232C13.1324 9.38232 12.8819 9.5454 12.7053 9.73765C12.5286 9.92991 12.2392 10.2562 12.1092 10.3143C11.9791 10.3724 11.5324 10.392 11.3796 10.425C11.2267 10.458 11.0573 10.5688 11.034 10.594C11.0107 10.6192 11.1021 10.6463 11.1156 10.6715C11.1292 10.6948 10.966 10.6851 10.9524 10.7099C10.9428 10.7294 10.9908 10.84 11.0146 10.8963C11.0563 10.8756 11.102 10.8643 11.1485 10.8633C11.298 10.8594 11.4068 10.9585 11.5854 10.9585C12.0165 10.9585 12.4068 10.642 12.6941 10.5448C12.9058 10.473 13.0884 10.4205 13.2165 10.3041C13.2786 10.2517 13.3893 10.1351 13.4903 9.96229C13.564 9.84389 13.6359 9.73317 13.7079 9.65164L13.7075 9.65228Z" fill="#D2B257"/>
<path id="Vector_26" fill-rule="evenodd" clip-rule="evenodd" d="M7.5275 19.2622C7.5275 19.2622 7.4891 19.1185 7.13326 18.7477C7.03227 18.6429 6.97019 18.5557 6.90222 18.4934C6.73326 18.334 6.63419 18.2914 6.51387 18.2001C6.24981 18.004 5.96245 18.004 5.74113 17.7632C5.51982 17.5225 5.2619 17.0624 5.0827 16.5923C4.90606 16.1224 4.85742 15.9729 4.85742 15.9593C4.85742 15.9458 4.90606 15.8545 4.96814 15.8681C5.03022 15.8816 5.03022 16.002 5.04584 16.0311C5.07677 16.0788 5.11185 16.1236 5.15067 16.165C5.24193 16.27 5.37198 16.3954 5.43803 16.5826C5.42446 16.4233 5.37006 16.2467 5.37006 16.2467C5.37006 16.2467 5.71182 16.4622 6.00302 16.6874C6.29627 16.9127 6.41659 16.9904 6.50222 17.134C6.58785 17.2776 6.78958 17.6564 6.88622 17.7671C6.98286 17.8778 8.30702 18.2952 8.30702 18.2952L8.93691 18.7648L9.24961 19.4503L9.00488 19.8343L8.53499 19.9353L7.77185 19.5935L7.5275 19.2621V19.2622Z" fill="#D2B159"/>
<path id="Vector_27" fill-rule="evenodd" clip-rule="evenodd" d="M5.83008 16.9009C5.83008 16.9009 5.98931 17.1552 6.37766 17.396C6.72723 17.6077 7.28057 17.8 7.77389 17.9145C8.05728 17.9825 8.3408 18.0349 8.59513 18.0388C9.28057 18.0484 9.75238 17.8525 10.337 17.7883C10.6535 17.7553 11.0419 17.7301 11.4457 17.6347C11.9641 17.5104 12.2709 17.3705 12.6884 17.1739C12.9913 17.0342 13.2691 16.9293 13.4942 16.7953C13.8108 16.6089 14.0418 16.4012 14.3098 16.3391C14.2768 16.4304 14.2419 16.5934 13.9778 16.7624C14.1176 16.7584 14.3098 16.7488 14.3098 16.7488C14.3098 16.7488 14.1235 16.8594 13.7953 17.108C13.5933 17.2616 13.3254 17.5216 13.0516 17.6944C12.8748 17.8051 12.6826 17.8864 12.5563 17.9527C12.2491 18.1216 12.1252 18.207 11.9234 18.4135C11.9952 18.4096 12.0011 18.4135 12.0011 18.4135C12.0011 18.4135 11.7466 18.4465 11.5642 18.5435C11.5258 18.5435 11.4593 18.53 11.3428 18.563C11.2515 18.592 11.1311 18.6582 11.0069 18.693C10.8301 18.7455 10.772 18.7222 10.772 18.7222L10.8011 18.7805C10.8011 18.7805 10.5707 18.7765 10.4939 18.7843C10.5075 18.7881 10.5036 18.794 10.5036 18.794C10.4901 18.7963 10.4771 18.8009 10.4652 18.8076C10.4283 18.8315 10.3876 18.8492 10.3449 18.8599C10.3216 18.8638 10.3021 18.8638 10.273 18.8697C10.2827 18.893 10.3585 19.0233 10.3934 19.1001C10.3643 19.1195 9.92736 19.4496 9.92736 19.4496C9.94091 19.471 9.95199 19.4938 9.96038 19.5176C9.97395 19.5602 9.97984 19.6224 9.99341 19.6515C10.0263 19.7097 10.0458 19.7195 10.0458 19.7195C10.0458 19.7195 9.99341 19.7292 9.90201 19.7525C9.82445 19.7719 9.72921 19.8048 9.59481 19.8243C9.55358 19.8297 9.51209 19.8329 9.47053 19.834C9.48998 19.8768 9.57536 20.0398 9.41805 20.2281C9.26073 20.4164 9.21222 20.4438 9.16371 20.5641C9.13929 20.5457 9.11329 20.5294 9.08601 20.5155C9.03366 20.4922 8.96173 20.4574 8.93651 20.4107C8.92181 20.4729 8.90234 20.5339 8.87827 20.5932C8.82976 20.7232 8.75795 20.8515 8.74438 20.9485C8.6919 20.8903 8.59488 20.7757 8.46086 20.799C8.32685 20.8223 8.22009 21.0048 8.1968 21.0573C8.1968 21.0243 8.1735 20.9991 8.16774 21.0379C8.16377 21.0806 8.09005 21.5271 7.6784 21.8883C7.67456 21.797 7.67456 21.595 7.66483 21.5291C7.62643 21.5675 7.57945 21.6242 7.29977 21.7447C7.02598 21.865 7.06937 21.9854 7.06937 21.9854C7.06937 21.9854 7.04608 21.7934 7.19366 21.5912C7.34317 21.3894 7.43443 21.2941 7.43443 21.2786C7.43202 21.2629 7.42528 21.2481 7.41497 21.2359C7.39552 21.2164 7.35673 21.1931 7.35673 21.1776C7.38003 21.168 7.61107 21.0573 7.5975 20.8281C7.58393 20.6224 7.49664 20.5155 7.43443 20.4398C7.42483 20.4301 7.52582 20.3583 7.51213 20.335C7.5024 20.3214 7.37824 20.2301 7.36262 20.1814C7.36629 20.1524 7.37281 20.1238 7.38208 20.096C7.39565 20.0533 7.40537 20.0241 7.40153 19.995C7.39181 19.9465 7.33933 19.8125 7.32384 19.799C7.33741 19.8028 7.43443 19.799 7.43443 19.799C7.43443 19.799 7.35686 19.6747 7.34317 19.6164C7.32947 19.5582 7.30041 19.4047 7.28493 19.3757C7.31795 19.3795 7.39949 19.3853 7.39949 19.3757C7.40345 19.3465 7.32768 19.298 7.36109 19.2605C7.38438 19.2643 7.42905 19.2838 7.47168 19.3382C7.44838 19.2759 7.4096 19.1556 7.32793 19.1071C7.36633 19.0935 7.49689 19.0585 7.61145 19.1264C7.72601 19.1944 7.76505 19.2895 7.76505 19.2895C7.76505 19.2895 7.83302 19.342 7.93798 19.4197C8.0583 19.5148 8.21165 19.6501 8.45638 19.7458C8.50886 19.775 8.64275 19.775 8.7399 19.7556C8.7822 19.7455 8.82276 19.7291 8.86022 19.707C8.87375 19.6991 8.88808 19.6926 8.90297 19.6876C8.8821 19.6457 8.8581 19.6054 8.83117 19.5671C8.86419 19.5671 8.90297 19.5711 8.90297 19.5711C8.90297 19.5711 8.92627 19.5186 8.82144 19.4175C8.84473 19.3942 8.87392 19.3791 8.87392 19.3398C8.84089 19.336 8.78265 19.2875 8.76909 19.268C8.78841 19.2544 8.8176 19.2098 8.85062 19.1962C8.82144 19.1729 8.74963 19.0758 8.71661 19.0662C8.74815 19.0544 8.77868 19.0401 8.80787 19.0234C8.80787 19.0234 8.6448 18.9806 8.59232 18.9457C8.53984 18.9073 8.46227 18.8409 8.41568 18.8214C8.36704 18.802 8.28166 18.7924 8.24672 18.7534C8.27961 18.7632 8.33209 18.7534 8.37101 18.7534C8.40006 18.7534 8.41376 18.7573 8.42336 18.7573C8.41952 18.7437 8.41952 18.7145 8.49529 18.7049C8.53174 18.6994 8.56711 18.6883 8.60013 18.6719C8.60013 18.6719 8.52819 18.6681 8.44653 18.5904C8.36486 18.5127 8.29702 18.4506 8.25043 18.4409C8.20192 18.4311 8.11065 18.4739 8.05433 18.4699C7.97664 18.4603 7.94361 18.4214 7.94361 18.4214C7.94361 18.4214 7.68544 18.4447 7.11264 18.0953C6.61741 17.7923 6.40185 17.5244 6.40185 17.5244C6.35551 17.5076 6.31071 17.4868 6.26797 17.4622C6.0816 17.3652 5.82329 17.1632 5.8311 16.899L5.83008 16.9009Z" fill="#C2A44D"/>
<path id="Vector_28" fill-rule="evenodd" clip-rule="evenodd" d="M12.9743 5.24647C13.0192 5.26107 13.0591 5.28799 13.0895 5.32417C13.1807 5.429 13.239 5.62702 13.0312 5.83873C13.1127 5.86779 13.1464 5.87713 13.2176 5.86779C13.1458 5.95329 12.9827 6.13582 12.973 6.29505C12.9632 6.4251 13.0448 6.46401 13.0448 6.46401C13.0448 6.46401 12.9205 6.60763 12.9147 6.84801C12.9734 6.78182 13.0377 6.72076 13.1067 6.66548C13.2505 6.55092 13.4485 6.42087 13.5825 6.33934C13.5807 6.37351 13.5853 6.40772 13.5961 6.4402C13.5961 6.4402 13.8464 6.23438 14.0569 6.32577C14.152 6.36852 14.1092 6.50241 14.1092 6.50241C14.1092 6.50241 14.2394 6.4539 14.3307 6.54516C14.4219 6.63643 14.551 6.87182 14.6171 6.96308C14.6462 7.00583 14.722 7.08737 14.7995 7.21358C14.9055 7.39027 14.994 7.57688 15.0637 7.77076C15.0676 7.66977 15.0928 7.51259 15.3803 7.61153C15.6676 7.71252 15.9938 7.92423 16.2676 8.34113C16.5414 8.75803 16.6092 9.22868 16.7471 9.40788C16.8868 9.58068 17.0306 9.86804 17.0403 9.98849C17.05 10.1089 16.9975 10.4972 17.2849 11.5477C17.3664 11.2215 17.4907 10.4972 17.4907 10.4972L17.5587 9.85831L17.6364 7.88161L15.5723 6.16679L13.9587 4.99585L12.9082 5.09684L12.9741 5.24635L12.9743 5.24647Z" fill="#CAA13E"/>
<path id="Vector_29" fill-rule="evenodd" clip-rule="evenodd" d="M16.81 8.18842C16.81 8.18842 16.7809 7.99642 16.2955 7.67002C15.81 7.34771 15.4313 7.34771 15.0819 7.07392C14.8139 6.85837 14.5343 6.36314 14.3523 6.20006C14.1755 6.03891 14.1465 5.57286 14.1465 5.57286L14.7426 5.07366L15.6291 3.79226L16.3785 2.96704L16.7377 3.46624L17.2369 4.05261L17.5145 5.22931L17.6155 6.95168L16.8091 8.18854L16.81 8.18842Z" fill="#B59544"/>
<path id="Vector_30" fill-rule="evenodd" clip-rule="evenodd" d="M17.4095 10.2525C17.4242 9.99126 17.392 9.72955 17.3143 9.47973C17.1863 9.08165 16.9066 8.37483 16.7767 8.11013C16.7242 7.81688 16.7631 7.79358 16.8195 7.76056C16.8758 7.72754 17.0875 7.60696 17.2035 7.18392C17.3194 6.76088 17.6792 6.74706 17.6792 6.74706L17.9006 6.58398L18.2366 7.42469L18.5297 8.18398L18.6209 8.76459L18.6889 9.2597L18.5297 10.3064L17.7434 11.017L17.4094 10.2525H17.4095Z" fill="#C89D3A"/>
<path id="Vector_31" fill-rule="evenodd" clip-rule="evenodd" d="M6.4375 21.9185V21.897C6.45384 21.8868 6.46827 21.8738 6.48012 21.8586C6.49369 21.8391 6.50355 21.8159 6.51315 21.8101C6.5326 21.8004 6.62387 21.7717 6.67238 21.7809C6.72089 21.7901 6.84915 21.843 6.91712 21.8391C7.05689 21.8353 7.21996 21.7284 7.47827 21.7771C7.86662 21.8489 7.95788 22.1129 8.18316 22.2624C8.33676 22.3674 8.49574 22.3207 8.51904 22.3207H8.57139C8.58112 22.3207 8.65292 22.2391 8.69184 22.2431C8.76953 22.247 8.77721 22.3111 8.82572 22.3149C8.94028 22.3285 9.16172 22.2567 9.27244 22.2859C9.30527 22.2962 9.33513 22.3142 9.35947 22.3385C9.38381 22.3629 9.40191 22.3927 9.41222 22.4255C9.43552 22.4973 9.41606 22.5886 9.35974 22.6411C9.23942 22.7517 9.12486 22.8566 9.10156 22.9483C9.13119 22.9709 9.15965 22.995 9.18681 23.0205C8.22607 22.7757 7.3017 22.4056 6.4375 21.9197V21.9185Z" fill="#CEB052"/>
<path id="Vector_32" fill-rule="evenodd" clip-rule="evenodd" d="M16.7754 18.0389C16.7754 18.0389 17.0782 17.635 17.1832 17.435C17.288 17.2288 16.8512 14.6176 16.8512 14.6176L17.7289 11.7419L17.7054 10.806C17.7054 10.806 17.7482 9.94184 17.8492 9.56706C17.9696 9.78261 18.3444 10.0428 18.4259 10.1807C18.4643 9.9165 18.5948 9.35931 18.5755 8.76514C18.6473 8.87573 18.8201 9.98843 18.8201 9.98843L18.9929 10.7379L19.2181 11.534L19.4686 12.3749L19.6181 12.9555L19.7035 13.0952L19.7755 13.3399L19.8434 13.604L20.0395 14.2234L20.1547 14.7321L20.246 15.6545C20.2658 15.7251 20.2801 15.7972 20.2887 15.87C20.2926 15.971 20.2752 16.0293 20.2752 16.0468C20.2752 16.0643 20.3082 16.2681 20.2946 16.4216C20.2752 16.5752 20.2752 16.6954 20.1547 16.8056C20.0343 16.9158 19.9586 17.5745 19.9586 17.5745L19.7431 17.4309C19.7431 17.4309 19.7858 17.2346 19.6848 17.0561C19.5838 16.8775 19.3877 16.8405 19.277 16.8697C19.1664 16.893 18.9451 16.9278 18.8732 16.99C18.8052 17.0521 18.6383 17.2444 18.4848 17.3318C18.2928 17.447 17.98 17.4561 17.8131 17.4949C17.6441 17.5333 17.4578 17.6485 17.2615 17.7822C17.1077 17.8818 16.9452 17.9675 16.7762 18.0382L16.7754 18.0389Z" fill="#CCA847"/>
<path id="Vector_33" fill-rule="evenodd" clip-rule="evenodd" d="M16.7754 22.2818C16.7754 22.2818 16.7882 22.2901 16.8129 22.3037C18.1924 21.6574 19.4285 20.7412 20.4481 19.6093C20.437 19.2163 20.4225 18.8135 20.4066 18.6643C20.3737 18.3477 20.397 18.0254 20.3873 17.8391C20.3776 17.6527 20.2727 16.8934 20.2242 16.6973C20.1717 16.5012 20.0706 16.4041 20.0553 16.4041C20.0417 16.408 19.96 16.7731 19.96 16.8649C19.96 16.9566 19.9406 17.1776 19.9406 17.2339C19.927 17.2299 19.9212 17.1955 19.9212 17.1814C19.9018 17.2299 19.8785 17.3154 19.8688 17.3251C19.859 17.3349 19.8823 17.2436 19.8688 17.2241C19.8552 17.2047 19.8304 17.2144 19.8357 17.1659C19.838 17.1371 19.8426 17.1086 19.8493 17.0805C19.8493 17.0805 19.7911 17.1659 19.7484 17.3834C19.7057 17.5989 19.7057 17.6048 19.6902 17.6241C19.6766 17.6476 19.5989 17.7251 19.595 17.7543C19.5911 17.8067 19.6669 17.8592 19.6727 17.8882C19.6765 17.9369 19.6047 18.162 19.5814 18.2722C19.5581 18.3824 19.5678 18.5984 19.543 18.7091C19.5236 18.8101 19.5046 18.8683 19.4382 18.9109C19.4867 18.9207 19.5333 18.9342 19.5333 18.9342C19.5333 18.9342 19.6012 19.2216 19.4284 19.4663C19.3664 19.5517 19.3509 19.5906 19.2848 19.6683C19.1547 19.8119 19.0537 19.9755 19.0439 20.0819C19.0372 20.0505 19.0327 20.0187 19.0304 19.9866C19.0304 19.9866 18.8285 20.2217 18.743 20.3557C18.6324 20.5285 18.4789 20.5187 18.4358 20.5615C18.3927 20.6042 18.3833 20.6818 18.3974 20.744C18.359 20.7536 18.2868 20.7673 18.2382 20.9168C18.2149 20.9944 18.1566 21.0704 18.0654 21.1226C17.9741 21.1749 17.8634 21.1906 17.8071 21.2042C17.8556 21.2177 17.875 21.2177 17.8983 21.2332C17.8693 21.2817 17.7353 21.3575 17.5858 21.4547C17.4363 21.5459 17.3643 21.6798 17.3275 21.7673C17.2891 21.8488 17.2323 21.9013 17.1411 21.911C17.1795 21.9343 17.2363 21.9886 17.2654 22.0061C17.2226 22.0158 17.1502 22.0158 17.0208 22.1265C16.8848 22.2392 16.8382 22.2722 16.776 22.2819L16.7754 22.2818Z" fill="#C39D3C"/>
<path id="Vector_34" fill-rule="evenodd" clip-rule="evenodd" d="M14.0729 23.1814C14.1473 23.1293 14.2278 23.0866 14.3126 23.0543C14.6155 22.934 14.9359 22.9107 15.0621 22.8719C15.1825 22.8335 15.2776 22.7805 15.4271 22.7515C15.4232 22.7855 15.4198 22.8175 15.4163 22.8477C14.9755 22.9863 14.5267 23.0977 14.0723 23.1814H14.0729Z" fill="#D2BA6B"/>
<path id="Vector_35" fill-rule="evenodd" clip-rule="evenodd" d="M19.6616 15.2153C19.6616 15.2153 19.5996 15.5512 19.4888 15.7629C19.3781 15.9746 19.2584 16.2677 19.2584 16.2677C19.2592 16.2017 19.267 16.1359 19.2817 16.0715C19.142 16.153 18.8021 16.3493 18.7057 16.4366C18.6145 16.5181 18.461 16.6618 18.4222 16.7298C18.5135 16.4619 18.6086 16.2211 18.6242 16.1104C18.4844 16.2114 17.8319 16.7493 17.4922 17.1046L16.4339 17.9609C16.3117 18.0268 16.186 18.0857 16.0572 18.1373C15.8748 18.2149 15.6592 18.2809 15.5 18.3431C15.5427 18.2286 15.6106 18.1274 15.7058 18.0304C15.8068 17.9353 16.1096 17.6071 16.1562 17.4544C16.199 17.2952 16.2087 17.2001 16.1524 17.0661C16.0999 17.0796 15.9796 17.0855 15.8981 17.1088C15.8165 17.1321 15.7291 17.2194 15.7291 17.2194C15.7291 17.2194 15.7912 16.8641 15.9252 16.5282C15.8242 16.5321 15.6514 16.5611 15.6514 16.5611C15.6514 16.5611 15.8922 16.1573 16.3042 15.8758C16.178 15.9027 16.0545 15.941 15.9353 15.9902C15.6945 16.0912 15.4305 16.2407 15.2344 16.3223C15.345 16.1687 16.1217 15.0602 16.5839 14.0271C17.0447 12.9961 17.2168 12.732 17.3178 12.1786C17.3702 11.9049 17.3562 11.5002 17.3702 11.1379C17.3838 10.7786 17.4284 10.4563 17.3994 10.2407C17.5197 10.3902 17.9702 10.8116 17.9857 11.7534C17.9993 12.6951 17.5548 13.9671 17.0828 14.6524C17.198 14.6854 17.4965 14.7243 17.8032 14.1916C18.1099 13.6588 18.1062 13.5101 18.2169 13.2887C18.2305 13.3994 18.2265 13.4382 18.2265 13.4382C18.2265 13.4382 18.6732 12.8965 18.8848 12.2149C18.9276 12.5081 19.0538 12.7664 18.8556 13.3043C18.679 13.7897 18.4479 13.9082 18.4479 13.9082C18.4479 13.9082 18.5625 13.8887 18.7313 13.7877C18.7605 13.8595 18.7548 13.9413 18.8033 13.9703C18.8518 13.9992 18.9178 14.048 18.9276 14.0945C18.9799 14.0169 19.0614 13.9178 19.0868 13.8441C19.0673 13.9977 19.0538 14.6693 19.1252 15.011C19.2748 14.9975 19.4282 14.9877 19.533 14.7178C19.4612 14.982 19.4612 15.1411 19.5097 15.3664C19.5893 15.3121 19.6611 15.2149 19.6611 15.2149L19.6616 15.2153Z" fill="#C0993A"/>
<path id="Vector_36" fill-rule="evenodd" clip-rule="evenodd" d="M14.6157 4.51255C14.6157 4.51255 14.4662 4.57463 14.2118 4.57463C13.9905 4.57463 14.0526 4.48926 13.707 4.48926C13.175 4.48926 11.3167 4.79646 10.9904 4.79211C10.7787 4.78827 11.7049 4.88337 11.7049 4.88337L14.072 4.91639L14.5477 4.87799L14.7245 4.51831L14.6157 4.51255Z" fill="#A88F33"/>
<path id="Vector_37" fill-rule="evenodd" clip-rule="evenodd" d="M8.47794 9.13992C8.47794 9.13992 8.17497 9.37096 8.04684 9.54773C7.91871 9.7245 7.85074 9.84085 7.70508 9.98459C7.73927 9.9859 7.77343 9.98131 7.80607 9.97103C7.80607 9.97103 7.80607 10.0094 7.78277 10.0195C7.80291 10.0173 7.82328 10.0196 7.84242 10.0262C7.86156 10.0329 7.87896 10.0437 7.89337 10.0579C7.85061 10.0812 7.73413 10.1978 7.8254 10.3357C7.89337 10.4405 8.03711 10.4501 8.03711 10.4501C8.03711 10.4501 8.00409 10.5454 8.14194 10.5356C8.43903 10.5221 8.77106 10.3919 8.92441 10.4249C9.07801 10.4633 9.1653 10.4774 9.27397 10.6658C9.38917 10.8522 9.48953 10.8814 9.48953 10.8814C9.48953 10.8814 9.55749 10.7084 9.54201 10.4503C9.59773 10.3111 9.62862 10.1632 9.63327 10.0134L9.53228 9.26971L9.09157 8.7124L8.52069 9.02895L8.47794 9.13954V9.13992Z" fill="#E3C571"/>
<path id="Vector_38" fill-rule="evenodd" clip-rule="evenodd" d="M9.01758 9.02929C9.01758 9.02929 9.06033 9.13028 9.23902 9.13988C9.21956 9.18263 9.21956 9.18852 9.22545 9.22142C9.22929 9.25444 9.23505 9.30295 9.23505 9.30295C9.25472 9.29343 9.2725 9.28042 9.28753 9.26455C9.29726 9.3073 9.2778 9.37514 9.28753 9.42378C9.29353 9.45337 9.3033 9.48206 9.31659 9.50916C9.31942 9.50252 9.32267 9.49606 9.32631 9.48983C9.33015 9.4801 9.36471 9.59466 9.46033 9.68183C9.46025 9.66843 9.46355 9.65522 9.46993 9.64343C9.4714 9.66778 9.47945 9.69127 9.49323 9.7114C9.48607 9.70799 9.47954 9.7034 9.4739 9.69783C9.4739 9.69783 9.4835 10.005 9.53598 10.1639C9.54475 10.1536 9.55255 10.1426 9.55927 10.1309C9.55927 10.1213 9.55543 10.2164 9.54571 10.2845C9.53214 10.3524 9.54187 10.4475 9.54187 10.4475C9.57687 10.42 9.61535 10.3971 9.6563 10.3796C9.71454 10.3561 9.8099 10.2843 9.86801 10.1251C9.90172 10.0349 9.92771 9.94204 9.94571 9.84746C9.96448 9.88361 9.97744 9.92248 9.98411 9.96266C9.98807 10.0112 10.0793 9.98596 10.0793 9.98596L10.0988 9.77425L10.214 9.29463L10.3188 8.99754L10.8237 8.21124L11.7358 7.50878L12.5319 7.6913L13.2037 6.77866L12.0464 6.0835L10.9513 6.19806L9.95735 7.5747L9.16132 8.82334L9.01758 9.02916V9.02929Z" fill="#D8B65B"/>
<path id="Vector_39" fill-rule="evenodd" clip-rule="evenodd" d="M14.7563 7.03689C14.7563 7.03689 14.6883 7.05046 14.4922 7.15209C14.2961 7.25372 14.1602 7.28598 14.0844 7.43548C14.0086 7.58498 14.0029 7.70351 14.0029 7.70351C14.0029 7.70351 14.1369 7.64527 14.2146 7.62582C14.2961 7.60649 14.3874 7.61225 14.3777 7.64527C14.3683 7.66792 14.3554 7.68888 14.3393 7.70735C14.3393 7.70735 14.4929 7.70351 14.4888 7.77929C14.4847 7.85506 14.4597 7.93852 14.4307 7.97538C14.4015 8.01378 14.2811 8.07062 14.2676 8.11529C14.2346 8.20655 14.2811 8.21039 14.2636 8.28412C14.25 8.35606 14.186 8.49583 13.9763 8.74044C13.7607 8.98518 13.6691 9.15798 13.6691 9.15798C13.6691 9.15798 13.5642 8.96188 13.5098 8.79292C13.4714 8.81225 13.2652 8.92681 13.2652 8.92681L12.7875 7.26281L12.7971 7.15209C12.7971 7.15209 12.8399 7.09974 12.8496 7.00258C12.7778 6.97929 12.7681 6.95983 12.6728 6.8687C12.5776 6.77756 12.5 6.66671 12.3409 6.59094C12.3176 6.54818 12.2884 6.49007 12.172 6.46665C12.0555 6.44322 11.9856 6.42402 11.9856 6.42402C11.9856 6.42402 12.0477 6.4006 12.0769 6.35209C12.0049 6.36182 11.9468 6.38511 11.7895 6.38127C11.6303 6.3773 11.6127 6.37154 11.5254 6.38511C11.4381 6.39868 11.3334 6.43759 11.2944 6.30358C11.2516 6.27055 11.1604 6.29974 11.0827 6.41417C11.005 6.5286 10.9779 6.61999 10.8283 6.66466C10.8178 6.73057 10.7948 6.79383 10.7604 6.85103C10.7176 6.92297 10.6497 6.99478 10.5584 7.10153C10.4147 7.27049 10.4379 7.54812 10.2088 7.75983C9.97779 7.97142 10.2472 7.17334 10.2472 7.17334L10.6161 6.29014L11.6666 5.26294L13.2977 5.15234L13.457 5.99714L14.2531 6.27094L14.756 7.03791L14.7563 7.03689Z" fill="#D3AE4D"/>
<path id="Vector_40" fill-rule="evenodd" clip-rule="evenodd" d="M15.0129 7.22311L14.3274 6.23483L13.8478 5.8658C13.8478 5.8658 13.5061 5.23681 13.4828 5.21735C13.4633 5.20379 13.141 5.16884 12.9352 5.15527L12.9736 5.25038C13.0185 5.26497 13.0584 5.29189 13.0888 5.32807C13.18 5.43291 13.2383 5.63092 13.0305 5.84263C13.1121 5.87169 13.1457 5.88103 13.2169 5.87169C13.1451 5.95719 12.982 6.13972 12.9723 6.29895C12.9626 6.429 13.0441 6.46779 13.0441 6.46779C13.0441 6.46779 12.9198 6.61153 12.9141 6.85179C12.9728 6.7856 13.037 6.72453 13.1061 6.66926C13.2498 6.55406 13.4478 6.42452 13.5818 6.34299C13.58 6.3772 13.5846 6.41146 13.5954 6.44398C13.5954 6.44398 13.8458 6.23815 14.0562 6.32942C14.1513 6.37217 14.1086 6.50619 14.1086 6.50619C14.1086 6.50619 14.2387 6.45767 14.33 6.54894C14.4213 6.6402 14.5513 6.87508 14.6174 6.96647C14.6464 7.00923 14.7222 7.09076 14.7998 7.21684C14.9058 7.39357 14.9942 7.58023 15.064 7.77415C15.0678 7.69646 15.0834 7.58779 15.2176 7.58779L15.0136 7.22273L15.0129 7.22311Z" fill="#CAA13E"/>
<path id="Vector_41" fill-rule="evenodd" clip-rule="evenodd" d="M4.73836 10.0309C4.73836 10.0309 4.68985 9.91049 4.73836 9.67561C4.78687 9.44073 4.86265 9.33001 4.88786 8.98441C4.91308 8.63881 5.13836 8.20771 5.13836 8.20771L5.76159 7.92432L6.20242 8.04464L6.33247 8.63497L5.77516 8.94217C5.77516 8.94217 5.7461 9.07222 5.58879 9.17705C5.43148 9.28188 5.21401 9.36342 5.16165 9.4703C5.13036 9.53575 5.10752 9.60491 5.09369 9.67612C5.09369 9.67612 4.93445 9.6431 4.83935 9.74793C4.73836 9.85481 4.7422 9.94992 4.73836 10.0315V10.0309Z" fill="#F4EFC8"/>
<path id="Vector_42" fill-rule="evenodd" clip-rule="evenodd" d="M5.99612 9.87386C5.99612 9.87386 5.94364 9.90689 5.90485 9.98906C5.86645 9.92698 5.77468 9.55796 5.77084 9.22593C5.767 8.8939 5.74716 8.81159 5.82396 8.69716C5.90076 8.58273 6.20194 8.46215 6.15919 8.25607C6.11644 8.05998 5.93775 7.97844 5.71836 8.03476C5.56476 8.07316 5.45045 8.39982 5.29122 8.56289C5.17077 8.68718 5.02716 8.66772 4.98837 8.73569C4.93589 8.82695 4.98441 8.91822 4.96892 8.97646C4.96495 8.99591 4.91644 9.10074 4.82901 9.22695C4.65237 9.48129 4.35337 9.84058 4.31445 10.1629C4.32802 9.98036 4.31842 9.97652 4.36693 9.77454L4.33775 9.72602L4.52975 9.0969L4.65404 8.5785L4.9318 7.71041L5.42101 6.82311L5.89679 6.29102L6.39189 6.32404L6.45013 7.06772L6.73365 8.46394L7.32975 9.1979L6.37436 9.84084L5.99573 9.87386H5.99612Z" fill="#EBCC73"/>
<path id="Vector_43" fill-rule="evenodd" clip-rule="evenodd" d="M6.29265 10.1374C6.29265 10.1374 6.21111 10.1569 6.18193 10.1414C6.15274 10.1259 6.12382 10.1084 6.13342 10.0889C6.14302 10.0695 6.1955 10.0366 6.1955 10.021C6.19657 10.0069 6.19211 9.99288 6.18305 9.982C6.174 9.97113 6.16106 9.96421 6.14698 9.96272C6.10231 9.95696 6.08874 9.98602 6.08874 9.98602C6.08874 9.98602 6.04599 9.95312 6.01118 9.94762C6.03178 9.9451 6.0525 9.94377 6.07326 9.94365C6.0196 9.91934 5.96268 9.903 5.9043 9.89514C5.95281 9.86608 6.04804 9.78058 6.11012 9.78058C6.1722 9.78058 6.21111 9.77098 6.20138 9.73795C6.19166 9.70493 6.14314 9.65642 6.09079 9.63696C6.11012 9.61367 6.12382 9.57872 6.07722 9.48336C6.02858 9.38826 6.04804 9.32413 6.06366 9.30096C6.07722 9.27178 6.12574 9.21943 6.14903 9.1864C6.17233 9.15338 6.19178 9.10871 6.23057 9.08541C6.25002 9.07184 6.3121 9.04701 6.37431 9.02333C6.44228 9.00003 6.4986 8.97085 6.53738 9.00003C6.58014 9.02909 6.56068 9.068 6.56068 9.068C6.56068 9.068 6.6947 9.01936 6.81502 9.08157C6.93546 9.13968 7.22871 9.17667 7.22871 9.17667L7.3338 9.38839L6.63863 9.98448L6.35127 10.1282L6.29303 10.1378L6.29265 10.1374Z" fill="#E5C66B"/>
<path id="Vector_44" fill-rule="evenodd" clip-rule="evenodd" d="M7.25806 9.16311C7.25806 9.16311 7.04251 9.30685 6.994 9.35921C7.02305 9.36317 7.07156 9.38263 7.05211 9.41169C7.02881 9.44074 6.88904 9.54173 6.81134 9.63697C6.7298 9.73207 6.65211 9.85252 6.62497 9.91076C6.59592 9.96311 6.37448 10.1166 6.29883 10.1359C6.45806 10.1359 6.77844 9.93981 6.89876 9.93981C6.89492 9.99805 6.93179 10.0641 6.99976 10.0699C7.06772 10.0756 7.26382 10.1126 7.52788 9.94954C7.79195 9.79031 7.70465 9.67178 7.81524 9.59421C8.02696 9.45431 8.11233 9.33002 8.22881 9.25245C8.34529 9.17489 8.40558 9.15722 8.40558 9.15722C8.40558 9.15722 8.40942 9.09898 8.44398 9.10487C8.45344 9.10595 8.46242 9.1096 8.46996 9.11542C8.47749 9.12125 8.48329 9.12902 8.48673 9.13789C8.48673 9.13789 8.68872 8.99415 8.94753 8.95537C8.94149 8.95267 8.93666 8.94784 8.93396 8.9418C8.93396 8.9418 8.95329 8.93207 8.95726 8.92234C8.95726 8.92234 8.97083 8.90289 8.98056 8.91261C8.99028 8.92234 9.00385 8.99415 9.02331 9.02333C9.06606 9.00388 9.1476 8.82135 9.1476 8.82135L9.34382 8.2602V7.74756L9.19022 7.77674L8.03822 8.26596L7.33908 8.99031L7.25755 9.16311H7.25806Z" fill="#E6BD62"/>
<path id="Vector_45" fill-rule="evenodd" clip-rule="evenodd" d="M10.5764 6.64861C10.6387 6.63349 10.6984 6.60925 10.7536 6.57668C10.7303 6.63888 10.7303 6.70685 10.6294 6.85444C10.5284 7.00202 10.5245 7.0234 10.443 7.17674C10.3614 7.33597 10.3517 7.56509 10.274 7.66596C10.3089 7.64903 10.3462 7.63792 10.3846 7.63306C10.3846 7.63306 10.3071 7.70103 10.274 7.77284C10.241 7.84464 10.1828 7.99415 10.0391 8.08554C9.89553 8.17693 9.71287 8.23504 9.51678 8.4506C9.32055 8.66218 9.1187 8.93021 9.01758 9.0266C9.07006 8.93533 9.14187 8.7528 9.16132 8.63248C9.18078 8.51216 9.15735 8.36829 9.19038 8.20919C9.2234 8.05008 9.2234 7.9354 9.38238 7.65764C9.54135 7.37988 9.81348 6.41488 9.81348 6.41488L10.3999 6.22852L10.5766 6.64797L10.5764 6.64861Z" fill="#B6933F"/>
<path id="Vector_46" fill-rule="evenodd" clip-rule="evenodd" d="M10.1521 6.2932C10.1521 6.2932 9.97543 6.54754 9.92692 6.77282C9.87841 6.9981 9.92295 6.97864 9.89389 7.08936C9.87651 7.15687 9.87651 7.22768 9.89389 7.29519C9.95507 7.19663 10.0388 7.11406 10.1382 7.05429C10.3053 6.95343 10.4412 6.88149 10.5222 6.79612C10.6038 6.70485 10.6717 6.55535 10.8484 6.44079C10.7766 6.43106 10.6756 6.39804 10.6564 6.40239C10.7283 6.32085 10.9437 6.19656 11.1612 6.04706C11.3768 5.89346 11.3632 5.83151 11.7128 5.67816C11.5982 5.69762 11.5438 5.66844 11.4486 5.67816C11.487 5.59663 11.6214 5.55772 11.7558 5.42383C11.8902 5.28994 11.6704 5.0918 11.6704 5.0918L10.6464 5.71119L10.1513 6.29372L10.1521 6.2932Z" fill="#C49937"/>
<path id="Vector_47" fill-rule="evenodd" clip-rule="evenodd" d="M7.37305 5.831L7.39634 5.64463L7.68959 5.17475L7.99641 4.34953V3.22134L7.97311 2.56892L8.02162 2.14166L8.05849 2.00585L8.0974 1.95337L8.34777 2.08342L8.69349 2.55331L8.72652 3.46018L8.39052 4.89123L7.43129 5.93788L7.37305 5.831Z" fill="#DFC068"/>
<path id="Vector_48" fill-rule="evenodd" clip-rule="evenodd" d="M8.13377 1.90105C8.13377 1.90105 7.98017 1.90502 7.9474 2.54387C7.91463 3.18272 7.89876 3.51859 7.87547 3.83513C7.85217 4.15168 7.7979 4.3438 7.77063 4.5303C7.74337 4.7168 7.72788 4.971 7.64059 5.1264C7.60219 5.1982 7.52014 5.42348 7.32788 5.59244C7.11233 5.77881 6.79028 5.90899 6.74151 5.91872C6.65601 5.93805 6.22299 5.9808 6.04635 6.07795C5.98427 6.11097 5.87739 6.14976 5.75899 6.26048C5.52398 6.47206 5.2114 6.85068 4.98612 7.307C4.64052 7.9886 4.29492 9.91283 4.29492 9.91283L4.37262 9.78278C4.37262 9.78278 4.38235 9.60998 4.55515 9.307C4.72411 9.00416 4.67559 8.66432 4.91047 8.08371C5.00174 7.8624 5.1163 7.57504 5.25607 7.3303C5.47751 6.93222 5.74542 6.59046 6.01537 6.40409C6.45607 6.10124 6.94158 6.0352 6.94158 6.0352L7.46395 5.6896C7.46395 5.6896 7.55521 5.51296 7.67566 5.31097C7.84449 5.02758 8.05966 4.71104 8.10663 4.25088C8.17857 3.56928 8.00564 3.12268 8.01537 2.71884C8.0251 2.315 8.02894 2.01792 8.1106 1.94598C8.19227 1.87404 8.1339 1.90131 8.1339 1.90131L8.13377 1.90105Z" fill="#A88F33"/>
<path id="Vector_49" fill-rule="evenodd" clip-rule="evenodd" d="M8.13307 4.94946C8.13307 4.94946 8.36347 4.38242 8.46894 3.8795C8.48839 3.77851 8.52718 3.67765 8.53691 3.59611C8.58542 3.12034 8.59899 2.92424 8.53691 2.66402C8.48839 2.47202 8.30203 2.29896 8.20487 2.16482C8.10977 2.02491 8.0651 1.97282 8.08455 1.94338C8.10401 1.91394 8.17966 1.86581 8.25339 1.87157C8.33176 1.87385 8.40885 1.89205 8.47997 1.92505C8.55108 1.95806 8.61475 2.00519 8.66708 2.06357C8.81659 2.23637 8.93499 2.82286 8.93499 2.82286L9.05953 3.59675L9.37607 4.57147L8.13332 4.95022L8.13307 4.94946Z" fill="#C99E3D"/>
<path id="Vector_50" fill-rule="evenodd" clip-rule="evenodd" d="M10.2999 4.35936C10.2999 4.35936 10.2572 4.37868 10.1796 4.35936C10.1829 4.39106 10.1774 4.42305 10.1637 4.45182C10.15 4.4806 10.1286 4.50503 10.1019 4.52243C10.0204 4.4894 9.2571 4.55545 9.2571 4.55545C9.2571 4.55545 8.90177 4.49324 8.79105 4.02336C8.71349 3.71065 8.84929 3.27968 8.80462 2.99616C8.73665 2.57862 8.64155 2.49696 8.63182 2.36704C8.62209 2.23712 8.61237 2.20396 8.61237 2.12243C8.56961 2.1127 8.5444 2.09913 8.50177 2.09913C8.49205 2.06073 8.51137 2.0272 8.46875 1.95923C8.49205 1.96896 8.65128 1.98841 8.83765 2.16505C8.99125 2.3088 8.99125 2.36115 9.01441 2.39033C9.04347 2.41939 9.27848 2.62073 9.37947 2.82144C9.48046 3.02214 9.67656 3.66214 9.72123 3.76697C9.7348 3.80972 9.76398 3.85248 9.83643 3.9495C9.94907 4.0894 10.1141 4.3207 10.3004 4.3591L10.2999 4.35936Z" fill="#B58634"/>
<path id="Vector_51" fill-rule="evenodd" clip-rule="evenodd" d="M9.04102 2.40015C9.15864 2.59016 9.26432 2.78732 9.35743 2.99048C9.47199 3.24866 9.53996 3.46037 9.6837 3.63317C9.60601 3.40802 9.46815 2.96527 9.38662 2.80795C9.29535 2.64155 9.10898 2.46235 9.04102 2.40027V2.40015Z" fill="#A88F33"/>
<path id="Vector_52" fill-rule="evenodd" clip-rule="evenodd" d="M7.72439 5.59217C7.72439 5.59217 7.52829 5.64068 7.16324 5.83294C7.04279 5.89502 6.92836 5.94737 6.81764 5.99601C6.53002 6.12606 6.22154 6.24625 5.9768 6.31255C5.99626 6.33585 6.00586 6.34545 6.00586 6.34545C6.00586 6.34545 6.00586 6.44068 6.05834 6.49495C6.02928 6.52414 5.6408 6.7882 5.75549 7.67166C5.83306 7.6426 5.92432 7.60369 5.93789 7.60369C5.96132 7.60766 5.96708 7.67166 5.99613 7.67166C6.02519 7.67166 6.12042 7.63326 6.22141 7.5027C6.21757 7.55518 6.15933 8.08331 6.47191 8.43863C6.53015 8.37067 6.67773 8.14539 6.67773 8.14539L6.68157 8.07358C6.68157 8.07358 6.69514 7.82308 6.77681 7.59396C6.85847 7.36484 7.01757 7.19588 7.01757 7.19588L7.84842 6.00945L7.72413 5.59204L7.72439 5.59217Z" fill="#E6C367"/>
<path id="Vector_53" fill-rule="evenodd" clip-rule="evenodd" d="M6.94721 7.33449C6.90917 7.36137 6.86726 7.3823 6.82292 7.39657C6.80935 7.34806 6.78989 7.18102 6.90445 7.01795C7.03847 6.82172 7.33159 6.56739 7.41313 6.36515C7.46561 6.23497 7.44231 5.90883 7.90836 5.49129C8.37441 5.07375 8.55681 4.93014 8.55681 4.93014L9.31021 4.55151L10.2364 4.91657L9.77626 6.72009L9.41901 7.56489L7.99821 7.29699L6.94708 7.33449H6.94721Z" fill="#DCBA5A"/>
<path id="Vector_54" fill-rule="evenodd" clip-rule="evenodd" d="M7.48633 6.84468L7.6631 6.62337V6.46606C7.6631 6.46606 7.85919 6.41358 8.07078 6.19802C8.28236 5.98247 8.57561 5.5689 8.83391 5.59412C9.09222 5.6233 9.11743 6.15527 9.12716 6.3049C9.13689 6.45454 9.16991 6.79412 9.22226 6.97678C9.2805 7.1593 8.59314 7.8505 8.59314 7.8505L8.12633 8.20583L7.48633 6.84468Z" fill="#E9CE77"/>
<path id="Vector_55" fill-rule="evenodd" clip-rule="evenodd" d="M8.0332 8.68741C8.0332 8.68741 8.17695 8.46213 8.0716 8.41362C8.13368 8.27384 8.24824 8.12626 8.24824 8.12626C8.24824 8.12626 8.32978 7.9244 8.59384 7.67582C8.85791 7.42725 9.02111 7.26213 9.06386 7.09522C9.09022 6.98644 9.10455 6.87509 9.10661 6.76318C9.13516 6.78651 9.1657 6.80728 9.19787 6.82526C9.24063 6.84472 9.44248 7.01163 9.41343 7.34763C9.38437 7.68363 9.25983 7.82341 9.25983 7.82341C9.25983 7.82341 9.13951 7.94373 9.05413 8.00594C8.96274 8.06802 8.92984 8.13982 8.77637 8.14571C8.79215 8.13317 8.80988 8.12331 8.82885 8.11653C8.82885 8.11653 8.66962 8.0972 8.58412 8.17477C8.49861 8.25234 8.31685 8.49131 8.22559 8.56325C8.13432 8.62149 8.03359 8.68754 8.03359 8.68754L8.0332 8.68741Z" fill="#CDAE50"/>
<path id="Vector_56" fill-rule="evenodd" clip-rule="evenodd" d="M14.4895 4.91039C14.2601 4.82679 14.019 4.77962 13.775 4.77062C13.3672 4.75705 12.7711 4.78035 12.1866 4.78419C11.5575 4.78803 10.9866 4.56863 10.1944 4.52985C10.0644 4.45215 9.73362 4.11231 8.70117 4.8327C8.76325 4.82886 9.45074 4.67347 9.68946 4.9726C9.93023 5.26969 9.86226 5.77452 9.82936 5.89484C9.76716 6.16287 9.56517 6.55315 9.48376 6.82694C9.40236 7.10073 9.42156 7.2446 9.36332 7.4366C9.30508 7.6286 9.17695 7.72396 9.2526 7.94527C9.35359 7.88319 9.4062 7.88319 9.5749 7.50457C9.7436 7.12595 9.70892 6.85599 9.9886 6.53561C10.2624 6.21331 10.7182 5.77247 10.8915 5.66175C11.0648 5.55103 12.4409 4.83654 13.8818 5.51814C14.2294 5.48127 14.4896 4.91027 14.4896 4.91027L14.4895 4.91039Z" fill="#D2A83E"/>
<path id="Vector_57" fill-rule="evenodd" clip-rule="evenodd" d="M9.28296 4.64618C9.28154 4.63159 9.27831 4.61723 9.27336 4.60343C9.25989 4.57503 9.24219 4.54883 9.22088 4.52573C9.22088 4.52573 8.87912 4.46365 8.70632 4.48298C8.40335 4.516 8.12956 4.89079 8.00143 5.08304C7.8733 5.2753 7.71407 5.57226 7.54127 5.72573C7.54316 5.71078 7.53971 5.69564 7.53154 5.68298C7.53154 5.68298 7.54127 5.69655 7.52194 5.716C7.50261 5.73546 7.50248 5.74506 7.51221 5.7544L7.5414 5.78346C7.551 5.78346 7.81903 5.66301 8.18408 5.32266C8.57243 4.96733 8.86952 4.78506 9.02491 4.72259C9.10778 4.68738 9.1944 4.66174 9.28309 4.64618H9.28296Z" fill="#C29637"/>
<path id="Vector_58" fill-rule="evenodd" clip-rule="evenodd" d="M15.9116 3.18652C15.9116 3.18652 15.8494 3.26409 15.7717 3.3496C15.5989 3.53212 15.3736 3.73782 15.1813 3.94953C14.9989 4.15152 14.7931 4.30883 14.5619 4.57289C14.3308 4.83696 14.0627 5.13008 13.9949 5.21558C13.9328 5.30108 13.8843 5.44086 13.8843 5.51267C13.8513 5.48937 13.8125 5.46416 13.8125 5.46416C13.8288 5.49464 13.8484 5.5233 13.8707 5.54966C13.9193 5.61763 13.9949 5.70326 14.0338 5.75548C14.0816 5.82197 14.1158 5.89715 14.1347 5.97679C14.158 5.98063 14.3075 6.00982 14.494 5.703C14.6805 5.39619 14.9249 5.06032 14.9249 5.06032L15.3133 4.48355L15.558 3.99433L15.8652 3.44675L15.912 3.18652H15.9116Z" fill="#AC8132"/>
<path id="Vector_59" fill-rule="evenodd" clip-rule="evenodd" d="M16.3112 2.79395C16.3112 2.79395 16.0762 2.98595 15.9849 3.10115C15.8937 3.21635 15.6777 3.51868 15.6777 3.51868L15.7554 3.50895L16.1497 3.15951L16.3033 2.88572L16.3111 2.79446L16.3112 2.79395Z" fill="#A88F33"/>
<path id="Vector_60" fill-rule="evenodd" clip-rule="evenodd" d="M16.2374 18.2256C16.2374 18.2256 16.2335 18.0664 16.3229 17.9713C16.4141 17.8761 16.6452 17.7363 16.8704 17.212C17.0957 16.6877 17.1208 16.5693 17.1208 16.5693C17.1208 16.5693 16.717 16.9149 16.468 16.9964C16.5262 16.876 16.5593 16.7906 16.5885 16.7284C16.5554 16.6994 16.4157 16.6663 16.4021 16.6508C16.4797 16.5731 16.5224 16.3828 16.6797 16.2566C16.8817 16.103 17.2506 15.8391 17.5373 15.6038C17.824 15.3685 18.3878 14.8213 18.4597 14.6621C18.5024 14.7242 18.512 14.763 18.512 14.763C18.512 14.763 18.2286 15.132 18.0811 15.3669C17.9509 15.5689 17.9606 15.6834 17.9606 15.6834L18.2286 15.5682C18.2286 15.5682 18.3062 15.8556 17.9549 16.2926C18.1085 16.2343 18.1704 16.2693 18.2577 16.2206C18.114 16.312 17.9159 16.4363 17.7296 16.778C17.547 17.1197 17.2985 17.5178 16.8791 17.7662C16.4713 18.0284 16.2363 18.2245 16.2363 18.2245L16.2374 18.2256Z" fill="#A67A2E"/>
<path id="Vector_61" fill-rule="evenodd" clip-rule="evenodd" d="M15.1872 5.11266C15.1872 5.11266 15.0279 5.44456 15.0046 5.70287C15.0008 5.76508 14.9852 5.81359 14.9852 5.8854C14.9813 6.11644 14.9987 6.37474 14.9468 6.49506C14.9273 6.44655 14.9176 6.41352 14.8981 6.3942C14.8691 6.47573 14.8166 6.73007 14.7739 6.82517C14.7545 6.76309 14.7118 6.54754 14.7157 6.2932C14.7197 6.03887 14.7253 5.99023 14.7253 5.93788C14.7157 6.01544 14.6633 6.1204 14.6438 6.18248C14.6147 6.13013 14.5817 6.06216 14.5428 6.00584C14.5195 6.04424 14.4905 6.10095 14.4652 6.13013C14.4613 6.10684 14.4517 6.04463 14.4458 5.95733C14.4419 5.85634 14.4361 5.72629 14.4419 5.69903C14.4515 5.64668 14.5332 5.44085 14.706 5.25244C14.9118 5.02716 15.1235 4.59426 15.1856 4.46024C15.2477 4.32623 15.5118 3.76904 15.5118 3.76904H15.7138L15.4205 4.43695C15.4205 4.43695 15.2439 4.802 15.1526 4.93615C15.0613 5.07029 14.8691 5.45468 14.7836 5.60418C14.8457 5.52264 14.8981 5.47989 14.9603 5.4022C15.0205 5.3478 15.1874 5.11292 15.1874 5.11292L15.1872 5.11266Z" fill="#8C6228"/>
<path id="Vector_62" fill-rule="evenodd" clip-rule="evenodd" d="M16.3166 2.7688C16.2836 2.87034 16.2314 2.96463 16.163 3.04656C16.0425 3.1903 15.7842 3.38243 15.6581 3.53577C15.5429 3.68528 15.3125 4.09309 15.4172 4.57654C15.4556 4.47171 15.5279 4.26397 15.7202 4.02896C15.9125 3.79395 16.1183 3.52413 16.2194 3.31446C16.3203 3.10275 16.3338 2.93584 16.3338 2.93584L16.3722 2.88733L16.3489 2.77661L16.3159 2.7688H16.3166Z" fill="#CBA94C"/>
<path id="Vector_63" fill-rule="evenodd" clip-rule="evenodd" d="M20.248 15.6486C20.248 15.6486 20.1703 15.437 20.147 15.2448C20.1237 15.0525 20.1854 15.0144 20.1139 14.7943C20.0712 14.6603 19.9936 14.6791 19.9742 14.6603C19.9547 14.6415 19.9411 14.439 19.945 14.3283C19.9488 14.2176 19.9411 14.0739 19.9217 14.0117C19.8926 13.9884 19.8732 13.969 19.8304 13.8254C19.7819 13.6816 19.7586 13.6098 19.7353 13.5672C19.712 13.5246 19.6439 13.4857 19.6439 13.4429C19.6439 13.3574 19.7216 13.3129 19.7216 13.2893C19.7178 13.2408 19.6595 13.2797 19.6439 13.266C19.6246 13.2427 19.6926 13.1029 19.6674 13.0835C19.6576 13.0739 19.5897 13.1554 19.5721 13.1321C19.5527 13.1087 19.5294 12.8777 19.4944 12.7243C19.4615 12.5748 19.4265 12.4661 19.4226 12.4215C19.4188 12.3787 19.1546 11.6253 19.0906 11.4428C19.039 11.2885 18.9956 11.1317 18.9605 10.9729C18.9411 10.8816 18.9275 10.6951 18.9178 10.7146C18.9081 10.734 18.9139 10.8291 18.8983 10.8253C18.8848 10.8213 18.8363 10.4894 18.8208 10.437C18.8072 10.3845 18.7255 10.2066 18.7056 10.0778C18.6861 9.94761 18.6435 9.60777 18.6143 9.37673C18.5851 9.14569 18.5715 9.05059 18.5715 8.99273C18.5763 8.85122 18.5685 8.70956 18.5483 8.56943C18.5099 8.3247 18.4331 8.02761 18.3657 7.85494C18.2357 7.52867 17.8899 6.69372 17.8281 6.48598C17.8281 6.4335 17.8961 6.46268 17.8961 6.46268C17.8961 6.46268 18.0649 6.88598 18.1892 7.21212C18.3097 7.53839 18.4242 7.82575 18.4534 7.85494C18.4767 7.88399 18.6592 8.20438 18.7408 8.72867C18.8223 9.25295 18.8514 9.73641 18.9 10.0587C18.9233 10.2123 18.9427 10.3753 18.9913 10.5383C19.0436 10.7151 19.1251 10.8976 19.232 11.1772C19.3233 11.4122 19.3913 11.6083 19.4281 11.7772C19.4709 11.9928 19.4709 12.1559 19.4961 12.2627C19.5195 12.354 19.5543 12.5364 19.636 12.8003C19.7177 13.0643 19.8379 13.4042 19.9194 13.6158C20.0787 14.0391 20.1498 14.3925 20.1739 14.581C20.1951 14.7751 20.267 15.447 20.2476 15.6489L20.248 15.6486Z" fill="#A88F33"/>
<path id="Vector_64" fill-rule="evenodd" clip-rule="evenodd" d="M16.3248 2.74576L16.3151 2.76906C16.3151 2.76906 16.3442 2.77879 16.3384 2.8177C16.3388 2.87094 16.3356 2.92414 16.3287 2.97693C16.3191 3.0449 16.2996 3.09725 16.2958 3.14C16.2958 3.23127 16.3093 3.3361 16.1806 3.59632C16.1422 3.66813 16.1185 3.73021 16.099 3.77296C16.0505 3.87779 16.0408 3.89341 15.998 3.94192C16.066 3.90352 16.3107 3.74992 16.4349 3.77296C16.3495 3.82147 16.2194 3.91671 16.1378 4.04099C16.1573 4.04483 16.2388 4.06045 16.3682 4.04099C16.5838 4.00797 16.8245 3.93027 17.0361 3.94576C17.2673 3.95933 17.176 3.66813 17.176 3.66813L16.9093 3.08176L16.4044 2.72656L16.3248 2.74589V2.74576Z" fill="#BE9C44"/>
<path id="Vector_65" fill-rule="evenodd" clip-rule="evenodd" d="M17.6427 7.13823C17.6427 7.13823 17.4174 6.91295 17.3261 6.13983C17.2349 5.36313 17.2543 4.21983 17.2543 4.21983L17.0718 3.77324C17.0718 3.77324 17.0334 3.47615 16.9378 3.36556C16.8422 3.25497 16.6544 3.06847 16.5689 2.97721C16.4834 2.88594 16.3864 2.76166 16.3281 2.7422C16.3572 2.69369 16.4874 2.4199 16.9863 2.41606C17.4852 2.41222 17.6391 2.68985 17.6912 2.79084C17.7433 2.89183 17.9786 3.32844 18.0659 4.16044C18.1474 4.99142 18.1514 5.05362 18.1378 5.34098C18.1281 5.50022 18.0756 5.86911 17.9842 6.26322C17.9007 6.5973 17.8095 6.97017 17.6424 7.139L17.6427 7.13823Z" fill="#A17C34"/>
<path id="Vector_66" fill-rule="evenodd" clip-rule="evenodd" d="M16.9344 7.80016C17.0095 7.80558 17.0845 7.78865 17.15 7.75152C17.2218 7.74768 17.482 7.7807 17.6819 7.52637C17.6955 7.58448 17.7306 7.74192 17.6392 7.8817C17.6878 7.83306 17.7596 7.81373 17.7694 7.80016C17.7732 7.87197 17.8412 8.09328 17.5538 8.63114C17.6314 8.54576 17.7226 8.5496 17.8042 8.53987C17.8081 8.64086 17.8624 8.98058 17.7188 9.16323C17.6237 9.28752 17.4683 9.24861 17.4683 9.24861C17.4706 9.22148 17.4706 9.1942 17.4683 9.16707C17.4645 9.11459 17.445 9.06224 17.4587 9.0273C17.3836 8.993 17.3152 8.94563 17.2567 8.88739C17.0878 8.72816 16.8684 8.45642 16.8529 8.25443C16.8334 8.02915 17.0354 7.98064 17.0354 7.98064C17.0185 7.9655 17.0041 7.94779 16.9927 7.92816C16.9829 7.89526 16.9732 7.84278 16.9344 7.80016Z" fill="#8C6228"/>
<path id="Vector_67" fill-rule="evenodd" clip-rule="evenodd" d="M15.4371 5.35757C15.4371 5.35757 15.4274 5.344 15.375 5.40608C15.3847 5.344 15.3945 5.28563 15.3983 5.22931C15.4231 5.17717 15.4551 5.12881 15.4935 5.0857C15.4643 5.14381 15.4449 5.19629 15.4449 5.19629C15.4449 5.19629 15.5168 5.06227 15.6217 4.98074C15.6935 4.9225 15.7847 4.89536 15.8235 4.84096C15.8663 4.78272 15.8565 4.77299 15.8663 4.76326C15.8663 4.76326 15.9615 4.70118 16.1072 4.51853C16.1265 4.49523 16.1557 4.47002 16.1751 4.44672C16.208 4.43315 16.2857 4.39821 16.377 4.35149C16.4722 4.29914 16.579 4.22733 16.645 4.19789C16.7751 4.13965 16.913 4.14554 16.977 4.05414C17.0256 4.04058 17.0779 3.89491 17.0683 3.77075C17.1401 3.79981 17.509 4.02893 17.6354 4.52992C17.7266 4.88525 17.5634 5.43283 17.4954 5.69702C17.4275 5.96122 17.4179 6.15718 17.3226 6.2775C17.2022 6.43686 16.814 6.6615 16.7187 6.77274C16.6372 6.864 16.3926 7.09504 16.4022 7.26195C16.4119 7.38624 16.5653 7.45395 16.5984 7.4775C16.6316 7.50106 16.6313 7.52998 16.6935 7.5159C16.7557 7.50182 16.7789 7.47315 16.8042 7.47315C16.8333 7.47699 16.8333 7.48288 16.8469 7.48288C16.8567 7.48259 16.8665 7.48126 16.8761 7.47891C16.8761 7.47891 16.8663 7.65568 16.4528 7.70931C16.4236 7.71328 16.3945 7.72288 16.3575 7.72877C16.4062 7.70547 16.4352 7.70547 16.4877 7.63366C16.4295 7.62394 16.2624 7.61421 16.2197 7.60064C16.2332 7.57734 16.2779 7.51514 16.3148 7.48608C16.3478 7.45702 16.3109 7.44768 16.2819 7.46278C16.2319 7.49682 16.1839 7.53375 16.1381 7.57338C16.0896 7.61613 16.0469 7.67437 15.9692 7.72698C15.9459 7.64928 15.9497 7.5017 16.0411 7.39494C16.0177 7.39878 15.973 7.46675 15.9304 7.45318C15.9227 7.38236 15.9273 7.31073 15.944 7.24147C15.9673 7.15405 16.0935 7.0007 16.0935 7.0007L16.7031 5.9113L16.8332 5.08608L15.4371 5.35731V5.35757Z" fill="#92723A"/>
<path id="Vector_68" fill-rule="evenodd" clip-rule="evenodd" d="M15.4014 5.40372C15.4014 5.40372 15.3684 5.42702 15.4344 5.47169C15.4247 5.48526 15.4014 5.53377 15.3722 5.5668C15.3393 5.6052 15.3042 5.629 15.2907 5.66203C15.2616 5.73 15.2383 5.77659 15.2383 5.80577C15.2383 5.83496 15.2286 6.02132 15.147 6.14164C15.1179 6.1844 15.0848 6.2562 15.0615 6.30472C15.013 6.39009 14.9703 6.45832 14.9605 6.49672C14.9412 6.56468 14.9277 6.75105 14.9277 6.75105C14.9277 6.75105 14.9704 6.69857 14.9859 6.67924C14.9625 6.72776 14.9373 6.78011 14.9004 6.81902C14.9237 6.79956 14.9917 6.75105 15.1062 6.65006C15.2654 6.51617 15.514 6.29089 15.817 6.11246C15.7256 6.14548 15.648 6.14548 15.586 6.15521C15.6345 6.1067 16.0713 5.59406 16.3005 5.54555C16.3144 5.52791 16.3213 5.50576 16.3199 5.48334L16.1237 5.46401L15.7256 5.54939L15.6675 5.24219L15.4014 5.40334V5.40372Z" fill="#B18E3E"/>
<path id="Vector_69" fill-rule="evenodd" clip-rule="evenodd" d="M16.0393 7.15155C16.0393 7.15155 15.9868 7.2039 15.9383 7.33407C15.9009 7.29507 15.8689 7.2513 15.843 7.2039C15.7712 7.08358 15.6606 6.9301 15.4023 7.01753C15.3985 6.93599 15.3926 6.89324 15.4023 6.835C15.4451 6.8254 15.5751 6.72057 15.7052 6.5671C15.7966 6.46226 15.882 6.34182 15.9402 6.18847C15.9786 6.15929 16.045 6.11078 16.1322 6.05446C16.2565 5.96908 16.406 5.85247 16.4293 5.72242C16.371 5.74572 16.2468 5.80396 16.0603 5.79436C16.1322 5.76134 16.2428 5.72639 16.2292 5.58265C16.2584 5.56319 16.2817 5.54962 16.2817 5.54962C16.2598 5.54232 16.2368 5.53903 16.2137 5.5399C16.2098 5.52633 16.204 5.507 16.171 5.5166C16.138 5.5262 16.1326 5.52633 16.1282 5.5399C16.1147 5.54386 16.07 5.5399 16.037 5.56332C16.0039 5.58675 15.9127 5.66419 15.8777 5.67775C15.8913 5.65446 15.9106 5.61964 15.9106 5.61964C15.9106 5.61964 15.8155 5.62924 15.7476 5.65804C15.6233 5.70079 15.4796 5.77849 15.334 5.85414C15.3476 5.83084 15.3534 5.81574 15.363 5.81139C15.3726 5.80703 15.3961 5.80179 15.3961 5.79782C15.3961 5.79385 15.3865 5.75942 15.3922 5.74546C15.4358 5.65321 15.4872 5.56486 15.5458 5.4814C15.6138 5.39001 15.6274 5.25996 15.6274 5.25996L15.9244 5.11046L16.7594 4.91846L17.3012 4.95148L17.2332 5.32626L16.9132 5.9806L16.6395 6.5767L16.3268 6.94188L16.0394 7.15155H16.0393Z" fill="#543E26"/>
<path id="Vector_70" fill-rule="evenodd" clip-rule="evenodd" d="M17.3915 5.52965C17.3915 5.52965 17.0653 5.93349 16.974 5.9957C17.0322 5.87141 17.3915 5.13157 17.5216 4.92575C17.4925 4.90245 17.4536 4.90245 17.5449 4.54175C17.4673 4.72415 17.4401 4.81938 17.3761 4.86789C17.3121 4.9164 17.3041 4.90092 17.2609 4.90092C17.269 4.88614 17.2724 4.86918 17.2705 4.8524C17.2705 4.8524 16.9967 4.81938 16.8097 4.81938C16.6226 4.81938 16.2525 4.92037 16.0465 5.00191C15.8834 5.06988 15.7922 5.06988 15.7339 5.1125C15.6757 5.16101 15.6427 5.21349 15.6135 5.22706C15.5902 5.24063 15.4796 5.27557 15.4543 5.31244C15.431 5.35084 15.3922 5.39397 15.3922 5.4037C15.3922 5.41343 15.3825 5.42712 15.4116 5.41727C15.4212 5.41343 15.4932 5.37452 15.5747 5.326C15.6853 5.26392 15.8193 5.19212 15.9165 5.14936C16.1941 5.03864 16.2815 5.0581 16.4057 5.0348C16.5357 5.01151 16.7222 4.95711 16.8464 4.95711C16.9707 4.95327 17.2057 4.95711 17.2601 4.96684C17.2368 4.98629 17.2173 5.00959 17.2271 5.09112C17.2271 5.11442 17.2076 5.13964 17.1887 5.19596C17.1305 5.35519 17.0198 5.61925 16.9583 5.75327C16.8729 5.93567 16.7759 6.08914 16.7279 6.18424C16.6799 6.27935 16.5743 6.52984 16.4697 6.66386C16.3651 6.79788 16.3105 6.87941 16.2777 6.9086C16.2449 6.93778 16.0097 7.11045 16.0272 7.17266C16.0699 7.15909 16.3399 7.05746 16.5359 6.83679C16.7318 6.61612 16.7709 6.48146 16.9242 6.36101C17.0776 6.24056 17.198 6.03871 17.2698 5.8718C17.33 5.7164 17.3164 5.66789 17.3921 5.53004L17.3915 5.52965Z" fill="#806031"/>
<path id="Vector_71" fill-rule="evenodd" clip-rule="evenodd" d="M10.3569 8.54386C10.3569 8.54386 10.3141 8.7205 10.217 8.80793C10.1219 8.89343 9.95293 8.96716 9.9336 9.1109C9.9103 9.25452 10.1026 9.32645 10.1026 9.32645C10.1026 9.32645 9.9976 9.49925 9.9976 9.6293C9.9976 9.76332 9.99376 9.78853 10.0073 9.91666C9.99193 9.92657 9.97883 9.93966 9.96893 9.95506C9.96893 9.95506 9.97853 10.0793 10.0738 10.1569C10.169 10.2345 10.2504 10.2812 10.2989 10.2617C10.3063 10.2776 10.3128 10.2938 10.3184 10.3104C10.3184 10.3104 10.3903 10.1279 10.4388 9.96863C10.4873 9.80556 10.5301 9.82872 10.5494 9.60933C10.5687 9.38994 10.7798 9.01324 10.7798 9.01324L10.9238 8.69132L10.6889 8.50879L10.3569 8.54373V8.54386Z" fill="#B6903C"/>
<path id="Vector_72" fill-rule="evenodd" clip-rule="evenodd" d="M10.7981 8.86035C10.7497 8.91007 10.705 8.96329 10.6644 9.01958C10.6023 9.10509 10.5538 9.18266 10.4625 9.21581C10.3712 9.24896 10.313 9.2487 10.3188 9.3401C10.3245 9.43149 10.41 9.47014 10.4585 9.51674C10.511 9.56525 10.5538 9.64678 10.5305 9.73818C10.5595 9.72461 10.612 9.70899 10.6605 9.60416C10.709 9.49933 11.0484 8.86048 11.0484 8.86048H10.7981V8.86035Z" fill="#685026"/>
<path id="Vector_73" fill-rule="evenodd" clip-rule="evenodd" d="M12.1343 7.38651C12.1343 7.38651 12.1633 7.30894 12.1343 7.25262C12.1051 7.19438 11.9284 7.17492 11.841 7.10888C11.7497 7.04091 11.639 6.99368 11.5478 7.0235C11.5613 6.99048 11.6157 6.91854 11.5711 6.90305C11.5283 6.88948 11.3692 6.96129 11.3264 6.99432C11.2837 7.02734 11.1865 7.06612 11.1672 7.08955C11.1479 7.11297 11.1147 7.15752 11.0953 7.13806C11.0758 7.12449 11.0662 7.08955 11.0332 7.10888C11.0002 7.12821 10.8412 7.25838 10.8119 7.33416C10.7826 7.40993 10.7167 7.57889 10.5186 7.77102C10.3206 7.96315 10.2351 8.08757 10.2934 8.15937C10.3516 8.23118 10.3789 8.17883 10.3886 8.24091C10.3961 8.30185 10.3928 8.36364 10.3789 8.42344C10.3556 8.52443 10.3168 8.61953 10.3691 8.63899C10.5031 8.68174 10.6333 8.60059 10.6624 8.62542C10.7206 8.67777 10.6294 8.86619 10.7672 8.90305C10.9071 8.94145 11.045 8.87003 11.045 8.87003L11.5536 8.59624L12.043 8.33806L12.2934 7.84283L12.1591 7.42926L12.1335 7.38651H12.1343Z" fill="#D4B968"/>
<path id="Vector_74" fill-rule="evenodd" clip-rule="evenodd" d="M11.652 8.56879C11.652 8.56879 11.5665 8.43874 11.6714 8.32405C11.7764 8.20936 11.9258 8.16098 11.984 8.08917C11.9729 8.07549 11.958 8.06539 11.9413 8.06011C11.9799 7.99093 12.0389 7.9353 12.1102 7.90075C12.0812 7.8717 12.0422 7.8484 11.9996 7.8484C11.9044 7.8484 11.846 7.90664 11.7587 7.90664C11.6733 7.90664 11.6636 7.86389 11.6636 7.86389C11.6636 7.86389 11.8074 7.85032 11.7937 7.78619C11.7801 7.71822 11.7553 7.71823 11.7553 7.71823C11.7553 7.71823 12.0329 7.60303 12.0814 7.54159C12.1299 7.48015 12.1242 7.40757 12.1339 7.37851C12.1668 7.37851 12.359 7.27752 12.4367 7.32027C12.5144 7.36302 12.46 7.4795 12.46 7.4795C12.46 7.4795 12.6952 7.30274 12.815 7.12942C12.9198 7.13915 12.9686 7.05762 13.0454 7.05762C13.1406 7.05762 13.2901 7.18766 13.3192 7.4653C13.3386 7.62453 13.3677 7.71579 13.3386 7.99739C13.3251 8.15662 13.3289 8.49659 13.377 8.6653C13.4099 8.79931 13.4876 8.78575 13.4876 8.78575C13.4757 8.82658 13.4521 8.86303 13.4197 8.89058C13.3672 8.93909 13.3614 9.06734 13.3672 9.11586C13.3749 9.15132 13.3847 9.18632 13.3964 9.22069C13.3964 9.22069 13.3343 9.2925 13.3187 9.34114C13.3051 9.38965 13.2411 9.42267 13.1944 9.42267C13.1477 9.42267 13.1711 9.4187 13.109 9.42267C13.0469 9.42664 13.0275 9.43624 12.9885 9.42267C12.9496 9.4091 12.9206 9.39349 12.9362 9.26907C12.9498 9.14478 12.4566 8.8555 12.4566 8.8555L11.6502 8.56815L11.652 8.56879Z" fill="#CCA849"/>
<path id="Vector_75" fill-rule="evenodd" clip-rule="evenodd" d="M10.7292 9.79624C10.7292 9.79624 10.9058 10.0313 11.6321 10.0313C11.9777 10.0313 12.0981 9.99823 12.1697 9.97877C12.2474 9.95932 12.5386 9.84488 12.8318 9.49916C13.0959 9.18658 13.0376 9.05845 13.0376 9.05845L12.884 9.03516L12.3848 9.10312L10.9077 9.73224L10.7285 9.79624H10.7292Z" fill="#585136"/>
<path id="Vector_76" fill-rule="evenodd" clip-rule="evenodd" d="M11.2697 9.85445C11.2697 9.85445 10.6406 9.99436 10.6406 9.59628C10.6406 9.20792 11.029 8.80012 11.1261 8.72831C11.2271 8.65637 11.4679 8.57471 11.4679 8.57471H12.0485L12.1591 8.86795L12.1106 9.50091L11.2697 9.85432V9.85445Z" fill="#252211"/>
<path id="Vector_77" fill-rule="evenodd" clip-rule="evenodd" d="M11.8508 8.69335C11.8508 8.69335 11.7305 8.58263 11.4567 8.73175C11.1829 8.88087 10.9614 9.19255 10.9479 9.47556C10.9343 9.72592 11.1537 9.91242 11.4954 9.92215C11.7498 9.93175 11.9033 9.90269 11.9809 9.88375C11.9615 9.86045 11.8605 9.73424 11.8605 9.73424L11.8509 8.69348L11.8508 8.69335Z" fill="#C3B378"/>
<path id="Vector_78" fill-rule="evenodd" clip-rule="evenodd" d="M11.7331 8.75534C11.7331 8.75534 11.7041 8.73204 11.6179 8.77863C11.5461 8.81703 11.4413 8.91854 11.3597 8.99034C11.3073 9.0331 11.2742 9.05242 11.2445 9.08545C11.1241 9.22919 11.0231 9.4642 11.0815 9.58068C11.1398 9.69716 11.332 9.83118 11.8213 9.73991L11.7317 8.75546L11.7331 8.75534Z" fill="#E6D89C"/>
<path id="Vector_79" fill-rule="evenodd" clip-rule="evenodd" d="M11.5716 8.99611C11.5716 8.99611 11.4939 9.11656 11.4939 9.30882C11.4939 9.50491 11.6046 9.81749 12.0125 9.84078C12.325 9.86024 12.5347 9.39035 12.7619 9.20782C12.9347 9.06805 13.0395 9.06408 13.0395 9.06408C13.0395 9.06408 12.8629 8.87208 12.3911 8.62338C11.925 8.37288 11.4027 8.33986 11.1191 8.72437C11.2532 8.71464 11.6862 8.60392 11.6862 8.60392L11.8979 8.67189L11.5716 8.99624V8.99611Z" fill="#252211"/>
<path id="Vector_80" fill-rule="evenodd" clip-rule="evenodd" d="M12.1818 9.25027C12.1683 9.22122 12.1585 9.18231 12.2149 9.17271C12.2712 9.16311 12.2964 9.16874 12.3159 9.21111C12.3353 9.25347 12.3543 9.2888 12.3255 9.30634C12.2964 9.32183 12.2206 9.30634 12.1817 9.25002L12.1818 9.25027ZM12.0906 8.97648C12.0906 8.97648 12.0711 8.99005 12.0808 8.96291C12.0847 8.93002 12.11 8.87165 12.1721 8.88535C12.2342 8.89904 12.2208 8.96688 12.2105 8.98634C12.2003 9.00579 12.1484 9.03869 12.1095 9.02474C12.1046 9.02348 12.1 9.02107 12.0962 9.01771C12.0924 9.01436 12.0894 9.01014 12.0875 9.00542C12.0856 9.00069 12.0848 8.99559 12.0853 8.99051C12.0857 8.98544 12.0874 8.98055 12.0901 8.97623L12.0906 8.97648Z" fill="#6F674D"/>
<path id="Vector_81" fill-rule="evenodd" clip-rule="evenodd" d="M6.83594 9.10083C6.83594 9.10083 6.98954 9.21603 7.16797 9.21155C7.34461 9.20759 7.57181 9.02518 7.67664 8.90858C7.73872 8.84061 7.79184 8.7688 7.84944 8.71248C7.89808 8.66397 7.93098 8.64067 7.95427 8.60765C7.9873 8.56925 8.02224 8.49706 8.03978 8.47363C7.99703 8.50666 7.93495 8.56502 7.87082 8.60381C7.80874 8.64221 7.67472 8.7144 7.62032 8.73386C7.56797 8.75331 7.02423 9.04106 7.02423 9.04106L6.83594 9.10083Z" fill="#AC924C"/>
<path id="Vector_82" fill-rule="evenodd" clip-rule="evenodd" d="M7.07031 7.66589C7.07031 7.66589 7.15569 7.60765 7.32081 7.57065C7.48004 7.53225 7.80042 7.50269 7.80042 7.50269L8.06449 7.61789L8.16932 8.01597L7.97732 8.42966L7.73271 8.58326L7.45495 8.13667L7.07095 7.66665L7.07031 7.66589Z" fill="#9F8E57"/>
<path id="Vector_83" fill-rule="evenodd" clip-rule="evenodd" d="M6.7242 8.0215L6.63281 8.08973C6.63281 8.08973 6.65624 8.04697 6.67556 7.91693C6.69489 7.78688 6.79601 7.47033 6.9436 7.28781C7.09118 7.10528 7.08734 7.11501 7.08734 7.11501C7.07376 7.11252 7.05981 7.11296 7.04641 7.11629C7.03301 7.11963 7.02048 7.12578 7.00964 7.13433C7.0291 7.09133 7.15339 6.93773 7.27768 6.86093C7.40196 6.78413 7.45048 6.75993 7.58052 6.82253C7.71057 6.88512 7.7436 6.91763 7.83883 6.91379C7.93406 6.90995 8.01547 6.80896 8.01547 6.80896C8.01547 6.80896 8.03492 6.87104 7.96312 7.01478C7.89131 7.15853 7.60779 7.45165 7.60779 7.45165L7.01745 7.85549L6.7242 8.02189V8.0215Z" fill="#EAC970"/>
<path id="Vector_84" fill-rule="evenodd" clip-rule="evenodd" d="M7.16262 7.61773C7.16262 7.61773 7.58989 7.67597 7.71993 7.55565C7.72377 7.56922 7.73939 7.56922 7.73939 7.57895C7.73834 7.58628 7.73493 7.59307 7.72966 7.59827C7.74381 7.59602 7.75809 7.59473 7.77241 7.59444C7.78951 7.59953 7.80711 7.60279 7.82489 7.60416C7.83922 7.60385 7.85351 7.60253 7.86765 7.6002C7.8663 7.60985 7.86302 7.61913 7.858 7.62748C7.85299 7.63584 7.84634 7.6431 7.83846 7.64884C7.85792 7.64884 7.87686 7.65268 7.87686 7.66816C7.87686 7.68365 7.8807 7.73037 7.85741 7.7401C7.83811 7.74544 7.81756 7.74404 7.79917 7.73613C7.80071 7.77289 7.81069 7.80881 7.82835 7.84109C7.86675 7.9129 7.94867 7.99469 8.05875 7.97114C8.05875 7.97114 8.11686 8.11091 7.87225 8.42157C7.83936 8.46432 7.80429 8.52256 7.76166 8.57107C7.74482 8.60779 7.73195 8.64619 7.72326 8.68563C7.72326 8.68563 8.13696 8.5264 8.25536 8.16327C8.37581 7.79821 8.3991 7.43904 8.37581 7.10317C8.37184 7.00794 8.35635 6.9401 8.33305 6.89146C8.27481 6.77101 8.11161 6.79047 8.04569 6.85844C7.95046 6.95367 7.79123 7.19047 7.56992 7.35354C7.34464 7.51661 7.33504 7.54554 7.16211 7.61773H7.16262Z" fill="#D7BC6B"/>
<path id="Vector_85" fill-rule="evenodd" clip-rule="evenodd" d="M6.6461 8.14204C6.6461 8.14204 6.56457 8.19056 6.52181 8.37244C6.47906 8.55881 6.56022 8.78601 6.60719 8.85782C6.65417 8.92963 6.76079 9.12585 6.98197 9.13558C7.03672 9.13529 7.09086 9.12406 7.14121 9.10256C7.21842 9.06715 7.29085 9.02212 7.35676 8.96854C7.45199 8.89673 7.52956 8.83465 7.51983 8.82876C7.49653 8.81904 6.93346 8.35299 6.93346 8.35299L6.72175 8.1167L6.64597 8.1423L6.6461 8.14204Z" fill="#585136"/>
<path id="Vector_86" fill-rule="evenodd" clip-rule="evenodd" d="M7.18235 8.91461C7.18235 8.91461 7.29691 8.90501 7.36488 8.86225C7.43285 8.8195 6.9668 8.35742 6.9668 8.35742L6.99982 8.85662L7.18235 8.91461Z" fill="#453A25"/>
<path id="Vector_87" fill-rule="evenodd" clip-rule="evenodd" d="M6.68712 8.10703C6.68712 8.10703 6.62888 8.21775 6.62888 8.24694C6.61915 8.34204 6.64833 8.64105 6.67163 8.73615C6.69492 8.83714 6.82113 8.99049 6.98433 8.99049C7.0852 8.99049 7.2251 8.92841 7.2251 8.91292C7.2251 8.89346 7.08136 8.87452 7.04257 8.8022C7.01928 8.7638 7.00955 8.66831 7.00417 8.5718C7.00033 8.50972 7.00033 8.44175 7.02363 8.4182C7.07611 8.35996 7.08571 8.19292 7.08571 8.19292L7.27208 7.84668H7.02696L6.73371 8.02921L6.68712 8.10703Z" fill="#84754B"/>
<path id="Vector_88" fill-rule="evenodd" clip-rule="evenodd" d="M6.61523 8.21374C6.61523 8.21374 6.80723 7.9594 6.98029 7.90103C7.15335 7.84267 7.23079 7.87774 7.23079 7.87774L7.12979 8.13604L6.98605 8.29527L6.99578 8.37681C6.99578 8.37681 6.97235 8.59236 7.1161 8.74187C7.25984 8.89137 7.36659 8.88561 7.4288 8.88561C7.49101 8.88561 7.66957 8.83313 7.76083 8.61758C7.84237 8.41572 7.91034 8.15678 7.74727 7.89719C7.58791 7.63889 7.30643 7.62891 7.25203 7.62891C7.19763 7.62891 6.7705 7.65028 6.61523 8.21335V8.21374Z" fill="#252211"/>
<path id="Vector_89" fill-rule="evenodd" clip-rule="evenodd" d="M11.5442 9.07783C11.4724 9.0448 11.5404 8.84295 11.6122 8.78074C11.684 8.71853 11.7753 8.64685 11.9346 8.63699C11.9927 8.63315 12.0491 8.67002 12.0395 8.70893C12.0259 8.78074 11.9249 8.88173 11.8336 8.95354C11.7074 9.05261 11.6258 9.11469 11.5442 9.07783Z" fill="#F7F7E7"/>
<path id="Vector_90" fill-rule="evenodd" clip-rule="evenodd" d="M7.6614 7.9768C7.71388 7.97296 7.78185 8.0152 7.79541 8.07204C7.80898 8.13412 7.76239 8.2584 7.6614 8.2584C7.57986 8.2584 7.53711 8.15741 7.53711 8.12836C7.53803 8.10447 7.5447 8.08115 7.55657 8.06039C7.56041 8.0545 7.57013 7.98653 7.6614 7.9768Z" fill="#F8F6DE"/>
<path id="Vector_91" fill-rule="evenodd" clip-rule="evenodd" d="M6.90524 8.02148C6.90524 8.02148 6.77122 8.08356 6.70914 8.21348C6.66479 8.30942 6.65137 8.41678 6.67074 8.52068C6.68047 8.5692 6.72898 8.68952 6.76201 8.73227C6.79503 8.77502 6.83971 8.8042 6.87273 8.80024C6.90575 8.79627 6.97359 8.70897 6.97359 8.65662C6.97359 8.60427 6.97756 8.38283 7.04156 8.26238C7.09788 8.14206 6.90563 8.02161 6.90563 8.02161L6.90524 8.02148Z" fill="#D4C38B"/>
<path id="Vector_92" fill-rule="evenodd" clip-rule="evenodd" d="M6.92312 8.01169C6.89982 8.02526 6.86104 8.04471 6.87064 8.06993C6.88037 8.09323 6.9619 8.10833 6.99109 8.16516C7.02411 8.2234 7.02411 8.28548 7.01438 8.31467C7.03975 8.30262 7.06276 8.28615 7.08235 8.26603C7.1251 8.21751 7.17745 8.15159 7.22213 8.15159C7.25131 8.15159 7.28037 8.16516 7.30763 8.16516C7.35038 8.16516 7.39301 8.15159 7.39889 8.10692C7.40849 8.04868 7.31736 7.9962 7.26488 8.00593C7.27461 7.96753 7.28817 7.91083 7.24542 7.87191C7.20267 7.833 7.06878 7.9011 7.0396 7.92055C7.01041 7.94001 6.92312 8.01182 6.92312 8.01182V8.01169Z" fill="#E2D59D"/>
<path id="Vector_93" fill-rule="evenodd" clip-rule="evenodd" d="M10.0062 12.0912L10.2936 12.0063L10.3751 12.0646C10.3751 12.0646 10.4332 12.1889 10.5246 12.2044C10.4954 12.2664 10.4197 12.3196 10.4236 12.3636C10.4276 12.4076 10.4664 12.4413 10.4664 12.4413C10.4664 12.4413 10.2081 12.8684 10.7169 13.2989C10.5964 13.3474 10.4431 13.4141 10.3615 13.4525C10.4197 13.4661 10.5439 13.4909 10.5964 13.538C10.6489 13.5851 10.6489 13.6001 10.6974 13.6293C10.7459 13.6584 10.775 13.6972 10.7654 13.7146C10.7324 13.6952 10.6216 13.6371 10.6023 13.6913C10.583 13.7456 10.1227 13.7244 10.1227 13.7244L9.34599 13.8739C9.34599 13.8739 9.37505 13.7962 9.29351 13.7244C9.19841 13.639 9.08193 13.7282 8.95764 13.6331C8.79457 13.5088 8.78868 13.3651 8.73633 13.3108C8.78868 13.2778 8.89556 13.2293 9.1499 13.1956C9.14017 13.1761 9.10714 13.1179 9.1266 13.0655C9.1499 12.9976 9.24692 12.9548 9.21786 12.8735C9.26062 12.8638 9.27994 12.8638 9.38682 12.7298C9.48782 12.5958 9.5499 12.5667 9.62759 12.557C9.70529 12.5473 9.75188 12.557 9.89562 12.423C9.99649 12.3279 9.96359 12.2463 9.96359 12.2463C9.96359 12.2463 10.0295 12.225 10.0063 12.091L10.0062 12.0912Z" fill="#CBAC5A"/>
<path id="Vector_94" fill-rule="evenodd" clip-rule="evenodd" d="M9.16061 12.1344C9.16445 12.115 9.18006 12.1052 9.28489 12.115C9.38973 12.1247 10.0538 12.0529 10.2344 12.0432C10.4169 12.0296 11.0596 12.0392 11.3723 12.1052C11.685 12.1713 12.0014 12.249 12.1548 12.2878C12.3084 12.3305 12.3568 12.3459 12.3509 12.3653C12.347 12.3848 12.3125 12.4037 12.2926 12.3984C12.2733 12.3945 11.7645 12.2391 11.6073 12.2064C11.4501 12.1736 10.9063 12.0859 10.6089 12.0912C10.3313 12.0951 10.2206 12.0873 9.98569 12.1145C9.75069 12.1436 9.36233 12.1824 9.24585 12.1669C9.13065 12.1534 9.15446 12.1534 9.16035 12.1339L9.16061 12.1344Z" fill="#D6BC6F"/>
<path id="Vector_95" fill-rule="evenodd" clip-rule="evenodd" d="M10.7226 13.6564C10.7226 13.6564 11.1206 13.872 11.2644 14.136C11.3692 14.3321 11.2023 14.4293 11.2023 14.4293C11.2023 14.4293 11.4276 14.4293 11.3984 14.5536C11.3848 14.6312 11.0101 14.8408 10.7596 14.9515C10.5052 15.0623 10.515 15.0565 10.3907 15.0758C10.2702 15.0953 9.9401 15.0374 9.87214 15.1341C9.80417 15.2307 9.83374 15.3303 9.85268 15.3458C9.87214 15.3593 10.0294 15.3788 10.0294 15.3788C10.0294 15.3788 9.99642 15.4701 9.67028 15.4798C9.34414 15.4895 9.26247 15.5127 9.24302 15.5478C9.22356 15.5807 9.3051 15.5613 9.45473 15.5862C9.60423 15.6095 9.8139 15.6246 9.8139 15.6246C9.8139 15.6246 9.74593 15.6828 9.56929 15.7294C9.3673 15.7817 9.05076 15.8304 8.95566 15.8886C9.00417 15.9216 9.0761 15.9702 9.10926 15.974C9.02772 15.9935 8.91303 16.0362 8.8937 16.0517C8.92276 16.0712 8.96167 16.0944 8.96167 16.0944C8.96167 16.0944 8.79847 16.2905 8.70337 16.3392C8.60826 16.3878 8.06068 16.642 7.87226 16.5935C7.40238 16.4692 7.34414 15.9547 7.22958 15.9159C7.05678 15.8576 6.97524 15.974 6.82177 15.8925C6.88974 15.844 6.92673 15.8149 6.99854 15.7819C6.92084 15.7435 6.51892 15.4886 6.51892 15.4886C6.47689 15.397 6.43024 15.3076 6.37914 15.2207C6.30145 15.0867 6.18714 14.908 6.10138 14.7507C5.91502 14.4051 5.90529 14.2459 5.73633 14.0498C5.76551 14.0114 5.86638 14.0168 5.86638 14.0168L7.28206 14.4828L9.79226 14.5555L10.4451 13.6235L10.7227 13.6566L10.7226 13.6564Z" fill="#DFC677"/>
<path id="Vector_96" fill-rule="evenodd" clip-rule="evenodd" d="M7.00195 15.0776C7.0171 15.0945 7.03476 15.1089 7.05431 15.1204C7.10295 15.1534 7.17475 15.1923 7.22326 15.2504C7.24272 15.2213 7.29123 15.1689 7.37686 15.2504C7.4625 15.3319 7.56887 15.2738 7.63504 15.2932C7.70301 15.3166 7.70685 15.3262 7.70685 15.3262C7.70685 15.3262 7.74525 15.2932 7.83114 15.2582C7.88362 15.2388 7.9457 15.2252 8.01366 15.2059C8.07574 15.1923 8.14371 15.1728 8.19043 15.1728C8.23319 15.2019 8.38653 15.3648 9.00208 15.1243C9.58269 14.899 9.71658 14.8738 9.81373 14.9086C9.82346 14.8853 9.83319 14.8407 9.98269 14.8466C9.98269 14.7845 9.8584 14.5728 9.8584 14.5728L9.17296 14.3379H8.79805L7.67383 14.5437L7.05085 14.8992L7.00234 15.0784L7.00195 15.0776Z" fill="#C4A859"/>
<path id="Vector_97" fill-rule="evenodd" clip-rule="evenodd" d="M6.62695 14.6834C6.62695 14.6834 6.64052 14.7883 6.79591 14.899C6.94951 15.0096 6.99777 15.0756 6.99777 15.0756C6.99777 15.0756 7.02695 15.0372 7.05025 14.9981C7.07354 14.9553 7.093 14.9068 7.13179 14.8932C7.20948 14.8602 7.38612 14.9223 7.42503 14.9126C7.45806 14.903 7.44833 14.835 7.48327 14.835C7.56481 14.831 7.61716 14.8873 7.64634 14.8873C7.67553 14.8873 7.74721 14.8835 7.75694 14.868C7.76666 14.8525 7.7705 14.6913 7.88122 14.6136C8.00167 14.5282 8.14926 14.565 8.18842 14.5845C8.18842 14.6136 8.19226 14.6855 8.26996 14.6893C8.34766 14.6932 8.35534 14.6796 8.42356 14.7029C8.49178 14.7262 8.57306 14.6991 8.60993 14.8135C8.64295 14.8039 8.72065 14.7942 8.70119 14.6834C8.73959 14.6544 8.77313 14.6349 8.85479 14.5204C8.87425 14.4913 8.90714 14.4583 8.93249 14.4155C9.00046 14.4155 9.08199 14.402 9.19066 14.4971C9.15764 14.5204 9.13819 14.5355 9.12858 14.5592C9.15701 14.5873 9.18296 14.6178 9.20615 14.6504C9.23534 14.6888 9.25479 14.7359 9.29166 14.7457C9.37319 14.7689 9.50721 14.7359 9.65671 14.7457C9.80046 14.7554 9.92078 14.8077 9.97326 14.8408C9.99271 14.8312 9.99271 14.8272 10.0412 14.8369C10.0897 14.8466 10.1266 14.8505 10.0742 14.7884C10.1033 14.802 10.1363 14.8312 10.1655 14.802C10.1947 14.7728 10.2179 14.7302 10.2994 14.7204C10.3809 14.7107 10.4101 14.7243 10.4431 14.6389C10.4859 14.5341 10.3383 14.5341 10.3383 14.5341C10.3383 14.5341 10.4063 14.4719 10.4821 14.3903C10.5733 14.3049 10.6782 14.1942 10.7034 14.0583C10.7461 13.8078 10.5015 13.7749 10.5015 13.7749L9.31508 14.14L7.86459 14.068L6.62772 14.6836L6.62695 14.6834Z" fill="#927D49"/>
<path id="Vector_98" fill-rule="evenodd" clip-rule="evenodd" d="M5.56326 11.2565C5.56326 11.2565 5.52486 11.305 5.50118 11.4196C5.4775 11.5342 5.48761 11.5206 5.46815 11.6021C5.4487 11.6837 5.20972 12.4953 5.29932 12.7691C5.38892 13.0429 5.54406 13.1439 5.64108 13.3652C5.66054 13.4137 5.67948 13.4429 5.68959 13.4856C5.72262 13.6293 5.69356 13.74 5.73235 13.8837C5.74591 13.9322 5.78099 13.9886 5.83334 14.0468C5.94854 14.1671 6.13631 14.2817 6.21734 14.3632C6.33177 14.4837 6.49497 14.7284 6.70271 14.7516C6.81343 14.7651 6.97075 14.7185 7.10079 14.641C7.21599 14.569 7.28716 14.4682 7.40799 14.4106C7.49337 14.3678 7.58463 14.3523 7.66617 14.3329C7.83513 14.2999 7.9886 14.2945 8.07987 14.3134C8.21964 14.3426 8.54975 14.4436 8.73267 14.4436C8.87559 14.4413 9.01772 14.4217 9.15596 14.3854C9.43359 14.3038 9.76947 14.1639 9.99091 14.1018C10.121 14.0634 10.2258 14.0533 10.3327 14.03C10.5152 13.9873 10.6685 13.929 10.756 13.8183C10.6977 13.7503 10.6259 13.6455 10.2374 13.6494C9.79673 13.6591 9.28793 13.9037 9.03743 13.9426C8.78694 13.9815 8.67827 14.0144 8.39859 13.9134C8.12441 13.8114 8.11532 13.7439 8.11532 13.7439C8.11532 13.7439 7.82745 13.5426 7.707 13.0293C7.58655 12.516 7.707 12.142 8.01971 11.7866C8.10124 11.6953 8.08179 11.6138 8.08179 11.6138C8.08179 11.6138 8.28761 11.3361 8.23129 11.0762C8.16921 10.8179 7.77113 10.8703 7.77113 10.8703L5.56339 11.2565H5.56326Z" fill="#6E6342"/>
<path id="Vector_99" fill-rule="evenodd" clip-rule="evenodd" d="M5.89661 12.1204C5.87949 12.1525 5.87144 12.1888 5.87331 12.2252C5.87715 12.2775 5.89277 12.3455 6.04995 12.499C6.18397 12.6329 6.15479 12.7824 6.15479 12.7824C6.15479 12.7824 6.22224 12.7959 6.40528 12.7103C6.54903 12.6423 6.59728 12.7628 6.59728 12.7628C6.63912 12.7409 6.68448 12.7264 6.7313 12.72C6.77372 12.7161 6.81478 12.703 6.85162 12.6816C6.85162 12.6816 7.02058 12.8544 7.16816 12.936C7.30218 13.0079 7.37987 13.0564 7.44592 13.0079C7.508 12.9652 7.508 12.8777 7.50403 12.839C7.48863 12.8032 7.46913 12.7693 7.44592 12.738C7.40317 12.6759 7.3352 12.6039 7.33072 12.546C7.32099 12.4121 7.43171 12.2527 7.40829 12.2139C7.38486 12.1751 7.2977 12.1654 7.08215 12.2431C6.85891 12.3168 5.89571 12.1207 5.89571 12.1207L5.89661 12.1204Z" fill="#39331F"/>
<path id="Vector_100" fill-rule="evenodd" clip-rule="evenodd" d="M6.40232 12.9882C6.40232 12.9882 6.29173 12.8834 6.33051 12.3746C6.37746 12.3739 6.42435 12.3784 6.47029 12.3881C6.47029 12.3881 6.53058 12.7824 6.40232 12.9882Z" fill="#292311"/>
<path id="Vector_101" fill-rule="evenodd" clip-rule="evenodd" d="M5.61577 10.8679C5.6312 10.8565 5.64552 10.8436 5.65852 10.8295C5.62012 10.9013 5.44284 11.1887 5.58659 11.6411C5.73033 12.0916 6.09142 12.4275 6.53609 12.4431C6.98076 12.4587 7.21449 12.2411 7.48175 11.9149C7.58659 11.7849 7.70703 11.6217 7.81379 11.5111C7.97302 11.3382 8.09731 11.2897 8.09731 11.1227C8.09731 10.781 7.74774 10.6275 7.23318 10.4742C6.71862 10.3208 6.25449 10.3398 6.01372 10.4447C5.77884 10.5592 5.67785 10.6796 5.61564 10.868L5.61577 10.8679Z" fill="#252211"/>
<path id="Vector_102" fill-rule="evenodd" clip-rule="evenodd" d="M7.26796 13.1417L7.30636 13.1222C7.30636 13.1222 7.31596 12.9686 7.37817 12.9727C7.44025 12.9825 7.46943 13.0641 7.46355 13.0932C7.45971 13.1222 7.44422 13.1709 7.38201 13.165C7.30047 13.1669 7.26758 13.1417 7.26758 13.1417H7.26796Z" fill="#3F3824"/>
<path id="Vector_103" fill-rule="evenodd" clip-rule="evenodd" d="M7.0957 12.4896C7.0957 12.4896 7.1341 12.4761 7.18108 12.5227C7.21948 12.5227 7.3869 12.5032 7.43938 12.5362C7.49186 12.5692 7.50735 12.5983 7.50735 12.5983C7.50735 12.5983 7.31125 12.6411 7.20437 12.5983C7.0957 12.5614 7.0957 12.4896 7.0957 12.4896Z" fill="#2D2815"/>
<path id="Vector_104" fill-rule="evenodd" clip-rule="evenodd" d="M7.95879 12.5186C7.95879 12.5089 7.85395 12.4371 7.74323 12.4137C7.72378 12.4098 7.71981 12.4234 7.70483 12.4234C7.69511 12.4196 7.69127 12.3904 7.69127 12.3904L7.62829 12.4235C7.62829 12.4235 7.61856 12.4371 7.65159 12.4619C7.68064 12.4852 7.72928 12.5047 7.74285 12.5435C7.75642 12.5823 7.75642 12.5958 7.76231 12.6017C7.76615 12.6055 7.83411 12.6017 7.86714 12.5823C7.90016 12.5628 7.96237 12.5311 7.9584 12.5183L7.95879 12.5186Z" fill="#82764F"/>
<path id="Vector_105" fill-rule="evenodd" clip-rule="evenodd" d="M6.97852 12.9128C6.97852 12.9128 6.99784 12.7789 7.12802 12.773C7.26191 12.7633 7.28725 12.8933 7.28725 12.8933L7.20956 12.971C7.20956 12.9691 7.15132 12.8875 6.97916 12.9128H6.97852Z" fill="#2D2816"/>
<path id="Vector_106" fill-rule="evenodd" clip-rule="evenodd" d="M7.82374 12.3358C7.82374 12.3358 7.75181 12.4135 7.5927 12.4368C7.57913 12.4173 7.54995 12.3785 7.5927 12.3164C7.63545 12.2544 7.68397 12.2349 7.73248 12.2542C7.75388 12.2577 7.77385 12.2672 7.79002 12.2817C7.80619 12.2961 7.81789 12.3149 7.82374 12.3358Z" fill="#574F35"/>
<path id="Vector_107" fill-rule="evenodd" clip-rule="evenodd" d="M8.11688 12.4312C8.12085 12.4118 8.10728 12.4079 8.11688 12.3982C8.12648 12.3885 8.17909 12.3692 8.18882 12.3788C8.19266 12.3827 8.18882 12.3982 8.18882 12.4172C8.18882 12.4361 8.18882 12.4556 8.17909 12.4695C8.16552 12.489 8.12674 12.4987 8.10728 12.4929C8.08782 12.4872 8.08398 12.4599 8.08398 12.4545C8.09358 12.4507 8.11688 12.441 8.11688 12.4312ZM8.4484 12.2216C8.4484 12.2118 8.48142 12.1924 8.50088 12.1924C8.52994 12.1924 8.52994 12.2157 8.5339 12.2216C8.5435 12.2254 8.5435 12.2176 8.55323 12.2351C8.56296 12.2527 8.57666 12.2836 8.5668 12.3031C8.55694 12.3226 8.51829 12.336 8.50869 12.3322C8.49512 12.3224 8.45237 12.2351 8.4484 12.2216Z" fill="#82764F"/>
<path id="Vector_108" fill-rule="evenodd" clip-rule="evenodd" d="M7.78125 12.4757C7.78125 12.4757 7.824 12.4853 7.88224 12.534C7.86279 12.5475 7.8336 12.563 7.8336 12.563C7.8336 12.563 7.82976 12.5183 7.78125 12.4756V12.4757Z" fill="#6E6342"/>
<path id="Vector_109" fill-rule="evenodd" clip-rule="evenodd" d="M7.68318 12.0484C7.67345 12.0388 7.71223 12.0155 7.73553 12.0193C7.75882 12.0232 7.76855 12.0388 7.79377 12.0426C7.81898 12.0465 7.82295 12.0329 7.83217 12.0232C7.84138 12.0134 7.87492 12.0193 7.88068 12.0232C7.88427 12.0274 7.88752 12.032 7.89041 12.0367C7.89081 12.0294 7.89274 12.0221 7.89607 12.0155C7.89939 12.0089 7.90405 12.0031 7.90974 11.9983C7.91718 11.9929 7.92577 11.9892 7.93486 11.9875C7.94395 11.9858 7.9533 11.9862 7.96222 11.9886C7.96606 12.0022 7.98551 12.0507 7.98167 12.0604C7.97783 12.0701 7.91959 12.0838 7.90974 12.074C7.91946 12.0974 7.96222 12.1459 7.96798 12.1555C7.97374 12.1651 7.92522 12.1885 7.9059 12.1847C7.87876 12.1828 7.71172 12.0856 7.68266 12.0488L7.68318 12.0484ZM7.93751 11.7261C7.93392 11.7163 7.92704 11.7081 7.91806 11.7028C7.90449 11.6989 7.85982 11.7028 7.85982 11.7261C7.85982 11.7494 7.89822 11.8797 7.94135 11.9475C7.98999 12.0155 8.02289 12.0717 8.05591 12.0873C8.06628 12.092 8.07805 12.0926 8.08886 12.089C8.09967 12.0854 8.1087 12.0779 8.11415 12.0678C8.11799 12.0581 8.12772 11.9863 8.12388 11.8173C8.12004 11.6484 8.11415 11.4853 8.10442 11.4756C8.0947 11.4659 8.05591 11.466 8.04234 11.4853C8.02878 11.5046 7.94135 11.697 7.93738 11.7261H7.93751Z" fill="#585136"/>
<path id="Vector_110" fill-rule="evenodd" clip-rule="evenodd" d="M7.76847 12.7205C7.76847 12.7205 7.70051 12.6778 7.63446 12.707C7.57238 12.7362 7.57622 12.8507 7.57622 12.8507C7.59018 12.8562 7.60527 12.8582 7.62018 12.8565C7.63508 12.8548 7.64934 12.8495 7.66172 12.841C7.70447 12.8119 7.75875 12.7634 7.76847 12.7207V12.7205Z" fill="#574F35"/>
<path id="Vector_111" fill-rule="evenodd" clip-rule="evenodd" d="M7.89582 12.8738C7.89198 12.8354 7.85742 12.8354 7.85742 12.8156C7.8598 12.8061 7.8653 12.7977 7.87303 12.7917C7.88075 12.7857 7.89027 12.7825 7.90005 12.7826C7.9195 12.7826 7.93845 12.8059 7.96225 12.821C7.98555 12.8345 8.02049 12.8594 8.02433 12.8889C8.02817 12.9185 7.98593 12.9995 7.93896 12.9995C7.89198 12.9995 7.90593 12.9121 7.89621 12.8733L7.89582 12.8738ZM8.27061 12.8214C8.27061 12.8214 8.19291 12.8446 8.19867 12.8214C8.20443 12.7981 8.22209 12.7923 8.24731 12.7923C8.26012 12.7789 8.27735 12.7706 8.29582 12.7689C8.30639 12.7684 8.31676 12.7718 8.32488 12.7786C8.32488 12.7786 8.37736 12.7553 8.39285 12.7689C8.40833 12.7824 8.39681 12.7824 8.40641 12.7981C8.41864 12.8154 8.42666 12.8353 8.42984 12.8563C8.42984 12.8718 8.3716 12.9048 8.32488 12.899C8.27061 12.8874 8.28021 12.8311 8.27061 12.8214ZM8.72296 12.7339C8.72296 12.7339 8.74625 12.7475 8.72693 12.7631C8.71336 12.7767 8.64539 12.8015 8.58702 12.8059C8.52878 12.8059 8.47643 12.8155 8.47643 12.7961C8.47643 12.7768 8.52494 12.7379 8.554 12.7282C8.55983 12.7209 8.56723 12.715 8.57565 12.711C8.58407 12.7069 8.5933 12.7048 8.60264 12.7049C8.62593 12.7049 8.71707 12.6951 8.74241 12.6913C8.76571 12.6873 8.78517 12.7009 8.77147 12.7204C8.76571 12.7339 8.72296 12.7339 8.72296 12.7339ZM8.85697 12.1344C8.85697 12.1344 8.82779 12.1965 8.79489 12.1965C8.76187 12.1926 8.76187 12.1829 8.76187 12.1732C8.76187 12.1596 8.79489 12.1246 8.79093 12.1149C8.78133 12.1149 8.7579 12.1149 8.76187 12.0916C8.76187 12.0722 8.79489 12.0489 8.82395 12.0532C8.84591 12.0352 8.87324 12.025 8.90165 12.0242C8.93467 12.0242 8.96373 12.0338 8.96373 12.0532C8.96373 12.0727 8.92533 12.1153 8.91125 12.1252C8.89576 12.1407 8.8763 12.1508 8.85697 12.1348V12.1344ZM8.41422 13.2819C8.41422 13.2819 8.37582 13.2859 8.37582 13.3052C8.37582 13.3149 8.38542 13.3149 8.39912 13.3092C8.40701 13.3087 8.41482 13.3074 8.42241 13.3052C8.42625 13.3092 8.42625 13.3285 8.45544 13.3285C8.4794 13.3253 8.5025 13.3173 8.52341 13.3052C8.5467 13.2956 8.56616 13.2857 8.56616 13.2668C8.55643 13.2338 8.53697 13.2182 8.50792 13.2182C8.49303 13.2172 8.47818 13.2206 8.46517 13.2279C8.46517 13.2279 8.45544 13.2084 8.42241 13.2279C8.38939 13.2473 8.39323 13.2473 8.40296 13.2571C8.42037 13.2726 8.41461 13.2827 8.41461 13.2827L8.41422 13.2819ZM8.19483 13.4839C8.19483 13.4742 8.24334 13.4547 8.25691 13.4606C8.27048 13.4644 8.30926 13.5382 8.30926 13.546C8.30926 13.5557 8.26075 13.579 8.24129 13.579C8.22184 13.579 8.18894 13.546 8.18894 13.5406C8.18894 13.5367 8.21224 13.531 8.21224 13.527C8.218 13.5174 8.19483 13.494 8.19483 13.4843V13.4839ZM8.04123 13.2004C8.05096 13.1965 8.05096 13.1868 8.06453 13.1771C8.06877 13.1742 8.07361 13.1724 8.07867 13.1718C8.08373 13.1711 8.08888 13.1716 8.09371 13.1732C8.09713 13.1671 8.10187 13.1618 8.10758 13.1578C8.1133 13.1537 8.11984 13.151 8.12673 13.1498C8.15003 13.146 8.16949 13.1498 8.16513 13.1595C8.16513 13.1887 8.18459 13.208 8.18459 13.2313C8.18459 13.2546 8.17102 13.2838 8.12251 13.3033C8.074 13.3168 8.00795 13.3168 7.99822 13.313C7.98849 13.3092 7.97877 13.2702 7.98849 13.2508C7.99822 13.2313 8.02536 13.2101 8.04097 13.2004H8.04123Z" fill="#82764F"/>
<path id="Vector_112" fill-rule="evenodd" clip-rule="evenodd" d="M8.10529 13.2139C8.10529 13.2139 8.07227 13.2333 8.07227 13.243C8.06934 13.2524 8.06804 13.2623 8.06843 13.2721C8.06843 13.2779 8.11118 13.2683 8.11694 13.2624C8.11886 13.2585 8.10529 13.224 8.10529 13.2139Z" fill="#6E6342"/>
<path id="Vector_113" fill-rule="evenodd" clip-rule="evenodd" d="M7.81422 13.1225C7.83355 13.1264 7.86658 13.1225 7.89179 13.1322C7.91125 13.1419 7.92482 13.1614 7.90536 13.1847C7.8859 13.208 7.86696 13.2429 7.82382 13.237C7.77531 13.2332 7.72872 13.208 7.72872 13.1885C7.7279 13.1762 7.72954 13.1639 7.73354 13.1522C7.73754 13.1405 7.74382 13.1298 7.75202 13.1205C7.77147 13.105 7.78107 13.1148 7.81409 13.1225H7.81422Z" fill="#585136"/>
<path id="Vector_114" fill-rule="evenodd" clip-rule="evenodd" d="M7.7899 13.1418C7.7899 13.1418 7.72782 13.1904 7.71221 13.2138C7.69275 13.2371 7.59765 13.3574 7.56859 13.3826C7.57824 13.3656 7.58924 13.3494 7.60149 13.3341C7.56309 13.3587 7.5343 13.3957 7.51995 13.4389C7.49665 13.5109 7.65013 13.5497 7.75099 13.5788C7.85185 13.608 7.89089 13.6172 7.89089 13.6172C7.85376 13.5614 7.82188 13.5023 7.79566 13.4406C7.75726 13.3493 7.73742 13.3396 7.76264 13.2969C7.78209 13.2541 7.81128 13.225 7.81128 13.192C7.79963 13.1613 7.7899 13.1418 7.7899 13.1418Z" fill="#574F35"/>
<path id="Vector_115" fill-rule="evenodd" clip-rule="evenodd" d="M5.57643 13.2951C5.59056 13.2977 5.60505 13.2977 5.61918 13.2951C5.64824 13.2912 5.95121 13.1799 6.26776 13.1999C6.50472 13.2142 6.7396 13.2528 6.96868 13.3151C7.36676 13.4199 7.86187 13.6277 8.18225 13.7462C8.26763 13.7791 8.35121 13.8375 8.41265 13.8606C8.65739 13.9559 8.66699 13.9559 8.81073 13.9811C8.97969 14.0044 9.15249 13.9481 9.3331 13.9093C9.55441 13.8606 9.93304 13.8373 10.2651 13.7888C10.3724 13.774 10.4783 13.7499 10.5816 13.717C10.5816 13.717 10.3175 13.9811 9.68446 14.0762C9.42856 14.1151 9.16852 14.1183 8.91172 14.0859C8.70974 14.0665 8.57585 14.0373 8.47486 14.0082C8.3603 13.9752 8.12529 13.8878 7.83601 13.8162C7.63403 13.7637 7.40875 13.725 7.15057 13.6765C6.51364 13.5598 5.82244 13.426 5.57617 13.2959L5.57643 13.2951Z" fill="#252211"/>
<path id="Vector_116" fill-rule="evenodd" clip-rule="evenodd" d="M4.8638 12.0952C4.7102 12.2253 4.54725 12.3496 4.38815 12.4699L3.90853 12.8384C3.74546 12.9587 3.58623 13.083 3.42303 13.2034C3.25983 13.3239 3.09688 13.4383 2.92383 13.549C3.07743 13.419 3.24037 13.2985 3.40344 13.1801C3.56652 13.0617 3.7356 12.9456 3.89292 12.8256L4.37253 12.4566C4.53752 12.3362 4.69676 12.212 4.8638 12.0955V12.0952ZM4.01528 13.4544C4.01528 13.4544 4.18808 13.3107 4.40364 13.1088C4.67154 12.8585 4.99973 12.538 5.10456 12.4799L4.01516 13.4546L4.01528 13.4544Z" fill="#CFB66C"/>
<path id="Vector_117" fill-rule="evenodd" clip-rule="evenodd" d="M4.01367 13.4543C4.09918 13.3689 4.19044 13.2854 4.2817 13.2038L4.42148 13.0835C4.46423 13.0451 4.51287 13.0019 4.5555 12.9592C4.64087 12.8738 4.72446 12.7824 4.80983 12.6951C4.85215 12.6512 4.89689 12.6097 4.94385 12.5708C4.96732 12.55 4.9934 12.5324 5.02142 12.5183C5.04484 12.5048 5.07006 12.4799 5.10295 12.4756C5.08362 12.5048 5.06033 12.5183 5.04087 12.5436C5.01758 12.563 4.99812 12.5863 4.97879 12.6056C4.93604 12.6484 4.88753 12.6872 4.84478 12.7261C4.75351 12.8038 4.65841 12.8797 4.56714 12.961C4.47588 13.0422 4.3905 13.1299 4.29911 13.2115C4.20017 13.295 4.1089 13.3766 4.01367 13.4547V13.4543ZM5.17489 12.6776C5.17489 12.6776 4.54193 13.2971 4.41175 13.398L5.17489 12.6776Z" fill="#CFB66C"/>
<path id="Vector_118" fill-rule="evenodd" clip-rule="evenodd" d="M5.17525 12.6777C5.11831 12.7436 5.05726 12.8059 4.99246 12.8641L4.80046 13.0466C4.73838 13.1087 4.68001 13.1709 4.61409 13.233C4.54613 13.2912 4.48405 13.3482 4.41211 13.402L4.59848 13.2194C4.66069 13.1574 4.72865 13.105 4.7947 13.0428L4.98107 12.8603C5.04507 12.7963 5.10728 12.7341 5.17525 12.6777ZM5.2043 13.0136C5.14596 13.1764 5.07721 13.3354 4.99848 13.4894C4.83541 13.8157 4.5908 14.2233 4.48392 14.4312L5.2043 13.0136Z" fill="#CFB66C"/>
<path id="Vector_119" fill-rule="evenodd" clip-rule="evenodd" d="M5.20284 13.0137C5.20284 13.0855 5.18338 13.1477 5.16009 13.2098C5.13738 13.2719 5.11149 13.3328 5.08252 13.3923C5.05333 13.4505 5.02031 13.5127 4.98729 13.5691C4.95426 13.6254 4.91548 13.6835 4.88629 13.7419L4.6902 14.0875C4.62223 14.2027 4.55618 14.3185 4.48438 14.4292C4.53289 14.3049 4.59893 14.1885 4.66114 14.0739C4.72911 13.9587 4.79119 13.8435 4.85314 13.7243C4.88339 13.6649 4.9106 13.6041 4.93468 13.5419C4.96373 13.4797 4.99279 13.4215 5.01621 13.3652C5.04527 13.3031 5.06857 13.2447 5.09775 13.1885C5.13065 13.1282 5.15791 13.07 5.20258 13.0137H5.20284Z" fill="#CFB66C"/>
<path id="Vector_120" fill-rule="evenodd" clip-rule="evenodd" d="M5.89485 14.6055C5.89485 14.6055 5.70285 14.8598 5.72205 15.1821C5.7744 15.0133 5.84045 14.755 5.89485 14.6055ZM6.07738 14.8604C6.07738 14.8604 6.00941 15.5516 5.95309 15.8915C6.03271 15.4987 6.0482 15.5317 6.07738 14.8604ZM7.34919 15.9323C7.34919 15.9323 7.06183 16.7771 7.05594 17.0119C7.11815 16.7705 7.23847 16.2773 7.34919 15.9317V15.9323Z" fill="#DEC270"/>
<path id="Vector_121" fill-rule="evenodd" clip-rule="evenodd" d="M8.02148 14.5537C8.02148 14.5537 8.48753 15.3226 8.8371 15.9789C8.74251 15.6486 8.52491 15.0429 8.02148 14.5537Z" fill="#CBAF59"/>
<path id="Vector_122" fill-rule="evenodd" clip-rule="evenodd" d="M9.27539 15.6855C9.53127 16.1379 9.76202 16.6039 9.96659 17.0816C9.92781 16.7515 9.82285 16.1865 9.27539 15.6855Z" fill="#E3C677"/>
<path id="Vector_123" fill-rule="evenodd" clip-rule="evenodd" d="M12.9548 16.8192C13.0323 16.7707 13.1858 16.5065 13.3198 16.4405C13.4537 16.3726 13.5547 16.359 13.6751 16.225C13.7955 16.0851 13.8287 15.9997 14.0925 15.8891C14.4616 15.7298 14.2077 15.5239 14.2077 15.5239C14.2484 15.484 14.2919 15.4471 14.3378 15.4133C14.433 15.3415 14.5436 15.2541 14.534 15.1006C14.5205 14.8425 14.4719 14.4677 14.2602 14.2502C14.4661 14.2075 14.8602 14.1784 15.105 14.1163C15.3884 14.0444 15.5186 13.9434 15.5186 13.9434C15.5186 13.9434 15.3555 13.6658 15.6196 13.3862C15.8837 13.1067 16.0992 12.9396 16.2584 12.6269C16.0759 12.6036 15.7976 12.5066 15.0875 12.7764C15.1258 12.7945 15.1628 12.8152 15.1982 12.8385C15.1982 12.8385 14.7613 12.9589 14.6021 13.093C14.3244 13.3278 14.2894 13.5201 13.9885 13.6638C13.6876 13.8076 13.3846 13.7687 13.1342 13.8852C12.8838 14.0016 12.8469 14.1007 12.7555 14.1435C12.7749 14.1668 12.7516 14.2055 12.7885 14.2386C12.7652 14.2716 12.6293 14.4929 12.4914 14.4929C12.505 14.5454 12.6214 14.5842 12.6214 14.5842C12.6214 14.5842 12.5361 14.6464 12.3186 14.6619C12.4292 14.7771 12.5341 14.9026 12.8234 15.0852C12.8001 15.1337 12.703 15.2056 12.7419 15.2969C12.7846 15.3881 12.8955 15.5124 13.338 15.6134C13.1127 15.623 12.8488 15.6755 12.4932 15.627C12.1379 15.5842 12.0796 15.559 11.8602 15.6134C11.8835 15.6367 11.9456 15.6367 12 15.6988C11.9418 15.7026 11.5767 15.656 11.4524 15.8192C11.3224 15.9881 11.2661 16.2658 11.2758 16.4522C11.2078 16.4852 11.1418 16.5435 11.1748 16.6639C11.2078 16.7844 11.3806 16.8231 11.4913 16.8988C11.6019 16.9803 11.6117 17.0094 11.7166 16.99C11.8272 16.9668 11.9903 16.8562 12.0855 16.8562C12.1807 16.8562 12.2486 16.928 12.2486 16.928C12.2486 16.928 12.5069 16.8037 12.5321 16.827C12.5554 16.8503 12.5359 16.9998 12.5612 17.0231C12.5868 17.0406 12.8777 16.8678 12.9554 16.8192H12.9548Z" fill="#ECD592"/>
</g>
</g>
</g>
</g>
<defs>
<clipPath id="clip0_866_181286">
<rect width="24" height="24" fill="white"/>
</clipPath>
</defs>
</svg>
