<svg width="28" height="28" viewBox="0 0 28 28" fill="none" xmlns="http://www.w3.org/2000/svg">
<g id="Group 1912055266">
<g id="Group 1171275086">
<path id="Vector 112" d="M18.5097 6.82864C18.2778 5.97827 17.9956 5.19321 17.6732 4.49752C17.0045 3.05457 16.087 1.8348 14.9393 1.37283C14.3312 1.12807 13.6752 1.10552 13.0319 1.36384C12.4092 1.61394 11.8643 2.10005 11.3909 2.75505C10.7093 3.69808 10.1033 5.09178 9.59344 6.9834C9.19595 6.36132 8.68914 5.77603 8.05831 5.46031C7.35008 5.10585 6.55875 5.13156 5.82213 5.63223C5.15106 6.08836 4.56842 6.9067 4.04043 8.04064C2.97445 10.33 2.45369 13.0933 2.26538 15.4631C2.17075 16.6538 2.15863 17.7631 2.20801 18.6866C2.25617 19.5874 2.36589 20.3793 2.54826 20.8968C2.92571 21.9679 3.62922 23.4867 5.35074 24.7197C7.06282 25.9459 9.68429 26.8205 13.7659 26.8205C18.2203 26.8205 21.1078 25.6907 22.9216 24.1681C24.7315 22.6489 25.3965 20.8008 25.5142 19.5105C25.752 16.9045 26.1057 12.6426 24.1025 8.78141C23.6175 7.84657 23.1033 7.0338 22.5665 6.44034C22.0527 5.87232 21.3901 5.36351 20.6005 5.34635C19.7418 5.3277 19.0929 5.88381 18.6322 6.62136C18.5907 6.68774 18.5499 6.75683 18.5097 6.82864Z" fill="#FF7300" stroke="white" stroke-width="1.64098" stroke-linejoin="round"/>
<path id="Ellipse 5508" d="M18.1538 17.7204C18.1538 19.9949 16.2695 20.9817 13.945 20.9817C11.6206 20.9817 9.73633 19.9949 9.73633 17.7204C9.73633 14.9107 12.473 10.6292 13.945 10.6292C15.4171 10.6292 18.1538 14.8772 18.1538 17.7204Z" fill="#FFD60C"/>
</g>
</g>
</svg>
