<svg width="28" height="28" viewBox="0 0 28 28" fill="none" xmlns="http://www.w3.org/2000/svg">
<g id="Frame" clip-path="url(#clip0_866_180795)">
<g id="Group">
<path id="Vector" d="M8.83755 27.3465C7.43755 27.191 6.28644 26.1954 5.94422 24.8576L5.16644 21.9643C5.13533 21.9643 5.10422 21.9643 5.042 21.9643C4.51311 21.9021 3.98422 21.7465 3.51756 21.5287C3.20644 21.3732 2.89533 21.2176 2.58422 20.9998C2.30422 20.7821 2.02422 20.5643 1.77533 20.3154C1.15311 19.6621 0.686443 18.8221 0.437553 17.951C0.0642204 16.5198 0.250887 15.0265 0.997553 13.751C1.74422 12.4754 2.92644 11.5421 4.35755 11.1687L9.21089 9.86207L9.27311 9.9554C10.8598 9.23985 14.0642 7.40429 15.4642 4.10651C16.1176 1.77318 17.3309 0.995404 18.2642 0.746515C18.6687 0.62207 19.0731 0.590959 19.4776 0.653181C22.7753 1.02651 25.5131 6.00429 26.8198 10.7643C28.3753 16.4576 28.0642 22.7421 24.4864 23.7065C24.082 23.7998 23.6776 23.831 23.2731 23.7998C22.3087 23.6754 21.3131 23.1465 20.3798 22.2132C18.9798 21.1865 17.2687 20.5332 15.2464 20.2843C13.8153 20.1287 12.5709 20.191 11.8242 20.2843L12.5709 23.0221C12.8198 23.8932 12.6953 24.8265 12.2287 25.6043C11.762 26.3821 11.0464 26.9732 10.1442 27.191C9.70866 27.3465 9.27311 27.3776 8.83755 27.3465Z" fill="white"/>
<g id="Group_2">
<path id="Vector_2" d="M9.7693 25.8531C8.71152 26.1331 7.62263 25.5109 7.34263 24.4531L5.91152 19.1954L9.73819 18.1687L11.1693 23.4265C11.4493 24.4843 10.8271 25.5731 9.7693 25.8531Z" fill="#E23D29"/>
<path id="Vector_3" d="M10.3613 19.4756L6.87688 20.4089C4.66799 21 2.428 19.6933 1.83688 17.5156C1.24577 15.3067 2.55244 13.0667 4.73022 12.4756L8.21466 11.5422L10.3613 19.4756Z" fill="#E23D29"/>
<path id="Vector_4" opacity="0.7" d="M1.80563 17.5154C2.39675 19.7243 4.66786 20.9998 6.84563 20.4087L10.3301 19.4754L9.24119 15.4932L1.80563 17.5154Z" fill="#E23D29"/>
<path id="Vector_5" d="M10.8904 15.0577C11.4815 17.2666 11.2637 19.2266 10.3615 19.4755C9.49039 19.7244 8.27705 18.1377 7.68594 15.9288C7.09483 13.7199 7.31261 11.7599 8.21483 11.5111C9.08594 11.2622 10.2682 12.8488 10.8904 15.0577Z" fill="#E23D29"/>
<path id="Vector_6" d="M8.74417 11.6976C7.93528 11.9154 7.7175 13.751 8.2775 15.7732C8.8375 17.7954 9.92639 19.2576 10.7353 19.0398C10.7664 19.0398 16.9264 17.7021 21.4375 21.2487L16.8953 4.44873C14.7797 9.73762 8.77528 11.6976 8.74417 11.6976Z" fill="#DAE5EC"/>
<path id="Vector_7" d="M17.3125 13.311C15.8024 7.72093 16.3935 2.69889 18.6329 2.09394C20.8722 1.48899 23.9118 5.53021 25.4219 11.1203C26.932 16.7103 26.3409 21.7324 24.1016 22.3373C21.8622 22.9423 18.8227 18.901 17.3125 13.311Z" fill="#FF0047"/>
<path id="Vector_8" d="M18.725 12.9295C17.524 8.48402 17.7338 4.56055 19.1935 4.16621C20.6532 3.77188 22.8101 7.05599 24.0111 11.5015C25.212 15.947 25.0022 19.8705 23.5425 20.2648C22.0828 20.6591 19.9259 17.375 18.725 12.9295Z" fill="#DAE5EC"/>
<path id="Vector_9" d="M21.3734 12.2266C21.0001 10.8266 19.569 9.95548 18.169 10.2666C18.2934 11.1066 18.4801 12.0088 18.729 12.9421C18.9779 13.8755 19.2579 14.7466 19.6001 15.5555C20.969 15.0888 21.7468 13.6266 21.3734 12.2266Z" fill="#FF0047"/>
<path id="Vector_10" opacity="0.7" d="M18.7317 12.9421C18.9806 13.8755 19.2606 14.7466 19.6028 15.5555C20.9717 15.0888 21.7806 13.6577 21.3761 12.2266L18.7317 12.9421Z" fill="#FF0047"/>
</g>
</g>
</g>
<defs>
<clipPath id="clip0_866_180795">
<rect width="27.44" height="26.7244" fill="white" transform="matrix(-1 0 0 1 27.6895 0.622314)"/>
</clipPath>
</defs>
</svg>
