<svg width="102" height="48" viewBox="0 0 102 48" fill="none" xmlns="http://www.w3.org/2000/svg">
<g id="Group 1912055264" opacity="0.8">
<g id="Group 1912055262">
<path id="Vector" d="M26.9424 14.3397V39.2142C26.9424 39.8641 26.4106 40.514 25.7016 40.5731L17.4298 41.6366C16.7799 41.6957 16.1891 41.2231 16.1891 40.5731V32.065L10.6352 32.774V41.3412C10.6352 41.9911 10.1034 42.6411 9.39439 42.7002L1.1226 43.7637C0.531758 43.8228 0 43.291 0 42.6411V17.7666C0 17.1167 0.531758 16.4668 1.24077 16.4077L9.51256 15.3442C10.1625 15.2851 10.7533 15.7578 10.7533 16.4077V24.9749L16.3072 24.2659V15.6987C16.3072 15.0488 16.839 14.3988 17.548 14.3397L25.8198 13.2762C26.4106 13.2171 26.9424 13.6898 26.9424 14.3397Z" fill="white"/>
<path id="Vector_2" d="M40.5321 38.7416L32.2603 39.8051C31.6104 39.8642 31.0195 39.3915 31.0195 38.7416V19.9528C31.0195 19.3029 31.5513 18.653 32.2603 18.5939L40.5321 17.5304C41.182 17.4713 41.7729 17.944 41.7729 18.5939V37.3827C41.7138 38.0326 41.182 38.6825 40.5321 38.7416Z" fill="white"/>
<path id="Vector_3" d="M79.7626 39.8642L71.4908 40.9277C70.8408 40.9868 70.25 40.5141 70.25 39.8642V21.0754C70.25 20.4255 70.7818 19.7755 71.4908 19.7165L79.7626 18.6529C80.4125 18.5939 81.0033 19.0665 81.0033 19.7165V38.5052C81.0033 39.1552 80.4716 39.8051 79.7626 39.8642Z" fill="white"/>
<path id="Vector_4" d="M101.981 17.0577V22.4344C101.981 23.0843 101.449 23.7342 100.74 23.7933L98.6133 24.0887V36.3192C98.6133 36.9691 98.0816 37.619 97.3725 37.6781L89.1008 38.7416C88.4508 38.8007 87.86 38.328 87.86 37.6781V25.3886L85.733 25.684C85.083 25.7431 84.4922 25.2704 84.4922 24.6205V19.2438C84.4922 18.5939 85.0239 17.944 85.733 17.8849L87.86 17.5895V12.7446C87.86 12.0947 88.3917 11.4447 89.1008 11.3856L97.3725 10.3221C98.0225 10.263 98.6133 10.7357 98.6133 11.3856V16.2305L100.74 15.9351C101.449 15.9351 101.981 16.4078 101.981 17.0577Z" fill="white"/>
<path id="Vector_5" d="M42.2434 10.2039C39.88 11.4446 37.9893 13.5717 37.044 16.0532C36.8076 16.7031 35.9804 16.7622 35.7441 16.2305C34.7988 13.9853 32.9081 12.3309 30.5447 11.681C29.9539 11.5037 29.9539 10.6766 30.5447 10.3811C32.9081 9.14036 34.7988 7.01333 35.7441 4.53179C35.9804 3.88187 36.8076 3.82278 37.044 4.35454C37.9893 6.59974 39.88 8.2541 42.2434 8.90403C42.8342 9.08128 42.8342 9.90846 42.2434 10.2039Z" fill="white"/>
<path id="Vector_6" d="M81.4777 11.3264C79.1144 12.5672 77.2237 14.6942 76.2783 17.1758C76.042 17.8257 75.2148 17.8848 74.9785 17.353C74.0331 15.1078 72.1424 13.4535 69.7791 12.8035C69.1882 12.6263 69.1882 11.7991 69.7791 11.5037C72.1424 10.2629 74.0331 8.13589 74.9785 5.65435C75.2148 5.00443 76.042 4.94534 76.2783 5.4771C77.2237 7.7223 79.1144 9.37666 81.4777 10.0266C82.0686 10.2038 82.0686 11.031 81.4777 11.3264Z" fill="white"/>
<path id="Vector_7" d="M63.4572 28.8745C62.9845 28.6972 62.4528 28.7563 61.9801 28.9927C59.3804 30.2334 57.3715 32.5377 56.4262 35.2556C56.2489 35.7874 55.5399 35.9055 55.3036 35.3738C54.3582 32.8922 52.3494 31.1197 49.7496 30.5289C49.2179 30.4107 49.2179 29.7017 49.7496 29.4063C52.3494 28.1655 54.3582 25.8612 55.3036 23.1433C55.4808 22.6116 56.1898 22.4934 56.4262 23.0252C57.3715 25.5067 59.3804 27.2792 61.9801 27.8701C62.4528 27.9882 62.9845 27.9292 63.4572 27.6337C65.8206 26.2748 67.4749 23.6751 67.4749 20.8981C67.4749 17.1167 64.4025 14.458 60.6211 14.9306L47.2681 16.6441C46.6182 16.7032 46.0273 17.3531 46.0273 18.003V42.8775C46.0273 43.5274 46.5591 44.0001 47.2681 43.941L60.6211 42.2275C64.4025 41.7549 67.4749 38.328 67.4749 34.5466C67.4749 31.8287 65.8206 29.6426 63.4572 28.8745Z" fill="white"/>
</g>
</g>
</svg>
