<svg width="92" height="60" viewBox="0 0 92 60" fill="none" xmlns="http://www.w3.org/2000/svg">
<g id="logo">
<g id="Group 1912055625">
<path id="Vector" d="M26.3599 28.7316L21.741 29.1305C21.6218 29.1452 21.5008 29.1321 21.3874 29.0923C21.2741 29.0524 21.1715 28.9868 21.0877 28.9007C21.004 28.8146 20.9413 28.7103 20.9045 28.5959C20.8678 28.4815 20.858 28.3601 20.8759 28.2413L22.3515 13.0532C22.3841 12.7846 22.5061 12.5348 22.6979 12.3439C22.8897 12.153 23.1401 12.0321 23.4089 12.0007L28.0278 11.6017C28.1468 11.5862 28.2677 11.5985 28.3811 11.6378C28.4945 11.677 28.5972 11.7421 28.6812 11.8279C28.7651 11.9137 28.8279 12.0178 28.8646 12.132C28.9014 12.2463 28.9111 12.3675 28.8929 12.4861L27.4174 27.679C27.3831 27.947 27.2606 28.1959 27.0691 28.3865C26.8776 28.5771 26.6281 28.6985 26.3599 28.7316Z" fill="white"/>
<path id="Vector_2" d="M31.0712 5.2909C29.0426 6.25674 27.4046 7.88628 26.4282 9.90982C26.1879 10.4193 25.515 10.477 25.3708 10.0011C25.0999 9.092 24.6118 8.26247 23.9486 7.58419C23.2854 6.9059 22.467 6.39925 21.5642 6.10798C21.0836 5.95418 21.1605 5.27648 21.6652 5.04097C23.6939 4.07462 25.3306 2.44294 26.3033 0.417258C26.5436 -0.0922162 27.2165 -0.149894 27.3607 0.325936C27.6317 1.23579 28.1204 2.06586 28.7846 2.74424C29.4487 3.42262 30.2682 3.92884 31.1721 4.21907C31.6431 4.37288 31.5758 5.05058 31.0712 5.2909Z" fill="white"/>
<path id="Vector_3" d="M63.8172 6.15119C58.3908 6.63183 53.5604 11.4382 53.0317 16.903C52.503 22.3678 56.4634 26.4292 61.8898 25.963C67.3162 25.4968 72.1418 20.676 72.6753 15.2112C73.2088 9.74635 69.2387 5.68497 63.8172 6.15119ZM66.1338 15.7639C66.0202 16.679 65.6035 17.5296 64.9502 18.1803C64.2969 18.831 63.4446 19.2443 62.5291 19.3543C62.1226 19.4065 61.7095 19.3636 61.3223 19.2291C60.9352 19.0946 60.5845 18.872 60.298 18.579C60.0115 18.2859 59.7969 17.9304 59.6711 17.5403C59.5453 17.1502 59.5118 16.7363 59.5732 16.3311C59.6858 15.4164 60.1015 14.5658 60.754 13.9151C61.4065 13.2643 62.2582 12.8509 63.1731 12.7407C63.5809 12.6873 63.9955 12.7296 64.3842 12.8643C64.7728 12.999 65.1247 13.2223 65.412 13.5166C65.6993 13.8109 65.9141 14.1681 66.0394 14.5598C66.1647 14.9516 66.197 15.3671 66.1338 15.7735V15.7639Z" fill="white"/>
<path id="Vector_4" d="M45.5389 52.6481L40.9248 53.047C40.8054 53.0615 40.6842 53.0483 40.5708 53.0085C40.4573 52.9686 40.3544 52.9032 40.2703 52.8172C40.1862 52.7312 40.123 52.627 40.0856 52.5127C40.0482 52.3983 40.0377 52.2769 40.0549 52.1578L41.5304 36.9698C41.5639 36.7015 41.6862 36.4521 41.8778 36.2613C42.0694 36.0706 42.3193 35.9494 42.5878 35.9172L47.2067 35.5182C47.3257 35.5027 47.4466 35.515 47.56 35.5543C47.6734 35.5935 47.7762 35.6586 47.8601 35.7444C47.944 35.8302 48.0068 35.9343 48.0435 36.0485C48.0803 36.1628 48.09 36.284 48.0718 36.4026L46.5819 51.5955C46.5483 51.8613 46.4278 52.1087 46.2392 52.299C46.0506 52.4894 45.8044 52.6121 45.5389 52.6481Z" fill="#37F872"/>
<path id="Vector_5" d="M50.25 29.2075C48.2239 30.1795 46.592 31.8165 45.6263 33.8456C45.386 34.3551 44.7083 34.4128 44.5641 33.9369C44.2939 33.0274 43.8061 32.1975 43.1427 31.5191C42.4794 30.8407 41.6607 30.3343 40.7575 30.0438C40.2768 29.89 40.3585 29.2123 40.8632 28.9768C42.8905 28.0102 44.5257 26.3784 45.4965 24.3531C45.7368 23.8436 46.4097 23.7859 46.5587 24.2569C46.829 25.1677 47.3175 25.9987 47.9817 26.678C48.6458 27.3572 49.4657 27.8642 50.3702 28.1549C50.822 28.2895 50.7547 28.9672 50.25 29.2075Z" fill="#37F872"/>
<path id="Vector_6" d="M82.8905 29.8802C77.469 30.3608 72.6385 35.1672 72.1098 40.632C71.5811 46.0968 75.5416 50.1582 80.968 49.692C86.3944 49.2258 91.2199 44.405 91.7534 38.9402C92.2869 33.4753 88.3169 29.414 82.8905 29.8802ZM85.212 39.4929C85.0983 40.408 84.6816 41.2586 84.0283 41.9093C83.375 42.56 82.5227 42.9733 81.6072 43.0832C81.2007 43.1355 80.7876 43.0927 80.4005 42.9581C80.0133 42.8236 79.6627 42.601 79.3762 42.308C79.0896 42.0149 78.875 41.6594 78.7493 41.2693C78.6235 40.8792 78.5899 40.4653 78.6513 40.0601C78.7631 39.1451 79.1786 38.2941 79.8312 37.6432C80.4839 36.9923 81.336 36.5791 82.2512 36.4697C82.659 36.4163 83.0737 36.4586 83.4623 36.5933C83.8509 36.728 84.2028 36.9513 84.4901 37.2456C84.7774 37.5399 84.9923 37.8971 85.1176 38.2888C85.2429 38.6806 85.2752 39.0961 85.212 39.5025V39.4929Z" fill="#37F872"/>
<path id="Vector_7" d="M7.73412 9.04478L7.48418 11.5873L7.73412 9.04478ZM10.8198 10.7366C10.4324 10.7708 10.0472 10.8269 9.66622 10.9048C8.87383 11.0741 8.12359 11.401 7.46012 11.8661L7.48418 11.6018L7.73412 9.0592C7.75141 8.94031 7.74092 8.81905 7.70355 8.70487C7.66617 8.59069 7.60292 8.4867 7.51867 8.40105C7.43442 8.31541 7.33147 8.25042 7.21793 8.21118C7.10438 8.17193 6.98329 8.15949 6.86414 8.17483L2.24523 8.57377C1.97734 8.60621 1.72806 8.72754 1.53725 8.91836C1.34643 9.10918 1.22512 9.35845 1.19267 9.62635L0.043943 21.4404C0.0416414 21.4611 0.0416414 21.4821 0.043943 21.5029C0.0415577 21.5317 0.0415577 21.5606 0.043943 21.5894C0.0151048 21.8441 0.00544985 22.1037 0.000643488 22.3536C-0.0570328 27.3858 3.76884 31.005 8.90684 30.558C14.3332 30.0774 19.1636 25.2711 19.6923 19.8062C20.221 14.3414 16.2461 10.2944 10.8198 10.7366ZM13.1365 20.3493C13.023 21.2637 12.607 22.1138 11.9547 22.7644C11.3023 23.415 10.4511 23.8287 9.5365 23.9397C9.13147 23.992 8.71977 23.95 8.33368 23.8169C7.94759 23.6837 7.59754 23.4631 7.31086 23.1722C7.02418 22.8814 6.80866 22.5281 6.68114 22.1401C6.55362 21.7522 6.51755 21.34 6.57577 20.9357V20.8925C6.69396 19.9819 7.11195 19.1367 7.7638 18.49C8.41566 17.8434 9.26427 17.4322 10.1757 17.3213C10.5838 17.2688 10.9985 17.3118 11.3871 17.4471C11.7756 17.5824 12.1274 17.8062 12.4146 18.1009C12.7017 18.3955 12.9164 18.7529 13.0417 19.1448C13.167 19.5367 13.1995 19.9524 13.1365 20.359V20.3493Z" fill="white"/>
<path id="Vector_8" d="M26.7815 33.0428L26.5316 35.5854L26.7815 33.0428ZM29.8672 34.7347C29.4798 34.7688 29.0947 34.825 28.7137 34.9029C27.9213 35.0721 27.171 35.3991 26.5076 35.8642V35.5998L26.7575 33.0572C26.7748 32.9384 26.7644 32.8171 26.727 32.7029C26.6896 32.5887 26.6263 32.4847 26.5421 32.3991C26.4578 32.3135 26.3549 32.2485 26.2414 32.2092C26.1278 32.17 26.0067 32.1575 25.8875 32.1729L21.2686 32.5718C21.0007 32.6043 20.7514 32.7256 20.5606 32.9164C20.3698 33.1072 20.2485 33.3565 20.216 33.6244L19.0673 45.4384C19.065 45.4592 19.065 45.4802 19.0673 45.5009C19.0649 45.5297 19.0649 45.5586 19.0673 45.5874C19.0385 45.8422 19.0289 46.1017 19.0241 46.3516C18.9664 51.3839 22.7922 55.0031 27.9302 54.5561C33.3566 54.0755 38.187 49.2691 38.7157 43.8043C39.2444 38.3394 35.2936 34.2685 29.8672 34.7347ZM32.1839 44.3474C32.0705 45.2617 31.6545 46.1118 31.0021 46.7624C30.3498 47.413 29.4986 47.8268 28.5839 47.9377C28.1789 47.9901 27.7672 47.948 27.3811 47.8149C26.995 47.6818 26.645 47.4612 26.3583 47.1703C26.0716 46.8794 25.8561 46.5262 25.7286 46.1382C25.6011 45.7502 25.565 45.338 25.6232 44.9338V44.9001C25.7414 43.9896 26.1594 43.1443 26.8112 42.4977C27.4631 41.851 28.3117 41.4399 29.2232 41.329C29.6288 41.2801 30.0403 41.3255 30.4255 41.4617C30.8107 41.5979 31.1593 41.8213 31.444 42.1143C31.7287 42.4074 31.9418 42.7623 32.0668 43.1513C32.1918 43.5403 32.2253 43.9529 32.1646 44.357L32.1839 44.3474Z" fill="#37F872"/>
<path id="Vector_9" d="M58.1169 30.3177L57.8669 32.8603L58.1169 30.3177ZM61.2026 32.0096C60.8152 32.0437 60.43 32.0999 60.049 32.1778C59.2566 32.347 58.5064 32.6739 57.8429 33.1391V32.8747L58.0928 30.3322C58.1101 30.2133 58.0997 30.092 58.0623 29.9778C58.0249 29.8636 57.9617 29.7597 57.8774 29.674C57.7932 29.5884 57.6902 29.5234 57.5767 29.4841C57.4631 29.4449 57.342 29.4324 57.2229 29.4478L52.604 29.8467C52.3361 29.8792 52.0868 30.0005 51.896 30.1913C51.7052 30.3821 51.5838 30.6314 51.5514 30.8993L50.4267 42.6989C50.4244 42.7197 50.4244 42.7406 50.4267 42.7614C50.4243 42.7902 50.4243 42.8191 50.4267 42.8479C50.3979 43.1026 50.3883 43.3622 50.3835 43.6121C50.3258 48.6444 54.1516 52.2636 59.2896 51.8166C64.716 51.3359 69.5464 46.5296 70.0751 41.0648C70.6038 35.5999 66.629 31.5433 61.2026 32.0096ZM63.5192 41.6223C63.4058 42.5366 62.9898 43.3867 62.3375 44.0373C61.6851 44.688 60.8339 45.1017 59.9193 45.2126C59.5142 45.265 59.1026 45.223 58.7165 45.0898C58.3304 44.9567 57.9803 44.736 57.6936 44.4452C57.4069 44.1543 57.1914 43.8011 57.0639 43.4131C56.9364 43.0251 56.9003 42.6129 56.9585 42.2087V42.1654C57.0767 41.2549 57.4948 40.4096 58.1466 39.763C58.7985 39.1163 59.647 38.7052 60.5585 38.5943C60.9665 38.5417 61.3813 38.5848 61.7698 38.7201C62.1584 38.8554 62.5101 39.0792 62.7973 39.3738C63.0845 39.6685 63.2992 40.0259 63.4245 40.4178C63.5498 40.8097 63.5822 41.2253 63.5192 41.6319V41.6223Z" fill="#37F872"/>
<path id="Vector_10" d="M39.2782 27.7462C39.4932 27.5272 39.7454 27.3481 40.0231 27.2175C41.6481 26.44 42.9589 25.131 43.7384 23.507C43.9486 23.0595 44.2805 22.6802 44.6961 22.4124C45.1118 22.1447 45.5944 21.9993 46.0888 21.993C46.5247 21.9914 46.9526 22.1099 47.3256 22.3354C47.6986 22.5609 48.0024 22.8848 48.2036 23.2715C49.7092 21.4819 50.6494 19.2855 50.9047 16.9607C51.4383 11.4911 47.473 7.43935 42.0466 7.90556C41.6592 7.93972 41.2741 7.99589 40.8931 8.07379C40.1007 8.24303 39.3504 8.56994 38.687 9.03506L38.711 8.7707L38.961 6.22815C38.9783 6.10926 38.9678 5.98798 38.9304 5.8738C38.8931 5.75962 38.8298 5.65565 38.7455 5.57C38.6613 5.48436 38.5583 5.41936 38.4448 5.38011C38.3312 5.34087 38.2101 5.32844 38.091 5.34378L33.4721 5.7427C33.2042 5.77515 32.9549 5.89648 32.7641 6.08729C32.5733 6.27811 32.452 6.5274 32.4195 6.79529L31.2708 18.6093C31.2685 18.6301 31.2685 18.651 31.2708 18.6718C31.2684 18.7006 31.2684 18.7295 31.2708 18.7583C31.2419 19.013 31.2323 19.2726 31.2275 19.5225C31.1603 24.2616 34.5632 27.751 39.2782 27.7462ZM37.8026 18.1335V18.0902C37.9208 17.1797 38.3388 16.3344 38.9906 15.6878C39.6425 15.0412 40.4911 14.63 41.4026 14.5191C41.8093 14.4677 42.2225 14.5113 42.6096 14.6465C42.9966 14.7816 43.3471 15.0046 43.6335 15.298C43.9199 15.5914 44.1345 15.9472 44.2603 16.3374C44.3861 16.7276 44.4197 17.1417 44.3585 17.5471C44.2451 18.4614 43.8291 19.3116 43.1767 19.9622C42.5244 20.6128 41.6732 21.0265 40.7585 21.1375C40.352 21.1897 39.9389 21.1468 39.5518 21.0123C39.1646 20.8778 38.814 20.6552 38.5275 20.3622C38.241 20.0691 38.0264 19.7136 37.9006 19.3235C37.7748 18.9334 37.7412 18.5195 37.8026 18.1143V18.1335Z" fill="white"/>
<path id="Vector_11" d="M68.1172 1.63379C68.1172 1.63379 73.3853 -0.893337 76.9286 2.7369C81.194 7.09585 76.6947 14.8644 76.6947 14.8644C76.6947 14.8644 77.898 8.62016 75.1436 5.35763C73.3406 3.29253 70.8383 1.96635 68.1172 1.63379Z" fill="white"/>
<path id="Vector_12" d="M15.6048 50.7612C15.6048 50.7612 13.5555 55.5134 16.9058 58.543C20.9333 62.1665 27.6635 57.8895 27.6635 57.8895C27.6635 57.8895 22.1688 59.1845 19.169 56.8619C17.2677 55.3387 15.998 53.1654 15.6048 50.7612Z" fill="#37F872"/>
</g>
</g>
</svg>
