<svg width="92" height="60" viewBox="0 0 92 60" fill="none" xmlns="http://www.w3.org/2000/svg">
<g id="logo" opacity="0.8">
<g id="Group 1912055625">
<path id="Vector" d="M26.3599 28.7316L21.741 29.1305C21.6218 29.1452 21.5008 29.1321 21.3874 29.0923C21.2741 29.0524 21.1715 28.9868 21.0877 28.9007C21.004 28.8146 20.9413 28.7103 20.9045 28.5959C20.8678 28.4815 20.858 28.3601 20.8759 28.2413L22.3515 13.0532C22.3841 12.7846 22.5061 12.5348 22.6979 12.3439C22.8897 12.153 23.1401 12.0321 23.4089 12.0007L28.0278 11.6017C28.1468 11.5862 28.2677 11.5985 28.3811 11.6378C28.4945 11.677 28.5972 11.7421 28.6812 11.8279C28.7651 11.9137 28.8279 12.0178 28.8646 12.132C28.9014 12.2463 28.9111 12.3675 28.8929 12.4861L27.4174 27.679C27.3831 27.947 27.2606 28.1959 27.0691 28.3865C26.8776 28.5771 26.6281 28.6985 26.3599 28.7316Z" fill="white"/>
<path id="Vector_2" d="M31.0712 5.2909C29.0426 6.25674 27.4046 7.88628 26.4282 9.90982C26.1879 10.4193 25.515 10.477 25.3708 10.0011C25.0999 9.092 24.6118 8.26247 23.9486 7.58419C23.2854 6.9059 22.467 6.39925 21.5642 6.10798C21.0836 5.95418 21.1605 5.27648 21.6652 5.04097C23.6939 4.07462 25.3306 2.44294 26.3033 0.417258C26.5436 -0.0922162 27.2165 -0.149894 27.3607 0.325936C27.6317 1.23579 28.1204 2.06586 28.7846 2.74424C29.4487 3.42262 30.2682 3.92884 31.1721 4.21907C31.6431 4.37288 31.5758 5.05058 31.0712 5.2909Z" fill="white"/>
<path id="Vector_3" d="M63.8172 6.15131C58.3908 6.63195 53.5604 11.4383 53.0317 16.9031C52.503 22.368 56.4634 26.4293 61.8898 25.9631C67.3162 25.4969 72.1418 20.6761 72.6753 15.2113C73.2088 9.74647 69.2387 5.6851 63.8172 6.15131ZM66.1338 15.764C66.0202 16.6791 65.6035 17.5297 64.9502 18.1804C64.2969 18.8311 63.4446 19.2444 62.5291 19.3544C62.1226 19.4066 61.7095 19.3638 61.3223 19.2292C60.9352 19.0947 60.5845 18.8721 60.298 18.5791C60.0115 18.286 59.7969 17.9305 59.6711 17.5404C59.5453 17.1503 59.5118 16.7364 59.5732 16.3312C59.6858 15.4165 60.1015 14.566 60.754 13.9152C61.4065 13.2644 62.2582 12.851 63.1731 12.7408C63.5809 12.6874 63.9955 12.7297 64.3842 12.8644C64.7728 12.9991 65.1247 13.2224 65.412 13.5167C65.6993 13.811 65.9141 14.1682 66.0394 14.56C66.1647 14.9517 66.197 15.3672 66.1338 15.7736V15.764Z" fill="white"/>
<path id="Vector_4" d="M45.5389 52.648L40.9248 53.0469C40.8054 53.0614 40.6842 53.0482 40.5708 53.0084C40.4573 52.9685 40.3544 52.903 40.2703 52.8171C40.1862 52.7311 40.123 52.6269 40.0856 52.5126C40.0482 52.3982 40.0377 52.2768 40.0549 52.1577L41.5304 36.9696C41.5639 36.7013 41.6862 36.452 41.8778 36.2612C42.0694 36.0705 42.3193 35.9493 42.5878 35.917L47.2067 35.5181C47.3257 35.5026 47.4466 35.5149 47.56 35.5542C47.6734 35.5934 47.7762 35.6585 47.8601 35.7443C47.944 35.8301 48.0068 35.9342 48.0435 36.0484C48.0803 36.1626 48.09 36.2839 48.0718 36.4025L46.5819 51.5954C46.5483 51.8612 46.4278 52.1086 46.2392 52.2989C46.0506 52.4892 45.8044 52.6119 45.5389 52.648Z" fill="white"/>
<path id="Vector_5" d="M50.25 29.2074C48.2239 30.1794 46.592 31.8164 45.6263 33.8455C45.386 34.355 44.7083 34.4127 44.5641 33.9368C44.2939 33.0273 43.8061 32.1974 43.1427 31.519C42.4794 30.8406 41.6607 30.3342 40.7575 30.0437C40.2768 29.8899 40.3585 29.2122 40.8632 28.9767C42.8905 28.0101 44.5257 26.3783 45.4965 24.3529C45.7368 23.8435 46.4097 23.7858 46.5587 24.2568C46.829 25.1676 47.3175 25.9986 47.9817 26.6779C48.6458 27.3571 49.4657 27.8641 50.3702 28.1548C50.822 28.2894 50.7547 28.9671 50.25 29.2074Z" fill="white"/>
<path id="Vector_6" d="M82.8905 29.8803C77.469 30.361 72.6385 35.1673 72.1098 40.6321C71.5811 46.097 75.5416 50.1583 80.968 49.6921C86.3944 49.2259 91.2199 44.4051 91.7534 38.9403C92.2869 33.4755 88.3169 29.4141 82.8905 29.8803ZM85.212 39.493C85.0983 40.4081 84.6816 41.2587 84.0283 41.9094C83.375 42.5601 82.5227 42.9734 81.6072 43.0834C81.2007 43.1356 80.7876 43.0928 80.4005 42.9583C80.0133 42.8237 79.6627 42.6012 79.3762 42.3081C79.0896 42.0151 78.875 41.6595 78.7493 41.2694C78.6235 40.8794 78.5899 40.4654 78.6513 40.0602C78.7631 39.1452 79.1786 38.2942 79.8312 37.6433C80.4839 36.9924 81.336 36.5792 82.2512 36.4698C82.659 36.4164 83.0737 36.4588 83.4623 36.5934C83.8509 36.7281 84.2028 36.9514 84.4901 37.2457C84.7774 37.54 84.9923 37.8972 85.1176 38.2889C85.2429 38.6807 85.2752 39.0962 85.212 39.5027V39.493Z" fill="white"/>
<path id="Vector_7" d="M7.73412 9.04466L7.48418 11.5872L7.73412 9.04466ZM10.8198 10.7365C10.4324 10.7707 10.0472 10.8268 9.66622 10.9047C8.87383 11.074 8.12359 11.4009 7.46012 11.866L7.48418 11.6016L7.73412 9.05908C7.75141 8.94019 7.74092 8.81892 7.70355 8.70475C7.66617 8.59057 7.60292 8.48658 7.51867 8.40093C7.43442 8.31529 7.33147 8.2503 7.21793 8.21106C7.10438 8.17181 6.98329 8.15937 6.86414 8.17471L2.24523 8.57365C1.97734 8.60609 1.72806 8.72742 1.53725 8.91824C1.34643 9.10905 1.22512 9.35833 1.19267 9.62622L0.043943 21.4403C0.0416414 21.461 0.0416414 21.482 0.043943 21.5027C0.0415577 21.5315 0.0415577 21.5605 0.043943 21.5893C0.0151048 21.844 0.00544985 22.1035 0.000643488 22.3535C-0.0570328 27.3857 3.76884 31.0049 8.90684 30.5579C14.3332 30.0773 19.1636 25.2709 19.6923 19.8061C20.221 14.3413 16.2461 10.2943 10.8198 10.7365ZM13.1365 20.3492C13.023 21.2635 12.607 22.1137 11.9547 22.7643C11.3023 23.4149 10.4511 23.8286 9.5365 23.9396C9.13147 23.9919 8.71977 23.9499 8.33368 23.8167C7.94759 23.6836 7.59754 23.463 7.31086 23.1721C7.02418 22.8812 6.80866 22.528 6.68114 22.14C6.55362 21.752 6.51755 21.3398 6.57577 20.9356V20.8923C6.69396 19.9818 7.11195 19.1365 7.7638 18.4899C8.41566 17.8433 9.26427 17.4321 10.1757 17.3212C10.5838 17.2687 10.9985 17.3117 11.3871 17.447C11.7756 17.5823 12.1274 17.8061 12.4146 18.1008C12.7017 18.3954 12.9164 18.7528 13.0417 19.1447C13.167 19.5366 13.1995 19.9522 13.1365 20.3588V20.3492Z" fill="white"/>
<path id="Vector_8" d="M26.7815 33.043L26.5316 35.5855L26.7815 33.043ZM29.8672 34.7348C29.4798 34.769 29.0947 34.8251 28.7137 34.903C27.9213 35.0723 27.171 35.3992 26.5076 35.8643V35.5999L26.7575 33.0574C26.7748 32.9385 26.7644 32.8172 26.727 32.703C26.6896 32.5889 26.6263 32.4849 26.5421 32.3992C26.4578 32.3136 26.3549 32.2486 26.2414 32.2093C26.1278 32.1701 26.0067 32.1577 25.8875 32.173L21.2686 32.5719C21.0007 32.6044 20.7514 32.7257 20.5606 32.9165C20.3698 33.1073 20.2485 33.3566 20.216 33.6245L19.0673 45.4386C19.065 45.4593 19.065 45.4803 19.0673 45.501C19.0649 45.5298 19.0649 45.5588 19.0673 45.5875C19.0385 45.8423 19.0289 46.1018 19.0241 46.3518C18.9664 51.384 22.7922 55.0032 27.9302 54.5562C33.3566 54.0756 38.187 49.2692 38.7157 43.8044C39.2444 38.3395 35.2936 34.2686 29.8672 34.7348ZM32.1839 44.3475C32.0705 45.2618 31.6545 46.1119 31.0021 46.7626C30.3498 47.4132 29.4986 47.8269 28.5839 47.9379C28.1789 47.9902 27.7672 47.9482 27.3811 47.815C26.995 47.6819 26.645 47.4613 26.3583 47.1704C26.0716 46.8795 25.8561 46.5263 25.7286 46.1383C25.6011 45.7503 25.565 45.3381 25.6232 44.9339V44.9002C25.7414 43.9897 26.1594 43.1444 26.8112 42.4978C27.4631 41.8512 28.3117 41.44 29.2232 41.3291C29.6288 41.2802 30.0403 41.3256 30.4255 41.4618C30.8107 41.598 31.1593 41.8214 31.444 42.1145C31.7287 42.4075 31.9418 42.7624 32.0668 43.1514C32.1918 43.5404 32.2253 43.9531 32.1646 44.3571L32.1839 44.3475Z" fill="white"/>
<path id="Vector_9" d="M58.1169 30.3176L57.8669 32.8602L58.1169 30.3176ZM61.2026 32.0094C60.8152 32.0436 60.43 32.0998 60.049 32.1777C59.2566 32.3469 58.5064 32.6738 57.8429 33.1389V32.8746L58.0928 30.332C58.1101 30.2131 58.0997 30.0919 58.0623 29.9777C58.0249 29.8635 57.9617 29.7595 57.8774 29.6739C57.7932 29.5882 57.6902 29.5232 57.5767 29.484C57.4631 29.4447 57.342 29.4323 57.2229 29.4477L52.604 29.8466C52.3361 29.879 52.0868 30.0004 51.896 30.1912C51.7052 30.382 51.5838 30.6313 51.5514 30.8992L50.4267 42.6988C50.4244 42.7195 50.4244 42.7405 50.4267 42.7613C50.4243 42.7901 50.4243 42.819 50.4267 42.8478C50.3979 43.1025 50.3883 43.3621 50.3835 43.612C50.3258 48.6443 54.1516 52.2634 59.2896 51.8165C64.716 51.3358 69.5464 46.5295 70.0751 41.0646C70.6038 35.5998 66.629 31.5432 61.2026 32.0094ZM63.5192 41.6222C63.4058 42.5365 62.9898 43.3866 62.3375 44.0372C61.6851 44.6878 60.8339 45.1016 59.9193 45.2125C59.5142 45.2649 59.1026 45.2228 58.7165 45.0897C58.3304 44.9566 57.9803 44.7359 57.6936 44.445C57.4069 44.1542 57.1914 43.801 57.0639 43.413C56.9364 43.025 56.9003 42.6128 56.9585 42.2086V42.1653C57.0767 41.2547 57.4948 40.4095 58.1466 39.7628C58.7985 39.1162 59.647 38.705 60.5585 38.5942C60.9665 38.5416 61.3813 38.5847 61.7698 38.72C62.1584 38.8553 62.5101 39.0791 62.7973 39.3737C63.0845 39.6683 63.2992 40.0257 63.4245 40.4176C63.5498 40.8095 63.5822 41.2252 63.5192 41.6318V41.6222Z" fill="white"/>
<path id="Vector_10" d="M39.2782 27.7462C39.4932 27.5272 39.7454 27.3481 40.0231 27.2175C41.6481 26.44 42.9589 25.131 43.7384 23.507C43.9486 23.0595 44.2805 22.6802 44.6961 22.4124C45.1118 22.1447 45.5944 21.9993 46.0888 21.993C46.5247 21.9914 46.9526 22.1099 47.3256 22.3354C47.6986 22.5609 48.0024 22.8848 48.2036 23.2715C49.7092 21.4819 50.6494 19.2855 50.9047 16.9607C51.4383 11.4911 47.473 7.43935 42.0466 7.90556C41.6592 7.93972 41.2741 7.99589 40.8931 8.07379C40.1007 8.24303 39.3504 8.56994 38.687 9.03506L38.711 8.7707L38.961 6.22815C38.9783 6.10926 38.9678 5.98798 38.9304 5.8738C38.8931 5.75962 38.8298 5.65565 38.7455 5.57C38.6613 5.48436 38.5583 5.41936 38.4448 5.38011C38.3312 5.34087 38.2101 5.32844 38.091 5.34378L33.4721 5.7427C33.2042 5.77515 32.9549 5.89648 32.7641 6.08729C32.5733 6.27811 32.452 6.5274 32.4195 6.79529L31.2708 18.6093C31.2685 18.6301 31.2685 18.651 31.2708 18.6718C31.2684 18.7006 31.2684 18.7295 31.2708 18.7583C31.2419 19.013 31.2323 19.2726 31.2275 19.5225C31.1603 24.2616 34.5632 27.751 39.2782 27.7462ZM37.8026 18.1335V18.0902C37.9208 17.1797 38.3388 16.3344 38.9906 15.6878C39.6425 15.0412 40.4911 14.63 41.4026 14.5191C41.8093 14.4677 42.2225 14.5113 42.6096 14.6465C42.9966 14.7816 43.3471 15.0046 43.6335 15.298C43.9199 15.5914 44.1345 15.9472 44.2603 16.3374C44.3861 16.7276 44.4197 17.1417 44.3585 17.5471C44.2451 18.4614 43.8291 19.3116 43.1767 19.9622C42.5244 20.6128 41.6732 21.0265 40.7585 21.1375C40.352 21.1897 39.9389 21.1468 39.5518 21.0123C39.1646 20.8778 38.814 20.6552 38.5275 20.3622C38.241 20.0691 38.0264 19.7136 37.9006 19.3235C37.7748 18.9334 37.7412 18.5195 37.8026 18.1143V18.1335Z" fill="white"/>
<path id="Vector_11" d="M68.1172 1.63391C68.1172 1.63391 73.3853 -0.893215 76.9286 2.73702C81.194 7.09597 76.6947 14.8646 76.6947 14.8646C76.6947 14.8646 77.898 8.62028 75.1436 5.35775C73.3406 3.29265 70.8383 1.96647 68.1172 1.63391Z" fill="white"/>
<path id="Vector_12" d="M15.6048 50.7614C15.6048 50.7614 13.5555 55.5136 16.9058 58.5431C20.9333 62.1666 27.6635 57.8896 27.6635 57.8896C27.6635 57.8896 22.1688 59.1846 19.169 56.862C17.2677 55.3389 15.998 53.1655 15.6048 50.7614Z" fill="white"/>
</g>
</g>
</svg>
