<svg width="112" height="52" viewBox="0 0 112 52" fill="none" xmlns="http://www.w3.org/2000/svg">
<g id="Group 1912055263">
<g id="Group 1912055262">
<path id="Vector" d="M30.0626 15.5347V42.4821C30.0626 43.1861 29.4865 43.8902 28.7184 43.9542L19.7573 45.1064C19.0532 45.1704 18.4132 44.6583 18.4132 43.9542V34.7371L12.3964 35.5052V44.7863C12.3964 45.4904 11.8203 46.1945 11.0523 46.2585L2.09115 47.4107C1.45107 47.4747 0.875 46.8986 0.875 46.1945V19.2472C0.875 18.5431 1.45107 17.839 2.21917 17.775L11.1803 16.6229C11.8844 16.5589 12.5244 17.0709 12.5244 17.775V27.0562L18.5412 26.2881V17.0069C18.5412 16.3028 19.1172 15.5987 19.8853 15.5347L28.8464 14.3826C29.4865 14.3186 30.0626 14.8307 30.0626 15.5347Z" fill="white"/>
<path id="Vector_2" d="M44.7857 41.9701L35.8246 43.1222C35.1205 43.1862 34.4805 42.6742 34.4805 41.9701V21.6156C34.4805 20.9115 35.0565 20.2074 35.8246 20.1434L44.7857 18.9912C45.4898 18.9272 46.1299 19.4393 46.1299 20.1434V40.4979C46.0659 41.202 45.4898 41.9061 44.7857 41.9701Z" fill="white"/>
<path id="Vector_3" d="M87.2838 43.1864L78.3227 44.3385C77.6186 44.4025 76.9785 43.8905 76.9785 43.1864V22.8319C76.9785 22.1278 77.5546 21.4237 78.3227 21.3597L87.2838 20.2076C87.9879 20.1435 88.628 20.6556 88.628 21.3597V41.7142C88.628 42.4183 88.0519 43.1224 87.2838 43.1864Z" fill="#37F872"/>
<path id="Vector_4" d="M111.353 18.4793V24.304C111.353 25.0081 110.777 25.7122 110.008 25.7762L107.704 26.0962V39.3459C107.704 40.05 107.128 40.754 106.36 40.8181L97.3989 41.9702C96.6948 42.0342 96.0547 41.5221 96.0547 40.8181V27.5044L93.7504 27.8245C93.0463 27.8885 92.4062 27.3764 92.4062 26.6723V20.8476C92.4062 20.1435 92.9823 19.4394 93.7504 19.3754L96.0547 19.0554V13.8067C96.0547 13.1026 96.6308 12.3986 97.3989 12.3345L106.36 11.1824C107.064 11.1184 107.704 11.6305 107.704 12.3345V17.5832L110.008 17.2632C110.777 17.2632 111.353 17.7752 111.353 18.4793Z" fill="#37F872"/>
<path id="Vector_5" d="M46.638 11.0542C44.0777 12.3984 42.0294 14.7027 41.0053 17.391C40.7493 18.0951 39.8532 18.1591 39.5971 17.583C38.573 15.1507 36.5247 13.3585 33.9644 12.6544C33.3244 12.4624 33.3244 11.5663 33.9644 11.2463C36.5247 9.9021 38.573 7.59782 39.5971 4.90948C39.8532 4.2054 40.7493 4.14139 41.0053 4.71746C42.0294 7.14976 44.0777 8.94198 46.638 9.64607C47.2781 9.83809 47.2781 10.7342 46.638 11.0542Z" fill="white"/>
<path id="Vector_6" d="M89.1439 12.2705C86.5835 13.6147 84.5353 15.919 83.5112 18.6073C83.2551 19.3114 82.359 19.3754 82.103 18.7994C81.0789 16.3671 79.0306 14.5748 76.4703 13.8707C75.8302 13.6787 75.8302 12.7826 76.4703 12.4626C79.0306 11.1184 81.0789 8.81412 82.103 6.12579C82.359 5.42171 83.2551 5.3577 83.5112 5.93377C84.5353 8.36607 86.5835 10.1583 89.1439 10.8624C89.7839 11.0544 89.7839 11.9505 89.1439 12.2705Z" fill="#37F872"/>
<path id="Vector_7" d="M69.6206 31.2808C69.1085 31.0887 68.5325 31.1528 68.0204 31.4088C65.2041 32.7529 63.0278 35.2493 62.0037 38.1936C61.8116 38.7697 61.0435 38.8977 60.7875 38.3216C59.7634 35.6333 57.5871 33.7131 54.7708 33.073C54.1947 32.945 54.1947 32.1769 54.7708 31.8568C57.5871 30.5127 59.7634 28.0164 60.7875 25.072C60.9795 24.4959 61.7476 24.3679 62.0037 24.944C63.0278 27.6323 65.2041 29.5526 68.0204 30.1926C68.5325 30.3207 69.1085 30.2566 69.6206 29.9366C72.1809 28.4644 73.9731 25.6481 73.9731 22.6397C73.9731 18.5432 70.6447 15.6628 66.5482 16.1749L52.0824 18.0311C51.3784 18.0951 50.7383 18.7992 50.7383 19.5033V46.4506C50.7383 47.1547 51.3144 47.6668 52.0824 47.6028L66.5482 45.7465C70.6447 45.2345 73.9731 41.522 73.9731 37.4255C73.9731 34.4812 72.1809 32.1129 69.6206 31.2808Z" fill="#37F872"/>
</g>
</g>
</svg>
