<svg width="34" height="29" viewBox="0 0 34 29" fill="none" xmlns="http://www.w3.org/2000/svg">
<g id="Group 1171275114">
<g id="Group 1171275113">
<g id="Union">
<mask id="path-1-outside-1_1609_89544" maskUnits="userSpaceOnUse" x="-0.378906" y="0.0927734" width="34" height="34" fill="black">
<rect fill="white" x="-0.378906" y="0.0927734" width="34" height="34"/>
<path fill-rule="evenodd" clip-rule="evenodd" d="M5.39662 11.8644L5.59205 11.916C5.31037 11.3868 5.0744 10.8294 4.89155 10.2489C4.4982 8.9737 4.37528 7.61877 4.67029 6.23727C4.98989 4.80264 5.752 3.368 7.12871 2.09277C6.82803 5.05334 7.71317 7.89124 9.79636 9.40626C10.386 8.71116 11.011 8.06681 11.3804 7.68603L11.3804 7.68602L11.4181 7.64717C11.0678 7.3694 10.7546 7.10835 10.5093 6.88296C10.2993 6.69009 10.3515 6.36438 10.6068 6.23767C12.1983 5.44797 14.9386 4.58047 15.3621 4.78667C15.8719 5.03496 15.5281 7.96695 15.2934 9.66379C15.2466 10.0026 14.8588 10.1702 14.5791 9.97329C14.2999 9.77677 13.9814 9.55129 13.6451 9.31011C13.6199 9.34785 13.5963 9.38651 13.5756 9.42673C13.4616 9.64786 13.2585 10.0146 12.9414 10.4994L20.7162 10.4994C24.8818 10.0584 26.7401 6.19324 26.3237 2.09277C27.7004 3.368 28.4625 4.80264 28.7821 6.23727C29.0771 7.61877 28.9542 8.9737 28.5608 10.2489C28.3753 10.8378 28.1352 11.4029 27.8481 11.9389L28.2238 11.8205C29.2702 11.7448 30.3993 11.843 31.5503 12.245C31.8012 12.3326 31.9089 12.6244 31.7748 12.8539C30.7108 14.6744 29.1971 15.4193 27.6934 15.5861C26.7682 15.6888 25.901 16.2436 25.5991 17.1241C24.8856 19.2051 23.9016 20.9613 22.7201 22.7685C22.3011 23.4094 22.3087 24.2316 22.7275 24.8482C23.5722 23.8925 24.3802 23.0158 24.7654 22.6006C24.4395 22.3424 24.1473 22.0993 23.9159 21.888C23.7054 21.6958 23.7574 21.371 24.0131 21.2449C25.5296 20.4973 28.1101 19.6821 28.5105 19.8771C28.9916 20.1114 28.6733 22.8589 28.4504 24.4775C28.4037 24.8163 28.0154 24.9841 27.7358 24.7872C27.4714 24.601 27.1714 24.3885 26.8555 24.1618C26.846 24.174 26.8368 24.1864 26.8279 24.1991C26.4371 24.7572 24.9279 26.8925 23.4313 28.745C23.3349 28.9516 23.2285 29.1493 23.1123 29.3386C22.6524 30.0764 22.0511 30.677 21.3082 31.1231C21.1345 31.2242 20.937 31.2775 20.7359 31.2775H13.3731C13.172 31.2775 12.9745 31.2242 12.8008 31.1231C12.0579 30.6598 11.4566 30.0764 10.9967 29.3386C10.5545 28.618 10.2539 27.7773 10.1124 26.7821C10.0677 26.4785 10.1635 26.171 10.3728 25.9466L10.3777 25.9414L10.769 25.5314C10.7292 25.4948 10.6896 25.4578 10.6503 25.4205C9.38875 27.0545 7.44692 29.5896 5.72461 31.9226C4.77394 31.2451 3.853 30.3635 3.11972 29.2793C4.06362 27.6344 8.36712 21.835 8.87344 21.3194L8.93331 21.258C9.21482 20.9683 9.51923 20.6551 10.0181 20.726C9.38894 19.5954 8.84465 18.4271 8.40034 17.1395C8.08226 16.2178 7.14772 15.6571 6.17353 15.6148C4.5362 15.5436 2.84301 14.8414 1.67935 12.8523C1.54547 12.6235 1.65177 12.332 1.90188 12.2441C2.98114 11.8646 4.06113 11.7564 5.05962 11.8098C5.17358 11.8159 5.28629 11.8352 5.39662 11.8644Z"/>
</mask>
<path fill-rule="evenodd" clip-rule="evenodd" d="M5.39662 11.8644L5.59205 11.916C5.31037 11.3868 5.0744 10.8294 4.89155 10.2489C4.4982 8.9737 4.37528 7.61877 4.67029 6.23727C4.98989 4.80264 5.752 3.368 7.12871 2.09277C6.82803 5.05334 7.71317 7.89124 9.79636 9.40626C10.386 8.71116 11.011 8.06681 11.3804 7.68603L11.3804 7.68602L11.4181 7.64717C11.0678 7.3694 10.7546 7.10835 10.5093 6.88296C10.2993 6.69009 10.3515 6.36438 10.6068 6.23767C12.1983 5.44797 14.9386 4.58047 15.3621 4.78667C15.8719 5.03496 15.5281 7.96695 15.2934 9.66379C15.2466 10.0026 14.8588 10.1702 14.5791 9.97329C14.2999 9.77677 13.9814 9.55129 13.6451 9.31011C13.6199 9.34785 13.5963 9.38651 13.5756 9.42673C13.4616 9.64786 13.2585 10.0146 12.9414 10.4994L20.7162 10.4994C24.8818 10.0584 26.7401 6.19324 26.3237 2.09277C27.7004 3.368 28.4625 4.80264 28.7821 6.23727C29.0771 7.61877 28.9542 8.9737 28.5608 10.2489C28.3753 10.8378 28.1352 11.4029 27.8481 11.9389L28.2238 11.8205C29.2702 11.7448 30.3993 11.843 31.5503 12.245C31.8012 12.3326 31.9089 12.6244 31.7748 12.8539C30.7108 14.6744 29.1971 15.4193 27.6934 15.5861C26.7682 15.6888 25.901 16.2436 25.5991 17.1241C24.8856 19.2051 23.9016 20.9613 22.7201 22.7685C22.3011 23.4094 22.3087 24.2316 22.7275 24.8482C23.5722 23.8925 24.3802 23.0158 24.7654 22.6006C24.4395 22.3424 24.1473 22.0993 23.9159 21.888C23.7054 21.6958 23.7574 21.371 24.0131 21.2449C25.5296 20.4973 28.1101 19.6821 28.5105 19.8771C28.9916 20.1114 28.6733 22.8589 28.4504 24.4775C28.4037 24.8163 28.0154 24.9841 27.7358 24.7872C27.4714 24.601 27.1714 24.3885 26.8555 24.1618C26.846 24.174 26.8368 24.1864 26.8279 24.1991C26.4371 24.7572 24.9279 26.8925 23.4313 28.745C23.3349 28.9516 23.2285 29.1493 23.1123 29.3386C22.6524 30.0764 22.0511 30.677 21.3082 31.1231C21.1345 31.2242 20.937 31.2775 20.7359 31.2775H13.3731C13.172 31.2775 12.9745 31.2242 12.8008 31.1231C12.0579 30.6598 11.4566 30.0764 10.9967 29.3386C10.5545 28.618 10.2539 27.7773 10.1124 26.7821C10.0677 26.4785 10.1635 26.171 10.3728 25.9466L10.3777 25.9414L10.769 25.5314C10.7292 25.4948 10.6896 25.4578 10.6503 25.4205C9.38875 27.0545 7.44692 29.5896 5.72461 31.9226C4.77394 31.2451 3.853 30.3635 3.11972 29.2793C4.06362 27.6344 8.36712 21.835 8.87344 21.3194L8.93331 21.258C9.21482 20.9683 9.51923 20.6551 10.0181 20.726C9.38894 19.5954 8.84465 18.4271 8.40034 17.1395C8.08226 16.2178 7.14772 15.6571 6.17353 15.6148C4.5362 15.5436 2.84301 14.8414 1.67935 12.8523C1.54547 12.6235 1.65177 12.332 1.90188 12.2441C2.98114 11.8646 4.06113 11.7564 5.05962 11.8098C5.17358 11.8159 5.28629 11.8352 5.39662 11.8644Z" fill="white"/>
<path d="M5.59205 11.916L5.23435 13.2696C5.77248 13.4118 6.34375 13.2217 6.6894 12.7854C7.03505 12.3491 7.08941 11.7495 6.82787 11.2582L5.59205 11.916ZM5.39662 11.8644L5.75432 10.5108H5.75432L5.39662 11.8644ZM4.89155 10.2489L3.55372 10.6616L3.55624 10.6696L4.89155 10.2489ZM4.67029 6.23727L3.30374 5.93284L3.30116 5.9449L4.67029 6.23727ZM7.12871 2.09277L8.52155 2.23423C8.58039 1.65488 8.27446 1.09961 7.75329 0.839815C7.23212 0.580023 6.60456 0.66997 6.17735 1.06569L7.12871 2.09277ZM9.79636 9.40626L8.97293 10.5385C9.56546 10.9694 10.39 10.8706 10.864 10.3119L9.79636 9.40626ZM11.3804 7.68603L12.3853 8.6608C12.3994 8.64622 12.4133 8.63133 12.4268 8.61614L11.3804 7.68603ZM11.3804 7.68602L10.3755 6.7113C10.3613 6.72587 10.3475 6.74074 10.334 6.75591L11.3804 7.68602ZM11.4181 7.64717L12.423 8.62189C12.6984 8.33795 12.8409 7.95077 12.8151 7.55605C12.7894 7.16134 12.5979 6.79594 12.2879 6.55018L11.4181 7.64717ZM10.5093 6.88296L9.56203 7.91387L9.56203 7.91387L10.5093 6.88296ZM10.6068 6.23767L11.2291 7.49176L10.6068 6.23767ZM15.3621 4.78667L15.975 3.528L15.975 3.528L15.3621 4.78667ZM15.2934 9.66379L16.6802 9.85556V9.85556L15.2934 9.66379ZM14.5791 9.97329L15.3848 8.82841V8.82841L14.5791 9.97329ZM13.6451 9.31011L14.4611 8.17252C14.153 7.95145 13.7683 7.86488 13.3951 7.93262C13.0219 8.00036 12.6922 8.21661 12.4814 8.53189L13.6451 9.31011ZM13.5756 9.42673L14.8199 10.0683L14.8199 10.0683L13.5756 9.42673ZM12.9414 10.4994L11.7698 9.73309C11.4884 10.1633 11.4654 10.7132 11.71 11.1654C11.9546 11.6176 12.4273 11.8994 12.9414 11.8994V10.4994ZM20.7162 10.4994L20.7162 11.8994C20.7654 11.8994 20.8146 11.8968 20.8636 11.8916L20.7162 10.4994ZM26.3237 2.09277L27.275 1.06569C26.8478 0.66997 26.2202 0.580023 25.6991 0.839815C25.1779 1.09961 24.872 1.65489 24.9308 2.23423L26.3237 2.09277ZM28.7821 6.23727L30.1513 5.94489L30.1486 5.93286L28.7821 6.23727ZM28.5608 10.2489L29.8962 10.6696L29.8986 10.6616L28.5608 10.2489ZM27.8481 11.9389L26.614 11.2779C26.3452 11.7797 26.407 12.3942 26.7703 12.8324C27.1335 13.2706 27.7259 13.4453 28.2688 13.2742L27.8481 11.9389ZM28.2238 11.8205L28.1227 10.4242C28.0142 10.4321 27.9069 10.4525 27.8031 10.4853L28.2238 11.8205ZM31.5503 12.245L31.0886 13.5667L31.5503 12.245ZM31.7748 12.8539L32.9835 13.5604L32.9835 13.5604L31.7748 12.8539ZM27.6934 15.5861L27.539 14.1947L27.6934 15.5861ZM25.5991 17.1241L24.2748 16.67V16.67L25.5991 17.1241ZM22.7201 22.7685L23.8919 23.5346L23.8919 23.5346L22.7201 22.7685ZM22.7275 24.8482L21.5693 25.6348C21.8123 25.9925 22.2069 26.2179 22.6385 26.2453C23.07 26.2728 23.49 26.0994 23.7764 25.7754L22.7275 24.8482ZM24.7654 22.6006L25.7917 23.5528C26.0571 23.2667 26.191 22.8829 26.1613 22.4938C26.1315 22.1048 25.9407 21.7458 25.635 21.5034L24.7654 22.6006ZM23.9159 21.888L24.8598 20.8541L24.8598 20.8541L23.9159 21.888ZM24.0131 21.2449L24.6322 22.5006L24.6322 22.5006L24.0131 21.2449ZM28.5105 19.8771L27.8975 21.1358H27.8975L28.5105 19.8771ZM28.4504 24.4775L29.8373 24.6685V24.6685L28.4504 24.4775ZM27.7358 24.7872L26.9297 25.9319L26.9297 25.9319L27.7358 24.7872ZM26.8555 24.1618L27.6719 23.0244C27.0618 22.5865 26.2149 22.708 25.7525 23.2997L26.8555 24.1618ZM26.8279 24.1991L25.6811 23.396L25.6811 23.396L26.8279 24.1991ZM23.4313 28.745L22.3423 27.8652C22.2708 27.9536 22.2105 28.0503 22.1624 28.1533L23.4313 28.745ZM23.1123 29.3386L24.3004 30.0792L24.3056 30.0708L23.1123 29.3386ZM21.3082 31.1231L22.0125 32.333C22.018 32.3298 22.0235 32.3266 22.029 32.3233L21.3082 31.1231ZM12.8008 31.1231L12.06 32.311C12.072 32.3185 12.0842 32.3259 12.0965 32.333L12.8008 31.1231ZM10.9967 29.3386L9.80341 30.0709L9.80861 30.0792L10.9967 29.3386ZM10.1124 26.7821L11.4984 26.5851L11.4974 26.5782L10.1124 26.7821ZM10.3728 25.9466L11.3966 26.9015L11.3967 26.9015L10.3728 25.9466ZM10.3777 25.9414L9.36494 24.9748C9.36121 24.9787 9.3575 24.9826 9.35382 24.9866L10.3777 25.9414ZM10.769 25.5314L11.7817 26.4981C12.0411 26.2263 12.1804 25.8616 12.1683 25.4861C12.1561 25.1106 11.9935 24.7558 11.7171 24.5013L10.769 25.5314ZM10.6503 25.4205L11.6145 24.4054C11.3273 24.1326 10.9379 23.9942 10.5429 24.0246C10.1479 24.055 9.78431 24.2513 9.5422 24.5649L10.6503 25.4205ZM5.72461 31.9226L4.91208 33.0627C5.5343 33.5061 6.39714 33.3688 6.85094 32.7541L5.72461 31.9226ZM3.11972 29.2793L1.90543 28.5826C1.63938 29.0462 1.66057 29.6209 1.96006 30.0637L3.11972 29.2793ZM8.87344 21.3194L9.87236 22.3003L9.87575 22.2968L8.87344 21.3194ZM8.93331 21.258L9.93562 22.2354L9.9373 22.2337L8.93331 21.258ZM10.0181 20.726L9.8211 22.1121C10.3475 22.1869 10.8708 21.9571 11.172 21.5189C11.4731 21.0808 11.5 20.5098 11.2415 20.0452L10.0181 20.726ZM8.40034 17.1395L9.72376 16.6829H9.72376L8.40034 17.1395ZM6.17353 15.6148L6.23432 14.2161H6.23431L6.17353 15.6148ZM1.67935 12.8523L0.470953 13.5593L1.67935 12.8523ZM1.90188 12.2441L1.43747 10.9234H1.43747L1.90188 12.2441ZM5.05962 11.8098L4.98486 13.2078H4.98486L5.05962 11.8098ZM5.94975 10.5625L5.75432 10.5108L5.03892 13.2179L5.23435 13.2696L5.94975 10.5625ZM3.55624 10.6696C3.76562 11.3342 4.03531 11.971 4.35623 12.5739L6.82787 11.2582C6.58542 10.8027 6.38318 10.3245 6.22686 9.82829L3.55624 10.6696ZM3.30116 5.9449C2.9486 7.59588 3.10151 9.19545 3.55375 10.6616L6.22935 9.83629C5.89489 8.75196 5.80196 7.64166 6.03942 6.52964L3.30116 5.9449ZM6.17735 1.06569C4.59512 2.53128 3.68608 4.21678 3.30379 5.93286L6.03679 6.54169C6.29369 5.3885 6.90888 4.20473 8.08008 3.11985L6.17735 1.06569ZM10.6198 8.27402C9.07452 7.15021 8.25168 4.89138 8.52155 2.23423L5.73588 1.95131C5.40438 5.2153 6.35181 8.63227 8.97293 10.5385L10.6198 8.27402ZM10.3755 6.71127C10.0076 7.09058 9.35228 7.76557 8.72875 8.50061L10.864 10.3119C11.4197 9.65676 12.0145 9.04303 12.3853 8.6608L10.3755 6.71127ZM10.334 6.75591L10.334 6.75592L12.4268 8.61614L12.4268 8.61613L10.334 6.75591ZM10.4131 6.67245L10.3755 6.7113L12.3854 8.66074L12.423 8.62189L10.4131 6.67245ZM9.56203 7.91387C9.84286 8.1719 10.1856 8.45662 10.5483 8.74417L12.2879 6.55018C11.9499 6.28218 11.6662 6.0448 11.4565 5.85205L9.56203 7.91387ZM9.98453 4.98358C8.88386 5.52974 8.60037 7.03028 9.56203 7.91387L11.4565 5.85205C11.9983 6.3499 11.8191 7.19902 11.2291 7.49176L9.98453 4.98358ZM15.975 3.528C15.5783 3.33478 15.1741 3.35252 15.0362 3.35895C14.8262 3.36874 14.6071 3.40127 14.4036 3.43982C13.9911 3.51798 13.5041 3.64801 13.0088 3.80123C12.0192 4.1073 10.8632 4.54755 9.98453 4.98358L11.2291 7.49176C11.9419 7.13809 12.9518 6.74974 13.8362 6.47619C14.2778 6.33959 14.6547 6.24205 14.9248 6.19087C15.0627 6.16475 15.1395 6.15717 15.1667 6.15591C15.2659 6.15128 15.04 6.18701 14.7491 6.04535L15.975 3.528ZM16.6802 9.85556C16.7984 9.00104 16.9501 7.79465 17.005 6.75587C17.032 6.24471 17.0392 5.71429 16.9916 5.26668C16.9683 5.04803 16.9253 4.77975 16.8311 4.52021C16.7553 4.31132 16.5395 3.80291 15.975 3.528L14.7491 6.04534C14.5196 5.9336 14.3813 5.779 14.3095 5.67858C14.239 5.58011 14.2084 5.5011 14.1991 5.47564C14.1828 5.4306 14.1948 5.44537 14.2073 5.56303C14.2312 5.78802 14.2334 6.14321 14.2089 6.60819C14.1606 7.52167 14.0231 8.6297 13.9066 9.47203L16.6802 9.85556ZM13.7733 11.1182C14.9056 11.9151 16.489 11.2383 16.6802 9.85556L13.9066 9.47202C14.0041 8.7669 14.812 8.42523 15.3848 8.82841L13.7733 11.1182ZM12.8291 10.4477C13.1697 10.692 13.4918 10.92 13.7733 11.1182L15.3848 8.82841C15.108 8.63353 14.793 8.41058 14.4611 8.17252L12.8291 10.4477ZM14.8199 10.0683C14.8105 10.0867 14.8049 10.0944 14.8089 10.0883L12.4814 8.53189C12.4349 8.60132 12.3822 8.68636 12.3313 8.78514L14.8199 10.0683ZM14.1131 11.2657C14.4574 10.7393 14.6845 10.3309 14.8199 10.0683L12.3313 8.78513C12.2386 8.96486 12.0597 9.28984 11.7698 9.73309L14.1131 11.2657ZM20.7162 9.09939L12.9414 9.0994L12.9414 11.8994L20.7162 11.8994L20.7162 9.09939ZM24.9308 2.23423C25.1153 4.05073 24.784 5.72139 24.0421 6.94075C23.3245 8.12031 22.1965 8.93486 20.5688 9.10717L20.8636 11.8916C23.4015 11.6229 25.2854 10.2844 26.4343 8.39602C27.5589 6.54744 27.9485 4.23528 27.7165 1.95131L24.9308 2.23423ZM30.1486 5.93286C29.7663 4.21678 28.8572 2.53128 27.275 1.06569L25.3723 3.11985C26.5435 4.20473 27.1587 5.3885 27.4156 6.54169L30.1486 5.93286ZM29.8986 10.6616C30.3509 9.19545 30.5038 7.59588 30.1512 5.9449L27.4129 6.52964C27.6504 7.64167 27.5575 8.75196 27.223 9.83629L29.8986 10.6616ZM29.0822 12.6C29.4093 11.9894 29.6837 11.3438 29.8961 10.6696L27.2255 9.82829C27.0669 10.3317 26.8611 10.8165 26.614 11.2779L29.0822 12.6ZM27.8031 10.4853L27.4274 10.6036L28.2688 13.2742L28.6445 13.1558L27.8031 10.4853ZM32.0119 10.9233C30.6542 10.449 29.33 10.3368 28.1227 10.4242L28.3249 13.2169C29.2104 13.1528 30.1444 13.2369 31.0886 13.5667L32.0119 10.9233ZM32.9835 13.5604C33.5626 12.5694 33.0935 11.301 32.0119 10.9233L31.0886 13.5667C30.509 13.3642 30.2552 12.6794 30.5661 12.1475L32.9835 13.5604ZM27.8477 16.9776C29.7488 16.7667 31.6753 15.7985 32.9835 13.5604L30.5661 12.1475C29.7462 13.5502 28.6453 14.0719 27.539 14.1947L27.8477 16.9776ZM26.9235 17.5782C27.0085 17.3302 27.3225 17.0359 27.8477 16.9776L27.539 14.1947C26.214 14.3417 24.7936 15.157 24.2748 16.67L26.9235 17.5782ZM23.8919 23.5346C25.107 21.6761 26.1579 19.8111 26.9235 17.5782L24.2748 16.67C23.6134 18.599 22.6963 20.2464 21.5483 22.0024L23.8919 23.5346ZM23.8856 24.0616C23.7888 23.9191 23.7776 23.7094 23.8919 23.5346L21.5483 22.0024C20.8245 23.1094 20.8286 24.5441 21.5693 25.6348L23.8856 24.0616ZM23.739 21.6485C23.3504 22.0674 22.5339 22.9533 21.6785 23.921L23.7764 25.7754C24.6106 24.8317 25.41 23.9642 25.7917 23.5528L23.739 21.6485ZM22.972 22.922C23.2373 23.1642 23.5577 23.4298 23.8958 23.6978L25.635 21.5034C25.3214 21.2549 25.0573 21.0344 24.8598 20.8541L22.972 22.922ZM23.394 19.9892C22.2899 20.5336 22.0041 22.0384 22.972 22.922L24.8598 20.8541C25.4067 21.3533 25.2249 22.2084 24.6322 22.5006L23.394 19.9892ZM29.1235 18.6184C28.7308 18.4272 28.3329 18.4447 28.2009 18.4507C27.9975 18.4599 27.7867 18.4911 27.5928 18.5276C27.1995 18.6018 26.7369 18.725 26.2677 18.8697C25.33 19.1589 24.2338 19.5752 23.394 19.9892L24.6322 22.5006C25.3089 22.167 26.2612 21.8019 27.0929 21.5453C27.5085 21.4172 27.8608 21.3264 28.1114 21.2792C28.2395 21.255 28.3078 21.2487 28.3281 21.2478C28.4198 21.2436 28.1901 21.2783 27.8975 21.1358L29.1235 18.6184ZM29.8373 24.6685C29.9496 23.8528 30.092 22.7118 30.1426 21.7302C30.1674 21.2477 30.1737 20.7436 30.1272 20.3159C30.1045 20.1071 30.0625 19.8472 29.9697 19.594C29.895 19.39 29.6812 18.89 29.1235 18.6184L27.8975 21.1358C27.4602 20.9228 27.3416 20.5599 27.3407 20.5573C27.3217 20.5055 27.332 20.5114 27.3436 20.6184C27.3658 20.8223 27.3687 21.1502 27.3463 21.5862C27.3022 22.4415 27.174 23.4835 27.0634 24.2864L29.8373 24.6685ZM26.9297 25.9319C28.0623 26.7294 29.6468 26.0517 29.8373 24.6685L27.0634 24.2864C27.1606 23.5809 27.9686 23.2389 28.5418 23.6425L26.9297 25.9319ZM26.0392 25.2992C26.3594 25.529 26.6629 25.744 26.9297 25.9319L28.5418 23.6425C28.2798 23.458 27.9834 23.248 27.6719 23.0244L26.0392 25.2992ZM27.9746 25.0022C27.9679 25.0117 27.9624 25.0191 27.9586 25.0239L25.7525 23.2997C25.7297 23.3289 25.7056 23.361 25.6811 23.396L27.9746 25.0022ZM24.5203 29.6248C26.0486 27.7331 27.5804 25.5652 27.9747 25.0021L25.6811 23.396C25.2937 23.9492 23.8073 26.0519 22.3423 27.8652L24.5203 29.6248ZM24.3056 30.0708C24.4497 29.8359 24.5813 29.5914 24.7001 29.3367L22.1624 28.1533C22.0885 28.3118 22.0073 28.4626 21.919 28.6065L24.3056 30.0708ZM22.029 32.3233C22.9683 31.7592 23.7274 30.9984 24.3004 30.0792L21.9242 28.5981C21.5774 29.1544 21.1338 29.5948 20.5875 29.9228L22.029 32.3233ZM20.7359 32.6775C21.1844 32.6775 21.6249 32.5586 22.0125 32.333L20.604 29.9131C20.644 29.8898 20.6896 29.8775 20.7359 29.8775V32.6775ZM13.3731 32.6775H20.7359V29.8775H13.3731V32.6775ZM12.0965 32.333C12.4841 32.5586 12.9246 32.6775 13.3731 32.6775V29.8775C13.4194 29.8775 13.465 29.8898 13.505 29.9131L12.0965 32.333ZM9.80861 30.0792C10.3894 31.0111 11.1491 31.7429 12.06 32.311L13.5416 29.9351C12.9668 29.5767 12.5237 29.1418 12.1848 28.5981L9.80861 30.0792ZM8.7263 26.9792C8.89197 28.1444 9.25117 29.1708 9.80344 30.0708L12.19 28.6065C11.8579 28.0653 11.6157 27.4102 11.4984 26.5851L8.7263 26.9792ZM9.34901 24.9917C8.84936 25.5274 8.62057 26.2614 8.7273 26.9861L11.4974 26.5782C11.5147 26.6957 11.4776 26.8146 11.3966 26.9015L9.34901 24.9917ZM9.35382 24.9866L9.34898 24.9918L11.3967 26.9015L11.4015 26.8963L9.35382 24.9866ZM9.75626 24.5648L9.36494 24.9748L11.3904 26.908L11.7817 26.4981L9.75626 24.5648ZM11.7171 24.5013C11.6826 24.4695 11.6484 24.4376 11.6145 24.4054L9.68615 26.4355C9.73088 26.478 9.77581 26.52 9.8209 26.5615L11.7171 24.5013ZM9.5422 24.5649C8.27852 26.2016 6.32952 28.746 4.59829 31.0911L6.85094 32.7541C8.56432 30.4332 10.499 27.9073 11.7585 26.2761L9.5422 24.5649ZM6.53714 30.7825C5.70267 30.1878 4.90638 29.422 4.27937 28.495L1.96006 30.0637C2.79963 31.305 3.84521 32.3024 4.91208 33.0627L6.53714 30.7825ZM4.33401 29.9761C4.75953 29.2345 6.02003 27.4407 7.29093 25.702C7.91507 24.8481 8.52425 24.0312 9.00688 23.3981C9.24855 23.0812 9.45547 22.8143 9.61514 22.6136C9.69515 22.513 9.76004 22.4332 9.80957 22.374C9.86586 22.3067 9.88231 22.2901 9.87235 22.3003L7.87453 20.3385C7.67064 20.5461 7.24172 21.0952 6.78023 21.7005C6.28406 22.3513 5.66343 23.1837 5.03042 24.0497C3.78701 25.7508 2.4238 27.6792 1.90543 28.5826L4.33401 29.9761ZM9.87575 22.2968L9.93562 22.2354L7.93101 20.2805L7.87114 20.3419L9.87575 22.2968ZM9.9373 22.2337C9.97371 22.1962 10.0017 22.1674 10.029 22.1402C10.0555 22.1138 10.076 22.0942 10.0929 22.0788C10.1283 22.0467 10.1359 22.0443 10.1219 22.0528C10.1043 22.0635 10.0602 22.0869 9.99413 22.1023C9.92521 22.1183 9.86361 22.1181 9.8211 22.1121L10.2152 19.34C8.92222 19.1561 8.14041 20.0651 7.92933 20.2823L9.9373 22.2337ZM7.07692 17.5962C7.55192 18.9727 8.13212 20.216 8.79482 21.4068L11.2415 20.0452C10.6458 18.9748 10.1374 17.8815 9.72376 16.6829L7.07692 17.5962ZM6.11274 17.0135C6.64851 17.0367 6.98714 17.3361 7.07692 17.5962L9.72376 16.6829C9.17738 15.0995 7.64693 14.2775 6.23432 14.2161L6.11274 17.0135ZM0.470953 13.5593C1.90812 16.0158 4.07012 16.9247 6.11274 17.0135L6.23431 14.2161C5.00228 14.1626 3.77789 13.6669 2.88774 12.1454L0.470953 13.5593ZM1.43747 10.9234C0.353795 11.3044 -0.105417 12.5741 0.470953 13.5593L2.88774 12.1454C3.19635 12.6729 2.94974 13.3597 2.36629 13.5648L1.43747 10.9234ZM5.13438 10.4118C3.98245 10.3502 2.7156 10.4739 1.43747 10.9234L2.36629 13.5648C3.24668 13.2553 4.1398 13.1626 4.98486 13.2078L5.13438 10.4118ZM5.75432 10.5108C5.56477 10.4608 5.35678 10.4237 5.13438 10.4118L4.98486 13.2078C4.99038 13.2081 5.0078 13.2097 5.03892 13.2179L5.75432 10.5108Z" fill="white" mask="url(#path-1-outside-1_1609_89544)"/>
</g>
<g id="Group 1171275112">
<path id="Union_2" fill-rule="evenodd" clip-rule="evenodd" d="M27.0476 24.0184C27.318 24.2121 27.575 24.3942 27.8051 24.5562C28.0847 24.7532 28.4734 24.5851 28.52 24.2462C28.7352 22.6791 29.0369 20.0518 28.5746 19.8267C28.1891 19.6389 25.7129 20.42 24.2455 21.1402C23.9896 21.2658 23.9375 21.5901 24.1485 21.7819C24.2896 21.9101 24.4535 22.0503 24.6337 22.1984C23.4826 23.447 20.9458 26.2394 19.9356 27.6903C19.735 27.9784 19.7547 28.3594 19.9858 28.6235C20.4241 29.1246 20.9424 29.5616 21.454 29.9407C21.8225 30.2137 22.3362 30.1484 22.6339 29.7996C24.336 27.8049 26.2666 25.1222 27.0476 24.0184Z" fill="#00E294"/>
<path id="Union_3" fill-rule="evenodd" clip-rule="evenodd" d="M13.4693 9.21726C13.8055 9.45843 14.124 9.68391 14.4033 9.88042C14.683 10.0773 15.0708 9.90975 15.1176 9.57093C15.3522 7.87408 15.6961 4.9421 15.1862 4.69381C14.7628 4.4876 12.0225 5.35511 10.431 6.14481C10.1756 6.27152 10.1235 6.59722 10.3334 6.79009C10.5787 7.01549 10.892 7.27654 11.2423 7.55432C11.23 7.56694 11.2175 7.57988 11.2046 7.59315C10.6292 8.18636 9.4332 9.41933 8.71723 10.4872C8.52178 10.7788 8.54433 11.1613 8.77724 11.4238C9.16365 11.8594 9.61452 12.2423 10.0622 12.5772C10.4295 12.8519 10.9453 12.7857 11.2411 12.4352C12.5181 10.9225 13.1584 9.802 13.3998 9.33386C13.4205 9.29365 13.4441 9.25499 13.4693 9.21726Z" fill="#00E294"/>
<g id="Group 1171275110">
<g id="Group 1171275107">
<path id="Union_4" fill-rule="evenodd" clip-rule="evenodd" d="M6.60964 13.5966C6.5912 13.5767 6.57276 13.5568 6.56047 13.5302C5.74919 12.5472 5.11 11.4048 4.71665 10.1562C4.3233 8.88093 4.20038 7.526 4.49539 6.1445C4.81499 4.70987 5.5771 3.27523 6.95382 2C6.5113 6.35704 8.63713 10.4484 13.3703 10.4484C13.4932 10.5281 13.61 10.6012 13.7267 10.6742C13.8435 10.7473 13.9603 10.8203 14.0832 10.9L14.9437 11.458L14.8699 11.6174L6.6588 13.663C6.64651 13.6365 6.62807 13.6166 6.60964 13.5966ZM26.4927 13.5966C26.5112 13.5767 26.5296 13.5568 26.5419 13.5302C27.3532 12.5472 27.9924 11.4048 28.3857 10.1562C28.7791 8.88093 28.902 7.526 28.607 6.1445C28.2874 4.70987 27.5253 3.27523 26.1486 2C26.5911 6.35704 24.4653 10.4484 19.7321 10.4484C19.6092 10.5281 19.4924 10.6012 19.3756 10.6742C19.2589 10.7473 19.1421 10.8203 19.0191 10.9L18.1587 11.458L18.2324 11.6174L26.4436 13.663C26.4559 13.6365 26.4743 13.6166 26.4927 13.5966Z" fill="#0279FE"/>
</g>
<path id="Vector" d="M10.9377 25.0771L10.2015 25.8485L10.1966 25.8537C9.98728 26.0781 9.89143 26.3856 9.93615 26.6892C10.0776 27.6844 10.3783 28.5251 10.8205 29.2457C11.2804 29.9835 11.8817 30.5669 12.6246 31.0302C12.7983 31.1313 12.9958 31.1846 13.1968 31.1846H20.5597C20.7608 31.1846 20.9582 31.1313 21.132 31.0302C21.8749 30.5841 22.4762 29.9835 22.9361 29.2457C23.3782 28.5251 23.6789 27.6844 23.8204 26.6892C23.8651 26.3856 23.7693 26.0781 23.56 25.8537L23.5551 25.8485L22.7386 24.9879C22.1419 24.359 22.0695 23.4011 22.5439 22.6756C23.7254 20.8684 24.7094 19.1122 25.4229 17.0312C25.7248 16.1507 26.592 15.5959 27.5172 15.4932C29.0209 15.3264 30.5345 14.5815 31.5986 12.761C31.7327 12.5315 31.625 12.2397 31.3741 12.1521C30.2231 11.7501 29.094 11.6519 28.0476 11.7276L26.8331 12.1103C26.3888 12.2503 25.9079 12.2164 25.4877 12.0155L22.4986 10.5863C22.251 10.4679 21.98 10.4065 21.7056 10.4065L11.418 10.4065C11.1185 10.4065 10.8236 10.4797 10.5588 10.6196L7.96164 11.9926C7.55348 12.2084 7.07909 12.2627 6.63274 12.1447L5.2204 11.7715C5.11007 11.7423 4.99736 11.723 4.8834 11.7169C3.88491 11.6635 2.80492 11.7717 1.72566 12.1512C1.47555 12.2391 1.36925 12.5306 1.50313 12.7594C2.66679 14.7485 4.35998 15.4507 5.99731 15.5219C6.9715 15.5642 7.90604 16.1249 8.22412 17.0466C8.94961 19.149 9.94169 20.9333 11.1347 22.7553C11.6118 23.4839 11.5391 24.4471 10.9377 25.0771Z" fill="#0A07A9"/>
</g>
<path id="Union_5" fill-rule="evenodd" clip-rule="evenodd" d="M16.2969 16.6243C15.66 16.1193 15.1039 15.6506 14.7086 15.2677C14.5038 15.0693 14.5586 14.7424 14.8115 14.6109C17.18 13.379 21.6239 11.9531 22.2904 12.2776C23.105 12.6744 22.4853 17.5808 22.1324 20.0721C22.0845 20.4107 21.6969 20.5779 21.4169 20.3815C20.8558 19.9878 20.1545 19.4929 19.4098 18.9562C18.379 20.4129 15.8117 23.9788 13.5923 26.5542C13.2929 26.9016 12.78 26.9662 12.4083 26.6976C11.8857 26.3199 11.3509 25.8952 10.8606 25.4197C9.54088 27.1297 7.54774 29.7332 5.77668 32.1322C4.78299 31.424 3.82038 30.5026 3.05391 29.3693C4.04052 27.6499 8.53877 21.5881 9.068 21.0492C9.08878 21.028 9.10962 21.0066 9.13058 20.985C9.64339 20.4573 10.2289 19.8548 11.8367 21.4335C11.8729 21.4691 11.9074 21.5045 11.9403 21.5395C13.4196 19.771 15.274 17.7341 16.2969 16.6243Z" fill="#00E294"/>
</g>
</g>
</g>
</svg>
