<svg width="40" height="40" viewBox="0 0 40 40" fill="none" xmlns="http://www.w3.org/2000/svg">
<g id="Mask group">
<mask id="mask0_1609_89775" style="mask-type:alpha" maskUnits="userSpaceOnUse" x="0" y="0" width="40" height="40">
<g id="Rectangle 3467960">
<path d="M0 14.44C0 6.46501 6.46501 0 14.44 0H25.56C33.535 0 40 6.46501 40 14.44V25.56C40 33.535 33.535 40 25.56 40H0V14.44Z" fill="#191919"/>
<path d="M0 14.44C0 6.46501 6.46501 0 14.44 0H25.56C33.535 0 40 6.46501 40 14.44V25.56C40 33.535 33.535 40 25.56 40H0V14.44Z" fill="white" fill-opacity="0.05"/>
</g>
</mask>
<g mask="url(#mask0_1609_89775)">
<g id="Group 1171275052">
<g id="&#231;&#153;&#189;&#232;&#190;&#185;">
<mask id="path-2-outside-1_1609_89775" maskUnits="userSpaceOnUse" x="-3.85496" y="0.377809" width="47.4958" height="46.7361" fill="black">
<rect fill="white" x="-3.85496" y="0.377809" width="47.4958" height="46.7361"/>
<path fill-rule="evenodd" clip-rule="evenodd" d="M29.7794 12.469C30.2671 12.5147 30.7575 12.5991 31.247 12.7241C36.3017 14.0153 39.3525 19.1596 38.0613 24.2142C36.7701 29.2688 31.6258 32.3197 26.5712 31.0285C25.8539 30.8452 25.1769 30.5844 24.547 30.2572L24.0407 32.5399C23.5503 34.751 22.1599 36.5298 20.3402 37.5767L19.3983 41.8236L9.92454 39.7224L10.7371 36.0589C9.1135 34.2612 8.35539 31.7311 8.91985 29.1861L9.59803 26.1284C4.93799 24.5776 2.20346 19.663 3.43796 14.8304C4.72916 9.77581 9.87346 6.72497 14.9281 8.01617C15.0542 8.04839 15.1791 8.08301 15.3027 8.11996C17.505 6.49738 20.3909 5.83986 23.2481 6.56974C26.3797 7.36971 28.7422 9.64868 29.7794 12.469ZM18.5722 24.8741C19.0618 24.9992 19.5522 25.0835 20.0399 25.1292C20.0679 25.2056 20.097 25.2815 20.127 25.357L18.029 24.8917C18.0856 24.8519 18.1418 24.8114 18.1976 24.7703C18.3212 24.8073 18.4461 24.8419 18.5722 24.8741Z"/>
</mask>
<path fill-rule="evenodd" clip-rule="evenodd" d="M29.7794 12.469C30.2671 12.5147 30.7575 12.5991 31.247 12.7241C36.3017 14.0153 39.3525 19.1596 38.0613 24.2142C36.7701 29.2688 31.6258 32.3197 26.5712 31.0285C25.8539 30.8452 25.1769 30.5844 24.547 30.2572L24.0407 32.5399C23.5503 34.751 22.1599 36.5298 20.3402 37.5767L19.3983 41.8236L9.92454 39.7224L10.7371 36.0589C9.1135 34.2612 8.35539 31.7311 8.91985 29.1861L9.59803 26.1284C4.93799 24.5776 2.20346 19.663 3.43796 14.8304C4.72916 9.77581 9.87346 6.72497 14.9281 8.01617C15.0542 8.04839 15.1791 8.08301 15.3027 8.11996C17.505 6.49738 20.3909 5.83986 23.2481 6.56974C26.3797 7.36971 28.7422 9.64868 29.7794 12.469ZM18.5722 24.8741C19.0618 24.9992 19.5522 25.0835 20.0399 25.1292C20.0679 25.2056 20.097 25.2815 20.127 25.357L18.029 24.8917C18.0856 24.8519 18.1418 24.8114 18.1976 24.7703C18.3212 24.8073 18.4461 24.8419 18.5722 24.8741Z" fill="white"/>
<path d="M29.7794 12.469L28.3645 12.9894L28.6925 13.8813L29.6387 13.97L29.7794 12.469ZM31.247 12.7241L30.8739 14.1847L31.247 12.7241ZM38.0613 24.2142L36.6007 23.8411L36.6007 23.8411L38.0613 24.2142ZM26.5712 31.0285L26.1981 32.4891L26.5712 31.0285ZM24.547 30.2572L25.2419 28.9194L23.5002 28.0148L23.0753 29.9308L24.547 30.2572ZM24.0407 32.5399L25.5125 32.8663L24.0407 32.5399ZM20.3402 37.5767L19.5884 36.27L19.0124 36.6014L18.8684 37.2503L20.3402 37.5767ZM19.3983 41.8236L19.0718 43.2954L20.5436 43.6218L20.87 42.15L19.3983 41.8236ZM9.92454 39.7224L8.45277 39.3959L8.12634 40.8677L9.59811 41.1941L9.92454 39.7224ZM10.7371 36.0589L12.2088 36.3853L12.3773 35.6258L11.8559 35.0485L10.7371 36.0589ZM8.91985 29.1861L7.44808 28.8597L8.91985 29.1861ZM9.59803 26.1284L11.0698 26.4549L11.3642 25.1274L10.074 24.698L9.59803 26.1284ZM3.43796 14.8304L1.97733 14.4573L3.43796 14.8304ZM14.9281 8.01617L15.3012 6.55554L15.3012 6.55554L14.9281 8.01617ZM15.3027 8.11996L14.8708 9.56431L15.5913 9.77976L16.1968 9.33367L15.3027 8.11996ZM23.2481 6.56974L23.6212 5.10911L23.2481 6.56974ZM20.0399 25.1292L21.4547 24.6088L21.1267 23.717L20.1806 23.6283L20.0399 25.1292ZM18.5722 24.8741L18.1991 26.3347L18.1991 26.3347L18.5722 24.8741ZM20.127 25.357L19.8006 26.8288L22.5787 27.445L21.528 24.8004L20.127 25.357ZM18.029 24.8917L17.1616 23.6587L14.3682 25.6239L17.7026 26.3635L18.029 24.8917ZM18.1976 24.7703L18.6295 23.326L17.9089 23.1105L17.3034 23.5566L18.1976 24.7703ZM29.6387 13.97C30.0482 14.0083 30.4609 14.0792 30.8739 14.1847L31.6202 11.2635C31.054 11.1189 30.4859 11.0211 29.9201 10.9681L29.6387 13.97ZM30.8739 14.1847C35.1219 15.2699 37.6858 19.5932 36.6007 23.8411L39.5219 24.5873C41.0192 18.726 37.4815 12.7608 31.6202 11.2635L30.8739 14.1847ZM36.6007 23.8411C35.5155 28.089 31.1922 30.653 26.9443 29.5678L26.1981 32.4891C32.0594 33.9864 38.0246 30.4486 39.5219 24.5873L36.6007 23.8411ZM26.9443 29.5678C26.3394 29.4133 25.7703 29.1939 25.2419 28.9194L23.8522 31.5951C24.5836 31.975 25.3684 32.2772 26.1981 32.4891L26.9443 29.5678ZM23.0753 29.9308L22.569 32.2135L25.5125 32.8663L26.0188 30.5837L23.0753 29.9308ZM22.569 32.2135C22.174 33.9941 21.0566 35.4254 19.5884 36.27L21.092 38.8835C23.2633 37.6343 24.9266 35.5079 25.5125 32.8663L22.569 32.2135ZM18.8684 37.2503L17.9265 41.4972L20.87 42.15L21.812 37.9032L18.8684 37.2503ZM19.7247 40.3518L10.251 38.2506L9.59811 41.1941L19.0718 43.2954L19.7247 40.3518ZM11.3963 40.0488L12.2088 36.3853L9.26532 35.7325L8.45277 39.3959L11.3963 40.0488ZM11.8559 35.0485C10.5454 33.5974 9.93729 31.5609 10.3916 29.5126L7.44808 28.8597C6.77348 31.9012 7.68164 34.925 9.6183 37.0693L11.8559 35.0485ZM10.3916 29.5126L11.0698 26.4549L8.12627 25.802L7.44808 28.8597L10.3916 29.5126ZM10.074 24.698C6.15915 23.3952 3.86126 19.2643 4.89858 15.2035L1.97733 14.4573C0.545654 20.0618 3.71684 25.7601 9.12201 27.5588L10.074 24.698ZM4.89858 15.2035C5.98372 10.9556 10.307 8.39166 14.5549 9.4768L15.3012 6.55554C9.43989 5.05827 3.4746 8.59601 1.97733 14.4573L4.89858 15.2035ZM14.5549 9.4768C14.6614 9.50398 14.7667 9.53317 14.8708 9.56431L15.7345 6.67562C15.5915 6.63284 15.447 6.5928 15.3012 6.55554L14.5549 9.4768ZM16.1968 9.33367C18.0508 7.96777 20.4743 7.41712 22.875 8.03036L23.6212 5.10911C20.3075 4.26261 16.9593 5.027 14.4085 6.90626L16.1968 9.33367ZM22.875 8.03036C25.5055 8.70233 27.4913 10.6149 28.3645 12.9894L31.1943 11.9486C29.9931 8.68246 27.2539 6.03708 23.6212 5.10911L22.875 8.03036ZM20.1806 23.6283C19.771 23.5899 19.3583 23.519 18.9453 23.4135L18.1991 26.3347C18.7652 26.4793 19.3334 26.5771 19.8992 26.6302L20.1806 23.6283ZM21.528 24.8004C21.5028 24.7369 21.4784 24.6731 21.4547 24.6088L18.625 25.6496C18.6575 25.738 18.6912 25.8261 18.726 25.9137L21.528 24.8004ZM17.7026 26.3635L19.8006 26.8288L20.4534 23.8853L18.3554 23.4199L17.7026 26.3635ZM17.3034 23.5566C17.2565 23.5912 17.2092 23.6252 17.1616 23.6587L18.8964 26.1247C18.9621 26.0785 19.0272 26.0316 19.0918 25.984L17.3034 23.5566ZM18.9453 23.4135C18.8389 23.3863 18.7336 23.3571 18.6295 23.326L17.7657 26.2146C17.9088 26.2574 18.0533 26.2975 18.1991 26.3347L18.9453 23.4135Z" fill="white" mask="url(#path-2-outside-1_1609_89775)"/>
</g>
<path id="Union" fill-rule="evenodd" clip-rule="evenodd" d="M20.012 37.7284C21.8055 36.7354 23.1808 35.0072 23.6596 32.8485L25.0668 26.5039L10.5977 23.2947L9.19045 29.6392C8.634 32.1481 9.42076 34.6419 11.0725 36.3698L10.0001 41.2046L18.8077 43.1581L20.012 37.7284Z" fill="#FFB07D"/>
<path id="Union_2" fill-rule="evenodd" clip-rule="evenodd" d="M20.012 37.7284C21.8055 36.7354 23.1808 35.0072 23.6596 32.8485L25.0668 26.5039L10.5977 23.2947L9.19045 29.6392C8.634 32.1481 9.42076 34.6419 11.0725 36.3698L10.0001 41.2046L18.8077 43.1581L20.012 37.7284Z" fill="#FFB07D"/>
<g id="Group 1171275047">
<circle id="Ellipse 932" cx="29.0174" cy="21.851" r="9.44607" transform="rotate(14.3298 29.0174 21.851)" fill="#E23D29"/>
<g id="Group 1171275041">
<path id="Union_3" fill-rule="evenodd" clip-rule="evenodd" d="M28.9691 16.6104L31.6048 17.2836L31.4498 17.8904C33.9508 18.701 34.4231 19.5285 33.9605 21.3396L31.3459 20.6717C31.4429 20.2922 31.3518 20.0331 29.412 19.5375C27.5354 19.0582 27.3557 19.1021 27.2857 19.3762C27.2557 19.5816 27.3895 19.6273 29.1979 20.2457L29.2078 20.2491L29.3322 20.292C33.2407 21.64 34.0897 21.9329 33.6073 23.8212C33.1869 25.4668 32.5171 25.841 29.583 25.2054L29.3328 26.1847L26.6972 25.5114L26.9451 24.5411C24.0726 23.7163 23.7213 23.0859 24.2152 21.1524L26.756 21.8015C26.6429 22.2443 26.7952 22.3955 28.6823 22.8775L28.8394 22.9177C30.4758 23.336 30.6642 23.3842 30.7478 23.057C30.7951 22.8718 30.6566 22.8253 29.6319 22.4813C29.3733 22.3945 29.0582 22.2888 28.6754 22.157C25.7328 21.147 24.2418 20.6089 24.7292 18.7007C25.2244 16.7621 26.323 16.619 28.8219 17.1868L28.9691 16.6104Z" fill="black"/>
</g>
</g>
<circle id="Ellipse 932_2" cx="12.6678" cy="17.1525" r="9.44607" transform="rotate(14.3298 12.6678 17.1525)" fill="#FF3377"/>
<g id="Group 1171275041_2">
<path id="Union_4" fill-rule="evenodd" clip-rule="evenodd" d="M12.6193 11.9118L15.255 12.5851L15.0999 13.1923C17.5994 14.0028 18.0714 14.8303 17.6088 16.641L14.9943 15.9731C15.0912 15.5935 15.0002 15.3344 13.0603 14.8389C11.1838 14.3595 11.0041 14.4035 10.934 14.6776C10.904 14.8829 11.0378 14.9287 12.8463 15.5471L12.8561 15.5504L12.9806 15.5934C16.889 16.9414 17.738 17.2342 17.2557 19.1225C16.8354 20.7678 16.1657 21.1422 13.2328 20.5071L12.9828 21.486L10.3471 20.8127L10.5948 19.8429C7.72111 19.0178 7.36961 18.3876 7.8636 16.4538L10.4044 17.1028C10.2913 17.5456 10.4435 17.6968 12.3307 18.1789L12.4878 18.2191C14.1242 18.6374 14.3126 18.6856 14.3962 18.3584C14.4435 18.1732 14.305 18.1267 13.2802 17.7827L13.2802 17.7827C13.0216 17.6959 12.7065 17.5901 12.3238 17.4584C9.38111 16.4484 7.89014 15.9103 8.37759 14.0021C8.87292 12.063 9.9719 11.9203 12.472 12.4886L12.6193 11.9118Z" fill="black"/>
</g>
<circle id="Ellipse 932_3" cx="20.91" cy="15.7223" r="9.44607" transform="rotate(14.3298 20.91 15.7223)" fill="#B74800"/>
<g id="Mask group_2">
<mask id="mask1_1609_89775" style="mask-type:alpha" maskUnits="userSpaceOnUse" x="11" y="6" width="20" height="20">
<circle id="Ellipse 937" cx="20.91" cy="15.722" r="9.44607" transform="rotate(14.3298 20.91 15.722)" fill="#B74800"/>
</mask>
<g mask="url(#mask1_1609_89775)">
<circle id="Ellipse 936" cx="20.0369" cy="15.3578" r="9.44607" transform="rotate(14.3298 20.0369 15.3578)" fill="#FF7300"/>
</g>
</g>
<g id="Group 1171275041_3">
<path id="Union_5" fill-rule="evenodd" clip-rule="evenodd" d="M21.2115 9.74011L23.7958 10.5895L23.6004 11.1839C26.0415 12.1613 26.457 13.0187 25.8733 14.7946L23.3097 13.9521C23.432 13.5799 23.3587 13.3153 21.4566 12.6901C19.6166 12.0854 19.4344 12.1171 19.346 12.3859C19.3022 12.5887 19.4327 12.6434 21.1953 13.3823L21.2049 13.3863L21.3262 13.4375C25.1349 15.0459 25.9623 15.3952 25.3537 17.2468C24.8234 18.8604 24.1298 19.1886 21.2445 18.3564L20.9288 19.3169L18.3446 18.4676L18.6574 17.5158C15.8478 16.4995 15.5399 15.8468 16.1629 13.9512L18.6541 14.77C18.5114 15.2041 18.6532 15.3652 20.5035 15.9734L20.6576 16.024C22.2621 16.5517 22.4468 16.6124 22.5522 16.2916C22.6119 16.1101 22.4769 16.0543 21.4776 15.6421C21.2255 15.538 20.9183 15.4113 20.5452 15.254C17.6773 14.048 16.226 13.4107 16.8409 11.5397C17.4656 9.63897 18.5712 9.57008 21.0259 10.3049L21.2115 9.74011Z" fill="black"/>
</g>
<path id="Rectangle 3467956" d="M17.9899 17.8128C18.8088 16.4264 20.6082 15.9732 21.9946 16.7921C23.381 17.611 23.8527 19.4056 23.0338 20.792L16.9006 31.1757L11.8567 28.1964L17.9899 17.8128Z" fill="#FFB07D"/>
<ellipse id="Ellipse 935" cx="18.3981" cy="27.2829" rx="3.83935" ry="3.43892" transform="rotate(12.5056 18.3981 27.2829)" fill="#FFB07D"/>
<g id="Group 1171275050">
<path id="Rectangle 3467960_2" d="M12.6561 27.412L18.2415 17.9558C18.9916 16.6859 20.629 16.2645 21.8989 17.0146V17.0146C23.1687 17.7646 23.5901 19.4021 22.8401 20.6719L22.4623 21.3115L20.1711 25.1898" stroke="#B74800" stroke-width="0.971818"/>
<path id="Ellipse 936_2" d="M17.4106 30.4717C19.0306 31.2825 20.9888 30.6513 21.7842 29.0619C22.5796 27.4726 21.9111 25.5268 20.291 24.7161" stroke="#B74800" stroke-width="0.971818"/>
</g>
<path id="Union_6" d="M24.3143 29.8988L23.6601 32.8486C23.1813 35.007 21.8064 36.7349 20.0134 37.728L18.8091 43.1579M9.9668 26.1411L9.19089 29.6394C8.63435 32.1486 9.42143 34.6428 11.0736 36.3707L10.0015 41.2044" stroke="#B74800" stroke-width="0.971818"/>
</g>
</g>
</g>
</svg>
