<svg width="40" height="40" viewBox="0 0 40 40" fill="none" xmlns="http://www.w3.org/2000/svg">
<g id="Mask group">
<mask id="mask0_1609_88823" style="mask-type:alpha" maskUnits="userSpaceOnUse" x="0" y="0" width="40" height="40">
<g id="Rectangle 3467966">
<rect width="40" height="40" fill="#191919"/>
<rect width="40" height="40" fill="white" fill-opacity="0.05"/>
</g>
</mask>
<g mask="url(#mask0_1609_88823)">
<g id="Group 1171275068">
<g id="Union">
<mask id="path-2-outside-1_1609_88823" maskUnits="userSpaceOnUse" x="3.94824" y="1.49405" width="29.6278" height="38.1387" fill="black">
<rect fill="white" x="3.94824" y="1.49405" width="29.6278" height="38.1387"/>
<path fill-rule="evenodd" clip-rule="evenodd" d="M27.6798 6.30709C30.7912 7.84018 30.9762 15.4093 27.4303 22.6053C27.3829 22.7016 27.3319 22.8033 27.2778 22.9099L28.3253 26.5031C28.3714 26.6613 28.3624 26.8306 28.2998 26.9831L25.8874 32.8602C25.7758 33.1322 25.4036 33.1681 25.2415 32.9227C24.6639 32.0484 23.5423 30.3835 22.6739 29.2951C22.1391 29.3033 21.65 29.2858 21.1942 29.2445C21.2215 29.9642 21.0773 30.6947 20.7404 31.3783C19.614 33.6643 14.0367 36.4723 13.0775 35.9996C12.1183 35.527 10.9467 29.3936 12.0731 27.1076C12.407 26.4299 12.8927 25.8743 13.4733 25.4586C13.1525 25.1138 12.8304 24.7258 12.5004 24.2823C11.1082 24.2569 9.10572 24.3819 8.06091 24.4566C7.7676 24.4775 7.56928 24.1606 7.71695 23.9063L10.9074 18.4126C10.9901 18.27 11.1189 18.1598 11.2725 18.0999L14.759 16.7416C14.8105 16.6338 14.8601 16.5315 14.9075 16.4353C18.4531 9.23913 24.5678 4.77409 27.6791 6.30718L18.423 25.0924C18.4232 25.0925 18.4233 25.0926 18.4235 25.0927L27.6798 6.30709Z"/>
</mask>
<path fill-rule="evenodd" clip-rule="evenodd" d="M27.6798 6.30709C30.7912 7.84018 30.9762 15.4093 27.4303 22.6053C27.3829 22.7016 27.3319 22.8033 27.2778 22.9099L28.3253 26.5031C28.3714 26.6613 28.3624 26.8306 28.2998 26.9831L25.8874 32.8602C25.7758 33.1322 25.4036 33.1681 25.2415 32.9227C24.6639 32.0484 23.5423 30.3835 22.6739 29.2951C22.1391 29.3033 21.65 29.2858 21.1942 29.2445C21.2215 29.9642 21.0773 30.6947 20.7404 31.3783C19.614 33.6643 14.0367 36.4723 13.0775 35.9996C12.1183 35.527 10.9467 29.3936 12.0731 27.1076C12.407 26.4299 12.8927 25.8743 13.4733 25.4586C13.1525 25.1138 12.8304 24.7258 12.5004 24.2823C11.1082 24.2569 9.10572 24.3819 8.06091 24.4566C7.7676 24.4775 7.56928 24.1606 7.71695 23.9063L10.9074 18.4126C10.9901 18.27 11.1189 18.1598 11.2725 18.0999L14.759 16.7416C14.8105 16.6338 14.8601 16.5315 14.9075 16.4353C18.4531 9.23913 24.5678 4.77409 27.6791 6.30718L18.423 25.0924C18.4232 25.0925 18.4233 25.0926 18.4235 25.0927L27.6798 6.30709Z" fill="white"/>
<path d="M27.4303 22.6053L28.6413 23.2021L28.6413 23.202L27.4303 22.6053ZM27.6798 6.30709L28.2765 5.09611C27.6077 4.76657 26.7984 5.0416 26.4689 5.7104L27.6798 6.30709ZM27.2778 22.9099L26.0742 22.2984C25.9187 22.6044 25.8857 22.9582 25.9817 23.2877L27.2778 22.9099ZM28.3253 26.5031L29.6213 26.1253L29.6213 26.1253L28.3253 26.5031ZM28.2998 26.9831L27.051 26.4705L27.0509 26.4705L28.2998 26.9831ZM25.8874 32.8602L24.6385 32.3476L25.8874 32.8602ZM25.2415 32.9227L26.3679 32.1786L26.3679 32.1786L25.2415 32.9227ZM22.6739 29.2951L23.7291 28.4531C23.4684 28.1264 23.0711 27.9389 22.6532 27.9453L22.6739 29.2951ZM21.1942 29.2445L21.316 27.9C20.9295 27.865 20.5465 27.998 20.265 28.2652C19.9834 28.5324 19.8305 28.9078 19.8452 29.2957L21.1942 29.2445ZM20.7404 31.3783L21.9514 31.975L20.7404 31.3783ZM13.0775 35.9996L12.4808 37.2106L13.0775 35.9996ZM12.0731 27.1076L13.284 27.7043L12.0731 27.1076ZM13.4733 25.4586L14.2592 26.5562C14.5747 26.3303 14.7778 25.9795 14.8165 25.5934C14.8553 25.2073 14.726 24.8231 14.4616 24.539L13.4733 25.4586ZM12.5004 24.2823L13.5833 23.4763C13.3338 23.141 12.9429 22.9402 12.525 22.9325L12.5004 24.2823ZM8.06091 24.4566L8.15713 25.8031L8.15713 25.8031L8.06091 24.4566ZM7.71695 23.9063L8.88437 24.5842L8.88437 24.5842L7.71695 23.9063ZM10.9074 18.4126L9.73994 17.7346L9.73994 17.7346L10.9074 18.4126ZM11.2725 18.0999L10.7824 16.842L10.7824 16.842L11.2725 18.0999ZM14.759 16.7416L15.2491 17.9995C15.5689 17.8749 15.8293 17.6331 15.9772 17.3234L14.759 16.7416ZM14.9075 16.4353L13.6965 15.8386L13.6965 15.8386L14.9075 16.4353ZM27.6791 6.30718L28.8901 6.90387C29.2197 6.23507 28.9446 5.42575 28.2758 5.09621L27.6791 6.30718ZM18.423 25.0924L17.212 24.4958C17.0536 24.8171 17.0295 25.1883 17.145 25.5275C17.2605 25.8667 17.506 26.146 17.8276 26.3041L18.423 25.0924ZM18.4235 25.0927L17.8281 26.3043C18.4968 26.6329 19.3052 26.3577 19.6345 25.6894L18.4235 25.0927ZM28.6413 23.202C30.4945 19.4412 31.3929 15.5482 31.4016 12.3363C31.4059 10.7324 31.1885 9.24115 30.712 8.00349C30.2375 6.77114 29.4587 5.67861 28.2765 5.09611L27.0831 7.51806C27.4567 7.70211 27.8677 8.13064 28.1923 8.97355C28.5147 9.81116 28.7053 10.9494 28.7016 12.329C28.6941 15.0838 27.9121 18.5735 26.2194 22.0086L28.6413 23.202ZM28.4814 23.5213C28.5377 23.4105 28.5912 23.3038 28.6413 23.2021L26.2194 22.0086C26.1746 22.0994 26.1261 22.1962 26.0742 22.2984L28.4814 23.5213ZM29.6213 26.1253L28.5739 22.5321L25.9817 23.2877L27.0292 26.8809L29.6213 26.1253ZM29.5487 27.4957C29.7274 27.0603 29.753 26.5771 29.6213 26.1253L27.0292 26.8809C26.9898 26.7456 26.9974 26.6009 27.051 26.4705L29.5487 27.4957ZM27.1363 33.3728L29.5487 27.4957L27.0509 26.4705L24.6385 32.3476L27.1363 33.3728ZM24.1151 33.6669C24.873 34.8141 26.6118 34.6506 27.1363 33.3728L24.6385 32.3476C24.9397 31.6138 25.9342 31.5221 26.3679 32.1786L24.1151 33.6669ZM21.6186 30.1371C22.4445 31.1722 23.5356 32.7897 24.1151 33.6669L26.3679 32.1786C25.7922 31.3072 24.6401 29.5948 23.7291 28.4531L21.6186 30.1371ZM21.0724 30.589C21.5807 30.635 22.1176 30.6538 22.6945 30.645L22.6532 27.9453C22.1605 27.9528 21.7194 27.9365 21.316 27.9L21.0724 30.589ZM19.8452 29.2957C19.8643 29.799 19.7638 30.3059 19.5294 30.7817L21.9514 31.975C22.3907 31.0834 22.5788 30.1294 22.5432 29.1933L19.8452 29.2957ZM19.5294 30.7817C19.3732 31.0988 18.9862 31.5572 18.3411 32.0921C17.721 32.6063 16.9591 33.1122 16.1857 33.5462C15.4102 33.9813 14.6627 34.3219 14.0817 34.5219C13.7879 34.6231 13.5739 34.6753 13.4408 34.6947C13.2367 34.7245 13.4018 34.6544 13.6742 34.7887L12.4808 37.2106C12.993 37.463 13.5422 37.4085 13.8311 37.3663C14.1911 37.3138 14.579 37.2063 14.9605 37.0749C15.7302 36.8099 16.6273 36.3944 17.5069 35.9008C18.3884 35.4062 19.2921 34.811 20.0645 34.1705C20.8119 33.5508 21.5444 32.8009 21.9514 31.975L19.5294 30.7817ZM13.6742 34.7887C13.9466 34.9229 13.9916 35.0965 13.8909 34.9165C13.8252 34.7991 13.7362 34.5976 13.6374 34.303C13.442 33.7204 13.2567 32.9201 13.1292 32.0401C13.0021 31.1624 12.9391 30.2501 12.969 29.4451C13.0001 28.6076 13.1278 28.0215 13.284 27.7043L10.8621 26.511C10.4552 27.3368 10.3069 28.3746 10.2708 29.3448C10.2336 30.3475 10.3122 31.4267 10.4571 32.4271C10.6017 33.4253 10.8187 34.3899 11.0776 35.1616C11.2059 35.5442 11.357 35.9173 11.5346 36.2348C11.6771 36.4895 11.9686 36.9582 12.4808 37.2106L13.6742 34.7887ZM13.284 27.7043C13.5164 27.2327 13.8533 26.8469 14.2592 26.5562L12.6873 24.361C11.9321 24.9017 11.2976 25.6272 10.8621 26.511L13.284 27.7043ZM14.4616 24.539C14.1781 24.2343 13.8874 23.8849 13.5833 23.4763L11.4174 25.0883C11.7734 25.5668 12.1268 25.9933 12.4849 26.3782L14.4616 24.539ZM12.525 22.9325C11.0647 22.9059 9.0061 23.0356 7.96468 23.11L8.15713 25.8031C9.20535 25.7282 11.1518 25.6079 12.4757 25.6321L12.525 22.9325ZM7.96469 23.11C8.74952 23.0539 9.28267 23.8984 8.88437 24.5842L6.54953 23.2283C5.85588 24.4228 6.78568 25.9011 8.15713 25.8031L7.96469 23.11ZM8.88437 24.5842L12.0748 19.0905L9.73994 17.7346L6.54953 23.2283L8.88437 24.5842ZM12.0748 19.0905C12.004 19.2124 11.8939 19.3066 11.7626 19.3578L10.7824 16.842C10.3439 17.0129 9.9763 17.3276 9.73994 17.7346L12.0748 19.0905ZM11.7626 19.3578L15.2491 17.9995L14.2689 15.4837L10.7824 16.842L11.7626 19.3578ZM15.9772 17.3234C16.0266 17.22 16.0738 17.1227 16.1185 17.032L13.6965 15.8386C13.6464 15.9403 13.5944 16.0476 13.5408 16.1597L15.9772 17.3234ZM16.1185 17.032C17.811 13.5967 20.1016 10.8504 22.2816 9.16603C23.3732 8.32255 24.3919 7.78013 25.2526 7.5255C26.1187 7.26925 26.7089 7.33411 27.0825 7.51816L28.2758 5.09621C27.0937 4.51371 25.7528 4.5618 24.4865 4.93644C23.2148 5.31269 21.8999 6.04884 20.6307 7.02951C18.0891 8.9934 15.5495 12.0777 13.6965 15.8386L16.1185 17.032ZM26.4682 5.71049L17.212 24.4958L19.634 25.6891L28.8901 6.90387L26.4682 5.71049ZM17.8276 26.3041C17.8307 26.3056 17.8332 26.3068 17.8348 26.3076C17.8356 26.308 17.8362 26.3083 17.8366 26.3085C17.8369 26.3086 17.837 26.3086 17.8371 26.3087C17.8372 26.3087 17.8372 26.3087 17.8373 26.3088C17.8373 26.3088 17.8373 26.3088 17.8373 26.3088C17.8376 26.3089 17.8364 26.3083 17.8351 26.3077C17.8336 26.307 17.8311 26.3058 17.8281 26.3043L19.0189 23.8811C19.0158 23.8796 19.0133 23.8783 19.0117 23.8776C19.0109 23.8772 19.0102 23.8769 19.0098 23.8767C19.0096 23.8766 19.0095 23.8765 19.0094 23.8764C19.0093 23.8764 19.0093 23.8764 19.0092 23.8764C19.0092 23.8764 19.0092 23.8764 19.0092 23.8764C19.0089 23.8762 19.0101 23.8768 19.0114 23.8774C19.0129 23.8782 19.0154 23.8793 19.0184 23.8808L17.8276 26.3041ZM26.4689 5.7104L17.2125 24.496L19.6345 25.6894L28.8908 6.90378L26.4689 5.7104Z" fill="white" mask="url(#path-2-outside-1_1609_88823)"/>
</g>
<g id="Group 1171275063">
<path id="Vector 109" d="M11.3279 18.1034L15.0164 16.6663C15.2958 16.5575 15.5802 16.8122 15.4998 17.1011C15.1058 18.5152 14.1992 21.7732 13.5768 24.0375C13.5289 24.2115 13.3617 24.3236 13.1817 24.3111C11.8428 24.2182 9.33163 24.3732 8.1163 24.46C7.82299 24.481 7.62467 24.164 7.77235 23.9097L10.9628 18.416C11.0455 18.2734 11.1743 18.1632 11.3279 18.1034Z" fill="#EB4A1C"/>
<path id="Vector 111" d="M28.3826 26.5066L27.2747 22.7063C27.1908 22.4184 26.8155 22.3481 26.6355 22.5879C25.7542 23.7618 23.7231 26.4658 22.3069 28.339C22.1981 28.4829 22.2111 28.6838 22.3307 28.8189C23.2201 29.8241 24.6272 31.9097 25.2989 32.9263C25.461 33.1716 25.8331 33.1358 25.9448 32.8638L28.3572 26.9867C28.4198 26.8342 28.4287 26.6649 28.3826 26.5066Z" fill="#EB4A1C"/>
<g id="Group 1171275061">
<path id="Ellipse 946" d="M20.6942 31.5315C19.5678 33.8174 13.9906 36.6254 13.0313 36.1527C12.0721 35.6801 10.9005 29.5467 12.0269 27.2607C13.1533 24.9747 16.0067 24.0776 18.4001 25.2569C20.7935 26.4363 21.8206 29.2455 20.6942 31.5315Z" fill="#FF9A13"/>
<path id="Ellipse 945" d="M19.727 30.0322C18.8569 31.7982 15.6694 32.4508 15.0139 32.1278C14.3584 31.8048 12.9438 28.8593 13.8039 27.1137C14.3965 25.911 16.2029 25.5894 17.8385 26.3953C19.4741 27.2012 20.3196 28.8295 19.727 30.0322Z" fill="#FFD60C"/>
</g>
<g id="Mask group_2">
<mask id="mask1_1609_88823" style="mask-type:alpha" maskUnits="userSpaceOnUse" x="12" y="6" width="19" height="24">
<path id="Union_2" fill-rule="evenodd" clip-rule="evenodd" d="M27.6352 6.46035C30.7466 7.99344 30.9316 15.5626 27.3857 22.7586C26.3701 24.8197 23.7322 29.4093 23.0934 29.4353C20.3654 29.5462 18.8013 29.0383 16.9578 28.13L27.6352 6.46035ZM27.6339 6.46017C24.5226 4.92708 18.4079 9.39212 14.8623 16.5883C13.8467 18.6494 11.8146 23.5375 12.1832 24.0599C13.7573 26.2906 15.1131 27.2215 16.9566 28.1298L27.6339 6.46017Z" fill="#0279FE"/>
</mask>
<g mask="url(#mask1_1609_88823)">
<path id="Union_3" fill-rule="evenodd" clip-rule="evenodd" d="M27.6352 6.46035C30.7466 7.99344 30.9316 15.5626 27.3857 22.7586C26.3701 24.8197 23.7322 29.4093 23.0934 29.4353C20.3654 29.5462 18.8013 29.0383 16.9578 28.13L27.6352 6.46035ZM27.6339 6.46017C24.5226 4.92708 18.4079 9.39212 14.8623 16.5883C13.8467 18.6494 11.8146 23.5375 12.1832 24.0599C13.7573 26.2906 15.1131 27.2215 16.9566 28.1298L27.6339 6.46017Z" fill="#0279FE"/>
<ellipse id="Ellipse 943" cx="26.8145" cy="8.12695" rx="6.82358" ry="2.62876" transform="rotate(26.2311 26.8145 8.12695)" fill="#EB4A1C"/>
</g>
</g>
<path id="Union_4" d="M20.4227 20.6278C18.9561 21.6049 15.1293 26.1372 15.0527 27.0933C14.9808 27.9922 15.5744 28.968 16.0007 29.497C16.112 29.6351 16.2774 29.7166 16.4547 29.7207C17.134 29.7364 18.2695 29.6126 18.9384 29.0079C19.6499 28.3647 20.9121 22.5687 20.7934 20.8104C20.78 20.6126 20.5877 20.5179 20.4227 20.6278Z" fill="#EB4A1C"/>
<circle id="Ellipse 941" cx="22.6847" cy="15.7244" r="4.41935" transform="rotate(26.2311 22.6847 15.7244)" fill="#EB4A1C"/>
<circle id="Ellipse 942" cx="22.6832" cy="15.7246" r="3.21407" transform="rotate(26.2311 22.6832 15.7246)" fill="#191919"/>
<ellipse id="Ellipse 920" cx="21.9414" cy="13.967" rx="0.55182" ry="1.00178" transform="rotate(62.5603 21.9414 13.967)" fill="white"/>
</g>
</g>
</g>
</g>
</svg>
