<svg width="40" height="40" viewBox="0 0 40 40" fill="none" xmlns="http://www.w3.org/2000/svg">
<g id="Mask group">
<mask id="mask0_1609_88925" style="mask-type:alpha" maskUnits="userSpaceOnUse" x="0" y="0" width="40" height="40">
<g id="Rectangle 3467969">
<rect width="40" height="40" fill="#191919"/>
<rect width="40" height="40" fill="white" fill-opacity="0.05"/>
</g>
</mask>
<g mask="url(#mask0_1609_88925)">
<g id="Mask group_2">
<g id="Group 1171275073">
<g id="Group 1171275071">
<g id="Group 1171275070">
<g id="Union">
<mask id="path-2-outside-1_1609_88925" maskUnits="userSpaceOnUse" x="4.61719" y="11.8987" width="31" height="33" fill="black">
<rect fill="white" x="4.61719" y="11.8987" width="31" height="33"/>
<path fill-rule="evenodd" clip-rule="evenodd" d="M31.8687 26.0212C31.8738 25.8808 31.8763 25.7399 31.8763 25.5983C31.8763 19.1368 27.4323 13.8987 19.9953 13.8987C12.5584 13.8987 8.11433 19.1368 8.11433 25.5983C8.11433 25.7897 8.119 25.9801 8.12823 26.1693C6.96525 27.2068 6.61719 28.4919 6.61719 29.8835C6.61719 31.3882 7.76834 32.7683 9.68516 33.8455C10.6465 38.8516 15.0496 42.6338 20.3361 42.6338C25.7409 42.6338 30.2223 38.6804 31.0463 33.5076C32.6246 32.4862 33.5535 31.2351 33.5535 29.8835C33.5535 28.4249 33.1711 27.0832 31.8687 26.0212Z"/>
</mask>
<path fill-rule="evenodd" clip-rule="evenodd" d="M31.8687 26.0212C31.8738 25.8808 31.8763 25.7399 31.8763 25.5983C31.8763 19.1368 27.4323 13.8987 19.9953 13.8987C12.5584 13.8987 8.11433 19.1368 8.11433 25.5983C8.11433 25.7897 8.119 25.9801 8.12823 26.1693C6.96525 27.2068 6.61719 28.4919 6.61719 29.8835C6.61719 31.3882 7.76834 32.7683 9.68516 33.8455C10.6465 38.8516 15.0496 42.6338 20.3361 42.6338C25.7409 42.6338 30.2223 38.6804 31.0463 33.5076C32.6246 32.4862 33.5535 31.2351 33.5535 29.8835C33.5535 28.4249 33.1711 27.0832 31.8687 26.0212Z" fill="white"/>
<path d="M31.8687 26.0212L30.4696 25.9707L30.4445 26.6663L30.984 27.1061L31.8687 26.0212ZM8.12823 26.1693L9.06019 27.214L9.55916 26.7689L9.52656 26.1011L8.12823 26.1693ZM9.68516 33.8455L11.06 33.5815L10.9375 32.9434L10.371 32.625L9.68516 33.8455ZM31.0463 33.5076L30.2857 32.3322L29.7619 32.6712L29.6637 33.2873L31.0463 33.5076ZM30.4763 25.5983C30.4763 25.723 30.4741 25.8472 30.4696 25.9707L33.2678 26.0716C33.2735 25.9145 33.2763 25.7567 33.2763 25.5983H30.4763ZM19.9953 15.2987C23.3693 15.2987 25.9637 16.4782 27.7167 18.297C29.4789 20.1253 30.4763 22.6892 30.4763 25.5983H33.2763C33.2763 22.0459 32.0517 18.7599 29.7327 16.3539C27.4044 13.9382 24.0584 12.4987 19.9953 12.4987V15.2987ZM9.51433 25.5983C9.51433 22.6892 10.5117 20.1253 12.274 18.297C14.0269 16.4782 16.6214 15.2987 19.9953 15.2987V12.4987C15.9323 12.4987 12.5863 13.9382 10.258 16.3539C7.93892 18.7599 6.71433 22.0459 6.71433 25.5983H9.51433ZM9.52656 26.1011C9.51844 25.9346 9.51433 25.767 9.51433 25.5983H6.71433C6.71433 25.8125 6.71955 26.0256 6.72989 26.2376L9.52656 26.1011ZM7.19627 25.1246C5.64335 26.5099 5.21719 28.2358 5.21719 29.8835H8.01719C8.01719 28.748 8.28715 27.9036 9.06019 27.214L7.19627 25.1246ZM5.21719 29.8835C5.21719 32.1583 6.93385 33.9053 8.99927 35.066L10.371 32.625C8.60284 31.6314 8.01719 30.6181 8.01719 29.8835H5.21719ZM8.31028 34.1095C9.39585 39.7625 14.3656 44.0338 20.3361 44.0338V41.2338C15.7335 41.2338 11.8971 37.9406 11.06 33.5815L8.31028 34.1095ZM20.3361 44.0338C26.4398 44.0338 31.4983 39.5695 32.4289 33.7278L29.6637 33.2873C28.9463 37.7913 25.0419 41.2338 20.3361 41.2338V44.0338ZM31.8069 34.683C33.556 33.5511 34.9535 31.9292 34.9535 29.8835H32.1535C32.1535 30.541 31.6933 31.4214 30.2857 32.3322L31.8069 34.683ZM34.9535 29.8835C34.9535 28.1481 34.4792 26.3434 32.7535 24.9362L30.984 27.1061C31.8631 27.8231 32.1535 28.7016 32.1535 29.8835H34.9535Z" fill="white" mask="url(#path-2-outside-1_1609_88925)"/>
</g>
<path id="Ellipse 948" d="M31.8753 25.5983C31.8753 32.0598 26.556 37.2979 19.9943 37.2979C13.4326 37.2979 8.11328 32.0598 8.11328 25.5983C8.11328 19.1368 12.5573 13.8987 19.9943 13.8987C27.4313 13.8987 31.8753 19.1368 31.8753 25.5983Z" fill="#5F7C41"/>
<g id="Mask group_3">
<mask id="mask1_1609_88925" style="mask-type:alpha" maskUnits="userSpaceOnUse" x="6" y="23" width="28" height="14">
<path id="Ellipse 948_2" d="M33.5535 29.8837C33.5535 33.3273 27.5236 36.119 20.0854 36.119C12.6471 36.119 6.61719 33.3273 6.61719 29.8837C6.61719 26.4401 8.74851 23.6484 20.0854 23.6484C31.4222 23.6484 33.5535 26.4401 33.5535 29.8837Z" fill="#D9D9D9"/>
</mask>
<g mask="url(#mask1_1609_88925)">
<path id="Ellipse 951" d="M33.5535 29.8837C33.5535 33.3273 27.5236 36.119 20.0854 36.119C12.6471 36.119 6.61719 33.3273 6.61719 29.8837C6.61719 26.4401 8.74851 23.6484 20.0854 23.6484C31.4222 23.6484 33.5535 26.4401 33.5535 29.8837Z" fill="#9FD06D"/>
<path id="Ellipse 949" opacity="0.5" d="M33.5535 32.0956C33.5535 35.5393 27.5236 38.3309 20.0854 38.3309C12.6471 38.3309 6.61719 35.5393 6.61719 32.0956C6.61719 28.652 8.74851 25.8604 20.0854 25.8604C31.4222 25.8604 33.5535 28.652 33.5535 32.0956Z" fill="#393737"/>
<path id="Ellipse 950" opacity="0.5" d="M34.96 31.7882C34.96 35.2319 28.4124 38.0235 20.3355 38.0235C12.2586 38.0235 5.71094 35.2319 5.71094 31.7882C5.71094 28.3446 8.02526 25.553 20.3355 25.553C32.6457 25.553 34.96 28.3446 34.96 31.7882Z" fill="#5F7C41"/>
</g>
</g>
<g id="Mask group_4">
<mask id="mask2_1609_88925" style="mask-type:alpha" maskUnits="userSpaceOnUse" x="9" y="27" width="23" height="16">
<path id="Intersect" fill-rule="evenodd" clip-rule="evenodd" d="M20.3341 42.6341C26.3241 42.6341 31.1799 37.7783 31.1799 31.7883C31.1799 31.207 31.1342 30.6364 31.0461 30.0798C30.1845 28.3189 27.4939 27.0708 20.3342 27.0708C13.1735 27.0708 10.4831 28.3193 9.62196 30.0806C9.53397 30.6369 9.48828 31.2072 9.48828 31.7883C9.48828 37.7783 14.3441 42.6341 20.3341 42.6341Z" fill="#FFD60C"/>
</mask>
<g mask="url(#mask2_1609_88925)">
<path id="Intersect_2" fill-rule="evenodd" clip-rule="evenodd" d="M20.3341 42.6341C26.3241 42.6341 31.1799 37.7783 31.1799 31.7883C31.1799 31.207 31.1342 30.6364 31.0461 30.0798C30.1845 28.3189 27.4939 27.0708 20.3342 27.0708C13.1735 27.0708 10.4831 28.3193 9.62196 30.0806C9.53397 30.6369 9.48828 31.2072 9.48828 31.7883C9.48828 37.7783 14.3441 42.6341 20.3341 42.6341Z" fill="#FFD60C"/>
<path id="Ellipse 952" d="M10.4182 34.4911C10.4182 40.8118 14.5959 42.6342 11.6377 42.6342C8.6794 42.6342 6.28125 38.6126 6.28125 33.6517C6.28125 28.6908 8.6794 24.6692 11.6377 24.6692C14.5959 24.6692 10.4182 28.1705 10.4182 34.4911Z" fill="#C1694F"/>
<path id="Ellipse 953" d="M30.2498 33.9894C30.2498 40.3101 26.072 42.1325 29.0303 42.1325C31.9886 42.1325 34.3867 38.1109 34.3867 33.15C34.3867 28.1891 31.9886 24.1675 29.0303 24.1675C26.072 24.1675 30.2498 27.6688 30.2498 33.9894Z" fill="#C1694F"/>
</g>
</g>
<path id="Subtract" fill-rule="evenodd" clip-rule="evenodd" d="M30.7883 29.6426C29.6981 28.1159 26.8887 27.0708 20.3373 27.0708C13.7869 27.0708 10.9773 28.1155 9.88672 29.6418C12.1037 28.7573 15.4243 28.2352 20.3366 28.2352C25.2502 28.2352 28.5713 28.7576 30.7883 29.6426Z" fill="#2A381C"/>
</g>
<path id="Ellipse 919 (Stroke)" opacity="0.79" fill-rule="evenodd" clip-rule="evenodd" d="M23.5554 36.7821C24.357 36.3242 24.9854 35.6205 25.3477 34.7787C25.364 34.7408 25.4077 34.7224 25.4459 34.7381L27.0756 35.4054C27.1139 35.4211 27.1322 35.4648 27.1161 35.5029C26.5916 36.7405 25.6735 37.7727 24.503 38.4413C23.3326 39.1098 21.9751 39.3774 20.6387 39.2049C20.5977 39.1996 20.5691 39.1617 20.5749 39.1207L20.8215 37.3771C20.8273 37.3361 20.8652 37.3077 20.9062 37.3128C21.8235 37.4262 22.7535 37.2401 23.5554 36.7821Z" fill="#E23D29" stroke="#E23D29" stroke-width="0.374244"/>
</g>
<g id="Group 1171275072">
<path id="Rectangle 3467891" d="M20.8594 28.1075C20.8594 27.3883 21.4425 26.8052 22.1617 26.8052H27.9685C28.6878 26.8052 29.2709 27.3883 29.2709 28.1075V31.0387C29.2709 33.3615 27.3879 35.2444 25.0651 35.2444C22.7424 35.2444 20.8594 33.3615 20.8594 31.0387V28.1075Z" fill="#191919"/>
<path id="Rectangle 3467893" d="M11.3984 28.1075C11.3984 27.3883 11.9815 26.8052 12.7008 26.8052H18.5076C19.2268 26.8052 19.8099 27.3883 19.8099 28.1075V31.0387C19.8099 33.3615 17.927 35.2444 15.6042 35.2444C13.2814 35.2444 11.3984 33.3615 11.3984 31.0387V28.1075Z" fill="#191919"/>
<rect id="Rectangle 3467892" x="17.0664" y="27.9617" width="6.53002" height="2.17667" fill="#191919"/>
<ellipse id="Ellipse 920" cx="13.615" cy="29.05" rx="0.962923" ry="1.30608" transform="rotate(29.9812 13.615 29.05)" fill="white"/>
<ellipse id="Ellipse 921" cx="23.4158" cy="29.05" rx="0.962923" ry="1.30608" transform="rotate(29.9812 23.4158 29.05)" fill="white"/>
</g>
</g>
</g>
</g>
</g>
</svg>
