<svg width="36" height="29" viewBox="0 0 36 29" fill="none" xmlns="http://www.w3.org/2000/svg">
<g id="Mask group">
<g id="Group 1912055135">
<g id="&#231;&#153;&#189;&#232;&#190;&#185;">
<mask id="path-1-outside-1_1609_89625" maskUnits="userSpaceOnUse" x="0.0117188" y="0" width="36" height="34" fill="black">
<rect fill="white" x="0.0117188" width="36" height="34"/>
<path fill-rule="evenodd" clip-rule="evenodd" d="M26.0444 3.48471L26.0643 3.44761C26.6874 2.28431 28.1495 1.86745 29.2923 2.52727C30.3848 3.15801 30.7794 4.54202 30.1838 5.65404L29.1367 7.60901C30.2763 9.14061 31.0472 10.9765 31.3135 12.9773H31.3432L34.1282 30.6855H20.2795V25.9675H20.2791V30.6855H13.9385C12.7224 31.5641 11.4343 32.3955 11.1428 32.4538C10.6983 32.5427 6.15155 31.8885 3.937 31.3363C3.77373 31.2956 3.66071 31.1536 3.6558 30.9854C3.59613 28.9407 3.48796 23.3732 3.64762 22.8031C3.68202 22.6803 3.89565 22.4901 4.21943 22.2654C3.53544 22.1375 2.89572 22.0042 2.38272 21.8764C2.21943 21.8358 2.10644 21.6937 2.10154 21.5255C2.04286 19.5122 1.93687 14.0496 2.09364 13.4898C2.2584 12.9014 6.60762 10.7416 7.28015 10.7416C7.53144 10.7416 8.52427 10.8358 9.69136 10.9818C10.083 9.75348 10.6719 8.61679 11.4198 7.61121L10.3715 5.65404C9.77588 4.54202 10.1705 3.15801 11.2629 2.52727C12.3828 1.88073 13.8092 2.26797 14.4524 3.3783C14.8681 3.2777 15.3898 3.3119 15.9548 3.34895C16.0899 3.35781 16.2274 3.36683 16.3665 3.3742C17.5447 3.43668 17.8672 3.309 18.8222 2.93092C19.1223 2.8121 19.4849 2.66855 19.9562 2.49839C21.9269 1.7868 22.9648 1.88267 24.3552 2.49839L24.3777 2.50828C24.4388 2.5349 24.5002 2.56001 24.561 2.58486C24.6879 2.63676 24.812 2.68755 24.9253 2.7488C25.4838 2.93357 25.8393 3.19272 26.0444 3.48471Z"/>
</mask>
<path fill-rule="evenodd" clip-rule="evenodd" d="M26.0444 3.48471L26.0643 3.44761C26.6874 2.28431 28.1495 1.86745 29.2923 2.52727C30.3848 3.15801 30.7794 4.54202 30.1838 5.65404L29.1367 7.60901C30.2763 9.14061 31.0472 10.9765 31.3135 12.9773H31.3432L34.1282 30.6855H20.2795V25.9675H20.2791V30.6855H13.9385C12.7224 31.5641 11.4343 32.3955 11.1428 32.4538C10.6983 32.5427 6.15155 31.8885 3.937 31.3363C3.77373 31.2956 3.66071 31.1536 3.6558 30.9854C3.59613 28.9407 3.48796 23.3732 3.64762 22.8031C3.68202 22.6803 3.89565 22.4901 4.21943 22.2654C3.53544 22.1375 2.89572 22.0042 2.38272 21.8764C2.21943 21.8358 2.10644 21.6937 2.10154 21.5255C2.04286 19.5122 1.93687 14.0496 2.09364 13.4898C2.2584 12.9014 6.60762 10.7416 7.28015 10.7416C7.53144 10.7416 8.52427 10.8358 9.69136 10.9818C10.083 9.75348 10.6719 8.61679 11.4198 7.61121L10.3715 5.65404C9.77588 4.54202 10.1705 3.15801 11.2629 2.52727C12.3828 1.88073 13.8092 2.26797 14.4524 3.3783C14.8681 3.2777 15.3898 3.3119 15.9548 3.34895C16.0899 3.35781 16.2274 3.36683 16.3665 3.3742C17.5447 3.43668 17.8672 3.309 18.8222 2.93092C19.1223 2.8121 19.4849 2.66855 19.9562 2.49839C21.9269 1.7868 22.9648 1.88267 24.3552 2.49839L24.3777 2.50828C24.4388 2.5349 24.5002 2.56001 24.561 2.58486C24.6879 2.63676 24.812 2.68755 24.9253 2.7488C25.4838 2.93357 25.8393 3.19272 26.0444 3.48471Z" fill="#FFABC7"/>
<path d="M26.0643 3.44761L27.2984 4.10862L27.2984 4.10861L26.0643 3.44761ZM26.0444 3.48471L24.8988 4.28948C25.1782 4.68713 25.6438 4.91147 26.1288 4.88217C26.6139 4.85286 27.0491 4.57411 27.2785 4.14573L26.0444 3.48471ZM29.2923 2.52727L28.5923 3.73971V3.73971L29.2923 2.52727ZM30.1838 5.65404L28.9497 4.99303L28.9497 4.99303L30.1838 5.65404ZM29.1367 7.60901L27.9026 6.948C27.6464 7.42626 27.6896 8.00946 28.0135 8.44473L29.1367 7.60901ZM31.3135 12.9773L29.9258 13.162C30.0184 13.8577 30.6117 14.3773 31.3135 14.3773V12.9773ZM31.3432 12.9773L32.7262 12.7598C32.6191 12.079 32.0324 11.5773 31.3432 11.5773V12.9773ZM34.1282 30.6855V32.0855C34.5375 32.0855 34.9263 31.9064 35.1923 31.5954C35.4583 31.2843 35.5748 30.8724 35.5112 30.468L34.1282 30.6855ZM20.2795 30.6855H18.8795C18.8795 31.4587 19.5063 32.0855 20.2795 32.0855V30.6855ZM20.2795 25.9675H21.6795C21.6795 25.1943 21.0527 24.5675 20.2795 24.5675V25.9675ZM20.2791 25.9675V24.5675C19.5059 24.5675 18.8791 25.1943 18.8791 25.9675H20.2791ZM20.2791 30.6855V32.0855C21.0523 32.0855 21.6791 31.4587 21.6791 30.6855H20.2791ZM13.9385 30.6855V29.2855C13.6441 29.2855 13.3572 29.3783 13.1186 29.5507L13.9385 30.6855ZM11.1428 32.4538L11.4174 33.8267H11.4174L11.1428 32.4538ZM3.937 31.3363L4.2757 29.9779L4.2757 29.9779L3.937 31.3363ZM3.6558 30.9854L5.05521 30.9445L3.6558 30.9854ZM3.64762 22.8031L2.29948 22.4256L2.29948 22.4256L3.64762 22.8031ZM4.21943 22.2654L5.01756 23.4156C5.48148 23.0937 5.7066 22.5246 5.58843 21.9725C5.47026 21.4203 5.03194 20.9932 4.4769 20.8893L4.21943 22.2654ZM2.38272 21.8764L2.72102 20.5179L2.721 20.5179L2.38272 21.8764ZM2.10154 21.5255L0.702131 21.5663L2.10154 21.5255ZM2.09364 13.4898L3.44178 13.8673L2.09364 13.4898ZM9.69136 10.9818L9.51758 12.371C10.1867 12.4547 10.8204 12.0495 11.0252 11.4071L9.69136 10.9818ZM11.4198 7.61121L12.5431 8.44666C12.8668 8.01141 12.91 7.42835 12.6539 6.9502L11.4198 7.61121ZM10.3715 5.65404L11.6056 4.99303L11.6056 4.99303L10.3715 5.65404ZM11.2629 2.52727L11.9629 3.73971L11.2629 2.52727ZM14.4524 3.3783L13.2409 4.08002C13.5518 4.61672 14.1788 4.8849 14.7816 4.73903L14.4524 3.3783ZM15.9548 3.34895L15.8632 4.74595L15.9548 3.34895ZM16.3665 3.3742L16.4407 1.97617L16.4407 1.97617L16.3665 3.3742ZM18.8222 2.93092L19.3375 4.23262L18.8222 2.93092ZM19.9562 2.49839L19.4807 1.18159L19.4807 1.18159L19.9562 2.49839ZM24.3552 2.49839L23.7883 3.77849L23.7922 3.78018L24.3552 2.49839ZM24.3777 2.50828L23.8147 3.79008L23.8184 3.7917L24.3777 2.50828ZM24.561 2.58486L25.091 1.28905L25.0909 1.28905L24.561 2.58486ZM24.9253 2.7488L24.2595 3.98031C24.3318 4.01944 24.4075 4.0521 24.4856 4.07794L24.9253 2.7488ZM24.8302 2.78659L24.8103 2.8237L27.2785 4.14573L27.2984 4.10862L24.8302 2.78659ZM29.9923 1.31484C28.1647 0.259674 25.8265 0.926304 24.8302 2.7866L27.2984 4.10861C27.5482 3.64232 28.1342 3.47523 28.5923 3.73971L29.9923 1.31484ZM31.4179 6.31505C32.3704 4.53675 31.7394 2.32349 29.9923 1.31484L28.5923 3.73971C29.0302 3.99253 29.1884 4.5473 28.9497 4.99303L31.4179 6.31505ZM30.3708 8.27001L31.4179 6.31504L28.9497 4.99303L27.9026 6.948L30.3708 8.27001ZM32.7013 12.7926C32.403 10.5513 31.5388 8.49218 30.2599 6.77328L28.0135 8.44473C29.0138 9.78906 29.6915 11.4018 29.9258 13.162L32.7013 12.7926ZM31.3432 11.5773H31.3135V14.3773H31.3432V11.5773ZM35.5112 30.468L32.7262 12.7598L29.9602 13.1948L32.7452 30.9031L35.5112 30.468ZM20.2795 32.0855H34.1282V29.2855H20.2795V32.0855ZM18.8795 25.9675V30.6855H21.6795V25.9675H18.8795ZM20.2791 27.3675H20.2795V24.5675H20.2791V27.3675ZM21.6791 30.6855V25.9675H18.8791V30.6855H21.6791ZM13.9385 32.0855H20.2791V29.2855H13.9385V32.0855ZM11.4174 33.8267C11.6215 33.7858 11.7963 33.7083 11.8803 33.6698C11.9891 33.6199 12.1013 33.5612 12.2087 33.5019C12.4249 33.3824 12.6782 33.2286 12.9457 33.0583C13.4838 32.7158 14.1328 32.2723 14.7583 31.8204L13.1186 29.5507C12.528 29.9774 11.925 30.3889 11.4421 30.6963C11.1992 30.8509 10.9998 30.9708 10.8545 31.0511C10.7812 31.0917 10.7355 31.1144 10.7133 31.1246C10.6663 31.1461 10.737 31.1073 10.8683 31.081L11.4174 33.8267ZM3.59831 32.6947C4.77045 32.987 6.51251 33.2963 7.99497 33.5198C8.7414 33.6324 9.44026 33.7259 9.98801 33.786C10.2603 33.8159 10.508 33.839 10.711 33.8514C10.8118 33.8575 10.9151 33.8619 11.012 33.862C11.0828 33.8621 11.2445 33.8612 11.4174 33.8267L10.8683 31.081C10.9856 31.0576 11.0597 31.062 11.014 31.062C10.9944 31.062 10.9522 31.0609 10.8818 31.0566C10.7424 31.0481 10.5446 31.0303 10.2936 31.0027C9.79459 30.948 9.13501 30.8601 8.41237 30.7511C6.95669 30.5317 5.31811 30.2378 4.2757 29.9779L3.59831 32.6947ZM2.2564 31.0262C2.27939 31.814 2.8187 32.5003 3.59831 32.6947L4.2757 29.9779C4.72875 30.0909 5.04203 30.4931 5.05521 30.9445L2.2564 31.0262ZM2.29948 22.4256C2.23138 22.6688 2.21236 22.9751 2.20202 23.1536C2.18826 23.3913 2.17921 23.6845 2.17338 24.0095C2.16167 24.6618 2.1622 25.4893 2.16951 26.3531C2.18415 28.0829 2.22632 29.9957 2.2564 31.0262L5.05521 30.9445C5.02561 29.9303 4.98386 28.0371 4.96941 26.3294C4.96218 25.4745 4.96187 24.6755 4.97293 24.0597C4.97847 23.7505 4.98669 23.4993 4.99734 23.3154C5.01142 23.0724 5.02394 23.08 4.99576 23.1806L2.29948 22.4256ZM3.42129 21.1152C3.23391 21.2453 3.03988 21.3913 2.87344 21.5456C2.79016 21.6227 2.69162 21.7222 2.59936 21.8413C2.5177 21.9466 2.37742 22.1473 2.29948 22.4256L4.99576 23.1806C4.96299 23.2976 4.91993 23.3852 4.88954 23.4393C4.85835 23.4949 4.82973 23.5343 4.81252 23.5565C4.78012 23.5983 4.76167 23.6132 4.77657 23.5994C4.78843 23.5884 4.81388 23.5662 4.85713 23.5326C4.89949 23.4997 4.95272 23.4606 5.01756 23.4156L3.42129 21.1152ZM2.04442 23.235C2.59489 23.372 3.26446 23.5111 3.96196 23.6416L4.4769 20.8893C3.80642 20.7639 3.19655 20.6363 2.72102 20.5179L2.04442 23.235ZM0.702131 21.5663C0.725077 22.3536 1.26399 23.0406 2.04444 23.235L2.721 20.5179C3.17487 20.6309 3.4878 21.0337 3.50094 21.4847L0.702131 21.5663ZM0.745495 13.1123C0.677779 13.3541 0.65903 13.6576 0.648906 13.8322C0.635358 14.066 0.626449 14.3542 0.620711 14.6733C0.609192 15.3138 0.609691 16.1263 0.616847 16.9744C0.631177 18.6727 0.672556 20.5515 0.702131 21.5663L3.50094 21.4847C3.47184 20.4862 3.43089 18.627 3.41675 16.9508C3.40967 16.1116 3.4094 15.3276 3.42026 14.7236C3.42571 14.4203 3.43378 14.1742 3.44421 13.9942C3.45807 13.7552 3.4703 13.7655 3.44178 13.8673L0.745495 13.1123ZM7.28015 9.34155C6.94526 9.34155 6.60744 9.44857 6.43473 9.50521C6.20233 9.58141 5.93898 9.68345 5.66788 9.79711C5.12256 10.0257 4.47708 10.3305 3.85578 10.6502C3.23731 10.9686 2.61323 11.317 2.11915 11.6363C1.87555 11.7937 1.63269 11.9637 1.43058 12.1352C1.33025 12.2203 1.21389 12.3276 1.10657 12.4534C1.01862 12.5564 0.837301 12.7845 0.745495 13.1123L3.44178 13.8673C3.37057 14.1216 3.24253 14.2638 3.23672 14.2706C3.21155 14.3001 3.20617 14.3007 3.24185 14.2704C3.31175 14.2111 3.44096 14.1159 3.63878 13.988C4.02753 13.7368 4.56368 13.435 5.13718 13.1398C5.70785 12.8461 6.28607 12.5741 6.75052 12.3793C6.98431 12.2813 7.17236 12.21 7.30719 12.1658C7.50169 12.102 7.4469 12.1416 7.28015 12.1416V9.34155ZM9.86515 9.59265C8.72573 9.45011 7.63719 9.34155 7.28015 9.34155V12.1416C7.27491 12.1416 7.28932 12.1415 7.33319 12.1439C7.37328 12.146 7.42637 12.1495 7.49295 12.1546C7.62601 12.1646 7.7992 12.18 8.0054 12.2002C8.41718 12.2407 8.94479 12.2993 9.51758 12.371L9.86515 9.59265ZM10.2964 6.77576C9.45714 7.90421 8.79661 9.17928 8.35751 10.5566L11.0252 11.4071C11.3693 10.3277 11.8867 9.32938 12.5431 8.44666L10.2964 6.77576ZM9.13735 6.31504L10.1856 8.27222L12.6539 6.9502L11.6056 4.99303L9.13735 6.31504ZM10.5629 1.31484C8.8159 2.32349 8.18488 4.53675 9.13735 6.31504L11.6056 4.99303C11.3669 4.5473 11.525 3.99253 11.9629 3.73971L10.5629 1.31484ZM15.6638 2.67657C14.6348 0.900162 12.354 0.280756 10.5629 1.31484L11.9629 3.73971C12.4116 3.4807 12.9836 3.63579 13.2409 4.08002L15.6638 2.67657ZM14.7816 4.73903C14.9447 4.69957 15.225 4.70411 15.8632 4.74595L16.0464 1.95195C15.5545 1.9197 14.7915 1.85583 14.1231 2.01756L14.7816 4.73903ZM15.8632 4.74595C15.9969 4.75472 16.1431 4.76432 16.2924 4.77224L16.4407 1.97617C16.3117 1.96933 16.1828 1.9609 16.0464 1.95195L15.8632 4.74595ZM16.2924 4.77224C16.9338 4.80625 17.4443 4.79508 17.9599 4.68911C18.4503 4.58832 18.8896 4.40997 19.3375 4.23262L18.3068 1.62923C17.7998 1.82996 17.6003 1.90449 17.3962 1.94643C17.2173 1.9832 16.9775 2.00463 16.4407 1.97617L16.2924 4.77224ZM19.3375 4.23262C19.6362 4.11437 19.9819 3.97756 20.4316 3.81518L19.4807 1.18159C18.9879 1.35953 18.6084 1.50984 18.3068 1.62923L19.3375 4.23262ZM20.4316 3.81518C21.3323 3.48996 21.9046 3.3926 22.3486 3.40043C22.7758 3.40796 23.1916 3.51425 23.7883 3.77849L24.9221 1.21828C24.1283 0.866801 23.3301 0.6173 22.398 0.600865C21.4828 0.584728 20.5508 0.795225 19.4807 1.18159L20.4316 3.81518ZM23.7922 3.78018L23.8147 3.79007L24.9408 1.22648L24.9182 1.21659L23.7922 3.78018ZM23.8184 3.7917C23.8965 3.82573 23.9726 3.85677 24.031 3.88066L25.0909 1.28905C25.0278 1.26324 24.9811 1.24408 24.937 1.22485L23.8184 3.7917ZM24.031 3.88066C24.1721 3.93837 24.2242 3.96124 24.2595 3.98031L25.5912 1.51728C25.3999 1.41385 25.2036 1.33515 25.091 1.28905L24.031 3.88066ZM24.4856 4.07794C24.849 4.19818 24.9143 4.31148 24.8988 4.28948L27.19 2.67994C26.7643 2.07397 26.1186 1.66897 25.3651 1.41966L24.4856 4.07794Z" fill="white" mask="url(#path-1-outside-1_1609_89625)"/>
</g>
<path id="Union" fill-rule="evenodd" clip-rule="evenodd" d="M10.3708 5.65292C9.77519 4.5409 10.1698 3.15689 11.2622 2.52616C12.4051 1.86633 13.8672 2.2832 14.4903 3.44649L15.0303 4.4547C16.594 3.59588 18.3808 3.10889 20.2784 3.10889C22.1751 3.10889 23.9611 3.59542 25.5242 4.4535L26.0636 3.44649C26.6867 2.2832 28.1488 1.86633 29.2917 2.52616C30.3841 3.15689 30.7787 4.5409 30.1831 5.65292L29.1359 7.6082C30.2755 9.13986 31.0465 10.9759 31.3129 12.9767H31.3425L34.1275 30.5432H20.2788V25.9669H20.2784V30.5432H6.42969L9.21474 12.9767H9.24386C9.51007 10.9768 10.2804 9.14162 11.4192 7.6104L10.3708 5.65292Z" fill="#E2467B"/>
<path id="Vector 1743" opacity="0.5" d="M2.0978 21.3768C2.03377 19.3574 1.91851 13.8982 2.08934 13.3384C2.26905 12.7494 6.83239 10.6555 7.56588 10.6555C7.74244 10.6555 9.65886 10.9405 9.65886 10.9405L9.82061 10.6555C9.82061 10.6555 14.9523 10.9939 15.2297 11.3179C15.6883 11.8536 15.7135 18.5694 15.6514 19.0825C15.5893 19.5957 14.5211 20.1602 14.5211 20.1602L16.3865 20.883C16.7528 21.025 17.0048 21.3623 17.0308 21.7542C17.1509 23.5597 17.4395 28.6805 16.9858 30.4197C16.3837 32.7277 11.3169 30.4197 11.3169 30.4197C11.3169 30.4197 10.7479 22.7734 9.34512 22.0087C7.25507 20.8695 3.49394 21.5477 2.39291 21.655C2.22289 21.6715 2.10321 21.5475 2.0978 21.3768Z" fill="#6C1C37"/>
<path id="Subtract" d="M22.2034 12.3493C22.6473 12.3493 23.1787 12.1768 23.1787 11.7329C23.1787 10.9408 21.8804 10.2986 20.2788 10.2986C18.6772 10.2986 17.3789 10.9408 17.3789 11.7329C17.3789 12.1768 17.9104 12.3493 18.3542 12.3493H18.9564C18.9644 12.3493 18.9718 12.3534 18.9761 12.3602L19.6316 13.3983C19.932 13.8739 20.6257 13.8739 20.926 13.3983L21.5816 12.3602C21.5859 12.3534 21.5933 12.3493 21.6013 12.3493H22.2034Z" fill="#6C1C37"/>
<g id="Group 1912055134">
<g id="Group 1912055130">
<mask id="mask0_1609_89625" style="mask-type:alpha" maskUnits="userSpaceOnUse" x="3" y="19" width="14" height="15">
<path id="Vector 1738" d="M3.61817 31.8099C3.55964 29.624 3.4516 23.5548 3.60934 22.9358C3.77427 22.2885 8.12773 19.9126 8.80091 19.9126C9.47409 19.9126 15.464 20.6553 15.8849 21.2441C16.3058 21.8328 16.1133 28.6845 16.0562 29.2485C15.9992 29.8124 11.5521 33.2428 10.982 33.3681C10.5445 33.4643 6.06763 32.7562 3.89057 32.1592C3.73126 32.1155 3.62259 31.9751 3.61817 31.8099Z" fill="#FFC3D7"/>
</mask>
<g mask="url(#mask0_1609_89625)">
<path id="Vector 1744" d="M3.61867 32.5134C3.56026 30.2187 3.45115 23.766 3.60934 23.1095C3.77427 22.4251 8.12773 19.9126 8.80091 19.9126C9.47409 19.9126 15.464 20.698 15.8849 21.3206C16.3058 21.9431 16.1133 29.1887 16.0562 29.785C15.9992 30.3813 11.5521 34.009 10.982 34.1415C10.5441 34.2433 6.06075 33.4933 3.88555 32.8616C3.72882 32.816 3.62282 32.6765 3.61867 32.5134Z" fill="#F6BCCF"/>
<path id="Vector 1741" d="M11.0892 25.2743L15.8581 21.1941C16.279 21.9011 16.0864 30.1295 16.0294 30.8067C15.9723 31.4839 11.5252 35.6037 10.9551 35.7542C10.9645 34.8542 10.9566 26.8354 10.9553 25.5597C10.9551 25.4477 11.0041 25.3471 11.0892 25.2743Z" fill="#F394B4"/>
<path id="Vector 1742" d="M-1.25581 20.7696L14.0261 13.3701C14.447 13.9058 14.0831 19.2916 14.0261 19.8047C13.9788 20.2306 10.9388 22.3844 9.90623 23.1046C9.68801 23.2568 9.42062 23.3143 9.15842 23.2691L-1.15404 21.4912C-1.52069 21.428 -1.59067 20.9317 -1.25581 20.7696Z" fill="#AF2B57" fill-opacity="0.6"/>
<path id="Vector 1739" d="M5.91382 23.3891C5.54322 23.3321 4.74306 22.7481 6.50761 22.9915C8.26423 23.2338 9.50498 23.356 9.91088 23.4262C10.735 23.5687 11.5584 23.3089 11.7897 23.2252C12.2387 23.0627 12.5429 22.9401 12.9799 22.6778C13.3362 22.4639 13.7838 22.7043 13.3719 22.9849C13.0203 23.2245 12.6152 23.4226 12.0807 23.8396C11.592 24.2207 11.3362 24.8786 11.322 25.5913C11.3077 26.304 11.1224 29.2402 11.1652 30.3092C11.208 31.3783 10.7551 31.6434 10.7123 30.3677C10.6984 29.9524 10.5665 26.1472 10.5665 25.5913C10.5665 24.7447 10.1944 24.3246 9.60776 24.1674C8.6561 23.9123 6.28441 23.4461 5.91382 23.3891Z" fill="#F5F3F5"/>
<path id="Vector 1740" d="M14.2434 22.3191C13.4996 22.7829 13.383 22.4144 14.1218 21.9818C14.2041 21.92 14.8816 21.4913 15.1236 21.3429C15.426 21.1573 15.6047 21.3908 15.4122 21.5214C15.2198 21.6519 14.9055 21.9062 14.2434 22.3191Z" fill="#F5F3F5"/>
</g>
</g>
<g id="Group 1912055131">
<path id="Vector 1742_2" d="M2.08991 21.3819C2.03118 19.3668 1.92507 13.8985 2.082 13.3381C2.24692 12.7491 6.60038 10.5872 7.27357 10.5872C7.94675 10.5872 13.9367 11.263 14.3576 11.7987C14.7785 12.3344 14.5859 18.5692 14.5289 19.0823C14.4719 19.5954 10.0248 22.717 9.45462 22.831C9.01764 22.9184 4.55106 22.2757 2.3711 21.7328C2.20781 21.6922 2.09482 21.5501 2.08991 21.3819Z" fill="#F6BCCF"/>
<path id="Vector 1741_2" d="M9.60257 14.8637L14.3307 11.7986C14.7516 12.3343 14.559 18.569 14.502 19.0821C14.445 19.5952 9.99788 22.7168 9.42773 22.8308C9.43698 22.1648 9.42961 16.3538 9.42802 15.1824C9.42784 15.0525 9.49357 14.9344 9.60257 14.8637Z" fill="#F394B4"/>
<path id="Vector 1739_2" d="M4.38647 14.0634C4.01588 14.0064 3.21571 13.4224 4.98026 13.6658C6.73689 13.9081 7.97764 14.0303 8.38354 14.1005C9.20761 14.2431 10.031 13.9833 10.2624 13.8995C10.7114 13.7371 11.0155 13.6144 11.4526 13.3521C11.8088 13.1382 12.2564 13.3786 11.8445 13.6593C11.4929 13.8989 11.0878 14.0969 10.5533 14.5139C10.0647 14.895 9.8089 15.5529 9.79464 16.2656C9.78039 16.9783 9.59509 19.9145 9.63785 20.9836C9.68061 22.0526 9.22773 22.3177 9.18497 21.042C9.17105 20.6267 9.0392 16.8215 9.0392 16.2656C9.0392 15.419 8.66701 14.999 8.08042 14.8417C7.12876 14.5866 4.75707 14.1205 4.38647 14.0634Z" fill="#F5F3F5"/>
<path id="Vector 1740_2" d="M12.716 12.9941C11.9722 13.4579 11.8557 13.0894 12.5944 12.6569C12.6768 12.595 13.3543 12.1664 13.5962 12.0179C13.8986 11.8324 14.0773 12.0658 13.8849 12.1964C13.6924 12.327 13.3782 12.5813 12.716 12.9941Z" fill="#F5F3F5"/>
</g>
</g>
<g id="Mask group_2">
<mask id="mask1_1609_89625" style="mask-type:alpha" maskUnits="userSpaceOnUse" x="13" y="2" width="14" height="7">
<path id="Vector 1748" d="M17.3848 6.25354C14.9565 6.40894 13.1052 5.20231 13.6364 3.94846C14.0155 3.05372 15.1254 3.2388 16.3642 3.30096C17.9127 3.37866 17.9831 3.14553 19.9538 2.47213C21.9246 1.79873 22.9624 1.88945 24.3529 2.47213L24.3754 2.48149C24.5641 2.55933 24.7554 2.62339 24.923 2.70911C26.1515 3.09376 26.3978 3.81896 26.2219 4.46646C26.0631 5.0506 24.7359 5.494 24.564 6.51254C24.2646 8.28672 23.5786 7.52265 23.4731 7.26365C23.3675 7.00465 22.9624 6.94983 22.9624 7.39317C22.9624 9.47813 21.502 9.58173 21.08 7.13415C20.9509 6.38524 19.8131 6.09814 17.3848 6.25354Z" fill="#FF0000"/>
</mask>
<g mask="url(#mask1_1609_89625)">
<path id="Vector 1750" d="M17.3848 6.25354C14.9565 6.40894 13.1052 5.20231 13.6364 3.94846C14.0155 3.05372 15.1254 3.2388 16.3642 3.30096C17.9127 3.37866 17.9831 3.14553 19.9538 2.47213C21.9246 1.79873 22.9624 1.88945 24.3529 2.47213L24.3754 2.48149C24.5641 2.55933 24.7554 2.62339 24.923 2.70911C26.1515 3.09376 26.3978 3.81896 26.2219 4.46646C26.0631 5.0506 24.7359 5.494 24.564 6.51254C24.2646 8.28672 23.5786 7.52265 23.4731 7.26365C23.3675 7.00465 23.0294 6.95439 22.9624 7.39317C22.6818 9.23121 21.3468 8.68151 21.08 7.13415C20.9509 6.38524 19.8131 6.09814 17.3848 6.25354Z" fill="#F090B0"/>
<path id="Vector 1749" d="M15.2233 4.84841C15.0473 5.31461 13.5165 5.51535 12.6895 5.7873L13.1118 2.29078L20.8013 0.788574L27.0831 2.73108C27.1124 3.72823 27.0796 5.68628 26.7136 5.54123C26.2561 5.35992 25.9921 4.95849 25.6226 4.46638C25.2531 3.97428 24.8469 4.75838 24.5581 4.99734C23.4935 5.87794 22.6285 5.24801 21.901 5.34699C20.8541 5.48944 20.0534 5.41174 19.7279 4.67358C19.4464 5.25633 17.5636 5.38584 17.1237 5.38584C15.9287 5.38584 15.5048 5.1592 15.2233 4.84841Z" fill="#F6BCCF"/>
</g>
</g>
</g>
</g>
</svg>
