<svg width="40" height="40" viewBox="0 0 40 40" fill="none" xmlns="http://www.w3.org/2000/svg">
<g id="Mask group">
<mask id="mask0_866_180930" style="mask-type:alpha" maskUnits="userSpaceOnUse" x="0" y="0" width="40" height="40">
<g id="Rectangle 3467963">
<rect width="40" height="40" fill="#191919"/>
<rect width="40" height="40" fill="white" fill-opacity="0.05"/>
</g>
</mask>
<g mask="url(#mask0_866_180930)">
<g id="Group 1171275060">
<g id="Union">
<mask id="path-2-outside-1_866_180930" maskUnits="userSpaceOnUse" x="-2.46952" y="-0.0496055" width="41.5223" height="48.4335" fill="black">
<rect fill="white" x="-2.46952" y="-0.0496055" width="41.5223" height="48.4335"/>
<path fill-rule="evenodd" clip-rule="evenodd" d="M11.6366 7.86868C11.4726 7.38213 11.7341 6.85479 12.2206 6.69082C12.6317 6.55229 13.0719 6.71749 13.2975 7.06552L22.28 6.86935C22.706 6.86005 22.919 7.38088 22.6086 7.67271L15.7164 14.1531L16.4662 16.3781C23.0734 14.5576 30.0301 18.1972 32.246 24.7728C34.5414 31.5845 30.8803 38.9673 24.0687 41.2627C17.257 43.5582 9.87419 39.8971 7.57871 33.0854C5.40339 26.6303 8.5774 19.6623 14.7127 16.9969L11.6366 7.86868Z"/>
</mask>
<path fill-rule="evenodd" clip-rule="evenodd" d="M11.6366 7.86868C11.4726 7.38213 11.7341 6.85479 12.2206 6.69082C12.6317 6.55229 13.0719 6.71749 13.2975 7.06552L22.28 6.86935C22.706 6.86005 22.919 7.38088 22.6086 7.67271L15.7164 14.1531L16.4662 16.3781C23.0734 14.5576 30.0301 18.1972 32.246 24.7728C34.5414 31.5845 30.8803 38.9673 24.0687 41.2627C17.257 43.5582 9.87419 39.8971 7.57871 33.0854C5.40339 26.6303 8.5774 19.6623 14.7127 16.9969L11.6366 7.86868Z" fill="#FFD60C"/>
<path d="M11.6366 7.86868L13.0454 7.3939L11.6366 7.86868ZM13.2975 7.06552L12.0499 7.87408L12.5009 8.57L13.33 8.55189L13.2975 7.06552ZM22.28 6.86935L22.3125 8.35571L22.3125 8.35571L22.28 6.86935ZM22.6086 7.67271L21.5902 6.58957L21.5902 6.58957L22.6086 7.67271ZM15.7164 14.1531L14.698 13.0699L14.0028 13.7236L14.3075 14.6279L15.7164 14.1531ZM16.4662 16.3781L15.0573 16.8529L15.5062 18.1848L16.8611 17.8114L16.4662 16.3781ZM14.7127 16.9969L15.3051 18.3606L16.5577 17.8164L16.1216 16.5222L14.7127 16.9969ZM11.7459 5.28195C10.4812 5.70813 9.8015 7.0788 10.2277 8.34345L13.0454 7.3939C13.1437 7.68545 12.987 8.00145 12.6954 8.0997L11.7459 5.28195ZM14.5451 6.25697C13.959 5.35259 12.8163 4.92122 11.7459 5.28195L12.6954 8.0997C12.4472 8.18336 12.1849 8.08239 12.0499 7.87408L14.5451 6.25697ZM22.2476 5.38298L13.265 5.57916L13.33 8.55189L22.3125 8.35571L22.2476 5.38298ZM23.627 8.75584C24.9301 7.53063 24.0357 5.34393 22.2476 5.38298L22.3125 8.35571C21.3762 8.37616 20.9079 7.23114 21.5902 6.58957L23.627 8.75584ZM16.7348 15.2362L23.627 8.75584L21.5902 6.58957L14.698 13.0699L16.7348 15.2362ZM17.8751 15.9034L17.1252 13.6783L14.3075 14.6279L15.0573 16.8529L17.8751 15.9034ZM16.8611 17.8114C22.7123 16.1992 28.8745 19.4236 30.8371 25.2476L33.6548 24.298C31.1857 16.9709 23.4345 12.916 16.0713 14.9448L16.8611 17.8114ZM30.8371 25.2476C32.8704 31.2811 29.6275 37.8206 23.5939 39.8539L24.5434 42.6716C32.1332 40.1139 36.2125 31.8878 33.6548 24.298L30.8371 25.2476ZM23.5939 39.8539C17.5603 41.8871 11.0208 38.6442 8.98759 32.6107L6.16984 33.5602C8.72753 41.15 16.9537 45.2293 24.5434 42.6716L23.5939 39.8539ZM8.98759 32.6107C7.061 26.8936 9.87205 20.7208 15.3051 18.3606L14.1203 15.6333C7.28275 18.6037 3.74579 26.367 6.16984 33.5602L8.98759 32.6107ZM10.2277 8.34345L13.3038 17.4717L16.1216 16.5222L13.0454 7.3939L10.2277 8.34345Z" fill="white" mask="url(#path-2-outside-1_866_180930)"/>
</g>
<g id="Group 1171275058">
<path id="Vector 104" d="M22.2796 6.86932L12.5957 7.08081L15.1563 14.6792L22.6081 7.67268C22.9185 7.38086 22.7055 6.86002 22.2796 6.86932Z" fill="#E23D29"/>
<rect id="Rectangle 3467963_2" x="11.3398" y="6.98779" width="1.8593" height="12.8989" rx="0.697239" transform="rotate(-18.6234 11.3398 6.98779)" fill="#050001"/>
</g>
<g id="Group 1171275057">
<g id="Mask group_2">
<mask id="mask1_866_180930" style="mask-type:alpha" maskUnits="userSpaceOnUse" x="6" y="15" width="27" height="27">
<circle id="Ellipse 937" cx="19.9138" cy="28.9293" r="13.0151" transform="rotate(-18.6234 19.9138 28.9293)" fill="#FFD60C"/>
</mask>
<g mask="url(#mask1_866_180930)">
<circle id="Ellipse 938" cx="19.9138" cy="28.9293" r="13.0151" transform="rotate(-18.6234 19.9138 28.9293)" fill="#FFD60C"/>
<path id="Vector 103" d="M28.055 26.4334C28.0916 25.1424 28.7201 23.8314 31.0891 21.3765L39.11 24.8762L32.7746 44.3957C27.1614 44.0287 16.7952 42.9857 20.2361 41.7491C24.5371 40.2033 23.3052 37.776 23.1451 34.6164C22.985 31.4567 26.6159 32.6975 28.6271 31.2783C30.6383 29.8591 28.0183 27.7244 28.055 26.4334Z" fill="#FF9A13"/>
</g>
</g>
<g id="Group 1171275054">
<ellipse id="Ellipse 938_2" cx="12.774" cy="24.5333" rx="2.88086" ry="3.15829" transform="rotate(35.5399 12.774 24.5333)" fill="#E23D29" fill-opacity="0.6"/>
<g id="Mask group_3">
<mask id="mask2_866_180930" style="mask-type:alpha" maskUnits="userSpaceOnUse" x="9" y="21" width="7" height="7">
<ellipse id="Ellipse 940" cx="12.772" cy="24.5328" rx="2.88086" ry="3.15829" transform="rotate(35.5399 12.772 24.5328)" fill="#E23D29"/>
</mask>
<g mask="url(#mask2_866_180930)">
<ellipse id="Ellipse 939" cx="13.5728" cy="24.6954" rx="2.88086" ry="3.15829" transform="rotate(35.5399 13.5728 24.6954)" fill="#FF9A13"/>
</g>
</g>
</g>
<g id="Group 1171275055">
<ellipse id="Ellipse 938_3" opacity="0.6" cx="11.4259" cy="31.9006" rx="1.91952" ry="2.10437" transform="rotate(5.39843 11.4259 31.9006)" fill="#E23D29"/>
<g id="Mask group_4">
<mask id="mask3_866_180930" style="mask-type:alpha" maskUnits="userSpaceOnUse" x="9" y="29" width="5" height="6">
<ellipse id="Ellipse 940_2" cx="11.4259" cy="31.9006" rx="1.91952" ry="2.10437" transform="rotate(5.39843 11.4259 31.9006)" fill="#E23D29"/>
</mask>
<g mask="url(#mask3_866_180930)">
<ellipse id="Ellipse 939_2" cx="11.937" cy="31.983" rx="1.79903" ry="1.89442" transform="rotate(5.39843 11.937 31.983)" fill="#FF9A13"/>
</g>
</g>
</g>
<g id="Group 1171275056">
<ellipse id="Ellipse 938_4" opacity="0.6" cx="19.544" cy="21.5355" rx="1.56401" ry="1.71463" transform="rotate(25.8675 19.544 21.5355)" fill="#E23D29"/>
<g id="Mask group_5">
<mask id="mask4_866_180930" style="mask-type:alpha" maskUnits="userSpaceOnUse" x="17" y="19" width="5" height="5">
<ellipse id="Ellipse 940_3" cx="19.544" cy="21.536" rx="1.56401" ry="1.71463" transform="rotate(25.8675 19.544 21.536)" fill="#E23D29"/>
</mask>
<g mask="url(#mask4_866_180930)">
<ellipse id="Ellipse 939_3" cx="19.9092" cy="21.7443" rx="1.46584" ry="1.54356" transform="rotate(25.8675 19.9092 21.7443)" fill="#FF9A13"/>
</g>
</g>
</g>
</g>
</g>
</g>
</g>
</svg>
