<svg width="26" height="26" viewBox="0 0 26 26" fill="none" xmlns="http://www.w3.org/2000/svg">
<g id="Group 1912055292">
<path id="Union" fill-rule="evenodd" clip-rule="evenodd" d="M6.48134 20.4673C8.13953 21.5753 10.089 22.1667 12.0833 22.1667C14.7567 22.1636 17.3196 21.1003 19.21 19.21C21.1003 17.3196 22.1636 14.7567 22.1667 12.0833C22.1667 10.089 21.5753 8.13953 20.4673 6.48134C19.3594 4.82314 17.7846 3.53074 15.9421 2.76755C14.0996 2.00437 12.0722 1.80469 10.1162 2.19375C8.1602 2.58282 6.36352 3.54316 4.95334 4.95334C3.54316 6.36352 2.58282 8.1602 2.19375 10.1162C1.80469 12.0722 2.00437 14.0996 2.76755 15.9421C3.53074 17.7846 4.82314 19.3594 6.48134 20.4673ZM7.49988 5.22371C8.85659 4.31719 10.4516 3.83334 12.0833 3.83334C14.2706 3.83576 16.3676 4.70574 17.9143 6.25239C19.4609 7.79904 20.3309 9.89605 20.3333 12.0833C20.3333 13.715 19.8495 15.3101 18.943 16.6668C18.0364 18.0235 16.748 19.0809 15.2405 19.7053C13.733 20.3298 12.0742 20.4931 10.4738 20.1748C8.8735 19.8565 7.40349 19.0708 6.24971 17.917C5.09592 16.7632 4.31019 15.2932 3.99186 13.6928C3.67353 12.0925 3.83691 10.4337 4.46133 8.9262C5.08575 7.41871 6.14318 6.13024 7.49988 5.22371ZM22.7323 23.9304C22.8435 23.9765 22.9627 24.0002 23.0831 24C23.2644 24 23.4416 23.9462 23.5923 23.8455C23.743 23.7448 23.8605 23.6016 23.9298 23.4341C23.9992 23.2667 24.0174 23.0824 23.982 22.9046C23.9467 22.7268 23.8594 22.5635 23.7312 22.4353L20.9812 19.6853C20.8083 19.5183 20.5768 19.4259 20.3364 19.428C20.0961 19.4301 19.8662 19.5265 19.6962 19.6965C19.5263 19.8664 19.4299 20.0963 19.4278 20.3367C19.4257 20.577 19.5181 20.8086 19.6851 20.9815L22.4351 23.7315C22.5201 23.8167 22.6211 23.8843 22.7323 23.9304Z" fill="#D1D1D1"/>
</g>
</svg>
