<svg width="26" height="26" viewBox="0 0 26 26" fill="none" xmlns="http://www.w3.org/2000/svg">
<g id="icon-share">
<path id="Vector" d="M13.0678 3.14611C13.3883 3.00663 13.7431 2.96564 14.0874 3.02906C14.4316 3.09244 14.7478 3.25698 14.9973 3.49935L23.459 11.7164C23.6312 11.8837 23.7672 12.0838 23.8599 12.3041C23.9525 12.5244 24 12.7609 24 12.9994C24 13.238 23.9525 13.4744 23.8599 13.6947C23.7672 13.9151 23.6309 14.1154 23.4587 14.2827L14.9972 22.4997C14.7476 22.742 14.4316 22.9064 14.0874 22.9698C13.7431 23.0332 13.3883 22.9922 13.0678 22.8528C12.7474 22.7134 12.4771 22.4826 12.2883 22.1916C12.0997 21.9008 12.0001 21.5617 12 21.2164L12 18.0208C9.70545 18.1206 8.26436 18.5717 7.17555 19.2297C5.90572 19.9971 5.01283 21.0973 3.77837 22.6278C3.5122 22.9578 3.06688 23.0841 2.66711 22.943C2.26733 22.8018 2 22.424 2 22C2 18.4414 2.5013 14.9586 4.15451 12.341C5.72577 9.85318 8.25861 8.26795 12 8.03095L12 4.78241C12.0001 4.43711 12.0997 4.09808 12.2883 3.80727C12.4771 3.51629 12.7474 3.2855 13.0678 3.14611Z" fill="#D1D1D1"/>
</g>
</svg>
