<svg width="32" height="32" viewBox="0 0 32 32" fill="none" xmlns="http://www.w3.org/2000/svg">
<g id="telegram 1" clip-path="url(#clip0_866_180706)">
<path id="Subtract" fill-rule="evenodd" clip-rule="evenodd" d="M32 16C32 24.8366 24.8366 32 16 32C7.16344 32 0 24.8366 0 16C0 7.16344 7.16344 0 16 0C24.8366 0 32 7.16344 32 16ZM13.3396 19.2542L13.3454 19.2584L13.3387 19.2544L13.0664 23.3335C13.4555 23.3335 13.6334 23.1603 13.8483 22.9511L13.8664 22.9335L15.7891 21.0639L19.7876 24.018C20.5234 24.424 21.0545 24.2138 21.2377 23.3349L23.8624 10.9665C24.1311 9.88914 23.4517 9.4005 22.7478 9.72007L7.33582 15.6629C6.2838 16.0848 6.28994 16.6718 7.14406 16.9333L11.0991 18.1677L20.2555 12.391C20.6878 12.1289 21.0845 12.2698 20.7589 12.5588L13.3396 19.2542Z" fill="white"/>
</g>
<defs>
<clipPath id="clip0_866_180706">
<rect width="32" height="32" fill="white"/>
</clipPath>
</defs>
</svg>
