<svg width="14" height="14" viewBox="0 0 14 14" fill="none" xmlns="http://www.w3.org/2000/svg">
<g opacity="0.6" clip-path="url(#clip0_1609_24691)">
<path d="M6.6688 6.47509C6.58976 6.43685 6.50309 6.41699 6.41529 6.41699C6.32748 6.41699 6.24081 6.43685 6.16177 6.47509C5.47493 6.75854 4.90034 7.25994 4.52648 7.90206C4.15262 8.54418 4.00024 9.2914 4.0928 10.0286C4.30298 11.1056 5.18824 12.2501 6.41529 12.2501C7.64233 12.2501 8.52759 11.1056 8.73777 10.029C8.83035 9.2917 8.67799 8.54443 8.30413 7.90225C7.93027 7.26007 7.35567 6.75861 6.6688 6.47509ZM7.5928 9.80476C7.48798 10.3405 7.02084 11.0834 6.41529 11.0834C5.80973 11.0834 5.34259 10.3411 5.23777 9.80452C5.19808 9.37086 5.28899 8.93523 5.49882 8.55364C5.70866 8.17205 6.02782 7.86194 6.41529 7.66317C6.80275 7.86194 7.12191 8.17205 7.33175 8.55364C7.54158 8.93523 7.63249 9.37109 7.5928 9.80476Z" fill="white"/>
<path d="M11.6673 2.33333H11.6083C11.473 1.67506 11.1149 1.08356 10.5944 0.65853C10.0738 0.233496 9.42268 0.000919517 8.75065 0L4.08398 0C3.31072 0.000910846 2.56938 0.308494 2.0226 0.855278C1.47581 1.40206 1.16823 2.1434 1.16732 2.91667V12.25C1.16931 12.4492 1.20568 12.6465 1.27483 12.8333H1.16732C1.01261 12.8333 0.864235 12.8948 0.754839 13.0042C0.645443 13.1136 0.583984 13.262 0.583984 13.4167C0.583984 13.5714 0.645443 13.7197 0.754839 13.8291C0.864235 13.9385 1.01261 14 1.16732 14H11.6673C11.822 14 11.9704 13.9385 12.0798 13.8291C12.1892 13.7197 12.2507 13.5714 12.2507 13.4167C12.2507 13.262 12.1892 13.1136 12.0798 13.0042C11.9704 12.8948 11.822 12.8333 11.6673 12.8333H11.5598C11.629 12.6465 11.6654 12.4492 11.6673 12.25V3.5C11.822 3.50014 11.9703 3.56164 12.0796 3.67101C12.189 3.78037 12.2505 3.92867 12.2507 4.08333V12.25C12.2507 12.4047 12.3121 12.5531 12.4215 12.6625C12.5309 12.7719 12.6793 12.8333 12.834 12.8333C12.9887 12.8333 13.1371 12.7719 13.2465 12.6625C13.3559 12.5531 13.4173 12.4047 13.4173 12.25V4.08333C13.4168 3.61936 13.2323 3.17454 12.9042 2.84646C12.5761 2.51838 12.1313 2.33384 11.6673 2.33333ZM2.91732 12.8333C2.76264 12.8332 2.61432 12.7718 2.50494 12.6624C2.39557 12.553 2.33408 12.4047 2.33398 12.25V2.91667C2.33449 2.45269 2.51903 2.00787 2.84711 1.67979C3.17519 1.35171 3.62001 1.16718 4.08398 1.16667H8.75065C9.21462 1.16718 9.65945 1.35171 9.98753 1.67979C10.3156 2.00787 10.5001 2.45269 10.5007 2.91667V12.25C10.5006 12.4047 10.4391 12.553 10.3297 12.6624C10.2203 12.7718 10.072 12.8332 9.91732 12.8333H2.91732Z" fill="white"/>
<path d="M8.16602 1.75H4.66602C4.20204 1.75051 3.75722 1.93505 3.42914 2.26313C3.10106 2.5912 2.91653 3.03603 2.91602 3.5V4.08333C2.91653 4.54731 3.10106 4.99213 3.42914 5.32021C3.75722 5.64829 4.20204 5.83282 4.66602 5.83333H8.16602C8.62999 5.83282 9.07481 5.64829 9.40289 5.32021C9.73097 4.99213 9.91551 4.54731 9.91602 4.08333V3.5C9.91551 3.03603 9.73097 2.5912 9.40289 2.26313C9.07481 1.93505 8.62999 1.75051 8.16602 1.75ZM8.74935 4.08333C8.74921 4.238 8.68771 4.38629 8.57834 4.49566C8.46897 4.60502 8.32068 4.66653 8.16602 4.66667H4.66602C4.51135 4.66653 4.36306 4.60502 4.25369 4.49566C4.14432 4.38629 4.08282 4.238 4.08268 4.08333V3.5C4.08282 3.34533 4.14432 3.19704 4.25369 3.08767C4.36306 2.97831 4.51135 2.91681 4.66602 2.91667H8.16602C8.32068 2.91681 8.46897 2.97831 8.57834 3.08767C8.68771 3.19704 8.74921 3.34533 8.74935 3.5V4.08333Z" fill="white"/>
</g>
<defs>
<clipPath id="clip0_1609_24691">
<rect width="14" height="14" fill="white"/>
</clipPath>
</defs>
</svg>
