<svg width="157" height="162" viewBox="0 0 157 162" fill="none" xmlns="http://www.w3.org/2000/svg">
<path fill-rule="evenodd" clip-rule="evenodd" d="M91.2293 15.7418C91.3066 15.6203 91.3307 15.4723 91.2957 15.3326L90.7239 13.0459C90.6068 12.5775 91.1309 12.2127 91.5295 12.4852L93.4724 13.8133C93.593 13.8958 93.7426 13.9243 93.8851 13.8918L96.0576 13.3974C96.5178 13.2927 96.8717 13.8011 96.6137 14.1963L95.3957 16.0619C95.3158 16.1843 95.2905 16.3345 95.326 16.4763L95.8969 18.7594C96.014 19.2279 95.4899 19.5927 95.0913 19.3202L93.1455 17.99C93.0266 17.9087 92.8794 17.8798 92.7386 17.9102L90.6178 18.3672C90.1621 18.4653 89.814 17.9653 90.0643 17.572L91.2293 15.7418Z" fill="#FFF686"/>
<path fill-rule="evenodd" clip-rule="evenodd" d="M96.7293 114.337C96.8066 114.215 96.8307 114.067 96.7957 113.928L96.2239 111.641C96.1068 111.172 96.6309 110.808 97.0295 111.08L98.9724 112.408C99.093 112.491 99.2426 112.519 99.3851 112.487L101.558 111.992C102.018 111.888 102.372 112.396 102.114 112.791L100.896 114.657C100.816 114.779 100.791 114.929 100.826 115.071L101.397 117.354C101.514 117.823 100.99 118.188 100.591 117.915L98.6455 116.585C98.5266 116.504 98.3794 116.475 98.2386 116.505L96.1178 116.962C95.6621 117.06 95.314 116.56 95.5643 116.167L96.7293 114.337Z" fill="#FFF686"/>
<path d="M82.3732 32.5869C81.281 30.8346 80.7876 28.7749 80.9675 26.718L84.448 25.883C84.2706 27.9407 84.7645 30.0004 85.8558 31.7538L82.3732 32.5869Z" fill="#03E5BD"/>
<path d="M86.8075 74.0396C85.8008 71.8266 85.5401 69.3465 86.0645 66.9725L90.2555 66.5338C89.7324 68.9073 89.9937 71.3865 91.0003 73.5987L86.8075 74.0396Z" fill="#FFF686"/>
<path d="M73.1991 107.07C71.6313 106.541 70.1385 104.615 70.1385 104.615L71.4782 102.879C71.4782 102.879 72.9747 104.801 74.5284 105.325L73.1991 107.07Z" fill="#03E5BD"/>
<path d="M42.0592 107.826C40.8735 108.547 39.5417 108.992 38.1613 109.131L37.6129 107.096C37.6129 107.096 39.8877 106.94 41.5126 105.789L42.0592 107.826Z" fill="#FF1BCA"/>
<path d="M30.2281 87.3074C30.2616 86.9665 30.2569 86.6438 30.2518 86.3132C30.2482 85.9821 30.2279 85.6514 30.191 85.3224C30.1956 85.3635 30.1334 84.879 30.0843 84.9136C29.3078 85.4965 28.1708 85.2691 27.3435 84.9257C26.8769 84.7268 26.4626 84.4227 26.133 84.0372C25.9962 83.8686 25.88 83.6842 25.7871 83.488C25.7417 83.3956 25.7015 83.3009 25.6667 83.2041L25.6364 83.0996L25.6252 82.9526C25.6225 82.7347 25.5903 82.518 25.5292 82.3088C25.4655 82.1414 25.4231 82.4671 25.4241 82.4533C25.3897 82.7313 25.3732 83.0113 25.3748 83.2915C25.3487 84.7762 25.4234 86.2979 26.6606 87.2989C27.5281 87.9963 29.1738 88.4495 30.1422 87.7244C30.2243 87.6523 30.2213 87.3866 30.2281 87.3074Z" fill="#FC8658"/>
<path d="M86.6007 117.885C83.5143 115.396 85.0099 111.52 85.9008 110.689L82.9479 110.993C80.227 113.901 82.4985 118.11 83.9887 118.781C84.5884 118.609 86.4886 117.794 86.6007 117.885Z" fill="#03E5BD"/>
<path d="M96.213 99.2173C93.8473 102.479 89.6852 103.81 86.6498 100.603C84.347 98.1705 82.0426 95.496 83.4556 91.9322C83.3145 92.2858 85.5061 93.5829 85.3578 93.9783C84.8745 95.2047 84.8004 96.5545 85.1465 97.8264C85.3265 98.4684 85.5974 99.0814 85.9511 99.6466C86.3238 100.182 86.2341 100.103 85.6779 99.4058C86.0237 99.6767 86.4005 99.9054 86.8004 100.087C89.6314 101.499 92.7129 99.4015 94.3267 97.1742C94.2345 97.3041 96.3406 99.0556 96.2289 99.2202L96.213 99.2173Z" fill="#FC8658"/>
<path d="M83.4531 91.9294C83.312 92.2831 85.5036 93.5801 85.3553 93.9755C84.872 95.2019 84.7979 96.5517 85.144 97.8236C85.3103 98.425 85.5588 99.0004 85.8826 99.5337C85.7268 99.4372 85.5645 99.3313 85.3897 99.2143C83.6241 97.1478 82.3096 94.8341 83.4531 91.9294Z" fill="#E86036"/>
<path d="M57.8997 81.3997C58.4751 80.1914 59.7532 79.5058 60.9365 80.3704C61.8371 81.0303 62.7457 81.7566 62.4999 83.0071C62.5255 82.8814 61.733 82.5908 61.7578 82.4534C61.8382 82.0263 61.7792 81.5846 61.5894 81.1937C61.491 80.9957 61.366 80.8121 61.218 80.648C61.0553 80.5046 61.0974 80.5158 61.3204 80.7085C61.1913 80.6423 61.0552 80.5908 60.9147 80.5549C59.9058 80.2662 59.0253 81.1354 58.6342 81.9579C58.6568 81.9111 57.8626 81.4671 57.8923 81.4081L57.8997 81.3997Z" fill="#E86036"/>
<path d="M62.4974 83.0038C62.5229 82.8781 61.7305 82.5876 61.7553 82.4501C61.8345 82.023 61.7755 81.5817 61.5869 81.1904C61.4948 81.0052 61.3786 80.8331 61.2413 80.6785L61.4212 80.7518C62.1283 81.3117 62.6927 81.983 62.4974 83.0038Z" fill="#FC8658"/>
<path d="M35.5739 120.552C31.9467 121.528 28.1506 120.055 27.8298 115.953C27.5943 112.856 27.4836 109.554 30.5967 107.799C30.2886 107.973 31.1148 110.197 30.7745 110.39C29.7057 110.996 28.8607 111.93 28.365 113.054C28.1181 113.625 27.954 114.229 27.8779 114.847C27.8363 115.455 27.8133 115.341 27.809 114.505C27.9019 114.904 28.0414 115.29 28.2246 115.657C29.4481 118.338 32.9111 118.625 35.384 117.959C35.2406 117.995 35.7417 120.496 35.5618 120.549L35.5739 120.552Z" fill="#05C6A1"/>
<path d="M30.5979 107.799C30.2898 107.972 31.1161 110.196 30.7758 110.389C29.707 110.995 28.862 111.929 28.3663 113.053C28.1347 113.586 27.9781 114.149 27.901 114.725C27.8456 114.565 27.7873 114.392 27.7302 114.204C27.6599 111.664 28.0668 109.226 30.5979 107.799Z" fill="#03E5BD"/>
<path d="M102.457 50.3036C100.51 51.2522 98.7175 49.5399 97.368 48.3215C95.841 46.943 94.3707 45.8701 92.4852 46.5134C93.0734 46.1906 93.5135 45.8634 94.2672 45.4493C96.1307 44.4272 97.8791 45.2265 99.3752 46.4888C100.798 47.6867 102.727 49.9379 104.829 48.9146C104.225 49.2088 103.229 49.9278 102.457 50.3036Z" fill="#03E5BD"/>
<path d="M109.811 35.4391C109.511 38.6206 108.876 41.7617 107.917 44.8101C107.539 46.0039 107.061 47.4641 105.969 48.2068C104.997 48.8652 103.955 49.652 102.851 50.0646C103.719 49.7477 104.393 48.8778 105.271 48.5583C105.45 48.5022 105.623 48.4272 105.786 48.3346C105.043 48.7913 104.281 49.265 103.529 49.7322L103.769 49.5732L103.607 49.682C105.214 48.3827 105.668 45.9412 106.17 44.0422C106.775 41.7139 107.188 39.34 107.407 36.9444C107.423 36.7661 108.467 36.2667 108.609 36.177C108.751 36.0872 109.812 35.5808 109.824 35.4362L109.811 35.4391Z" fill="#05C6A1"/>
<path d="M90.6293 56.7167C90.267 57.1206 89.784 57.3968 89.2522 57.5042C88.7204 57.6117 88.168 57.5448 87.6773 57.3133C86.4 56.7994 85.3139 56.4132 84.0617 57.2587C84.8304 56.7393 85.2936 55.7508 86.0624 55.2314C87.0502 54.5642 88.1058 54.5938 89.1772 55.0597C90.2486 55.5256 91.2534 55.8106 92.2986 55.0236C92.2564 55.0715 92.2037 55.1103 92.1573 55.1546C92.2179 55.0858 92.2785 55.0169 92.3556 54.9589C92.7321 54.5904 92.069 55.2843 92.0175 55.3427C91.5643 55.8067 91.1091 56.2688 90.6437 56.7257L90.6293 56.7167Z" fill="#03E5BD"/>
<path d="M93.5011 45.932C93.2085 46.1525 92.9623 46.4287 92.7768 46.7447C92.5913 47.0606 92.4701 47.4101 92.4202 47.7731C92.1085 49.6619 93.1359 52.1081 92.9427 53.8161C92.8126 54.9647 92.0604 55.7135 91.1864 56.344C90.95 56.576 90.6829 56.7744 90.3926 56.9339C90.2665 57.0266 90.1386 57.1214 90.0104 57.2122C90.464 56.4443 90.6858 55.5615 90.6491 54.6704C90.648 53.2544 90.1647 51.7172 90.0887 50.3315C90.0377 49.8038 90.1173 49.2717 90.3205 48.782C90.5238 48.2924 90.8444 47.8603 91.2542 47.5239C91.2542 47.5239 91.2413 47.5385 91.2321 47.549C91.256 47.5218 91.2781 47.4968 91.3168 47.4865C91.3555 47.4761 91.3554 47.4427 91.386 47.4289C92.0542 46.9395 92.8165 46.2255 93.6284 45.859L93.5011 45.932Z" fill="#05C6A1"/>
<path d="M61.7666 111.024C61.9732 110.916 62.1677 110.787 62.3469 110.638C62.356 110.565 62.363 110.489 62.3683 110.416C62.384 109.945 62.3409 109.474 62.2401 109.014C62.04 108.001 61.7952 106.996 61.5295 106.036C61.2639 105.076 60.9304 104.226 60.6306 103.318C60.3503 102.623 60.2589 101.866 60.3657 101.125C60.5067 100.541 60.7327 99.9812 61.0365 99.4632C61.1723 99.2123 61.3059 98.9596 61.4459 98.7124L62.1495 98.8136C61.9614 98.9181 61.7819 99.0375 61.6128 99.1706C61.6029 99.292 61.6008 99.4138 61.6063 99.5354C61.6524 100.387 61.9742 101.115 62.2241 101.858C62.5562 102.81 62.8521 103.782 63.1022 104.776C63.3757 105.702 63.5624 106.652 63.66 107.613C63.7275 108.709 63.248 109.783 62.5862 110.934L61.7666 111.024Z" fill="#E86036"/>
<path d="M76.3095 98.7987C76.8024 98.1385 77.23 97.4321 77.5862 96.6892C77.623 96.6179 77.658 96.5487 77.691 96.4777C77.3257 96.8403 76.941 97.1829 76.5388 97.504C75.6965 98.0923 74.6876 98.3944 73.6606 98.3657C70.5952 98.3215 69.2036 95.6621 65.1607 95.9201C64.1485 95.9842 63.0193 96.6269 62.2884 97.4649C61.7962 98.0774 61.3739 98.743 61.0295 99.4492C60.9521 99.5959 60.875 99.7466 60.8016 99.893C60.8585 99.8284 60.9173 99.7616 60.9761 99.6949C61.2066 99.4268 61.4889 99.208 61.8059 99.0515C61.9784 98.9337 62.1569 98.8251 62.3407 98.7261C63.2871 98.2214 64.3807 98.065 65.4306 98.2842C68.8851 98.9675 70.4093 100.984 73.9563 100.452C74.8749 100.31 75.7234 99.5567 76.3095 98.7987Z" fill="#FC8658"/>
<path d="M62.4199 111.208C62.6966 110.757 62.9472 110.292 63.1706 109.813L63.0607 109.912C62.8608 110.184 62.6159 110.419 62.3366 110.608L62.336 110.63C60.8287 111.895 58.9239 111.177 57.6549 111.011C56.8942 110.911 56.0185 110.892 55.1855 111.392C52.5256 112.994 51.2506 116.279 51.4693 116.031C52.6783 114.659 53.5217 113.701 55.0392 113.312C55.7261 113.237 56.4207 113.283 57.0921 113.446C57.9454 113.608 58.8151 113.782 59.835 113.528C61.0819 113.219 61.8209 112.199 62.4199 111.208Z" fill="#FC8658"/>
<path d="M56.5064 68.4818C56.8952 68.5577 56.2577 69.0963 56.679 68.8747C57.3056 68.6283 57.9069 68.3218 58.4744 67.9594C59.2945 67.5017 60.0587 66.9504 60.7515 66.3163C62.6003 64.533 63.6258 61.3207 63.3496 56.9578C63.1903 54.4429 62.0904 51.7552 62.9299 49.3051C63.0681 48.898 63.2639 48.5128 63.5114 48.1614C64.7417 48.0263 65.8895 48.3298 67.0791 48.6405C68.3246 48.9634 69.5026 48.9972 70.7811 49.0639C72.0235 49.1491 73.2663 48.9046 74.3839 48.3552L74.464 48.3147C74.4651 48.3934 75.7007 47.7518 75.9813 47.5174C76.859 47.062 77.6768 46.4995 78.416 45.8427C79.4001 44.9083 80.0495 43.6761 80.2639 42.3361C80.5191 40.9235 80.5396 37.763 76.7696 34.5865C76.6006 34.4377 74.8012 35.631 74.4891 35.8044C74.4341 35.8374 74.1536 36.0423 74.1053 36.0256C76.6863 36.973 77.8053 41.4558 77.7096 42.8681C77.6516 44.0743 77.2827 45.245 76.6387 46.2665C76.3153 46.7311 75.9304 47.1497 75.4944 47.5108C75.4429 47.5692 75.3766 47.6108 75.3148 47.6601C74.0526 48.0079 72.7667 47.7308 71.4902 47.5103C70.8616 47.4268 70.2377 47.3112 69.6208 47.1639C68.9648 46.9584 68.2918 46.8119 67.6098 46.726C66.4916 46.5964 65.3598 46.7953 64.3529 47.2986L64.2002 47.3752C63.6241 47.6086 62.8826 48.0298 62.332 48.3227C61.817 48.608 61.3589 48.9855 60.9805 49.4364C59.4331 51.4074 59.9679 54.4717 60.3968 56.8277C61.16 61.1341 60.7929 64.482 59.1629 66.5469C58.7936 67.0334 58.3851 67.4888 57.9413 67.9084C57.8128 68.0249 57.6819 68.1356 57.5451 68.2447C57.2514 68.334 56.9528 68.4061 56.6508 68.4609" fill="#C60AAC"/>
<path d="M64.188 47.3791L64.3523 47.2978C65.3621 46.7908 66.4982 46.5901 67.6206 46.7206C68.3079 46.7814 70.8759 47.3988 71.5011 47.5049C72.7838 47.7309 74.0635 48.0025 75.3256 47.6547L75.9977 47.5057C75.7067 47.731 73.3782 49.2177 71.0175 49.2609C69.7405 49.2807 68.3253 48.9528 67.0881 48.6372C65.8862 48.3194 64.7424 48.0157 63.5204 48.158L64.188 47.3791Z" fill="#FF1BCA"/>
<path d="M57.0262 68.6817C56.9291 68.7662 56.8218 68.8385 56.707 68.8969C55.9184 69.2911 55.0809 69.5786 54.2164 69.7518C51.4803 70.3052 48.4656 69.9427 45.695 70.0768C45.1747 70.101 44.6572 70.1681 44.1478 70.2772C43.6157 70.3429 43.0878 70.4394 42.5668 70.5664L42.3302 70.6247C43.1509 70.1738 43.9984 69.7735 44.8679 69.426C47.8472 68.2644 51.0101 68.7278 54.1675 68.6677C55.3039 68.6853 56.4372 68.5439 57.5344 68.2477L57.0262 68.6817Z" fill="#FF1BCA"/>
<path d="M47.7744 91.8699C47.281 90.0498 44.6428 88.6038 42.6535 88.7593C41.7749 88.8351 40.9544 89.2297 40.3465 89.8685C40.1473 88.9959 40.0713 88.0998 40.1208 87.2062C40.1439 86.727 40.2174 86.2517 40.3402 85.788L42.0508 82.8494C41.3575 83.7597 40.7492 84.7318 40.2336 85.7533C39.985 86.2753 39.7531 86.8119 39.5426 87.3452C38.8229 89.1673 39.3077 91.0688 39.2967 91.0813C38.3631 92.263 37.344 93.4621 35.8028 94.1308C34.9027 94.5359 33.9029 94.6657 32.9292 94.5039C32.6866 94.4536 32.4479 94.3858 32.2152 94.3009L31.592 96.1859C31.6981 96.2126 31.8021 96.2375 31.9035 96.2528C35.8004 96.9849 37.2503 95.4356 38.0823 94.4533C38.5954 93.769 39.1471 93.1146 39.7347 92.4933C39.8036 92.7725 40.3466 94.5659 42.5146 95.8644C42.9683 96.144 43.4831 96.3093 44.0148 96.3459C44.5465 96.3826 45.0791 96.2896 45.5669 96.0749C46.2142 95.7812 46.7323 95.2617 47.0245 94.6137C47.1567 94.3973 47.2727 94.1714 47.3716 93.9379C47.7082 93.3119 47.9911 92.6795 47.7744 91.8699ZM41.8155 92.9741C41.3027 92.3362 40.9009 91.6166 40.627 90.8454C41.6143 90.4185 42.7963 90.4854 44.0851 90.9947C44.9799 91.3457 45.8586 91.879 46.3917 92.6153C46.6574 92.978 46.8422 93.3934 46.9337 93.8336C46.9476 93.8978 46.9555 93.9603 46.9636 94.0267C45.5764 94.9497 43.2234 94.7107 41.8155 92.9741Z" fill="#EDDE54"/>
<path d="M42.0462 82.8439C42.7554 81.9932 43.6389 81.3045 44.6369 80.8244C45.635 80.3443 46.7245 80.0839 47.8319 80.0609C48.7499 80.059 49.6599 80.2319 50.5132 80.5706C50.7019 81.3937 50.8779 82.2144 51.0414 83.0326C50.1347 82.5562 49.1617 82.0881 48.1894 81.9428C43.2002 81.1932 40.3186 85.7935 40.3186 85.7935C40.5037 84.86 42.0462 82.8439 42.0462 82.8439ZM46.9423 94.0362C46.9285 93.8238 46.8793 93.6152 46.7969 93.419C46.2115 92.0439 45.0173 91.2884 43.3883 90.7869C42.4837 90.4715 41.4953 90.4963 40.6077 90.8566C40.4629 90.5462 40.37 90.2141 40.3327 89.8735C40.9215 89.2186 41.7453 88.823 42.6246 88.7731C44.6243 88.6268 47.2633 90.055 47.7496 91.8874C47.8704 92.3951 47.8102 92.929 47.5794 93.3971C47.4229 93.6593 47.204 93.8788 46.9423 94.0362Z" fill="#FFF686"/>
<path opacity="0.17" d="M39.2892 91.0763C39.3942 91.5646 39.5457 92.0417 39.7418 92.5011C39.7418 92.5011 39.2742 92.9857 39.1552 93.1292C39.1552 93.1292 38.5867 92.0504 38.6897 91.8115C38.6897 91.8115 39.1235 91.2601 39.2892 91.0763Z" fill="#1E1D1E"/>
<path d="M118.293 66.1632C117.173 66.5875 115.945 66.6362 114.795 66.302L114.704 64.2358C115.854 64.57 117.081 64.5213 118.201 64.097L118.293 66.1632Z" fill="#03E5BD"/>
<path d="M101.788 62.8386C103.247 61.5668 105.079 60.8032 107.009 60.6625L108.3 63.7596C106.37 63.9003 104.538 64.664 103.079 65.9357L101.788 62.8386Z" fill="#FF1BCA"/>
<path d="M68.6918 62.8843C69.2939 63.579 69.6533 64.4509 69.7157 65.3681L68.2435 65.9754C68.1789 65.0587 67.8198 64.1875 67.2196 63.4916L68.6918 62.8843Z" fill="#03E5BD"/>
<path d="M104.856 74.2557C105.832 75.4955 106.381 77.0184 106.419 78.5961L103.842 79.5235C103.805 77.9465 103.258 76.424 102.281 75.1849L104.856 74.2557Z" fill="#FC8658"/>
<path d="M54.1583 92.3776C54.9067 92.9007 55.4651 93.6525 55.7495 94.5201L54.4799 95.4652C54.1954 94.5976 53.6371 93.8457 52.8887 93.3226L54.1583 92.3776Z" fill="#FFF686"/>
<path d="M79.9464 67.1993C79.3734 67.9094 78.5846 68.4136 77.6995 68.6356L76.847 67.303C77.7322 67.079 78.5211 66.5743 79.0957 65.8646L79.9464 67.1993Z" fill="#FFF686"/>
<path d="M47.9132 50.4744L50.1419 50.026L50.3427 54.2853L47.9132 50.4744Z" fill="#FFF686"/>
<path d="M28.3132 72.6428L30.9913 72.7903L29.8429 75.2757L28.3132 72.6428Z" fill="#03E5BD"/>
<path d="M109.297 88.5222L110.677 88.2812L110.34 89.9963L109.297 88.5222Z" fill="#FC8658"/>
<path d="M79.9681 82.6937L80.4124 84.0187L78.6666 83.9441L79.9681 82.6937Z" fill="#FC8658"/>
<path d="M77.4717 54.2065L78.5396 55.1138L77.0052 55.9516L77.4717 54.2065Z" fill="#FC8658"/>
<path d="M118.129 54.2976L118.343 55.6785L116.635 55.308L118.129 54.2976Z" fill="#FF1BCA"/>
<path d="M121.604 72.8131L123.482 73.2043L122.184 75.2206L121.604 72.8131Z" fill="#FFF686"/>
<path d="M43.7757 127.095L44.1975 128.967L41.824 128.621L43.7757 127.095Z" fill="#FFF686"/>
<path d="M42.8729 65.5901L43.8359 64.0342L44.9512 65.5353L42.8729 65.5901Z" fill="#03E5BD"/>
<path d="M113.369 80.6307L112.539 78.9993L114.399 78.8263L113.369 80.6307Z" fill="#03E5BD"/>
<path d="M54.5683 142.769L53.7382 141.138L55.5983 140.965L54.5683 142.769Z" fill="#03E5BD"/>
<path d="M71.2327 76.213L73.6682 77.599L71.4358 79.3889L71.2327 76.213Z" fill="#FF1BCA"/>
<path d="M41.3552 137.929C39.1894 138.067 36.1568 136.644 36.1568 136.644L36.6946 135.962C36.6946 135.962 39.7273 137.385 41.8951 137.249L41.3552 137.929Z" fill="#FF1BCA"/>
<path d="M97.0083 83.7189C95.4419 82.2169 94.4379 79.0208 94.4379 79.0208L95.3024 78.9562C95.3024 78.9562 96.3103 82.152 97.8767 83.6541L97.0083 83.7189Z" fill="#FF1BCA"/>
</svg>
