<svg width="24" height="25" viewBox="0 0 24 25" fill="none" xmlns="http://www.w3.org/2000/svg">
<g filter="url(#filter0_d_2471_46293)">
<circle cx="12" cy="12" r="10" fill="white"/>
<circle cx="12" cy="12" r="10.75" stroke="black" stroke-width="1.5"/>
</g>
<g filter="url(#filter1_d_2471_46293)">
<path d="M7.55816 9.98179C7.13965 10.0258 6.95936 10.5355 7.25714 10.8329L11.5073 15.0766C11.9569 15.5255 12.7057 15.4468 13.0521 14.9142L16.3271 9.87958C16.5565 9.52683 16.2742 9.0657 15.8557 9.10968L7.55816 9.98179Z" fill="#3BF873"/>
<path d="M6.72721 11.3636C5.98275 10.6203 6.4335 9.34586 7.47976 9.2359L15.7773 8.36379C16.8236 8.25382 17.5294 9.40666 16.9558 10.2885L13.6808 15.3232C13.0746 16.2552 11.7642 16.3929 10.9774 15.6073L6.72721 11.3636Z" stroke="#060606" stroke-width="1.5" stroke-linejoin="round"/>
</g>
<defs>
<filter id="filter0_d_2471_46293" x="0.5" y="0.5" width="23" height="24" filterUnits="userSpaceOnUse" color-interpolation-filters="sRGB">
<feFlood flood-opacity="0" result="BackgroundImageFix"/>
<feColorMatrix in="SourceAlpha" type="matrix" values="0 0 0 0 0 0 0 0 0 0 0 0 0 0 0 0 0 0 127 0" result="hardAlpha"/>
<feOffset dy="1"/>
<feComposite in2="hardAlpha" operator="out"/>
<feColorMatrix type="matrix" values="0 0 0 0 0 0 0 0 0 0 0 0 0 0 0 0 0 0 1 0"/>
<feBlend mode="normal" in2="BackgroundImageFix" result="effect1_dropShadow_2471_46293"/>
<feBlend mode="normal" in="SourceGraphic" in2="effect1_dropShadow_2471_46293" result="shape"/>
</filter>
<filter id="filter1_d_2471_46293" x="5.60742" y="7.6062" width="12.3047" height="10.2629" filterUnits="userSpaceOnUse" color-interpolation-filters="sRGB">
<feFlood flood-opacity="0" result="BackgroundImageFix"/>
<feColorMatrix in="SourceAlpha" type="matrix" values="0 0 0 0 0 0 0 0 0 0 0 0 0 0 0 0 0 0 127 0" result="hardAlpha"/>
<feOffset dy="1"/>
<feComposite in2="hardAlpha" operator="out"/>
<feColorMatrix type="matrix" values="0 0 0 0 0 0 0 0 0 0 0 0 0 0 0 0 0 0 1 0"/>
<feBlend mode="normal" in2="BackgroundImageFix" result="effect1_dropShadow_2471_46293"/>
<feBlend mode="normal" in="SourceGraphic" in2="effect1_dropShadow_2471_46293" result="shape"/>
</filter>
</defs>
</svg>
