<svg width="12" height="12" viewBox="0 0 12 12" fill="none" xmlns="http://www.w3.org/2000/svg">
<g opacity="0.6" clip-path="url(#clip0_1609_24674)">
<path d="M9.49984 7.00016C9.4998 7.09902 9.47044 7.19565 9.41548 7.27783C9.36052 7.36002 9.28242 7.42406 9.19107 7.46186C9.09972 7.49966 8.99921 7.50953 8.90225 7.49021C8.80529 7.47089 8.71623 7.42326 8.64634 7.35334C8.57645 7.28341 8.52886 7.19433 8.50959 7.09737C8.49032 7.0004 8.50023 6.89989 8.53808 6.80856C8.57592 6.71722 8.64 6.63916 8.7222 6.58424C8.80441 6.52931 8.90106 6.5 8.99992 6.5C9.06559 6.5 9.13062 6.51294 9.19129 6.53808C9.25196 6.56322 9.30708 6.60006 9.3535 6.64651C9.39993 6.69295 9.43675 6.74809 9.46186 6.80877C9.48697 6.86945 9.49987 6.93449 9.49984 7.00016Z" fill="white"/>
<path fill-rule="evenodd" clip-rule="evenodd" d="M1.5 0C1.10218 0 0.720644 0.158035 0.43934 0.43934C0.158035 0.720644 0 1.10218 0 1.5L0 10.5C0 10.8978 0.158035 11.2794 0.43934 11.5607C0.720644 11.842 1.10218 12 1.5 12H10.5C10.8978 12 11.2794 11.842 11.5607 11.5607C11.842 11.2794 12 10.8978 12 10.5V3.49992C12 3.1021 11.842 2.72057 11.5607 2.43926C11.2794 2.15796 10.8978 1.99992 10.5 1.99992H9V1.5C9 1.10218 8.84196 0.720644 8.56066 0.43934C8.27936 0.158035 7.89782 0 7.5 0L1.5 0ZM7.99992 1.99992V1.5C7.99992 1.36741 7.94725 1.24026 7.8535 1.1465C7.75974 1.05275 7.63259 1.00008 7.5 1.00008H1.5C1.36741 1.00008 1.24026 1.05275 1.1465 1.1465C1.05275 1.24026 1.00008 1.36741 1.00008 1.5V1.99992H7.99992ZM1.00008 3V10.5C1.00008 10.6326 1.05275 10.7597 1.1465 10.8535C1.24026 10.9473 1.36741 10.9999 1.5 10.9999H10.5C10.6326 10.9999 10.7597 10.9473 10.8535 10.8535C10.9473 10.7597 10.9999 10.6326 10.9999 10.5V9H9C8.47331 8.9943 7.97012 8.78107 7.59969 8.40661C7.22926 8.03215 7.02149 7.52669 7.02149 6.99996C7.02149 6.47324 7.22926 5.96777 7.59969 5.59331C7.97012 5.21885 8.47331 5.00562 9 4.99992H10.9999V3.49992C10.9999 3.36733 10.9473 3.24018 10.8535 3.14642C10.7597 3.05267 10.6326 3 10.5 3H1.00008ZM10.9999 6H9C8.8674 5.99797 8.73571 6.02233 8.61261 6.07168C8.48951 6.12102 8.37745 6.19435 8.28296 6.28741C8.18847 6.38046 8.11343 6.49138 8.06221 6.61371C8.01099 6.73604 7.98461 6.86734 7.98461 6.99996C7.98461 7.13258 8.01099 7.26388 8.06221 7.38621C8.11343 7.50854 8.18847 7.61946 8.28296 7.71252C8.37745 7.80557 8.48951 7.8789 8.61261 7.92825C8.73571 7.97759 8.8674 8.00195 9 7.99992H10.9999V6Z" fill="white"/>
</g>
<defs>
<clipPath id="clip0_1609_24674">
<rect width="12" height="12" fill="white"/>
</clipPath>
</defs>
</svg>
