<svg width="41" height="41" viewBox="0 0 41 41" fill="none" xmlns="http://www.w3.org/2000/svg">
<g id="Mask group">
<mask id="mask0_2681_41353" style="mask-type:alpha" maskUnits="userSpaceOnUse" x="0" y="0" width="41" height="41">
<rect id="Rectangle 34627533" x="0.597656" y="0.603516" width="40" height="40" fill="#D9D9D9"/>
</mask>
<g mask="url(#mask0_2681_41353)">
<g id="Group 1912055763">
<path id="Union" d="M13.2205 16.7122C13.2205 16.809 13.2402 16.9013 13.2757 16.9851C13.4188 17.6338 13.8346 18.1847 14.4999 18.6342V20.4393C13.8341 20.8891 13.4182 21.4405 13.2754 22.0898C13.24 22.1735 13.2205 22.2655 13.2205 22.362V22.9041H12.7483L12.748 22.9041L12.7236 22.9035L12.6342 22.9015C12.5586 22.8999 12.4537 22.8977 12.3366 22.8956C12.1041 22.8913 11.8174 22.8869 11.6165 22.8869C8.6051 22.8869 6.28315 23.2313 4.72294 23.8645C3.33043 24.4296 2.52767 25.2271 2.39396 26.2727C2.38106 26.3259 2.37422 26.3814 2.37422 26.4385V29.27C2.37422 29.3669 2.39389 29.4591 2.42944 29.543C2.56651 30.1643 2.95395 30.6963 3.57144 31.1351C3.57086 31.1468 3.57057 31.1585 3.57057 31.1703V33.9476C3.57057 34.0443 3.59018 34.1364 3.62564 34.2202C3.83494 35.1735 4.62478 35.8997 5.91916 36.425L6.18239 35.7764L5.91916 36.425C7.47937 37.0582 9.80133 37.4026 12.8128 37.4026C15.02 37.4026 16.8496 37.2175 18.2791 36.8733C18.6725 37.2755 19.2191 37.6103 19.9094 37.8905L20.1726 37.2418L19.9094 37.8905C21.4696 38.5236 23.7916 38.8681 26.803 38.8681C29.8144 38.8681 32.1364 38.5236 33.6966 37.8905C33.8209 37.84 33.9448 37.7798 34.0544 37.6977C34.1081 37.6574 34.1534 37.6158 34.192 37.5739C35.1603 37.5979 36.03 37.1186 36.5105 36.2999C36.7125 35.9557 36.9901 35.3831 37.2073 34.9207C37.3182 34.6844 37.4175 34.4682 37.4889 34.3112C37.5247 34.2326 37.5535 34.1687 37.5735 34.1242L37.5895 34.0886C37.5907 34.0864 37.592 34.0842 37.5933 34.0819C37.6086 34.0547 37.6289 34.0173 37.6522 33.9714C37.6984 33.8805 37.7583 33.7522 37.8141 33.6C37.9177 33.3172 38.0435 32.856 37.9455 32.3784C37.9338 32.3217 37.9152 32.2667 37.8901 32.2146C36.9783 30.327 35.3246 28.8916 31.7046 27.1103V26.2361V26.2335L31.7048 26.2114L31.7049 26.2114L31.7048 26.2007L31.7046 26.1786V26.176V25.9664C31.7046 25.8864 31.6912 25.8096 31.6665 25.738C31.6912 25.6664 31.7046 25.5896 31.7046 25.5096V25.2992V25.2966L31.7048 25.2745L31.7049 25.2745L31.7048 25.2638L31.7046 25.2417V25.2391V23.1201C32.3704 22.6704 32.7864 22.1191 32.9293 21.4698C32.9646 21.3863 32.984 21.2944 32.984 21.1979V20.9881V20.9854L32.9842 20.963L32.9843 20.963L32.9842 20.9522L32.984 20.9298V20.9271V18.4206C32.984 18.406 32.9836 18.3914 32.9827 18.377C32.9838 18.3477 32.9843 18.3185 32.9843 18.2894C32.9843 17.4349 32.5553 16.7021 31.7046 16.127V13.8807C31.7046 13.8738 31.7045 13.8669 31.7044 13.8601C31.7048 13.8412 31.705 13.8223 31.705 13.8035C31.705 13.2497 31.5211 12.7132 31.1094 12.2364C30.711 11.7751 30.1244 11.3974 29.3564 11.0857C27.7962 10.4526 25.4742 10.1081 22.4628 10.1081C19.4514 10.1081 17.1294 10.4526 15.5692 11.0857C14.8012 11.3974 14.2145 11.7751 13.8162 12.2364C13.4045 12.7133 13.2206 13.2497 13.2206 13.8035C13.2206 13.8195 13.2208 13.8355 13.2211 13.8515C13.2207 13.8612 13.2205 13.8709 13.2205 13.8807V16.7122Z" fill="#FFC500" stroke="white" stroke-width="1.4" stroke-linejoin="round"/>
<g id="Group 1912055756">
<g id="Group 1912055748">
<g id="Union_2">
<path fill-rule="evenodd" clip-rule="evenodd" d="M20.0131 25.9031H13.9219V28.8014C13.9219 28.8044 13.9219 28.8074 13.9219 28.8103C13.9219 28.8133 13.9219 28.8163 13.9219 28.8192V29.0507H13.9386C14.0355 29.7332 14.5666 30.3652 15.8337 30.8795C17.2717 31.463 19.4889 31.8057 22.4641 31.8057C25.4392 31.8057 27.6564 31.463 29.0944 30.8795C30.3615 30.3652 30.8926 29.7332 30.9895 29.0507H31.0061V28.8363C31.0062 28.8276 31.0062 28.819 31.0062 28.8103C31.0062 28.8017 31.0062 28.793 31.0061 28.7844V25.9031H24.915C24.1653 25.8452 23.3482 25.8149 22.4641 25.8149C21.58 25.8149 20.7628 25.8452 20.0131 25.9031Z" fill="#FF7300"/>
<path fill-rule="evenodd" clip-rule="evenodd" d="M20.0131 25.9031H13.9219V28.8014C13.9219 28.8044 13.9219 28.8074 13.9219 28.8103C13.9219 28.8133 13.9219 28.8163 13.9219 28.8192V29.0507H13.9386C14.0355 29.7332 14.5666 30.3652 15.8337 30.8795C17.2717 31.463 19.4889 31.8057 22.4641 31.8057C25.4392 31.8057 27.6564 31.463 29.0944 30.8795C30.3615 30.3652 30.8926 29.7332 30.9895 29.0507H31.0061V28.8363C31.0062 28.8276 31.0062 28.819 31.0062 28.8103C31.0062 28.8017 31.0062 28.793 31.0061 28.7844V25.9031H24.915C24.1653 25.8452 23.3482 25.8149 22.4641 25.8149C21.58 25.8149 20.7628 25.8452 20.0131 25.9031Z" fill="#FFC500" fill-opacity="0.3"/>
</g>
<g id="Mask group_2">
<mask id="mask1_2681_41353" style="mask-type:alpha" maskUnits="userSpaceOnUse" x="13" y="23" width="19" height="7">
<path id="Vector" fill-rule="evenodd" clip-rule="evenodd" d="M15.8337 24.0737C14.419 24.6478 13.9219 25.3687 13.9219 26.1428C13.9219 26.9169 14.419 27.6379 15.8337 28.212C17.2717 28.7955 19.4889 29.1382 22.4641 29.1382C25.4392 29.1382 27.6564 28.7955 29.0944 28.212C30.5091 27.6379 31.0062 26.9169 31.0062 26.1428C31.0062 25.3687 30.5091 24.6478 29.0944 24.0737C27.6564 23.4901 25.4392 23.1475 22.4641 23.1475C19.4889 23.1475 17.2717 23.4901 15.8337 24.0737Z" fill="#FFC500"/>
</mask>
<g mask="url(#mask1_2681_41353)">
<path id="Vector_2" fill-rule="evenodd" clip-rule="evenodd" d="M15.8337 24.0737C14.419 24.6478 13.9219 25.3687 13.9219 26.1428C13.9219 26.9169 14.419 27.6379 15.8337 28.212C17.2717 28.7955 19.4889 29.1382 22.4641 29.1382C25.4392 29.1382 27.6564 28.7955 29.0944 28.212C30.5091 27.6379 31.0062 26.9169 31.0062 26.1428C31.0062 25.3687 30.5091 24.6478 29.0944 24.0737C27.6564 23.4901 25.4392 23.1475 22.4641 23.1475C19.4889 23.1475 17.2717 23.4901 15.8337 24.0737Z" fill="#FFC500"/>
<path id="Vector_3" fill-rule="evenodd" clip-rule="evenodd" d="M14.3106 22.5137C12.8437 23.109 12.3281 23.8566 12.3281 24.6593C12.3281 25.462 12.8437 26.2096 14.3106 26.8049C15.8017 27.41 18.1008 27.7654 21.186 27.7654C24.2711 27.7654 26.5702 27.41 28.0613 26.8049C29.5282 26.2096 30.0438 25.462 30.0438 24.6593C30.0438 23.8566 29.5282 23.109 28.0613 22.5137C26.5702 21.9086 24.2711 21.5532 21.186 21.5532C18.1008 21.5532 15.8017 21.9086 14.3106 22.5137Z" fill="#EB4A1C" fill-opacity="0.8"/>
</g>
</g>
</g>
<g id="Mask group_3">
<mask id="mask2_2681_41353" style="mask-type:alpha" maskUnits="userSpaceOnUse" x="13" y="22" width="19" height="7">
<g id="Union_3">
<path fill-rule="evenodd" clip-rule="evenodd" d="M20.0091 22.2989H13.9219V25.1969C13.9219 25.1999 13.9219 25.2029 13.9219 25.2058C13.9219 25.2088 13.9219 25.2118 13.9219 25.2147V25.4465H13.9386C14.0357 26.1289 14.5668 26.7608 15.8337 27.275C17.2717 27.8585 19.4889 28.2012 22.4641 28.2012C25.4392 28.2012 27.6564 27.8585 29.0944 27.275C30.3613 26.7608 30.8924 26.1289 30.9895 25.4465H31.0061V25.2318C31.0062 25.2231 31.0062 25.2145 31.0062 25.2058C31.0062 25.1972 31.0062 25.1885 31.0061 25.1799V22.2989H24.9191C24.1683 22.2408 23.3498 22.2104 22.4641 22.2104C21.5784 22.2104 20.7598 22.2408 20.0091 22.2989Z" fill="#FF7300"/>
<path fill-rule="evenodd" clip-rule="evenodd" d="M20.0091 22.2989H13.9219V25.1969C13.9219 25.1999 13.9219 25.2029 13.9219 25.2058C13.9219 25.2088 13.9219 25.2118 13.9219 25.2147V25.4465H13.9386C14.0357 26.1289 14.5668 26.7608 15.8337 27.275C17.2717 27.8585 19.4889 28.2012 22.4641 28.2012C25.4392 28.2012 27.6564 27.8585 29.0944 27.275C30.3613 26.7608 30.8924 26.1289 30.9895 25.4465H31.0061V25.2318C31.0062 25.2231 31.0062 25.2145 31.0062 25.2058C31.0062 25.1972 31.0062 25.1885 31.0061 25.1799V22.2989H24.9191C24.1683 22.2408 23.3498 22.2104 22.4641 22.2104C21.5784 22.2104 20.7598 22.2408 20.0091 22.2989Z" fill="#FFC500" fill-opacity="0.3"/>
</g>
</mask>
<g mask="url(#mask2_2681_41353)">
<g id="Union_4">
<path fill-rule="evenodd" clip-rule="evenodd" d="M20.0091 22.2989H13.9219V25.1969C13.9219 25.1999 13.9219 25.2029 13.9219 25.2058C13.9219 25.2088 13.9219 25.2118 13.9219 25.2147V25.4465H13.9386C14.0357 26.1289 14.5668 26.7608 15.8337 27.275C17.2717 27.8585 19.4889 28.2012 22.4641 28.2012C25.4392 28.2012 27.6564 27.8585 29.0944 27.275C30.3613 26.7608 30.8924 26.1289 30.9895 25.4465H31.0061V25.2318C31.0062 25.2231 31.0062 25.2145 31.0062 25.2058C31.0062 25.1972 31.0062 25.1885 31.0061 25.1799V22.2989H24.9191C24.1683 22.2408 23.3498 22.2104 22.4641 22.2104C21.5784 22.2104 20.7598 22.2408 20.0091 22.2989Z" fill="#FF7300"/>
<path fill-rule="evenodd" clip-rule="evenodd" d="M20.0091 22.2989H13.9219V25.1969C13.9219 25.1999 13.9219 25.2029 13.9219 25.2058C13.9219 25.2088 13.9219 25.2118 13.9219 25.2147V25.4465H13.9386C14.0357 26.1289 14.5668 26.7608 15.8337 27.275C17.2717 27.8585 19.4889 28.2012 22.4641 28.2012C25.4392 28.2012 27.6564 27.8585 29.0944 27.275C30.3613 26.7608 30.8924 26.1289 30.9895 25.4465H31.0061V25.2318C31.0062 25.2231 31.0062 25.2145 31.0062 25.2058C31.0062 25.1972 31.0062 25.1885 31.0061 25.1799V22.2989H24.9191C24.1683 22.2408 23.3498 22.2104 22.4641 22.2104C21.5784 22.2104 20.7598 22.2408 20.0091 22.2989Z" fill="#FFC500" fill-opacity="0.3"/>
</g>
</g>
</g>
<g id="Mask group_4">
<mask id="mask3_2681_41353" style="mask-type:alpha" maskUnits="userSpaceOnUse" x="13" y="19" width="19" height="7">
<path id="Vector_4" fill-rule="evenodd" clip-rule="evenodd" d="M15.8337 20.4692C14.419 21.0433 13.9219 21.7642 13.9219 22.5384C13.9219 23.3125 14.419 24.0334 15.8337 24.6075C17.2717 25.191 19.4889 25.5337 22.4641 25.5337C25.4392 25.5337 27.6564 25.191 29.0944 24.6075C30.5091 24.0334 31.0062 23.3125 31.0062 22.5384C31.0062 21.7642 30.5091 21.0433 29.0944 20.4692C27.6564 19.8857 25.4392 19.543 22.4641 19.543C19.4889 19.543 17.2717 19.8857 15.8337 20.4692Z" fill="#FFC500"/>
</mask>
<g mask="url(#mask3_2681_41353)">
<path id="Vector_5" fill-rule="evenodd" clip-rule="evenodd" d="M15.8337 20.4692C14.419 21.0433 13.9219 21.7642 13.9219 22.5384C13.9219 23.3125 14.419 24.0334 15.8337 24.6075C17.2717 25.191 19.4889 25.5337 22.4641 25.5337C25.4392 25.5337 27.6564 25.191 29.0944 24.6075C30.5091 24.0334 31.0062 23.3125 31.0062 22.5384C31.0062 21.7642 30.5091 21.0433 29.0944 20.4692C27.6564 19.8857 25.4392 19.543 22.4641 19.543C19.4889 19.543 17.2717 19.8857 15.8337 20.4692Z" fill="#FFC500"/>
<path id="Vector_6" fill-rule="evenodd" clip-rule="evenodd" d="M14.3106 18.9093C12.8437 19.5046 12.3281 20.2522 12.3281 21.0549C12.3281 21.8576 12.8437 22.6052 14.3106 23.2005C15.8017 23.8056 18.1008 24.161 21.186 24.161C24.2711 24.161 26.5702 23.8056 28.0613 23.2005C29.5282 22.6052 30.0438 21.8576 30.0438 21.0549C30.0438 20.2522 29.5282 19.5046 28.0613 18.9093C26.5702 18.3042 24.2711 17.9489 21.186 17.9489C18.1008 17.9489 15.8017 18.3042 14.3106 18.9093Z" fill="#EB4A1C" fill-opacity="0.8"/>
</g>
</g>
<g id="Mask group_5">
<mask id="mask4_2681_41353" style="mask-type:alpha" maskUnits="userSpaceOnUse" x="13" y="21" width="19" height="11">
<path id="Union_5" fill-rule="evenodd" clip-rule="evenodd" d="M31.006 21.9943H13.9219V29.0507H13.9386C14.0356 29.7332 14.5667 30.3652 15.8337 30.8794C17.2717 31.463 19.4889 31.8056 22.4641 31.8056C25.4393 31.8056 27.6564 31.463 29.0944 30.8794C30.3615 30.3652 30.8925 29.7332 30.9896 29.0507H31.006V28.8392C31.0062 28.8296 31.0063 28.8199 31.0063 28.8103C31.0063 28.8006 31.0062 28.791 31.006 28.7813V21.9943Z" fill="#FF7300"/>
</mask>
<g mask="url(#mask4_2681_41353)">
<path id="Rectangle 34627527" opacity="0.4" d="M13.0977 22.9759C13.0977 22.9759 19.6584 23.3635 21.0477 25.7168C21.0477 26.5193 21.0477 27.7587 21.0477 28.9276C23.6952 29.7868 23.0333 33.0257 23.0333 33.0257L17.5533 32.8315L13.0977 22.9759Z" fill="#EB4A1C" fill-opacity="0.8"/>
<path id="Rectangle 34627528" opacity="0.6" d="M34.7578 33.5556C32.8754 27.5761 15.2693 27.5208 17.5742 34.2863L23.0542 34.0922L34.7578 33.5556Z" fill="#EB4A1C" fill-opacity="0.8"/>
</g>
</g>
<g id="Union_6">
<path fill-rule="evenodd" clip-rule="evenodd" d="M7.73217 31.107H4.26953V33.8844H4.28623C4.38319 34.5669 4.91422 35.199 6.18135 35.7132C7.61935 36.2968 9.83654 36.6394 12.8117 36.6394C15.7869 36.6394 18.0041 36.2968 19.4421 35.7132C20.7092 35.199 21.2402 34.5669 21.3372 33.8844H21.3537V33.672C21.3538 33.6627 21.3539 33.6534 21.3539 33.6441C21.3539 33.6347 21.3538 33.6254 21.3537 33.6161V31.107H17.8912C16.5656 30.8127 14.87 30.6487 12.8117 30.6487C10.7534 30.6487 9.05788 30.8127 7.73217 31.107Z" fill="#FF7300"/>
<path fill-rule="evenodd" clip-rule="evenodd" d="M7.73217 31.107H4.26953V33.8844H4.28623C4.38319 34.5669 4.91422 35.199 6.18135 35.7132C7.61935 36.2968 9.83654 36.6394 12.8117 36.6394C15.7869 36.6394 18.0041 36.2968 19.4421 35.7132C20.7092 35.199 21.2402 34.5669 21.3372 33.8844H21.3537V33.672C21.3538 33.6627 21.3539 33.6534 21.3539 33.6441C21.3539 33.6347 21.3538 33.6254 21.3537 33.6161V31.107H17.8912C16.5656 30.8127 14.87 30.6487 12.8117 30.6487C10.7534 30.6487 9.05788 30.8127 7.73217 31.107Z" fill="#FFC500" fill-opacity="0.3"/>
</g>
<g id="Mask group_6">
<mask id="mask5_2681_41353" style="mask-type:alpha" maskUnits="userSpaceOnUse" x="4" y="28" width="18" height="7">
<path id="Vector_7" fill-rule="evenodd" clip-rule="evenodd" d="M6.18134 29.1275C4.76671 29.7016 4.26953 30.4226 4.26953 31.1967C4.26953 31.9708 4.76671 32.6917 6.18134 33.2658C7.61934 33.8494 9.83653 34.1921 12.8117 34.1921C15.7869 34.1921 18.0041 33.8494 19.442 33.2658C20.8567 32.6917 21.3539 31.9708 21.3539 31.1967C21.3539 30.4226 20.8567 29.7016 19.442 29.1275C18.0041 28.544 15.7869 28.2013 12.8117 28.2013C9.83653 28.2013 7.61934 28.544 6.18134 29.1275Z" fill="#FFC500"/>
</mask>
<g mask="url(#mask5_2681_41353)">
<path id="Vector_8" fill-rule="evenodd" clip-rule="evenodd" d="M6.18134 29.1275C4.76671 29.7016 4.26953 30.4226 4.26953 31.1967C4.26953 31.9708 4.76671 32.6917 6.18134 33.2658C7.61934 33.8494 9.83653 34.1921 12.8117 34.1921C15.7869 34.1921 18.0041 33.8494 19.442 33.2658C20.8567 32.6917 21.3539 31.9708 21.3539 31.1967C21.3539 30.4226 20.8567 29.7016 19.442 29.1275C18.0041 28.544 15.7869 28.2013 12.8117 28.2013C9.83653 28.2013 7.61934 28.544 6.18134 29.1275Z" fill="#FFC500"/>
<path id="Vector_9" fill-rule="evenodd" clip-rule="evenodd" d="M3.0723 27.6748C1.60539 28.2647 1.08984 29.0055 1.08984 29.801C1.08984 30.5965 1.60539 31.3373 3.0723 31.9272C4.56344 32.5268 6.86255 32.879 9.94768 32.879C13.0328 32.879 15.3319 32.5268 16.823 31.9272C18.2899 31.3373 18.8055 30.5965 18.8055 29.801C18.8055 29.0055 18.2899 28.2647 16.823 27.6748C15.3319 27.0752 13.0328 26.723 9.94768 26.723C6.86255 26.723 4.56344 27.0752 3.0723 27.6748Z" fill="#EB4A1C" fill-opacity="0.8"/>
</g>
</g>
<g id="Union_7">
<path fill-rule="evenodd" clip-rule="evenodd" d="M6.79063 26.3755H3.07422V28.9663V29.207H3.09096C3.18806 29.8894 3.71911 30.5213 4.98603 31.0355C6.42403 31.619 8.64122 31.9617 11.6164 31.9617C14.5916 31.9617 16.8087 31.619 18.2467 31.0355C19.5137 30.5213 20.0448 29.8894 20.1418 29.207H20.1584V28.9938C20.1585 28.9847 20.1586 28.9755 20.1586 28.9663C20.1586 28.9572 20.1585 28.948 20.1584 28.9389V26.3755H16.4422C15.1562 26.115 13.5456 25.9709 11.6164 25.9709C9.68716 25.9709 8.07665 26.115 6.79063 26.3755Z" fill="#FF7300"/>
<path fill-rule="evenodd" clip-rule="evenodd" d="M6.79063 26.3755H3.07422V28.9663V29.207H3.09096C3.18806 29.8894 3.71911 30.5213 4.98603 31.0355C6.42403 31.619 8.64122 31.9617 11.6164 31.9617C14.5916 31.9617 16.8087 31.619 18.2467 31.0355C19.5137 30.5213 20.0448 29.8894 20.1418 29.207H20.1584V28.9938C20.1585 28.9847 20.1586 28.9755 20.1586 28.9663C20.1586 28.9572 20.1585 28.948 20.1584 28.9389V26.3755H16.4422C15.1562 26.115 13.5456 25.9709 11.6164 25.9709C9.68716 25.9709 8.07665 26.115 6.79063 26.3755Z" fill="#FFC500" fill-opacity="0.3"/>
</g>
<g id="Mask group_7">
<mask id="mask6_2681_41353" style="mask-type:alpha" maskUnits="userSpaceOnUse" x="3" y="23" width="18" height="7">
<path id="Vector_10" fill-rule="evenodd" clip-rule="evenodd" d="M4.98603 24.4501C3.57139 25.0241 3.07422 25.7451 3.07422 26.5192C3.07422 27.2933 3.57139 28.0142 4.98603 28.5883C6.42403 29.1719 8.64122 29.5146 11.6164 29.5146C14.5916 29.5146 16.8087 29.1719 18.2467 28.5883C19.6614 28.0142 20.1586 27.2933 20.1586 26.5192C20.1586 25.7451 19.6614 25.0241 18.2467 24.4501C16.8087 23.8665 14.5916 23.5238 11.6164 23.5238C8.64122 23.5238 6.42403 23.8665 4.98603 24.4501Z" fill="#FFC500"/>
</mask>
<g mask="url(#mask6_2681_41353)">
<path id="Vector_11" fill-rule="evenodd" clip-rule="evenodd" d="M4.98603 24.4501C3.57139 25.0241 3.07422 25.7451 3.07422 26.5192C3.07422 27.2933 3.57139 28.0142 4.98603 28.5883C6.42403 29.1719 8.64122 29.5146 11.6164 29.5146C14.5916 29.5146 16.8087 29.1719 18.2467 28.5883C19.6614 28.0142 20.1586 27.2933 20.1586 26.5192C20.1586 25.7451 19.6614 25.0241 18.2467 24.4501C16.8087 23.8665 14.5916 23.5238 11.6164 23.5238C8.64122 23.5238 6.42403 23.8665 4.98603 24.4501Z" fill="#FFC500"/>
<ellipse id="Ellipse 5565" cx="5.72694" cy="25.7658" rx="0.820071" ry="1.11232" transform="rotate(59.6942 5.72694 25.7658)" fill="#ECFF0C"/>
<path id="Union_8" fill-rule="evenodd" clip-rule="evenodd" d="M14.3767 24.1088L9.53995 30.3204L10.6587 31.1915L22.5918 15.8664L24.7578 13.6933L24.491 13.4274L30.4527 5.77104L29.334 4.8999L23.4792 12.4189L22.867 11.8087L5.63281 29.1001L7.52362 30.9846L14.3767 24.1088Z" fill="#ECFF0C"/>
</g>
</g>
<g id="Group 1912055754">
<g id="Group 1912055753">
<g id="Union_9">
<path fill-rule="evenodd" clip-rule="evenodd" d="M18.666 18.3573H15.2031V21.1347H15.2198C15.3168 21.8172 15.8478 22.4493 17.115 22.9636C18.553 23.5471 20.7702 23.8898 23.7453 23.8898C26.7205 23.8898 28.9377 23.5471 30.3757 22.9636C31.6429 22.4493 32.1739 21.8172 32.2708 21.1347H32.2873V20.9238C32.2874 20.914 32.2875 20.9042 32.2875 20.8944C32.2875 20.8846 32.2874 20.8748 32.2873 20.865V18.3573H28.8246C27.499 18.063 25.8035 17.899 23.7453 17.899C21.6872 17.899 19.9917 18.063 18.666 18.3573Z" fill="#FF7300"/>
<path fill-rule="evenodd" clip-rule="evenodd" d="M18.666 18.3573H15.2031V21.1347H15.2198C15.3168 21.8172 15.8478 22.4493 17.115 22.9636C18.553 23.5471 20.7702 23.8898 23.7453 23.8898C26.7205 23.8898 28.9377 23.5471 30.3757 22.9636C31.6429 22.4493 32.1739 21.8172 32.2708 21.1347H32.2873V20.9238C32.2874 20.914 32.2875 20.9042 32.2875 20.8944C32.2875 20.8846 32.2874 20.8748 32.2873 20.865V18.3573H28.8246C27.499 18.063 25.8035 17.899 23.7453 17.899C21.6872 17.899 19.9917 18.063 18.666 18.3573Z" fill="#FFC500" fill-opacity="0.3"/>
</g>
<g id="Mask group_8">
<mask id="mask7_2681_41353" style="mask-type:alpha" maskUnits="userSpaceOnUse" x="15" y="15" width="18" height="7">
<path id="Vector_12" fill-rule="evenodd" clip-rule="evenodd" d="M17.1149 16.157C15.7003 16.731 15.2031 17.452 15.2031 18.2261C15.2031 19.0002 15.7003 19.7211 17.1149 20.2952C18.5529 20.8788 20.7701 21.2215 23.7453 21.2215C26.7205 21.2215 28.9377 20.8788 30.3756 20.2952C31.7903 19.7211 32.2875 19.0002 32.2875 18.2261C32.2875 17.452 31.7903 16.731 30.3756 16.157C28.9377 15.5734 26.7205 15.2307 23.7453 15.2307C20.7701 15.2307 18.5529 15.5734 17.1149 16.157Z" fill="#FFC500"/>
</mask>
<g mask="url(#mask7_2681_41353)">
<path id="Vector_13" fill-rule="evenodd" clip-rule="evenodd" d="M17.1149 16.157C15.7003 16.731 15.2031 17.452 15.2031 18.2261C15.2031 19.0002 15.7003 19.7211 17.1149 20.2952C18.5529 20.8788 20.7701 21.2215 23.7453 21.2215C26.7205 21.2215 28.9377 20.8788 30.3756 20.2952C31.7903 19.7211 32.2875 19.0002 32.2875 18.2261C32.2875 17.452 31.7903 16.731 30.3756 16.157C28.9377 15.5734 26.7205 15.2307 23.7453 15.2307C20.7701 15.2307 18.5529 15.5734 17.1149 16.157Z" fill="#FFC500"/>
<path id="Vector_14" fill-rule="evenodd" clip-rule="evenodd" d="M13.6465 14.487C12.1796 15.0769 11.6641 15.8177 11.6641 16.6131C11.6641 17.4086 12.1796 18.1494 13.6465 18.7393C15.1377 19.339 17.4368 19.6911 20.5219 19.6911C23.607 19.6911 25.9061 19.339 27.3972 18.7393C28.8642 18.1494 29.3797 17.4086 29.3797 16.6131C29.3797 15.8177 28.8642 15.0769 27.3972 14.487C25.9061 13.8873 23.607 13.5352 20.5219 13.5352C17.4368 13.5352 15.1377 13.8873 13.6465 14.487Z" fill="#EB4A1C" fill-opacity="0.8"/>
</g>
</g>
<g id="Union_10">
<path fill-rule="evenodd" clip-rule="evenodd" d="M17.6398 13.8174H13.9219V16.3997C13.9219 16.4027 13.9219 16.4056 13.9219 16.4086C13.9219 16.4116 13.9219 16.4145 13.9219 16.4175V16.6489H13.9386C14.0356 17.3315 14.5666 17.9635 15.8337 18.4777C17.2717 19.0613 19.4889 19.404 22.4641 19.404C25.4392 19.404 27.6564 19.0613 29.0944 18.4777C30.3615 17.9635 30.8926 17.3315 30.9895 16.6489H31.0061V16.4345C31.0062 16.4259 31.0062 16.4172 31.0062 16.4086C31.0062 16.3999 31.0062 16.3913 31.0061 16.3827V13.8174H27.2883C26.0025 13.5572 24.3925 13.4132 22.4641 13.4132C20.5356 13.4132 18.9256 13.5572 17.6398 13.8174Z" fill="#FF7300"/>
<path fill-rule="evenodd" clip-rule="evenodd" d="M17.6398 13.8174H13.9219V16.3997C13.9219 16.4027 13.9219 16.4056 13.9219 16.4086C13.9219 16.4116 13.9219 16.4145 13.9219 16.4175V16.6489H13.9386C14.0356 17.3315 14.5666 17.9635 15.8337 18.4777C17.2717 19.0613 19.4889 19.404 22.4641 19.404C25.4392 19.404 27.6564 19.0613 29.0944 18.4777C30.3615 17.9635 30.8926 17.3315 30.9895 16.6489H31.0061V16.4345C31.0062 16.4259 31.0062 16.4172 31.0062 16.4086C31.0062 16.3999 31.0062 16.3913 31.0061 16.3827V13.8174H27.2883C26.0025 13.5572 24.3925 13.4132 22.4641 13.4132C20.5356 13.4132 18.9256 13.5572 17.6398 13.8174Z" fill="#FFC500" fill-opacity="0.3"/>
</g>
<g id="Mask group_9">
<mask id="mask8_2681_41353" style="mask-type:alpha" maskUnits="userSpaceOnUse" x="13" y="10" width="19" height="7">
<path id="Vector_15" fill-rule="evenodd" clip-rule="evenodd" d="M15.8337 11.6711C14.419 12.2452 13.9219 12.9661 13.9219 13.7403C13.9219 14.5144 14.419 15.2353 15.8337 15.8094C17.2717 16.3929 19.4889 16.7356 22.4641 16.7356C25.4392 16.7356 27.6564 16.3929 29.0944 15.8094C30.5091 15.2353 31.0062 14.5144 31.0062 13.7403C31.0062 12.9661 30.5091 12.2452 29.0944 11.6711C27.6564 11.0876 25.4392 10.7449 22.4641 10.7449C19.4889 10.7449 17.2717 11.0876 15.8337 11.6711Z" fill="#FFC500"/>
</mask>
<g mask="url(#mask8_2681_41353)">
<path id="Vector_16" fill-rule="evenodd" clip-rule="evenodd" d="M15.8337 11.6711C14.419 12.2452 13.9219 12.9661 13.9219 13.7403C13.9219 14.5144 14.419 15.2353 15.8337 15.8094C17.2717 16.3929 19.4889 16.7356 22.4641 16.7356C25.4392 16.7356 27.6564 16.3929 29.0944 15.8094C30.5091 15.2353 31.0062 14.5144 31.0062 13.7403C31.0062 12.9661 30.5091 12.2452 29.0944 11.6711C27.6564 11.0876 25.4392 10.7449 22.4641 10.7449C19.4889 10.7449 17.2717 11.0876 15.8337 11.6711Z" fill="#FFC500"/>
<path id="Union_11" fill-rule="evenodd" clip-rule="evenodd" d="M25.2249 11.3294L20.3875 17.5418L21.5063 18.413L33.44 3.08705L35.6054 0.914459L35.3387 0.648637L41.3003 -7.00753L40.1816 -7.87866L34.3269 -0.359835L33.7146 -0.970091L16.4805 16.3213L18.3713 18.2058L25.2249 11.3294Z" fill="#ECFF0C"/>
</g>
</g>
</g>
<ellipse id="Ellipse 5565_2" cx="16.0941" cy="13.2389" rx="0.820071" ry="1.11232" transform="rotate(59.6942 16.0941 13.2389)" fill="#ECFF0C"/>
</g>
<g id="Mask group_10">
<mask id="mask9_2681_41353" style="mask-type:alpha" maskUnits="userSpaceOnUse" x="4" y="28" width="18" height="9">
<g id="Union_12">
<path fill-rule="evenodd" clip-rule="evenodd" d="M21.1897 28.8972H4.1055V33.7037C4.10548 33.7071 4.10547 33.7105 4.10547 33.714C4.10547 33.7174 4.10548 33.7208 4.1055 33.7243V33.9543H4.12216C4.21912 34.6368 4.75014 35.2689 6.01728 35.7831C7.45528 36.3667 9.67247 36.7094 12.6477 36.7094C15.6228 36.7094 17.84 36.3667 19.278 35.7831C20.5452 35.2689 21.0762 34.6368 21.1731 33.9543H21.1897V33.7395C21.1898 33.731 21.1898 33.7225 21.1898 33.714C21.1898 33.7055 21.1898 33.6969 21.1897 33.6884V28.8972Z" fill="#FF7300"/>
<path fill-rule="evenodd" clip-rule="evenodd" d="M21.1897 28.8972H4.1055V33.7037C4.10548 33.7071 4.10547 33.7105 4.10547 33.714C4.10547 33.7174 4.10548 33.7208 4.1055 33.7243V33.9543H4.12216C4.21912 34.6368 4.75014 35.2689 6.01728 35.7831C7.45528 36.3667 9.67247 36.7094 12.6477 36.7094C15.6228 36.7094 17.84 36.3667 19.278 35.7831C20.5452 35.2689 21.0762 34.6368 21.1731 33.9543H21.1897V33.7395C21.1898 33.731 21.1898 33.7225 21.1898 33.714C21.1898 33.7055 21.1898 33.6969 21.1897 33.6884V28.8972Z" fill="#FFC500" fill-opacity="0.3"/>
</g>
</mask>
<g mask="url(#mask9_2681_41353)">
<path id="Rectangle 34627529" opacity="0.7" d="M19.0354 30.5664C20.2372 29.8551 21.1917 29.671 21.1917 29.671L21.1027 38.1327H17.4386V33.5284C17.4386 33.5284 17.1754 31.6672 19.0354 30.5664Z" fill="#EB4A1C" fill-opacity="0.6"/>
</g>
</g>
<g id="Group 1912055751">
<g id="Union_13">
<path fill-rule="evenodd" clip-rule="evenodd" d="M21.9793 32.5184H18.2617V35.1048C18.2617 35.1064 18.2617 35.108 18.2617 35.1095C18.2617 35.1111 18.2617 35.1126 18.2617 35.1142V35.3499H18.2784C18.3754 36.0324 18.9065 36.6644 20.1735 37.1786C21.6115 37.7622 23.8287 38.1049 26.8039 38.1049C29.7791 38.1049 31.9962 37.7622 33.4342 37.1786C34.7013 36.6644 35.2324 36.0324 35.3294 35.3499H35.3459V35.1366C35.346 35.1276 35.3461 35.1186 35.3461 35.1095C35.3461 35.1005 35.346 35.0914 35.3459 35.0824V32.5184H31.6285C30.3426 32.2581 28.7325 32.1141 26.8039 32.1141C24.8753 32.1141 23.2652 32.2581 21.9793 32.5184Z" fill="#FF7300"/>
<path fill-rule="evenodd" clip-rule="evenodd" d="M21.9793 32.5184H18.2617V35.1048C18.2617 35.1064 18.2617 35.108 18.2617 35.1095C18.2617 35.1111 18.2617 35.1126 18.2617 35.1142V35.3499H18.2784C18.3754 36.0324 18.9065 36.6644 20.1735 37.1786C21.6115 37.7622 23.8287 38.1049 26.8039 38.1049C29.7791 38.1049 31.9962 37.7622 33.4342 37.1786C34.7013 36.6644 35.2324 36.0324 35.3294 35.3499H35.3459V35.1366C35.346 35.1276 35.3461 35.1186 35.3461 35.1095C35.3461 35.1005 35.346 35.0914 35.3459 35.0824V32.5184H31.6285C30.3426 32.2581 28.7325 32.1141 26.8039 32.1141C24.8753 32.1141 23.2652 32.2581 21.9793 32.5184Z" fill="#FFC500" fill-opacity="0.3"/>
</g>
<g id="Mask group_11">
<mask id="mask10_2681_41353" style="mask-type:alpha" maskUnits="userSpaceOnUse" x="18" y="29" width="18" height="7">
<path id="Vector_17" fill-rule="evenodd" clip-rule="evenodd" d="M20.1735 30.5929C18.7589 31.167 18.2617 31.8879 18.2617 32.662C18.2617 33.4361 18.7589 34.157 20.1735 34.7311C21.6115 35.3147 23.8287 35.6574 26.8039 35.6574C29.7791 35.6574 31.9962 35.3147 33.4342 34.7311C34.8489 34.157 35.3461 33.4361 35.3461 32.662C35.3461 31.8879 34.8489 31.167 33.4342 30.5929C31.9962 30.0093 29.7791 29.6666 26.8039 29.6666C23.8287 29.6666 21.6115 30.0093 20.1735 30.5929Z" fill="#FFC500"/>
</mask>
<g mask="url(#mask10_2681_41353)">
<path id="Vector_18" fill-rule="evenodd" clip-rule="evenodd" d="M20.1735 30.5929C18.7589 31.167 18.2617 31.8879 18.2617 32.662C18.2617 33.4361 18.7589 34.157 20.1735 34.7311C21.6115 35.3147 23.8287 35.6574 26.8039 35.6574C29.7791 35.6574 31.9962 35.3147 33.4342 34.7311C34.8489 34.157 35.3461 33.4361 35.3461 32.662C35.3461 31.8879 34.8489 31.167 33.4342 30.5929C31.9962 30.0093 29.7791 29.6666 26.8039 29.6666C23.8287 29.6666 21.6115 30.0093 20.1735 30.5929Z" fill="#FFC500"/>
</g>
</g>
<g id="Mask group_12">
<mask id="mask11_2681_41353" style="mask-type:alpha" maskUnits="userSpaceOnUse" x="18" y="29" width="18" height="10">
<g id="Union_14">
<path fill-rule="evenodd" clip-rule="evenodd" d="M35.3459 29.6667H18.2617V35.3498H18.2784C18.3753 36.0324 18.9064 36.6644 20.1735 37.1787C21.6115 37.7623 23.8287 38.1049 26.8039 38.1049C29.7791 38.1049 31.9963 37.7623 33.4342 37.1787C34.7015 36.6644 35.2325 36.0324 35.3294 35.3498H35.3459V35.1374C35.346 35.1281 35.3461 35.1189 35.3461 35.1096C35.3461 35.1003 35.346 35.091 35.3459 35.0817V29.6667Z" fill="#FF7300"/>
<path fill-rule="evenodd" clip-rule="evenodd" d="M35.3459 29.6667H18.2617V35.3498H18.2784C18.3753 36.0324 18.9064 36.6644 20.1735 37.1787C21.6115 37.7623 23.8287 38.1049 26.8039 38.1049C29.7791 38.1049 31.9963 37.7623 33.4342 37.1787C34.7015 36.6644 35.2325 36.0324 35.3294 35.3498H35.3459V35.1374C35.346 35.1281 35.3461 35.1189 35.3461 35.1096C35.3461 35.1003 35.346 35.091 35.3459 35.0817V29.6667Z" fill="#FFC500" fill-opacity="0.3"/>
</g>
</mask>
<g mask="url(#mask11_2681_41353)">
<path id="Rectangle 34627528_2" d="M20.7755 29.872C20.2156 31.9342 26.1285 35.8239 27.6933 35.7142C27.7447 35.7511 27.8481 35.8239 27.8481 35.8239L29.5776 38.2078C29.5776 38.2078 35.9279 37.39 36.3269 35.7381L31.8609 32.5587L20.7755 29.872Z" fill="#EB4A1C" fill-opacity="0.6"/>
</g>
</g>
</g>
<g id="Group 1912055752">
<g id="Group 1912055764">
<g id="Union_15">
<path fill-rule="evenodd" clip-rule="evenodd" d="M25.05 27.714L21.7061 26.0885L20.5732 28.4189L20.5339 28.4999L20.5359 28.5009C20.2464 29.1828 20.4064 30.025 21.388 31.1157C22.4262 32.2692 24.2704 33.5468 26.9462 34.8475C29.6219 36.1483 31.7658 36.8094 33.3142 36.9133C34.7783 37.0115 35.5394 36.6171 35.8969 35.9682L35.8987 35.9691L35.9261 35.9128C35.9302 35.9047 35.9343 35.8965 35.9383 35.8882C35.9423 35.88 35.9462 35.8717 35.9501 35.8634L37.071 33.5577L33.7272 31.9322C32.6846 31.1361 31.2997 30.3027 29.5653 29.4596C27.831 28.6165 26.3201 28.0421 25.05 27.714Z" fill="#FF7300"/>
<path fill-rule="evenodd" clip-rule="evenodd" d="M25.05 27.714L21.7061 26.0885L20.5732 28.4189L20.5339 28.4999L20.5359 28.5009C20.2464 29.1828 20.4064 30.025 21.388 31.1157C22.4262 32.2692 24.2704 33.5468 26.9462 34.8475C29.6219 36.1483 31.7658 36.8094 33.3142 36.9133C34.7783 37.0115 35.5394 36.6171 35.8969 35.9682L35.8987 35.9691L35.9261 35.9128C35.9302 35.9047 35.9343 35.8965 35.9383 35.8882C35.9423 35.88 35.9462 35.8717 35.9501 35.8634L37.071 33.5577L33.7272 31.9322C32.6846 31.1361 31.2997 30.3027 29.5653 29.4596C27.831 28.6165 26.3201 28.0421 25.05 27.714Z" fill="#FFC500" fill-opacity="0.3"/>
</g>
<g id="Mask group_13">
<mask id="mask12_2681_41353" style="mask-type:alpha" maskUnits="userSpaceOnUse" x="21" y="25" width="17" height="10">
<path id="Vector_19" fill-rule="evenodd" clip-rule="evenodd" d="M24.2676 25.1927C22.7443 25.0905 21.982 25.5215 21.6435 26.2177C21.3051 26.9139 21.437 27.7797 22.4583 28.9145C23.4965 30.068 25.3407 31.3456 28.0165 32.6463C30.6923 33.9471 32.8361 34.6082 34.3845 34.7121C35.9078 34.8143 36.6702 34.3833 37.0086 33.6871C37.347 32.9908 37.2151 32.1251 36.1938 30.9903C35.1556 29.8368 33.3114 28.5592 30.6357 27.2585C27.9599 25.9577 25.816 25.2965 24.2676 25.1927Z" fill="#FFC500"/>
</mask>
<g mask="url(#mask12_2681_41353)">
<path id="Vector_20" fill-rule="evenodd" clip-rule="evenodd" d="M24.2676 25.1927C22.7443 25.0905 21.982 25.5215 21.6435 26.2177C21.3051 26.9139 21.437 27.7797 22.4583 28.9145C23.4965 30.068 25.3407 31.3456 28.0165 32.6463C30.6923 33.9471 32.8361 34.6082 34.3845 34.7121C35.9078 34.8143 36.6702 34.3833 37.0086 33.6871C37.347 32.9908 37.2151 32.1251 36.1938 30.9903C35.1556 29.8368 33.3114 28.5592 30.6357 27.2585C27.9599 25.9577 25.816 25.2965 24.2676 25.1927Z" fill="#FFC500"/>
<ellipse id="Ellipse 5565_3" cx="24.3598" cy="26.7004" rx="0.820071" ry="1.11232" transform="rotate(85.6196 24.3598 26.7004)" fill="#ECFF0C"/>
<path id="Union_16" fill-rule="evenodd" clip-rule="evenodd" d="M32.8612 28.9905L25.7946 32.4628L26.4199 33.7354L43.8532 25.1693L46.7504 24.1621L46.6268 23.8064L55.3358 19.5271L54.7105 18.2545L46.1577 22.4571L45.8739 21.6405L22.8143 29.6569L23.6908 32.1785L32.8612 28.9905Z" fill="#ECFF0C"/>
</g>
</g>
</g>
</g>
</g>
</g>
</g>
</g>
</svg>
