<svg width="48" height="47" viewBox="0 0 48 47" fill="none" xmlns="http://www.w3.org/2000/svg">
<g id="Group 1912055768">
<g id="Union">
<mask id="path-1-outside-1_2681_41460" maskUnits="userSpaceOnUse" x="0.636719" y="5.97522" width="43" height="39" fill="black">
<rect fill="white" x="0.636719" y="5.97522" width="43" height="39"/>
<path fill-rule="evenodd" clip-rule="evenodd" d="M22.9704 37.2068C22.9097 37.2606 22.8446 37.3137 22.775 37.3662L23.9481 37.3985L23.9584 37.4201L24.0858 37.2487C23.8104 37.2383 23.4292 37.224 22.9704 37.2068ZM20.4328 41.1574C20.1573 41.3397 19.8229 41.5131 19.4219 41.6758C17.8311 42.3214 15.3783 42.7005 12.0869 42.7005C8.79545 42.7005 6.34259 42.3214 4.75175 41.6758C3.26339 41.0718 2.69303 40.3208 2.64074 39.5121H2.63672V37.0788C2.63672 36.2224 3.18674 35.4249 4.75174 34.7898L4.78809 34.7751V31.8095L4.78807 31.7991C4.78807 31.4876 4.86086 31.1838 5.02885 30.8928C3.95503 30.3644 3.48584 29.7411 3.39114 29.0743H3.37268V25.8572H3.37274C3.37276 25.0008 3.92279 24.2033 5.48776 23.5682C7.0786 22.9226 9.53146 22.5435 12.8229 22.5435C14.8596 22.5435 16.5752 22.6887 17.9641 22.9523C17.9795 22.813 17.9937 22.6723 18.0069 22.53C18.5684 16.4531 17.5265 7.97522 17.5265 7.97522L30.5938 8.87127C30.5938 8.87127 31.1168 11.3845 31.4697 14.4707L40.2996 15.3762L30.2568 28.251C29.9964 28.9133 29.7082 29.5238 29.3951 30.1059L40.2834 15.4578L42.2006 19.4675L26.0613 41.4868L24.5169 38.5968L25.9541 41.6246L20.4328 41.1574Z"/>
</mask>
<path fill-rule="evenodd" clip-rule="evenodd" d="M22.9704 37.2068C22.9097 37.2606 22.8446 37.3137 22.775 37.3662L23.9481 37.3985L23.9584 37.4201L24.0858 37.2487C23.8104 37.2383 23.4292 37.224 22.9704 37.2068ZM20.4328 41.1574C20.1573 41.3397 19.8229 41.5131 19.4219 41.6758C17.8311 42.3214 15.3783 42.7005 12.0869 42.7005C8.79545 42.7005 6.34259 42.3214 4.75175 41.6758C3.26339 41.0718 2.69303 40.3208 2.64074 39.5121H2.63672V37.0788C2.63672 36.2224 3.18674 35.4249 4.75174 34.7898L4.78809 34.7751V31.8095L4.78807 31.7991C4.78807 31.4876 4.86086 31.1838 5.02885 30.8928C3.95503 30.3644 3.48584 29.7411 3.39114 29.0743H3.37268V25.8572H3.37274C3.37276 25.0008 3.92279 24.2033 5.48776 23.5682C7.0786 22.9226 9.53146 22.5435 12.8229 22.5435C14.8596 22.5435 16.5752 22.6887 17.9641 22.9523C17.9795 22.813 17.9937 22.6723 18.0069 22.53C18.5684 16.4531 17.5265 7.97522 17.5265 7.97522L30.5938 8.87127C30.5938 8.87127 31.1168 11.3845 31.4697 14.4707L40.2996 15.3762L30.2568 28.251C29.9964 28.9133 29.7082 29.5238 29.3951 30.1059L40.2834 15.4578L42.2006 19.4675L26.0613 41.4868L24.5169 38.5968L25.9541 41.6246L20.4328 41.1574Z" fill="#FFC500"/>
<path d="M22.9704 37.2068L23.023 35.8078C22.6632 35.7943 22.3121 35.9199 22.0425 36.1585L22.9704 37.2068ZM22.775 37.3662L21.9321 36.2484C21.4571 36.6066 21.2604 37.2258 21.4414 37.7924C21.6225 38.359 22.1419 38.7494 22.7365 38.7657L22.775 37.3662ZM23.9481 37.3985L25.2129 36.7982C24.987 36.3223 24.5132 36.0135 23.9866 35.999L23.9481 37.3985ZM23.9584 37.4201L22.6936 38.0204C22.9043 38.4643 23.3323 38.7653 23.8214 38.8133C24.3104 38.8614 24.7888 38.6496 25.082 38.2553L23.9584 37.4201ZM24.0858 37.2487L25.2094 38.0838C25.5195 37.6667 25.5729 37.1121 25.3482 36.6434C25.1235 36.1748 24.6577 35.8691 24.1383 35.8496L24.0858 37.2487ZM20.4328 41.1574L20.5508 39.7624C20.2369 39.7358 19.9231 39.8159 19.6603 39.9898L20.4328 41.1574ZM19.4219 41.6758L18.8955 40.3785L19.4219 41.6758ZM4.75175 41.6758L4.22529 42.973L4.2253 42.973L4.75175 41.6758ZM2.64074 39.5121L4.03782 39.4218C3.99019 38.6852 3.37886 38.1121 2.64074 38.1121V39.5121ZM2.63672 39.5121H1.23672C1.23672 40.2853 1.86352 40.9121 2.63672 40.9121L2.63672 39.5121ZM4.75174 34.7898L4.22859 33.4912L4.2253 33.4925L4.75174 34.7898ZM4.78809 34.7751L5.31124 36.0737C5.84107 35.8603 6.18809 35.3463 6.18809 34.7751H4.78809ZM4.78809 31.8095H6.1881L6.18809 31.8059L4.78809 31.8095ZM4.78807 31.7991H3.38806L3.38807 31.8028L4.78807 31.7991ZM5.02885 30.8928L6.24133 31.5927C6.435 31.2572 6.481 30.8565 6.36838 30.4858C6.25575 30.1151 5.99457 29.8077 5.64698 29.6367L5.02885 30.8928ZM3.39114 29.0743L4.77723 28.8774C4.67921 28.1872 4.08829 27.6743 3.39114 27.6743V29.0743ZM3.37268 29.0743H1.97268C1.97268 29.8475 2.59948 30.4743 3.37268 30.4743V29.0743ZM3.37268 25.8572V24.4572C2.59948 24.4572 1.97268 25.084 1.97268 25.8572H3.37268ZM3.37274 25.8572V27.2572C4.14592 27.2572 4.77272 26.6304 4.77274 25.8573L3.37274 25.8572ZM5.48776 23.5682L6.0142 24.8655L6.01421 24.8655L5.48776 23.5682ZM17.9641 22.9523L17.703 24.3277C18.0864 24.4005 18.4827 24.31 18.7965 24.078C19.1102 23.846 19.3129 23.4936 19.3557 23.1057L17.9641 22.9523ZM18.0069 22.53L16.6128 22.4012V22.4012L18.0069 22.53ZM17.5265 7.97522L17.6223 6.5785C17.2054 6.54992 16.7976 6.70899 16.5103 7.01226C16.2229 7.31554 16.086 7.73131 16.1369 8.14599L17.5265 7.97522ZM30.5938 8.87127L31.9644 8.58601C31.8365 7.97169 31.3155 7.51748 30.6895 7.47455L30.5938 8.87127ZM31.4697 14.4707L30.0788 14.6297C30.1535 15.283 30.6727 15.7963 31.3269 15.8634L31.4697 14.4707ZM40.2996 15.3762L41.4035 16.2372C41.7168 15.8356 41.7872 15.2956 41.5874 14.827C41.3876 14.3585 40.9492 14.0354 40.4425 13.9835L40.2996 15.3762ZM30.2568 28.251L29.1529 27.3899C29.0702 27.496 29.0032 27.6134 28.954 27.7386L30.2568 28.251ZM29.3951 30.1059L28.1622 29.4427C27.8146 30.0888 28.0248 30.8937 28.6439 31.2873C29.263 31.681 30.081 31.5299 30.5187 30.9411L29.3951 30.1059ZM40.2834 15.4578L41.5464 14.8538C41.3347 14.4112 40.9068 14.1116 40.4184 14.0643C39.93 14.017 39.4525 14.2288 39.1598 14.6226L40.2834 15.4578ZM42.2006 19.4675L43.3298 20.2951C43.6348 19.879 43.6862 19.3289 43.4637 18.8635L42.2006 19.4675ZM26.0613 41.4868L24.8265 42.1466C25.0533 42.571 25.4821 42.8492 25.9621 42.8833C26.4421 42.9173 26.906 42.7025 27.1904 42.3144L26.0613 41.4868ZM24.5169 38.5968L25.7517 37.937C25.3934 37.2665 24.5655 37.0045 23.8867 37.3467C23.2079 37.6889 22.9262 38.5104 23.2522 39.1971L24.5169 38.5968ZM25.9541 41.6246L25.8361 43.0196C26.3355 43.0619 26.8194 42.834 27.1048 42.422C27.3903 42.0101 27.4338 41.477 27.2189 41.0243L25.9541 41.6246ZM22.0425 36.1585C22.0105 36.1869 21.9739 36.2169 21.9321 36.2484L23.6179 38.484C23.7153 38.4106 23.8089 38.3343 23.8984 38.2551L22.0425 36.1585ZM22.7365 38.7657L23.9097 38.7979L23.9866 35.999L22.8135 35.9668L22.7365 38.7657ZM22.6834 37.9988L22.6936 38.0204L25.2232 36.8198L25.2129 36.7982L22.6834 37.9988ZM25.082 38.2553L25.2094 38.0838L22.9622 36.4135L22.8348 36.5849L25.082 38.2553ZM24.1383 35.8496C23.8629 35.8393 23.4817 35.825 23.023 35.8078L22.9179 38.6058C23.3767 38.623 23.7579 38.6373 24.0333 38.6477L24.1383 35.8496ZM19.6603 39.9898C19.4771 40.111 19.2286 40.2433 18.8955 40.3785L19.9484 42.973C20.4172 42.7828 20.8374 42.5684 21.2053 42.325L19.6603 39.9898ZM18.8955 40.3785C17.5491 40.9249 15.3058 41.3005 12.0869 41.3005V44.1005C15.4508 44.1005 18.1132 43.7178 19.9484 42.973L18.8955 40.3785ZM12.0869 41.3005C8.86796 41.3005 6.62463 40.9249 5.27819 40.3785L4.2253 42.973C6.06056 43.7178 8.72295 44.1005 12.0869 44.1005V41.3005ZM5.2782 40.3785C4.65078 40.1239 4.33711 39.8849 4.18803 39.7228C4.06193 39.5858 4.0426 39.4957 4.03782 39.4218L1.24365 39.6024C1.34587 41.1831 2.50422 42.2746 4.22529 42.973L5.2782 40.3785ZM2.64074 38.1121H2.63672V40.9121H2.64074V38.1121ZM4.03672 39.5121V37.0788H1.23672V39.5121H4.03672ZM4.03672 37.0788C4.03672 36.9841 4.05502 36.896 4.16702 36.7662C4.30572 36.6056 4.61717 36.3553 5.27819 36.087L4.2253 33.4925C3.32131 33.8594 2.57525 34.3254 2.04769 34.9364C1.49343 35.5783 1.23672 36.3171 1.23672 37.0788H4.03672ZM5.27489 36.0883L5.31124 36.0737L4.26494 33.4765L4.22859 33.4912L5.27489 36.0883ZM6.18809 34.7751V31.8095H3.38809V34.7751H6.18809ZM6.18809 31.8059L6.18806 31.7955L3.38807 31.8028L3.3881 31.8131L6.18809 31.8059ZM6.18807 31.7991C6.18807 31.7172 6.204 31.6574 6.24133 31.5927L3.81637 30.1929C3.51773 30.7102 3.38807 31.258 3.38807 31.7991H6.18807ZM5.64698 29.6367C5.22687 29.4299 5.01044 29.2456 4.90279 29.1209C4.8069 29.0097 4.78524 28.9338 4.77723 28.8774L2.00505 29.2711C2.18793 30.5589 3.09446 31.5012 4.41071 32.1489L5.64698 29.6367ZM3.39114 27.6743H3.37268V30.4743H3.39114V27.6743ZM4.77268 29.0743V25.8572H1.97268V29.0743H4.77268ZM3.37268 27.2572H3.37274V24.4572H3.37268V27.2572ZM4.77274 25.8573C4.77274 25.7626 4.79103 25.6744 4.90304 25.5447C5.04174 25.3841 5.3532 25.1337 6.0142 24.8655L4.96131 22.271C4.05735 22.6378 3.3113 23.1038 2.78373 23.7148C2.22948 24.3567 1.97275 25.0955 1.97274 25.8572L4.77274 25.8573ZM6.01421 24.8655C7.36064 24.3191 9.60396 23.9435 12.8229 23.9435V21.1435C9.45896 21.1435 6.79657 21.5262 4.96131 22.271L6.01421 24.8655ZM12.8229 23.9435C14.7984 23.9435 16.4227 24.0847 17.703 24.3277L18.2252 21.5769C16.7276 21.2926 14.9207 21.1435 12.8229 21.1435V23.9435ZM19.3557 23.1057C19.3719 22.9582 19.387 22.8093 19.4009 22.6588L16.6128 22.4012C16.6004 22.5353 16.587 22.6679 16.5725 22.7989L19.3557 23.1057ZM19.4009 22.6588C19.692 19.5083 19.5659 15.7815 19.3742 12.8814C19.2778 11.4231 19.1637 10.1575 19.0736 9.25564C19.0285 8.80451 18.9894 8.44385 18.9614 8.19498C18.9474 8.07053 18.9362 7.97399 18.9284 7.90803C18.9245 7.87504 18.9215 7.8497 18.9194 7.83233C18.9184 7.82364 18.9175 7.81695 18.917 7.81229C18.9167 7.80996 18.9165 7.80814 18.9163 7.80683C18.9162 7.80617 18.9162 7.80565 18.9161 7.80525C18.9161 7.80505 18.9161 7.80485 18.9161 7.80475C18.916 7.80459 18.916 7.80445 17.5265 7.97522C16.1369 8.14599 16.1369 8.14592 16.1369 8.14588C16.1369 8.14591 16.1369 8.1459 16.1369 8.14596C16.1369 8.14608 16.137 8.14633 16.137 8.14671C16.1371 8.14746 16.1373 8.14872 16.1375 8.15049C16.1379 8.15403 16.1386 8.15958 16.1395 8.16712C16.1413 8.1822 16.1441 8.20521 16.1477 8.2358C16.1549 8.29699 16.1655 8.38852 16.1789 8.50776C16.2057 8.74626 16.2436 9.09541 16.2874 9.53403C16.3751 10.4117 16.4864 11.6454 16.5803 13.0661C16.7692 15.9241 16.8832 19.4748 16.6128 22.4012L19.4009 22.6588ZM17.4307 9.37194L30.498 10.268L30.6895 7.47455L17.6223 6.5785L17.4307 9.37194ZM30.5938 8.87127C29.2231 9.15653 29.2231 9.15646 29.2231 9.15641C29.2231 9.1564 29.2231 9.15636 29.2231 9.15634C29.2231 9.15632 29.2231 9.15634 29.2231 9.15639C29.2231 9.1565 29.2232 9.15676 29.2233 9.15717C29.2234 9.15799 29.2237 9.15941 29.2241 9.16143C29.225 9.16548 29.2263 9.1719 29.2281 9.18065C29.2317 9.19816 29.2371 9.22496 29.2443 9.26059C29.2585 9.33185 29.2796 9.43838 29.3062 9.57641C29.3592 9.85254 29.434 10.2543 29.5198 10.7516C29.6915 11.7473 29.9061 13.1199 30.0788 14.6297L32.8606 14.3116C32.6804 12.7353 32.4571 11.3082 32.279 10.2757C32.1899 9.75892 32.1119 9.3395 32.0558 9.04795C32.0278 8.90215 32.0053 8.78822 31.9896 8.70999C31.9817 8.67087 31.9756 8.64066 31.9713 8.61984C31.9692 8.60943 31.9676 8.60137 31.9664 8.59571C31.9658 8.59288 31.9653 8.59066 31.965 8.58904C31.9648 8.58823 31.9647 8.58757 31.9646 8.58707C31.9646 8.58681 31.9645 8.5866 31.9645 8.58643C31.9645 8.58634 31.9644 8.58624 31.9644 8.58619C31.9644 8.5861 31.9644 8.58601 30.5938 8.87127ZM31.3269 15.8634L40.1568 16.7689L40.4425 13.9835L31.6125 13.078L31.3269 15.8634ZM39.1958 14.5151L29.1529 27.3899L31.3607 29.1121L41.4035 16.2372L39.1958 14.5151ZM28.954 27.7386C28.7153 28.3454 28.4511 28.9056 28.1622 29.4427L30.6281 30.7691C30.9654 30.142 31.2774 29.4811 31.5597 28.7634L28.954 27.7386ZM30.5187 30.9411L41.4069 16.2929L39.1598 14.6226L28.2715 29.2707L30.5187 30.9411ZM39.0203 16.0617L40.9376 20.0714L43.4637 18.8635L41.5464 14.8538L39.0203 16.0617ZM41.0715 18.6398L24.9321 40.6591L27.1904 42.3144L43.3298 20.2951L41.0715 18.6398ZM27.296 40.827L25.7517 37.937L23.2822 39.2566L24.8265 42.1466L27.296 40.827ZM23.2522 39.1971L24.6894 42.2249L27.2189 41.0243L25.7817 37.9965L23.2522 39.1971ZM26.0722 40.2296L20.5508 39.7624L20.3147 42.5524L25.8361 43.0196L26.0722 40.2296Z" fill="white" mask="url(#path-1-outside-1_2681_41460)"/>
</g>
<g id="Group 1912055767">
<g id="Group 1912055743">
<g id="Vector 1872">
<path d="M42.2292 19.4673L40.3019 15.4224L23.9478 37.3858L26.0029 41.6802L42.2292 19.4673Z" fill="#57B180"/>
<path d="M42.2292 19.4673L40.3019 15.4224L23.9478 37.3858L26.0029 41.6802L42.2292 19.4673Z" fill="black" fill-opacity="0.3"/>
</g>
<g id="Vector 1871">
<path d="M12.8681 40.5911L10.9339 36.6508L23.9512 37.3859L26.0243 41.6858L12.8681 40.5911Z" fill="#57B180"/>
<path d="M12.8681 40.5911L10.9339 36.6508L23.9512 37.3859L26.0243 41.6858L12.8681 40.5911Z" fill="black" fill-opacity="0.4"/>
</g>
<g id="Vector 1874">
<path d="M26.9807 14.0163L40.3024 15.4225L23.9483 37.3858L11.1151 36.2414L26.9807 14.0163Z" fill="#5BB283"/>
<path d="M26.9807 14.0163L40.3024 15.4225L23.9483 37.3858L11.1151 36.2414L26.9807 14.0163Z" fill="black" fill-opacity="0.1"/>
</g>
<path id="Subtract" fill-rule="evenodd" clip-rule="evenodd" d="M34.9291 16.3742L26.0309 15.435L19.3199 24.8359L12.609 34.2368L23.4656 35.2049L35.8447 18.5799C35.4288 18.4977 35.0532 18.2329 34.8449 17.8263C34.5991 17.3464 34.6496 16.7929 34.9291 16.3742Z" fill="#A7DEBF"/>
<path id="Vector 1873" d="M17.9841 22.5122C17.0577 30.39 12.5758 33.624 10.8899 36.7519C12.027 36.8192 23.9455 37.3847 23.9455 37.3847C27.7599 31.7849 30.7073 30.0531 31.618 21.3759C32.1422 16.381 30.6424 8.93959 30.6424 8.93959L17.4972 7.95493C17.4972 7.95493 18.6484 16.863 17.9841 22.5122Z" fill="#57B180"/>
<path id="Subtract_2" fill-rule="evenodd" clip-rule="evenodd" d="M20.4935 12.5679C21.2173 12.1971 21.5624 11.3727 21.3775 10.5918L27.0571 11.0546C27.068 11.347 27.1419 11.6433 27.2851 11.9228C27.65 12.6352 28.3657 13.0458 29.0958 13.0399C29.3919 14.7649 29.7451 17.3783 29.6144 19.4611C29.1185 27.3674 26.6303 30.5588 24.4439 33.363L24.4439 33.3631C24.2565 33.6034 24.0714 33.8409 23.8899 34.0782C23.3815 33.9244 22.822 33.9575 22.32 34.2146C21.837 34.4621 21.4912 34.8739 21.3124 35.3523C19.7713 35.2688 17.4476 35.1428 15.8729 35.0566C15.9194 34.702 15.8614 34.3269 15.684 33.9805C15.5802 33.7779 15.4445 33.6027 15.2866 33.4582L15.3042 33.4354L15.3042 33.4354C16.9371 31.3132 19.4942 27.9899 19.9859 20.652C20.1118 18.7744 19.881 15.1419 19.697 12.7539C19.9664 12.7578 20.2391 12.6982 20.4935 12.5679Z" fill="#AADCBD"/>
<ellipse id="Ellipse 5708" cx="24.9342" cy="15.9968" rx="1.65604" ry="1.71224" transform="rotate(-27.1241 24.9342 15.9968)" fill="#59B780"/>
<ellipse id="Ellipse 5707" cx="24.3265" cy="23.3316" rx="2.9045" ry="2.85138" transform="rotate(-27.1241 24.3265 23.3316)" fill="#59B780"/>
<g id="Mask group">
<mask id="mask0_2681_41460" style="mask-type:alpha" maskUnits="userSpaceOnUse" x="12" y="22" width="20" height="20">
<path id="Vector 1875" d="M27.4487 39.6952L25.2441 35.5722L23.9154 37.3832L21.8023 41.3489L19.5973 41.1346L12.1588 34.7661L15.2522 22.8363L28.9752 22.8508L28.9752 30.5538L31.1276 34.688L27.4487 39.6952Z" fill="#FFC500"/>
</mask>
<g mask="url(#mask0_2681_41460)">
<path id="Vector 1876" d="M25.2648 35.6487L12.3405 34.1117L15.4339 29.8493L28.9768 30.5182L31.5015 35.4468L27.7896 40.5773L25.2648 35.6487Z" fill="#FFC500"/>
<path id="Vector 1872_2" d="M42.2306 19.5286L40.3033 15.4224L23.9493 37.3857L26.0044 41.7415L42.2306 19.5286Z" fill="#FF8C00"/>
<path id="Vector 1877" opacity="0.15" d="M20.8445 35.4085L20.8445 30.1249L24.2215 30.2783C24.2215 30.2783 22.4328 24.2757 20.0133 23.6938C13.0087 22.0092 16.1853 44.0595 16.1853 44.0595L22.3409 41.4661L22.3409 37.4139C22.3409 37.4139 23.8057 36.3198 24.354 35.6179C24.4269 35.5245 20.8096 35.4845 20.8445 35.4085Z" fill="black"/>
<path id="Vector 1878" opacity="0.25" d="M24.5204 35.3619C24.7134 34.152 24.7134 32.0542 24.7134 32.0542C24.7134 32.0542 24.5204 31.1585 24.2081 30.278C23.3321 30.278 21.9776 30.0775 19.4427 30.2779C12.2608 30.8457 16.1872 44.0594 16.1872 44.0594L20.7502 35.3619L24.364 35.6069C24.364 35.6069 24.2232 36.0092 24.5204 35.3619Z" fill="#EF6316"/>
</g>
</g>
</g>
<g id="Group 1912055740">
<g id="Group 1912055191">
<g id="Group 1912055195">
<g id="Union_2">
<path fill-rule="evenodd" clip-rule="evenodd" d="M5.55354 36.8181H2.63672V39.3169H2.63799C2.63714 39.3405 2.63672 39.3641 2.63672 39.3877C2.63672 40.2441 3.18674 41.0417 4.75175 41.6768C6.34259 42.3224 8.79545 42.7015 12.0869 42.7015C15.3783 42.7015 17.8311 42.3224 19.4219 41.6768C20.987 41.0417 21.537 40.2441 21.537 39.3877C21.537 39.3641 21.5366 39.3405 21.5358 39.3169H21.5368V36.8181H18.6202C17.0506 36.3447 14.8681 36.074 12.0869 36.074C9.30563 36.074 7.12313 36.3447 5.55354 36.8181Z" fill="#FF7300"/>
<path fill-rule="evenodd" clip-rule="evenodd" d="M5.55354 36.8181H2.63672V39.3169H2.63799C2.63714 39.3405 2.63672 39.3641 2.63672 39.3877C2.63672 40.2441 3.18674 41.0417 4.75175 41.6768C6.34259 42.3224 8.79545 42.7015 12.0869 42.7015C15.3783 42.7015 17.8311 42.3224 19.4219 41.6768C20.987 41.0417 21.537 40.2441 21.537 39.3877C21.537 39.3641 21.5366 39.3405 21.5358 39.3169H21.5368V36.8181H18.6202C17.0506 36.3447 14.8681 36.074 12.0869 36.074C9.30563 36.074 7.12313 36.3447 5.55354 36.8181Z" fill="#FFC500" fill-opacity="0.3"/>
</g>
<g id="Mask group_2">
<mask id="mask1_2681_41460" style="mask-type:alpha" maskUnits="userSpaceOnUse" x="2" y="33" width="20" height="8">
<path id="Vector" fill-rule="evenodd" clip-rule="evenodd" d="M4.75174 34.7908C3.18674 35.4259 2.63672 36.2235 2.63672 37.0799C2.63672 37.9363 3.18674 38.7338 4.75174 39.3689C6.34259 40.0145 8.79545 40.3936 12.0869 40.3936C15.3783 40.3936 17.8311 40.0145 19.4219 39.3689C20.987 38.7338 21.537 37.9363 21.537 37.0799C21.537 36.2235 20.987 35.4259 19.4219 34.7908C17.8311 34.1452 15.3783 33.7661 12.0869 33.7661C8.79545 33.7661 6.34259 34.1452 4.75174 34.7908Z" fill="#FFC500"/>
</mask>
<g mask="url(#mask1_2681_41460)">
<path id="Vector_2" fill-rule="evenodd" clip-rule="evenodd" d="M4.75174 33.8108C3.18674 34.4459 2.63672 35.2435 2.63672 36.0999C2.63672 36.9563 3.18674 37.7538 4.75174 38.389C6.34259 39.0346 8.79545 39.4137 12.0869 39.4137C15.3783 39.4137 17.8311 39.0346 19.4219 38.389C20.987 37.7538 21.537 36.9563 21.537 36.0999C21.537 35.2435 20.987 34.4459 19.4219 33.8108C17.8311 33.1652 15.3783 32.7861 12.0869 32.7861C8.79545 32.7861 6.34259 33.1652 4.75174 33.8108Z" fill="#FFC500"/>
<path id="Vector_3" fill-rule="evenodd" clip-rule="evenodd" d="M3.06818 32.085C1.44534 32.7436 0.875 33.5706 0.875 34.4587C0.875 35.3467 1.44534 36.1737 3.06818 36.8323C4.71781 37.5018 7.2613 37.8949 10.6743 37.8949C14.0874 37.8949 16.6309 37.5018 18.2805 36.8323C19.9033 36.1737 20.4737 35.3467 20.4737 34.4587C20.4737 33.5706 19.9033 32.7436 18.2805 32.085C16.6309 31.4156 14.0874 31.0225 10.6743 31.0225C7.2613 31.0225 4.71781 31.4156 3.06818 32.085Z" fill="#EB4A1C" fill-opacity="0.8"/>
</g>
</g>
<g id="Union_3">
<path fill-rule="evenodd" clip-rule="evenodd" d="M9.75898 31.7344H4.78906V35.0179H4.80757C4.91487 35.773 5.50235 36.4722 6.90411 37.0411C8.49496 37.6867 10.9478 38.0658 14.2392 38.0658C17.5307 38.0658 19.9835 37.6867 21.5743 37.0411C22.9761 36.4722 23.5636 35.773 23.6709 35.0179H23.6891V34.7841C23.6893 34.7734 23.6894 34.7627 23.6894 34.752C23.6894 34.7413 23.6893 34.7306 23.6891 34.7199V31.7344H18.7195C17.4586 31.5423 15.9641 31.4382 14.2392 31.4382C12.5144 31.4382 11.0199 31.5423 9.75898 31.7344Z" fill="#FF7300"/>
<path fill-rule="evenodd" clip-rule="evenodd" d="M9.75898 31.7344H4.78906V35.0179H4.80757C4.91487 35.773 5.50235 36.4722 6.90411 37.0411C8.49496 37.6867 10.9478 38.0658 14.2392 38.0658C17.5307 38.0658 19.9835 37.6867 21.5743 37.0411C22.9761 36.4722 23.5636 35.773 23.6709 35.0179H23.6891V34.7841C23.6893 34.7734 23.6894 34.7627 23.6894 34.752C23.6894 34.7413 23.6893 34.7306 23.6891 34.7199V31.7344H18.7195C17.4586 31.5423 15.9641 31.4382 14.2392 31.4382C12.5144 31.4382 11.0199 31.5423 9.75898 31.7344Z" fill="#FFC500" fill-opacity="0.3"/>
</g>
<g id="Mask group_3">
<mask id="mask2_2681_41460" style="mask-type:alpha" maskUnits="userSpaceOnUse" x="4" y="28" width="20" height="8">
<path id="Vector_4" fill-rule="evenodd" clip-rule="evenodd" d="M6.90408 29.5112C5.33908 30.1463 4.78906 30.9438 4.78906 31.8002C4.78906 32.6566 5.33908 33.4542 6.90408 34.0893C8.49493 34.7349 10.9478 35.114 14.2392 35.114C17.5306 35.114 19.9835 34.7349 21.5743 34.0893C23.1393 33.4542 23.6894 32.6566 23.6894 31.8002C23.6894 30.9438 23.1393 30.1463 21.5743 29.5112C19.9835 28.8656 17.5306 28.4865 14.2392 28.4865C10.9478 28.4865 8.49493 28.8656 6.90408 29.5112Z" fill="#FFC500"/>
</mask>
<g mask="url(#mask2_2681_41460)">
<path id="Vector_5" fill-rule="evenodd" clip-rule="evenodd" d="M6.90408 29.5112C5.33908 30.1463 4.78906 30.9438 4.78906 31.8002C4.78906 32.6566 5.33908 33.4542 6.90408 34.0893C8.49493 34.7349 10.9478 35.114 14.2392 35.114C17.5306 35.114 19.9835 34.7349 21.5743 34.0893C23.1393 33.4542 23.6894 32.6566 23.6894 31.8002C23.6894 30.9438 23.1393 30.1463 21.5743 29.5112C19.9835 28.8656 17.5306 28.4865 14.2392 28.4865C10.9478 28.4865 8.49493 28.8656 6.90408 29.5112Z" fill="#FFC500"/>
<path id="Vector_6" fill-rule="evenodd" clip-rule="evenodd" d="M3.06818 27.6636C1.44534 28.3162 0.875 29.1357 0.875 30.0157C0.875 30.8957 1.44534 31.7153 3.06818 32.3679C4.71781 33.0313 7.2613 33.4209 10.6743 33.4209C14.0874 33.4209 16.6309 33.0313 18.2805 32.3679C19.9033 31.7153 20.4737 30.8957 20.4737 30.0157C20.4737 29.1357 19.9033 28.3162 18.2805 27.6636C16.6309 27.0002 14.0874 26.6106 10.6743 26.6106C7.2613 26.6106 4.71781 27.0002 3.06818 27.6636Z" fill="#EB4A1C" fill-opacity="0.8"/>
</g>
</g>
<g id="Union_4">
<path fill-rule="evenodd" clip-rule="evenodd" d="M8.53574 25.8966H3.37109V29.2088H3.38957C3.49683 29.9638 4.0843 30.6631 5.48613 31.232C7.07697 31.8776 9.52983 32.2567 12.8213 32.2567C16.1127 32.2567 18.5655 31.8776 20.1563 31.232C21.5582 30.6631 22.1457 29.9638 22.2529 29.2088H22.2712V28.974C22.2713 28.9636 22.2714 28.9533 22.2714 28.9429C22.2714 28.9326 22.2713 28.9222 22.2712 28.9119V25.8966H17.1067C15.8876 25.7229 14.4581 25.6292 12.8213 25.6292C11.1844 25.6292 9.75493 25.7229 8.53574 25.8966Z" fill="#FF7300"/>
<path fill-rule="evenodd" clip-rule="evenodd" d="M8.53574 25.8966H3.37109V29.2088H3.38957C3.49683 29.9638 4.0843 30.6631 5.48613 31.232C7.07697 31.8776 9.52983 32.2567 12.8213 32.2567C16.1127 32.2567 18.5655 31.8776 20.1563 31.232C21.5582 30.6631 22.1457 29.9638 22.2529 29.2088H22.2712V28.974C22.2713 28.9636 22.2714 28.9533 22.2714 28.9429C22.2714 28.9326 22.2713 28.9222 22.2712 28.9119V25.8966H17.1067C15.8876 25.7229 14.4581 25.6292 12.8213 25.6292C11.1844 25.6292 9.75493 25.7229 8.53574 25.8966Z" fill="#FFC500" fill-opacity="0.3"/>
</g>
<g id="Mask group_4">
<mask id="mask3_2681_41460" style="mask-type:alpha" maskUnits="userSpaceOnUse" x="3" y="22" width="20" height="8">
<path id="Vector_7" fill-rule="evenodd" clip-rule="evenodd" d="M5.48612 23.5684C3.92111 24.2035 3.37109 25.0011 3.37109 25.8575C3.37109 26.7139 3.92111 27.5114 5.48612 28.1465C7.07696 28.7921 9.52982 29.1712 12.8212 29.1712C16.1127 29.1712 18.5655 28.7921 20.1563 28.1465C21.7214 27.5114 22.2714 26.7139 22.2714 25.8575C22.2714 25.0011 21.7214 24.2035 20.1563 23.5684C18.5655 22.9228 16.1127 22.5437 12.8212 22.5437C9.52982 22.5437 7.07696 22.9228 5.48612 23.5684Z" fill="#FFC500"/>
</mask>
<g mask="url(#mask3_2681_41460)">
<path id="Vector_8" fill-rule="evenodd" clip-rule="evenodd" d="M5.48612 23.5684C3.92111 24.2035 3.37109 25.0011 3.37109 25.8575C3.37109 26.7139 3.92111 27.5114 5.48612 28.1465C7.07696 28.7921 9.52982 29.1712 12.8212 29.1712C16.1127 29.1712 18.5655 28.7921 20.1563 28.1465C21.7214 27.5114 22.2714 26.7139 22.2714 25.8575C22.2714 25.0011 21.7214 24.2035 20.1563 23.5684C18.5655 22.9228 16.1127 22.5437 12.8212 22.5437C9.52982 22.5437 7.07696 22.9228 5.48612 23.5684Z" fill="#FFC500"/>
<path id="Union_5" fill-rule="evenodd" clip-rule="evenodd" d="M15.873 23.1905L10.5216 30.063L11.7593 31.0268L24.9613 14.0721L27.357 11.6684L27.0619 11.3743L33.6572 2.90428L32.4195 1.94055L25.9426 10.2586L25.2652 9.5835L6.19922 28.7128L8.291 30.7977L15.873 23.1905Z" fill="#ECFF0C"/>
</g>
</g>
<ellipse id="Ellipse 5565" cx="5.77823" cy="25.303" rx="0.907238" ry="1.23055" transform="rotate(59.6942 5.77823 25.303)" fill="#ECFF0C"/>
</g>
</g>
</g>
</g>
</g>
</svg>
