<svg width="45" height="41" viewBox="0 0 45 41" fill="none" xmlns="http://www.w3.org/2000/svg">
<g id="Group 1912055871">
<mask id="mask0_2681_41700" style="mask-type:alpha" maskUnits="userSpaceOnUse" x="0" y="0" width="45" height="41">
<g id="Rectangle 3467969">
<rect x="0.34375" y="0.619141" width="44.475" height="39.9841" fill="#191919"/>
<rect x="0.34375" y="0.619141" width="44.475" height="39.9841" fill="white" fill-opacity="0.05"/>
</g>
</mask>
<g mask="url(#mask0_2681_41700)">
<g id="Union">
<path fill-rule="evenodd" clip-rule="evenodd" d="M20.8326 14.3572C21.0267 14.5556 21.3509 14.5387 21.5233 14.321L25.0464 9.87196C25.1942 9.68531 25.1755 9.41679 25.0032 9.25246L23.6896 7.99941C23.4653 7.78545 23.098 7.84951 22.9594 8.12676L20.3254 13.3948C20.2375 13.5706 20.2707 13.7827 20.4081 13.9231L20.8326 14.3572ZM21.887 16.4529C21.9543 16.7018 22.2129 16.847 22.4605 16.7749L25.2442 15.9652C25.4309 15.9109 25.5433 15.7208 25.501 15.531L25.0902 13.6882C25.0324 13.429 24.7278 13.3141 24.5132 13.4706L21.9018 15.3748C21.7476 15.4873 21.6786 15.6832 21.7285 15.8675L21.887 16.4529ZM29.9106 38.2322L29.9197 38.1586C29.7578 38.1969 29.5759 38.1496 29.4548 37.9998L26.1194 33.8703L25.3862 35.9801C25.3418 36.108 25.2434 36.2098 25.1172 36.2587L23.1022 37.0381C23.0611 37.0617 23.0167 37.0787 22.9707 37.089L22.9192 37.1089L22.9191 37.0975C22.7677 37.1141 22.6075 37.0577 22.5009 36.9147L21.9197 36.1353L21.8959 36.1057C21.5913 42.3584 13.3805 42.7984 9.38339 38.9521C5.39871 35.1178 4.58393 29.0278 4.00015 24.6643C3.84589 23.5113 3.70776 22.4789 3.53154 21.6405C2.45061 16.4977 6.70168 10.2631 12.7249 10.2442C17.9667 10.2278 20.2807 15.0721 20.1872 20.3509C20.1378 23.1379 20.2079 25.3307 20.4551 27.4537C20.5094 27.4671 20.5614 27.4897 20.6088 27.5221L21.8572 28.3747L22.3876 25.3544C22.4261 25.1346 22.6029 24.9957 22.7951 24.9754C23.2485 24.8557 24.1175 24.6145 24.655 24.3912C24.8387 24.3149 25.0557 24.336 25.2052 24.4672L28.17 27.0705C29.1936 23.46 30.3245 19.4976 30.4888 19.0323C30.5037 18.99 30.5186 18.949 30.5338 18.9092C30.305 18.7085 30.0799 18.5107 29.8594 18.3169C28.6376 17.2431 27.5568 16.2933 26.7753 15.6622C26.502 15.4415 26.5488 15.0028 26.8647 14.8493C30.2002 13.2288 33.983 11.0801 35.3348 10.3018C35.4085 10.2594 35.4878 10.2396 35.5655 10.2394L35.5426 10.1445C35.5426 10.1445 37.1898 10.1548 38.0722 10.1488C38.2823 10.1473 38.468 10.2858 38.5248 10.488L42.1574 23.4233C42.2116 23.6164 42.1347 23.8224 41.9672 23.9328L39.515 25.5478C39.4919 25.5672 39.4667 25.5838 39.4398 25.5973L39.2996 25.6896L39.287 25.6375C39.2185 25.6408 39.1462 25.6257 39.0752 25.5883C38.3814 25.2223 37.5574 24.6702 36.6633 24.0058L33.0863 37.1834C33.0427 37.3438 32.9162 37.4683 32.7551 37.5093L29.9106 38.2322Z" fill="#FC0401"/>
<path d="M21.5233 14.321L20.4257 13.4519L20.4257 13.4519L21.5233 14.321ZM20.8326 14.3572L19.8317 15.336L19.8317 15.336L20.8326 14.3572ZM25.0464 9.87196L26.1439 10.7411L26.1439 10.7411L25.0464 9.87196ZM25.0032 9.25246L25.9695 8.23945L25.9695 8.23945L25.0032 9.25246ZM23.6896 7.99941L24.656 6.9864V6.9864L23.6896 7.99941ZM22.9594 8.12676L21.7072 7.50066L21.7072 7.50066L22.9594 8.12676ZM20.3254 13.3948L19.0732 12.7687L19.0731 12.7687L20.3254 13.3948ZM20.4081 13.9231L21.409 12.9442L21.409 12.9442L20.4081 13.9231ZM22.4605 16.7749L22.8515 18.1192H22.8515L22.4605 16.7749ZM21.887 16.4529L23.2383 16.0871L23.2383 16.0871L21.887 16.4529ZM25.2442 15.9652L25.6352 17.3095L25.6352 17.3095L25.2442 15.9652ZM25.501 15.531L26.8675 15.2264L26.8675 15.2264L25.501 15.531ZM25.0902 13.6882L23.7237 13.9928L23.7237 13.9928L25.0902 13.6882ZM24.5132 13.4706L25.3381 14.6017L24.5132 13.4706ZM21.9018 15.3748L22.7267 16.506L21.9018 15.3748ZM21.7285 15.8675L23.0799 15.5017L23.0799 15.5017L21.7285 15.8675ZM29.9197 38.1586L31.3091 38.3299C31.3652 37.8751 31.1952 37.4217 30.8539 37.1159C30.5126 36.8101 30.0433 36.6907 29.5974 36.7962L29.9197 38.1586ZM29.9106 38.2322L28.5211 38.0609C28.4645 38.5198 28.6382 38.977 28.985 39.2826C29.3319 39.5882 29.8073 39.7029 30.2554 39.5891L29.9106 38.2322ZM29.4548 37.9998L30.5439 37.1201V37.1201L29.4548 37.9998ZM26.1194 33.8703L27.2085 32.9906C26.8889 32.595 26.38 32.4038 25.8791 32.4911C25.3781 32.5784 24.9638 32.9304 24.7969 33.4108L26.1194 33.8703ZM25.3862 35.9801L26.7086 36.4397V36.4397L25.3862 35.9801ZM25.1172 36.2587L25.6223 37.5644H25.6223L25.1172 36.2587ZM23.1022 37.0381L22.5971 35.7324C22.5313 35.7579 22.4676 35.7882 22.4063 35.8233L23.1022 37.0381ZM22.9707 37.089L22.6661 35.7225C22.5978 35.7377 22.5308 35.7581 22.4656 35.7833L22.9707 37.089ZM22.9192 37.1089L21.5193 37.1275C21.5254 37.5859 21.7555 38.0123 22.1354 38.2689C22.5153 38.5256 22.9968 38.58 23.4243 38.4146L22.9192 37.1089ZM22.9191 37.0975L24.3189 37.079C24.3137 36.6845 24.1422 36.3105 23.8467 36.049C23.5512 35.7876 23.1591 35.6629 22.7669 35.7058L22.9191 37.0975ZM22.5009 36.9147L23.6233 36.0778L23.6233 36.0778L22.5009 36.9147ZM21.9197 36.1353L23.0421 35.2984C23.0318 35.2846 23.0213 35.2711 23.0106 35.2578L21.9197 36.1353ZM21.8959 36.1057L22.9868 35.2282C22.6224 34.7752 22.0159 34.5945 21.463 34.7743C20.9101 34.9541 20.5259 35.4569 20.4976 36.0376L21.8959 36.1057ZM9.38339 38.9521L10.3541 37.9433L10.3541 37.9433L9.38339 38.9521ZM4.00015 24.6643L2.61251 24.85H2.61251L4.00015 24.6643ZM3.53154 21.6405L4.9016 21.3525L3.53154 21.6405ZM12.7249 10.2442L12.7205 8.84425L12.7249 10.2442ZM20.1872 20.3509L21.5869 20.3757V20.3757L20.1872 20.3509ZM20.4551 27.4537L19.0645 27.6156C19.132 28.1955 19.5522 28.6726 20.1189 28.8127L20.4551 27.4537ZM20.6088 27.5221L19.8193 28.6782L19.8193 28.6782L20.6088 27.5221ZM21.8572 28.3747L21.0677 29.5308C21.4605 29.7991 21.9627 29.8495 22.401 29.6648C22.8394 29.48 23.1539 29.0853 23.2361 28.6168L21.8572 28.3747ZM22.3876 25.3544L21.0086 25.1123V25.1123L22.3876 25.3544ZM22.7951 24.9754L22.9417 26.3677C23.0129 26.3602 23.0834 26.3473 23.1526 26.329L22.7951 24.9754ZM24.655 24.3912L25.192 25.6841L24.655 24.3912ZM25.2052 24.4672L24.2815 25.5192L24.2815 25.5192L25.2052 24.4672ZM28.17 27.0705L27.2463 28.1225C27.6073 28.4395 28.1056 28.5492 28.5664 28.4132C29.0271 28.2772 29.3859 27.9145 29.517 27.4523L28.17 27.0705ZM30.4888 19.0323L29.1686 18.5662L29.1686 18.5662L30.4888 19.0323ZM30.5338 18.9092L31.8417 19.4085C32.0505 18.8618 31.8971 18.2428 31.4571 17.8568L30.5338 18.9092ZM29.8594 18.3169L30.7836 17.2653L30.7836 17.2653L29.8594 18.3169ZM26.7753 15.6622L25.8957 16.7513L25.8957 16.7513L26.7753 15.6622ZM26.8647 14.8493L27.4765 16.1085H27.4765L26.8647 14.8493ZM35.3348 10.3018L36.0334 11.5151L36.0334 11.5151L35.3348 10.3018ZM35.5655 10.2394L35.5686 11.6394C35.9972 11.6384 36.4018 11.4412 36.6665 11.1041C36.9313 10.767 37.027 10.3272 36.9263 9.9105L35.5655 10.2394ZM35.5426 10.1445L35.5513 8.74453C35.1206 8.74184 34.7126 8.93756 34.4452 9.27518C34.1777 9.61279 34.0806 10.0547 34.1817 10.4734L35.5426 10.1445ZM38.0722 10.1488L38.0818 11.5487H38.0818L38.0722 10.1488ZM38.5248 10.488L39.8726 10.1095V10.1095L38.5248 10.488ZM42.1574 23.4233L40.8095 23.8019V23.8019L42.1574 23.4233ZM41.9672 23.9328L41.1971 22.7636L41.1971 22.7636L41.9672 23.9328ZM39.515 25.5478L38.7449 24.3786C38.6998 24.4083 38.6564 24.4407 38.615 24.4754L39.515 25.5478ZM39.4398 25.5973L38.811 24.3465C38.7624 24.3709 38.7152 24.3982 38.6698 24.4281L39.4398 25.5973ZM39.2996 25.6896L37.9388 26.0185C38.0459 26.4616 38.362 26.8248 38.786 26.992C39.2101 27.1592 39.689 27.1095 40.0697 26.8588L39.2996 25.6896ZM39.287 25.6375L40.6479 25.3086C40.4901 24.6558 39.891 24.207 39.2201 24.2391L39.287 25.6375ZM39.0752 25.5883L39.7283 24.35H39.7283L39.0752 25.5883ZM36.6633 24.0058L37.4984 22.8821C37.1268 22.6059 36.6427 22.5313 36.2053 22.6828C35.7678 22.8343 35.4335 23.1922 35.3122 23.639L36.6633 24.0058ZM33.0863 37.1834L34.4374 37.5502L34.4374 37.5501L33.0863 37.1834ZM32.7551 37.5093L32.4102 36.1524L32.4102 36.1524L32.7551 37.5093ZM20.4257 13.4519C20.777 13.0083 21.4378 12.9738 21.8335 13.3783L19.8317 15.336C20.6155 16.1375 21.9249 16.0691 22.6208 15.1902L20.4257 13.4519ZM23.9488 9.00283L20.4257 13.4519L22.6208 15.1902L26.1439 10.7411L23.9488 9.00283ZM24.0368 10.2655C23.6857 9.93053 23.6476 9.38326 23.9488 9.00284L26.1439 10.7411C26.7408 9.98735 26.6652 8.90306 25.9695 8.23945L24.0368 10.2655ZM22.7233 9.01242L24.0368 10.2655L25.9695 8.23945L24.656 6.9864L22.7233 9.01242ZM24.2116 8.75286C23.9291 9.31793 23.1804 9.44849 22.7233 9.01242L24.656 6.9864C23.7502 6.12241 22.267 6.3811 21.7072 7.50066L24.2116 8.75286ZM21.5775 14.0209L24.2116 8.75286L21.7072 7.50066L19.0732 12.7687L21.5775 14.0209ZM21.409 12.9442C21.6889 13.2305 21.7566 13.6628 21.5776 14.0209L19.0731 12.7687C18.7184 13.4783 18.8525 14.3348 19.4072 14.902L21.409 12.9442ZM21.8335 13.3783L21.409 12.9442L19.4072 14.902L19.8317 15.336L21.8335 13.3783ZM22.0694 15.4307C22.5741 15.2839 23.101 15.5797 23.2383 16.0871L20.5356 16.8187C20.8077 17.8238 21.8516 18.4101 22.8515 18.1192L22.0694 15.4307ZM24.8531 14.6209L22.0694 15.4307L22.8515 18.1192L25.6352 17.3095L24.8531 14.6209ZM24.1345 15.8356C24.0162 15.3046 24.3307 14.7729 24.8531 14.6209L25.6352 17.3095C26.5311 17.0489 27.0705 16.1371 26.8675 15.2264L24.1345 15.8356ZM23.7237 13.9928L24.1345 15.8356L26.8675 15.2264L26.4567 13.3836L23.7237 13.9928ZM25.3381 14.6017C24.7377 15.0395 23.8854 14.718 23.7237 13.9928L26.4567 13.3836C26.1794 12.1399 24.7178 11.5886 23.6883 12.3394L25.3381 14.6017ZM22.7267 16.506L25.3381 14.6017L23.6883 12.3394L21.0769 14.2436L22.7267 16.506ZM23.0799 15.5017C23.1816 15.8773 23.0411 16.2767 22.7267 16.506L21.0769 14.2436C20.454 14.6978 20.1757 15.4891 20.3772 16.2333L23.0799 15.5017ZM23.2383 16.0871L23.0799 15.5017L20.3772 16.2333L20.5356 16.8187L23.2383 16.0871ZM28.5302 37.9873L28.5211 38.0609L31.3001 38.4035L31.3091 38.3299L28.5302 37.9873ZM28.3657 38.8795C28.8539 39.4838 29.6018 39.6724 30.2419 39.521L29.5974 36.7962C29.9137 36.7214 30.2978 36.8154 30.5439 37.1201L28.3657 38.8795ZM25.0303 34.75L28.3657 38.8795L30.5439 37.1201L27.2085 32.9906L25.0303 34.75ZM26.7086 36.4397L27.4418 34.3298L24.7969 33.4108L24.0638 35.5206L26.7086 36.4397ZM25.6223 37.5644C26.132 37.3672 26.5292 36.9559 26.7086 36.4397L24.0638 35.5206C24.1543 35.26 24.3548 35.0525 24.6121 34.9529L25.6223 37.5644ZM23.6073 38.3438L25.6223 37.5644L24.6121 34.9529L22.5971 35.7324L23.6073 38.3438ZM23.2753 38.4555C23.4564 38.4151 23.633 38.3475 23.7981 38.2529L22.4063 35.8233C22.4892 35.7758 22.5769 35.7424 22.6661 35.7225L23.2753 38.4555ZM23.4243 38.4146L23.4758 38.3947L22.4656 35.7833L22.4141 35.8032L23.4243 38.4146ZM21.5192 37.1161L21.5193 37.1275L24.3191 37.0904L24.3189 37.079L21.5192 37.1161ZM21.3786 37.7516C21.8048 38.3232 22.4663 38.5554 23.0712 38.4892L22.7669 35.7058C23.069 35.6728 23.4103 35.7921 23.6233 36.0778L21.3786 37.7516ZM20.7974 36.9722L21.3786 37.7516L23.6233 36.0778L23.0421 35.2984L20.7974 36.9722ZM20.8051 36.9832L20.8289 37.0128L23.0106 35.2578L22.9868 35.2282L20.8051 36.9832ZM20.4976 36.0376C20.4374 37.2738 20.0001 38.1338 19.3929 38.7309C18.7677 39.3457 17.8766 39.7634 16.8051 39.9333C14.6223 40.2795 12.0182 39.5446 10.3541 37.9433L8.41266 39.9609C10.7457 42.2059 14.2456 43.1742 17.2436 42.6987C18.7626 42.4579 20.2311 41.8336 21.356 40.7274C22.4989 39.6037 23.2022 38.0639 23.2943 36.1738L20.4976 36.0376ZM10.3541 37.9433C8.59516 36.2507 7.49084 34.0158 6.75585 31.5993C6.01918 29.1773 5.68148 26.6739 5.38779 24.4787L2.61251 24.85C2.9026 27.0182 3.26419 29.7416 4.07702 32.4141C4.89154 35.092 6.18694 37.8192 8.41266 39.9609L10.3541 37.9433ZM5.38779 24.4787C5.23585 23.343 5.09083 22.2528 4.9016 21.3525L2.16148 21.9285C2.32469 22.705 2.45594 23.6797 2.61251 24.85L5.38779 24.4787ZM4.9016 21.3525C4.45813 19.2426 5.1016 16.8052 6.57742 14.8698C8.04178 12.9495 10.2259 11.6521 12.7293 11.6442L12.7205 8.84425C9.20071 8.85529 6.24767 10.6846 4.35091 13.172C2.46561 15.6443 1.52402 18.8956 2.16148 21.9285L4.9016 21.3525ZM12.7293 11.6442C14.8408 11.6376 16.3025 12.5754 17.2851 14.078C18.3078 15.6422 18.8309 17.8702 18.7874 20.3261L21.5869 20.3757C21.637 17.5528 21.0498 14.7193 19.6285 12.5457C18.167 10.3105 15.8508 8.83444 12.7205 8.84425L12.7293 11.6442ZM18.7874 20.3261C18.7373 23.1494 18.8076 25.4092 19.0645 27.6156L21.8457 27.2918C21.6082 25.2522 21.5382 23.1264 21.5869 20.3757L18.7874 20.3261ZM21.3984 26.366C21.2062 26.2347 20.9991 26.1461 20.7913 26.0947L20.1189 28.8127C20.0196 28.7882 19.9166 28.7447 19.8193 28.6782L21.3984 26.366ZM22.6468 27.2186L21.3984 26.366L19.8193 28.6782L21.0677 29.5308L22.6468 27.2186ZM21.0086 25.1123L20.4783 28.1326L23.2361 28.6168L23.7665 25.5965L21.0086 25.1123ZM22.6485 23.5831C21.8956 23.6624 21.1655 24.2189 21.0086 25.1123L23.7665 25.5965C23.6868 26.0503 23.3102 26.3289 22.9417 26.3677L22.6485 23.5831ZM24.1179 23.0984C23.6813 23.2797 22.9021 23.4992 22.4376 23.6218L23.1526 26.329C23.5949 26.2122 24.5537 25.9493 25.192 25.6841L24.1179 23.0984ZM26.129 23.4152C25.518 22.8787 24.7159 22.8499 24.1179 23.0984L25.192 25.6841C24.9615 25.7799 24.5935 25.7932 24.2815 25.5192L26.129 23.4152ZM29.0938 26.0185L26.129 23.4152L24.2815 25.5192L27.2463 28.1225L29.0938 26.0185ZM29.1686 18.5662C28.9849 19.0868 27.8342 23.122 26.8231 26.6886L29.517 27.4523C30.553 23.7979 31.6641 19.9085 31.8089 19.4983L29.1686 18.5662ZM29.2259 18.4099C29.2052 18.4639 29.1861 18.5166 29.1686 18.5662L31.8089 19.4983C31.8212 19.4635 31.832 19.4341 31.8417 19.4085L29.2259 18.4099ZM28.9352 19.3685C29.1557 19.5622 29.3812 19.7604 29.6104 19.9616L31.4571 17.8568C31.2288 17.6566 31.0042 17.4591 30.7836 17.2653L28.9352 19.3685ZM25.8957 16.7513C26.649 17.3597 27.7036 18.2861 28.9352 19.3685L30.7836 17.2653C29.5717 16.2002 28.4646 15.2269 27.6549 14.573L25.8957 16.7513ZM26.253 13.59C24.9982 14.1996 24.8383 15.8974 25.8957 16.7513L27.6549 14.573C28.1657 14.9855 28.0994 15.8059 27.4765 16.1085L26.253 13.59ZM34.6362 9.08857C33.2883 9.86466 29.5414 11.9924 26.253 13.59L27.4765 16.1085C30.8591 14.4652 34.6778 12.2956 36.0334 11.5151L34.6362 9.08857ZM35.5624 8.83939C35.2458 8.84008 34.926 8.92175 34.6362 9.08858L36.0334 11.5151C35.8909 11.5971 35.7297 11.639 35.5686 11.6394L35.5624 8.83939ZM34.1817 10.4734L34.2047 10.5683L36.9263 9.9105L36.9034 9.81563L34.1817 10.4734ZM38.0627 8.74881C37.6294 8.75176 37.0034 8.75073 36.4814 8.74891C36.2213 8.748 35.9886 8.74691 35.821 8.74604C35.7372 8.7456 35.6697 8.74523 35.6231 8.74496C35.5999 8.74483 35.5819 8.74472 35.5697 8.74465C35.5636 8.74461 35.559 8.74458 35.5559 8.74456C35.5544 8.74455 35.5532 8.74455 35.5524 8.74454C35.552 8.74454 35.5518 8.74454 35.5516 8.74454C35.5515 8.74453 35.5514 8.74453 35.5514 8.74453C35.5513 8.74453 35.5513 8.74453 35.5513 8.74453C35.5513 8.74453 35.5513 8.74453 35.5426 10.1445C35.5338 11.5445 35.5338 11.5445 35.5339 11.5445C35.5339 11.5445 35.5339 11.5445 35.5339 11.5445C35.534 11.5445 35.5341 11.5445 35.5342 11.5445C35.5344 11.5445 35.5347 11.5445 35.5351 11.5445C35.5359 11.5445 35.5371 11.5445 35.5387 11.5445C35.5419 11.5445 35.5467 11.5446 35.5529 11.5446C35.5653 11.5447 35.5835 11.5448 35.607 11.5449C35.654 11.5452 35.7221 11.5456 35.8065 11.546C35.9753 11.5469 36.2096 11.548 36.4716 11.5489C36.9938 11.5507 37.6326 11.5518 38.0818 11.5487L38.0627 8.74881ZM39.8726 10.1095C39.6436 9.29407 38.8977 8.74312 38.0627 8.74881L38.0818 11.5487C37.6669 11.5516 37.2923 11.2775 37.1769 10.8666L39.8726 10.1095ZM43.5052 23.0448L39.8726 10.1095L37.1769 10.8666L40.8095 23.8019L43.5052 23.0448ZM42.7372 25.102C43.4137 24.6565 43.7242 23.8246 43.5052 23.0448L40.8095 23.8019C40.699 23.4083 40.8557 22.9884 41.1971 22.7636L42.7372 25.102ZM40.285 26.717L42.7372 25.102L41.1971 22.7636L38.7449 24.3786L40.285 26.717ZM40.0687 26.8481C40.1934 26.7854 40.3095 26.7087 40.415 26.6202L38.615 24.4754C38.6744 24.4256 38.74 24.3821 38.811 24.3465L40.0687 26.8481ZM40.0697 26.8588L40.2099 26.7665L38.6698 24.4281L38.5296 24.5204L40.0697 26.8588ZM37.9262 25.9664L37.9388 26.0185L40.6605 25.3607L40.6479 25.3086L37.9262 25.9664ZM38.422 26.8266C38.7083 26.9776 39.0287 27.0514 39.3539 27.0359L39.2201 24.2391C39.4084 24.2301 39.584 24.2739 39.7283 24.35L38.422 26.8266ZM35.8283 25.1295C36.7442 25.8101 37.6348 26.4114 38.422 26.8266L39.7283 24.35C39.128 24.0333 38.3706 23.5302 37.4984 22.8821L35.8283 25.1295ZM34.4374 37.5501L38.0144 24.3725L35.3122 23.639L31.7352 36.8166L34.4374 37.5501ZM33.0999 38.8661C33.7505 38.7008 34.2615 38.1979 34.4374 37.5502L31.7352 36.8166C31.8239 36.4897 32.0819 36.2359 32.4102 36.1524L33.0999 38.8661ZM30.2554 39.5891L33.0999 38.8661L32.4102 36.1524L29.5657 36.8753L30.2554 39.5891Z" fill="white"/>
</g>
<g id="Group 1912055870">
<path id="Rectangle 34627552" d="M21.5041 14.2826C21.3318 14.5003 21.0076 14.5172 20.8134 14.3188L20.3889 13.8847C20.2516 13.7443 20.2184 13.5322 20.3062 13.3564L22.9403 8.08835C23.0789 7.81111 23.4462 7.74705 23.6705 7.961L24.9841 9.21405C25.1563 9.37839 25.1751 9.6469 25.0273 9.83355L21.5041 14.2826Z" fill="#8057F1"/>
<path id="Rectangle 34627553" d="M22.4414 16.7364C22.1938 16.8084 21.9353 16.6632 21.8679 16.4143L21.7094 15.829C21.6596 15.6447 21.7285 15.4487 21.8827 15.3362L24.4941 13.432C24.7087 13.2755 25.0133 13.3904 25.0711 13.6497L25.4819 15.4925C25.5242 15.6823 25.4118 15.8723 25.2251 15.9266L22.4414 16.7364Z" fill="#8057F1"/>
<g id="Group 1912055865">
<g id="Group 1912055855">
<g id="Vector 1902">
<path d="M32.4211 19.362C32.0976 20.2784 29.8919 38.1937 29.8919 38.1937L32.7364 37.4708C32.8975 37.4299 33.0241 37.3054 33.0676 37.1449L37.4006 21.1825C37.4248 21.0935 37.476 21.0148 37.5346 20.9436C37.753 20.6779 38.144 19.9464 36.4886 19.3621C33.6432 18.3576 32.7446 18.4456 32.4211 19.362Z" fill="#93BA01"/>
<path d="M32.4211 19.362C32.0976 20.2784 29.8919 38.1937 29.8919 38.1937L32.7364 37.4708C32.8975 37.4299 33.0241 37.3054 33.0676 37.1449L37.4006 21.1825C37.4248 21.0935 37.476 21.0148 37.5346 20.9436C37.753 20.6779 38.144 19.9464 36.4886 19.3621C33.6432 18.3576 32.7446 18.4456 32.4211 19.362Z" fill="black" fill-opacity="0.3"/>
</g>
<g id="Vector 1906">
<path d="M23.1157 28.246C22.7922 29.1624 22.8991 37.0705 22.8991 37.0705L25.097 36.2203C25.2233 36.1715 25.3216 36.0696 25.3661 35.9418L27.5155 29.7564C27.5422 29.6795 27.5895 29.6118 27.6421 29.5498C27.8577 29.2959 28.2907 28.5495 26.6072 27.9552C23.7618 26.9507 23.4392 27.3296 23.1157 28.246Z" fill="#93BA01"/>
<path d="M23.1157 28.246C22.7922 29.1624 22.8991 37.0705 22.8991 37.0705L25.097 36.2203C25.2233 36.1715 25.3216 36.0696 25.3661 35.9418L27.5155 29.7564C27.5422 29.6795 27.5895 29.6118 27.6421 29.5498C27.8577 29.2959 28.2907 28.5495 26.6072 27.9552C23.7618 26.9507 23.4392 27.3296 23.1157 28.246Z" fill="black" fill-opacity="0.3"/>
</g>
<path id="Vector 1904" d="M22.6137 25.13L27.9216 29.707L29.2184 28.6984C29.4468 28.5208 29.457 28.1792 29.2396 27.9884L25.1857 24.4288C25.0362 24.2976 24.8191 24.2765 24.6354 24.3529C24.0434 24.5988 23.0491 24.8664 22.6511 24.9696C22.5787 24.9884 22.5571 25.0811 22.6137 25.13Z" fill="#E6EE00"/>
<path id="Vector 1905" d="M17.8928 28.1234L23.3356 32.8168L24.7773 30.9306C24.9378 30.7208 24.8893 30.4193 24.6711 30.2703L20.5908 27.4837C20.4434 27.383 20.2511 27.377 20.0869 27.447C19.3441 27.7637 17.8928 28.1234 17.8928 28.1234Z" fill="#E6EE00"/>
<path id="Union_2" fill-rule="evenodd" clip-rule="evenodd" d="M27.5311 29.222C28.6577 25.2375 30.2711 19.5569 30.4698 18.9939C30.7789 18.1184 31.0871 17.7564 33.8057 18.716C35.5201 19.3212 35.1294 20.3649 34.9992 20.6254C34.9788 20.6664 34.9601 20.7082 34.9479 20.7523L30.4181 37.2421C30.4027 37.2982 30.3785 37.3479 30.3477 37.3908L30.2391 37.7921C30.1409 38.1553 29.6723 38.254 29.4359 37.9613L24.3867 31.7102L23.3582 36.4386L23.3264 36.6399C23.3151 36.7113 23.2895 36.7742 23.2535 36.8275C23.0997 37.1051 22.6894 37.1546 22.4819 36.8764L21.8987 36.0943L17.4025 30.5053C17.3211 30.404 17.2862 30.2731 17.3064 30.1447L17.6491 27.9717C17.7084 27.5959 18.1717 27.4497 18.4359 27.7235L21.4054 30.8011L22.3685 25.3161C22.4247 24.9959 22.7742 24.8472 23.0373 24.9873C23.0919 25.0082 23.1442 25.0405 23.191 25.0851L27.5311 29.222Z" fill="#B9D902"/>
</g>
<g id="Vector 1903">
<path d="M35.5255 10.1061L39.2825 25.6512L41.9501 23.8944C42.1176 23.784 42.1945 23.578 42.1403 23.3849L38.5077 10.4496C38.4509 10.2474 38.2652 10.1089 38.0551 10.1104C37.1727 10.1164 35.5255 10.1061 35.5255 10.1061Z" fill="#93BA01"/>
<path d="M35.5255 10.1061L39.2825 25.6512L41.9501 23.8944C42.1176 23.784 42.1945 23.578 42.1403 23.3849L38.5077 10.4496C38.4509 10.2474 38.2652 10.1089 38.0551 10.1104C37.1727 10.1164 35.5255 10.1061 35.5255 10.1061Z" fill="black" fill-opacity="0.3"/>
</g>
<path id="Vector 120" d="M39.0565 25.5498C35.743 23.802 29.4597 17.8065 26.7567 15.6236C26.4834 15.4029 26.5301 14.9643 26.8461 14.8107C30.1816 13.1903 33.9644 11.0416 35.3162 10.2633C35.5771 10.1131 35.909 10.2456 35.9905 10.5355C36.6382 12.8387 39.0478 21.5119 39.6332 25.1221C39.688 25.4606 39.3599 25.7098 39.0565 25.5498Z" fill="#B9D902"/>
<g id="Mask group">
<mask id="mask1_2681_41700" style="mask-type:alpha" maskUnits="userSpaceOnUse" x="26" y="10" width="14" height="16">
<path id="Vector 1906_2" d="M39.0565 25.5496C35.743 23.8019 29.4597 17.8064 26.7567 15.6235C26.4834 15.4028 26.5301 14.9641 26.8461 14.8106C30.1816 13.1902 33.9644 11.0415 35.3162 10.2632C35.5771 10.113 35.909 10.2455 35.9905 10.5354C36.6382 12.8386 39.0478 21.5118 39.6332 25.122C39.688 25.4605 39.3599 25.7096 39.0565 25.5496Z" fill="#B9D902"/>
</mask>
<g mask="url(#mask1_2681_41700)">
<path id="Rectangle 3468040" d="M35.4804 9.63789L35.9485 9.63768L40.2037 25.8237L39.5434 26.0133L35.4804 9.63789Z" fill="#FFF858"/>
</g>
</g>
<g id="Mask group_2">
<mask id="mask2_2681_41700" style="mask-type:alpha" maskUnits="userSpaceOnUse" x="17" y="18" width="19" height="21">
<path id="Union_3" fill-rule="evenodd" clip-rule="evenodd" d="M27.5311 29.222C28.6577 25.2375 30.2711 19.5569 30.4698 18.9939C30.7789 18.1184 31.0871 17.7564 33.8057 18.716C35.5201 19.3212 35.1294 20.3649 34.9992 20.6254C34.9788 20.6664 34.9601 20.7082 34.9479 20.7523L30.4181 37.2421C30.4027 37.2982 30.3785 37.3479 30.3477 37.3908L30.2391 37.7921C30.1409 38.1553 29.6723 38.254 29.4359 37.9613L24.3867 31.7102L23.3582 36.4386L23.3264 36.6399C23.3151 36.7113 23.2895 36.7742 23.2535 36.8275C23.0997 37.1051 22.6894 37.1546 22.4819 36.8764L21.8987 36.0943L17.4025 30.5053C17.3211 30.404 17.2862 30.2731 17.3064 30.1447L17.6491 27.9717C17.7084 27.5959 18.1717 27.4497 18.4359 27.7235L21.4054 30.8011L22.3685 25.3161C22.4247 24.9959 22.7742 24.8472 23.0373 24.9873C23.0919 25.0082 23.1442 25.0405 23.191 25.0851L27.5311 29.222Z" fill="#B9D902"/>
</mask>
<g mask="url(#mask2_2681_41700)">
<path id="Rectangle 3468041" d="M34.2422 22.0657L35.4479 23.0333L30.6421 40.5124L29.0256 39.8976L34.2422 22.0657Z" fill="#FFF858"/>
<path id="Rectangle 3468042" d="M24.0898 31.325L25.2995 32.8658L24.324 38.2327L22.7074 37.6179L24.0898 31.325Z" fill="#FFF858"/>
<path id="Vector 134" opacity="0.5" d="M27.9342 27.6817L27.4187 29.514L22.2461 24.6359L23.997 24.6357L27.9342 27.6817Z" fill="#9BB504"/>
<path id="Vector 135" opacity="0.5" d="M21.6822 29.2082L21.3193 31.2L16.6133 26.285L17.9552 26.4009L21.6822 29.2082Z" fill="#9BB504"/>
</g>
</g>
</g>
<g id="Group 1912055856">
<path id="Vector 652" d="M3.51308 21.6019C2.43215 16.4591 6.68322 10.2246 12.7065 10.2057C17.9483 10.1892 20.2623 15.0335 20.1687 20.3123C20.0751 25.5911 20.4104 28.7383 21.5654 33.3171C23.789 42.1318 13.8839 43.262 9.36494 38.9136C4.32735 34.0661 4.35621 25.6133 3.51308 21.6019Z" fill="#FC0401"/>
<ellipse id="Ellipse 943" cx="6.54188" cy="14.9482" rx="0.926894" ry="1.92098" transform="rotate(34.7429 6.54188 14.9482)" fill="white"/>
<g id="Mask group_3">
<mask id="mask3_2681_41700" style="mask-type:alpha" maskUnits="userSpaceOnUse" x="8" y="14" width="12" height="22">
<path id="Vector 651" d="M8.40241 20.8216C8.56247 19.0647 9.43628 14.6588 12.9129 14.5623C15.9384 14.4784 18.0098 17.3909 17.7381 20.9118C17.4663 24.4328 17.7527 27.3436 18.7596 29.7424C21.0327 35.1579 14.2487 36.521 11.7011 33.6726C8.02166 29.5586 8.24234 22.5785 8.40241 20.8216Z" fill="#020000"/>
</mask>
<g mask="url(#mask3_2681_41700)">
<path id="Vector 1718" d="M8.40241 20.8216C8.56247 19.0647 9.43628 14.6588 12.9129 14.5623C15.9384 14.4784 18.0098 17.3909 17.7381 20.9118C17.4663 24.4328 17.7527 27.3436 18.7596 29.7424C21.0327 35.1579 14.2487 36.521 11.7011 33.6726C8.02166 29.5586 8.24234 22.5785 8.40241 20.8216Z" fill="#010000"/>
<path id="Vector 653" d="M11.3497 19.5059C10.666 19.6016 9.80072 19.2775 9.05226 17.3091L8.17143 14.5609L11.6276 13.9302C11.8528 14.6391 12.3406 16.2735 12.4898 17.1401C12.7624 18.7232 12.1578 19.3927 11.3497 19.5059Z" fill="#F4F4F4"/>
<path id="Vector 654" d="M14.6748 18.84C14.2288 18.8246 12.9556 18.4468 12.6061 15.5169C12.5326 14.9009 12.3733 13.9268 12.3733 13.9268L12.4956 13.0046L15.9525 12.9665C15.997 13.761 16.0695 15.5871 16.0033 16.5353C15.8824 18.2675 15.1207 18.8554 14.6748 18.84Z" fill="#F4F4F4"/>
</g>
</g>
<path id="Vector 1716" d="M11.6555 22.6772C12.5595 22.3169 12.3855 24.2654 12.4138 25.0216C12.4421 25.7778 13.1069 26.118 13.4821 25.743C13.8573 25.3681 13.8526 25.1537 13.4266 23.9253C12.8941 22.3897 14.1906 22.4868 14.6719 23.1218C15.1532 23.7568 15.923 25.1875 15.0438 26.5373C14.0482 28.0658 11.718 27.5261 11.1153 26.3342C10.5181 25.1534 10.7515 23.0374 11.6555 22.6772Z" fill="#E23D29"/>
<g id="Mask group_4">
<mask id="mask4_2681_41700" style="mask-type:alpha" maskUnits="userSpaceOnUse" x="9" y="29" width="11" height="8">
<path id="Vector 1717" d="M14.2818 31.1776C12.7776 30.0716 10.9472 29.8733 9.86089 30.7178C9.86089 30.7178 10.162 31.485 10.4179 31.888C10.6714 32.2871 11.0942 32.9645 11.0942 32.9645C11.0942 32.9645 11.169 33.5296 11.405 34.0984C12.4266 36.5608 14.9901 37.1634 17.5565 36.4889C19.4949 35.9794 20.41 33.7951 19.7321 32.1309C19.0542 30.4666 18.157 29.9748 16.8808 29.7866C15.6236 29.6011 14.392 30.43 14.2818 31.1776Z" fill="#D9D9D9"/>
</mask>
<g mask="url(#mask4_2681_41700)">
<path id="Vector 1718_2" d="M14.2818 31.1776C12.7776 30.0716 10.9533 29.8322 9.86695 30.6767C9.86695 30.6767 10.0587 31.5564 10.3147 31.9593C10.5682 32.3585 10.9203 33.0254 10.9203 33.0254C10.9203 33.0254 11.1691 33.5296 11.405 34.0984C12.4266 36.5608 14.9902 37.1634 17.5565 36.4889C19.4949 35.9794 20.41 33.7951 19.7321 32.1309C19.0542 30.4666 18.157 29.9748 16.8809 29.7866C15.6236 29.6011 14.392 30.43 14.2818 31.1776Z" fill="#FFB07D"/>
<path id="Vector 1720" d="M16.1867 34.1757C16.2485 34.3093 16.4068 34.3675 16.5404 34.3057C16.674 34.2439 16.7322 34.0855 16.6704 33.9519L16.1867 34.1757ZM15.881 33.5586C15.9877 33.7601 16.0898 33.9664 16.1867 34.1757L16.6704 33.9519C16.5697 33.7342 16.4634 33.5193 16.352 33.309L15.881 33.5586ZM13.8595 31.0184C14.4967 31.462 15.1177 32.2281 15.6535 33.1488L16.1142 32.8807C15.5596 31.9277 14.8914 31.0873 14.164 30.581L13.8595 31.0184Z" fill="#EB4A1C"/>
</g>
</g>
<path id="Vector 1718_3" d="M11.3024 34.2065L11.524 34.1281L11.3024 34.2065ZM11.4739 32.1811C11.5108 32.0567 11.4399 31.9259 11.3155 31.8889C11.191 31.852 11.0602 31.9229 11.0233 32.0473L11.4739 32.1811ZM17.1095 36.6328C14.7609 37.2613 12.3212 36.38 11.524 34.1281L11.0809 34.285C11.9834 36.8342 14.72 37.7588 17.231 37.0868L17.1095 36.6328ZM11.524 34.1281C11.3552 33.6514 11.3412 33.1644 11.372 32.7908C11.3874 32.605 11.4135 32.4501 11.4356 32.3425C11.4466 32.2888 11.4566 32.2471 11.4636 32.2195C11.4671 32.2057 11.4699 32.1954 11.4717 32.1889C11.4726 32.1856 11.4732 32.1834 11.4736 32.182C11.4738 32.1814 11.4739 32.181 11.4739 32.1808C11.474 32.1807 11.474 32.1807 11.474 32.1808C11.474 32.1808 11.4739 32.1808 11.4739 32.1809C11.4739 32.1809 11.4739 32.181 11.4739 32.181C11.4739 32.181 11.4739 32.1811 11.2486 32.1142C11.0233 32.0473 11.0233 32.0474 11.0232 32.0475C11.0232 32.0475 11.0232 32.0476 11.0232 32.0476C11.0232 32.0477 11.0231 32.0479 11.0231 32.048C11.023 32.0483 11.0229 32.0487 11.0228 32.0491C11.0225 32.05 11.0222 32.0511 11.0218 32.0525C11.021 32.0552 11.0199 32.059 11.0186 32.0637C11.016 32.0732 11.0124 32.0866 11.0081 32.1037C10.9994 32.1378 10.9878 32.1866 10.9751 32.248C10.95 32.3707 10.9207 32.5445 10.9036 32.7522C10.8695 33.1654 10.8825 33.7246 11.0809 34.285L11.524 34.1281Z" fill="#FC0401"/>
</g>
</g>
</g>
</g>
</svg>
