<svg width="34" height="34" viewBox="0 0 34 34" fill="none" xmlns="http://www.w3.org/2000/svg">
<g id="Group 1912055372">
<circle id="Ellipse 927" cx="17.135" cy="16.7239" r="12.16" transform="rotate(26.8336 17.135 16.7239)" fill="#0078FF"/>
<g id="Vector">
<path d="M20.2094 9.57172C20.496 9.32755 20.9011 9.26663 21.2499 9.42788C21.9701 9.7608 22.4421 10.2314 22.4922 10.9116C22.514 11.2077 22.448 11.4842 22.3689 11.7164C22.2922 11.9414 22.1866 12.1697 22.0935 12.371L21.1899 14.3256L23.0067 15.1656C24.072 15.6581 24.4344 16.985 23.7902 17.9588L20.582 22.8085C20.0624 23.5941 19.0479 23.8901 18.1904 23.4937L12.7099 20.96C12.3289 20.7839 12.1628 20.3322 12.3389 19.9512L15.4419 13.2393C15.4763 13.1648 15.5646 13.1324 15.6391 13.1668C15.6904 13.1905 15.7509 13.183 15.7949 13.1474L20.2094 9.57172Z" fill="#191919"/>
<path d="M14.6819 12.7243L13.5127 12.1837C12.5529 11.74 11.421 12.1675 10.9791 13.1234L9.10299 17.1816C8.66106 18.1375 9.06866 19.2767 10.0284 19.7204L11.1976 20.2609L14.6819 12.7243Z" fill="#191919"/>
</g>
</g>
</svg>
