<svg width="40" height="40" viewBox="0 0 40 40" fill="none" xmlns="http://www.w3.org/2000/svg">
<g id="Group 1912055315">
<mask id="mask0_2680_29140" style="mask-type:alpha" maskUnits="userSpaceOnUse" x="0" y="0" width="40" height="40">
<rect id="Rectangle 34627016" width="40" height="40" fill="#D9D9D9"/>
</mask>
<g mask="url(#mask0_2680_29140)">
<g id="Group 1171275114">
<g id="Group 1171275113">
<g id="Union">
<mask id="path-2-outside-1_2680_29140" maskUnits="userSpaceOnUse" x="3.62109" y="11.0928" width="34" height="34" fill="black">
<rect fill="white" x="3.62109" y="11.0928" width="34" height="34"/>
<path fill-rule="evenodd" clip-rule="evenodd" d="M9.39662 22.8644L9.59205 22.916C9.31037 22.3868 9.0744 21.8294 8.89155 21.2489C8.4982 19.9737 8.37528 18.6188 8.67029 17.2373C8.98989 15.8026 9.752 14.368 11.1287 13.0928C10.828 16.0533 11.7132 18.8912 13.7964 20.4063C14.386 19.7112 15.011 19.0668 15.3804 18.686L15.3804 18.686L15.4181 18.6472C15.0678 18.3694 14.7546 18.1084 14.5093 17.883C14.2993 17.6901 14.3515 17.3644 14.6068 17.2377C16.1983 16.448 18.9386 15.5805 19.3621 15.7867C19.8719 16.035 19.5281 18.967 19.2934 20.6638C19.2466 21.0026 18.8588 21.1702 18.5791 20.9733C18.2999 20.7768 17.9814 20.5513 17.6451 20.3101C17.6199 20.3478 17.5963 20.3865 17.5756 20.4267C17.4616 20.6479 17.2585 21.0146 16.9414 21.4994L24.7162 21.4994C28.8818 21.0584 30.7401 17.1932 30.3237 13.0928C31.7004 14.368 32.4625 15.8026 32.7821 17.2373C33.0771 18.6188 32.9542 19.9737 32.5608 21.2489C32.3753 21.8378 32.1352 22.4029 31.8481 22.9389L32.2238 22.8205C33.2702 22.7448 34.3993 22.843 35.5503 23.245C35.8012 23.3326 35.9089 23.6244 35.7748 23.8539C34.7108 25.6744 33.1971 26.4193 31.6934 26.5861C30.7682 26.6888 29.901 27.2436 29.5991 28.1241C28.8856 30.2051 27.9016 31.9613 26.7201 33.7685C26.3011 34.4094 26.3087 35.2316 26.7275 35.8482C27.5722 34.8925 28.3802 34.0158 28.7654 33.6006C28.4395 33.3424 28.1473 33.0993 27.9159 32.888C27.7054 32.6958 27.7574 32.371 28.0131 32.2449C29.5296 31.4973 32.1101 30.6821 32.5105 30.8771C32.9916 31.1114 32.6733 33.8589 32.4504 35.4775C32.4037 35.8163 32.0154 35.9841 31.7358 35.7872C31.4714 35.601 31.1714 35.3885 30.8555 35.1618C30.846 35.174 30.8368 35.1864 30.8279 35.1991C30.4371 35.7572 28.9279 37.8925 27.4313 39.745C27.3349 39.9516 27.2285 40.1493 27.1123 40.3386C26.6524 41.0764 26.0511 41.677 25.3082 42.1231C25.1345 42.2242 24.937 42.2775 24.7359 42.2775H17.3731C17.172 42.2775 16.9745 42.2242 16.8008 42.1231C16.0579 41.6598 15.4566 41.0764 14.9967 40.3386C14.5545 39.618 14.2539 38.7773 14.1124 37.7821C14.0677 37.4785 14.1635 37.171 14.3728 36.9466L14.3777 36.9414L14.769 36.5314C14.7292 36.4948 14.6896 36.4578 14.6503 36.4205C13.3888 38.0545 11.4469 40.5896 9.72461 42.9226C8.77394 42.2451 7.853 41.3635 7.11972 40.2793C8.06362 38.6344 12.3671 32.835 12.8734 32.3194L12.9333 32.258C13.2148 31.9683 13.5192 31.6551 14.0181 31.726C13.3889 30.5954 12.8446 29.4271 12.4003 28.1395C12.0823 27.2178 11.1477 26.6571 10.1735 26.6148C8.5362 26.5436 6.84301 25.8414 5.67935 23.8523C5.54547 23.6235 5.65177 23.332 5.90188 23.2441C6.98114 22.8646 8.06113 22.7564 9.05962 22.8098C9.17358 22.8159 9.28629 22.8352 9.39662 22.8644Z"/>
</mask>
<path fill-rule="evenodd" clip-rule="evenodd" d="M9.39662 22.8644L9.59205 22.916C9.31037 22.3868 9.0744 21.8294 8.89155 21.2489C8.4982 19.9737 8.37528 18.6188 8.67029 17.2373C8.98989 15.8026 9.752 14.368 11.1287 13.0928C10.828 16.0533 11.7132 18.8912 13.7964 20.4063C14.386 19.7112 15.011 19.0668 15.3804 18.686L15.3804 18.686L15.4181 18.6472C15.0678 18.3694 14.7546 18.1084 14.5093 17.883C14.2993 17.6901 14.3515 17.3644 14.6068 17.2377C16.1983 16.448 18.9386 15.5805 19.3621 15.7867C19.8719 16.035 19.5281 18.967 19.2934 20.6638C19.2466 21.0026 18.8588 21.1702 18.5791 20.9733C18.2999 20.7768 17.9814 20.5513 17.6451 20.3101C17.6199 20.3478 17.5963 20.3865 17.5756 20.4267C17.4616 20.6479 17.2585 21.0146 16.9414 21.4994L24.7162 21.4994C28.8818 21.0584 30.7401 17.1932 30.3237 13.0928C31.7004 14.368 32.4625 15.8026 32.7821 17.2373C33.0771 18.6188 32.9542 19.9737 32.5608 21.2489C32.3753 21.8378 32.1352 22.4029 31.8481 22.9389L32.2238 22.8205C33.2702 22.7448 34.3993 22.843 35.5503 23.245C35.8012 23.3326 35.9089 23.6244 35.7748 23.8539C34.7108 25.6744 33.1971 26.4193 31.6934 26.5861C30.7682 26.6888 29.901 27.2436 29.5991 28.1241C28.8856 30.2051 27.9016 31.9613 26.7201 33.7685C26.3011 34.4094 26.3087 35.2316 26.7275 35.8482C27.5722 34.8925 28.3802 34.0158 28.7654 33.6006C28.4395 33.3424 28.1473 33.0993 27.9159 32.888C27.7054 32.6958 27.7574 32.371 28.0131 32.2449C29.5296 31.4973 32.1101 30.6821 32.5105 30.8771C32.9916 31.1114 32.6733 33.8589 32.4504 35.4775C32.4037 35.8163 32.0154 35.9841 31.7358 35.7872C31.4714 35.601 31.1714 35.3885 30.8555 35.1618C30.846 35.174 30.8368 35.1864 30.8279 35.1991C30.4371 35.7572 28.9279 37.8925 27.4313 39.745C27.3349 39.9516 27.2285 40.1493 27.1123 40.3386C26.6524 41.0764 26.0511 41.677 25.3082 42.1231C25.1345 42.2242 24.937 42.2775 24.7359 42.2775H17.3731C17.172 42.2775 16.9745 42.2242 16.8008 42.1231C16.0579 41.6598 15.4566 41.0764 14.9967 40.3386C14.5545 39.618 14.2539 38.7773 14.1124 37.7821C14.0677 37.4785 14.1635 37.171 14.3728 36.9466L14.3777 36.9414L14.769 36.5314C14.7292 36.4948 14.6896 36.4578 14.6503 36.4205C13.3888 38.0545 11.4469 40.5896 9.72461 42.9226C8.77394 42.2451 7.853 41.3635 7.11972 40.2793C8.06362 38.6344 12.3671 32.835 12.8734 32.3194L12.9333 32.258C13.2148 31.9683 13.5192 31.6551 14.0181 31.726C13.3889 30.5954 12.8446 29.4271 12.4003 28.1395C12.0823 27.2178 11.1477 26.6571 10.1735 26.6148C8.5362 26.5436 6.84301 25.8414 5.67935 23.8523C5.54547 23.6235 5.65177 23.332 5.90188 23.2441C6.98114 22.8646 8.06113 22.7564 9.05962 22.8098C9.17358 22.8159 9.28629 22.8352 9.39662 22.8644Z" fill="white"/>
<path d="M9.59205 22.916L9.23435 24.2696C9.77248 24.4118 10.3437 24.2217 10.6894 23.7854C11.035 23.3491 11.0894 22.7495 10.8279 22.2582L9.59205 22.916ZM9.39662 22.8644L9.75432 21.5108H9.75432L9.39662 22.8644ZM8.89155 21.2489L7.55372 21.6616L7.55624 21.6696L8.89155 21.2489ZM8.67029 17.2373L7.30374 16.9328L7.30116 16.9449L8.67029 17.2373ZM11.1287 13.0928L12.5215 13.2342C12.5804 12.6549 12.2745 12.0996 11.7533 11.8398C11.2321 11.58 10.6046 11.67 10.1773 12.0657L11.1287 13.0928ZM13.7964 20.4063L12.9729 21.5385C13.5655 21.9694 14.39 21.8706 14.864 21.3119L13.7964 20.4063ZM15.3804 18.686L16.3853 19.6608C16.3994 19.6462 16.4133 19.6313 16.4268 19.6161L15.3804 18.686ZM15.3804 18.686L14.3755 17.7113C14.3613 17.7259 14.3475 17.7407 14.334 17.7559L15.3804 18.686ZM15.4181 18.6472L16.423 19.6219C16.6984 19.338 16.8409 18.9508 16.8151 18.5561C16.7894 18.1613 16.5979 17.7959 16.2879 17.5502L15.4181 18.6472ZM14.5093 17.883L13.562 18.9139L13.562 18.9139L14.5093 17.883ZM14.6068 17.2377L15.2291 18.4918L14.6068 17.2377ZM19.3621 15.7867L19.975 14.528L19.975 14.528L19.3621 15.7867ZM19.2934 20.6638L20.6802 20.8556V20.8556L19.2934 20.6638ZM18.5791 20.9733L19.3848 19.8284V19.8284L18.5791 20.9733ZM17.6451 20.3101L18.4611 19.1725C18.153 18.9514 17.7683 18.8649 17.3951 18.9326C17.0219 19.0004 16.6922 19.2166 16.4814 19.5319L17.6451 20.3101ZM17.5756 20.4267L18.8199 21.0683L18.8199 21.0683L17.5756 20.4267ZM16.9414 21.4994L15.7698 20.7331C15.4884 21.1633 15.4654 21.7132 15.71 22.1654C15.9546 22.6176 16.4273 22.8994 16.9414 22.8994V21.4994ZM24.7162 21.4994L24.7162 22.8994C24.7654 22.8994 24.8146 22.8968 24.8636 22.8916L24.7162 21.4994ZM30.3237 13.0928L31.275 12.0657C30.8478 11.67 30.2202 11.58 29.6991 11.8398C29.1779 12.0996 28.872 12.6549 28.9308 13.2342L30.3237 13.0928ZM32.7821 17.2373L34.1513 16.9449L34.1486 16.9329L32.7821 17.2373ZM32.5608 21.2489L33.8962 21.6696L33.8986 21.6616L32.5608 21.2489ZM31.8481 22.9389L30.614 22.2779C30.3452 22.7797 30.407 23.3942 30.7703 23.8324C31.1335 24.2706 31.7259 24.4453 32.2688 24.2742L31.8481 22.9389ZM32.2238 22.8205L32.1227 21.4242C32.0142 21.4321 31.9069 21.4525 31.8031 21.4853L32.2238 22.8205ZM35.5503 23.245L35.0886 24.5667L35.5503 23.245ZM35.7748 23.8539L36.9835 24.5604L36.9835 24.5604L35.7748 23.8539ZM31.6934 26.5861L31.539 25.1947L31.6934 26.5861ZM29.5991 28.1241L28.2748 27.67V27.67L29.5991 28.1241ZM26.7201 33.7685L27.8919 34.5346L27.8919 34.5346L26.7201 33.7685ZM26.7275 35.8482L25.5693 36.6348C25.8123 36.9925 26.2069 37.2179 26.6385 37.2453C27.07 37.2728 27.49 37.0994 27.7764 36.7754L26.7275 35.8482ZM28.7654 33.6006L29.7917 34.5528C30.0571 34.2667 30.191 33.8829 30.1613 33.4938C30.1315 33.1048 29.9407 32.7458 29.635 32.5034L28.7654 33.6006ZM27.9159 32.888L28.8598 31.8541L28.8598 31.8541L27.9159 32.888ZM28.0131 32.2449L28.6322 33.5006L28.6322 33.5006L28.0131 32.2449ZM32.5105 30.8771L31.8975 32.1358H31.8975L32.5105 30.8771ZM32.4504 35.4775L33.8373 35.6685V35.6685L32.4504 35.4775ZM31.7358 35.7872L30.9297 36.9319L30.9297 36.9319L31.7358 35.7872ZM30.8555 35.1618L31.6719 34.0244C31.0618 33.5865 30.2149 33.708 29.7525 34.2997L30.8555 35.1618ZM30.8279 35.1991L29.6811 34.396L29.6811 34.396L30.8279 35.1991ZM27.4313 39.745L26.3423 38.8652C26.2708 38.9536 26.2105 39.0503 26.1624 39.1533L27.4313 39.745ZM27.1123 40.3386L28.3004 41.0792L28.3056 41.0708L27.1123 40.3386ZM25.3082 42.1231L26.0125 43.333C26.018 43.3298 26.0235 43.3266 26.029 43.3233L25.3082 42.1231ZM16.8008 42.1231L16.06 43.311C16.072 43.3185 16.0842 43.3259 16.0965 43.333L16.8008 42.1231ZM14.9967 40.3386L13.8034 41.0709L13.8086 41.0792L14.9967 40.3386ZM14.1124 37.7821L15.4984 37.5851L15.4974 37.5782L14.1124 37.7821ZM14.3728 36.9466L15.3966 37.9015L15.3967 37.9015L14.3728 36.9466ZM14.3777 36.9414L13.3649 35.9748C13.3612 35.9787 13.3575 35.9826 13.3538 35.9866L14.3777 36.9414ZM14.769 36.5314L15.7817 37.4981C16.0411 37.2263 16.1804 36.8616 16.1683 36.4861C16.1561 36.1106 15.9935 35.7558 15.7171 35.5013L14.769 36.5314ZM14.6503 36.4205L15.6145 35.4054C15.3273 35.1326 14.9379 34.9942 14.5429 35.0246C14.1479 35.055 13.7843 35.2513 13.5422 35.5649L14.6503 36.4205ZM9.72461 42.9226L8.91208 44.0627C9.5343 44.5061 10.3971 44.3688 10.8509 43.7541L9.72461 42.9226ZM7.11972 40.2793L5.90543 39.5826C5.63938 40.0462 5.66057 40.6209 5.96006 41.0637L7.11972 40.2793ZM12.8734 32.3194L13.8724 33.3003L13.8757 33.2968L12.8734 32.3194ZM12.9333 32.258L13.9356 33.2354L13.9373 33.2337L12.9333 32.258ZM14.0181 31.726L13.8211 33.1121C14.3475 33.1869 14.8708 32.9571 15.172 32.5189C15.4731 32.0808 15.5 31.5098 15.2415 31.0452L14.0181 31.726ZM12.4003 28.1395L13.7238 27.6829H13.7238L12.4003 28.1395ZM10.1735 26.6148L10.2343 25.2161H10.2343L10.1735 26.6148ZM5.67935 23.8523L4.47095 24.5593L5.67935 23.8523ZM5.90188 23.2441L5.43747 21.9234H5.43747L5.90188 23.2441ZM9.05962 22.8098L8.98486 24.2078H8.98486L9.05962 22.8098ZM9.94975 21.5625L9.75432 21.5108L9.03892 24.2179L9.23435 24.2696L9.94975 21.5625ZM7.55624 21.6696C7.76562 22.3342 8.03531 22.971 8.35623 23.5739L10.8279 22.2582C10.5854 21.8027 10.3832 21.3245 10.2269 20.8283L7.55624 21.6696ZM7.30116 16.9449C6.9486 18.5959 7.10151 20.1954 7.55375 21.6616L10.2294 20.8363C9.89489 19.752 9.80196 18.6417 10.0394 17.5296L7.30116 16.9449ZM10.1773 12.0657C8.59512 13.5313 7.68608 15.2168 7.30379 16.9329L10.0368 17.5417C10.2937 16.3885 10.9089 15.2047 12.0801 14.1199L10.1773 12.0657ZM14.6198 19.274C13.0745 18.1502 12.2517 15.8914 12.5215 13.2342L9.73588 12.9513C9.40438 16.2153 10.3518 19.6323 12.9729 21.5385L14.6198 19.274ZM14.3755 17.7113C14.0076 18.0906 13.3523 18.7656 12.7287 19.5006L14.864 21.3119C15.4197 20.6568 16.0145 20.043 16.3853 19.6608L14.3755 17.7113ZM14.334 17.7559L14.334 17.7559L16.4268 19.6161L16.4268 19.6161L14.334 17.7559ZM14.4131 17.6725L14.3755 17.7113L16.3854 19.6607L16.423 19.6219L14.4131 17.6725ZM13.562 18.9139C13.8429 19.1719 14.1856 19.4566 14.5483 19.7442L16.2879 17.5502C15.9499 17.2822 15.6662 17.0448 15.4565 16.852L13.562 18.9139ZM13.9845 15.9836C12.8839 16.5297 12.6004 18.0303 13.562 18.9139L15.4565 16.852C15.9983 17.3499 15.8191 18.199 15.2291 18.4918L13.9845 15.9836ZM19.975 14.528C19.5783 14.3348 19.1741 14.3525 19.0362 14.3589C18.8262 14.3687 18.6071 14.4013 18.4036 14.4398C17.9911 14.518 17.5041 14.648 17.0088 14.8012C16.0192 15.1073 14.8632 15.5476 13.9845 15.9836L15.2291 18.4918C15.9419 18.1381 16.9518 17.7497 17.8362 17.4762C18.2778 17.3396 18.6547 17.2421 18.9248 17.1909C19.0627 17.1648 19.1395 17.1572 19.1667 17.1559C19.2659 17.1513 19.04 17.187 18.7491 17.0453L19.975 14.528ZM20.6802 20.8556C20.7984 20.001 20.9501 18.7947 21.005 17.7559C21.032 17.2447 21.0392 16.7143 20.9916 16.2667C20.9683 16.048 20.9253 15.7797 20.8311 15.5202C20.7553 15.3113 20.5395 14.8029 19.975 14.528L18.7491 17.0453C18.5196 16.9336 18.3813 16.779 18.3095 16.6786C18.239 16.5801 18.2084 16.5011 18.1991 16.4756C18.1828 16.4306 18.1948 16.4454 18.2073 16.563C18.2312 16.788 18.2334 17.1432 18.2089 17.6082C18.1606 18.5217 18.0231 19.6297 17.9066 20.472L20.6802 20.8556ZM17.7733 22.1182C18.9056 22.9151 20.489 22.2383 20.6802 20.8556L17.9066 20.472C18.0041 19.7669 18.812 19.4252 19.3848 19.8284L17.7733 22.1182ZM16.8291 21.4477C17.1697 21.692 17.4918 21.92 17.7733 22.1182L19.3848 19.8284C19.108 19.6335 18.793 19.4106 18.4611 19.1725L16.8291 21.4477ZM18.8199 21.0683C18.8105 21.0867 18.8049 21.0944 18.8089 21.0883L16.4814 19.5319C16.4349 19.6013 16.3822 19.6864 16.3313 19.7851L18.8199 21.0683ZM18.1131 22.2657C18.4574 21.7393 18.6845 21.3309 18.8199 21.0683L16.3313 19.7851C16.2386 19.9649 16.0597 20.2898 15.7698 20.7331L18.1131 22.2657ZM24.7162 20.0994L16.9414 20.0994L16.9414 22.8994L24.7162 22.8994L24.7162 20.0994ZM28.9308 13.2342C29.1153 15.0507 28.784 16.7214 28.0421 17.9407C27.3245 19.1203 26.1965 19.9349 24.5688 20.1072L24.8636 22.8916C27.4015 22.6229 29.2854 21.2844 30.4343 19.396C31.5589 17.5474 31.9485 15.2353 31.7165 12.9513L28.9308 13.2342ZM34.1486 16.9329C33.7663 15.2168 32.8572 13.5313 31.275 12.0657L29.3723 14.1199C30.5435 15.2047 31.1587 16.3885 31.4156 17.5417L34.1486 16.9329ZM33.8986 21.6616C34.3509 20.1954 34.5038 18.5959 34.1512 16.9449L31.4129 17.5296C31.6504 18.6417 31.5575 19.752 31.223 20.8363L33.8986 21.6616ZM33.0822 23.6C33.4093 22.9894 33.6837 22.3438 33.8961 21.6696L31.2255 20.8283C31.0669 21.3317 30.8611 21.8165 30.614 22.2779L33.0822 23.6ZM31.8031 21.4853L31.4274 21.6036L32.2688 24.2742L32.6445 24.1558L31.8031 21.4853ZM36.0119 21.9233C34.6542 21.449 33.33 21.3368 32.1227 21.4242L32.3249 24.2169C33.2104 24.1528 34.1444 24.2369 35.0886 24.5667L36.0119 21.9233ZM36.9835 24.5604C37.5626 23.5694 37.0935 22.301 36.0119 21.9233L35.0886 24.5667C34.509 24.3642 34.2552 23.6794 34.5661 23.1475L36.9835 24.5604ZM31.8477 27.9776C33.7488 27.7667 35.6753 26.7985 36.9835 24.5604L34.5661 23.1475C33.7462 24.5502 32.6453 25.0719 31.539 25.1947L31.8477 27.9776ZM30.9235 28.5782C31.0085 28.3302 31.3225 28.0359 31.8477 27.9776L31.539 25.1947C30.214 25.3417 28.7936 26.157 28.2748 27.67L30.9235 28.5782ZM27.8919 34.5346C29.107 32.6761 30.1579 30.8111 30.9235 28.5782L28.2748 27.67C27.6134 29.599 26.6963 31.2464 25.5483 33.0024L27.8919 34.5346ZM27.8856 35.0616C27.7888 34.9191 27.7776 34.7094 27.8919 34.5346L25.5483 33.0024C24.8245 34.1094 24.8286 35.5441 25.5693 36.6348L27.8856 35.0616ZM27.739 32.6485C27.3504 33.0674 26.5339 33.9533 25.6785 34.921L27.7764 36.7754C28.6106 35.8317 29.41 34.9642 29.7917 34.5528L27.739 32.6485ZM26.972 33.922C27.2373 34.1642 27.5577 34.4298 27.8958 34.6978L29.635 32.5034C29.3214 32.2549 29.0573 32.0344 28.8598 31.8541L26.972 33.922ZM27.394 30.9892C26.2899 31.5336 26.0041 33.0384 26.972 33.922L28.8598 31.8541C29.4067 32.3533 29.2249 33.2084 28.6322 33.5006L27.394 30.9892ZM33.1235 29.6184C32.7308 29.4272 32.3329 29.4447 32.2009 29.4507C31.9975 29.4599 31.7867 29.4911 31.5928 29.5276C31.1995 29.6018 30.7369 29.725 30.2677 29.8697C29.33 30.1589 28.2338 30.5752 27.394 30.9892L28.6322 33.5006C29.3089 33.167 30.2612 32.8019 31.0929 32.5453C31.5085 32.4172 31.8608 32.3264 32.1114 32.2792C32.2395 32.255 32.3078 32.2487 32.3281 32.2478C32.4198 32.2436 32.1901 32.2783 31.8975 32.1358L33.1235 29.6184ZM33.8373 35.6685C33.9496 34.8528 34.092 33.7118 34.1426 32.7302C34.1674 32.2477 34.1737 31.7436 34.1272 31.3159C34.1045 31.1071 34.0625 30.8472 33.9697 30.594C33.895 30.39 33.6812 29.89 33.1235 29.6184L31.8975 32.1358C31.4602 31.9228 31.3416 31.5599 31.3407 31.5573C31.3217 31.5055 31.332 31.5114 31.3436 31.6184C31.3658 31.8223 31.3687 32.1502 31.3463 32.5862C31.3022 33.4415 31.174 34.4835 31.0634 35.2864L33.8373 35.6685ZM30.9297 36.9319C32.0623 37.7294 33.6468 37.0517 33.8373 35.6685L31.0634 35.2864C31.1606 34.5809 31.9686 34.2389 32.5418 34.6425L30.9297 36.9319ZM30.0392 36.2992C30.3594 36.529 30.6629 36.744 30.9297 36.9319L32.5418 34.6425C32.2798 34.458 31.9834 34.248 31.6719 34.0244L30.0392 36.2992ZM31.9746 36.0022C31.9679 36.0117 31.9624 36.0191 31.9586 36.0239L29.7525 34.2997C29.7297 34.3289 29.7056 34.361 29.6811 34.396L31.9746 36.0022ZM28.5203 40.6248C30.0486 38.7331 31.5804 36.5652 31.9747 36.0021L29.6811 34.396C29.2937 34.9492 27.8073 37.0519 26.3423 38.8652L28.5203 40.6248ZM28.3056 41.0708C28.4497 40.8359 28.5813 40.5914 28.7001 40.3367L26.1624 39.1533C26.0885 39.3118 26.0073 39.4626 25.919 39.6065L28.3056 41.0708ZM26.029 43.3233C26.9683 42.7592 27.7274 41.9984 28.3004 41.0792L25.9242 39.5981C25.5774 40.1544 25.1338 40.5948 24.5875 40.9228L26.029 43.3233ZM24.7359 43.6775C25.1844 43.6775 25.6249 43.5586 26.0125 43.333L24.604 40.9131C24.644 40.8898 24.6896 40.8775 24.7359 40.8775V43.6775ZM17.3731 43.6775H24.7359V40.8775H17.3731V43.6775ZM16.0965 43.333C16.4841 43.5586 16.9246 43.6775 17.3731 43.6775V40.8775C17.4194 40.8775 17.465 40.8898 17.505 40.9131L16.0965 43.333ZM13.8086 41.0792C14.3894 42.0111 15.1491 42.7429 16.06 43.311L17.5416 40.9351C16.9668 40.5767 16.5237 40.1418 16.1848 39.5981L13.8086 41.0792ZM12.7263 37.9792C12.892 39.1444 13.2512 40.1708 13.8034 41.0708L16.19 39.6065C15.8579 39.0653 15.6157 38.4102 15.4984 37.5851L12.7263 37.9792ZM13.349 35.9917C12.8494 36.5274 12.6206 37.2614 12.7273 37.9861L15.4974 37.5782C15.5147 37.6957 15.4776 37.8146 15.3966 37.9015L13.349 35.9917ZM13.3538 35.9866L13.349 35.9918L15.3967 37.9015L15.4015 37.8963L13.3538 35.9866ZM13.7563 35.5648L13.3649 35.9748L15.3904 37.908L15.7817 37.4981L13.7563 35.5648ZM15.7171 35.5013C15.6826 35.4695 15.6484 35.4376 15.6145 35.4054L13.6861 37.4355C13.7309 37.478 13.7758 37.52 13.8209 37.5615L15.7171 35.5013ZM13.5422 35.5649C12.2785 37.2016 10.3295 39.746 8.59829 42.0911L10.8509 43.7541C12.5643 41.4332 14.499 38.9073 15.7585 37.2761L13.5422 35.5649ZM10.5371 41.7825C9.70267 41.1878 8.90638 40.422 8.27937 39.495L5.96006 41.0637C6.79963 42.305 7.84521 43.3024 8.91208 44.0627L10.5371 41.7825ZM8.33401 40.9761C8.75953 40.2345 10.02 38.4407 11.2909 36.702C11.9151 35.8481 12.5242 35.0312 13.0069 34.3981C13.2485 34.0812 13.4555 33.8143 13.6151 33.6136C13.6952 33.513 13.76 33.4332 13.8096 33.374C13.8659 33.3067 13.8823 33.2901 13.8724 33.3003L11.8745 31.3385C11.6706 31.5461 11.2417 32.0952 10.7802 32.7005C10.2841 33.3513 9.66343 34.1837 9.03042 35.0497C7.78701 36.7508 6.4238 38.6792 5.90543 39.5826L8.33401 40.9761ZM13.8757 33.2968L13.9356 33.2354L11.931 31.2805L11.8711 31.3419L13.8757 33.2968ZM13.9373 33.2337C13.9737 33.1962 14.0017 33.1674 14.029 33.1402C14.0555 33.1138 14.076 33.0942 14.0929 33.0788C14.1283 33.0467 14.1359 33.0443 14.1219 33.0528C14.1043 33.0635 14.0602 33.0869 13.9941 33.1023C13.9252 33.1183 13.8636 33.1181 13.8211 33.1121L14.2152 30.34C12.9222 30.1561 12.1404 31.0651 11.9293 31.2823L13.9373 33.2337ZM11.0769 28.5962C11.5519 29.9727 12.1321 31.216 12.7948 32.4068L15.2415 31.0452C14.6458 29.9748 14.1374 28.8815 13.7238 27.6829L11.0769 28.5962ZM10.1127 28.0135C10.6485 28.0367 10.9871 28.3361 11.0769 28.5962L13.7238 27.6829C13.1774 26.0995 11.6469 25.2775 10.2343 25.2161L10.1127 28.0135ZM4.47095 24.5593C5.90812 27.0158 8.07012 27.9247 10.1127 28.0135L10.2343 25.2161C9.00228 25.1626 7.77789 24.6669 6.88774 23.1454L4.47095 24.5593ZM5.43747 21.9234C4.3538 22.3044 3.89458 23.5741 4.47095 24.5593L6.88774 23.1454C7.19635 23.6729 6.94974 24.3597 6.36629 24.5648L5.43747 21.9234ZM9.13438 21.4118C7.98245 21.3502 6.7156 21.4739 5.43747 21.9234L6.36629 24.5648C7.24668 24.2553 8.1398 24.1626 8.98486 24.2078L9.13438 21.4118ZM9.75432 21.5108C9.56477 21.4608 9.35678 21.4237 9.13438 21.4118L8.98486 24.2078C8.99038 24.2081 9.0078 24.2097 9.03892 24.2179L9.75432 21.5108Z" fill="white" mask="url(#path-2-outside-1_2680_29140)"/>
</g>
<g id="Group 1171275112">
<path id="Union_2" fill-rule="evenodd" clip-rule="evenodd" d="M31.0456 35.0184C31.3161 35.2121 31.5731 35.3942 31.8031 35.5562C32.0827 35.7532 32.4715 35.5851 32.518 35.2462C32.7332 33.6791 33.035 31.0518 32.5727 30.8267C32.1871 30.6389 29.711 31.42 28.2435 32.1402C27.9876 32.2658 27.9356 32.5901 28.1465 32.7819C28.2876 32.9101 28.4515 33.0503 28.6317 33.1984C27.4806 34.447 24.9438 37.2394 23.9336 38.6903C23.7331 38.9784 23.7528 39.3594 23.9839 39.6235C24.4221 40.1246 24.9405 40.5616 25.4521 40.9407C25.8206 41.2137 26.3342 41.1484 26.6319 40.7996C28.3341 38.8049 30.2647 36.1222 31.0456 35.0184Z" fill="#00E294"/>
<path id="Union_3" fill-rule="evenodd" clip-rule="evenodd" d="M17.4674 20.2173C17.8036 20.4584 18.1221 20.6839 18.4013 20.8804C18.681 21.0773 19.0688 20.9097 19.1157 20.5709C19.3503 18.8741 19.6941 15.9421 19.1843 15.6938C18.7609 15.4876 16.0205 16.3551 14.429 17.1448C14.1737 17.2715 14.1216 17.5972 14.3315 17.7901C14.5768 18.0155 14.89 18.2765 15.2403 18.5543C15.2281 18.5669 15.2155 18.5799 15.2027 18.5931C14.6272 19.1864 13.4312 20.4193 12.7153 21.4872C12.5198 21.7788 12.5424 22.1613 12.7753 22.4238C13.1617 22.8594 13.6126 23.2423 14.0603 23.5772C14.4275 23.8519 14.9433 23.7857 15.2392 23.4352C16.5162 21.9225 17.1565 20.802 17.3978 20.3339C17.4186 20.2937 17.4421 20.255 17.4674 20.2173Z" fill="#00E294"/>
<g id="Group 1171275110">
<g id="Group 1171275107">
<path id="Union_4" fill-rule="evenodd" clip-rule="evenodd" d="M10.6096 24.5966C10.5912 24.5767 10.5728 24.5568 10.5605 24.5302C9.74919 23.5472 9.11 22.4048 8.71665 21.1562C8.3233 19.8809 8.20038 18.526 8.49539 17.1445C8.81499 15.7099 9.5771 14.2752 10.9538 13C10.5113 17.357 12.6371 21.4484 17.3703 21.4484C17.4932 21.5281 17.61 21.6012 17.7267 21.6742C17.8435 21.7473 17.9603 21.8203 18.0832 21.9L18.9437 22.458L18.8699 22.6174L10.6588 24.663C10.6465 24.6365 10.6281 24.6166 10.6096 24.5966ZM30.4927 24.5966C30.5112 24.5767 30.5296 24.5568 30.5419 24.5302C31.3532 23.5472 31.9924 22.4048 32.3857 21.1562C32.7791 19.8809 32.902 18.526 32.607 17.1445C32.2874 15.7099 31.5253 14.2752 30.1486 13C30.5911 17.357 28.4653 21.4484 23.7321 21.4484C23.6092 21.5281 23.4924 21.6012 23.3756 21.6742C23.2589 21.7473 23.1421 21.8203 23.0191 21.9L22.1587 22.458L22.2324 22.6174L30.4436 24.663C30.4559 24.6365 30.4743 24.6166 30.4927 24.5966Z" fill="#0279FE"/>
</g>
<path id="Vector" d="M14.9377 36.0771L14.2015 36.8485L14.1966 36.8537C13.9873 37.0781 13.8914 37.3856 13.9361 37.6892C14.0776 38.6844 14.3783 39.5251 14.8205 40.2457C15.2804 40.9835 15.8817 41.5669 16.6246 42.0302C16.7983 42.1313 16.9958 42.1846 17.1968 42.1846H24.5597C24.7608 42.1846 24.9582 42.1313 25.132 42.0302C25.8749 41.5841 26.4762 40.9835 26.9361 40.2457C27.3782 39.5251 27.6789 38.6844 27.8204 37.6892C27.8651 37.3856 27.7693 37.0781 27.56 36.8537L27.5551 36.8485L26.7386 35.9879C26.1419 35.359 26.0695 34.4011 26.5439 33.6756C27.7254 31.8684 28.7094 30.1122 29.4229 28.0312C29.7248 27.1507 30.592 26.5959 31.5172 26.4932C33.0209 26.3264 34.5345 25.5815 35.5986 23.761C35.7327 23.5315 35.625 23.2397 35.3741 23.1521C34.2231 22.7501 33.094 22.6519 32.0476 22.7276L30.8331 23.1103C30.3888 23.2503 29.9079 23.2164 29.4877 23.0155L26.4986 21.5863C26.251 21.4679 25.98 21.4065 25.7056 21.4065L15.418 21.4065C15.1185 21.4065 14.8236 21.4797 14.5588 21.6196L11.9616 22.9926C11.5535 23.2084 11.0791 23.2627 10.6327 23.1447L9.2204 22.7715C9.11007 22.7423 8.99736 22.723 8.8834 22.7169C7.88491 22.6635 6.80492 22.7717 5.72566 23.1512C5.47555 23.2391 5.36925 23.5306 5.50313 23.7594C6.66679 25.7485 8.35998 26.4507 9.99731 26.5219C10.9715 26.5642 11.906 27.1249 12.2241 28.0466C12.9496 30.149 13.9417 31.9333 15.1347 33.7553C15.6118 34.4839 15.5391 35.4471 14.9377 36.0771Z" fill="#0A07A9"/>
</g>
<path id="Union_5" fill-rule="evenodd" clip-rule="evenodd" d="M20.2969 27.6243C19.66 27.1193 19.1039 26.6506 18.7086 26.2677C18.5038 26.0693 18.5586 25.7424 18.8115 25.6109C21.18 24.379 25.6239 22.9531 26.2904 23.2776C27.105 23.6744 26.4853 28.5808 26.1324 31.0721C26.0845 31.4107 25.6969 31.5779 25.4169 31.3815C24.8558 30.9878 24.1545 30.4929 23.4098 29.9562C22.379 31.4129 19.8117 34.9788 17.5923 37.5542C17.2929 37.9016 16.78 37.9662 16.4083 37.6976C15.8857 37.3199 15.3509 36.8952 14.8606 36.4197C13.5409 38.1297 11.5477 40.7332 9.77668 43.1322C8.78299 42.424 7.82038 41.5026 7.05391 40.3693C8.04052 38.6499 12.5388 32.5881 13.068 32.0492C13.0888 32.028 13.1096 32.0066 13.1306 31.985C13.6434 31.4573 14.2289 30.8548 15.8367 32.4335C15.8729 32.4691 15.9074 32.5045 15.9403 32.5395C17.4196 30.771 19.274 28.7341 20.2969 27.6243Z" fill="#00E294"/>
</g>
</g>
</g>
</g>
</g>
</svg>
