<svg width="41" height="41" viewBox="0 0 41 41" fill="none" xmlns="http://www.w3.org/2000/svg">
<g id="Mask group">
<mask id="mask0_2681_41238" style="mask-type:alpha" maskUnits="userSpaceOnUse" x="0" y="0" width="41" height="41">
<g id="Rectangle 3467969">
<rect x="0.269531" y="0.484375" width="40" height="40.0001" fill="#191919"/>
<rect x="0.269531" y="0.484375" width="40" height="40.0001" fill="white" fill-opacity="0.05"/>
</g>
</mask>
<g mask="url(#mask0_2681_41238)">
<g id="Group 1912055729">
<g id="Union">
<mask id="path-2-outside-1_2681_41238" maskUnits="userSpaceOnUse" x="2.78792" y="5.38079" width="35.7382" height="42.3692" fill="black">
<rect fill="white" x="2.78792" y="5.38079" width="35.7382" height="42.3692"/>
<path fill-rule="evenodd" clip-rule="evenodd" d="M20.2683 30.4762C25.0502 31.7771 30.1568 29.3242 32.0593 24.6155C34.1118 19.5354 31.6574 13.7533 26.5773 11.7008C21.4972 9.64826 15.715 12.1026 13.6625 17.1828C11.8039 21.7831 13.641 26.959 17.7769 29.4199L17.1317 31.0169L16.7788 30.8744C16.1655 30.6266 15.4673 30.9229 15.2195 31.5363L12.8176 37.4813C12.2112 38.9822 12.9363 40.6906 14.4373 41.297C15.9382 41.9034 17.6466 41.1783 18.253 39.6773L20.6549 33.7323C20.9027 33.119 20.6064 32.4208 19.993 32.173L19.6403 32.0305L20.2683 30.4762Z"/>
</mask>
<path fill-rule="evenodd" clip-rule="evenodd" d="M20.2683 30.4762C25.0502 31.7771 30.1568 29.3242 32.0593 24.6155C34.1118 19.5354 31.6574 13.7533 26.5773 11.7008C21.4972 9.64826 15.715 12.1026 13.6625 17.1828C11.8039 21.7831 13.641 26.959 17.7769 29.4199L17.1317 31.0169L16.7788 30.8744C16.1655 30.6266 15.4673 30.9229 15.2195 31.5363L12.8176 37.4813C12.2112 38.9822 12.9363 40.6906 14.4373 41.297C15.9382 41.9034 17.6466 41.1783 18.253 39.6773L20.6549 33.7323C20.9027 33.119 20.6064 32.4208 19.993 32.173L19.6403 32.0305L20.2683 30.4762Z" fill="#D9D9D9"/>
<path d="M20.2683 30.4762L20.6358 29.1253L19.436 28.7989L18.9702 29.9517L20.2683 30.4762ZM17.7769 29.4199L19.075 29.9443L19.5249 28.8308L18.4928 28.2167L17.7769 29.4199ZM17.1317 31.0169L16.6072 32.315L17.9053 32.8395L18.4297 31.5414L17.1317 31.0169ZM16.7788 30.8744L17.3033 29.5763L16.7788 30.8744ZM15.2195 31.5363L13.9215 31.0118L15.2195 31.5363ZM12.8176 37.4813L14.1156 38.0057L12.8176 37.4813ZM19.6403 32.0305L18.3423 31.5061L17.8178 32.8041L19.1159 33.3286L19.6403 32.0305ZM30.7612 24.0911C29.1276 28.1344 24.7415 30.2422 20.6358 29.1253L19.9008 31.8271C25.3589 33.312 31.1861 30.5141 33.3573 25.14L30.7612 24.0911ZM26.0528 12.9988C30.4161 14.7617 32.5241 19.7279 30.7612 24.0911L33.3573 25.14C35.6995 19.343 32.8988 12.7449 27.1017 10.4027L26.0528 12.9988ZM14.9606 17.7072C16.7234 13.344 21.6896 11.236 26.0528 12.9988L27.1017 10.4027C21.3047 8.06056 14.7066 10.8613 12.3645 16.6583L14.9606 17.7072ZM18.4928 28.2167C14.9415 26.1038 13.3647 21.6571 14.9606 17.7072L12.3645 16.6583C10.243 21.909 12.3404 27.8143 17.0611 30.623L18.4928 28.2167ZM16.4789 28.8954L15.8336 30.4925L18.4297 31.5414L19.075 29.9443L16.4789 28.8954ZM17.6561 29.7189L17.3033 29.5763L16.2544 32.1725L16.6072 32.315L17.6561 29.7189ZM17.3033 29.5763C15.973 29.0389 14.4589 29.6816 13.9215 31.0118L16.5176 32.0607C16.4757 32.1643 16.3579 32.2143 16.2544 32.1725L17.3033 29.5763ZM13.9215 31.0118L11.5195 36.9568L14.1156 38.0057L16.5176 32.0607L13.9215 31.0118ZM11.5195 36.9568C10.6235 39.1747 11.695 41.699 13.9128 42.595L14.9617 39.9989C14.1777 39.6822 13.7989 38.7898 14.1156 38.0057L11.5195 36.9568ZM13.9128 42.595C16.1307 43.4911 18.655 42.4196 19.551 40.2018L16.9549 39.1529C16.6382 39.9369 15.7458 40.3157 14.9617 39.9989L13.9128 42.595ZM19.551 40.2018L21.953 34.2568L19.3569 33.2079L16.9549 39.1529L19.551 40.2018ZM21.953 34.2568C22.4904 32.9265 21.8477 31.4124 20.5175 30.875L19.4686 33.4711C19.3651 33.4292 19.315 33.3114 19.3569 33.2079L21.953 34.2568ZM20.5175 30.875L20.1648 30.7325L19.1159 33.3286L19.4686 33.4711L20.5175 30.875ZM20.9384 32.555L21.5664 31.0006L18.9702 29.9517L18.3423 31.5061L20.9384 32.555Z" fill="white" mask="url(#path-2-outside-1_2681_41238)"/>
</g>
<g id="Group 1912055728">
<path id="Rectangle 34627524" d="M17.8286 28.837C18.0764 28.2237 18.7746 27.9273 19.3879 28.1752L20.0099 28.4264C20.6232 28.6742 20.9196 29.3724 20.6718 29.9857L17.7462 37.2269C17.429 38.012 16.5354 38.3913 15.7503 38.0741C14.9651 37.7569 14.5858 36.8633 14.903 36.0782L17.8286 28.837Z" fill="#FF9A13"/>
<circle id="Ellipse 5702" cx="22.8609" cy="20.8991" r="9.92077" transform="rotate(22 22.8609 20.8991)" fill="#FF9A13"/>
<ellipse id="Ellipse 5703" cx="22.8619" cy="20.8991" rx="7.21511" ry="7.21511" transform="rotate(22 22.8619 20.8991)" fill="#191919"/>
<g id="Mask group_2">
<mask id="mask1_2681_41238" style="mask-type:alpha" maskUnits="userSpaceOnUse" x="15" y="13" width="16" height="16">
<ellipse id="Ellipse 5705" cx="22.8619" cy="20.8991" rx="7.21511" ry="7.21511" transform="rotate(22 22.8619 20.8991)" fill="#191919"/>
</mask>
<g mask="url(#mask1_2681_41238)">
<g id="Ellipse 5704">
<ellipse cx="25.8033" cy="13.2945" rx="7.21511" ry="7.21511" transform="rotate(22 25.8033 13.2945)" fill="#191919"/>
<ellipse cx="25.8033" cy="13.2945" rx="7.21511" ry="7.21511" transform="rotate(22 25.8033 13.2945)" fill="white" fill-opacity="0.2"/>
</g>
</g>
</g>
<ellipse id="Ellipse 943" cx="20.1061" cy="17.2814" rx="1.35686" ry="1.88407" transform="rotate(55.4071 20.1061 17.2814)" fill="white"/>
<path id="Rectangle 34627523" d="M15.2193 31.5363C15.4671 30.9229 16.1652 30.6266 16.7786 30.8744L19.9928 32.173C20.6061 32.4208 20.9025 33.1189 20.6547 33.7323L18.2527 39.6773C17.6463 41.1782 15.938 41.9034 14.437 41.297C12.9361 40.6905 12.2109 38.9822 12.8173 37.4812L15.2193 31.5363Z" fill="#EB4A1C"/>
</g>
</g>
</g>
</g>
</svg>
