<svg width="41" height="41" viewBox="0 0 41 41" fill="none" xmlns="http://www.w3.org/2000/svg">
<g id="Mask group">
<mask id="mask0_2681_41260" style="mask-type:alpha" maskUnits="userSpaceOnUse" x="0" y="0" width="41" height="41">
<g id="Rectangle 3467969">
<rect x="0.210938" y="0.484375" width="40" height="40.0001" fill="#191919"/>
<rect x="0.210938" y="0.484375" width="40" height="40.0001" fill="white" fill-opacity="0.05"/>
</g>
</mask>
<g mask="url(#mask0_2681_41260)">
<g id="Group 1912055729">
<g id="Union">
<mask id="path-2-outside-1_2681_41260" maskUnits="userSpaceOnUse" x="2.72932" y="5.38079" width="35.7382" height="42.3692" fill="black">
<rect fill="white" x="2.72932" y="5.38079" width="35.7382" height="42.3692"/>
<path fill-rule="evenodd" clip-rule="evenodd" d="M20.2097 30.4762C24.9916 31.7771 30.0982 29.3242 32.0007 24.6155C34.0532 19.5354 31.5988 13.7533 26.5187 11.7008C21.4386 9.64826 15.6564 12.1026 13.6039 17.1828C11.7453 21.7831 13.5824 26.959 17.7183 29.4199L17.0731 31.0169L16.7202 30.8744C16.1069 30.6266 15.4087 30.9229 15.1609 31.5363L12.759 37.4813C12.1526 38.9822 12.8777 40.6906 14.3787 41.297C15.8796 41.9034 17.588 41.1783 18.1944 39.6773L20.5963 33.7323C20.8441 33.119 20.5478 32.4208 19.9344 32.173L19.5817 32.0305L20.2097 30.4762Z"/>
</mask>
<path fill-rule="evenodd" clip-rule="evenodd" d="M20.2097 30.4762C24.9916 31.7771 30.0982 29.3242 32.0007 24.6155C34.0532 19.5354 31.5988 13.7533 26.5187 11.7008C21.4386 9.64826 15.6564 12.1026 13.6039 17.1828C11.7453 21.7831 13.5824 26.959 17.7183 29.4199L17.0731 31.0169L16.7202 30.8744C16.1069 30.6266 15.4087 30.9229 15.1609 31.5363L12.759 37.4813C12.1526 38.9822 12.8777 40.6906 14.3787 41.297C15.8796 41.9034 17.588 41.1783 18.1944 39.6773L20.5963 33.7323C20.8441 33.119 20.5478 32.4208 19.9344 32.173L19.5817 32.0305L20.2097 30.4762Z" fill="#D9D9D9"/>
<path d="M20.2097 30.4762L20.5772 29.1253L19.3774 28.7989L18.9117 29.9517L20.2097 30.4762ZM17.7183 29.4199L19.0164 29.9443L19.4663 28.8308L18.4342 28.2167L17.7183 29.4199ZM17.0731 31.0169L16.5486 32.315L17.8467 32.8395L18.3711 31.5414L17.0731 31.0169ZM16.7202 30.8744L17.2447 29.5763L16.7202 30.8744ZM15.1609 31.5363L13.8629 31.0118L15.1609 31.5363ZM12.759 37.4813L14.0571 38.0057L12.759 37.4813ZM19.9344 32.173L20.4589 30.875L19.9344 32.173ZM19.5817 32.0305L18.2837 31.5061L17.7592 32.8041L19.0573 33.3286L19.5817 32.0305ZM30.7026 24.0911C29.069 28.1344 24.6829 30.2422 20.5772 29.1253L19.8422 31.8271C25.3003 33.312 31.1275 30.5141 33.2987 25.14L30.7026 24.0911ZM25.9942 12.9988C30.3575 14.7617 32.4655 19.7279 30.7026 24.0911L33.2987 25.14C35.6409 19.343 32.8402 12.7449 27.0431 10.4027L25.9942 12.9988ZM14.902 17.7072C16.6648 13.344 21.631 11.236 25.9942 12.9988L27.0431 10.4027C21.2461 8.06056 14.648 10.8613 12.3059 16.6583L14.902 17.7072ZM18.4342 28.2167C14.8829 26.1038 13.3061 21.6571 14.902 17.7072L12.3059 16.6583C10.1845 21.909 12.2818 27.8143 17.0025 30.623L18.4342 28.2167ZM16.4203 28.8954L15.775 30.4925L18.3711 31.5414L19.0164 29.9443L16.4203 28.8954ZM17.5975 29.7189L17.2447 29.5763L16.1958 32.1725L16.5486 32.315L17.5975 29.7189ZM17.2447 29.5763C15.9144 29.0389 14.4003 29.6816 13.8629 31.0118L16.459 32.0607C16.4171 32.1643 16.2993 32.2143 16.1958 32.1725L17.2447 29.5763ZM13.8629 31.0118L11.4609 36.9568L14.0571 38.0057L16.459 32.0607L13.8629 31.0118ZM11.4609 36.9568C10.5649 39.1747 11.6364 41.699 13.8542 42.595L14.9031 39.9989C14.1191 39.6822 13.7403 38.7898 14.0571 38.0057L11.4609 36.9568ZM13.8542 42.595C16.0721 43.4911 18.5964 42.4196 19.4925 40.2018L16.8963 39.1529C16.5796 39.9369 15.6872 40.3157 14.9031 39.9989L13.8542 42.595ZM19.4925 40.2018L21.8944 34.2568L19.2983 33.2079L16.8963 39.1529L19.4925 40.2018ZM21.8944 34.2568C22.4318 32.9265 21.7892 31.4124 20.4589 30.875L19.41 33.4711C19.3065 33.4292 19.2564 33.3114 19.2983 33.2079L21.8944 34.2568ZM20.4589 30.875L20.1062 30.7325L19.0573 33.3286L19.41 33.4711L20.4589 30.875ZM20.8798 32.555L21.5078 31.0006L18.9117 29.9517L18.2837 31.5061L20.8798 32.555Z" fill="white" mask="url(#path-2-outside-1_2681_41260)"/>
</g>
<g id="Group 1912055728">
<path id="Rectangle 34627524" d="M17.77 28.837C18.0179 28.2237 18.716 27.9273 19.3294 28.1752L19.9513 28.4264C20.5647 28.6742 20.861 29.3724 20.6132 29.9857L17.6876 37.2269C17.3704 38.012 16.4768 38.3913 15.6917 38.0741C14.9065 37.7569 14.5272 36.8633 14.8444 36.0782L17.77 28.837Z" fill="#3DB9F2"/>
<circle id="Ellipse 5702" cx="22.8023" cy="20.8991" r="9.92077" transform="rotate(22 22.8023 20.8991)" fill="#3DB9F2"/>
<ellipse id="Ellipse 5703" cx="22.8033" cy="20.8991" rx="7.21511" ry="7.21511" transform="rotate(22 22.8033 20.8991)" fill="#191919"/>
<g id="Mask group_2">
<mask id="mask1_2681_41260" style="mask-type:alpha" maskUnits="userSpaceOnUse" x="15" y="13" width="16" height="16">
<ellipse id="Ellipse 5705" cx="22.8033" cy="20.8991" rx="7.21511" ry="7.21511" transform="rotate(22 22.8033 20.8991)" fill="#191919"/>
</mask>
<g mask="url(#mask1_2681_41260)">
<g id="Ellipse 5704">
<ellipse cx="25.7447" cy="13.2945" rx="7.21511" ry="7.21511" transform="rotate(22 25.7447 13.2945)" fill="#191919"/>
<ellipse cx="25.7447" cy="13.2945" rx="7.21511" ry="7.21511" transform="rotate(22 25.7447 13.2945)" fill="white" fill-opacity="0.2"/>
</g>
</g>
</g>
<ellipse id="Ellipse 943" cx="20.0475" cy="17.2814" rx="1.35686" ry="1.88407" transform="rotate(55.4071 20.0475 17.2814)" fill="white"/>
<path id="Rectangle 34627523" d="M15.1607 31.5363C15.4085 30.9229 16.1066 30.6266 16.72 30.8744L19.9342 32.173C20.5475 32.4208 20.8439 33.1189 20.5961 33.7323L18.1941 39.6773C17.5877 41.1782 15.8794 41.9034 14.3784 41.297C12.8775 40.6905 12.1523 38.9822 12.7587 37.4812L15.1607 31.5363Z" fill="#0279FE"/>
</g>
</g>
</g>
</g>
</svg>
