<svg width="27" height="22" viewBox="0 0 27 22" fill="none" xmlns="http://www.w3.org/2000/svg">
<g id="Group 1912055680">
<g id="Union">
<path fill-rule="evenodd" clip-rule="evenodd" d="M18.9033 1.02734C21.4661 1.02734 23.7146 2.37277 24.9811 4.39582C25.7835 5.55979 26.2542 6.97677 26.2542 8.50542C26.2542 10.3927 25.5367 12.1097 24.3635 13.3906C23.5953 14.4008 22.6272 15.4106 21.5868 16.3527L21.2592 16.645C20.8747 16.9832 20.4823 17.3115 20.0883 17.6266L19.7503 17.8934C19.6939 17.9372 19.6376 17.9809 19.5813 18.0242L19.2436 18.2803C18.9627 18.4907 18.6833 18.6931 18.4074 18.8864L18.0783 19.1139C18.0238 19.1511 17.9695 19.1879 17.9154 19.2242L17.5932 19.4377L17.2767 19.6413C17.2244 19.6744 17.1725 19.707 17.1208 19.7392L16.8144 19.9271C16.6127 20.0487 16.4162 20.1629 16.2261 20.2692L15.9459 20.4225L15.6761 20.5634C14.8833 20.967 14.2432 21.1966 13.861 21.1966C13.5213 21.1966 12.9778 21.0152 12.3044 20.6914L12.0459 20.5634L11.7762 20.4225C11.5927 20.3244 11.4023 20.218 11.2061 20.1039L10.9076 19.9271L10.6012 19.7392C10.5496 19.707 10.4976 19.6744 10.4454 19.6413L10.1289 19.4377C10.0224 19.3682 9.91491 19.297 9.80666 19.2242L9.47965 19.0013C9.20537 18.8117 8.92698 18.6127 8.64674 18.4056L8.30969 18.1532L7.97173 17.8934C7.85902 17.8056 7.7463 17.7166 7.63372 17.6266L7.29653 17.3534C7.01611 17.1231 6.73745 16.8866 6.46279 16.645L6.13527 16.3527C3.9566 14.3799 2.09503 12.1101 1.72149 10.1621C1.57689 9.59015 1.5 8.99058 1.5 8.37278C1.5 6.24728 2.41013 4.33766 3.85621 3.02393C5.14383 1.78739 6.89251 1.02734 8.81871 1.02734C10.785 1.02734 12.5664 1.81939 13.8611 3.10186C15.1556 1.81939 16.937 1.02734 18.9033 1.02734Z" fill="#E23D29"/>
<path d="M24.9811 4.39582L24.3454 4.79379L24.3542 4.80783L24.3636 4.82147L24.9811 4.39582ZM24.3635 13.3906L23.8105 12.884L23.7873 12.9093L23.7666 12.9366L24.3635 13.3906ZM21.5868 16.3527L22.0861 16.9123L22.0902 16.9087L21.5868 16.3527ZM21.2592 16.645L21.7546 17.2082L21.7586 17.2046L21.2592 16.645ZM20.0883 17.6266L20.5529 18.2154L20.5567 18.2124L20.0883 17.6266ZM19.7503 17.8934L20.2112 18.4851L20.2149 18.4821L19.7503 17.8934ZM19.5813 18.0242L20.0346 18.6216L20.0384 18.6188L19.5813 18.0242ZM19.2436 18.2803L19.6932 18.8807L19.697 18.8778L19.2436 18.2803ZM18.4074 18.8864L18.8339 19.5034L18.8378 19.5006L18.4074 18.8864ZM18.0783 19.1139L18.5008 19.7336L18.5048 19.7309L18.0783 19.1139ZM17.9154 19.2242L18.3296 19.8495L18.3338 19.8467L17.9154 19.2242ZM17.5932 19.4377L17.9989 20.0686L18.0074 20.0629L17.5932 19.4377ZM17.2767 19.6413L17.678 20.2749L17.6824 20.2721L17.2767 19.6413ZM17.1208 19.7392L17.5129 20.3786L17.5175 20.3757L17.1208 19.7392ZM16.8144 19.9271L17.2016 20.5694L17.2065 20.5665L16.8144 19.9271ZM16.2261 20.2692L16.5861 20.9272L16.592 20.9239L16.2261 20.2692ZM15.9459 20.4225L16.2931 21.0873L16.2995 21.084L16.3059 21.0805L15.9459 20.4225ZM15.6761 20.5634L16.0163 21.2318L16.0233 21.2282L15.6761 20.5634ZM12.3044 20.6914L11.9715 21.3635L11.9794 21.3673L12.3044 20.6914ZM12.0459 20.5634L11.6988 21.2282L11.7059 21.2319L11.7131 21.2355L12.0459 20.5634ZM11.7762 20.4225L11.4224 21.0839L11.429 21.0873L11.7762 20.4225ZM11.2061 20.1039L10.8239 20.7492L10.8291 20.7523L11.2061 20.1039ZM10.9076 19.9271L10.5155 20.5666L10.5254 20.5724L10.9076 19.9271ZM10.6012 19.7392L10.2045 20.3757L10.2092 20.3786L10.6012 19.7392ZM10.4454 19.6413L10.0396 20.2721L10.0441 20.2749L10.4454 19.6413ZM10.1289 19.4377L9.71881 20.0657L9.72313 20.0685L10.1289 19.4377ZM9.80666 19.2242L9.38417 19.8439L9.38826 19.8467L9.80666 19.2242ZM9.47965 19.0013L9.05316 19.6183L9.05717 19.621L9.47965 19.0013ZM8.64674 18.4056L8.19714 19.0059L8.20094 19.0087L8.64674 18.4056ZM8.30969 18.1532L7.85255 18.7478L7.86011 18.7535L8.30969 18.1532ZM7.97173 17.8934L7.51087 18.4851L7.51462 18.488L7.97173 17.8934ZM7.63372 17.6266L7.16155 18.2093L7.16534 18.2124L7.63372 17.6266ZM7.29653 17.3534L6.82057 17.933L6.82436 17.9361L7.29653 17.3534ZM6.46279 16.645L5.9634 17.2046L5.96743 17.2081L6.46279 16.645ZM6.13527 16.3527L5.63185 16.9087L5.6359 16.9123L6.13527 16.3527ZM1.72149 10.1621L2.45807 10.0209L2.45396 9.99948L2.44862 9.97833L1.72149 10.1621ZM3.85621 3.02393L4.36053 3.57905L4.36821 3.57207L4.3757 3.56488L3.85621 3.02393ZM13.8611 3.10186L13.3333 3.6347L13.8611 4.15755L14.3889 3.63467L13.8611 3.10186ZM25.6168 3.99785C24.219 1.76499 21.7352 0.277344 18.9033 0.277344V1.77734C21.197 1.77734 23.2103 2.98055 24.3454 4.79379L25.6168 3.99785ZM27.0042 8.50542C27.0042 6.82069 26.4849 5.25593 25.5987 3.97017L24.3636 4.82147C25.082 5.86364 25.5042 7.13286 25.5042 8.50542H27.0042ZM24.9166 13.8972C26.2124 12.4824 27.0042 10.586 27.0042 8.50542H25.5042C25.5042 10.1993 24.8609 11.7371 23.8105 12.884L24.9166 13.8972ZM22.0902 16.9087C23.1541 15.9452 24.1567 14.9015 24.9605 13.8446L23.7666 12.9366C23.0338 13.9 22.1002 14.876 21.0833 15.7968L22.0902 16.9087ZM21.7586 17.2046L22.0861 16.9123L21.0874 15.7931L20.7599 16.0854L21.7586 17.2046ZM20.5567 18.2124C20.9595 17.8903 21.3609 17.5545 21.7546 17.2081L20.7639 16.0819C20.3886 16.412 20.0052 16.7328 19.6199 17.0408L20.5567 18.2124ZM20.2149 18.4821L20.5529 18.2154L19.6237 17.0379L19.2857 17.3046L20.2149 18.4821ZM20.0384 18.6188C20.0959 18.5745 20.1535 18.5299 20.2111 18.4851L19.2894 17.3017C19.2343 17.3446 19.1792 17.3872 19.1242 17.4296L20.0384 18.6188ZM19.697 18.8778L20.0346 18.6216L19.1279 17.4267L18.7903 17.6829L19.697 18.8778ZM18.8378 19.5006C19.1202 19.3028 19.4061 19.0957 19.6932 18.8806L18.7941 17.68C18.5194 17.8857 18.2463 18.0835 17.977 18.2722L18.8378 19.5006ZM18.5048 19.7309L18.8339 19.5034L17.9809 18.2695L17.6518 18.497L18.5048 19.7309ZM18.3338 19.8467C18.3893 19.8094 18.4449 19.7717 18.5008 19.7336L17.6559 18.4942C17.6027 18.5305 17.5497 18.5663 17.497 18.6018L18.3338 19.8467ZM18.0074 20.0629L18.3296 19.8494L17.5011 18.599L17.1789 18.8125L18.0074 20.0629ZM17.6824 20.2721L17.9989 20.0685L17.1875 18.8069L16.8709 19.0105L17.6824 20.2721ZM17.5175 20.3757C17.5707 20.3426 17.6242 20.309 17.6779 20.2749L16.8754 19.0077C16.8246 19.0398 16.7742 19.0715 16.7241 19.1028L17.5175 20.3757ZM17.2065 20.5665L17.5128 20.3786L16.7288 19.0999L16.4224 19.2877L17.2065 20.5665ZM16.592 20.9239C16.7898 20.8133 16.9934 20.695 17.2016 20.5694L16.4272 19.2848C16.232 19.4025 16.0426 19.5125 15.8602 19.6145L16.592 20.9239ZM16.3059 21.0805L16.5861 20.9272L15.8661 19.6112L15.5859 19.7646L16.3059 21.0805ZM16.0233 21.2282L16.2931 21.0873L15.5987 19.7577L15.3289 19.8986L16.0233 21.2282ZM13.861 21.9466C14.1787 21.9466 14.529 21.8563 14.8632 21.7389C15.211 21.6167 15.6009 21.4432 16.0163 21.2318L15.3359 19.895C14.9584 20.0871 14.6319 20.2303 14.3659 20.3237C14.0863 20.422 13.9254 20.4466 13.861 20.4466V21.9466ZM11.9794 21.3673C12.3355 21.5385 12.6715 21.6791 12.9748 21.7783C13.2676 21.874 13.5756 21.9466 13.861 21.9466V20.4466C13.8067 20.4466 13.6731 20.4284 13.4409 20.3525C13.2192 20.28 12.9467 20.168 12.6294 20.0155L11.9794 21.3673ZM11.7131 21.2355L11.9716 21.3635L12.6373 20.0193L12.3788 19.8913L11.7131 21.2355ZM11.429 21.0873L11.6988 21.2282L12.3931 19.8986L12.1233 19.7577L11.429 21.0873ZM10.8291 20.7523C11.0324 20.8704 11.2305 20.9812 11.4224 21.0838L12.1299 19.7612C11.9549 19.6676 11.7723 19.5655 11.5831 19.4555L10.8291 20.7523ZM10.5254 20.5724L10.8239 20.7492L11.5883 19.4586L11.2898 19.2818L10.5254 20.5724ZM10.2092 20.3786L10.5155 20.5665L11.2996 19.2877L10.9933 19.0999L10.2092 20.3786ZM10.0441 20.2749C10.0978 20.309 10.1513 20.3426 10.2045 20.3757L10.9979 19.1028C10.9478 19.0715 10.8974 19.0398 10.8467 19.0077L10.0441 20.2749ZM9.72313 20.0685L10.0396 20.2721L10.8511 19.0105L10.5346 18.8069L9.72313 20.0685ZM9.38826 19.8467C9.49923 19.9213 9.60947 19.9943 9.71882 20.0657L10.5389 18.8097C10.4352 18.7421 10.3306 18.6727 10.2251 18.6018L9.38826 19.8467ZM9.05717 19.621L9.38418 19.8439L10.2291 18.6046L9.90212 18.3816L9.05717 19.621ZM8.20094 19.0087C8.48747 19.2205 8.7723 19.4241 9.05317 19.6182L9.90612 18.3844C9.63844 18.1993 9.36649 18.005 9.09254 17.8025L8.20094 19.0087ZM7.86011 18.7535L8.19715 19.0059L9.09632 17.8053L8.75928 17.5529L7.86011 18.7535ZM7.51462 18.488L7.85258 18.7478L8.7668 17.5586L8.42884 17.2988L7.51462 18.488ZM7.16534 18.2124C7.28044 18.3044 7.39567 18.3953 7.51088 18.4851L8.43259 17.3017C8.32238 17.2158 8.21217 17.1289 8.1021 17.0408L7.16534 18.2124ZM6.82436 17.9361L7.16156 18.2093L8.10588 17.0439L7.76869 16.7707L6.82436 17.9361ZM5.96743 17.2081C6.24869 17.4556 6.53384 17.6976 6.82058 17.933L7.77248 16.7738C7.49838 16.5487 7.2262 16.3177 6.95815 16.0819L5.96743 17.2081ZM5.6359 16.9123L5.96342 17.2046L6.96216 16.0854L6.63464 15.7931L5.6359 16.9123ZM0.984911 10.3034C1.202 11.4355 1.83397 12.596 2.64907 13.6949C3.4712 14.8033 4.5182 15.9003 5.63186 16.9087L6.63868 15.7968C5.57367 14.8324 4.60055 13.808 3.85384 12.8013C3.10011 11.7851 2.61452 10.8368 2.45807 10.0209L0.984911 10.3034ZM2.44862 9.97833C2.3191 9.46598 2.25 8.92814 2.25 8.37278H0.75C0.75 9.05302 0.834689 9.71432 0.994364 10.346L2.44862 9.97833ZM2.25 8.37278C2.25 6.46541 3.06586 4.75523 4.36053 3.57905L3.35189 2.46881C1.7544 3.9201 0.75 6.02915 0.75 8.37278H2.25ZM8.81871 0.277344C6.6912 0.277344 4.7584 1.11769 3.33671 2.48298L4.3757 3.56488C5.52926 2.45708 7.09381 1.77734 8.81871 1.77734V0.277344ZM14.3889 2.56901C12.9595 1.1531 10.9906 0.277344 8.81871 0.277344V1.77734C10.5795 1.77734 12.1733 2.48569 13.3333 3.6347L14.3889 2.56901ZM18.9033 0.277344C16.7314 0.277344 14.7625 1.1531 13.3333 2.56905L14.3889 3.63467C15.5487 2.48569 17.1426 1.77734 18.9033 1.77734V0.277344Z" fill="white"/>
</g>
<ellipse id="Ellipse 291" opacity="0.95" cx="7.28827" cy="6.4943" rx="1.99631" ry="1.54864" transform="rotate(-37.9982 7.28827 6.4943)" fill="white"/>
</g>
</svg>
