<svg width="41" height="36" viewBox="0 0 41 36" fill="none" xmlns="http://www.w3.org/2000/svg">
<g id="heart" filter="url(#filter0_d_1847_20716)">
<g id="Union">
<path fill-rule="evenodd" clip-rule="evenodd" d="M25.6299 7.0271C28.1927 7.0271 30.4412 8.37252 31.7077 10.3956C32.51 11.5595 32.9808 12.9765 32.9808 14.5052C32.9808 16.3924 32.2633 18.1095 31.0901 19.3904C30.3218 20.4005 29.3537 21.4104 28.3133 22.3525L27.9858 22.6448C27.6013 22.983 27.2089 23.3113 26.8149 23.6264L26.4769 23.8931C26.4205 23.937 26.3641 23.9806 26.3078 24.0239L25.9702 24.2801C25.6893 24.4905 25.4098 24.6929 25.134 24.8862L24.8049 25.1137C24.7504 25.1508 24.6961 25.1876 24.6419 25.224L24.3197 25.4375L24.0032 25.6411C23.951 25.6741 23.899 25.7068 23.8474 25.739L23.541 25.9269C23.3393 26.0485 23.1428 26.1627 22.9527 26.2689L22.6724 26.4223L22.4027 26.5632C21.6098 26.9667 20.9697 27.1963 20.5876 27.1963C20.2479 27.1963 19.7044 27.0149 19.031 26.6912L18.7725 26.5632L18.5027 26.4223C18.3193 26.3241 18.1289 26.2177 17.9327 26.1037L17.6342 25.9269L17.3278 25.739C17.2761 25.7068 17.2242 25.6741 17.1719 25.6411L16.8554 25.4375C16.7489 25.368 16.6415 25.2968 16.5332 25.224L16.2062 25.0011C15.9319 24.8115 15.6535 24.6125 15.3733 24.4053L15.0363 24.1529L14.6983 23.8931C14.5856 23.8053 14.4729 23.7164 14.3603 23.6264L14.0231 23.3531C13.7427 23.1229 13.464 22.8864 13.1894 22.6448L12.8618 22.3525C10.6832 20.3797 8.8216 18.1098 8.44805 16.1619C8.30346 15.5899 8.22656 14.9903 8.22656 14.3725C8.22656 12.247 9.13669 10.3374 10.5828 9.02369C11.8704 7.78714 13.6191 7.0271 15.5453 7.0271C17.5116 7.0271 19.293 7.81915 20.5877 9.10161C21.8822 7.81915 23.6635 7.0271 25.6299 7.0271Z" fill="#E23D29"/>
<path d="M31.7077 10.3956L31.072 10.7935L31.0808 10.8076L31.0902 10.8212L31.7077 10.3956ZM31.0901 19.3904L30.537 18.8838L30.5139 18.9091L30.4931 18.9363L31.0901 19.3904ZM28.3133 22.3525L28.8127 22.9121L28.8167 22.9084L28.3133 22.3525ZM27.9858 22.6448L28.4812 23.2079L28.4852 23.2043L27.9858 22.6448ZM26.8149 23.6264L27.2795 24.2151L27.2832 24.2121L26.8149 23.6264ZM26.4769 23.8931L26.9377 24.4848L26.9415 24.4819L26.4769 23.8931ZM26.3078 24.0239L26.7612 24.6214L26.7649 24.6185L26.3078 24.0239ZM25.9702 24.2801L26.4198 24.8804L26.4236 24.8776L25.9702 24.2801ZM25.134 24.8862L25.5605 25.5031L25.5644 25.5004L25.134 24.8862ZM24.8049 25.1137L25.2274 25.7334L25.2314 25.7306L24.8049 25.1137ZM24.6419 25.224L25.0562 25.8492L25.0603 25.8464L24.6419 25.224ZM24.3197 25.4375L24.7255 26.0683L24.734 26.0627L24.3197 25.4375ZM24.0032 25.6411L24.4045 26.2747L24.4089 26.2719L24.0032 25.6411ZM23.8474 25.739L24.2394 26.3784L24.2441 26.3755L23.8474 25.739ZM23.541 25.9269L23.9282 26.5692L23.933 26.5662L23.541 25.9269ZM22.9527 26.2689L23.3127 26.9269L23.3186 26.9236L22.9527 26.2689ZM22.6724 26.4223L23.0196 27.0871L23.0261 27.0837L23.0324 27.0802L22.6724 26.4223ZM22.4027 26.5632L22.7429 27.2316L22.7498 27.228L22.4027 26.5632ZM19.031 26.6912L18.6981 27.3633L18.706 27.3671L19.031 26.6912ZM18.7725 26.5632L18.4253 27.228L18.4324 27.2317L18.4397 27.2353L18.7725 26.5632ZM18.5027 26.4223L18.1489 27.0836L18.1555 27.0871L18.5027 26.4223ZM17.9327 26.1037L17.5505 26.749L17.5557 26.752L17.9327 26.1037ZM17.6342 25.9269L17.2421 26.5663L17.252 26.5722L17.6342 25.9269ZM17.3278 25.739L16.9311 26.3755L16.9357 26.3784L17.3278 25.739ZM17.1719 25.6411L16.7662 26.2719L16.7706 26.2747L17.1719 25.6411ZM16.8554 25.4375L16.4454 26.0655L16.4497 26.0683L16.8554 25.4375ZM16.5332 25.224L16.1107 25.8437L16.1148 25.8464L16.5332 25.224ZM16.2062 25.0011L15.7797 25.618L15.7837 25.6207L16.2062 25.0011ZM15.3733 24.4053L14.9237 25.0057L14.9275 25.0085L15.3733 24.4053ZM15.0363 24.1529L14.5791 24.7476L14.5867 24.7532L15.0363 24.1529ZM14.6983 23.8931L14.2374 24.4848L14.2412 24.4877L14.6983 23.8931ZM14.3603 23.6264L13.8881 24.2091L13.8919 24.2121L14.3603 23.6264ZM14.0231 23.3531L13.5471 23.9328L13.5509 23.9359L14.0231 23.3531ZM13.1894 22.6448L12.69 23.2044L12.694 23.2079L13.1894 22.6448ZM12.8618 22.3525L12.3584 22.9084L12.3625 22.9121L12.8618 22.3525ZM8.44805 16.1619L9.18463 16.0207L9.18052 15.9992L9.17518 15.9781L8.44805 16.1619ZM10.5828 9.02369L11.0871 9.57881L11.0948 9.57183L11.1023 9.56464L10.5828 9.02369ZM20.5877 9.10161L20.0599 9.63446L20.5877 10.1573L21.1155 9.63442L20.5877 9.10161ZM32.3434 9.9976C30.9456 7.76475 28.4617 6.2771 25.6299 6.2771V7.7771C27.9236 7.7771 29.9368 8.9803 31.072 10.7935L32.3434 9.9976ZM33.7308 14.5052C33.7308 12.8204 33.2115 11.2557 32.3252 9.96992L31.0902 10.8212C31.8086 11.8634 32.2308 13.1326 32.2308 14.5052H33.7308ZM31.6432 19.8969C32.939 18.4821 33.7308 16.5858 33.7308 14.5052H32.2308C32.2308 16.1991 31.5875 17.7369 30.537 18.8838L31.6432 19.8969ZM28.8167 22.9084C29.8807 21.945 30.8833 20.9013 31.6871 19.8444L30.4931 18.9363C29.7604 19.8998 28.8268 20.8758 27.8099 21.7965L28.8167 22.9084ZM28.4852 23.2043L28.8127 22.9121L27.8139 21.7929L27.4864 22.0852L28.4852 23.2043ZM27.2832 24.2121C27.686 23.8901 28.0874 23.5543 28.4812 23.2079L27.4904 22.0816C27.1151 22.4118 26.7318 22.7325 26.3465 23.0406L27.2832 24.2121ZM26.9415 24.4819L27.2795 24.2151L26.3502 23.0376L26.0122 23.3044L26.9415 24.4819ZM26.7649 24.6185C26.8225 24.5742 26.8801 24.5297 26.9377 24.4848L26.016 23.3014C25.9609 23.3443 25.9058 23.387 25.8507 23.4293L26.7649 24.6185ZM26.4236 24.8776L26.7612 24.6214L25.8545 23.4264L25.5169 23.6826L26.4236 24.8776ZM25.5644 25.5004C25.8467 25.3025 26.1326 25.0955 26.4198 24.8804L25.5206 23.6798C25.246 23.8854 24.9729 24.0832 24.7036 24.272L25.5644 25.5004ZM25.2314 25.7306L25.5605 25.5031L24.7075 24.2692L24.3784 24.4967L25.2314 25.7306ZM25.0603 25.8464C25.1158 25.8091 25.1715 25.7714 25.2274 25.7334L24.3824 24.494C24.3293 24.5302 24.2763 24.5661 24.2235 24.6016L25.0603 25.8464ZM24.734 26.0627L25.0562 25.8492L24.2277 24.5988L23.9055 24.8123L24.734 26.0627ZM24.4089 26.2719L24.7255 26.0683L23.914 24.8067L23.5975 25.0103L24.4089 26.2719ZM24.2441 26.3755C24.2973 26.3423 24.3508 26.3087 24.4045 26.2747L23.6019 25.0075C23.5512 25.0396 23.5008 25.0713 23.4506 25.1025L24.2441 26.3755ZM23.933 26.5662L24.2394 26.3784L23.4553 25.0996L23.149 25.2875L23.933 26.5662ZM23.3186 26.9236C23.5163 26.8131 23.72 26.6947 23.9282 26.5692L23.1538 25.2845C22.9586 25.4022 22.7692 25.5123 22.5868 25.6143L23.3186 26.9236ZM23.0324 27.0802L23.3127 26.9269L22.5927 25.611L22.3125 25.7643L23.0324 27.0802ZM22.7498 27.228L23.0196 27.0871L22.3253 25.7575L22.0555 25.8984L22.7498 27.228ZM20.5876 27.9463C20.9053 27.9463 21.2556 27.8561 21.5898 27.7387C21.9376 27.6164 22.3275 27.443 22.7429 27.2315L22.0624 25.8948C21.685 26.0869 21.3584 26.23 21.0925 26.3235C20.8128 26.4218 20.652 26.4463 20.5876 26.4463V27.9463ZM18.706 27.3671C19.0621 27.5383 19.3981 27.6789 19.7014 27.778C19.9942 27.8738 20.3022 27.9463 20.5876 27.9463V26.4463C20.5333 26.4463 20.3997 26.4282 20.1675 26.3523C19.9457 26.2798 19.6733 26.1678 19.3559 26.0152L18.706 27.3671ZM18.4397 27.2353L18.6981 27.3633L19.3638 26.0191L19.1053 25.8911L18.4397 27.2353ZM18.1555 27.0871L18.4253 27.228L19.1197 25.8984L18.8499 25.7575L18.1555 27.0871ZM17.5557 26.752C17.7589 26.8702 17.9571 26.981 18.149 27.0836L18.8565 25.7609C18.6815 25.6673 18.4989 25.5653 18.3097 25.4553L17.5557 26.752ZM17.252 26.5722L17.5505 26.749L18.3149 25.4583L18.0163 25.2815L17.252 26.5722ZM16.9357 26.3784L17.2421 26.5662L18.0262 25.2875L17.7198 25.0996L16.9357 26.3784ZM16.7706 26.2747C16.8244 26.3087 16.8778 26.3423 16.9311 26.3755L17.7245 25.1025C17.6744 25.0713 17.624 25.0396 17.5732 25.0075L16.7706 26.2747ZM16.4497 26.0683L16.7662 26.2719L17.5776 25.0103L17.2611 24.8067L16.4497 26.0683ZM16.1148 25.8464C16.2258 25.921 16.336 25.9941 16.4454 26.0655L17.2654 24.8095C17.1618 24.7418 17.0571 24.6725 16.9516 24.6015L16.1148 25.8464ZM15.7837 25.6207L16.1107 25.8437L16.9557 24.6043L16.6287 24.3814L15.7837 25.6207ZM14.9275 25.0085C15.214 25.2203 15.4989 25.4238 15.7797 25.618L16.6327 24.3841C16.365 24.1991 16.0931 24.0047 15.8191 23.8022L14.9275 25.0085ZM14.5867 24.7532L14.9237 25.0057L15.8229 23.805L15.4858 23.5526L14.5867 24.7532ZM14.2412 24.4877L14.5791 24.7475L15.4934 23.5583L15.1554 23.2985L14.2412 24.4877ZM13.8919 24.2121C14.007 24.3042 14.1222 24.3951 14.2374 24.4848L15.1592 23.3014C15.0489 23.2156 14.9387 23.1286 14.8287 23.0406L13.8919 24.2121ZM13.5509 23.9359L13.8881 24.2091L14.8324 23.0436L14.4953 22.7704L13.5509 23.9359ZM12.694 23.2079C12.9753 23.4553 13.2604 23.6973 13.5471 23.9328L14.499 22.7735C14.2249 22.5484 13.9528 22.3174 13.6847 22.0816L12.694 23.2079ZM12.3625 22.9121L12.69 23.2043L13.6887 22.0852L13.3612 21.7929L12.3625 22.9121ZM7.71147 16.3031C7.92857 17.4352 8.56054 18.5958 9.37564 19.6947C10.1978 20.8031 11.2448 21.9 12.3584 22.9084L13.3652 21.7965C12.3002 20.8322 11.3271 19.8078 10.5804 18.8011C9.82667 17.7849 9.34108 16.8365 9.18463 16.0207L7.71147 16.3031ZM9.17518 15.9781C9.04566 15.4657 8.97656 14.9279 8.97656 14.3725H7.47656C7.47656 15.0528 7.56125 15.7141 7.72093 16.3457L9.17518 15.9781ZM8.97656 14.3725C8.97656 12.4652 9.79243 10.755 11.0871 9.57881L10.0784 8.46856C8.48096 9.91985 7.47656 12.0289 7.47656 14.3725H8.97656ZM15.5453 6.2771C13.4178 6.2771 11.485 7.11744 10.0633 8.48274L11.1023 9.56464C12.2558 8.45684 13.8204 7.7771 15.5453 7.7771V6.2771ZM21.1155 8.56877C19.686 7.15286 17.7172 6.2771 15.5453 6.2771V7.7771C17.306 7.7771 18.8999 8.48544 20.0599 9.63446L21.1155 8.56877ZM25.6299 6.2771C23.458 6.2771 21.4891 7.15285 20.0598 8.5688L21.1155 9.63442C22.2753 8.48545 23.8691 7.7771 25.6299 7.7771V6.2771Z" fill="white"/>
</g>
<ellipse id="Ellipse 291" opacity="0.95" cx="14.0148" cy="12.4941" rx="1.99631" ry="1.54864" transform="rotate(-37.9982 14.0148 12.4941)" fill="white"/>
</g>
<defs>
<filter id="filter0_d_1847_20716" x="-0.940104" y="-5.25" width="43.3333" height="43.3333" filterUnits="userSpaceOnUse" color-interpolation-filters="sRGB">
<feFlood flood-opacity="0" result="BackgroundImageFix"/>
<feColorMatrix in="SourceAlpha" type="matrix" values="0 0 0 0 0 0 0 0 0 0 0 0 0 0 0 0 0 0 127 0" result="hardAlpha"/>
<feOffset dy="0.416667"/>
<feGaussianBlur stdDeviation="3.33333"/>
<feColorMatrix type="matrix" values="0 0 0 0 0 0 0 0 0 0 0 0 0 0 0 0 0 0 0.25 0"/>
<feBlend mode="normal" in2="BackgroundImageFix" result="effect1_dropShadow_1847_20716"/>
<feBlend mode="normal" in="SourceGraphic" in2="effect1_dropShadow_1847_20716" result="shape"/>
</filter>
</defs>
</svg>
