<svg width="23" height="26" viewBox="0 0 23 26" fill="none" xmlns="http://www.w3.org/2000/svg">
<g id="Group 1171275086">
<path id="Vector 112" d="M15.6773 6.67162C15.4653 5.89431 15.2073 5.17669 14.9126 4.54077C14.3014 3.22178 13.4627 2.10681 12.4136 1.68453C11.8578 1.46079 11.258 1.44018 10.6701 1.6763C10.1008 1.90492 9.6028 2.34927 9.17004 2.948C8.54699 3.81001 7.99302 5.08397 7.527 6.81309C7.16365 6.24445 6.70038 5.70944 6.12375 5.42084C5.47636 5.09683 4.75302 5.12033 4.07968 5.578C3.46626 5.99493 2.93367 6.74298 2.45105 7.7795C1.47665 9.87218 1.00063 12.3981 0.828489 14.5643C0.741995 15.6527 0.730915 16.6667 0.776048 17.5109C0.820073 18.3343 0.92037 19.0581 1.08707 19.5312C1.43209 20.5102 2.07517 21.8986 3.64879 23.0256C5.21378 24.1465 7.61003 24.946 11.341 24.946C15.4127 24.946 18.0521 23.9133 19.7102 22.5215C21.3645 21.1327 21.9724 19.4434 22.08 18.264C22.2973 15.8819 22.6207 11.9861 20.7896 8.45663C20.3463 7.6021 19.8762 6.85916 19.3856 6.31668C18.9159 5.79746 18.3102 5.33236 17.5884 5.31668C16.8035 5.29962 16.2103 5.80796 15.7892 6.48215C15.7513 6.54282 15.714 6.60598 15.6773 6.67162Z" fill="#FF7300" stroke="white" stroke-width="1.5" stroke-linejoin="round"/>
<path id="Ellipse 5508" d="M15.3486 16.6285C15.3486 18.7076 13.6262 19.6096 11.5014 19.6096C9.37672 19.6096 7.6543 18.7076 7.6543 16.6285C7.6543 14.0602 10.1558 10.1465 11.5014 10.1465C12.8471 10.1465 15.3486 14.0296 15.3486 16.6285Z" fill="#FFD60C"/>
</g>
</svg>
