<svg width="41" height="40" viewBox="0 0 41 40" fill="none" xmlns="http://www.w3.org/2000/svg">
<g id="Group 1912055923">
<g id="Group 1912055715">
<g id="Vector 1860">
<path d="M16.8299 9.423C15.0661 9.89544 13.1818 10.8413 11.6623 11.9222C10.9004 12.4642 10.2136 13.0519 9.67252 13.6478C9.14034 14.2338 8.70613 14.8746 8.51872 15.5261C7.87748 17.7553 8.53061 20.4517 9.44708 22.7955C10.3161 25.0179 11.2111 26.3977 12.1071 27.2429C12.9557 28.0434 13.7765 28.337 14.4911 28.4346V29.7721C14.4911 30.7504 15.2932 31.5389 16.2715 31.5219L24.1062 31.3859C25.0607 31.3693 25.8258 30.5908 25.8258 29.6362V28.7848C26.4498 28.7803 27.1969 28.6645 27.9 28.3218C28.1313 28.2091 28.37 27.9972 28.5726 27.7967C28.7963 27.5753 29.0506 27.291 29.3185 26.9612C29.8549 26.301 30.4688 25.43 31.0274 24.4547C31.585 23.481 32.0982 22.3844 32.4191 21.2751C32.7382 20.1717 32.8817 19.0052 32.6418 17.9188C32.3576 16.6317 31.2576 14.4155 29.8399 12.4927C29.1232 11.5206 28.3005 10.589 27.4225 9.86839C26.5536 9.15531 25.5702 8.59928 24.5369 8.48118C23.0049 8.30609 21.9116 8.3104 20.761 8.48381C19.7609 8.63453 18.7254 8.91316 17.3517 9.28281C17.183 9.32819 17.0093 9.37494 16.8299 9.423Z" fill="#CBBCC9" fill-opacity="0.98"/>
<path d="M16.8299 9.423C15.0661 9.89544 13.1818 10.8413 11.6623 11.9222C10.9004 12.4642 10.2136 13.0519 9.67252 13.6478C9.14034 14.2338 8.70613 14.8746 8.51872 15.5261C7.87748 17.7553 8.53061 20.4517 9.44708 22.7955C10.3161 25.0179 11.2111 26.3977 12.1071 27.2429C12.9557 28.0434 13.7765 28.337 14.4911 28.4346V29.7721C14.4911 30.7504 15.2932 31.5389 16.2715 31.5219L24.1062 31.3859C25.0607 31.3693 25.8258 30.5908 25.8258 29.6362V28.7848C26.4498 28.7803 27.1969 28.6645 27.9 28.3218C28.1313 28.2091 28.37 27.9972 28.5726 27.7967C28.7963 27.5753 29.0506 27.291 29.3185 26.9612C29.8549 26.301 30.4688 25.43 31.0274 24.4547C31.585 23.481 32.0982 22.3844 32.4191 21.2751C32.7382 20.1717 32.8817 19.0052 32.6418 17.9188C32.3576 16.6317 31.2576 14.4155 29.8399 12.4927C29.1232 11.5206 28.3005 10.589 27.4225 9.86839C26.5536 9.15531 25.5702 8.59928 24.5369 8.48118C23.0049 8.30609 21.9116 8.3104 20.761 8.48381C19.7609 8.63453 18.7254 8.91316 17.3517 9.28281C17.183 9.32819 17.0093 9.37494 16.8299 9.423Z" fill="#412328" fill-opacity="0.05"/>
<path d="M16.8299 9.423C15.0661 9.89544 13.1818 10.8413 11.6623 11.9222C10.9004 12.4642 10.2136 13.0519 9.67252 13.6478C9.14034 14.2338 8.70613 14.8746 8.51872 15.5261C7.87748 17.7553 8.53061 20.4517 9.44708 22.7955C10.3161 25.0179 11.2111 26.3977 12.1071 27.2429C12.9557 28.0434 13.7765 28.337 14.4911 28.4346V29.7721C14.4911 30.7504 15.2932 31.5389 16.2715 31.5219L24.1062 31.3859C25.0607 31.3693 25.8258 30.5908 25.8258 29.6362V28.7848C26.4498 28.7803 27.1969 28.6645 27.9 28.3218C28.1313 28.2091 28.37 27.9972 28.5726 27.7967C28.7963 27.5753 29.0506 27.291 29.3185 26.9612C29.8549 26.301 30.4688 25.43 31.0274 24.4547C31.585 23.481 32.0982 22.3844 32.4191 21.2751C32.7382 20.1717 32.8817 19.0052 32.6418 17.9188C32.3576 16.6317 31.2576 14.4155 29.8399 12.4927C29.1232 11.5206 28.3005 10.589 27.4225 9.86839C26.5536 9.15531 25.5702 8.59928 24.5369 8.48118C23.0049 8.30609 21.9116 8.3104 20.761 8.48381C19.7609 8.63453 18.7254 8.91316 17.3517 9.28281C17.183 9.32819 17.0093 9.37494 16.8299 9.423Z" stroke="white" stroke-width="1.5"/>
</g>
<g id="Mask group">
<mask id="mask0_2693_44074" style="mask-type:alpha" maskUnits="userSpaceOnUse" x="9" y="9" width="24" height="22">
<g id="Vector 1867">
<path d="M16.0625 10.1474C12.7348 11.0387 9.80814 13.7564 9.23949 15.7333C8.67084 17.7102 9.2394 20.2048 10.1456 22.5223C11.8405 26.8571 13.5217 27.5921 14.7418 27.7086C15.0167 27.7349 15.2411 27.9532 15.2411 28.2293V30.2807C15.2411 30.5603 15.4703 30.7856 15.7498 30.7807L24.5845 30.6274C24.8572 30.6227 25.0758 30.4002 25.0758 30.1275V28.4542C25.0758 28.2044 25.3027 28.0154 25.552 28.0287C26.1396 28.06 26.8907 27.9793 27.5714 27.6475C28.4554 27.2167 32.7218 21.759 31.9094 18.0804C31.4042 15.7925 27.772 9.60568 24.4517 9.22624C22.6766 9.02338 19.3902 9.25601 16.0625 10.1474Z" fill="#F5F6F5"/>
<path d="M16.0625 10.1474C12.7348 11.0387 9.80814 13.7564 9.23949 15.7333C8.67084 17.7102 9.2394 20.2048 10.1456 22.5223C11.8405 26.8571 13.5217 27.5921 14.7418 27.7086C15.0167 27.7349 15.2411 27.9532 15.2411 28.2293V30.2807C15.2411 30.5603 15.4703 30.7856 15.7498 30.7807L24.5845 30.6274C24.8572 30.6227 25.0758 30.4002 25.0758 30.1275V28.4542C25.0758 28.2044 25.3027 28.0154 25.552 28.0287C26.1396 28.06 26.8907 27.9793 27.5714 27.6475C28.4554 27.2167 32.7218 21.759 31.9094 18.0804C31.4042 15.7925 27.772 9.60568 24.4517 9.22624C22.6766 9.02338 19.3902 9.25601 16.0625 10.1474Z" fill="#412328" fill-opacity="0.05"/>
</g>
</mask>
<g mask="url(#mask0_2693_44074)">
<path id="Vector 1861" d="M13.0674 24.8934C11.4184 24.1506 10.1853 21.64 8.10551 17.8666L5.16406 22.249L15.2363 30.2415C15.2066 28.8351 15.3135 26.1056 15.1472 25.6065C14.9392 24.9825 14.227 25.4157 13.0674 24.8934Z" fill="#A78AA3"/>
<path id="Vector 1868" d="M16.8242 33.0028H24.2C23.0979 31.6499 21.7548 30.4774 20.8948 28.8742C20.7792 28.6587 20.5586 28.5164 20.3141 28.5164C20.1088 28.5164 19.9164 28.6162 19.7981 28.7839L16.8242 33.0028Z" fill="#A78AA3"/>
<path id="Vector 1862" d="M27.1506 24.8042C29.2452 23.8683 30.4337 21.9073 32.6621 18.3419L35.1133 22.5461L25.041 30.5385C25.2565 28.325 24.7484 26.5067 24.9148 26.0075C25.0953 25.466 25.9893 25.323 27.1506 24.8042Z" fill="#A78AA3"/>
</g>
</g>
<path id="Vector 1864" d="M22.8727 18.1343C22.9027 17.0944 23.1778 15.6862 23.5932 14.4799C23.8184 13.8261 24.8273 13.3292 26.0249 14.0935C27.1656 14.8215 28.0362 16.4407 28.6966 18.1343C29.0921 19.1482 28.8843 20.0731 28.6141 20.6376C28.3439 21.2021 27.9987 21.5958 27.5484 22.19C26.9261 23.0113 25.9348 23.2447 25.4245 23.1555C24.9141 23.0664 24.3437 23.0367 23.7733 22.8881C23.203 22.7396 22.8727 22.5614 22.8727 21.8482C22.8727 21.4026 22.8427 19.1742 22.8727 18.1343Z" fill="#412328"/>
<path id="Vector 1863" d="M17.0408 16.3812C16.4689 14.5838 15.1958 15.2022 14.3296 15.6086C13.1264 16.1732 12.6881 16.9308 12.183 17.5325C11.6155 18.2084 11.4211 19.6135 11.6779 20.3625C11.8561 20.8824 12.1012 21.3801 12.2721 21.9966C12.4098 22.4936 12.792 22.8954 13.5051 23.0588C14.2181 23.2222 14.7455 23.3188 16.4539 23.3039C18.1624 23.2891 18.4156 21.508 18.2144 20.6745C18.1104 20.2436 17.3787 17.443 17.0408 16.3812Z" fill="#412328"/>
<path id="Vector 1865" d="M19.6776 24.9948C19.834 24.3147 19.4431 24.1192 19.0991 23.9082C18.7315 23.6828 18.3173 24.3536 18.0202 24.7524C17.6633 25.2315 17.2071 25.8548 18.0827 26.6366C18.3428 26.8688 19.0412 26.7056 19.3258 26.1128C19.5188 25.7108 19.6281 25.2103 19.6776 24.9948Z" fill="#412328"/>
<path id="Vector 1866" d="M20.8345 24.3199C20.78 23.6309 21.1951 23.4092 21.5589 23.3394C21.9899 23.2567 22.4252 24.2144 22.6583 24.6481C22.9385 25.1692 23.2776 25.9253 22.1859 26.4983C21.7444 26.7301 21.2463 26.2772 21.0534 25.6552C20.9227 25.2333 20.8518 24.5381 20.8345 24.3199Z" fill="#412328"/>
</g>
</g>
</svg>
