<svg width="41" height="40" viewBox="0 0 41 40" fill="none" xmlns="http://www.w3.org/2000/svg">
<g id="Group 1912055926">
<g id="Group 1912055720">
<g id="Union">
<mask id="path-1-outside-1_2693_44078" maskUnits="userSpaceOnUse" x="7.51172" y="8" width="26" height="25" fill="black">
<rect fill="white" x="7.51172" y="8" width="26" height="25"/>
<path fill-rule="evenodd" clip-rule="evenodd" d="M18.9176 11.2246C17.0767 12.1645 15.1841 14.3485 15.1195 17.0764C13.0412 17.3149 11.4272 19.0802 11.4272 21.2224C11.4272 21.6958 11.506 22.1508 11.6512 22.575C10.3721 23.3157 9.51172 24.6991 9.51172 26.2835C9.51172 28.6487 11.429 30.566 13.7942 30.566H27.5292C29.8944 30.566 31.8117 28.6487 31.8117 26.2835C31.8117 24.6991 30.9513 23.3157 29.6722 22.575C29.8175 22.1508 29.8963 21.6958 29.8963 21.2224C29.8963 19.047 28.2319 17.2604 26.1071 17.0664C26.0042 16.0816 25.6349 15.2245 24.7729 14.3237C24.6394 14.1842 24.4349 14.0197 24.2084 13.8375C23.5627 13.318 22.7385 12.6549 22.873 12.019C22.925 11.7736 23.0581 11.5349 23.2376 11.3101C23.6377 10.8094 23.3588 9.89798 22.7276 10.0093C21.5661 10.2143 20.1836 10.5782 18.9176 11.2246Z"/>
</mask>
<path fill-rule="evenodd" clip-rule="evenodd" d="M18.9176 11.2246C17.0767 12.1645 15.1841 14.3485 15.1195 17.0764C13.0412 17.3149 11.4272 19.0802 11.4272 21.2224C11.4272 21.6958 11.506 22.1508 11.6512 22.575C10.3721 23.3157 9.51172 24.6991 9.51172 26.2835C9.51172 28.6487 11.429 30.566 13.7942 30.566H27.5292C29.8944 30.566 31.8117 28.6487 31.8117 26.2835C31.8117 24.6991 30.9513 23.3157 29.6722 22.575C29.8175 22.1508 29.8963 21.6958 29.8963 21.2224C29.8963 19.047 28.2319 17.2604 26.1071 17.0664C26.0042 16.0816 25.6349 15.2245 24.7729 14.3237C24.6394 14.1842 24.4349 14.0197 24.2084 13.8375C23.5627 13.318 22.7385 12.6549 22.873 12.019C22.925 11.7736 23.0581 11.5349 23.2376 11.3101C23.6377 10.8094 23.3588 9.89798 22.7276 10.0093C21.5661 10.2143 20.1836 10.5782 18.9176 11.2246Z" fill="#C1694F"/>
<path d="M15.1195 17.0764L15.2906 18.5666L16.5882 18.4177L16.6191 17.1119L15.1195 17.0764ZM18.9176 11.2246L18.2355 9.88866L18.2355 9.88866L18.9176 11.2246ZM11.6512 22.575L12.4029 23.873L13.4696 23.2553L13.0703 22.0891L11.6512 22.575ZM29.6722 22.575L28.2531 22.0891L27.8538 23.2553L28.9205 23.873L29.6722 22.575ZM26.1071 17.0664L24.6152 17.2222L24.7432 18.4482L25.9707 18.5602L26.1071 17.0664ZM24.7729 14.3237L25.8566 13.2866L25.8566 13.2866L24.7729 14.3237ZM24.2084 13.8375L25.1487 12.6688L25.1487 12.6688L24.2084 13.8375ZM22.873 12.019L24.3405 12.3296L24.3405 12.3295L22.873 12.019ZM23.2376 11.3101L22.0657 10.3739L22.0657 10.3739L23.2376 11.3101ZM22.7276 10.0093L22.467 8.53215V8.53215L22.7276 10.0093ZM16.6191 17.1119C16.6678 15.0567 18.1302 13.3108 19.5997 12.5606L18.2355 9.88866C16.0233 11.0182 13.7005 13.6402 13.6199 17.0409L16.6191 17.1119ZM12.9272 21.2224C12.9272 19.8512 13.9608 18.7192 15.2906 18.5666L14.9485 15.5862C12.1216 15.9106 9.92715 18.3092 9.92715 21.2224H12.9272ZM13.0703 22.0891C12.9779 21.8192 12.9272 21.5283 12.9272 21.2224H9.92715C9.92715 21.8633 10.034 22.4824 10.2321 23.0609L13.0703 22.0891ZM11.0117 26.2835C11.0117 25.256 11.5679 24.3566 12.4029 23.873L10.8995 21.2769C9.17633 22.2748 8.01172 24.1423 8.01172 26.2835H11.0117ZM13.7942 29.066C12.2575 29.066 11.0117 27.8202 11.0117 26.2835H8.01172C8.01172 29.4771 10.6006 32.066 13.7942 32.066V29.066ZM27.5292 29.066H13.7942V32.066H27.5292V29.066ZM30.3117 26.2835C30.3117 27.8202 29.066 29.066 27.5292 29.066V32.066C30.7228 32.066 33.3117 29.4771 33.3117 26.2835H30.3117ZM28.9205 23.873C29.7555 24.3566 30.3117 25.256 30.3117 26.2835H33.3117C33.3117 24.1423 32.1471 22.2748 30.4239 21.2769L28.9205 23.873ZM28.3963 21.2224C28.3963 21.5283 28.3455 21.8192 28.2531 22.0891L31.0914 23.0609C31.2894 22.4824 31.3963 21.8633 31.3963 21.2224H28.3963ZM25.9707 18.5602C27.3303 18.6843 28.3963 19.8297 28.3963 21.2224H31.3963C31.3963 18.2643 29.1335 15.8364 26.2434 15.5726L25.9707 18.5602ZM23.6892 15.3608C24.3333 16.0339 24.5487 16.5855 24.6152 17.2222L27.5989 16.9106C27.4597 15.5778 26.9364 14.415 25.8566 13.2866L23.6892 15.3608ZM23.2681 15.0062C23.5259 15.2136 23.639 15.3084 23.6892 15.3608L25.8566 13.2866C25.6397 13.06 25.3438 12.8258 25.1487 12.6688L23.2681 15.0062ZM21.4055 11.7085C21.1817 12.766 21.7918 13.5835 22.1166 13.9566C22.4906 14.3864 22.9703 14.7666 23.2681 15.0062L25.1487 12.6688C24.9835 12.5359 24.8349 12.4161 24.6959 12.2945C24.5566 12.1727 24.4527 12.0711 24.3796 11.9872C24.302 11.898 24.2977 11.8721 24.3129 11.9076C24.3334 11.9554 24.3862 12.1137 24.3405 12.3296L21.4055 11.7085ZM22.0657 10.3739C21.7994 10.7072 21.5223 11.1567 21.4055 11.7085L24.3405 12.3295C24.3333 12.3639 24.3258 12.3727 24.3354 12.3543C24.3453 12.3356 24.3673 12.2993 24.4096 12.2464L22.0657 10.3739ZM22.9882 11.4865C22.7492 11.5287 22.477 11.4722 22.258 11.3158C22.0668 11.1792 21.987 11.0197 21.9565 10.9341C21.9084 10.7993 21.8929 10.5902 22.0657 10.3739L24.4096 12.2464C24.9825 11.5293 25.0275 10.6141 24.7822 9.92633C24.653 9.5642 24.4102 9.16638 24.0017 8.87457C23.5654 8.56297 23.0216 8.43431 22.467 8.53215L22.9882 11.4865ZM19.5997 12.5606C20.6871 12.0053 21.9122 11.6764 22.9882 11.4865L22.467 8.53215C21.22 8.75216 19.6801 9.1511 18.2355 9.88866L19.5997 12.5606Z" fill="white" mask="url(#path-1-outside-1_2693_44078)"/>
</g>
<g id="Rectangle 34627519">
<rect x="11.4258" y="17.049" width="18.4691" height="8.34693" rx="4.17346" fill="#E23D29" fill-opacity="0.7"/>
<rect x="11.4258" y="17.049" width="18.4691" height="8.34693" rx="4.17346" fill="#F1F1F1" fill-opacity="0.25"/>
</g>
<g id="Group 1171275089">
<path id="Ellipse 919 (Stroke)" fill-rule="evenodd" clip-rule="evenodd" d="M24.5759 26.293C25.2469 26.0667 25.9668 26.0493 26.6414 26.2393C26.7584 26.2722 26.8838 26.2127 26.9241 26.098L27.3006 25.0265C27.3409 24.9118 27.2807 24.7858 27.1644 24.7505C26.1565 24.445 25.0754 24.4615 24.0722 24.7999C23.069 25.1383 22.1969 25.7805 21.5756 26.6344C21.5041 26.7326 21.532 26.8695 21.6333 26.9367L22.5795 27.5648C22.6807 27.632 22.8167 27.604 22.8901 27.5071C23.317 26.9435 23.9042 26.5195 24.5759 26.293Z" fill="#412328" stroke="#412328" stroke-width="0.5"/>
<rect id="Rectangle 3467976" x="16.0703" y="18.0387" width="2.15276" height="5.02311" rx="1.07638" fill="#412328"/>
<rect id="Rectangle 3467977" x="19.75" y="18.0387" width="2.15276" height="5.02311" rx="1.07638" fill="#412328"/>
</g>
</g>
</g>
</svg>
