<svg width="41" height="40" viewBox="0 0 41 40" fill="none" xmlns="http://www.w3.org/2000/svg">
<g id="Group 1912055925">
<g id="Group 1912055922">
<g id="Union">
<path fill-rule="evenodd" clip-rule="evenodd" d="M11.177 18.012V16.5998C10.9567 16.5537 10.7912 16.3583 10.7912 16.1242V15.2097C10.7912 14.999 10.9252 14.8197 11.1127 14.7523V14.7131C11.1127 10.925 14.1836 7.8541 17.9717 7.8541H18.64C18.7905 7.35972 19.2501 7 19.7937 7C20.3372 7 20.7968 7.35972 20.9473 7.8541H21.6155C25.4037 7.8541 28.4745 10.925 28.4745 14.7131V14.7239H31.7111C32.232 14.7239 32.6542 15.1461 32.6542 15.667C32.6542 16.1878 32.232 16.6101 31.7111 16.6101H28.2846V18.0488C29.5704 18.2713 30.5483 19.3923 30.5483 20.7416C30.5483 21.1673 30.451 21.5702 30.2774 21.9294C32.1435 21.9702 32.2905 23.4948 31.7201 24.0594C30.9602 24.8116 29.7217 24.9292 28.889 24.6554C28.7039 24.5945 28.4962 24.4756 28.2846 24.3244V25.6874C28.2846 26.9301 27.2773 27.9374 26.0346 27.9374L25.6239 30.494C25.4681 31.4637 24.6314 32.1767 23.6492 32.1767H16.2173C15.2745 32.1767 14.4597 31.5184 14.2618 30.5966L13.6909 27.9374C12.4784 27.9374 11.4664 27.079 11.2294 25.9367C10.9632 26.1124 10.6197 26.1988 10.258 26.1551C9.51612 26.0655 8.97872 25.4629 9.05767 24.8091C9.13663 24.1554 9.80204 23.6981 10.5439 23.7877C10.7801 23.8162 10.9956 23.8968 11.177 24.0144V23.4713C9.72993 23.4014 8.57812 22.206 8.57812 20.7416C8.57812 19.2772 9.72993 18.0818 11.177 18.012ZM32.5113 26.8116C33.2532 26.9012 33.9186 26.4439 33.9975 25.7902C34.0765 25.1364 33.5391 24.5339 32.7972 24.4443C32.0553 24.3547 31.3899 24.812 31.311 25.4657C31.232 26.1194 31.7694 26.722 32.5113 26.8116Z" fill="#0279FE"/>
<path d="M11.177 16.5998H12.677V15.3811L11.4842 15.1316L11.177 16.5998ZM11.177 18.012L11.2494 19.5102L12.677 19.4413V18.012H11.177ZM11.1127 14.7523L11.62 16.164L12.6127 15.8072V14.7523H11.1127ZM18.64 7.8541V9.3541H19.7514L20.075 8.29088L18.64 7.8541ZM20.9473 7.8541L19.5123 8.29088L19.8359 9.3541H20.9473V7.8541ZM28.4745 14.7239H26.9745V16.2239H28.4745V14.7239ZM28.2846 16.6101V15.1101H26.7846V16.6101H28.2846ZM28.2846 18.0488H26.7846V19.3116L28.0289 19.5269L28.2846 18.0488ZM30.2774 21.9294L28.9269 21.2766L27.9112 23.378L30.2446 23.4291L30.2774 21.9294ZM31.7201 24.0594L32.7754 25.1254L32.7754 25.1254L31.7201 24.0594ZM28.889 24.6554L28.4204 26.0803L28.4204 26.0803L28.889 24.6554ZM28.2846 24.3244L29.1568 23.104L26.7846 21.4087V24.3244H28.2846ZM26.0346 27.9374V26.4374H24.7564L24.5536 27.6995L26.0346 27.9374ZM25.6239 30.494L27.1049 30.7319V30.7319L25.6239 30.494ZM14.2618 30.5966L15.7284 30.2817L14.2618 30.5966ZM13.6909 27.9374L15.1575 27.6226L14.903 26.4374H13.6909V27.9374ZM11.2294 25.9367L12.6982 25.6321L12.2491 23.4667L10.4033 24.6848L11.2294 25.9367ZM10.258 26.1551L10.0781 27.6442H10.0781L10.258 26.1551ZM9.05767 24.8091L7.56849 24.6293L7.56849 24.6293L9.05767 24.8091ZM10.5439 23.7877L10.7238 22.2985L10.5439 23.7877ZM11.177 24.0144L10.3611 25.2731L12.677 26.7743V24.0144H11.177ZM11.177 23.4713H12.677V22.0419L11.2494 21.973L11.177 23.4713ZM33.9975 25.7902L32.5083 25.6103V25.6103L33.9975 25.7902ZM31.311 25.4657L32.8001 25.6456V25.6456L31.311 25.4657ZM9.67703 16.5998V18.012H12.677V16.5998H9.67703ZM9.29118 16.1242C9.29118 17.0827 9.96866 17.8795 10.8699 18.068L11.4842 15.1316C11.9447 15.2279 12.2912 15.6339 12.2912 16.1242H9.29118ZM9.29118 15.2097V16.1242H12.2912V15.2097H9.29118ZM10.6054 13.3407C9.84133 13.6153 9.29118 14.3463 9.29118 15.2097H12.2912C12.2912 15.6518 12.0091 16.0241 11.62 16.164L10.6054 13.3407ZM9.6127 14.7131V14.7523H12.6127V14.7131H9.6127ZM17.9717 6.3541C13.3551 6.3541 9.6127 10.0966 9.6127 14.7131H12.6127C12.6127 11.7534 15.012 9.3541 17.9717 9.3541V6.3541ZM18.64 6.3541H17.9717V9.3541H18.64V6.3541ZM19.7937 5.5C18.5716 5.5 17.5424 6.30906 17.205 7.41731L20.075 8.29088C20.0387 8.41038 19.9286 8.5 19.7937 8.5V5.5ZM22.3823 7.41731C22.0449 6.30906 21.0157 5.5 19.7937 5.5V8.5C19.6587 8.5 19.5486 8.41038 19.5123 8.29088L22.3823 7.41731ZM21.6155 6.3541H20.9473V9.3541H21.6155V6.3541ZM29.9745 14.7131C29.9745 10.0965 26.2321 6.3541 21.6155 6.3541V9.3541C24.5752 9.3541 26.9745 11.7534 26.9745 14.7131H29.9745ZM29.9745 14.7239V14.7131H26.9745V14.7239H29.9745ZM31.7111 13.2239H28.4745V16.2239H31.7111V13.2239ZM34.1542 15.667C34.1542 14.3177 33.0604 13.2239 31.7111 13.2239V16.2239C31.4036 16.2239 31.1542 15.9745 31.1542 15.667H34.1542ZM31.7111 18.1101C33.0604 18.1101 34.1542 17.0163 34.1542 15.667H31.1542C31.1542 15.3594 31.4036 15.1101 31.7111 15.1101V18.1101ZM28.2846 18.1101H31.7111V15.1101H28.2846V18.1101ZM29.7846 18.0488V16.6101H26.7846V18.0488H29.7846ZM32.0483 20.7416C32.0483 18.6501 30.5329 16.9156 28.5404 16.5708L28.0289 19.5269C28.6079 19.6271 29.0483 20.1344 29.0483 20.7416H32.0483ZM31.6279 22.5822C31.8978 22.0239 32.0483 21.3982 32.0483 20.7416H29.0483C29.0483 20.9364 29.0042 21.1166 28.9269 21.2766L31.6279 22.5822ZM30.2446 23.4291C30.5094 23.4348 30.6056 23.4905 30.6088 23.4924C30.6111 23.4937 30.5989 23.4867 30.5816 23.4671C30.5645 23.4479 30.5488 23.4236 30.5369 23.3963C30.5145 23.3446 30.5103 23.2942 30.5183 23.2468C30.5248 23.2076 30.551 23.1061 30.6649 22.9934L32.7754 25.1254C33.5419 24.3666 33.7095 23.1689 33.2879 22.1997C32.8028 21.0843 31.6826 20.4598 30.3102 20.4298L30.2446 23.4291ZM30.6649 22.9934C30.5474 23.1096 30.3498 23.2161 30.0728 23.2647C29.7908 23.3141 29.524 23.2852 29.3576 23.2305L28.4204 26.0803C29.6536 26.4858 31.5236 26.3646 32.7754 25.1254L30.6649 22.9934ZM29.3576 23.2305C29.3774 23.237 29.3669 23.2356 29.3237 23.2117C29.2826 23.1889 29.2266 23.1539 29.1568 23.104L27.4125 25.5448C27.6797 25.7357 28.0291 25.9516 28.4204 26.0803L29.3576 23.2305ZM29.7846 25.6874V24.3244H26.7846V25.6874H29.7846ZM26.0346 29.4374C28.1057 29.4374 29.7846 27.7585 29.7846 25.6874H26.7846C26.7846 26.1016 26.4489 26.4374 26.0346 26.4374V29.4374ZM27.1049 30.7319L27.5156 28.1754L24.5536 27.6995L24.1429 30.2561L27.1049 30.7319ZM23.6492 33.6767C25.3679 33.6767 26.8323 32.4288 27.1049 30.7319L24.1429 30.2561C24.104 30.4985 23.8948 30.6767 23.6492 30.6767V33.6767ZM16.2173 33.6767H23.6492V30.6767H16.2173V33.6767ZM12.7952 30.9115C13.1416 32.5246 14.5674 33.6767 16.2173 33.6767V30.6767C15.9816 30.6767 15.7779 30.5122 15.7284 30.2817L12.7952 30.9115ZM12.2243 28.2523L12.7952 30.9115L15.7284 30.2817L15.1575 27.6226L12.2243 28.2523ZM9.76071 26.2414C10.1391 28.0658 11.7531 29.4374 13.6909 29.4374V26.4374C13.2036 26.4374 12.7936 26.0922 12.6982 25.6321L9.76071 26.2414ZM10.0781 27.6442C10.7844 27.7295 11.4858 27.5647 12.0556 27.1887L10.4033 24.6848C10.4228 24.6719 10.4362 24.668 10.441 24.6669C10.4464 24.6656 10.4455 24.6668 10.4379 24.6659L10.0781 27.6442ZM7.56849 24.6293C7.3695 26.2769 8.69639 27.4774 10.0781 27.6442L10.4379 24.6659C10.42 24.6637 10.4375 24.6594 10.4695 24.6953C10.5041 24.7341 10.565 24.8389 10.5469 24.989L7.56849 24.6293ZM10.7238 22.2985C9.34203 22.1316 7.76749 22.9817 7.56849 24.6293L10.5469 24.989C10.5287 25.1392 10.4446 25.2264 10.4018 25.2559C10.3621 25.2831 10.3462 25.2747 10.3641 25.2769L10.7238 22.2985ZM11.9929 22.7557C11.6192 22.5134 11.1861 22.3544 10.7238 22.2985L10.3641 25.2769C10.3741 25.2781 10.3719 25.2801 10.3611 25.2731L11.9929 22.7557ZM9.67703 23.4713V24.0144H12.677V23.4713H9.67703ZM7.07812 20.7416C7.07812 23.0102 8.86212 24.8613 11.1047 24.9695L11.2494 21.973C10.5977 21.9416 10.0781 21.4018 10.0781 20.7416H7.07812ZM11.1047 16.5137C8.86212 16.622 7.07812 18.473 7.07812 20.7416H10.0781C10.0781 20.0814 10.5977 19.5417 11.2494 19.5102L11.1047 16.5137ZM32.5083 25.6103C32.5265 25.4602 32.6106 25.3729 32.6534 25.3435C32.6931 25.3162 32.709 25.3246 32.6911 25.3224L32.3314 28.3008C33.7132 28.4677 35.2877 27.6176 35.4867 25.97L32.5083 25.6103ZM32.6173 25.9334C32.6352 25.9356 32.6177 25.94 32.5857 25.904C32.5511 25.8653 32.4902 25.7605 32.5083 25.6103L35.4867 25.97C35.6857 24.3224 34.3588 23.122 32.9771 22.9551L32.6173 25.9334ZM32.8001 25.6456C32.782 25.7957 32.6979 25.883 32.6551 25.9124C32.6154 25.9397 32.5995 25.9313 32.6173 25.9334L32.9771 22.9551C31.5953 22.7882 30.0208 23.6382 29.8218 25.2858L32.8001 25.6456ZM32.6911 25.3224C32.6733 25.3203 32.6908 25.3159 32.7228 25.3518C32.7574 25.3906 32.8183 25.4954 32.8001 25.6456L29.8218 25.2858C29.6228 26.9334 30.9497 28.1339 32.3314 28.3008L32.6911 25.3224Z" fill="white"/>
</g>
<g id="Group 1912055823">
<circle id="Ellipse 5714" cx="27.7485" cy="20.7417" r="2.73288" fill="#F5AE9B"/>
<circle id="Ellipse 5715" cx="11.2446" cy="20.7417" r="2.73288" fill="#F5AE9B"/>
<path id="Rectangle 34627552" d="M11.1094 14.7186C11.6023 11.45 14.4111 9.03296 17.7167 9.03296H22.8308C25.9244 9.03296 28.3842 11.6295 28.217 14.7186V19.6048V25.6874C28.217 26.93 27.2096 27.9374 25.967 27.9374L25.5563 30.4939C25.4005 31.4636 24.5637 32.1767 23.5816 32.1767H16.1496C15.2068 32.1767 14.3921 31.5183 14.1942 30.5965L13.6232 27.9374C12.2349 27.9374 11.1094 26.8119 11.1094 25.4235V19.6048V14.7186Z" fill="#F5AE9B"/>
<circle id="Ellipse 5716" cx="19.7291" cy="8.20568" r="1.20568" fill="#D6272A"/>
<g id="Mask group">
<mask id="mask0_2693_44076" style="mask-type:alpha" maskUnits="userSpaceOnUse" x="11" y="7" width="18" height="10">
<path id="Rectangle 34627554" d="M11.0469 14.7131C11.0469 10.925 14.1178 7.85413 17.9059 7.85413H21.5497C25.3378 7.85413 28.4087 10.925 28.4087 14.7131V16.2028C28.4087 16.2975 28.3319 16.3743 28.2372 16.3743H11.2184C11.1236 16.3743 11.0469 16.2975 11.0469 16.2028V14.7131Z" fill="#D9D9D9"/>
</mask>
<g mask="url(#mask0_2693_44076)">
<path id="Rectangle 34627558" d="M11.0469 14.7131C11.0469 10.925 14.1178 7.85413 17.9059 7.85413H21.5497C25.3378 7.85413 28.4087 10.925 28.4087 14.7131V16.2028C28.4087 16.2975 28.3319 16.3743 28.2372 16.3743H11.2184C11.1236 16.3743 11.0469 16.2975 11.0469 16.2028V14.7131Z" fill="#F54746"/>
<path id="Rectangle 34627555" d="M24.8705 16.3743V12.784C24.8705 9.94293 22.5674 7.63977 19.7263 7.63977V7.63977C16.8852 7.63977 14.582 9.94293 14.582 12.784V16.3743" stroke="#D02C27" stroke-opacity="0.5" stroke-width="1.02885"/>
</g>
</g>
<path id="Rectangle 34627563" d="M27.5724 19.6831L25.9804 20.7053C25.8221 20.807 25.8789 21.0511 26.0658 21.0724L27.9766 21.29" stroke="#E58F80" stroke-width="1.02885" stroke-linecap="round"/>
<path id="Rectangle 34627559" d="M10.7266 15.2097C10.7266 14.9414 10.9441 14.7239 11.2124 14.7239H31.6465C32.1674 14.7239 32.5896 15.1461 32.5896 15.667C32.5896 16.1879 32.1674 16.6101 31.6465 16.6101H11.2124C10.9441 16.6101 10.7266 16.3926 10.7266 16.1243V15.2097Z" fill="#CD2C2A"/>
<path id="Vector" d="M16.9891 14.3258L15.8359 14.3264C15.8359 14.3264 15.8546 12.3949 16.3033 10.8545C16.7526 9.3128 17.4236 8.33156 18.2366 8.33403C19.1006 8.33527 19.6784 10.1091 19.6784 10.1091C19.6784 10.1091 20.2432 8.30672 21.2138 8.32534C22.2752 8.3452 22.9181 10.3077 23.2037 11.4267C23.4904 12.5439 23.54 14.3252 23.54 14.3252L22.3838 14.3171C22.3838 14.3171 22.4098 13.19 22.1703 11.7526C21.9307 10.3145 21.508 9.43693 21.2138 9.42762C20.8911 9.41892 20.4945 10.9525 20.4219 11.7972C20.3636 12.5251 20.3216 13.2541 20.2959 13.9838L19.0763 13.9782C19.0763 13.9782 19.0205 12.038 18.8765 11.1338C18.7331 10.2295 18.4433 9.42948 18.213 9.42824C17.9834 9.42637 17.4378 10.1966 17.2007 11.6787C16.9581 13.3805 17.0027 14.3258 16.9891 14.3258Z" fill="#FCCF00" stroke="#FCCF00" stroke-width="0.346992"/>
<g id="Mask group_2">
<mask id="mask1_2693_44076" style="mask-type:alpha" maskUnits="userSpaceOnUse" x="21" y="18" width="6" height="5">
<path id="Subtract" fill-rule="evenodd" clip-rule="evenodd" d="M22.6483 18.2661C21.8183 18.7025 21.2109 19.5638 21.2109 20.2928C21.2109 21.0631 21.6542 21.74 22.3229 22.1269L22.3228 22.128L22.324 22.1276C22.336 22.1345 22.348 22.1413 22.3602 22.1481C22.8455 21.7552 23.4917 21.3884 24.236 21.1102C24.9441 20.8454 25.6377 20.6993 26.2409 20.6669C26.4497 20.3446 26.5694 19.9696 26.5694 19.5693C26.5694 19.3472 26.5366 19.1283 26.4749 18.919C25.9143 19.0243 25.2423 19.0302 24.5354 18.9132C23.805 18.7924 23.1521 18.5595 22.6483 18.2661Z" fill="#D9D9D9"/>
</mask>
<g mask="url(#mask1_2693_44076)">
<path id="Subtract_2" fill-rule="evenodd" clip-rule="evenodd" d="M22.6483 18.2661C21.8183 18.7025 21.2109 19.5638 21.2109 20.2928C21.2109 21.0631 21.6542 21.74 22.3229 22.1269L22.3228 22.128L22.324 22.1276C22.336 22.1345 22.348 22.1413 22.3602 22.1481C22.8455 21.7552 23.4917 21.3884 24.236 21.1102C24.9441 20.8454 25.6377 20.6993 26.2409 20.6669C26.4497 20.3446 26.5694 19.9696 26.5694 19.5693C26.5694 19.3472 26.5366 19.1283 26.4749 18.919C25.9143 19.0243 25.2423 19.0302 24.5354 18.9132C23.805 18.7924 23.1521 18.5595 22.6483 18.2661Z" fill="#F0F5F4"/>
<path id="Subtract_3" fill-rule="evenodd" clip-rule="evenodd" d="M24.3438 19.4959V20.4001C24.3438 21.0141 24.8415 21.5119 25.4556 21.5119C26.0696 21.5119 26.5674 21.0141 26.5674 20.4001V19.3081C26.5674 18.6941 26.0696 18.1963 25.4556 18.1963C25.3219 18.1963 25.1937 18.2199 25.0749 18.2632C25.1291 18.3759 25.1594 18.5022 25.1594 18.6357C25.1594 19.0961 24.7982 19.4721 24.3438 19.4959Z" fill="#3A3A3A"/>
</g>
</g>
<path id="Rectangle 34627562" d="M14.2734 19.0869L15.5269 20.3403C15.648 20.4614 15.5708 20.6688 15.4 20.6812L13.6953 20.8057" stroke="#E58F80" stroke-width="1.02885" stroke-linecap="round"/>
<path id="Ellipse 5721" d="M23.124 22.0686C23.4707 22.5978 23.3227 23.3078 22.7935 23.6544C22.2644 24.001 21.5544 23.8531 21.2078 23.3239C20.925 22.8922 20.9296 21.5083 20.941 21.013C20.943 20.9252 21.0308 20.8676 21.1121 20.9009C21.5707 21.0884 22.8413 21.637 23.124 22.0686Z" fill="#E58F80"/>
<g id="Group 1912055819">
<path id="Subtract_4" fill-rule="evenodd" clip-rule="evenodd" d="M16.0136 18.4519C16.0277 18.4438 16.0421 18.4366 16.0566 18.4302C16.6913 18.7026 17.5168 18.8673 18.4193 18.8673C19.0121 18.8673 19.5716 18.7963 20.0657 18.6703L20.0638 18.705C20.5771 18.9904 20.9345 19.629 20.9345 20.371C20.9345 21.197 20.4915 21.8949 19.8838 22.12L19.8829 22.1359L19.8622 22.1278C19.8412 22.1351 19.82 22.1419 19.7987 22.1481C19.2788 21.6445 18.498 21.1816 17.5708 20.8734C16.9774 20.6762 16.3941 20.5656 15.8628 20.5357C15.6822 20.3296 15.5625 19.9683 15.5625 19.5572C15.5625 19.0508 15.7441 18.6201 15.9973 18.4617L15.9979 18.4519H16.0136Z" fill="#F0F5F4"/>
<g id="Mask group_3">
<mask id="mask2_2693_44076" style="mask-type:alpha" maskUnits="userSpaceOnUse" x="15" y="18" width="6" height="5">
<path id="Subtract_5" fill-rule="evenodd" clip-rule="evenodd" d="M16.0136 18.4519C16.0277 18.4438 16.0421 18.4366 16.0566 18.4302C16.6913 18.7026 17.5168 18.8673 18.4193 18.8673C19.0121 18.8673 19.5716 18.7963 20.0657 18.6703L20.0638 18.705C20.5771 18.9904 20.9345 19.629 20.9345 20.371C20.9345 21.197 20.4915 21.8949 19.8838 22.12L19.8829 22.1359L19.8622 22.1278C19.8412 22.1351 19.82 22.1419 19.7987 22.1481C19.2788 21.6445 18.498 21.1816 17.5708 20.8734C16.9774 20.6762 16.3941 20.5656 15.8628 20.5357C15.6822 20.3296 15.5625 19.9683 15.5625 19.5572C15.5625 19.0508 15.7441 18.6201 15.9973 18.4617L15.9979 18.4519H16.0136Z" fill="#D9D9D9"/>
</mask>
<g mask="url(#mask2_2693_44076)">
<path id="Subtract_6" fill-rule="evenodd" clip-rule="evenodd" d="M18.3906 20.4345V21.5331C18.3906 22.1361 18.8794 22.6249 19.4824 22.6249C20.0854 22.6249 20.5743 22.1361 20.5743 21.5331V20.381C20.5743 19.778 20.0854 19.2892 19.4824 19.2892C19.3724 19.2892 19.2662 19.3055 19.1661 19.3357C19.1932 19.4181 19.2078 19.506 19.2078 19.5974C19.2078 20.0531 18.8438 20.4238 18.3906 20.4345Z" fill="#3A3A3A"/>
</g>
</g>
</g>
<g id="Group 1912055826">
<path id="Subtract_7" fill-rule="evenodd" clip-rule="evenodd" d="M23.1468 28.8227C23.471 28.8227 23.7519 28.5842 23.7519 28.2601C23.7519 26.2329 22.1984 24.5895 20.2822 24.5895C18.3659 24.5895 16.8125 26.2329 16.8125 28.2601C16.8125 28.5842 17.0934 28.8227 17.4175 28.8227H23.1468Z" fill="#F5F4F1"/>
<g id="Mask group_4">
<mask id="mask3_2693_44076" style="mask-type:alpha" maskUnits="userSpaceOnUse" x="16" y="24" width="8" height="5">
<path id="Subtract_8" fill-rule="evenodd" clip-rule="evenodd" d="M23.1468 28.8227C23.471 28.8227 23.7519 28.5842 23.7519 28.2601C23.7519 26.2329 22.1984 24.5895 20.2822 24.5895C18.3659 24.5895 16.8125 26.2329 16.8125 28.2601C16.8125 28.5842 17.0934 28.8227 17.4175 28.8227H23.1468Z" fill="#F5F4F1"/>
</mask>
<g mask="url(#mask3_2693_44076)">
<rect id="Rectangle 34627566" opacity="0.5" x="18.875" y="24.1875" width="0.5" height="5.11746" fill="#F5AE9B"/>
<rect id="Rectangle 34627568" opacity="0.5" x="21.1875" y="24.1875" width="0.5" height="5.11746" fill="#F5AE9B"/>
</g>
</g>
</g>
<g id="Group 1912055822">
<ellipse id="Ellipse 5727" cx="32.587" cy="25.6279" rx="1.35304" ry="1.19229" transform="rotate(6.88666 32.587 25.6279)" fill="#0279FE"/>
<ellipse id="Ellipse 5728" cx="33.0981" cy="25.2094" rx="0.287594" ry="0.399339" transform="rotate(128.123 33.0981 25.2094)" fill="#31ACF4"/>
</g>
</g>
<g id="Mask group_5">
<mask id="mask4_2693_44076" style="mask-type:alpha" maskUnits="userSpaceOnUse" x="11" y="9" width="18" height="24">
<path id="Rectangle 34627560" d="M11.1094 14.7189C11.6023 11.4502 14.4111 9.0332 17.7167 9.0332H22.8308C25.9244 9.0332 28.3842 11.6298 28.217 14.7189V19.6051V25.6876C28.217 26.9303 27.2096 27.9376 25.967 27.9376L25.5563 30.4942C25.4005 31.4638 24.5637 32.1769 23.5816 32.1769H16.1496C15.2068 32.1769 14.3921 31.5185 14.1942 30.5968L13.6232 27.9376C12.2349 27.9376 11.1094 26.8121 11.1094 25.4238V19.6051V14.7189Z" fill="#F5AE9B"/>
</mask>
<g mask="url(#mask4_2693_44076)">
<path id="Rectangle 34627555_2" d="M14.0547 27.1251L15.4756 24.1594C15.4832 24.1435 15.4716 24.1251 15.454 24.1251H14.1702C12.5531 24.1251 11.2422 22.8142 11.2422 21.1971V21.1971" stroke="#E58F80" stroke-width="1.02885" stroke-linecap="round"/>
<path id="Rectangle 34627561" d="M25.965 27.0314L24.8933 24.1433C24.8887 24.1309 24.8979 24.1177 24.9111 24.1177H26.4762C27.4558 24.1177 28.25 23.3235 28.25 22.3439V22.3439" stroke="#E58F80" stroke-width="1.02885" stroke-linecap="round"/>
</g>
</g>
<g id="Group 1912055821">
<ellipse id="Ellipse 5727_2" cx="10.3331" cy="24.9709" rx="1.35304" ry="1.19229" transform="rotate(6.88666 10.3331 24.9709)" fill="#0279FE"/>
<ellipse id="Ellipse 5728_2" cx="9.77062" cy="24.589" rx="0.287594" ry="0.399339" transform="rotate(60 9.77062 24.589)" fill="#31ACF4"/>
</g>
<g id="Group 1912055833">
<path id="Vector 1886" d="M26.8415 22.9716C26.2902 22.2266 25.8432 21.5263 24.1445 21.1687C24.2836 20.9402 25.9344 20.6572 26.1571 20.6572C26.3384 20.6572 27.1321 20.9673 27.7281 21.4442C28.4659 22.0344 29.2554 21.9286 30.1345 21.9286C32.0737 21.9286 32.2325 23.4871 31.6544 24.0594C30.8945 24.8116 29.6559 24.9292 28.8233 24.6554C28.1697 24.4405 27.2339 23.5019 26.8415 22.9716Z" fill="#0279FE"/>
<ellipse id="Ellipse 5729" cx="30.8504" cy="22.7667" rx="0.439062" ry="0.609661" transform="rotate(124.646 30.8504 22.7667)" fill="#31ACF4"/>
</g>
<g id="Group 1912055832">
<path id="Vector 1885" d="M13.653 20.7612C14.3227 20.8702 14.821 20.878 15.6309 20.4575C15.9994 20.4575 16.4554 20.5096 17.0472 20.6614C17.0005 21.0897 15.9735 22.1551 14.8755 22.1551C14.2418 22.1551 13.7932 22.4509 13.0768 22.9649C12.3604 23.4788 10.0087 22.9649 10.5539 21.3997C11.1567 19.6688 12.9833 20.6522 13.653 20.7612Z" fill="#0279FE"/>
<ellipse id="Ellipse 943" cx="11.6874" cy="21.3032" rx="0.394016" ry="0.547112" transform="rotate(55.4071 11.6874 21.3032)" fill="#31ACF4"/>
</g>
<g id="Union_2">
<mask id="path-36-outside-1_2693_44076" maskUnits="userSpaceOnUse" x="12.1445" y="8.9082" width="15" height="6" fill="black">
<rect fill="white" x="12.1445" y="8.9082" width="15" height="6"/>
<path fill-rule="evenodd" clip-rule="evenodd" d="M15.0889 10.6144H14.0474V12.7331C14.0474 13.4081 13.9446 13.493 13.1445 13.493V14.3199C14.8386 14.3378 15.0889 13.9221 15.0889 12.8538V12.751V10.6144ZM15.0889 9.9082H14.0474V10.4133H15.0889V9.9082ZM25.8029 12.1964C25.8029 12.1964 25.3515 12.3528 24.9537 12.3528C24.5648 12.3528 24.5961 11.8924 24.5961 11.8924V11.3739H25.8566V10.6006H24.5961V10.0598H23.5546V10.6006H23.0406V11.3739H23.5546V11.8924C23.5546 13.0501 23.711 13.211 24.529 13.211C25.566 13.211 26.1695 13.0009 26.1695 13.0009L25.8029 12.1964ZM22.9878 12.1518C23.0727 10.9405 22.3263 10.5471 21.1507 10.5471C19.8723 10.5471 19.2644 11.0567 19.2644 11.8747C19.2644 12.6658 19.622 13.1978 21.1775 13.1978C22.5542 13.1978 22.961 12.9698 22.961 12.9698L22.514 12.2457C22.514 12.2457 21.9106 12.4245 21.1418 12.4245C20.5786 12.4245 20.3595 12.2948 20.3327 12.1518H22.9878ZM20.3327 11.6959C20.3327 11.5663 20.4668 11.3517 21.1552 11.3517C21.7675 11.3517 21.9329 11.5216 21.9329 11.6959H20.3327ZM17.221 10.5471C18.3966 10.5471 19.143 10.9405 19.0581 12.1518H16.403C16.4298 12.2948 16.6489 12.4245 17.2121 12.4245C17.9809 12.4245 18.5843 12.2457 18.5843 12.2457L19.0313 12.9698C19.0313 12.9698 18.6245 13.1978 17.2478 13.1978C15.6923 13.1978 15.3347 12.6658 15.3347 11.8747C15.3347 11.0567 15.9426 10.5471 17.221 10.5471ZM17.2255 11.3517C16.5371 11.3517 16.403 11.5663 16.403 11.6959H18.0032C18.0032 11.5216 17.8379 11.3517 17.2255 11.3517Z"/>
</mask>
<path fill-rule="evenodd" clip-rule="evenodd" d="M15.0889 10.6144H14.0474V12.7331C14.0474 13.4081 13.9446 13.493 13.1445 13.493V14.3199C14.8386 14.3378 15.0889 13.9221 15.0889 12.8538V12.751V10.6144ZM15.0889 9.9082H14.0474V10.4133H15.0889V9.9082ZM25.8029 12.1964C25.8029 12.1964 25.3515 12.3528 24.9537 12.3528C24.5648 12.3528 24.5961 11.8924 24.5961 11.8924V11.3739H25.8566V10.6006H24.5961V10.0598H23.5546V10.6006H23.0406V11.3739H23.5546V11.8924C23.5546 13.0501 23.711 13.211 24.529 13.211C25.566 13.211 26.1695 13.0009 26.1695 13.0009L25.8029 12.1964ZM22.9878 12.1518C23.0727 10.9405 22.3263 10.5471 21.1507 10.5471C19.8723 10.5471 19.2644 11.0567 19.2644 11.8747C19.2644 12.6658 19.622 13.1978 21.1775 13.1978C22.5542 13.1978 22.961 12.9698 22.961 12.9698L22.514 12.2457C22.514 12.2457 21.9106 12.4245 21.1418 12.4245C20.5786 12.4245 20.3595 12.2948 20.3327 12.1518H22.9878ZM20.3327 11.6959C20.3327 11.5663 20.4668 11.3517 21.1552 11.3517C21.7675 11.3517 21.9329 11.5216 21.9329 11.6959H20.3327ZM17.221 10.5471C18.3966 10.5471 19.143 10.9405 19.0581 12.1518H16.403C16.4298 12.2948 16.6489 12.4245 17.2121 12.4245C17.9809 12.4245 18.5843 12.2457 18.5843 12.2457L19.0313 12.9698C19.0313 12.9698 18.6245 13.1978 17.2478 13.1978C15.6923 13.1978 15.3347 12.6658 15.3347 11.8747C15.3347 11.0567 15.9426 10.5471 17.221 10.5471ZM17.2255 11.3517C16.5371 11.3517 16.403 11.5663 16.403 11.6959H18.0032C18.0032 11.5216 17.8379 11.3517 17.2255 11.3517Z" fill="#FCCF00"/>
<path d="M14.0474 10.6144V10.1144C13.7713 10.1144 13.5474 10.3383 13.5474 10.6144H14.0474ZM15.0889 10.6144H15.5889C15.5889 10.3383 15.3651 10.1144 15.0889 10.1144V10.6144ZM13.1445 13.493V12.993C12.8684 12.993 12.6445 13.2169 12.6445 13.493H13.1445ZM13.1445 14.3199H12.6445C12.6445 14.594 12.8652 14.817 13.1393 14.8199L13.1445 14.3199ZM14.0474 9.9082V9.4082C13.7713 9.4082 13.5474 9.63206 13.5474 9.9082H14.0474ZM15.0889 9.9082H15.5889C15.5889 9.63206 15.3651 9.4082 15.0889 9.4082V9.9082ZM14.0474 10.4133H13.5474C13.5474 10.6894 13.7713 10.9133 14.0474 10.9133V10.4133ZM15.0889 10.4133V10.9133C15.3651 10.9133 15.5889 10.6894 15.5889 10.4133H15.0889ZM25.8029 12.1964L26.2579 11.9891C26.151 11.7543 25.883 11.6394 25.6392 11.7239L25.8029 12.1964ZM24.5961 11.8924L25.0949 11.9263C25.0957 11.915 25.0961 11.9037 25.0961 11.8924H24.5961ZM24.5961 11.3739V10.8739C24.3199 10.8739 24.0961 11.0978 24.0961 11.3739H24.5961ZM25.8566 11.3739V11.8739C26.1327 11.8739 26.3566 11.65 26.3566 11.3739H25.8566ZM25.8566 10.6006H26.3566C26.3566 10.3245 26.1327 10.1006 25.8566 10.1006V10.6006ZM24.5961 10.6006H24.0961C24.0961 10.8768 24.3199 11.1006 24.5961 11.1006V10.6006ZM24.5961 10.0598H25.0961C25.0961 9.78362 24.8722 9.55976 24.5961 9.55976V10.0598ZM23.5546 10.0598V9.55976C23.2785 9.55976 23.0546 9.78362 23.0546 10.0598H23.5546ZM23.5546 10.6006V11.1006C23.8307 11.1006 24.0546 10.8768 24.0546 10.6006H23.5546ZM23.0406 10.6006V10.1006C22.7644 10.1006 22.5406 10.3245 22.5406 10.6006H23.0406ZM23.0406 11.3739H22.5406C22.5406 11.65 22.7644 11.8739 23.0406 11.8739V11.3739ZM23.5546 11.3739H24.0546C24.0546 11.0978 23.8307 10.8739 23.5546 10.8739V11.3739ZM26.1695 13.0009L26.3339 13.4731C26.4667 13.4269 26.5739 13.3269 26.6292 13.1975C26.6845 13.0682 26.6828 12.9216 26.6245 12.7936L26.1695 13.0009ZM22.9878 12.1518V12.6518C23.2504 12.6518 23.4682 12.4487 23.4866 12.1868L22.9878 12.1518ZM22.961 12.9698L23.2054 13.406C23.3243 13.3393 23.4108 13.2271 23.445 13.0952C23.4792 12.9633 23.458 12.8231 23.3865 12.7072L22.961 12.9698ZM22.514 12.2457L22.9395 11.983C22.8209 11.791 22.5884 11.7022 22.372 11.7663L22.514 12.2457ZM20.3327 12.1518V11.6518C20.184 11.6518 20.043 11.718 19.948 11.8325C19.853 11.947 19.8139 12.0978 19.8413 12.244L20.3327 12.1518ZM20.3327 11.6959H19.8327C19.8327 11.972 20.0566 12.1959 20.3327 12.1959V11.6959ZM21.9329 11.6959V12.1959C22.2091 12.1959 22.4329 11.972 22.4329 11.6959H21.9329ZM19.0581 12.1518V12.6518C19.3207 12.6518 19.5385 12.4487 19.5569 12.1868L19.0581 12.1518ZM16.403 12.1518V11.6518C16.2543 11.6518 16.1133 11.718 16.0183 11.8325C15.9233 11.947 15.8842 12.0978 15.9116 12.244L16.403 12.1518ZM18.5843 12.2457L19.0098 11.983C18.8912 11.791 18.6587 11.7022 18.4423 11.7663L18.5843 12.2457ZM19.0313 12.9698L19.2757 13.406C19.3946 13.3393 19.4812 13.2271 19.5153 13.0952C19.5495 12.9633 19.5283 12.8231 19.4568 12.7072L19.0313 12.9698ZM16.403 11.6959H15.903C15.903 11.972 16.1269 12.1959 16.403 12.1959V11.6959ZM18.0032 11.6959V12.1959C18.2794 12.1959 18.5032 11.972 18.5032 11.6959H18.0032ZM14.0474 11.1144H15.0889V10.1144H14.0474V11.1144ZM14.5474 12.7331V10.6144H13.5474V12.7331H14.5474ZM13.1445 13.993C13.3462 13.993 13.5355 13.9882 13.6981 13.9636C13.8598 13.9391 14.053 13.8873 14.2176 13.749C14.3928 13.6019 14.471 13.4123 14.5077 13.2418C14.5419 13.0828 14.5474 12.9047 14.5474 12.7331H13.5474C13.5474 12.899 13.5401 12.9847 13.5301 13.0314C13.5225 13.0667 13.525 13.0249 13.5744 12.9833C13.6133 12.9507 13.6309 12.9623 13.5483 12.9748C13.4665 12.9872 13.3429 12.993 13.1445 12.993V13.993ZM13.6445 14.3199V13.493H12.6445V14.3199H13.6445ZM14.5889 12.8538C14.5889 13.3918 14.5124 13.541 14.4265 13.6146C14.3085 13.7159 14.0021 13.829 13.1498 13.82L13.1393 14.8199C13.981 14.8288 14.6469 14.743 15.0775 14.3738C15.5402 13.977 15.5889 13.3842 15.5889 12.8538H14.5889ZM14.5889 12.751V12.8538H15.5889V12.751H14.5889ZM14.5889 10.6144V12.751H15.5889V10.6144H14.5889ZM14.0474 10.4082H15.0889V9.4082H14.0474V10.4082ZM14.5474 10.4133V9.9082H13.5474V10.4133H14.5474ZM15.0889 9.9133H14.0474V10.9133H15.0889V9.9133ZM14.5889 9.9082V10.4133H15.5889V9.9082H14.5889ZM24.9537 12.8528C25.2096 12.8528 25.4657 12.8037 25.6444 12.7607C25.7367 12.7385 25.815 12.7163 25.8708 12.6994C25.8988 12.691 25.9215 12.6838 25.9377 12.6784C25.9459 12.6758 25.9524 12.6736 25.9573 12.672C25.9597 12.6712 25.9617 12.6705 25.9633 12.6699C25.9641 12.6697 25.9647 12.6694 25.9653 12.6693C25.9656 12.6692 25.9658 12.6691 25.9661 12.669C25.9662 12.669 25.9663 12.6689 25.9664 12.6689C25.9664 12.6689 25.9665 12.6688 25.9665 12.6688C25.9666 12.6688 25.9667 12.6688 25.8029 12.1964C25.6392 11.7239 25.6393 11.7239 25.6393 11.7239C25.6394 11.7239 25.6394 11.7238 25.6395 11.7238C25.6395 11.7238 25.6396 11.7238 25.6396 11.7238C25.6398 11.7237 25.6398 11.7237 25.6399 11.7237C25.64 11.7236 25.64 11.7236 25.64 11.7237C25.6398 11.7237 25.6392 11.7239 25.6382 11.7242C25.6363 11.7249 25.6328 11.7261 25.6278 11.7277C25.6178 11.731 25.6021 11.736 25.5816 11.7422C25.5403 11.7546 25.4808 11.7715 25.4105 11.7884C25.2641 11.8237 25.0955 11.8528 24.9537 11.8528V12.8528ZM24.5961 11.8924C24.0972 11.8585 24.0972 11.8587 24.0972 11.8589C24.0972 11.859 24.0972 11.8592 24.0972 11.8593C24.0972 11.8596 24.0971 11.8599 24.0971 11.8602C24.0971 11.8608 24.097 11.8615 24.097 11.8622C24.0969 11.8635 24.0968 11.865 24.0967 11.8666C24.0966 11.8698 24.0964 11.8735 24.0962 11.8777C24.0959 11.886 24.0956 11.8963 24.0955 11.9084C24.0953 11.9322 24.0959 11.9638 24.0986 12.0006C24.1037 12.0714 24.1177 12.1764 24.1578 12.2896C24.1978 12.4025 24.2724 12.5472 24.4135 12.6648C24.5627 12.7893 24.7497 12.8528 24.9537 12.8528V11.8528C24.9632 11.8528 25.0082 11.8587 25.054 11.8969C25.0728 11.9126 25.0848 11.9282 25.0915 11.9388C25.0981 11.9491 25.1003 11.9555 25.1003 11.9556C25.1004 11.9558 25.0994 11.953 25.0983 11.9469C25.0972 11.941 25.0964 11.9344 25.0959 11.928C25.0955 11.9217 25.0955 11.9173 25.0955 11.916C25.0955 11.9154 25.0955 11.9159 25.0954 11.9175C25.0954 11.9183 25.0953 11.9194 25.0953 11.9209C25.0952 11.9216 25.0952 11.9224 25.0951 11.9233C25.0951 11.9238 25.0951 11.9242 25.095 11.9247C25.095 11.925 25.095 11.9252 25.095 11.9255C25.095 11.9256 25.095 11.9258 25.095 11.9259C25.0949 11.9261 25.0949 11.9263 24.5961 11.8924ZM24.0961 11.3739V11.8924H25.0961V11.3739H24.0961ZM25.8566 10.8739H24.5961V11.8739H25.8566V10.8739ZM25.3566 10.6006V11.3739H26.3566V10.6006H25.3566ZM24.5961 11.1006H25.8566V10.1006H24.5961V11.1006ZM24.0961 10.0598V10.6006H25.0961V10.0598H24.0961ZM23.5546 10.5598H24.5961V9.55976H23.5546V10.5598ZM24.0546 10.6006V10.0598H23.0546V10.6006H24.0546ZM23.0406 11.1006H23.5546V10.1006H23.0406V11.1006ZM23.5406 11.3739V10.6006H22.5406V11.3739H23.5406ZM23.5546 10.8739H23.0406V11.8739H23.5546V10.8739ZM24.0546 11.8924V11.3739H23.0546V11.8924H24.0546ZM24.529 12.711C24.331 12.711 24.2209 12.7001 24.1556 12.6834C24.1064 12.6708 24.1189 12.6647 24.1323 12.6822C24.1346 12.6851 24.1077 12.6513 24.086 12.5106C24.0646 12.372 24.0546 12.1763 24.0546 11.8924H23.0546C23.0546 12.1874 23.0642 12.4459 23.0977 12.6631C23.1309 12.8781 23.1942 13.1016 23.3378 13.2895C23.6475 13.6946 24.151 13.711 24.529 13.711V12.711ZM26.1695 13.0009C26.0051 12.5287 26.0052 12.5287 26.0053 12.5286C26.0053 12.5286 26.0055 12.5286 26.0055 12.5286C26.0057 12.5285 26.0058 12.5285 26.0059 12.5284C26.0062 12.5283 26.0064 12.5283 26.0066 12.5282C26.007 12.5281 26.0072 12.528 26.0073 12.528C26.0074 12.5279 26.007 12.528 26.0061 12.5284C26.0041 12.529 25.9999 12.5304 25.9934 12.5324C25.9805 12.5364 25.9587 12.5429 25.9284 12.5511C25.8676 12.5676 25.7727 12.5908 25.6461 12.6145C25.393 12.6619 25.0138 12.711 24.529 12.711V13.711C25.0813 13.711 25.5223 13.6551 25.8301 13.5974C25.9841 13.5686 26.1048 13.5393 26.1896 13.5164C26.232 13.5049 26.2654 13.495 26.2896 13.4875C26.3017 13.4838 26.3114 13.4806 26.3188 13.4782C26.3225 13.477 26.3256 13.4759 26.3281 13.4751C26.3294 13.4747 26.3305 13.4743 26.3314 13.474C26.3319 13.4738 26.3324 13.4736 26.3328 13.4735C26.333 13.4734 26.3332 13.4734 26.3333 13.4733C26.3334 13.4733 26.3336 13.4732 26.3336 13.4732C26.3337 13.4732 26.3339 13.4731 26.1695 13.0009ZM25.3479 12.4036L25.7145 13.2082L26.6245 12.7936L26.2579 11.9891L25.3479 12.4036ZM21.1507 11.0471C21.7039 11.0471 22.0462 11.1439 22.2361 11.2907C22.3887 11.4088 22.5236 11.6234 22.489 12.1168L23.4866 12.1868C23.5369 11.4689 23.341 10.8811 22.8478 10.4997C22.3918 10.147 21.7731 10.0471 21.1507 10.0471V11.0471ZM19.7644 11.8747C19.7644 11.6044 19.8563 11.4308 20.0247 11.3067C20.2166 11.1654 20.5664 11.0471 21.1507 11.0471V10.0471C20.4566 10.0471 19.8633 10.1836 19.4316 10.5016C18.9765 10.8368 18.7644 11.327 18.7644 11.8747H19.7644ZM21.1775 12.6978C20.4339 12.6978 20.1012 12.566 19.954 12.4457C19.8367 12.3498 19.7644 12.2001 19.7644 11.8747H18.7644C18.7644 12.3404 18.871 12.8522 19.3213 13.2201C19.7417 13.5636 20.3656 13.6978 21.1775 13.6978V12.6978ZM22.961 12.9698C22.7165 12.5336 22.7168 12.5335 22.7172 12.5333C22.7172 12.5332 22.7176 12.5331 22.7178 12.5329C22.7181 12.5327 22.7185 12.5325 22.7189 12.5323C22.7197 12.5319 22.7204 12.5315 22.7212 12.5311C22.7226 12.5303 22.7239 12.5296 22.7251 12.5289C22.7276 12.5276 22.7296 12.5266 22.7312 12.5258C22.7343 12.5242 22.7357 12.5236 22.7351 12.5239C22.734 12.5244 22.7251 12.5283 22.7073 12.5347C22.6715 12.5475 22.6001 12.57 22.4836 12.5943C22.25 12.6429 21.8391 12.6978 21.1775 12.6978V13.6978C21.8926 13.6978 22.3735 13.6386 22.6874 13.5733C22.8447 13.5405 22.961 13.506 23.0446 13.4761C23.0864 13.4611 23.12 13.4473 23.1465 13.4353C23.1597 13.4293 23.1712 13.4238 23.181 13.4189C23.1859 13.4165 23.1903 13.4141 23.1944 13.412C23.1965 13.4109 23.1984 13.4099 23.2002 13.4088C23.2011 13.4083 23.202 13.4079 23.2029 13.4074C23.2033 13.4071 23.2038 13.4069 23.2042 13.4067C23.2044 13.4065 23.2047 13.4064 23.2048 13.4063C23.2051 13.4061 23.2054 13.406 22.961 12.9698ZM22.0885 12.5083L22.5355 13.2324L23.3865 12.7072L22.9395 11.983L22.0885 12.5083ZM21.1418 12.9245C21.5635 12.9245 21.9373 12.8756 22.2052 12.8271C22.3398 12.8027 22.4492 12.7782 22.5264 12.7593C22.5651 12.7499 22.5957 12.7418 22.6176 12.7359C22.6286 12.7329 22.6373 12.7305 22.6437 12.7286C22.647 12.7277 22.6496 12.727 22.6517 12.7264C22.6527 12.7261 22.6536 12.7258 22.6543 12.7256C22.6547 12.7255 22.655 12.7254 22.6553 12.7253C22.6554 12.7253 22.6556 12.7252 22.6557 12.7252C22.6558 12.7252 22.6558 12.7251 22.6559 12.7251C22.656 12.7251 22.656 12.7251 22.514 12.2457C22.372 11.7663 22.372 11.7663 22.3721 11.7662C22.3721 11.7662 22.3722 11.7662 22.3723 11.7662C22.3723 11.7662 22.3724 11.7661 22.3725 11.7661C22.3726 11.7661 22.3728 11.766 22.3728 11.766C22.373 11.766 22.373 11.766 22.3728 11.766C22.3726 11.7661 22.3717 11.7663 22.3703 11.7667C22.3676 11.7675 22.3626 11.7689 22.3555 11.7708C22.3414 11.7747 22.3189 11.7806 22.289 11.7879C22.229 11.8026 22.1395 11.8227 22.0271 11.8431C21.8012 11.884 21.4889 11.9245 21.1418 11.9245V12.9245ZM19.8413 12.244C19.9 12.557 20.1476 12.7267 20.3539 12.8074C20.5649 12.89 20.831 12.9245 21.1418 12.9245V11.9245C20.8893 11.9245 20.7643 11.8942 20.7183 11.8762C20.6675 11.8563 20.7923 11.8896 20.8242 12.0597L19.8413 12.244ZM22.9878 11.6518H20.3327V12.6518H22.9878V11.6518ZM21.1552 10.8517C20.7723 10.8517 20.4636 10.9091 20.2336 11.0434C19.9779 11.1928 19.8327 11.4342 19.8327 11.6959H20.8327C20.8327 11.7512 20.8179 11.804 20.7916 11.8473C20.779 11.868 20.7659 11.883 20.7553 11.8931C20.7448 11.903 20.7379 11.907 20.738 11.9069C20.7471 11.9016 20.8497 11.8517 21.1552 11.8517V10.8517ZM22.4329 11.6959C22.4329 11.4111 22.2783 11.164 22.013 11.0194C21.7861 10.8957 21.492 10.8517 21.1552 10.8517V11.8517C21.2865 11.8517 21.3803 11.8609 21.4448 11.8728C21.5103 11.8848 21.5345 11.8975 21.5344 11.8975C21.5319 11.8961 21.5012 11.8782 21.4726 11.832C21.4431 11.7844 21.4329 11.7343 21.4329 11.6959H22.4329ZM20.3327 12.1959H21.9329V11.1959H20.3327V12.1959ZM19.5569 12.1868C19.6072 11.4689 19.4113 10.8811 18.9181 10.4997C18.4621 10.147 17.8434 10.0471 17.221 10.0471V11.0471C17.7742 11.0471 18.1165 11.1439 18.3064 11.2907C18.4591 11.4088 18.5939 11.6234 18.5593 12.1168L19.5569 12.1868ZM16.403 12.6518H19.0581V11.6518H16.403V12.6518ZM17.2121 11.9245C16.9596 11.9245 16.8346 11.8942 16.7886 11.8762C16.7379 11.8563 16.8626 11.8896 16.8945 12.0597L15.9116 12.244C15.9703 12.557 16.2179 12.7267 16.4242 12.8074C16.6352 12.89 16.9013 12.9245 17.2121 12.9245V11.9245ZM18.5843 12.2457C18.4423 11.7663 18.4423 11.7663 18.4424 11.7662C18.4424 11.7662 18.4425 11.7662 18.4426 11.7662C18.4427 11.7662 18.4427 11.7661 18.4428 11.7661C18.443 11.7661 18.4431 11.766 18.4431 11.766C18.4433 11.766 18.4433 11.766 18.4432 11.766C18.4429 11.7661 18.442 11.7663 18.4407 11.7667C18.4379 11.7675 18.4329 11.7689 18.4258 11.7708C18.4117 11.7747 18.3893 11.7806 18.3593 11.7879C18.2994 11.8026 18.2098 11.8227 18.0974 11.8431C17.8715 11.884 17.5592 11.9245 17.2121 11.9245V12.9245C17.6338 12.9245 18.0076 12.8756 18.2755 12.8271C18.4101 12.8027 18.5195 12.7782 18.5967 12.7593C18.6354 12.7499 18.6661 12.7418 18.6879 12.7359C18.6989 12.7329 18.7076 12.7305 18.714 12.7286C18.7173 12.7277 18.7199 12.727 18.722 12.7264C18.723 12.7261 18.7239 12.7258 18.7246 12.7256C18.725 12.7255 18.7253 12.7254 18.7256 12.7253C18.7257 12.7253 18.7259 12.7252 18.726 12.7252C18.7261 12.7252 18.7262 12.7251 18.7262 12.7251C18.7263 12.7251 18.7264 12.7251 18.5843 12.2457ZM19.4568 12.7072L19.0098 11.983L18.1588 12.5083L18.6058 13.2324L19.4568 12.7072ZM17.2478 13.6978C17.9629 13.6978 18.4438 13.6386 18.7577 13.5733C18.915 13.5405 19.0314 13.506 19.1149 13.4761C19.1567 13.4611 19.1903 13.4473 19.2168 13.4353C19.2301 13.4293 19.2415 13.4238 19.2513 13.4189C19.2562 13.4165 19.2607 13.4141 19.2647 13.412C19.2668 13.4109 19.2687 13.4099 19.2705 13.4088C19.2715 13.4083 19.2723 13.4079 19.2732 13.4074C19.2736 13.4071 19.2741 13.4069 19.2745 13.4067C19.2747 13.4065 19.275 13.4064 19.2751 13.4063C19.2754 13.4061 19.2757 13.406 19.0313 12.9698C18.7869 12.5336 18.7872 12.5335 18.7875 12.5333C18.7876 12.5332 18.7879 12.5331 18.7881 12.5329C18.7885 12.5327 18.7889 12.5325 18.7892 12.5323C18.79 12.5319 18.7907 12.5315 18.7915 12.5311C18.7929 12.5303 18.7942 12.5296 18.7955 12.5289C18.7979 12.5276 18.7999 12.5266 18.8015 12.5258C18.8046 12.5242 18.806 12.5236 18.8054 12.5239C18.8043 12.5244 18.7954 12.5283 18.7776 12.5347C18.7418 12.5475 18.6705 12.57 18.5539 12.5943C18.3203 12.6429 17.9095 12.6978 17.2478 12.6978V13.6978ZM14.8347 11.8747C14.8347 12.3404 14.9413 12.8522 15.3916 13.2201C15.8121 13.5636 16.4359 13.6978 17.2478 13.6978V12.6978C16.5042 12.6978 16.1716 12.566 16.0243 12.4457C15.907 12.3498 15.8347 12.2001 15.8347 11.8747H14.8347ZM17.221 10.0471C16.5269 10.0471 15.9336 10.1836 15.502 10.5016C15.0468 10.8368 14.8347 11.327 14.8347 11.8747H15.8347C15.8347 11.6044 15.9266 11.4308 16.095 11.3067C16.2869 11.1654 16.6367 11.0471 17.221 11.0471V10.0471ZM16.903 11.6959C16.903 11.7512 16.8882 11.804 16.8619 11.8473C16.8493 11.868 16.8362 11.883 16.8256 11.8931C16.8151 11.903 16.8082 11.907 16.8083 11.9069C16.8174 11.9016 16.92 11.8517 17.2255 11.8517V10.8517C16.8426 10.8517 16.5339 10.9091 16.3039 11.0434C16.0482 11.1928 15.903 11.4342 15.903 11.6959H16.903ZM18.0032 11.1959H16.403V12.1959H18.0032V11.1959ZM17.2255 11.8517C17.3568 11.8517 17.4506 11.8609 17.5151 11.8728C17.5806 11.8848 17.6048 11.8975 17.6047 11.8975C17.6022 11.8961 17.5715 11.8782 17.5429 11.832C17.5134 11.7844 17.5032 11.7343 17.5032 11.6959H18.5032C18.5032 11.4111 18.3486 11.164 18.0833 11.0194C17.8564 10.8957 17.5623 10.8517 17.2255 10.8517V11.8517Z" fill="#E33A36" mask="url(#path-36-outside-1_2693_44076)"/>
</g>
</g>
</g>
</svg>
