<svg width="41" height="40" viewBox="0 0 41 40" fill="none" xmlns="http://www.w3.org/2000/svg">
<g id="Group 1912055924">
<g id="Group 1912055816">
<g id="Group 1912055810">
<g id="Union">
<path fill-rule="evenodd" clip-rule="evenodd" d="M12.3883 11.0299C12.7461 10.3937 13.4192 10 14.149 10H26.8802C27.6105 10 28.284 10.3942 28.6415 11.0309L29.9323 13.3295C30.1605 13.7358 30.236 14.197 30.1657 14.6371C30.1782 14.7191 30.1846 14.803 30.1846 14.8885V19.305L30.1852 19.3049C30.2365 19.6156 30.4638 20.0333 30.7637 20.4915L31.8401 19.0121C32.4463 18.179 33.613 17.995 34.4461 18.6012C35.2792 19.2073 35.4632 20.3741 34.857 21.2072L32.7625 24.0859C32.7207 25.1328 32.3459 26.9973 31.1328 28.0792C29.7262 29.3337 28.5321 29.9082 26.7134 30.0449C23.682 30.2726 21.0006 28.9935 20.8176 25.8282C20.8115 25.7217 20.8055 25.6171 20.7997 25.5143C20.6099 25.5413 20.4169 25.5413 20.2271 25.5144C20.2213 25.6171 20.2153 25.7217 20.2091 25.8282C20.0261 28.9935 17.3448 30.2726 14.3134 30.0448C12.4946 29.9082 11.3006 29.3336 9.89398 28.0792C8.6809 26.9973 8.30609 25.1329 8.2643 24.086L6.16967 21.2072C5.56351 20.3741 5.74747 19.2073 6.58057 18.6011C7.41366 17.995 8.58041 18.179 9.18657 19.012L10.2631 20.4916C10.5629 20.0333 10.7902 19.6156 10.8415 19.3049L10.8421 19.305V14.8884C10.8421 14.8025 10.8487 14.7181 10.8612 14.6357C10.7914 14.1957 10.8672 13.7348 11.0955 13.3288L12.3883 11.0299Z" fill="#D9D9D9"/>
<path d="M12.3883 11.0299L11.0809 10.2947L11.0809 10.2947L12.3883 11.0299ZM28.6415 11.0309L27.3336 11.7654V11.7654L28.6415 11.0309ZM29.9323 13.3295L28.6244 14.0639L29.9323 13.3295ZM30.1657 14.6371L28.6845 14.4007L28.6477 14.6313L28.6827 14.8622L30.1657 14.6371ZM30.1846 19.305H28.6846V21.1097L30.4588 20.7798L30.1846 19.305ZM30.1852 19.3049L31.6652 19.0605L31.4158 17.5504L29.911 17.8302L30.1852 19.3049ZM30.7637 20.4915L29.5085 21.3128L30.6982 23.1311L31.9766 21.3741L30.7637 20.4915ZM31.8401 19.0121L30.6272 18.1296L31.8401 19.0121ZM34.4461 18.6012L35.3287 17.3883L35.3286 17.3883L34.4461 18.6012ZM34.857 21.2072L33.6441 20.3247L34.857 21.2072ZM32.7625 24.0859L31.5496 23.2034L31.2818 23.5714L31.2637 24.0261L32.7625 24.0859ZM31.1328 28.0792L32.1312 29.1987L32.1312 29.1987L31.1328 28.0792ZM26.7134 30.0449L26.601 28.5491L26.7134 30.0449ZM20.8176 25.8282L19.3201 25.9148L19.3201 25.9148L20.8176 25.8282ZM20.7997 25.5143L22.2973 25.4294L22.2048 23.7999L20.5889 24.0292L20.7997 25.5143ZM20.2271 25.5144L20.4378 24.0292L18.8219 23.8L18.7295 25.4294L20.2271 25.5144ZM20.2091 25.8282L21.7066 25.9148V25.9148L20.2091 25.8282ZM14.3134 30.0448L14.4258 28.549L14.3134 30.0448ZM9.89398 28.0792L8.89559 29.1986L8.89559 29.1986L9.89398 28.0792ZM8.2643 24.086L9.76311 24.0261L9.74495 23.5714L9.47721 23.2035L8.2643 24.086ZM6.16967 21.2072L7.38258 20.3246H7.38258L6.16967 21.2072ZM6.58057 18.6011L7.46309 19.8141H7.46309L6.58057 18.6011ZM9.18657 19.012L7.97366 19.8946H7.97366L9.18657 19.012ZM10.2631 20.4916L9.05015 21.3741L10.3286 23.1311L11.5183 21.3128L10.2631 20.4916ZM10.8415 19.3049L11.1177 17.8306L9.61133 17.5483L9.36158 19.0605L10.8415 19.3049ZM10.8421 19.305L10.5659 20.7794L12.3421 21.1122V19.305H10.8421ZM10.8612 14.6357L12.3441 14.862L12.3793 14.6312L12.3427 14.4007L10.8612 14.6357ZM11.0955 13.3288L12.403 14.064L12.403 14.064L11.0955 13.3288ZM14.149 8.5C12.8772 8.5 11.7043 9.18608 11.0809 10.2947L13.6958 11.7651C13.7879 11.6014 13.9611 11.5 14.149 11.5V8.5ZM26.8802 8.5H14.149V11.5H26.8802V8.5ZM29.9494 10.2965C29.3263 9.18688 28.1528 8.5 26.8802 8.5V11.5C27.0682 11.5 27.2416 11.6015 27.3336 11.7654L29.9494 10.2965ZM31.2402 12.595L29.9494 10.2965L27.3336 11.7654L28.6244 14.0639L31.2402 12.595ZM31.647 14.8734C31.7692 14.1075 31.6378 13.3031 31.2402 12.595L28.6244 14.0639C28.6831 14.1684 28.7027 14.2865 28.6845 14.4007L31.647 14.8734ZM31.6846 14.8885C31.6846 14.7274 31.6725 14.5682 31.6488 14.412L28.6827 14.8622C28.6839 14.8699 28.6846 14.8786 28.6846 14.8885H31.6846ZM31.6846 19.305V14.8885H28.6846V19.305H31.6846ZM29.911 17.8302L29.9104 17.8303L30.4588 20.7798L30.4594 20.7797L29.911 17.8302ZM32.0189 19.6703C31.8848 19.4654 31.7868 19.2992 31.7217 19.1697C31.649 19.0249 31.655 18.999 31.6652 19.0605L28.7053 19.5494C28.8149 20.2128 29.2227 20.876 29.5085 21.3128L32.0189 19.6703ZM30.6272 18.1296L29.5508 19.609L31.9766 21.3741L33.053 19.8946L30.6272 18.1296ZM35.3286 17.3883C33.8257 16.2947 31.7208 16.6266 30.6272 18.1296L33.053 19.8946C33.1718 19.7314 33.4004 19.6953 33.5636 19.8141L35.3286 17.3883ZM36.0699 22.0897C37.1635 20.5867 36.8316 18.4818 35.3287 17.3883L33.5636 19.8141C33.7268 19.9328 33.7629 20.1614 33.6441 20.3247L36.0699 22.0897ZM33.9754 24.9684L36.0699 22.0897L33.6441 20.3247L31.5496 23.2034L33.9754 24.9684ZM32.1312 29.1987C32.9934 28.4297 33.5046 27.4361 33.8061 26.5551C34.1098 25.6676 34.2354 24.794 34.2613 24.1457L31.2637 24.0261C31.2478 24.4247 31.1651 25.0068 30.9677 25.5838C30.768 26.1672 30.4853 26.6468 30.1344 26.9597L32.1312 29.1987ZM26.8258 31.5406C29.0206 31.3757 30.5166 30.6386 32.1312 29.1987L30.1344 26.9597C28.9357 28.0287 28.0437 28.4407 26.601 28.5491L26.8258 31.5406ZM19.3201 25.9148C19.4387 27.9652 20.4013 29.5193 21.8881 30.4719C23.3136 31.3853 25.0946 31.6707 26.8258 31.5406L26.601 28.5491C25.3008 28.6468 24.2254 28.4065 23.5066 27.946C22.8491 27.5247 22.3796 26.8566 22.3151 25.7417L19.3201 25.9148ZM19.3021 25.5993C19.3079 25.7025 19.3139 25.8077 19.3201 25.9148L22.3151 25.7417C22.309 25.6356 22.303 25.5316 22.2973 25.4294L19.3021 25.5993ZM20.0164 26.9995C20.346 27.0462 20.6808 27.0462 21.0104 26.9995L20.5889 24.0292C20.5389 24.0363 20.4878 24.0363 20.4378 24.0292L20.0164 26.9995ZM18.7295 25.4294C18.7237 25.5316 18.7178 25.6356 18.7116 25.7416L21.7066 25.9148C21.7128 25.8077 21.7188 25.7025 21.7247 25.5993L18.7295 25.4294ZM18.7116 25.7416C18.6472 26.8566 18.1776 27.5247 17.5202 27.946C16.8014 28.4065 15.726 28.6467 14.4258 28.549L14.201 31.5406C15.9322 31.6707 17.7132 31.3853 19.1386 30.4719C20.6254 29.5193 21.5881 27.9651 21.7066 25.9148L18.7116 25.7416ZM14.4258 28.549C12.9831 28.4406 12.091 28.0287 10.8924 26.9597L8.89559 29.1986C10.5102 30.6386 12.0062 31.3757 14.201 31.5406L14.4258 28.549ZM10.8924 26.9597C10.5415 26.6467 10.2588 26.1672 10.0591 25.5838C9.86167 25.0068 9.77902 24.4247 9.76311 24.0261L6.76549 24.1458C6.79137 24.7941 6.91702 25.6677 7.2207 26.5551C7.52218 27.4361 8.03342 28.4297 8.89559 29.1986L10.8924 26.9597ZM9.47721 23.2035L7.38258 20.3246L4.95675 22.0897L7.05138 24.9685L9.47721 23.2035ZM7.38258 20.3246C7.26382 20.1614 7.29987 19.9328 7.46309 19.8141L5.69805 17.3882C4.19508 18.4818 3.86319 20.5867 4.95675 22.0897L7.38258 20.3246ZM7.46309 19.8141C7.62631 19.6953 7.8549 19.7313 7.97366 19.8946L10.3995 18.1295C9.30593 16.6266 7.20102 16.2947 5.69805 17.3882L7.46309 19.8141ZM7.97366 19.8946L9.05015 21.3741L11.476 19.609L10.3995 18.1295L7.97366 19.8946ZM11.5183 21.3128C11.8041 20.876 12.2119 20.2128 12.3215 19.5493L9.36158 19.0605C9.37173 18.999 9.37777 19.0249 9.30506 19.1697C9.23999 19.2992 9.14193 19.4654 9.00788 19.6703L11.5183 21.3128ZM10.5653 20.7793L10.5659 20.7794L11.1184 17.8307L11.1177 17.8306L10.5653 20.7793ZM12.3421 19.305V14.8884H9.34214V19.305H12.3421ZM12.3421 14.8884C12.3421 14.8785 12.3429 14.8698 12.3441 14.862L9.3784 14.4094C9.35444 14.5665 9.34214 14.7265 9.34214 14.8884H12.3421ZM9.78809 12.5936C9.39018 13.3012 9.25828 14.105 9.37976 14.8707L12.3427 14.4007C12.3246 14.2865 12.3443 14.1685 12.403 14.064L9.78809 12.5936ZM11.0809 10.2947L9.78809 12.5936L12.403 14.064L13.6958 11.7651L11.0809 10.2947Z" fill="white"/>
</g>
<g id="Group 1912055806">
<g id="Group 1912055788">
<path id="Union_2" fill-rule="evenodd" clip-rule="evenodd" d="M15.7541 12.4688C14.7962 12.4688 14.0196 13.2453 14.0196 14.2033V14.2067C13.7593 13.629 13.1785 13.2269 12.5038 13.2269C11.5861 13.2269 10.8421 13.9708 10.8421 14.8885V19.3051L10.8415 19.305C10.7902 19.6157 10.5629 20.0333 10.2631 20.4916L9.18657 19.0121C8.58041 18.179 7.41366 17.9951 6.58057 18.6012C5.74747 19.2074 5.56351 20.3741 6.16967 21.2072L8.2643 24.0861C8.30609 25.133 8.6809 26.9974 9.89398 28.0792C11.3006 29.3337 12.4946 29.9082 14.3134 30.0449C17.3448 30.2727 20.0261 28.9936 20.2091 25.8283C20.329 23.7542 20.3846 22.4125 20.4065 21.6807H20.4163V21.2909C20.4179 21.2046 20.4186 21.1376 20.4186 21.0891L20.4163 21.0887V16.5791C20.4163 15.6614 19.6724 14.9174 18.7547 14.9174C18.2475 14.9174 17.7935 15.1446 17.4887 15.5027V14.2033C17.4887 13.2453 16.7121 12.4688 15.7541 12.4688Z" fill="#FFB07D"/>
<path id="Ellipse 937" d="M14.356 26.3899C14.7215 25.4873 14.446 24.127 13.8258 23.3361C12.9908 22.2715 11.8157 22.0676 11.035 22.0676" stroke="#B74800" stroke-opacity="0.5" stroke-width="0.97869" stroke-linecap="round"/>
<path id="Rectangle 34627545" d="M17.4804 20.2765V14.1308C17.4804 13.2129 16.7362 12.4688 15.8183 12.4688V12.4688C14.9004 12.4688 14.1562 13.2129 14.1562 14.1308V19.8762" stroke="#B74800" stroke-opacity="0.5" stroke-width="0.97869" stroke-linecap="round"/>
</g>
<g id="Group 1912055803">
<path id="Union_3" fill-rule="evenodd" clip-rule="evenodd" d="M25.2732 12.4688C26.2312 12.4688 27.0078 13.2453 27.0078 14.2033V14.2069C27.268 13.6291 27.8488 13.2269 28.5236 13.2269C29.4413 13.2269 30.1853 13.9708 30.1853 14.8885V19.3051L30.1859 19.305C30.2372 19.6157 30.4644 20.0333 30.7643 20.4916L31.8408 19.0121C32.4469 18.179 33.6137 17.9951 34.4468 18.6012C35.2799 19.2074 35.4638 20.3741 34.8577 21.2072L32.7631 24.086C32.7213 25.1329 32.3465 26.9974 31.1334 28.0792C29.7268 29.3337 28.5328 29.9082 26.714 30.0449C23.6827 30.2727 21.0013 28.9936 20.8183 25.8283C20.6984 23.7542 20.6428 22.4125 20.6209 21.6807H20.6111V21.2909C20.6095 21.2046 20.6088 21.1376 20.6088 21.0891L20.6111 21.0887V16.5791C20.6111 15.6614 21.355 14.9174 22.2728 14.9174C22.7798 14.9174 23.2339 15.1446 23.5387 15.5027V14.2033C23.5387 13.2453 24.3153 12.4688 25.2732 12.4688Z" fill="#FFB07D"/>
<path id="Ellipse 937_2" d="M26.6713 26.3899C26.3058 25.4873 26.5813 24.127 27.2016 23.3361C28.0366 22.2715 29.2116 22.0676 29.9923 22.0676" stroke="#B74800" stroke-opacity="0.5" stroke-width="0.97869" stroke-linecap="round"/>
<path id="Rectangle 34627545_2" d="M23.547 20.2765V14.1308C23.547 13.2129 24.2911 12.4688 25.209 12.4688V12.4688C26.127 12.4688 26.8711 13.2129 26.8711 14.1308V19.8762" stroke="#B74800" stroke-opacity="0.5" stroke-width="0.97869" stroke-linecap="round"/>
</g>
</g>
<g id="Mask group">
<mask id="mask0_2693_44075" style="mask-type:alpha" maskUnits="userSpaceOnUse" x="10" y="10" width="21" height="16">
<path id="Union_4" d="M14.1497 10C13.4199 10 12.7468 10.3937 12.389 11.0299L11.0963 13.3288C10.6855 14.0593 10.7684 14.9675 11.3047 15.6115L18.9617 24.8071C19.7693 25.777 21.2587 25.777 22.0663 24.8072L29.724 15.6111C30.26 14.9675 30.3431 14.0598 29.933 13.3295L28.6423 11.0309C28.2847 10.3942 27.6112 10 26.881 10H14.1497Z" fill="#D9D9D9"/>
</mask>
<g mask="url(#mask0_2693_44075)">
<g id="Group 1912055777">
<g id="Polygon 9">
<path d="M20.5117 26.6722L30.6176 14.5367L22.8377 14.8145L20.5117 26.6722Z" fill="#3DB9F2"/>
<path d="M20.5117 26.6722L30.6176 14.5367L22.8377 14.8145L20.5117 26.6722Z" fill="#0279FE" fill-opacity="0.2"/>
</g>
<g id="Polygon 10">
<path d="M20.5156 26.6722L10.4097 14.5367L18.1897 14.8145L20.5156 26.6722Z" fill="#3DB9F2"/>
<path d="M20.5156 26.6722L10.4097 14.5367L18.1897 14.8145L20.5156 26.6722Z" fill="#0279FE" fill-opacity="0.2"/>
</g>
<path id="Subtract" d="M12.9685 9.9989L10.4141 14.5444L18.3131 14.8145L18.1777 9.9989H12.9685Z" fill="white"/>
<path id="Subtract_2" d="M18.1787 9.9989H14.1528C13.422 9.9989 12.7482 10.3937 12.3908 11.0311L10.8911 13.7064C10.5197 14.3688 10.9849 15.1888 11.7441 15.2098L17.4756 15.3687" stroke="#31ACF4" stroke-width="1.616"/>
<path id="Subtract_3" d="M28.0627 9.9989L30.6172 14.5444L22.7181 14.8145L22.8535 9.9989H28.0627Z" fill="#0279FE"/>
<g id="Polygon 8">
<path d="M20.5177 26.6685L24.469 14.8146H16.5664L20.5177 26.6685Z" fill="#3DB9F2"/>
<path d="M20.5177 26.6685L24.469 14.8146H16.5664L20.5177 26.6685Z" fill="#0279FE"/>
</g>
<g id="Subtract_4">
<path d="M18.1716 9.9989L16.5664 14.8145H24.469L22.8638 9.9989H18.1716Z" fill="#3DB9F2"/>
<path d="M18.1716 9.9989L16.5664 14.8145H24.469L22.8638 9.9989H18.1716Z" fill="#0279FE" fill-opacity="0.2"/>
</g>
</g>
</g>
</g>
</g>
</g>
</g>
</svg>
