<svg width="36" height="37" viewBox="0 0 36 37" fill="none" xmlns="http://www.w3.org/2000/svg">
<g id="Group 1912055910">
<g id="Union">
<path fill-rule="evenodd" clip-rule="evenodd" d="M14.9596 1.74707C15.2243 1.74707 15.4877 1.75616 15.7495 1.77407C15.7996 1.77335 15.8499 1.77297 15.9002 1.77293L15.9103 1.77292C22.1784 1.77292 27.698 6.98031 28.7845 13.6534C28.857 14.0983 28.9097 14.5496 28.9416 15.0064C29.2388 19.2554 27.6713 23.0366 24.9932 25.4579L26.456 25.9814L27.1495 28.1386C27.1495 28.1386 27.1342 28.2767 27.4081 26.9002C27.7503 25.1797 29.3143 23.9547 30.9708 23.7841C32.2854 23.6487 33.7035 24.679 34.2532 25.3436L25.4747 34.4388L24.0459 28.4785L21.9163 27.566C21.424 27.8219 20.9105 28.0409 20.3784 28.2199L20.3185 28.2501C18.7481 29.0851 16.9527 29.5534 15.0212 29.5534C14.1986 29.5534 13.3889 29.4685 12.6 29.3065L13.066 30.3388L11.9954 32.3359C11.9954 32.3359 11.8855 32.4207 13.066 31.6619C14.5417 30.7133 16.5093 30.9879 17.7824 32.0613C18.7928 32.9131 19.0362 34.649 18.9398 35.5061H6.29923L9.59553 30.3388L8.60911 27.741C8.38541 27.607 8.16539 27.4663 7.94933 27.3193C4.49478 24.9685 2.05321 20.9875 1.73747 16.4722C1.40989 11.7877 3.45084 7.67831 6.78878 5.36777C8.8401 3.12123 11.705 1.74707 14.9596 1.74707Z" fill="white"/>
<path d="M15.7495 1.77407L15.654 3.17081C15.6924 3.17343 15.7309 3.17448 15.7694 3.17393L15.7495 1.77407ZM15.9002 1.77293L15.8996 0.372929L15.899 0.37293L15.9002 1.77293ZM15.9103 1.77292V0.372925L15.9097 0.372925L15.9103 1.77292ZM28.7845 13.6534L27.4027 13.8784V13.8784L28.7845 13.6534ZM28.9416 15.0064L30.3382 14.9088V14.9088L28.9416 15.0064ZM24.9932 25.4579L24.0543 24.4195C23.6891 24.7496 23.5242 25.2473 23.6199 25.7302C23.7157 26.2131 24.058 26.6103 24.5215 26.7761L24.9932 25.4579ZM26.456 25.9814L27.7889 25.5529C27.6557 25.1386 27.3374 24.8098 26.9277 24.6632L26.456 25.9814ZM27.1495 28.1386L28.541 28.2927C28.5627 28.0966 28.5427 27.898 28.4823 27.7102L27.1495 28.1386ZM27.4081 26.9002L28.7811 27.1734V27.1734L27.4081 26.9002ZM30.9708 23.7841L30.8274 22.3914L30.9708 23.7841ZM34.2532 25.3436L35.2605 26.3159C35.7554 25.8032 35.7862 25.0005 35.332 24.4514L34.2532 25.3436ZM25.4747 34.4388L24.1133 34.7651C24.2325 35.2623 24.6132 35.655 25.1064 35.7895C25.5997 35.924 26.127 35.7789 26.4821 35.411L25.4747 34.4388ZM24.0459 28.4785L25.4073 28.1521C25.3042 27.7219 25.0039 27.3658 24.5972 27.1916L24.0459 28.4785ZM21.9163 27.566L22.4676 26.2792C22.0821 26.114 21.6429 26.1304 21.2707 26.3238L21.9163 27.566ZM20.3784 28.2199L19.9319 26.893C19.8688 26.9142 19.8074 26.9399 19.748 26.9699L20.3784 28.2199ZM20.3185 28.2501L19.6882 27C19.6792 27.0046 19.6702 27.0092 19.6613 27.014L20.3185 28.2501ZM12.6 29.3065L12.8815 27.9351C12.3663 27.8293 11.8352 28.0212 11.5066 28.432C11.1781 28.8428 11.1075 29.4031 11.324 29.8825L12.6 29.3065ZM13.066 30.3388L14.2999 31.0002C14.5055 30.6167 14.5211 30.1593 14.342 29.7627L13.066 30.3388ZM11.9954 32.3359L12.8509 33.4441C13.0071 33.3235 13.1361 33.1712 13.2293 32.9973L11.9954 32.3359ZM13.066 31.6619L13.823 32.8395L13.823 32.8395L13.066 31.6619ZM17.7824 32.0613L18.6848 30.9909L18.6848 30.9909L17.7824 32.0613ZM18.9398 35.5061V36.9061C19.6524 36.9061 20.2513 36.3708 20.331 35.6627L18.9398 35.5061ZM6.29923 35.5061L5.11893 34.7532C4.84398 35.1842 4.82584 35.7308 5.07161 36.1791C5.31738 36.6274 5.78798 36.9061 6.29923 36.9061V35.5061ZM9.59553 30.3388L10.7758 31.0917C11.0137 30.7188 11.0614 30.2553 10.9044 29.8418L9.59553 30.3388ZM8.60911 27.741L9.91793 27.244C9.8062 26.9497 9.59856 26.7017 9.32853 26.54L8.60911 27.741ZM7.94933 27.3193L8.73695 26.1619L8.73695 26.1619L7.94933 27.3193ZM1.73747 16.4722L3.13406 16.3745L1.73747 16.4722ZM6.78878 5.36777L7.58559 6.51889C7.67214 6.45899 7.75166 6.38951 7.82263 6.31178L6.78878 5.36777ZM15.845 0.377333C15.5516 0.357261 15.2563 0.34707 14.9596 0.34707V3.14707C15.1922 3.14707 15.4237 3.15506 15.654 3.17081L15.845 0.377333ZM15.899 0.37293C15.8424 0.37298 15.7859 0.373408 15.7295 0.374212L15.7694 3.17393C15.8134 3.1733 15.8574 3.17297 15.9015 3.17293L15.899 0.37293ZM15.9097 0.372925L15.8996 0.372929L15.9009 3.17293L15.9109 3.17292L15.9097 0.372925ZM30.1663 13.4284C28.9872 6.1868 22.9695 0.372925 15.9103 0.372925V3.17292C21.3872 3.17292 26.4087 7.77382 27.4027 13.8784L30.1663 13.4284ZM30.3382 14.9088C30.3033 14.409 30.2456 13.9152 30.1663 13.4284L27.4027 13.8784C27.4683 14.2814 27.5161 14.6903 27.5451 15.1041L30.3382 14.9088ZM25.9321 26.4964C28.9492 23.7686 30.6634 19.5589 30.3382 14.9088L27.5451 15.1041C27.8141 18.9519 26.3934 22.3047 24.0543 24.4195L25.9321 26.4964ZM26.9277 24.6632L25.4648 24.1398L24.5215 26.7761L25.9844 27.2995L26.9277 24.6632ZM28.4823 27.7102L27.7889 25.5529L25.1232 26.4098L25.8167 28.567L28.4823 27.7102ZM26.035 26.6271C25.898 27.3156 25.8359 27.612 25.8091 27.7334C25.7883 27.8274 25.7978 27.7726 25.8228 27.6973C25.8284 27.6805 25.841 27.6433 25.8605 27.5971C25.8661 27.5839 25.9253 27.4349 26.0488 27.2777C26.0927 27.2217 26.2932 26.9645 26.6703 26.8271C26.8931 26.7459 27.1838 26.7055 27.4989 26.7867C27.807 26.8661 28.0266 27.0328 28.1651 27.1788C28.4047 27.4313 28.4798 27.7011 28.4977 27.7652C28.5265 27.868 28.537 27.9519 28.5414 27.9923C28.5504 28.0763 28.5495 28.1423 28.5492 28.1645C28.5486 28.1949 28.5472 28.2193 28.5463 28.2332C28.5453 28.2484 28.5442 28.261 28.5433 28.2698C28.5429 28.2744 28.5425 28.2787 28.5421 28.2824C28.5419 28.2843 28.5417 28.2861 28.5415 28.2878C28.5414 28.2887 28.5414 28.2895 28.5413 28.2903C28.5412 28.2907 28.5412 28.2913 28.5411 28.2915C28.5411 28.2921 28.541 28.2927 27.1495 28.1386C25.758 27.9845 25.758 27.9851 25.7579 27.9857C25.7579 27.9859 25.7578 27.9865 25.7578 27.9869C25.7577 27.9877 25.7576 27.9886 25.7575 27.9895C25.7573 27.9912 25.7571 27.9931 25.7569 27.995C25.7565 27.9989 25.7561 28.0033 25.7556 28.0081C25.7547 28.0173 25.7536 28.0305 25.7525 28.0464C25.7515 28.061 25.7501 28.0861 25.7496 28.1173C25.7492 28.1402 25.7483 28.2068 25.7574 28.2914C25.7618 28.332 25.7724 28.4162 25.8012 28.5192C25.8191 28.5835 25.8943 28.8534 26.134 29.106C26.2725 29.2521 26.4922 29.4188 26.8003 29.4982C27.1155 29.5794 27.4063 29.539 27.6291 29.4578C28.0063 29.3204 28.2069 29.063 28.251 29.0069C28.3748 28.8492 28.4344 28.6996 28.4405 28.6851C28.4605 28.6377 28.4737 28.599 28.48 28.58C28.5107 28.4876 28.5335 28.3813 28.5431 28.3378C28.5771 28.1841 28.6443 27.8613 28.7811 27.1734L26.035 26.6271ZM30.8274 22.3914C28.6447 22.6162 26.513 24.2243 26.035 26.6271L28.7811 27.1734C28.9877 26.1351 29.984 25.2931 31.1142 25.1767L30.8274 22.3914ZM35.332 24.4514C34.9352 23.9716 34.3022 23.4386 33.5745 23.0377C32.8553 22.6414 31.8779 22.2832 30.8274 22.3914L31.1142 25.1767C31.3783 25.1495 31.7673 25.2388 32.2232 25.49C32.6706 25.7366 33.0215 26.0511 33.1744 26.2359L35.332 24.4514ZM26.4821 35.411L35.2605 26.3159L33.2459 24.3714L24.4674 33.4665L26.4821 35.411ZM22.6845 28.8048L24.1133 34.7651L26.8361 34.1124L25.4073 28.1521L22.6845 28.8048ZM21.3649 28.8529L23.4945 29.7653L24.5972 27.1916L22.4676 26.2792L21.3649 28.8529ZM20.8249 29.5468C21.4261 29.3445 22.0061 29.0971 22.5619 28.8083L21.2707 26.3238C20.8419 26.5466 20.3949 26.7372 19.9319 26.893L20.8249 29.5468ZM20.9489 29.5002L21.0087 29.47L19.748 26.9699L19.6882 27L20.9489 29.5002ZM15.0212 30.9534C17.1827 30.9534 19.2037 30.4285 20.9758 29.4862L19.6613 27.014C18.2925 27.7418 16.7227 28.1534 15.0212 28.1534V30.9534ZM12.3184 30.6779C13.198 30.8585 14.102 30.9534 15.0212 30.9534V28.1534C14.2952 28.1534 13.5798 28.0784 12.8815 27.9351L12.3184 30.6779ZM14.342 29.7627L13.876 28.7304L11.324 29.8825L11.79 30.9148L14.342 29.7627ZM13.2293 32.9973L14.2999 31.0002L11.8321 29.6773L10.7615 31.6744L13.2293 32.9973ZM12.309 30.4842C11.7184 30.8638 11.4621 31.025 11.3561 31.09C11.2741 31.1403 11.3201 31.1091 11.3916 31.0748C11.4076 31.0671 11.4431 31.0504 11.4899 31.0323C11.5033 31.0272 11.6516 30.9663 11.8506 30.946C11.9213 30.9387 12.2457 30.9044 12.6065 31.0803C12.8195 31.1842 13.0504 31.3653 13.2108 31.6485C13.3676 31.9253 13.4002 32.199 13.3914 32.4001C13.3761 32.7478 13.2341 32.9892 13.2004 33.0465C13.1464 33.1387 13.0934 33.2046 13.0673 33.2357C13.0131 33.3006 12.9651 33.3457 12.9488 33.3609C12.9266 33.3817 12.9081 33.3975 12.8974 33.4066C12.8857 33.4164 12.8759 33.4244 12.869 33.4299C12.8654 33.4328 12.8621 33.4354 12.8591 33.4377C12.8576 33.4389 12.8562 33.44 12.8548 33.4411C12.8541 33.4416 12.8535 33.4421 12.8528 33.4426C12.8525 33.4429 12.852 33.4432 12.8518 33.4434C12.8514 33.4437 12.8509 33.4441 11.9954 32.3359C11.14 31.2276 11.1395 31.228 11.139 31.2284C11.1389 31.2285 11.1384 31.2289 11.138 31.2291C11.1374 31.2296 11.1367 31.2301 11.136 31.2307C11.1346 31.2318 11.1332 31.2329 11.1316 31.2341C11.1286 31.2365 11.1251 31.2393 11.1213 31.2423C11.1141 31.2481 11.1038 31.2564 11.0916 31.2667C11.0804 31.2761 11.0613 31.2925 11.0385 31.3138C11.0218 31.3294 10.9732 31.3751 10.9187 31.4403C10.8925 31.4717 10.8393 31.5377 10.7852 31.6301C10.7514 31.6876 10.6094 31.9292 10.5941 32.277C10.5852 32.4781 10.6178 32.7519 10.7747 33.0287C10.9351 33.3119 11.166 33.4931 11.3791 33.597C11.74 33.773 12.0646 33.7387 12.1356 33.7314C12.335 33.711 12.4841 33.6499 12.4987 33.6443C12.5467 33.6258 12.5838 33.6084 12.6018 33.5997C12.6896 33.5577 12.7819 33.5002 12.8199 33.4769C12.9541 33.3946 13.2331 33.2188 13.823 32.8395L12.309 30.4842ZM18.6848 30.9909C17.0072 29.5765 14.3698 29.1595 12.309 30.4842L13.823 32.8395C14.7136 32.2671 16.0113 32.3992 16.88 33.1316L18.6848 30.9909ZM20.331 35.6627C20.4006 35.0439 20.3445 34.2184 20.1276 33.4163C19.9133 32.6236 19.4922 31.6717 18.6848 30.9909L16.88 33.1316C17.0829 33.3027 17.2888 33.6447 17.4247 34.1472C17.558 34.6403 17.5754 35.1112 17.5486 35.3495L20.331 35.6627ZM6.29923 36.9061H18.9398V34.1061H6.29923V36.9061ZM8.41524 29.5858L5.11893 34.7532L7.47953 36.259L10.7758 31.0917L8.41524 29.5858ZM7.30029 28.238L8.28671 30.8357L10.9044 29.8418L9.91793 27.244L7.30029 28.238ZM7.16171 28.4767C7.39991 28.6388 7.64267 28.794 7.8897 28.942L9.32853 26.54C9.12814 26.4199 8.93086 26.2938 8.73695 26.1619L7.16171 28.4767ZM0.340876 16.5698C0.687505 21.5269 3.36413 25.8925 7.16171 28.4767L8.73695 26.1619C5.62543 24.0445 3.41891 20.4482 3.13406 16.3745L0.340876 16.5698ZM5.99197 4.21664C2.22757 6.82238 -0.0194196 11.4174 0.340876 16.5698L3.13406 16.3745C2.83921 12.158 4.67411 8.53423 7.58559 6.51889L5.99197 4.21664ZM14.9596 0.34707C11.2922 0.34707 8.05811 1.90139 5.75493 4.42376L7.82263 6.31178C9.62209 4.34107 12.1178 3.14707 14.9596 3.14707V0.34707Z" fill="white"/>
</g>
<path id="Vector 1925" d="M18.9415 35.5002H6.30095L9.59725 30.3329L8.41556 27.2208L11.9972 27.9615L13.0677 30.3329L11.9972 32.33C11.9972 32.33 11.8872 32.4148 13.0677 31.656C14.5434 30.7074 16.511 30.982 17.7841 32.0554C18.7945 32.9073 19.0379 34.6432 18.9415 35.5002Z" fill="#245E28"/>
<path id="Vector 1926" d="M34.2406 25.3182L25.4621 34.4134L24.0333 28.453L20.9734 27.1421L23.9937 25.0794L26.4434 25.956L27.1369 28.1132C27.1369 28.1132 27.1216 28.2512 27.3954 26.8748C27.7377 25.1543 29.3017 23.9293 30.9582 23.7587C32.2728 23.6233 33.6909 24.6536 34.2406 25.3182Z" fill="#245E28"/>
<g id="Mask group">
<mask id="mask0_2681_42026" style="mask-type:alpha" maskUnits="userSpaceOnUse" x="1" y="3" width="26" height="27">
<path id="Union_2" fill-rule="evenodd" clip-rule="evenodd" d="M13.1917 3.3651C12.2037 3.3651 11.2513 3.48761 10.3464 3.71906L10.2702 3.32373L8.11692 4.55323C4.00565 6.62101 1.36842 11.1687 1.73747 16.4463C2.24266 23.6708 8.18997 29.5275 15.0212 29.5275C16.9527 29.5275 18.7481 29.0592 20.3185 28.2243L22.4773 27.1357L22.5291 26.6783C25.2026 24.2814 26.7651 20.5887 26.4754 16.4463C25.9702 9.22175 20.0229 3.3651 13.1917 3.3651Z" fill="#003601"/>
</mask>
<g mask="url(#mask0_2681_42026)">
<g id="Union_3">
<path fill-rule="evenodd" clip-rule="evenodd" d="M13.1917 3.3651C12.2037 3.3651 11.2513 3.48761 10.3464 3.71906L10.2702 3.32373L8.11692 4.55323C4.00565 6.62101 1.36842 11.1687 1.73747 16.4463C2.24266 23.6708 8.18997 29.5275 15.0212 29.5275C16.9527 29.5275 18.7481 29.0592 20.3185 28.2243L22.4773 27.1357L22.5291 26.6783C25.2026 24.2814 26.7651 20.5887 26.4754 16.4463C25.9702 9.22175 20.0229 3.3651 13.1917 3.3651Z" fill="#3A963F"/>
<path fill-rule="evenodd" clip-rule="evenodd" d="M13.1917 3.3651C12.2037 3.3651 11.2513 3.48761 10.3464 3.71906L10.2702 3.32373L8.11692 4.55323C4.00565 6.62101 1.36842 11.1687 1.73747 16.4463C2.24266 23.6708 8.18997 29.5275 15.0212 29.5275C16.9527 29.5275 18.7481 29.0592 20.3185 28.2243L22.4773 27.1357L22.5291 26.6783C25.2026 24.2814 26.7651 20.5887 26.4754 16.4463C25.9702 9.22175 20.0229 3.3651 13.1917 3.3651Z" fill="black" fill-opacity="0.2"/>
</g>
<rect id="Rectangle 34627575" opacity="0.5" x="6.57031" y="20.3245" width="1.35408" height="7.92743" transform="rotate(46.9705 6.57031 20.3245)" fill="#013B00"/>
<rect id="Rectangle 34627577" opacity="0.5" x="8.67578" y="23.3159" width="1.35408" height="7.92743" transform="rotate(46.9705 8.67578 23.3159)" fill="#013B00"/>
<rect id="Rectangle 34627578" opacity="0.5" x="11.5859" y="25.9586" width="1.35408" height="7.92743" transform="rotate(46.9705 11.5859 25.9586)" fill="#013B00"/>
<rect id="Rectangle 34627579" opacity="0.5" x="16.8359" y="26.5153" width="1.35408" height="7.92743" transform="rotate(46.9705 16.8359 26.5153)" fill="#013B00"/>
<rect id="Rectangle 34627576" opacity="0.5" x="5.28906" y="16.2406" width="1.35408" height="7.92743" transform="rotate(46.9705 5.28906 16.2406)" fill="#013B00"/>
<rect id="Rectangle 34627580" opacity="0.5" x="4.59375" y="11.311" width="1.35408" height="7.92743" transform="rotate(46.9705 4.59375 11.311)" fill="#013B00"/>
<rect id="Rectangle 34627581" opacity="0.5" x="8.73047" y="3.27368" width="1.35408" height="14.4285" transform="rotate(46.9705 8.73047 3.27368)" fill="#013B00"/>
<ellipse id="Ellipse 5733" opacity="0.3" cx="12.369" cy="13.5549" rx="12.369" ry="13.5549" transform="matrix(1 0 0.0697565 0.997564 2.58984 1.72107)" fill="#013B00"/>
</g>
</g>
<g id="Mask group_2">
<mask id="mask1_2681_42026" style="mask-type:alpha" maskUnits="userSpaceOnUse" x="4" y="1" width="25" height="28">
<ellipse id="Ellipse 5730" cx="12.106" cy="13.2658" rx="12.106" ry="13.2658" transform="matrix(1 0 0.0697565 0.997564 3.80469 1.74707)" fill="#3A963F"/>
</mask>
<g mask="url(#mask1_2681_42026)">
<ellipse id="Ellipse 5756" cx="12.106" cy="13.2658" rx="12.106" ry="13.2658" transform="matrix(1 0 0.0697565 0.997564 3.80469 1.74707)" fill="#3A963F"/>
<path id="Ellipse 5758" d="M28.942 14.9806C29.4531 22.2892 24.4474 28.2141 17.7614 28.2141C11.0755 28.2141 5.24114 22.2892 4.73006 14.9806C4.21899 7.67192 9.22471 1.74707 15.9107 1.74707C22.5966 1.74707 28.4309 7.67192 28.942 14.9806Z" fill="#3A963F"/>
<path id="Ellipse 5758 (Stroke)" fill-rule="evenodd" clip-rule="evenodd" d="M17.5666 25.4279C22.475 25.4279 26.5696 20.9959 26.149 14.9806C25.7284 8.96529 21.0139 4.53327 16.1055 4.53327C11.1971 4.53327 6.53709 8.96529 6.95772 14.9806C7.39834 21.2817 12.6582 25.4279 17.5666 25.4279ZM17.7614 28.2141C24.4474 28.2141 29.4531 22.2893 28.942 14.9806C28.4309 7.67192 22.5966 1.74707 15.9107 1.74707C9.22471 1.74707 4.21899 7.67192 4.73006 14.9806C5.24114 22.2893 11.0755 28.2141 17.7614 28.2141Z" fill="#50AB54"/>
<path id="Ellipse 5757" d="M16.8344 28.9851C10.162 28.5591 4.71694 22.2747 4.67248 14.9483C4.65472 12.0228 5.50079 9.37349 6.94847 7.27343" stroke="white" stroke-width="0.67032"/>
</g>
</g>
<g id="Ellipse 5755" opacity="0.4">
<ellipse cx="9.6223" cy="10.2952" rx="9.6223" ry="10.2952" transform="matrix(1 0 0.0697565 0.997564 6.21094 4.7655)" fill="#3A963F"/>
<ellipse cx="9.6223" cy="10.2952" rx="9.6223" ry="10.2952" transform="matrix(1 0 0.0697565 0.997564 6.21094 4.7655)" fill="black" fill-opacity="0.4"/>
</g>
<g id="Subtract">
<path fill-rule="evenodd" clip-rule="evenodd" d="M24.3301 21.8094C25.7142 19.9642 26.464 17.5261 26.2771 14.8531C25.8744 9.09531 21.2782 4.42773 16.011 4.42773C12.8983 4.42773 10.248 6.05777 8.68359 8.57955C10.2808 6.45025 12.7228 5.11055 15.5446 5.11055C20.8118 5.11055 25.4081 9.77812 25.8107 15.5359C25.9754 17.8911 25.4129 20.0638 24.3301 21.8094Z" fill="#3A963F"/>
<path fill-rule="evenodd" clip-rule="evenodd" d="M24.3301 21.8094C25.7142 19.9642 26.464 17.5261 26.2771 14.8531C25.8744 9.09531 21.2782 4.42773 16.011 4.42773C12.8983 4.42773 10.248 6.05777 8.68359 8.57955C10.2808 6.45025 12.7228 5.11055 15.5446 5.11055C20.8118 5.11055 25.4081 9.77812 25.8107 15.5359C25.9754 17.8911 25.4129 20.0638 24.3301 21.8094Z" fill="black" fill-opacity="0.7"/>
</g>
<ellipse id="Ellipse 943" cx="8.68564" cy="5.85948" rx="0.94233" ry="1.46591" transform="rotate(44.304 8.68564 5.85948)" fill="white"/>
<g id="Mask group_3">
<mask id="mask2_2681_42026" style="mask-type:alpha" maskUnits="userSpaceOnUse" x="6" y="5" width="20" height="21">
<ellipse id="Ellipse 5752" cx="9.47141" cy="10.1402" rx="9.47141" ry="10.1402" transform="matrix(1 0 0.0697565 0.997564 6.30078 5.07275)" fill="#3A963F"/>
</mask>
<g mask="url(#mask2_2681_42026)">
<g id="Group 1912055890">
<g id="Group 1912055889">
<ellipse id="Ellipse 5746" cx="19.9691" cy="13.8418" rx="3.74793" ry="3.54824" transform="rotate(5.26334 19.9691 13.8418)" fill="white"/>
<path id="Subtract_2" opacity="0.5" fill-rule="evenodd" clip-rule="evenodd" d="M19.4236 12.9651C18.9204 12.2696 18.0366 11.8743 16.4293 11.8743C14.5322 11.8743 12.8517 12.4977 11.8164 13.4564C11.8837 11.4005 13.5715 9.75452 15.6438 9.75452C17.5481 9.75452 19.1277 11.1444 19.4236 12.9651Z" fill="#D9D9D9"/>
<path id="Vector 1912" d="M17.3302 10.2972C16.6107 7.31204 13.3909 6.91396 11.4573 9.70003C9.43383 11.5795 5.79153 17.6602 6.24119 22.7901" stroke="#013B00" stroke-width="0.362978" stroke-linejoin="round"/>
<path id="Vector 1913" d="M21.7443 10.8145C20.7869 8.1417 18.4412 7.14214 16.7695 9.13876" stroke="#013B00" stroke-width="0.362978" stroke-linejoin="round"/>
<path id="Vector 1914" d="M24.1469 16.7731C23.8279 16.3529 23.4587 16.0068 23.0586 15.7454" stroke="#013B00" stroke-width="0.362978" stroke-linejoin="round"/>
<path id="Vector 1915" d="M19.4713 24.7268C22.7383 23.2988 23.3162 20.7905 23.4258 20.1577" stroke="#013B00" stroke-width="0.362978" stroke-linejoin="round"/>
<g id="Subtract_3" filter="url(#filter0_d_2681_42026)">
<path fill-rule="evenodd" clip-rule="evenodd" d="M20.5586 13.4286V14.4373C20.5586 14.9912 21.0076 15.4402 21.5614 15.4402C22.1152 15.4402 22.5642 14.9912 22.5642 14.4373V13.3792C22.5642 12.8253 22.1152 12.3763 21.5614 12.3763C21.4604 12.3763 21.3629 12.3913 21.271 12.419C21.2959 12.4948 21.3094 12.5757 21.3094 12.6598C21.3094 13.0784 20.9749 13.4189 20.5586 13.4286Z" fill="#3A3A3A"/>
</g>
<g id="Intersect">
<path fill-rule="evenodd" clip-rule="evenodd" d="M23.374 15.3594C22.7312 16.6756 21.2634 17.5241 19.6448 17.375C18.7364 17.2913 17.9322 16.9074 17.332 16.337C18.0057 15.5142 19.4275 14.947 21.0726 14.947C21.9237 14.947 22.7151 15.0988 23.374 15.3594Z" fill="#317E35"/>
<path d="M23.374 15.3594L23.5371 15.439L23.6232 15.2627L23.4407 15.1906L23.374 15.3594ZM19.6448 17.375L19.6282 17.5557L19.6448 17.375ZM17.332 16.337L17.1916 16.2221L17.0848 16.3525L17.207 16.4686L17.332 16.337ZM23.2109 15.2797C22.6024 16.5259 21.2075 17.3367 19.6615 17.1943L19.6282 17.5557C21.3193 17.7115 22.8601 16.8252 23.5371 15.439L23.2109 15.2797ZM19.6615 17.1943C18.7942 17.1144 18.028 16.7481 17.4571 16.2055L17.207 16.4686C17.8363 17.0667 18.6786 17.4682 19.6282 17.5557L19.6615 17.1943ZM17.4725 16.452C18.0992 15.6864 19.4587 15.1285 21.0726 15.1285V14.7655C19.3963 14.7655 17.9121 15.342 17.1916 16.2221L17.4725 16.452ZM21.0726 15.1285C21.9028 15.1285 22.6714 15.2767 23.3073 15.5281L23.4407 15.1906C22.7588 14.921 21.9446 14.7655 21.0726 14.7655V15.1285Z" fill="#013B00"/>
</g>
<g id="Subtract_4">
<path fill-rule="evenodd" clip-rule="evenodd" d="M23.6927 13.4808C23.2573 12.4687 22.4317 11.875 20.8931 11.875C18.661 11.875 16.8127 13.2896 16.4926 15.134C16.2792 14.6303 16.1841 14.0738 16.237 13.4985C16.4168 11.5471 18.2335 10.1192 20.2947 10.3091C22.1032 10.4757 23.4992 11.8325 23.6927 13.4808Z" fill="#317E35"/>
<path d="M23.6927 13.4808L23.526 13.5525L23.873 13.4597L23.6927 13.4808ZM16.4926 15.134L16.3255 15.2048L16.566 15.7725L16.6714 15.165L16.4926 15.134ZM16.237 13.4985L16.4178 13.5152L16.237 13.4985ZM20.2947 10.3091L20.278 10.4898L20.2947 10.3091ZM20.8931 12.0565C21.6398 12.0565 22.1956 12.2005 22.6125 12.4535C23.0275 12.7053 23.3203 13.0743 23.526 13.5525L23.8594 13.4091C23.6297 12.8752 23.292 12.4413 22.8008 12.1432C22.3114 11.8463 21.6851 11.6935 20.8931 11.6935V12.0565ZM16.6714 15.165C16.9734 13.4248 18.7305 12.0565 20.8931 12.0565V11.6935C18.5914 11.6935 16.652 13.1543 16.3138 15.1029L16.6714 15.165ZM16.6597 15.0632C16.4576 14.5861 16.3676 14.0595 16.4178 13.5152L16.0563 13.4819C16.0005 14.088 16.1008 14.6745 16.3255 15.2048L16.6597 15.0632ZM16.4178 13.5152C16.5875 11.6728 18.3072 10.3082 20.278 10.4898L20.3113 10.1283C18.1598 9.93013 16.2461 11.4215 16.0563 13.4819L16.4178 13.5152ZM20.278 10.4898C22.0062 10.649 23.3295 11.9437 23.5125 13.502L23.873 13.4597C23.6688 11.7213 22.2003 10.3023 20.3113 10.1283L20.278 10.4898Z" fill="#013B00"/>
</g>
<ellipse id="Ellipse 5748" cx="19.9691" cy="13.8418" rx="3.74793" ry="3.54824" transform="rotate(5.26334 19.9691 13.8418)" stroke="#013B00" stroke-width="0.362978"/>
<circle id="Ellipse 5745" cx="15.642" cy="13.584" r="3.8295" fill="white"/>
<g id="Subtract_5" filter="url(#filter1_d_2681_42026)">
<path fill-rule="evenodd" clip-rule="evenodd" d="M15.7148 13.3154V14.3429C15.7148 14.9069 16.1721 15.3641 16.736 15.3641C17.3 15.3641 17.7572 14.9069 17.7572 14.3429V13.2653C17.7572 12.7013 17.3 12.2441 16.736 12.2441C16.6331 12.2441 16.5338 12.2594 16.4401 12.2877C16.4654 12.3647 16.4791 12.447 16.4791 12.5325C16.4791 12.9587 16.1386 13.3054 15.7148 13.3154Z" fill="#3A3A3A"/>
</g>
<path id="Subtract_6" fill-rule="evenodd" clip-rule="evenodd" d="M19.4693 13.7159C19.4708 13.6721 19.4715 13.6282 19.4715 13.584C19.4715 11.469 17.757 9.75452 15.642 9.75452C13.527 9.75452 11.8125 11.469 11.8125 13.584C11.8125 13.8275 11.8352 14.0658 11.8787 14.2966C12.6091 12.8779 14.4114 11.8743 16.5189 11.8743C18.3735 11.8743 19.128 12.5608 19.4693 13.7159Z" fill="#3A963F"/>
<g id="Group 1912055886">
<g id="Intersect_2">
<mask id="path-39-inside-1_2681_42026" fill="white">
<path fill-rule="evenodd" clip-rule="evenodd" d="M19.0749 15.3179C18.4424 16.5618 17.1504 17.414 15.6593 17.414C14.243 17.414 13.0063 16.6452 12.3438 15.5021C13.2467 15.0399 14.5108 14.7527 15.9102 14.7527C17.1127 14.7527 18.2155 14.9648 19.0749 15.3179Z"/>
</mask>
<path fill-rule="evenodd" clip-rule="evenodd" d="M19.0749 15.3179C18.4424 16.5618 17.1504 17.414 15.6593 17.414C14.243 17.414 13.0063 16.6452 12.3438 15.5021C13.2467 15.0399 14.5108 14.7527 15.9102 14.7527C17.1127 14.7527 18.2155 14.9648 19.0749 15.3179Z" fill="#317E35"/>
<path d="M19.0749 15.3179L19.3985 15.4824L19.5768 15.1316L19.2129 14.9821L19.0749 15.3179ZM12.3438 15.5021L12.1784 15.179L11.8379 15.3533L12.0297 15.6841L12.3438 15.5021ZM18.7514 15.1533C18.1784 16.2802 17.0085 17.051 15.6593 17.051V17.777C17.2922 17.777 18.7065 16.8433 19.3985 15.4824L18.7514 15.1533ZM15.6593 17.051C14.3777 17.051 13.2581 16.3557 12.6578 15.3201L12.0297 15.6841C12.7545 16.9346 14.1083 17.777 15.6593 17.777V17.051ZM12.5091 15.8252C13.3503 15.3946 14.5552 15.1157 15.9102 15.1157V14.3897C14.4665 14.3897 13.143 14.6852 12.1784 15.179L12.5091 15.8252ZM15.9102 15.1157C17.0729 15.1157 18.1278 15.3212 18.937 15.6536L19.2129 14.9821C18.3032 14.6084 17.1525 14.3897 15.9102 14.3897V15.1157Z" fill="#013B00" mask="url(#path-39-inside-1_2681_42026)"/>
</g>
</g>
<path id="Vector 1910" d="M20.2934 18.788C23.2358 18.788 23.8092 18.093 24.1012 16.6022C24.4366 16.8488 24.6313 17.2007 24.6313 17.667C24.6313 18.1333 24.3068 18.7095 23.9174 18.9897C24.0472 18.9897 24.1012 19.1018 24.1012 19.3708C24.1012 19.9537 23.4522 20.9401 20.2934 20.9401C17.1346 20.9401 15.1441 20.2676 13.1104 19.1466C11.1786 18.0819 12.3315 16.9048 13.5431 17.5325C14.7547 18.1602 17.8053 18.788 20.2934 18.788Z" fill="#F25B2D" stroke="#9E2300" stroke-width="0.362978" stroke-linejoin="round"/>
<path id="Vector 1911" d="M13.9648 18.6469C15.2954 19.2172 18.2595 19.9017 20.7476 19.9017C22.5033 19.9017 23.4088 19.4796 24.0254 18.8978" stroke="#9E2300" stroke-width="0.362978" stroke-linecap="round" stroke-linejoin="round"/>
<g id="Subtract_7">
<mask id="path-43-inside-2_2681_42026" fill="white">
<path fill-rule="evenodd" clip-rule="evenodd" d="M19.4693 13.7159C19.4708 13.6721 19.4715 13.6282 19.4715 13.584C19.4715 11.469 17.757 9.75452 15.642 9.75452C13.527 9.75452 11.8125 11.469 11.8125 13.584C11.8125 13.8275 11.8352 14.0658 11.8787 14.2966C12.6091 12.8779 14.4114 11.8743 16.5189 11.8743C18.3735 11.8743 19.128 12.5608 19.4693 13.7159Z"/>
</mask>
<path fill-rule="evenodd" clip-rule="evenodd" d="M19.4693 13.7159C19.4708 13.6721 19.4715 13.6282 19.4715 13.584C19.4715 11.469 17.757 9.75452 15.642 9.75452C13.527 9.75452 11.8125 11.469 11.8125 13.584C11.8125 13.8275 11.8352 14.0658 11.8787 14.2966C12.6091 12.8779 14.4114 11.8743 16.5189 11.8743C18.3735 11.8743 19.128 12.5608 19.4693 13.7159Z" fill="#317E35"/>
<path d="M19.4693 13.7159L19.1212 13.8187L19.832 13.7282L19.4693 13.7159ZM11.8787 14.2966L11.522 14.3638L11.7175 15.4027L12.2014 14.4628L11.8787 14.2966ZM19.1085 13.584C19.1085 13.6241 19.1078 13.6639 19.1065 13.7036L19.832 13.7282C19.8337 13.6803 19.8345 13.6323 19.8345 13.584H19.1085ZM15.642 10.1175C17.5565 10.1175 19.1085 11.6695 19.1085 13.584H19.8345C19.8345 11.2686 17.9574 9.39154 15.642 9.39154V10.1175ZM12.1755 13.584C12.1755 11.6695 13.7275 10.1175 15.642 10.1175V9.39154C13.3266 9.39154 11.4495 11.2686 11.4495 13.584H12.1755ZM12.2354 14.2295C12.1961 14.0206 12.1755 13.8049 12.1755 13.584H11.4495C11.4495 13.8502 11.4744 14.1109 11.522 14.3638L12.2354 14.2295ZM12.2014 14.4628C12.8551 13.1932 14.5123 12.2373 16.5189 12.2373V11.5113C14.3104 11.5113 12.3632 12.5627 11.556 14.1305L12.2014 14.4628ZM16.5189 12.2373C17.4062 12.2373 17.9767 12.4022 18.357 12.6618C18.7304 12.9166 18.9661 13.2937 19.1212 13.8187L19.8174 13.613C19.6312 12.983 19.319 12.4393 18.7662 12.0621C18.2203 11.6896 17.4862 11.5113 16.5189 11.5113V12.2373Z" fill="#013B00" mask="url(#path-43-inside-2_2681_42026)"/>
</g>
<circle id="Ellipse 5747" cx="15.642" cy="13.584" r="3.64801" stroke="#013B00" stroke-width="0.362978"/>
</g>
<path id="Ellipse 5752_2" d="M16.5444 17.1329C16.5444 17.5937 16.4336 17.5874 15.2029 17.5874C13.9721 17.5874 12.1523 16.4038 12.1523 15.9431C12.1523 15.4824 13.3082 15.5968 14.5389 15.5968C15.7697 15.5968 16.5444 16.6722 16.5444 17.1329Z" fill="#317E35"/>
<path id="Ellipse 5753" d="M21.6209 17.7877C21.4149 18.1998 17.6859 17.5325 16.984 17.1817C18.0983 16.7651 18.7453 15.9473 18.9853 15.4671C19.3369 15.4671 20.4621 15.491 21.164 15.8419C21.8659 16.1927 21.8269 17.3756 21.6209 17.7877Z" fill="#317E35"/>
<path id="Ellipse 5754" d="M12.2708 13.1404C11.9895 13.5412 11.7731 13.6712 11.8435 14.1524C10.5615 13.2006 12.0308 11.5978 12.2708 11.1175C12.4086 11.0106 13.0389 11.1824 13.2228 11.3879C13.3913 11.4721 12.5355 12.7633 12.2708 13.1404Z" fill="#317E35"/>
<path id="Vector 1916" d="M18.1933 16.22C18.5973 16.7299 19.1634 16.9812 19.6719 17.1108" stroke="#013B00" stroke-width="0.362978" stroke-linecap="square" stroke-linejoin="round"/>
<path id="Vector 1917" opacity="0.4" d="M12.3444 15.4406C11.8562 14.5703 11.1748 13.9551 10.3164 13.7683" stroke="#013B00" stroke-width="0.362978" stroke-linecap="round" stroke-linejoin="round"/>
<path id="Vector 1918" opacity="0.4" d="M12.0193 16.4471C11.2669 16.527 10.776 17.0983 10.7144 17.6884" stroke="#013B00" stroke-width="0.362978" stroke-linecap="round" stroke-linejoin="round"/>
<path id="Vector 1919" opacity="0.4" d="M11.335 16.0055C11.1911 16.0055 10.6251 16.2691 10.5047 16.4435" stroke="#013B00" stroke-width="0.362978" stroke-linecap="round" stroke-linejoin="round"/>
</g>
</g>
</g>
<path id="Vector 1920" opacity="0.4" d="M11.3088 9.70595C9.98499 10.9279 7.88049 14.9331 7.22103 16.8921C6.63921 14.8846 6.97676 11.5884 7.62846 10.3315C8.44308 8.76032 10.5666 5.15422 15.7162 5.15369C24.3303 5.1528 26.423 14.0409 25.7538 18.3904C25.1563 22.2745 21.7825 24.3837 19.586 24.922C20.9825 24.1074 23.6882 21.6344 23.499 20.5143C24.4005 19.9322 24.1827 19.016 24.1827 19.016C24.1827 19.016 25.3174 17.7358 24.43 16.7466C23.5427 15.7575 23.7318 16.0629 23.2663 15.7138C24.6919 13.4881 23.2372 11.3061 21.7534 10.506C20.9679 8.25126 18.4658 6.98568 16.7929 8.80404C15.6583 7.16124 12.7634 7.16025 11.3088 9.70595Z" fill="#1D4B20"/>
<path id="Vector 1923" opacity="0.4" d="M11.3088 9.70595C9.98499 10.9279 7.88049 14.9331 7.22103 16.8921C6.63921 14.8846 6.97676 11.5884 7.62846 10.3315C8.44308 8.76032 10.5666 5.15422 15.7162 5.15369C24.3303 5.1528 26.423 14.0409 25.7538 18.3904C25.1563 22.2745 21.7825 24.3837 19.586 24.922C20.9825 24.1074 23.6882 21.6344 23.499 20.5143C24.4005 19.9322 24.1827 19.016 24.1827 19.016C24.1827 19.016 25.3174 17.7358 24.43 16.7466C23.5427 15.7575 23.7318 16.0629 23.2663 15.7138C24.6919 13.4881 23.2372 11.3061 21.7534 10.506C20.9679 8.25126 18.4658 6.98568 16.7929 8.80404C15.6583 7.16124 12.7634 7.16025 11.3088 9.70595Z" fill="#1D4B20"/>
</g>
<defs>
<filter id="filter0_d_2681_42026" x="19.1067" y="12.3763" width="4.90773" height="5.96767" filterUnits="userSpaceOnUse" color-interpolation-filters="sRGB">
<feFlood flood-opacity="0" result="BackgroundImageFix"/>
<feColorMatrix in="SourceAlpha" type="matrix" values="0 0 0 0 0 0 0 0 0 0 0 0 0 0 0 0 0 0 127 0" result="hardAlpha"/>
<feOffset dy="1.45191"/>
<feGaussianBlur stdDeviation="0.725956"/>
<feComposite in2="hardAlpha" operator="out"/>
<feColorMatrix type="matrix" values="0 0 0 0 0 0 0 0 0 0 0 0 0 0 0 0 0 0 0.25 0"/>
<feBlend mode="normal" in2="BackgroundImageFix" result="effect1_dropShadow_2681_42026"/>
<feBlend mode="normal" in="SourceGraphic" in2="effect1_dropShadow_2681_42026" result="shape"/>
</filter>
<filter id="filter1_d_2681_42026" x="14.2629" y="12.2441" width="4.94679" height="6.02382" filterUnits="userSpaceOnUse" color-interpolation-filters="sRGB">
<feFlood flood-opacity="0" result="BackgroundImageFix"/>
<feColorMatrix in="SourceAlpha" type="matrix" values="0 0 0 0 0 0 0 0 0 0 0 0 0 0 0 0 0 0 127 0" result="hardAlpha"/>
<feOffset dy="1.45191"/>
<feGaussianBlur stdDeviation="0.725956"/>
<feComposite in2="hardAlpha" operator="out"/>
<feColorMatrix type="matrix" values="0 0 0 0 0 0 0 0 0 0 0 0 0 0 0 0 0 0 0.25 0"/>
<feBlend mode="normal" in2="BackgroundImageFix" result="effect1_dropShadow_2681_42026"/>
<feBlend mode="normal" in="SourceGraphic" in2="effect1_dropShadow_2681_42026" result="shape"/>
</filter>
</defs>
</svg>
