<svg width="34" height="34" viewBox="0 0 34 34" fill="none" xmlns="http://www.w3.org/2000/svg">
<g id="Group 1912055373">
<circle id="Ellipse 928" cx="17.0178" cy="16.7239" r="12.16" transform="rotate(26.8336 17.0178 16.7239)" fill="#A050F6"/>
<g id="Vector">
<path d="M18.3307 24.34C18.2485 24.7075 17.9614 24.9998 17.5858 25.0807C16.8102 25.2477 16.15 25.1556 15.701 24.6422C15.5055 24.4187 15.392 24.1581 15.3156 23.925C15.2416 23.6991 15.1887 23.4532 15.142 23.2364L14.6886 21.1312L12.7319 21.5526C11.5845 21.7998 10.4971 20.9574 10.4262 19.792L10.0732 13.9879C10.0161 13.0477 10.6486 12.2012 11.5721 12.0023L17.4746 10.7311C17.885 10.6427 18.2893 10.9037 18.3776 11.314L19.9345 18.5428C19.9517 18.623 19.9007 18.702 19.8206 18.7193C19.7652 18.7312 19.7215 18.7736 19.7077 18.8285L18.3307 24.34Z" fill="#191919"/>
<path d="M20.8514 18.4973L22.1107 18.2261C23.1444 18.0035 23.7917 16.9813 23.5699 15.9518L22.6286 11.5811C22.4069 10.5516 21.3962 9.88651 20.3625 10.1091L19.1033 10.3803L20.8514 18.4973Z" fill="#191919"/>
</g>
</g>
</svg>
