<svg width="21" height="21" viewBox="0 0 21 21" fill="none" xmlns="http://www.w3.org/2000/svg">
<g id="Group 1912055377">
<circle id="Ellipse 936" cx="10.0831" cy="10.0889" r="8.7723" transform="rotate(-9.36709 10.0831 10.0889)" fill="#FFD60C"/>
<path id="Union" fill-rule="evenodd" clip-rule="evenodd" d="M8.90688 5.60986L11.5594 5.60986L11.5594 6.23392C14.0081 6.41086 14.6317 7.08676 14.6317 8.8777L12.0003 8.8777C12.0003 8.49573 11.8518 8.27291 9.8995 8.27291C8.01088 8.27291 7.85173 8.3578 7.85173 8.63366C7.87291 8.83489 8.01038 8.84583 9.86818 8.99361L9.87828 8.99441L10.0062 9.00493C14.0241 9.33525 14.8969 9.407 14.8969 11.3074C14.8969 12.9385 14.3707 13.4629 11.5604 13.5813L11.5604 14.5676L8.90786 14.5676L8.90786 13.599C5.87806 13.5243 5.37954 13.0276 5.37954 11.0528L7.93661 11.0528C7.93661 11.4984 8.11698 11.6045 10.0162 11.6045L10.1744 11.6045C11.8213 11.6048 12.0109 11.6049 12.0109 11.2756C12.0109 11.0892 11.8689 11.0787 10.8177 11.001L10.8177 11.001C10.5524 10.9814 10.2292 10.9575 9.83584 10.9255C6.81192 10.6814 5.27344 10.5329 5.27344 8.61244C5.27344 6.62736 6.31214 6.24754 8.90688 6.19124L8.90688 5.60986Z" fill="#191919"/>
</g>
</svg>
