<svg width="40" height="40" viewBox="0 0 40 40" fill="none" xmlns="http://www.w3.org/2000/svg">
<g id="Group 1912055316">
<mask id="mask0_2680_29279" style="mask-type:alpha" maskUnits="userSpaceOnUse" x="0" y="0" width="40" height="40">
<rect id="Rectangle 34627016" width="40" height="40" fill="#D9D9D9"/>
</mask>
<g mask="url(#mask0_2680_29279)">
<g id="Mask group">
<g id="Group 1912055135">
<g id="&#231;&#153;&#189;&#232;&#190;&#185;">
<mask id="path-2-outside-1_2680_29279" maskUnits="userSpaceOnUse" x="2.01172" y="11" width="36" height="34" fill="black">
<rect fill="white" x="2.01172" y="11" width="36" height="34"/>
<path fill-rule="evenodd" clip-rule="evenodd" d="M28.0444 14.4847L28.0643 14.4476C28.6874 13.2843 30.1495 12.8675 31.2923 13.5273C32.3848 14.158 32.7794 15.542 32.1838 16.654L31.1367 18.609C32.2763 20.1406 33.0472 21.9765 33.3135 23.9773H33.3432L36.1282 41.6855H22.2795V36.9675H22.2791V41.6855H15.9385C14.7224 42.5641 13.4343 43.3955 13.1428 43.4538C12.6983 43.5427 8.15155 42.8885 5.937 42.3363C5.77373 42.2956 5.66071 42.1536 5.6558 41.9854C5.59613 39.9407 5.48796 34.3732 5.64762 33.8031C5.68202 33.6803 5.89565 33.4901 6.21943 33.2654C5.53544 33.1375 4.89572 33.0042 4.38272 32.8764C4.21943 32.8358 4.10644 32.6937 4.10154 32.5255C4.04286 30.5122 3.93687 25.0496 4.09364 24.4898C4.2584 23.9014 8.60762 21.7416 9.28015 21.7416C9.53144 21.7416 10.5243 21.8358 11.6914 21.9818C12.083 20.7535 12.6719 19.6168 13.4198 18.6112L12.3715 16.654C11.7759 15.542 12.1705 14.158 13.2629 13.5273C14.3828 12.8807 15.8092 13.268 16.4524 14.3783C16.8681 14.2777 17.3898 14.3119 17.9548 14.349C18.0899 14.3578 18.2274 14.3668 18.3665 14.3742C19.5447 14.4367 19.8672 14.309 20.8222 13.9309C21.1223 13.8121 21.4849 13.6685 21.9562 13.4984C23.9269 12.7868 24.9648 12.8827 26.3552 13.4984L26.3777 13.5083C26.4388 13.5349 26.5002 13.56 26.561 13.5849C26.6879 13.6368 26.812 13.6875 26.9253 13.7488C27.4838 13.9336 27.8393 14.1927 28.0444 14.4847Z"/>
</mask>
<path fill-rule="evenodd" clip-rule="evenodd" d="M28.0444 14.4847L28.0643 14.4476C28.6874 13.2843 30.1495 12.8675 31.2923 13.5273C32.3848 14.158 32.7794 15.542 32.1838 16.654L31.1367 18.609C32.2763 20.1406 33.0472 21.9765 33.3135 23.9773H33.3432L36.1282 41.6855H22.2795V36.9675H22.2791V41.6855H15.9385C14.7224 42.5641 13.4343 43.3955 13.1428 43.4538C12.6983 43.5427 8.15155 42.8885 5.937 42.3363C5.77373 42.2956 5.66071 42.1536 5.6558 41.9854C5.59613 39.9407 5.48796 34.3732 5.64762 33.8031C5.68202 33.6803 5.89565 33.4901 6.21943 33.2654C5.53544 33.1375 4.89572 33.0042 4.38272 32.8764C4.21943 32.8358 4.10644 32.6937 4.10154 32.5255C4.04286 30.5122 3.93687 25.0496 4.09364 24.4898C4.2584 23.9014 8.60762 21.7416 9.28015 21.7416C9.53144 21.7416 10.5243 21.8358 11.6914 21.9818C12.083 20.7535 12.6719 19.6168 13.4198 18.6112L12.3715 16.654C11.7759 15.542 12.1705 14.158 13.2629 13.5273C14.3828 12.8807 15.8092 13.268 16.4524 14.3783C16.8681 14.2777 17.3898 14.3119 17.9548 14.349C18.0899 14.3578 18.2274 14.3668 18.3665 14.3742C19.5447 14.4367 19.8672 14.309 20.8222 13.9309C21.1223 13.8121 21.4849 13.6685 21.9562 13.4984C23.9269 12.7868 24.9648 12.8827 26.3552 13.4984L26.3777 13.5083C26.4388 13.5349 26.5002 13.56 26.561 13.5849C26.6879 13.6368 26.812 13.6875 26.9253 13.7488C27.4838 13.9336 27.8393 14.1927 28.0444 14.4847Z" fill="#FFABC7"/>
<path d="M28.0643 14.4476L29.2984 15.1086L29.2984 15.1086L28.0643 14.4476ZM28.0444 14.4847L26.8988 15.2895C27.1782 15.6871 27.6438 15.9115 28.1288 15.8822C28.6139 15.8529 29.0491 15.5741 29.2785 15.1457L28.0444 14.4847ZM31.2923 13.5273L30.5923 14.7397V14.7397L31.2923 13.5273ZM32.1838 16.654L30.9497 15.993L30.9497 15.993L32.1838 16.654ZM31.1367 18.609L29.9026 17.948C29.6464 18.4263 29.6896 19.0095 30.0135 19.4447L31.1367 18.609ZM33.3135 23.9773L31.9258 24.162C32.0184 24.8577 32.6117 25.3773 33.3135 25.3773V23.9773ZM33.3432 23.9773L34.7262 23.7598C34.6191 23.079 34.0324 22.5773 33.3432 22.5773V23.9773ZM36.1282 41.6855V43.0855C36.5375 43.0855 36.9263 42.9064 37.1923 42.5954C37.4583 42.2843 37.5748 41.8724 37.5112 41.468L36.1282 41.6855ZM22.2795 41.6855H20.8795C20.8795 42.4587 21.5063 43.0855 22.2795 43.0855V41.6855ZM22.2795 36.9675H23.6795C23.6795 36.1943 23.0527 35.5675 22.2795 35.5675V36.9675ZM22.2791 36.9675V35.5675C21.5059 35.5675 20.8791 36.1943 20.8791 36.9675H22.2791ZM22.2791 41.6855V43.0855C23.0523 43.0855 23.6791 42.4587 23.6791 41.6855H22.2791ZM15.9385 41.6855V40.2855C15.6441 40.2855 15.3572 40.3783 15.1186 40.5507L15.9385 41.6855ZM13.1428 43.4538L13.4174 44.8267H13.4174L13.1428 43.4538ZM5.937 42.3363L6.2757 40.9779L6.2757 40.9779L5.937 42.3363ZM5.6558 41.9854L7.05521 41.9445L5.6558 41.9854ZM5.64762 33.8031L4.29948 33.4256L4.29948 33.4256L5.64762 33.8031ZM6.21943 33.2654L7.01756 34.4156C7.48148 34.0937 7.7066 33.5246 7.58843 32.9725C7.47026 32.4203 7.03194 31.9932 6.4769 31.8893L6.21943 33.2654ZM4.38272 32.8764L4.72102 31.5179L4.721 31.5179L4.38272 32.8764ZM4.10154 32.5255L2.70213 32.5663L4.10154 32.5255ZM4.09364 24.4898L5.44178 24.8673L4.09364 24.4898ZM11.6914 21.9818L11.5176 23.371C12.1867 23.4547 12.8204 23.0495 13.0252 22.4071L11.6914 21.9818ZM13.4198 18.6112L14.5431 19.4467C14.8668 19.0114 14.91 18.4284 14.6539 17.9502L13.4198 18.6112ZM12.3715 16.654L13.6056 15.993L13.6056 15.993L12.3715 16.654ZM13.2629 13.5273L13.9629 14.7397L13.2629 13.5273ZM16.4524 14.3783L15.2409 15.08C15.5518 15.6167 16.1788 15.8849 16.7816 15.739L16.4524 14.3783ZM17.9548 14.349L17.8632 15.746L17.9548 14.349ZM18.3665 14.3742L18.4407 12.9762L18.4407 12.9762L18.3665 14.3742ZM20.8222 13.9309L21.3375 15.2326L20.8222 13.9309ZM21.9562 13.4984L21.4807 12.1816L21.4807 12.1816L21.9562 13.4984ZM26.3552 13.4984L25.7883 14.7785L25.7922 14.7802L26.3552 13.4984ZM26.3777 13.5083L25.8147 14.7901L25.8184 14.7917L26.3777 13.5083ZM26.561 13.5849L27.091 12.2891L27.0909 12.2891L26.561 13.5849ZM26.9253 13.7488L26.2595 14.9803C26.3318 15.0194 26.4075 15.0521 26.4856 15.0779L26.9253 13.7488ZM26.8302 13.7866L26.8103 13.8237L29.2785 15.1457L29.2984 15.1086L26.8302 13.7866ZM31.9923 12.3148C30.1647 11.2597 27.8265 11.9263 26.8302 13.7866L29.2984 15.1086C29.5482 14.6423 30.1342 14.4752 30.5923 14.7397L31.9923 12.3148ZM33.4179 17.315C34.3704 15.5367 33.7394 13.3235 31.9923 12.3148L30.5923 14.7397C31.0302 14.9925 31.1884 15.5473 30.9497 15.993L33.4179 17.315ZM32.3708 19.27L33.4179 17.315L30.9497 15.993L29.9026 17.948L32.3708 19.27ZM34.7013 23.7926C34.403 21.5513 33.5388 19.4922 32.2599 17.7733L30.0135 19.4447C31.0138 20.7891 31.6915 22.4018 31.9258 24.162L34.7013 23.7926ZM33.3432 22.5773H33.3135V25.3773H33.3432V22.5773ZM37.5112 41.468L34.7262 23.7598L31.9602 24.1948L34.7452 41.9031L37.5112 41.468ZM22.2795 43.0855H36.1282V40.2855H22.2795V43.0855ZM20.8795 36.9675V41.6855H23.6795V36.9675H20.8795ZM22.2791 38.3675H22.2795V35.5675H22.2791V38.3675ZM23.6791 41.6855V36.9675H20.8791V41.6855H23.6791ZM15.9385 43.0855H22.2791V40.2855H15.9385V43.0855ZM13.4174 44.8267C13.6215 44.7858 13.7963 44.7083 13.8803 44.6698C13.9891 44.6199 14.1013 44.5612 14.2087 44.5019C14.4249 44.3824 14.6782 44.2286 14.9457 44.0583C15.4838 43.7158 16.1328 43.2723 16.7583 42.8204L15.1186 40.5507C14.528 40.9774 13.925 41.3889 13.4421 41.6963C13.1992 41.8509 12.9998 41.9708 12.8545 42.0511C12.7812 42.0917 12.7355 42.1144 12.7133 42.1246C12.6663 42.1461 12.737 42.1073 12.8683 42.081L13.4174 44.8267ZM5.59831 43.6947C6.77045 43.987 8.51251 44.2963 9.99497 44.5198C10.7414 44.6324 11.4403 44.7259 11.988 44.786C12.2603 44.8159 12.508 44.839 12.711 44.8514C12.8118 44.8575 12.9151 44.8619 13.012 44.862C13.0828 44.8621 13.2445 44.8612 13.4174 44.8267L12.8683 42.081C12.9856 42.0576 13.0597 42.062 13.014 42.062C12.9944 42.062 12.9522 42.0609 12.8818 42.0566C12.7424 42.0481 12.5446 42.0303 12.2936 42.0027C11.7946 41.948 11.135 41.8601 10.4124 41.7511C8.95669 41.5317 7.31811 41.2378 6.2757 40.9779L5.59831 43.6947ZM4.2564 42.0262C4.27939 42.814 4.8187 43.5003 5.59831 43.6947L6.2757 40.9779C6.72875 41.0909 7.04203 41.4931 7.05521 41.9445L4.2564 42.0262ZM4.29948 33.4256C4.23138 33.6688 4.21236 33.9751 4.20202 34.1536C4.18826 34.3913 4.17921 34.6845 4.17338 35.0095C4.16167 35.6618 4.1622 36.4893 4.16951 37.3531C4.18415 39.0829 4.22632 40.9957 4.2564 42.0262L7.05521 41.9445C7.02561 40.9303 6.98386 39.0371 6.96941 37.3294C6.96218 36.4745 6.96187 35.6755 6.97293 35.0597C6.97847 34.7505 6.98669 34.4993 6.99734 34.3154C7.01142 34.0724 7.02394 34.08 6.99576 34.1806L4.29948 33.4256ZM5.42129 32.1152C5.23391 32.2453 5.03988 32.3913 4.87344 32.5456C4.79016 32.6227 4.69162 32.7222 4.59936 32.8413C4.5177 32.9466 4.37742 33.1473 4.29948 33.4256L6.99576 34.1806C6.96299 34.2976 6.91993 34.3852 6.88954 34.4393C6.85835 34.4949 6.82973 34.5343 6.81252 34.5565C6.78012 34.5983 6.76167 34.6132 6.77657 34.5994C6.78843 34.5884 6.81388 34.5662 6.85713 34.5326C6.89949 34.4997 6.95272 34.4606 7.01756 34.4156L5.42129 32.1152ZM4.04442 34.235C4.59489 34.372 5.26446 34.5111 5.96196 34.6416L6.4769 31.8893C5.80642 31.7639 5.19655 31.6363 4.72102 31.5179L4.04442 34.235ZM2.70213 32.5663C2.72508 33.3536 3.26399 34.0406 4.04444 34.235L4.721 31.5179C5.17487 31.6309 5.4878 32.0337 5.50094 32.4847L2.70213 32.5663ZM2.7455 24.1123C2.67778 24.3541 2.65903 24.6576 2.64891 24.8322C2.63536 25.066 2.62645 25.3542 2.62071 25.6733C2.60919 26.3138 2.60969 27.1263 2.61685 27.9744C2.63118 29.6727 2.67256 31.5515 2.70213 32.5663L5.50094 32.4847C5.47184 31.4862 5.43089 29.627 5.41675 27.9508C5.40967 27.1116 5.4094 26.3276 5.42026 25.7236C5.42571 25.4203 5.43378 25.1742 5.44421 24.9942C5.45807 24.7552 5.4703 24.7655 5.44178 24.8673L2.7455 24.1123ZM9.28015 20.3416C8.94526 20.3416 8.60744 20.4486 8.43473 20.5052C8.20233 20.5814 7.93898 20.6835 7.66788 20.7971C7.12256 21.0257 6.47708 21.3305 5.85578 21.6502C5.23731 21.9686 4.61323 22.317 4.11915 22.6363C3.87555 22.7937 3.63269 22.9637 3.43058 23.1352C3.33025 23.2203 3.21389 23.3276 3.10657 23.4534C3.01862 23.5564 2.8373 23.7845 2.7455 24.1123L5.44178 24.8673C5.37057 25.1216 5.24253 25.2638 5.23672 25.2706C5.21155 25.3001 5.20617 25.3007 5.24185 25.2704C5.31175 25.2111 5.44096 25.1159 5.63878 24.988C6.02753 24.7368 6.56368 24.435 7.13718 24.1398C7.70785 23.8461 8.28607 23.5741 8.75052 23.3793C8.98431 23.2813 9.17236 23.21 9.30719 23.1658C9.50169 23.102 9.4469 23.1416 9.28015 23.1416V20.3416ZM11.8652 20.5926C10.7257 20.4501 9.63719 20.3416 9.28015 20.3416V23.1416C9.27491 23.1416 9.28932 23.1415 9.33319 23.1439C9.37328 23.146 9.42637 23.1495 9.49295 23.1546C9.62601 23.1646 9.7992 23.18 10.0054 23.2002C10.4172 23.2407 10.9448 23.2993 11.5176 23.371L11.8652 20.5926ZM12.2964 17.7758C11.4571 18.9042 10.7966 20.1793 10.3575 21.5566L13.0252 22.4071C13.3693 21.3277 13.8867 20.3294 14.5431 19.4467L12.2964 17.7758ZM11.1373 17.315L12.1856 19.2722L14.6539 17.9502L13.6056 15.993L11.1373 17.315ZM12.5629 12.3148C10.8159 13.3235 10.1849 15.5367 11.1374 17.315L13.6056 15.993C13.3669 15.5473 13.525 14.9925 13.9629 14.7397L12.5629 12.3148ZM17.6638 13.6766C16.6348 11.9002 14.354 11.2808 12.5629 12.3148L13.9629 14.7397C14.4116 14.4807 14.9836 14.6358 15.2409 15.08L17.6638 13.6766ZM16.7816 15.739C16.9447 15.6996 17.225 15.7041 17.8632 15.746L18.0464 12.952C17.5545 12.9197 16.7915 12.8558 16.1231 13.0176L16.7816 15.739ZM17.8632 15.746C17.9969 15.7547 18.1431 15.7643 18.2924 15.7722L18.4407 12.9762C18.3117 12.9693 18.1828 12.9609 18.0464 12.952L17.8632 15.746ZM18.2924 15.7722C18.9338 15.8062 19.4443 15.7951 19.9599 15.6891C20.4503 15.5883 20.8896 15.41 21.3375 15.2326L20.3068 12.6292C19.7998 12.83 19.6003 12.9045 19.3962 12.9464C19.2173 12.9832 18.9775 13.0046 18.4407 12.9762L18.2924 15.7722ZM21.3375 15.2326C21.6362 15.1144 21.9819 14.9776 22.4316 14.8152L21.4807 12.1816C20.9879 12.3595 20.6084 12.5098 20.3068 12.6292L21.3375 15.2326ZM22.4316 14.8152C23.3323 14.49 23.9046 14.3926 24.3486 14.4004C24.7758 14.408 25.1916 14.5143 25.7883 14.7785L26.9221 12.2183C26.1283 11.8668 25.3301 11.6173 24.398 11.6009C23.4828 11.5847 22.5508 11.7952 21.4807 12.1816L22.4316 14.8152ZM25.7922 14.7802L25.8147 14.7901L26.9408 12.2265L26.9182 12.2166L25.7922 14.7802ZM25.8184 14.7917C25.8965 14.8257 25.9726 14.8568 26.031 14.8807L27.0909 12.2891C27.0278 12.2632 26.9811 12.2441 26.937 12.2249L25.8184 14.7917ZM26.031 14.8807C26.1721 14.9384 26.2242 14.9612 26.2595 14.9803L27.5912 12.5173C27.3999 12.4138 27.2036 12.3351 27.091 12.2891L26.031 14.8807ZM26.4856 15.0779C26.849 15.1982 26.9143 15.3115 26.8988 15.2895L29.19 13.6799C28.7643 13.074 28.1186 12.669 27.3651 12.4197L26.4856 15.0779Z" fill="white" mask="url(#path-2-outside-1_2680_29279)"/>
</g>
<path id="Union" fill-rule="evenodd" clip-rule="evenodd" d="M12.3708 16.6529C11.7752 15.5409 12.1698 14.1569 13.2622 13.5262C14.4051 12.8663 15.8672 13.2832 16.4903 14.4465L17.0303 15.4547C18.594 14.5959 20.3808 14.1089 22.2784 14.1089C24.1751 14.1089 25.9611 14.5954 27.5242 15.4535L28.0636 14.4465C28.6867 13.2832 30.1488 12.8663 31.2917 13.5262C32.3841 14.1569 32.7787 15.5409 32.1831 16.6529L31.1359 18.6082C32.2755 20.1399 33.0465 21.9759 33.3129 23.9767H33.3425L36.1275 41.5432H22.2788V36.9669H22.2784V41.5432H8.42969L11.2147 23.9767H11.2439C11.5101 21.9768 12.2804 20.1416 13.4192 18.6104L12.3708 16.6529Z" fill="#E2467B"/>
<path id="Vector 1743" opacity="0.5" d="M4.0978 32.3768C4.03377 30.3574 3.91851 24.8982 4.08934 24.3384C4.26905 23.7494 8.83239 21.6555 9.56588 21.6555C9.74244 21.6555 11.6589 21.9405 11.6589 21.9405L11.8206 21.6555C11.8206 21.6555 16.9523 21.9939 17.2297 22.3179C17.6883 22.8536 17.7135 29.5694 17.6514 30.0825C17.5893 30.5957 16.5211 31.1602 16.5211 31.1602L18.3865 31.883C18.7528 32.025 19.0048 32.3623 19.0308 32.7542C19.1509 34.5597 19.4395 39.6805 18.9858 41.4197C18.3837 43.7277 13.3169 41.4197 13.3169 41.4197C13.3169 41.4197 12.7479 33.7734 11.3451 33.0087C9.25507 31.8695 5.49394 32.5477 4.39291 32.655C4.22289 32.6715 4.10321 32.5475 4.0978 32.3768Z" fill="#6C1C37"/>
<path id="Subtract" d="M24.2034 23.3493C24.6473 23.3493 25.1787 23.1768 25.1787 22.7329C25.1787 21.9408 23.8804 21.2986 22.2788 21.2986C20.6772 21.2986 19.3789 21.9408 19.3789 22.7329C19.3789 23.1768 19.9104 23.3493 20.3542 23.3493H20.9564C20.9644 23.3493 20.9718 23.3534 20.9761 23.3602L21.6316 24.3983C21.932 24.8739 22.6257 24.8739 22.926 24.3983L23.5816 23.3602C23.5859 23.3534 23.5933 23.3493 23.6013 23.3493H24.2034Z" fill="#6C1C37"/>
<g id="Group 1912055134">
<g id="Group 1912055130">
<mask id="mask1_2680_29279" style="mask-type:alpha" maskUnits="userSpaceOnUse" x="5" y="30" width="14" height="15">
<path id="Vector 1738" d="M5.61817 42.8099C5.55964 40.624 5.4516 34.5548 5.60934 33.9358C5.77427 33.2885 10.1277 30.9126 10.8009 30.9126C11.4741 30.9126 17.464 31.6553 17.8849 32.2441C18.3058 32.8328 18.1133 39.6845 18.0562 40.2485C17.9992 40.8124 13.5521 44.2428 12.982 44.3681C12.5445 44.4643 8.06763 43.7562 5.89057 43.1592C5.73126 43.1155 5.62259 42.9751 5.61817 42.8099Z" fill="#FFC3D7"/>
</mask>
<g mask="url(#mask1_2680_29279)">
<path id="Vector 1744" d="M5.61867 43.5134C5.56026 41.2187 5.45115 34.766 5.60934 34.1095C5.77427 33.4251 10.1277 30.9126 10.8009 30.9126C11.4741 30.9126 17.464 31.698 17.8849 32.3206C18.3058 32.9431 18.1133 40.1887 18.0562 40.785C17.9992 41.3813 13.5521 45.009 12.982 45.1415C12.5441 45.2433 8.06075 44.4933 5.88555 43.8616C5.72882 43.816 5.62282 43.6765 5.61867 43.5134Z" fill="#F6BCCF"/>
<path id="Vector 1741" d="M13.0872 36.2743L17.8561 32.1941C18.277 32.9011 18.0844 41.1295 18.0274 41.8067C17.9704 42.4839 13.5233 46.6037 12.9531 46.7542C12.9626 45.8542 12.9546 37.8354 12.9533 36.5597C12.9532 36.4477 13.0021 36.3471 13.0872 36.2743Z" fill="#F394B4"/>
<path id="Vector 1742" d="M0.744194 31.7696L16.0261 24.3701C16.447 24.9058 16.0831 30.2916 16.0261 30.8047C15.9788 31.2306 12.9388 33.3844 11.9062 34.1046C11.688 34.2568 11.4206 34.3143 11.1584 34.2691L0.845962 32.4912C0.479315 32.428 0.409328 31.9317 0.744194 31.7696Z" fill="#AF2B57" fill-opacity="0.6"/>
<path id="Vector 1739" d="M7.91186 34.3891C7.54127 34.3321 6.7411 33.7481 8.50565 33.9915C10.2623 34.2338 11.503 34.356 11.9089 34.4262C12.733 34.5687 13.5564 34.3089 13.7878 34.2252C14.2368 34.0627 14.5409 33.9401 14.9779 33.6778C15.3342 33.4639 15.7818 33.7043 15.3699 33.9849C15.0183 34.2245 14.6132 34.4226 14.0787 34.8396C13.5901 35.2207 13.3343 35.8786 13.32 36.5913C13.3058 37.304 13.1205 40.2402 13.1632 41.3092C13.206 42.3783 12.7531 42.6434 12.7104 41.3677C12.6964 40.9524 12.5646 37.1472 12.5646 36.5913C12.5646 35.7447 12.1924 35.3246 11.6058 35.1674C10.6541 34.9123 8.28246 34.4461 7.91186 34.3891Z" fill="#F5F3F5"/>
<path id="Vector 1740" d="M16.2453 33.3191C15.5015 33.7829 15.385 33.4144 16.1237 32.9818C16.2061 32.92 16.8836 32.4913 17.1255 32.3429C17.4279 32.1573 17.6066 32.3908 17.4142 32.5214C17.2217 32.6519 16.9075 32.9062 16.2453 33.3191Z" fill="#F5F3F5"/>
</g>
</g>
<g id="Group 1912055131">
<path id="Vector 1742_2" d="M4.08991 32.3819C4.03118 30.3668 3.92507 24.8985 4.082 24.3381C4.24692 23.7491 8.60038 21.5872 9.27357 21.5872C9.94675 21.5872 15.9367 22.263 16.3576 22.7987C16.7785 23.3344 16.5859 29.5692 16.5289 30.0823C16.4719 30.5954 12.0248 33.717 11.4546 33.831C11.0176 33.9184 6.55106 33.2757 4.3711 32.7328C4.20781 32.6922 4.09482 32.5501 4.08991 32.3819Z" fill="#F6BCCF"/>
<path id="Vector 1741_2" d="M11.6045 25.8637L16.3327 22.7986C16.7536 23.3343 16.561 29.569 16.504 30.0821C16.4469 30.5952 11.9998 33.7168 11.4297 33.8308C11.4389 33.1648 11.4316 27.3538 11.43 26.1824C11.4298 26.0525 11.4955 25.9344 11.6045 25.8637Z" fill="#F394B4"/>
<path id="Vector 1739_2" d="M6.38452 25.0634C6.01393 25.0064 5.21376 24.4224 6.97831 24.6658C8.73493 24.9081 9.97569 25.0303 10.3816 25.1005C11.2057 25.2431 12.0291 24.9833 12.2604 24.8995C12.7094 24.7371 13.0136 24.6144 13.4506 24.3521C13.8069 24.1382 14.2545 24.3786 13.8426 24.6593C13.491 24.8989 13.0859 25.0969 12.5514 25.5139C12.0627 25.895 11.8069 26.5529 11.7927 27.2656C11.7784 27.9783 11.5931 30.9145 11.6359 31.9836C11.6787 33.0526 11.2258 33.3177 11.183 32.042C11.1691 31.6267 11.0373 27.8215 11.0373 27.2656C11.0373 26.419 10.6651 25.999 10.0785 25.8417C9.12681 25.5866 6.75511 25.1205 6.38452 25.0634Z" fill="#F5F3F5"/>
<path id="Vector 1740_2" d="M14.718 23.9941C13.9742 24.4579 13.8576 24.0894 14.5964 23.6569C14.6787 23.595 15.3562 23.1664 15.5982 23.0179C15.9006 22.8324 16.0793 23.0658 15.8868 23.1964C15.6944 23.327 15.3801 23.5813 14.718 23.9941Z" fill="#F5F3F5"/>
</g>
</g>
<g id="Mask group_2">
<mask id="mask2_2680_29279" style="mask-type:alpha" maskUnits="userSpaceOnUse" x="15" y="13" width="14" height="7">
<path id="Vector 1748" d="M19.3867 17.2535C16.9585 17.4089 15.1072 16.2023 15.6384 14.9485C16.0174 14.0537 17.1274 14.2388 18.3662 14.301C19.9146 14.3787 19.985 14.1455 21.9558 13.4721C23.9265 12.7987 24.9644 12.8895 26.3548 13.4721L26.3773 13.4815C26.5661 13.5593 26.7574 13.6234 26.9249 13.7091C28.1534 14.0938 28.3998 14.819 28.2238 15.4665C28.0651 16.0506 26.7379 16.494 26.566 17.5125C26.2665 19.2867 25.5806 18.5226 25.475 18.2636C25.3694 18.0046 24.9644 17.9498 24.9644 18.3932C24.9644 20.4781 23.5039 20.5817 23.0819 18.1341C22.9528 17.3852 21.815 17.0981 19.3867 17.2535Z" fill="#FF0000"/>
</mask>
<g mask="url(#mask2_2680_29279)">
<path id="Vector 1750" d="M19.3867 17.2535C16.9585 17.4089 15.1072 16.2023 15.6384 14.9485C16.0174 14.0537 17.1274 14.2388 18.3662 14.301C19.9146 14.3787 19.985 14.1455 21.9558 13.4721C23.9265 12.7987 24.9644 12.8895 26.3548 13.4721L26.3773 13.4815C26.5661 13.5593 26.7574 13.6234 26.9249 13.7091C28.1534 14.0938 28.3998 14.819 28.2238 15.4665C28.0651 16.0506 26.7379 16.494 26.566 17.5125C26.2665 19.2867 25.5806 18.5226 25.475 18.2636C25.3694 18.0046 25.0314 17.9544 24.9644 18.3932C24.6837 20.2312 23.3487 19.6815 23.0819 18.1341C22.9528 17.3852 21.815 17.0981 19.3867 17.2535Z" fill="#F090B0"/>
<path id="Vector 1749" d="M17.2253 15.8484C17.0493 16.3146 15.5184 16.5154 14.6914 16.7873L15.1137 13.2908L22.8032 11.7886L29.0851 13.7311C29.1144 14.7282 29.0815 16.6863 28.7155 16.5412C28.258 16.3599 27.9941 15.9585 27.6246 15.4664C27.2551 14.9743 26.8489 15.7584 26.56 15.9973C25.4954 16.8779 24.6305 16.248 23.903 16.347C22.856 16.4894 22.0554 16.4117 21.7299 15.6736C21.4483 16.2563 19.5655 16.3858 19.1256 16.3858C17.9307 16.3858 17.5068 16.1592 17.2253 15.8484Z" fill="#F6BCCF"/>
</g>
</g>
</g>
</g>
</g>
</g>
</svg>
