<svg width="57" height="41" viewBox="0 0 57 41" fill="none" xmlns="http://www.w3.org/2000/svg">
<g id="Mask group">
<mask id="mask0_2681_41766" style="mask-type:alpha" maskUnits="userSpaceOnUse" x="0" y="0" width="57" height="41">
<g id="Rectangle 3467963">
<rect x="0.148438" y="0.484375" width="56.1158" height="40" fill="#191919"/>
<rect x="0.148438" y="0.484375" width="56.1158" height="40" fill="white" fill-opacity="0.05"/>
</g>
</mask>
<g mask="url(#mask0_2681_41766)">
<g id="Group 1912055905">
<g id="Group 1912055902">
<g id="Union">
<path fill-rule="evenodd" clip-rule="evenodd" d="M33.5385 8.68554C33.4815 8.68554 33.4247 8.68594 33.3679 8.68674C33.086 8.66741 32.8023 8.65759 32.5173 8.65759C29.0215 8.65759 25.9443 10.1336 23.7409 12.5466C21.8832 13.8326 20.3995 15.6372 19.45 17.7777L9.26321 13.2179C8.45488 15.0237 7.61805 19.7494 9.13213 22.4533C9.65699 23.3906 10.2789 24.2108 10.979 24.9292L8.33239 24.6127C8.09746 26.5772 8.70334 31.338 10.9528 33.4696C14.7327 37.0514 19.8724 37.3267 24.8305 36.6095C25.0648 36.5756 25.2985 36.5314 25.5315 36.4778C27.6353 37.7765 30.0529 38.5247 32.5835 38.5247C34.6568 38.5247 36.5841 38.0224 38.27 37.1266L38.3382 37.0923C38.567 37.0153 38.7926 36.9314 39.0148 36.8409C43.0967 37.0764 47.1148 36.3639 50.217 33.4242C52.4665 31.2927 53.0724 26.5319 52.8374 24.5674L49.8654 24.9228C50.7121 24.1237 51.4567 23.1895 52.0691 22.0958C53.5832 19.3918 52.7463 14.6662 51.938 12.8604L45.3499 15.8094C42.8413 11.6046 38.5081 8.75739 33.7483 8.68735C33.6785 8.68614 33.6085 8.68554 33.5385 8.68554Z" fill="#3A963F"/>
<path fill-rule="evenodd" clip-rule="evenodd" d="M33.5385 8.68554C33.4815 8.68554 33.4247 8.68594 33.3679 8.68674C33.086 8.66741 32.8023 8.65759 32.5173 8.65759C29.0215 8.65759 25.9443 10.1336 23.7409 12.5466C21.8832 13.8326 20.3995 15.6372 19.45 17.7777L9.26321 13.2179C8.45488 15.0237 7.61805 19.7494 9.13213 22.4533C9.65699 23.3906 10.2789 24.2108 10.979 24.9292L8.33239 24.6127C8.09746 26.5772 8.70334 31.338 10.9528 33.4696C14.7327 37.0514 19.8724 37.3267 24.8305 36.6095C25.0648 36.5756 25.2985 36.5314 25.5315 36.4778C27.6353 37.7765 30.0529 38.5247 32.5835 38.5247C34.6568 38.5247 36.5841 38.0224 38.27 37.1266L38.3382 37.0923C38.567 37.0153 38.7926 36.9314 39.0148 36.8409C43.0967 37.0764 47.1148 36.3639 50.217 33.4242C52.4665 31.2927 53.0724 26.5319 52.8374 24.5674L49.8654 24.9228C50.7121 24.1237 51.4567 23.1895 52.0691 22.0958C53.5832 19.3918 52.7463 14.6662 51.938 12.8604L45.3499 15.8094C42.8413 11.6046 38.5081 8.75739 33.7483 8.68735C33.6785 8.68614 33.6085 8.68554 33.5385 8.68554Z" fill="black" fill-opacity="0.2"/>
<path d="M33.3679 8.68674L33.2721 10.0835L33.3298 10.0874L33.3876 10.0866L33.3679 8.68674ZM23.7409 12.5466L24.5377 13.6978L24.668 13.6076L24.7748 13.4906L23.7409 12.5466ZM19.45 17.7777L18.878 19.0555L20.1601 19.6294L20.7297 18.3454L19.45 17.7777ZM9.26321 13.2179L9.83519 11.9401L8.55736 11.3681L7.98538 12.6459L9.26321 13.2179ZM9.13213 22.4533L10.3537 21.7693H10.3537L9.13213 22.4533ZM10.979 24.9292L10.8128 26.3193L14.7469 26.7898L11.9817 23.9522L10.979 24.9292ZM8.33239 24.6127L8.49863 23.2226L7.10854 23.0564L6.9423 24.4465L8.33239 24.6127ZM10.9528 33.4696L11.9158 32.4533H11.9158L10.9528 33.4696ZM24.8305 36.6095L25.0309 37.9951H25.0309L24.8305 36.6095ZM25.5315 36.4778L26.2668 35.2865L25.7776 34.9845L25.2173 35.1135L25.5315 36.4778ZM38.27 37.1266L37.6397 35.8766L37.6264 35.8833L37.6132 35.8903L38.27 37.1266ZM38.3382 37.0923L37.8916 35.7654L37.797 35.7973L37.7078 35.8422L38.3382 37.0923ZM39.0148 36.8409L39.0954 35.4432L38.7795 35.425L38.4865 35.5444L39.0148 36.8409ZM50.217 33.4242L49.2541 32.408L50.217 33.4242ZM52.8374 24.5674L54.2275 24.4011L54.0613 23.0111L52.6712 23.1773L52.8374 24.5674ZM49.8654 24.9228L48.9044 23.9047L45.8192 26.8167L50.0316 26.3129L49.8654 24.9228ZM52.0691 22.0958L50.8476 21.4118L52.0691 22.0958ZM51.938 12.8604L53.2158 12.2884L52.6439 11.0106L51.366 11.5825L51.938 12.8604ZM45.3499 15.8094L44.1476 16.5267L44.7855 17.5959L45.9219 17.0872L45.3499 15.8094ZM33.7483 8.68735L33.7241 10.0871L33.7277 10.0872L33.7483 8.68735ZM33.3876 10.0866C33.4378 10.0859 33.4881 10.0855 33.5385 10.0855V7.28554C33.475 7.28554 33.4115 7.28599 33.3482 7.28688L33.3876 10.0866ZM32.5173 10.0576C32.7702 10.0576 33.0219 10.0663 33.2721 10.0835L33.4637 7.29002C33.15 7.26851 32.8345 7.25759 32.5173 7.25759V10.0576ZM24.7748 13.4906C26.7263 11.3534 29.4343 10.0576 32.5173 10.0576V7.25759C28.6087 7.25759 25.1623 8.91375 22.7071 11.6026L24.7748 13.4906ZM20.7297 18.3454C21.5782 16.4326 22.8981 14.8327 24.5377 13.6978L22.9441 11.3955C20.8683 12.8324 19.2208 14.8418 18.1702 17.21L20.7297 18.3454ZM8.69122 14.4957L18.878 19.0555L20.0219 16.4999L9.83519 11.9401L8.69122 14.4957ZM10.3537 21.7693C9.79452 20.7708 9.60931 19.2414 9.72341 17.5956C9.83594 15.9726 10.2194 14.5085 10.541 13.7899L7.98538 12.6459C7.49871 13.7331 7.05957 15.5347 6.93012 17.402C6.80224 19.2464 6.95565 21.4319 7.91059 23.1373L10.3537 21.7693ZM11.9817 23.9522C11.3652 23.3195 10.8174 22.5975 10.3537 21.7693L7.91059 23.1373C8.49657 24.1838 9.19268 25.1021 9.97636 25.9063L11.9817 23.9522ZM8.16615 26.0028L10.8128 26.3193L11.1453 23.5391L8.49863 23.2226L8.16615 26.0028ZM11.9158 32.4533C11.0851 31.6662 10.4536 30.261 10.0732 28.6557C9.69817 27.0726 9.629 25.5607 9.72249 24.779L6.9423 24.4465C6.80085 25.6292 6.91715 27.4799 7.34866 29.3012C7.7749 31.1003 8.5711 33.1414 9.98985 34.4858L11.9158 32.4533ZM24.6301 35.2239C19.7947 35.9234 15.2162 35.5808 11.9158 32.4533L9.98985 34.4858C14.2493 38.522 19.9501 38.7301 25.0309 37.9951L24.6301 35.2239ZM25.2173 35.1135C25.0202 35.1589 24.8244 35.1958 24.6301 35.2239L25.0309 37.9951C25.3051 37.9554 25.5768 37.904 25.8456 37.8421L25.2173 35.1135ZM32.5835 37.1247C30.3327 37.1247 28.1673 36.4596 26.2668 35.2865L24.7961 37.6691C27.1033 39.0933 29.7732 39.9247 32.5835 39.9247V37.1247ZM37.6132 35.8903C36.1288 36.679 34.427 37.1247 32.5835 37.1247V39.9247C34.8866 39.9247 37.0393 39.3659 38.9269 38.363L37.6132 35.8903ZM37.7078 35.8422L37.6397 35.8766L38.9004 38.3767L38.9685 38.3423L37.7078 35.8422ZM38.4865 35.5444C38.2911 35.624 38.0928 35.6977 37.8916 35.7654L38.7847 38.4192C39.0412 38.3329 39.294 38.2389 39.543 38.1374L38.4865 35.5444ZM49.2541 32.408C46.5458 34.9743 42.9823 35.6674 39.0954 35.4432L38.9341 38.2386C43.2111 38.4853 47.6838 37.7534 51.18 34.4404L49.2541 32.408ZM51.4473 24.7336C51.5408 25.5153 51.4717 27.0273 51.0966 28.6104C50.7163 30.2157 50.0848 31.6208 49.2541 32.408L51.18 34.4404C52.5987 33.096 53.3949 31.055 53.8212 29.2559C54.2527 27.4346 54.369 25.5839 54.2275 24.4011L51.4473 24.7336ZM50.0316 26.3129L53.0037 25.9575L52.6712 23.1773L49.6992 23.5327L50.0316 26.3129ZM50.8476 21.4118C50.3068 22.3775 49.6512 23.1999 48.9044 23.9047L50.8264 25.9409C51.7729 25.0475 52.6066 24.0015 53.2906 22.7798L50.8476 21.4118ZM50.6602 13.4323C50.9819 14.1509 51.3653 15.6151 51.4778 17.2381C51.5919 18.8839 51.4067 20.4132 50.8476 21.4118L53.2906 22.7798C54.2456 21.0744 54.399 18.8889 54.2711 17.0444C54.1417 15.1772 53.7025 13.3756 53.2158 12.2884L50.6602 13.4323ZM45.9219 17.0872L52.51 14.1382L51.366 11.5825L44.7779 14.5315L45.9219 17.0872ZM33.7277 10.0872C37.9289 10.149 41.848 12.6722 44.1476 16.5267L46.5522 15.0921C43.8346 10.537 39.0873 7.36576 33.7689 7.2875L33.7277 10.0872ZM33.5385 10.0855C33.6005 10.0855 33.6623 10.0861 33.7241 10.0871L33.7725 7.28756C33.6946 7.28621 33.6166 7.28554 33.5385 7.28554V10.0855Z" fill="white"/>
</g>
<g id="Group 1912055883">
<g id="Vector 1907">
<path d="M36.3426 27.9137L8.36328 24.5676C8.12835 26.5321 8.73423 31.2929 10.9837 33.4245C14.7636 37.0063 19.9033 37.2816 24.8614 36.5644C29.8195 35.8471 34.5346 30.5362 36.3426 27.9137Z" fill="#3DB9F2"/>
<path d="M36.3426 27.9137L8.36328 24.5676C8.12835 26.5321 8.73423 31.2929 10.9837 33.4245C14.7636 37.0063 19.9033 37.2816 24.8614 36.5644C29.8195 35.8471 34.5346 30.5362 36.3426 27.9137Z" fill="white" fill-opacity="0.2"/>
</g>
<g id="Mask group_2">
<mask id="mask1_2681_41766" style="mask-type:alpha" maskUnits="userSpaceOnUse" x="8" y="24" width="29" height="13">
<path id="Vector 1909" d="M36.3426 27.9134L8.36328 24.5674C8.12835 26.5319 8.73423 31.2926 10.9837 33.4242C14.7636 37.006 19.9033 37.2814 24.8614 36.5641C29.8195 35.8469 34.5346 30.5359 36.3426 27.9134Z" fill="#0279FE"/>
</mask>
<g mask="url(#mask1_2681_41766)">
<path id="Vector 1910" d="M32.6382 31.6515L11.8672 22.3539C11.1727 23.9053 10.3989 27.9407 11.5827 30.2113C13.572 34.0269 17.4761 35.4573 21.4988 36.0335C25.5214 36.6096 30.5551 33.3721 32.6382 31.6515Z" fill="#CEEFFF"/>
</g>
</g>
<g id="Vector 1908">
<path d="M34.9852 24.834L9.26562 13.3213C8.4573 15.1271 7.62047 19.8528 9.13454 22.5567C11.6788 27.1003 16.5042 28.8912 21.4513 29.6803C26.3985 30.4695 32.4793 26.8004 34.9852 24.834Z" fill="#3DB9F2"/>
<path d="M34.9852 24.834L9.26562 13.3213C8.4573 15.1271 7.62047 19.8528 9.13454 22.5567C11.6788 27.1003 16.5042 28.8912 21.4513 29.6803C26.3985 30.4695 32.4793 26.8004 34.9852 24.834Z" fill="white" fill-opacity="0.2"/>
</g>
<g id="Mask group_3">
<mask id="mask2_2681_41766" style="mask-type:alpha" maskUnits="userSpaceOnUse" x="8" y="13" width="27" height="17">
<path id="Vector 1910_2" d="M34.9852 24.834L9.26562 13.3213C8.4573 15.1271 7.62047 19.8528 9.13454 22.5567C11.6788 27.1003 16.5042 28.8912 21.4513 29.6803C26.3985 30.4695 32.4793 26.8004 34.9852 24.834Z" fill="#0279FE"/>
</mask>
<g mask="url(#mask2_2681_41766)">
<path id="Vector 1909_2" d="M37.7509 24.3735L12.0312 12.8608C11.2229 14.6667 10.3861 19.3923 11.9002 22.0963C14.4444 26.6399 19.2698 28.4307 24.217 29.2199C29.1641 30.009 35.2449 26.34 37.7509 24.3735Z" fill="#CEEFFF"/>
</g>
</g>
</g>
<g id="Group 1912055893">
<path id="Vector 1907_2" d="M24.8605 27.9139L52.8398 24.5679C53.0748 26.5323 52.4689 31.2931 50.2194 33.4247C46.4395 37.0065 41.2998 37.2819 36.3417 36.5646C31.3837 35.8474 26.6685 30.5364 24.8605 27.9139Z" fill="#64C7F5"/>
<g id="Mask group_4">
<mask id="mask3_2681_41766" style="mask-type:alpha" maskUnits="userSpaceOnUse" x="24" y="24" width="29" height="13">
<path id="Vector 1909_3" d="M24.8605 27.9139L52.8398 24.5679C53.0748 26.5323 52.4689 31.2931 50.2194 33.4247C46.4395 37.0065 41.2998 37.2819 36.3417 36.5646C31.3837 35.8474 26.6685 30.5364 24.8605 27.9139Z" fill="#B7E8FF"/>
</mask>
<g mask="url(#mask3_2681_41766)">
<path id="Vector 1910_3" d="M23.3878 26.8456L51.3672 23.4995C51.6021 25.464 50.9962 30.2248 48.7468 32.3563C44.9668 35.9382 39.8272 36.2135 34.8691 35.4963C29.911 34.779 25.1959 29.4681 23.3878 26.8456Z" fill="#B7E8FF"/>
<path id="Ellipse 5733" d="M47.7357 22.9219C48.2548 30.5776 42.998 36.5671 36.2687 36.5671C29.5394 36.5671 23.4704 30.5776 22.9512 22.9219C22.4321 15.2662 27.6889 9.27668 34.4182 9.27668C41.1475 9.27668 47.2165 15.2662 47.7357 22.9219Z" stroke="#019BE3" stroke-opacity="0.2" stroke-width="2.8"/>
</g>
</g>
<path id="Vector 1908_2" d="M26.2179 24.3735L51.9375 12.8608C52.7458 14.6667 53.5827 19.3923 52.0686 22.0963C49.5244 26.6399 44.6989 28.4307 39.7518 29.2199C34.8046 30.009 28.7238 26.34 26.2179 24.3735Z" fill="#64C7F5"/>
<g id="Mask group_5">
<mask id="mask4_2681_41766" style="mask-type:alpha" maskUnits="userSpaceOnUse" x="26" y="12" width="27" height="18">
<path id="Vector 1910_4" d="M26.2179 24.3735L51.9375 12.8608C52.7458 14.6667 53.5827 19.3923 52.0686 22.0963C49.5244 26.6399 44.6989 28.4307 39.7518 29.2199C34.8046 30.009 28.7238 26.34 26.2179 24.3735Z" fill="#B7E8FF"/>
</mask>
<g mask="url(#mask4_2681_41766)">
<path id="Vector 1909_4" d="M25.3356 26.3873L49.2812 11.5332C50.3242 13.2145 51.7865 17.7854 50.6482 20.6678C48.7356 25.5113 44.1935 27.9324 39.3967 29.3771C34.5998 30.8218 28.0823 28.0003 25.3356 26.3873Z" fill="#B7E8FF"/>
<path id="Ellipse 5733_2" d="M47.7357 22.6987C48.2548 30.3544 42.998 36.3439 36.2687 36.3439C29.5394 36.3439 23.4704 30.3544 22.9512 22.6987C22.4321 15.043 27.6889 9.05353 34.4182 9.05353C41.1475 9.05353 47.2165 15.043 47.7357 22.6987Z" stroke="#019BE3" stroke-opacity="0.2" stroke-width="2.8"/>
</g>
</g>
</g>
<g id="Mask group_6">
<mask id="mask5_2681_41766" style="mask-type:alpha" maskUnits="userSpaceOnUse" x="18" y="10" width="28" height="29">
<path id="Union_2" fill-rule="evenodd" clip-rule="evenodd" d="M30.8713 10.2222C29.81 10.2222 28.7871 10.3537 27.8151 10.6023L27.7333 10.178L25.4247 11.4962C21.0062 13.7162 18.1716 18.6022 18.5681 24.2728C19.1108 32.0328 25.4989 38.3235 32.8363 38.3235C34.9097 38.3235 36.8369 37.8213 38.5229 36.9255L40.8451 35.7545L40.9007 35.2631C43.7724 32.6887 45.4506 28.7223 45.1395 24.2728C44.5969 16.5129 38.2088 10.2222 30.8713 10.2222Z" fill="#003601"/>
</mask>
<g mask="url(#mask5_2681_41766)">
<g id="Union_3">
<path fill-rule="evenodd" clip-rule="evenodd" d="M30.8713 10.2222C29.81 10.2222 28.7871 10.3537 27.8151 10.6023L27.7333 10.178L25.4247 11.4962C21.0062 13.7162 18.1716 18.6022 18.5681 24.2728C19.1108 32.0328 25.4989 38.3235 32.8363 38.3235C34.9097 38.3235 36.8369 37.8213 38.5229 36.9255L40.8451 35.7545L40.9007 35.2631C43.7724 32.6887 45.4506 28.7223 45.1395 24.2728C44.5969 16.5129 38.2088 10.2222 30.8713 10.2222Z" fill="#3A963F"/>
<path fill-rule="evenodd" clip-rule="evenodd" d="M30.8713 10.2222C29.81 10.2222 28.7871 10.3537 27.8151 10.6023L27.7333 10.178L25.4247 11.4962C21.0062 13.7162 18.1716 18.6022 18.5681 24.2728C19.1108 32.0328 25.4989 38.3235 32.8363 38.3235C34.9097 38.3235 36.8369 37.8213 38.5229 36.9255L40.8451 35.7545L40.9007 35.2631C43.7724 32.6887 45.4506 28.7223 45.1395 24.2728C44.5969 16.5129 38.2088 10.2222 30.8713 10.2222Z" fill="black" fill-opacity="0.2"/>
</g>
<rect id="Rectangle 34627575" opacity="0.5" x="23.7617" y="28.4384" width="1.45444" height="8.51497" transform="rotate(46.9705 23.7617 28.4384)" fill="#013B00"/>
<rect id="Rectangle 34627577" opacity="0.5" x="26.0195" y="31.6516" width="1.45444" height="8.51497" transform="rotate(46.9705 26.0195 31.6516)" fill="#013B00"/>
<rect id="Rectangle 34627578" opacity="0.5" x="29.1484" y="34.4901" width="1.45444" height="8.51497" transform="rotate(46.9705 29.1484 34.4901)" fill="#013B00"/>
<rect id="Rectangle 34627579" opacity="0.5" x="34.7852" y="35.0881" width="1.45444" height="8.51497" transform="rotate(46.9705 34.7852 35.0881)" fill="#013B00"/>
<rect id="Rectangle 34627576" opacity="0.5" x="22.3828" y="24.0519" width="1.45444" height="8.51497" transform="rotate(46.9705 22.3828 24.0519)" fill="#013B00"/>
<rect id="Rectangle 34627580" opacity="0.5" x="21.6367" y="18.7572" width="1.45444" height="8.51497" transform="rotate(46.9705 21.6367 18.7572)" fill="#013B00"/>
<rect id="Rectangle 34627581" opacity="0.5" x="26.0781" y="10.1237" width="1.45444" height="15.4978" transform="rotate(46.9705 26.0781 10.1237)" fill="#013B00"/>
<ellipse id="Ellipse 5733_3" opacity="0.3" cx="13.2857" cy="14.5595" rx="13.2857" ry="14.5595" transform="matrix(1 0 0.0697565 0.997564 19.4844 8.45642)" fill="#013B00"/>
</g>
</g>
<g id="Mask group_7">
<mask id="mask6_2681_41766" style="mask-type:alpha" maskUnits="userSpaceOnUse" x="21" y="8" width="27" height="29">
<ellipse id="Ellipse 5730" cx="13.0032" cy="14.249" rx="13.0032" ry="14.249" transform="matrix(1 0 0.0697565 0.997564 20.7852 8.48438)" fill="#3A963F"/>
</mask>
<g mask="url(#mask6_2681_41766)">
<ellipse id="Ellipse 5756" cx="13.0032" cy="14.249" rx="13.0032" ry="14.249" transform="matrix(1 0 0.0697565 0.997564 20.7852 8.48438)" fill="#3A963F"/>
<path id="Ellipse 5758" d="M47.7855 22.6987C48.3344 30.549 42.9577 36.913 35.7763 36.913C28.5948 36.913 22.3281 30.549 21.7791 22.6987C21.2302 14.8483 26.6069 8.48438 33.7883 8.48438C40.9698 8.48438 47.2365 14.8483 47.7855 22.6987Z" fill="#3A963F"/>
<path id="Ellipse 5758 (Stroke)" fill-rule="evenodd" clip-rule="evenodd" d="M35.567 33.9203C40.8392 33.9203 45.2373 29.1598 44.7855 22.6987C44.3337 16.2376 39.2698 11.4771 33.9976 11.4771C28.7254 11.4771 23.7201 16.2376 24.1719 22.6987C24.6451 29.4668 30.2948 33.9203 35.567 33.9203ZM35.7763 36.913C42.9577 36.913 48.3344 30.549 47.7855 22.6987C47.2365 14.8483 40.9698 8.48438 33.7883 8.48438C26.6069 8.48438 21.2302 14.8483 21.7791 22.6987C22.3281 30.549 28.5948 36.913 35.7763 36.913Z" fill="#50AB54"/>
<path id="Ellipse 5757" d="M34.7822 37.7413C27.6153 37.2838 21.7667 30.5336 21.719 22.6642C21.6999 19.5219 22.6087 16.6762 24.1636 14.4205" stroke="white" stroke-width="0.72"/>
</g>
</g>
<g id="Ellipse 5755" opacity="0.4">
<ellipse cx="10.3354" cy="11.0582" rx="10.3354" ry="11.0582" transform="matrix(1 0 0.0697565 0.997564 23.3711 11.7266)" fill="#3A963F"/>
<ellipse cx="10.3354" cy="11.0582" rx="10.3354" ry="11.0582" transform="matrix(1 0 0.0697565 0.997564 23.3711 11.7266)" fill="black" fill-opacity="0.4"/>
</g>
<g id="Subtract">
<path fill-rule="evenodd" clip-rule="evenodd" d="M42.8319 30.0344C44.3191 28.0523 45.1248 25.4332 44.924 22.5615C44.4915 16.377 39.5546 11.3635 33.8971 11.3635C30.5542 11.3635 27.7078 13.1138 26.0273 15.8218C27.743 13.5353 30.3656 12.0967 33.3961 12.0967C39.0537 12.0967 43.9906 17.1102 44.423 23.2947C44.6 25.825 43.9955 28.1593 42.8319 30.0344Z" fill="#3A963F"/>
<path fill-rule="evenodd" clip-rule="evenodd" d="M42.8319 30.0344C44.3191 28.0523 45.1248 25.4332 44.924 22.5615C44.4915 16.377 39.5546 11.3635 33.8971 11.3635C30.5542 11.3635 27.7078 13.1138 26.0273 15.8218C27.743 13.5353 30.3656 12.0967 33.3961 12.0967C39.0537 12.0967 43.9906 17.1102 44.423 23.2947C44.6 25.825 43.9955 28.1593 42.8319 30.0344Z" fill="black" fill-opacity="0.7"/>
</g>
<ellipse id="Ellipse 943" cx="26.0308" cy="12.9014" rx="1.01217" ry="1.57455" transform="rotate(44.304 26.0308 12.9014)" fill="white"/>
<g id="Mask group_8">
<mask id="mask7_2681_41766" style="mask-type:alpha" maskUnits="userSpaceOnUse" x="24" y="12" width="21" height="22">
<ellipse id="Ellipse 5752" cx="10.1734" cy="10.8918" rx="10.1734" ry="10.8918" transform="matrix(1 0 0.0697565 0.997564 23.4648 12.0565)" fill="#3A963F"/>
</mask>
<g mask="url(#mask7_2681_41766)">
<g id="Group 1912055890">
<g id="Group 1912055889">
<ellipse id="Ellipse 5746" cx="38.1435" cy="21.4766" rx="4.0257" ry="3.81121" transform="rotate(5.26334 38.1435 21.4766)" fill="white"/>
<path id="Subtract_2" opacity="0.5" fill-rule="evenodd" clip-rule="evenodd" d="M37.5578 20.5354C37.0175 19.7882 36.0681 19.3634 34.3414 19.3634C32.3038 19.3634 30.4988 20.033 29.3867 21.0627C29.4588 18.8542 31.2718 17.0861 33.4978 17.0861C35.5435 17.0861 37.2404 18.5794 37.5578 20.5354Z" fill="#D9D9D9"/>
<path id="Vector 1912" d="M35.3111 17.6688C34.5383 14.4624 31.0798 14.0348 29.003 17.0274C26.8295 19.0461 22.9173 25.5775 23.4003 31.0876" stroke="#013B00" stroke-width="0.38988" stroke-linejoin="round"/>
<path id="Vector 1913" d="M40.0505 18.2247C39.0221 15.3537 36.5026 14.2801 34.707 16.4247" stroke="#013B00" stroke-width="0.38988" stroke-linejoin="round"/>
<path id="Vector 1914" d="M42.6299 24.6246C42.2873 24.1732 41.8907 23.8015 41.4609 23.5206" stroke="#013B00" stroke-width="0.38988" stroke-linejoin="round"/>
<path id="Vector 1915" d="M37.6118 33.1677C41.1209 31.6339 41.7416 28.9397 41.8594 28.26" stroke="#013B00" stroke-width="0.38988" stroke-linejoin="round"/>
<g id="Subtract_3" filter="url(#filter0_d_2681_41766)">
<path fill-rule="evenodd" clip-rule="evenodd" d="M38.7812 21.032V22.1161C38.7812 22.711 39.2635 23.1932 39.8584 23.1932C40.4533 23.1932 40.9355 22.711 40.9355 22.1161V20.9795C40.9355 20.3846 40.4533 19.9023 39.8584 19.9023C39.75 19.9023 39.6453 19.9184 39.5465 19.9482C39.5732 20.0294 39.5877 20.1161 39.5877 20.2063C39.5877 20.6559 39.2284 21.0216 38.7812 21.032Z" fill="#3A3A3A"/>
</g>
<g id="Intersect">
<path fill-rule="evenodd" clip-rule="evenodd" d="M41.8026 23.1063C41.1123 24.5202 39.5356 25.4318 37.7969 25.2717C36.8211 25.1818 35.9571 24.7693 35.3125 24.1566C36.036 23.2727 37.5633 22.6633 39.3305 22.6633C40.2448 22.6633 41.0948 22.8264 41.8026 23.1063Z" fill="#317E35"/>
<path d="M41.8026 23.1063L41.9778 23.1918L42.0702 23.0025L41.8743 22.925L41.8026 23.1063ZM37.7969 25.2717L37.779 25.4658L37.7969 25.2717ZM35.3125 24.1566L35.1616 24.0331L35.047 24.1732L35.1782 24.2979L35.3125 24.1566ZM41.6274 23.0208C40.9738 24.3595 39.4755 25.2305 37.8148 25.0775L37.779 25.4658C39.5956 25.6331 41.2507 24.681 41.9778 23.1918L41.6274 23.0208ZM37.8148 25.0775C36.8832 24.9917 36.0601 24.5982 35.4468 24.0153L35.1782 24.2979C35.8542 24.9404 36.759 25.3718 37.779 25.4658L37.8148 25.0775ZM35.4634 24.2801C36.1365 23.4577 37.5968 22.8583 39.3305 22.8583V22.4684C37.5298 22.4684 35.9355 23.0877 35.1616 24.0331L35.4634 24.2801ZM39.3305 22.8583C40.2223 22.8583 41.0479 23.0175 41.7309 23.2876L41.8743 22.925C41.1418 22.6354 40.2672 22.4684 39.3305 22.4684V22.8583Z" fill="#013B00"/>
</g>
<g id="Subtract_4">
<path fill-rule="evenodd" clip-rule="evenodd" d="M42.1448 21.0883C41.6771 20.0011 40.7904 19.3634 39.1377 19.3634C36.7401 19.3634 34.7549 20.8828 34.411 22.8639C34.1818 22.3228 34.0796 21.7251 34.1366 21.1073C34.3296 19.0113 36.2809 17.4775 38.4949 17.6814C40.4375 17.8604 41.9369 19.3178 42.1448 21.0883Z" fill="#317E35"/>
<path d="M42.1448 21.0883L41.9657 21.1654L42.3384 21.0656L42.1448 21.0883ZM34.411 22.8639L34.2315 22.9399L34.4898 23.5497L34.6031 22.8972L34.411 22.8639ZM34.1366 21.1073L33.9424 21.0894L34.1366 21.1073ZM38.4949 17.6814L38.5128 17.4873L38.4949 17.6814ZM39.1377 19.5583C39.9397 19.5583 40.5367 19.7131 40.9845 19.9848C41.4303 20.2553 41.7447 20.6517 41.9657 21.1654L42.3239 21.0113C42.0772 20.4378 41.7144 19.9717 41.1867 19.6515C40.6611 19.3326 39.9884 19.1685 39.1377 19.1685V19.5583ZM34.6031 22.8972C34.9275 21.0281 36.8148 19.5583 39.1377 19.5583V19.1685C36.6654 19.1685 34.5822 20.7375 34.219 22.8305L34.6031 22.8972ZM34.5905 22.7878C34.3734 22.2754 34.2768 21.7098 34.3307 21.1251L33.9424 21.0894C33.8825 21.7404 33.9902 22.3703 34.2315 22.9399L34.5905 22.7878ZM34.3307 21.1251C34.513 19.1462 36.3601 17.6805 38.477 17.8755L38.5128 17.4873C36.2018 17.2744 34.1463 18.8763 33.9424 21.0894L34.3307 21.1251ZM38.477 17.8755C40.3333 18.0465 41.7547 19.4372 41.9512 21.111L42.3384 21.0656C42.1192 19.1984 40.5418 17.6742 38.5128 17.4873L38.477 17.8755Z" fill="#013B00"/>
</g>
<ellipse id="Ellipse 5748" cx="38.1435" cy="21.4766" rx="4.0257" ry="3.81121" transform="rotate(5.26334 38.1435 21.4766)" stroke="#013B00" stroke-width="0.38988"/>
<circle id="Ellipse 5745" cx="33.5" cy="21.1994" r="4.11332" fill="white"/>
<g id="Subtract_5" filter="url(#filter1_d_2681_41766)">
<path fill-rule="evenodd" clip-rule="evenodd" d="M33.5742 20.9104V22.0142C33.5742 22.62 34.0653 23.1111 34.6711 23.1111C35.2769 23.1111 35.768 22.62 35.768 22.0142V20.8568C35.768 20.251 35.2769 19.7599 34.6711 19.7599C34.5606 19.7599 34.4539 19.7762 34.3533 19.8066C34.3804 19.8893 34.3951 19.9777 34.3951 20.0695C34.3951 20.5273 34.0294 20.8996 33.5742 20.9104Z" fill="#3A3A3A"/>
</g>
<path id="Subtract_6" fill-rule="evenodd" clip-rule="evenodd" d="M37.6109 21.3416C37.6126 21.2944 37.6134 21.247 37.6134 21.1994C37.6134 18.9277 35.7718 17.0861 33.5 17.0861C31.2283 17.0861 29.3867 18.9277 29.3867 21.1994C29.3867 21.461 29.4112 21.717 29.4579 21.9651C30.2425 20.4413 32.1782 19.3634 34.4419 19.3634C36.434 19.3634 37.2444 20.1008 37.6109 21.3416Z" fill="#3A963F"/>
<g id="Group 1912055886">
<g id="Intersect_2">
<mask id="path-52-inside-1_2681_41766" fill="white">
<path fill-rule="evenodd" clip-rule="evenodd" d="M37.187 23.0613C36.5076 24.3973 35.1198 25.3126 33.5182 25.3126C31.997 25.3126 30.6687 24.4869 29.957 23.2591C30.9269 22.7627 32.2847 22.4542 33.7876 22.4542C35.0793 22.4542 36.2638 22.6821 37.187 23.0613Z"/>
</mask>
<path fill-rule="evenodd" clip-rule="evenodd" d="M37.187 23.0613C36.5076 24.3973 35.1198 25.3126 33.5182 25.3126C31.997 25.3126 30.6687 24.4869 29.957 23.2591C30.9269 22.7627 32.2847 22.4542 33.7876 22.4542C35.0793 22.4542 36.2638 22.6821 37.187 23.0613Z" fill="#317E35"/>
<path d="M37.187 23.0613L37.5345 23.238L37.7261 22.8612L37.3351 22.7006L37.187 23.0613ZM29.957 23.2591L29.7794 22.9121L29.4137 23.0992L29.6197 23.4546L29.957 23.2591ZM36.8394 22.8846C36.2239 24.0949 34.9674 24.9227 33.5182 24.9227V25.7025C35.2721 25.7025 36.7912 24.6997 37.5345 23.238L36.8394 22.8846ZM33.5182 24.9227C32.1417 24.9227 30.9391 24.176 30.2943 23.0636L29.6197 23.4546C30.3982 24.7977 31.8524 25.7025 33.5182 25.7025V24.9227ZM30.1347 23.6062C31.0382 23.1437 32.3323 22.8441 33.7876 22.8441V22.0643C32.2371 22.0643 30.8155 22.3817 29.7794 22.9121L30.1347 23.6062ZM33.7876 22.8441C35.0366 22.8441 36.1696 23.0649 37.0388 23.4219L37.3351 22.7006C36.358 22.2993 35.1221 22.0643 33.7876 22.0643V22.8441Z" fill="#013B00" mask="url(#path-52-inside-1_2681_41766)"/>
</g>
</g>
<path id="Vector 1910_5" d="M38.496 26.7891C41.6565 26.7891 42.2724 26.0426 42.5861 24.4413C42.9463 24.7062 43.1554 25.0842 43.1554 25.5851C43.1554 26.0859 42.8069 26.7048 42.3886 27.0058C42.528 27.0058 42.5861 27.1262 42.5861 27.4151C42.5861 28.0412 41.8889 29.1007 38.496 29.1007C35.1031 29.1007 32.9651 28.3783 30.7806 27.1743C28.7056 26.0307 29.944 24.7664 31.2454 25.4406C32.5468 26.1148 35.8235 26.7891 38.496 26.7891Z" fill="#F25B2D" stroke="#9E2300" stroke-width="0.38988" stroke-linejoin="round"/>
<path id="Vector 1911" d="M31.6992 26.6373C33.1284 27.25 36.3122 27.9852 38.9846 27.9852C40.8705 27.9852 41.8431 27.5318 42.5054 26.9069" stroke="#9E2300" stroke-width="0.38988" stroke-linecap="round" stroke-linejoin="round"/>
<g id="Subtract_7">
<mask id="path-56-inside-2_2681_41766" fill="white">
<path fill-rule="evenodd" clip-rule="evenodd" d="M37.6109 21.3416C37.6126 21.2944 37.6134 21.247 37.6134 21.1994C37.6134 18.9277 35.7718 17.0861 33.5 17.0861C31.2283 17.0861 29.3867 18.9277 29.3867 21.1994C29.3867 21.461 29.4112 21.717 29.4579 21.9651C30.2425 20.4413 32.1782 19.3634 34.4419 19.3634C36.434 19.3634 37.2444 20.1008 37.6109 21.3416Z"/>
</mask>
<path fill-rule="evenodd" clip-rule="evenodd" d="M37.6109 21.3416C37.6126 21.2944 37.6134 21.247 37.6134 21.1994C37.6134 18.9277 35.7718 17.0861 33.5 17.0861C31.2283 17.0861 29.3867 18.9277 29.3867 21.1994C29.3867 21.461 29.4112 21.717 29.4579 21.9651C30.2425 20.4413 32.1782 19.3634 34.4419 19.3634C36.434 19.3634 37.2444 20.1008 37.6109 21.3416Z" fill="#317E35"/>
<path d="M37.6109 21.3416L37.237 21.452L38.0006 21.3548L37.6109 21.3416ZM29.4579 21.9651L29.0747 22.0372L29.2848 23.1529L29.8045 22.1436L29.4579 21.9651ZM37.2235 21.1994C37.2235 21.2426 37.2227 21.2855 37.2213 21.3283L38.0006 21.3548C38.0024 21.3032 38.0032 21.2514 38.0032 21.1994H37.2235ZM33.5 17.4759C35.5564 17.4759 37.2235 19.143 37.2235 21.1994H38.0032C38.0032 18.7123 35.9871 16.6962 33.5 16.6962V17.4759ZM29.7766 21.1994C29.7766 19.143 31.4436 17.4759 33.5 17.4759V16.6962C31.013 16.6962 28.9968 18.7123 28.9968 21.1994H29.7766ZM29.841 21.893C29.7988 21.6685 29.7766 21.4367 29.7766 21.1994H28.9968C28.9968 21.4854 29.0235 21.7655 29.0747 22.0372L29.841 21.893ZM29.8045 22.1436C30.5066 20.7799 32.2867 19.7533 34.4419 19.7533V18.9735C32.0698 18.9735 29.9783 20.1027 29.1112 21.7866L29.8045 22.1436ZM34.4419 19.7533C35.395 19.7533 36.0077 19.9305 36.4162 20.2092C36.8173 20.4829 37.0704 20.8881 37.237 21.452L37.9849 21.2311C37.7849 20.5543 37.4495 19.9703 36.8558 19.5651C36.2694 19.165 35.4809 18.9735 34.4419 18.9735V19.7533Z" fill="#013B00" mask="url(#path-56-inside-2_2681_41766)"/>
</g>
<circle id="Ellipse 5747" cx="33.5" cy="21.1994" r="3.91838" stroke="#013B00" stroke-width="0.38988"/>
</g>
<path id="Ellipse 5752_2" d="M34.4675 25.0109C34.4675 25.5058 34.3486 25.4991 33.0266 25.4991C31.7047 25.4991 29.75 24.2277 29.75 23.7329C29.75 23.238 30.9915 23.361 32.3135 23.361C33.6354 23.361 34.4675 24.5161 34.4675 25.0109Z" fill="#317E35"/>
<path id="Ellipse 5753" d="M39.9176 25.7139C39.6964 26.1566 35.691 25.4398 34.9371 25.063C36.1339 24.6156 36.8288 23.7372 37.0867 23.2213C37.4643 23.2213 38.673 23.2471 39.4269 23.6239C40.1808 24.0008 40.1389 25.2713 39.9176 25.7139Z" fill="#317E35"/>
<path id="Ellipse 5754" d="M29.8764 20.7225C29.5742 21.153 29.3418 21.2925 29.4174 21.8095C28.0404 20.7871 29.6185 19.0655 29.8764 18.5496C30.0244 18.4348 30.7014 18.6193 30.899 18.84C31.0799 18.9305 30.1607 20.3174 29.8764 20.7225Z" fill="#317E35"/>
<path id="Vector 1916" d="M36.236 24.0304C36.67 24.5781 37.2781 24.8481 37.8242 24.9873" stroke="#013B00" stroke-width="0.38988" stroke-linecap="square" stroke-linejoin="round"/>
<path id="Vector 1917" opacity="0.4" d="M29.9579 23.1933C29.4335 22.2584 28.7015 21.5977 27.7795 21.397" stroke="#013B00" stroke-width="0.38988" stroke-linecap="round" stroke-linejoin="round"/>
<path id="Vector 1918" opacity="0.4" d="M29.6047 24.2742C28.7966 24.3601 28.2693 24.9737 28.2031 25.6076" stroke="#013B00" stroke-width="0.38988" stroke-linecap="round" stroke-linejoin="round"/>
<path id="Vector 1919" opacity="0.4" d="M28.8732 23.7998C28.7186 23.7998 28.1106 24.083 27.9813 24.2704" stroke="#013B00" stroke-width="0.38988" stroke-linecap="round" stroke-linejoin="round"/>
</g>
</g>
</g>
</g>
<path id="Vector 1920" opacity="0.4" d="M28.8448 17.0332C27.423 18.3457 25.1625 22.6478 24.4541 24.752C23.8292 22.5957 24.1918 19.0552 24.8918 17.7051C25.7668 16.0175 28.0476 12.1441 33.5789 12.1436C42.8314 12.1426 45.0792 21.6895 44.3605 26.3613C43.7186 30.5333 40.0948 32.7988 37.7355 33.377C39.2355 32.502 42.1417 29.8457 41.9386 28.6426C42.9069 28.0173 42.673 27.0332 42.673 27.0332C42.673 27.0332 43.8917 25.6582 42.9386 24.5957C41.9855 23.5332 42.1886 23.8613 41.6886 23.4863C43.2198 21.0957 41.6573 18.752 40.0636 17.8926C39.2198 15.4707 36.5323 14.1113 34.7355 16.0645C33.5167 14.2999 30.4073 14.2988 28.8448 17.0332Z" fill="#1D4B20"/>
<path id="Vector 1923" opacity="0.4" d="M28.8448 17.0332C27.423 18.3457 25.1625 22.6478 24.4541 24.752C23.8292 22.5957 24.1918 19.0552 24.8918 17.7051C25.7668 16.0175 28.0476 12.1441 33.5789 12.1436C42.8314 12.1426 45.0792 21.6895 44.3605 26.3613C43.7186 30.5333 40.0948 32.7988 37.7355 33.377C39.2355 32.502 42.1417 29.8457 41.9386 28.6426C42.9069 28.0173 42.673 27.0332 42.673 27.0332C42.673 27.0332 43.8917 25.6582 42.9386 24.5957C41.9855 23.5332 42.1886 23.8613 41.6886 23.4863C43.2198 21.0957 41.6573 18.752 40.0636 17.8926C39.2198 15.4707 36.5323 14.1113 34.7355 16.0645C33.5167 14.2999 30.4073 14.2988 28.8448 17.0332Z" fill="#1D4B20"/>
</g>
</g>
</g>
<defs>
<filter id="filter0_d_2681_41766" x="37.2217" y="19.9023" width="5.27138" height="6.40993" filterUnits="userSpaceOnUse" color-interpolation-filters="sRGB">
<feFlood flood-opacity="0" result="BackgroundImageFix"/>
<feColorMatrix in="SourceAlpha" type="matrix" values="0 0 0 0 0 0 0 0 0 0 0 0 0 0 0 0 0 0 127 0" result="hardAlpha"/>
<feOffset dy="1.55952"/>
<feGaussianBlur stdDeviation="0.77976"/>
<feComposite in2="hardAlpha" operator="out"/>
<feColorMatrix type="matrix" values="0 0 0 0 0 0 0 0 0 0 0 0 0 0 0 0 0 0 0.25 0"/>
<feBlend mode="normal" in2="BackgroundImageFix" result="effect1_dropShadow_2681_41766"/>
<feBlend mode="normal" in="SourceGraphic" in2="effect1_dropShadow_2681_41766" result="shape"/>
</filter>
<filter id="filter1_d_2681_41766" x="32.0147" y="19.7599" width="5.31435" height="6.47024" filterUnits="userSpaceOnUse" color-interpolation-filters="sRGB">
<feFlood flood-opacity="0" result="BackgroundImageFix"/>
<feColorMatrix in="SourceAlpha" type="matrix" values="0 0 0 0 0 0 0 0 0 0 0 0 0 0 0 0 0 0 127 0" result="hardAlpha"/>
<feOffset dy="1.55952"/>
<feGaussianBlur stdDeviation="0.77976"/>
<feComposite in2="hardAlpha" operator="out"/>
<feColorMatrix type="matrix" values="0 0 0 0 0 0 0 0 0 0 0 0 0 0 0 0 0 0 0.25 0"/>
<feBlend mode="normal" in2="BackgroundImageFix" result="effect1_dropShadow_2681_41766"/>
<feBlend mode="normal" in="SourceGraphic" in2="effect1_dropShadow_2681_41766" result="shape"/>
</filter>
</defs>
</svg>
