<svg width="14" height="13" viewBox="0 0 14 13" fill="none" xmlns="http://www.w3.org/2000/svg">
<g id="Group 1912055374">
<path id="&#230;&#152;&#159;&#229;&#189;&#162;&#229;&#164;&#135;&#228;&#187;&#189; 7" fill-rule="evenodd" clip-rule="evenodd" d="M5.68018 11.663C5.89535 9.45055 7.55235 7.63631 9.73883 7.23539C7.63614 6.80009 5.94062 5.24837 5.32114 3.1924L4.96467 2.00931L4.84889 2.83074C4.60414 4.56714 2.9852 5.76698 1.2527 5.49597L1.67542 5.87862C3.43718 7.47333 4.80758 9.45273 5.68018 11.663Z" fill="#C6FF0A"/>
<path id="&#230;&#152;&#159;&#229;&#189;&#162;&#229;&#164;&#135;&#228;&#187;&#189; 9" fill-rule="evenodd" clip-rule="evenodd" d="M11.2481 5.97852C11.3595 4.83295 12.2175 3.89358 13.3496 3.68599C12.2609 3.4606 11.383 2.65716 11.0622 1.59263L10.8776 0.980056L10.8177 1.40537C10.691 2.30444 9.85271 2.92569 8.95566 2.78537L9.17453 2.98349C10.0867 3.8092 10.7963 4.83408 11.2481 5.97852Z" fill="#C6FF0A"/>
</g>
</svg>
