<svg width="26" height="24" viewBox="0 0 26 24" fill="none" xmlns="http://www.w3.org/2000/svg">
<g id="Group 1171275087">
<path id="Vector" d="M15.71 3.04418C14.501 0.99569 11.4977 0.99569 10.2887 3.04418L1.27662 18.3139C0.00569439 20.4673 1.67892 22.9578 3.98726 22.9578H22.0115C24.3198 22.9578 25.993 20.4673 24.7221 18.3139L15.71 3.04418Z" fill="#E23D29" stroke="white" stroke-width="1.5"/>
<path id="Vector_2" fill-rule="evenodd" clip-rule="evenodd" d="M11.6106 8.55638C11.5878 8.1516 11.914 7.81104 12.3245 7.81104H13.6728C14.0833 7.81104 14.4095 8.1516 14.3867 8.55638L14.1086 14.3413C14.0876 14.7155 13.7742 15.0083 13.3948 15.0083H12.6025C12.2231 15.0083 11.9097 14.7155 11.8887 14.3413L11.6106 8.55638ZM14.4283 17.3987C14.4283 18.1787 13.7881 18.811 12.9983 18.811C12.2086 18.811 11.5684 18.1787 11.5684 17.3987C11.5684 16.6187 12.2086 15.9863 12.9983 15.9863C13.7881 15.9863 14.4283 16.6187 14.4283 17.3987Z" fill="white"/>
</g>
</svg>
